<svg xmlns="http://www.w3.org/2000/svg" width="600" height="600" stroke-linejoin="round" xmlns:v="https://vecta.io/nano"><g transform="matrix(1.438386 0 0 1.438386 -32.264808 -112.30735)"><g transform="matrix(.84953 0 0 .84953 26.969879 146.4)"><path d="M425.226 194.923A181.904 181.614 0 0 1 241.162 374.07 181.904 181.614 0 0 1 61.445 190.576 181.904 181.614 0 0 1 244.953 10.861a181.904 181.614 0 0 1 180.285 182.938" stroke="#000004" stroke-width=".948" paint-order="normal"/><g stroke="#000006"><g fill="#5df"><path d="M204.294 359.786c-7.306-1.332-12.055-2.962-19.452-5.537l-14.231-6.325 5.674-4.831c2.579-2.196 5.082-9.122 6.654-14.559.933-12.556 7.356-16.895 18.615-25.448 13.864-11.78 15.574-22.934-.466-39.984-9.631-10.238-18.47-15.39-31.657-16.134-6.458-.364-13.991 1.763-13.597-5.739-.458-3.213 1.922-8.388 9.182-6.441 9.143-.103 13.987-6.189 7.982-16.355-2.5-6.87-12.924-9.15-17.094-6.732-4.632 2.687-12.776-3.33-12.42-6.9.313-3.135 4.624-6.059 8.937-8.587 8.195-4.033 16.515-14.616 15.576-19.38-2.021-10.247-4.773-11.052-9.339-11.6-4.797-.576-7.433 1.7-12.924 6.445-9.142 7.898-12.681 8.43-16.201 6.79-6.227-2.332-7.615-14.072-5.612-19.322 1.463-3.834 3.734-6.291 11.46-5.43 16.118 1.796 19.94-2.233 23.123-4.584 3.473-8.385 1.511-15.182-9.014-17.667-11.376-2.687-12.09-5.714-7.536-13.703 4.769-9.174 16.593-17.497 23.634-14.82 6.392 5.537 5.952 5.602 6.629 14.964.429 5.93 1.696 11.072 2.817 12.192s5.274 3.71 10.5 3.449c10.807-.54 15.761-3.998 19.33-17.636C207.72 105 212.948 98.1 220.237 96.499c6.99-1.535 12.379-8.203 11.002-14.156-1.796-7.768-6.094-13.096-12.434-17.369-6.763-4.558-10.115-3.307-21.839 2.629-5.472 2.771-8.544 3.492-11.853 1.984-2.294-1.045-5.893-4.741-5.893-6.203 0-5.569-5.011-16.657-8.441-17.746-2.287-.726-4.929 1.931-8.149 4.312-2.956 2.185-6.353 3.641-9.772 3.52-3.205-.113-10.226-2.449-8.521-2.894s9.794-5.891 10.458-6.263c21.761-12.187 26.585-13.522 42.186-18.1 12.698-3.726 22.68-6.123 45.953-6.123 23.377 0 29.857 2.713 42.841 5.606 26.333 5.868 51.495 20.264 71.117 37.916 6.912 6.218 8.538 6.123 5.054 7.033-2.056.538-6.938 3.154-10.92 2.191-9.329-2.256-14.332-2.287-21.472-.457-6.194 1.588-16.749 2.516-24.746.835 0 0-15.21-.834-14.344-1.135 1.374-.477-.235-3.216.964-3.298 4.141-.286 27.59-7.619 21.836-19.969-2.006-6.057-10.805-12.087-17.351-12.087-5.678 0-16.348 3.498-20.766 7.425-4.871 4.329-3.674 14.155 1.957 19.787 2.568 2.568 8.736 4.83 11.038 4.83 5.52 0 4.533 2.899-1.059 4.302-5.703 1.431-11.484 9.32-10.119 14.504.579 2.199 6.635 8.495 12.184 14.661 8.931 9.925 10.263 9.403 22.087 12.656 7.188 1.526 17.411 2.294 19.846 2.567 3.41.382 5.619 3.794 4.35 6.959-3.209 8-8.865 7.843-21.383 1.329-13.429-6.989-23.901-7.15-29.041-1.749-1.617 4.437-1.673 5.58 1.142 10.575 1.592 2.825 5.444 6.508 6.734 8.87 2.383 4.361 1.674 8.367-2.535 12.175-5.514 4.99-6.144 13.103-1.799 20.133 4.98 6.183 12.368 10.122 18.284 9.25 12.314-1.816 17.162 6.196 16.955 16.95-.351 18.257-3.563 28.33-23.575 32.658-5.528 1.579-17.721 6.372-21.355 8.739-13.629 8.987-17.643 39.207-5.758 50.857 4.62 4.62 6.619 5.123 16.45 4.735 7.924-.313 12.274-.83 13.71 2.868.61 1.572 2.011 9.656 1.275 17.545l.575 15.189 5.938 5.423 7.739 5.893-15.839 7.405c-26.945 12.597-61.31 13.324-90.046 8.087zm78.532-130.864c5.536-2.105 7.517-9.005 4.961-13.78-1.022-1.91-3.773-4.629-7.356-6.329-5.068-1.67-8.298-2.103-13.035-.786-6.456 2.708-10.253 7.409-7.82 14.385 2.312 6.629 14.818 9.543 23.25 6.51zm-71.661-5.937c5.84-3.777 6.373-12.547-.128-16.924-6.386-4.3-15.598-4.616-21.262.677-12.256 11.454 7.848 24.548 21.39 16.248zm27.022-9.995c2.742-.016 6.774-2.774 7.936-4.981 1.75-3.323 1.909-3.919.697-5.141-1.54-.591-2.815 1.732-4.662 3.403-3.186 2.883-5.634 2.96-7.832-.56-2.732-4.375-5.199-6.319-5.231-2.18-.037 4.715 5.137 9.481 9.092 9.458zm48.935-15.123c-2.289-6.89-5.025-12.757-11.303-13.266-3.478-.282-5.964 1.225-7.734 3.181-3.849 4.253-6.983 11.024-5.184 13.936 1.947 3.15 5.271 2.294 5.271-1.746 0-4.902 6.662-12.383 9.348-9.698 1.156 1.156 4.45 6.515 4.45 8.56 0 4.243 1.211 6.608 3.941 5.644 1.011-.357 1.319-3.095 1.211-6.611zm-73.23-3.659c-1.252-7.105-5.241-15.359-12.49-14.514-8.864 1.033-15.494 18.269-9.559 19.233 1.75.333 5.389-12.841 8.134-13.156l3.562-.408 2.808 2.991c1.02 2.109 1.946 6.259 2.182 7.921.431 3.033.591 4.473 3.784 4.473 1.579 0 2.41-1.822 1.579-6.539zM73.475 224.021c-3.397-11.916-3.018-57.165-.457-57.165 1.093 0 9.514 5.938 9.514 6.837s3.937 1.157 7.417 2.774c9.989 4.641 10.674 5.758 14.227 12.679 5.958 11.606 6.196 22.084-7.105 31.308-1.292.896-4.461 3.995-5.05 4.784l-13.169 17.646zm308.289 61.684c1.247-1.267-1.578-11.542-8.516-15.122-5.639-2.909-9.992-5.27-3.177-10.74 12.597-10.11 17.26-7.656 20.944-6.916l13.087.528-9.541 23.118c-3.225 7.815-19.504 25.417-21.015 27.365-3.692 2.929.24-10.134 8.217-18.234z" stroke-width=".509" paint-order="normal"/><path d="M118.568 311.501c-5.944-6.155-6.225-6.885-9.7-11.383a85.21 85.21 0 0 0-3.816-4.437c-.181-.172-2.11-3.593-2.563-4.398-.774-1.378 4.42.499 5.784.909 3.294 1.354 12.116 4.24 11.242 5.114.981.846 2.705 1.744 3.4 2.534 1.013 1.152 3.077 3.486 4.053 5.848.917 2.217.16 11.2-.851 12.211-.373.373-4.007-2.729-7.55-6.398zm290.477-95.497c-1.765-1.366-2.33-3.949-2.588-3.953s-1.331-1.687-1.331-2.066-.253-.851-.801-2.007c-.924-1.947-1.071-3.619-.968-5.357-.139-2.045 1.059-2.895 2.16-4.512 0-.517 1.469-2.192 2.068-2.145.521-.579.896-1.533 1.842-1.643.383-.677 4.983-5.45 5.405-5.03.538.535-1.272 29.026-1.418 29.825-1.141.755-2.122-1.374-4.369-3.113z" stroke-width=".18" paint-order="normal"/></g><g stroke-width=".18"><path d="M155.277 343.441c-.327-.274-1.648-.593-3.628-1.237s-3.757-1.875-3.757-2.164-4.545-3.303-5.006-3.303c-1.397 0-6.284-5.233-6.853-5.852-.46-.501-2.065-1.172-2.41-2.133-.345.213-.782-1.622-1.76-2.643s-1.082-3.734-1.15-4.029c-.167-.724-.075-2.924-.235-4.176.06-1.147-.226-2.842.385-5.036-.069-7.279-.265-10.015-.775-10.63-.413-.498-.309-.767-.472-1.187-.926-.538-.981-1.625-1.229-1.376-.397-.464-.886-.725-1.415-1.426-.291-.386-.975-1.045-1.248-1.388-.242-.305-1.188-.699-2.119-1.744s-1.537-1.333-1.831-1.529c-.359-.239-2.071-.815-2.186-1.118-.501-.467-4.136-1.994-5.273-2.503-.466-.209-3.568-.967-3.781-1.311-.389-.305-1.063-.415-1.837-.714-1.13-.008-2.009-.377-2.292-.689-.516-.129-1.126-.331-1.494-.409-1.295.224-3.683-.403-4.11-.723s-1.645-.335-3.581-1.304c-1.61-.806-4.2-3.031-4.525-3.841-.223-.556-.784-1.108-1.786-2.411-.015-.377-.5-.985-.897-1.824-.192-.734-.656-1.392-.882-1.843-.137-.272-1.021-1.649-1.199-2.108a13.06 13.06 0 0 0-.746-1.621c-.55-.55-2.642-2.978-2.449-3.481-.237-.66-.649-2.258-.929-2.958-1.247-.992-2.647-6.512-2.647-11.101 0-3.825 1.817-12.262 3.01-11.068.365-.535 2.547-2.967 2.547-3.465s1.222-1.129 1.783-1.929c.809-1.155 1.12-2.161 1.697-2.37.607-.839 1.133-1.393 1.526-1.952.871-1.237 1.788-2.674 2.693-2.981.785-1.001.721-1.05 1.813-2.204 2.814-3.492 1.04-1.297 3.639-3.744 1.557-1.541 2.364-3.418 2.916-3.206.544-.491 1.016-1.114 1.564-1.633.654-1.194.843-1.181 2.148-2.813 1.009-1.266 1.812-2.694 2.287-2.694 2.595-3.203 2.436-5.159 3.549-7.554-.2-.763.311-1.438.209-3.95-.139-3.423-.531-3.972-.704-5.469-.368-3.187-1.252-5.371-1.501-5.893-2.799-5.86-4.188-7.969-5.113-9.036-.405-1.207-1.373-1.506-2.078-2.2a23.88 23.88 0 0 1-1.991-1.774c-1.619-1.651-2.306-1.901-3.89-2.433-.477-.889-2.674-1.263-3.467-1.748-.378 0-2.488-.638-3.659-1.155l-3.222-1.585c-1.171-.517-3.257-1.487-3.583-1.487-1.554 0-5.296-2.022-4.971-2.87-1.066-1.051-1.356-1.557-2.08-2.775-2.457-.491-2.954-2.261-2.6-4.352-.653-.924-.346-2.011-.311-2.498-.506-1.393.075-8.474.163-9.364.079-.802.352-1.977.559-4.441s.827-5.264 1.187-5.624c.106-.849.576-1.932.576-2.512 0-1.378.917-3.165 1.761-3.926.005-.973.638-1.278.842-1.727.477-.763.267-.896.802-1.921s.895-1.448.897-1.85 1.663-3.779 1.922-3.894c.164-.801 2.035-4.954 3.131-6.097.284-.296 1.526-3.25 1.789-3.25.478 0 .161-.27.938-2.329.834-.505 1.23-1.487 1.534-1.487s1.473-2.849 1.473-3.222c0-1.512 3.92-7.121 4.755-6.843.227-.844 1.176-1.872 1.713-2.594-.401-.649 2.245-4.402 3.336-4.887 2.142-2 .861-1.425 2.919-3.825.174.432.831-.683 1.64-2.206 1.475-2.773.699-1.234 4.423-5.246 1.119-1.206 2.368-3.174 2.368-3.417 0-.734 4.528-5.41 5.281-5.41.96-1.176 1.228-1.585 2.485-2.983 1.029-1.131 1.922-2.222 2.368-2.831s2.242-2.645 2.615-2.415c.234-.461 1.035-1.057 1.251-1.407.559-.417.05-.203 2.105-2.151 2.554-2.484 2.375-1.831 2.902-2.1.56-.533.872-.864 1.469-1.099.337-.894 3.26-2.478 3.565-1.632.416-.165.898-.31 1.389-.389 1.16-.186 1.585.551 2.2.382.732.187.709 1.166 1.678.965 2.463.973.06.035 2.005.927.325 0 2.09.866 2.546.775.769.115 1.719.647 5.798.793 5.971.213 5.787-.443 7.64-.966 1.118-.558 2.824-1.68 3.287-1.68s1.086-.677 1.371-.934c.391-.352 1.002-.633 1.566-.802.513-.25.594-.648 1.236-1.123l1.448-1.37 1.661-.977 1.565 1.853c.63 1.267 1.859 2.388 1.859 2.899s.954 3.243 1.072 3.574c.143.4.425 1.58.662 3.984s1.138 4.203 1.666 5.263 1.141 1.508 1.45 1.917c.4.529 1.06.711 1.719.983.858.691 1.256.689 1.694 1.422.919 1.538 2.733 1.603 6.506 1.965 2.761.265 2.894.172 6.145-.92 2.328-.782 4.608-1.557 4.781-1.77s1.53-1.052 2.564-1.553 2.401-1.013 3.04-1.545c.808-.672 3.305-2.258 6.419-2.258 3.95 0 5.257 1.799 7.469 3.408 2.384 1.735 5.328 6.084 5.89 7.309.196.426 1.202 1.881 1.341 2.179.211.45.793 1.468 1.008 2.759s.553 3.417.751 3.933c.564 2.952-.951 5.567-3.709 6.326-1.267.238-4.289 1.586-4.85 1.871s-2.404 1.075-3.954 1.707-2.858 1.017-3.313 1.454c-1.914 1.358-.877.488-2.587 1.941-.474.756-.882.699-1.687 1.594-.052.69-.532.955-1.067 1.546s-.856 1.288-.856 1.691-.64 2.123-.945 2.123-.483 1.534-.661 2.309c-.375 1.638-.82 3.972-1.493 5.366-.256.53-.861 2.324-1.105 3.771-.543 3.217-1.36 5.178-2.71 6.323-.526 1.002-1.056 1.268-1.324 1.684-.335.261-.901.853-1.234 1.233-.361.412-.845 1.178-1.448 1.4s-1.747 1.078-2.326 1.135c-.643.074-1.33.901-5.251 1.005-8.853.235-11.198-1.131-10.919-10.435.21-7.01-.481-10.503-1.889-12.707l-1.078-1.722c-.18-.348-1.615-1.691-1.884-1.966-.326-.333-3.34-2.453-4.155-2.558-3.781-.485-7.092-1.765-14.401 1.767-1.79.865-3.293 1.997-4.278 2.441-.893.787-2.522 2.258-2.824 2.44-.732 1.241-1.738 1.568-2.608 3.011-.772.666-1.555 1.644-2.643 2.736-1.948 2.329-1.066 1.616-3.394 5.99-.835 2.293-1.109 2.231-1.202 6.652-.06 2.887.728 4.726.986 4.567.434.427 1.056.847 1.468 1.175 2.126 1.78.916.391 2.485 1.376.728.34.885.023 2.565.783s2.642 1.107 3.094 1.107 1.629.632 1.826.95c1.426.581 1.716.967 2.684 1.18 2.922.642 5.389 4.269 5.389 6.389 0 1.008-.897 3.555-1.204 3.555s-.886.584-1.506 1.046c-.855.637-1.405 1.45-2.683 1.731-.795.598-4.303 1.258-4.499 1.576-.482.78-9.171-.397-11.911-1.189-2.366-.299-8.653.426-10.762 3.145-.417.538-1.894 1.292-2.572 1.726-.419.493-.914 2.16-1.047 3.179-.198.849-.721 3.738-.735 5.039.006 1.87-.637.126.138 5.469.597 4.11 1.269 5.636 1.487 6.441.15.552 2.203 3.464 2.203 4.096s1.55 1.372 2.104 2.218c.869 1.066 2.899 1.704 3.573 2.022 2.913.66 7.569.341 9.804-1.13.49-.49 2.721-1.81 3.213-1.81s2.03-1.16 2.03-1.477c.959-.327 1.569-.875 2.606-1.794.147-.307.514-.586 1.535-1.495.697-.386 2.554-2.249 3.179-2.337 1.23-1.396.747-1.611 2.435-2.193.761-1.04 3.623-1.82 5.778-1.82 2.177 0 4.702 2.938 4.702 5.641 0 1.203-.36 4.32-.704 4.32s-.494 2.532-.813 3.307c-.417.579-1.269 1.881-2.043 3.247-1.787 1.478-1.948 2.769-3.574 3.447-.673.78-.752 1.314-2.252 1.782-.878.656-.756.255-2.002 1.318 0 .307-2.919 1.772-3.257 1.772s-1.246.396-3.405 1.716-2.399 2.212-2.877 2.052c-1.332 1.719-1.679 1.955-2.044 3.465-1.28 1.56-1.196 2.11-1.196 5.143 0 2.659.724 3.76 2.153 5.17.947 1.259 2.65 1.875 3.425 2.086.677.486 2.035 1.397 2.622 1.629.216.085 2.454.419 4.227.683 3.475.535 6.602-.447 8.984-.817 2.354-.927 5.354 1.593 8.582 5.759 2.354 3.305 2.644 9.108.509 8.74-.326.427-1.289 1.524-2.263 1.442-.797.2-2.5.341-6.882.611-7.841.484-7.62 1.932-9.072 7.326-.789 2.932-.553 6.426 1.182 8.425.666.768 2.171 2.073 2.174 2.279s1.849 1.063 2.908 1.665c.724.125 1.248-.313 6.964-.313 6.805 0 12.555 1.188 15.458 2.787.598.329 3.361 1.735 3.796 1.737 1.138.298 3.142 1.645 3.808 2.251-.25.25 1.781 1.251 2.243 1.733 2.012 1.115 3.076 2.362 3.619 3.135.366.654 1.716 1.36 2.074 1.853.609.947 1.223 1.807 1.64 2.094.316.764 1.312 1.164 1.632 2.012.577.849.358.531 1.719 2.025.476.608 1.41 1.544 1.927 2.191 1.221 2.547 2.86 3.863 3.243 6.227.549 1.29.994 2.796 1.139 3.119.32.714.527 1.382.527 3.985 0 4.284-1.018 6.694-2.161 7.099-.359 1.395-2.201 2.399-2.589 2.832.423 1.101-3.945 4.615-5.105 4.189-.92.451-1.889 1.613-3.021 2.609-.794.689-3.681 2.661-3.951 2.661s-.894 1.19-3.325 3.601c-1.499 1.114-2.42 3.034-3.05 3.637-.215.454-1.393 2.888-2.098 3.611-1.227 1.257-1.901 3.232-1.901 4.728 0 .703-.714 4.09-1.013 4.275s-.475.898-.703 2.614-.864 3.328-1.198 3.534-.902 1.986-.902 2.807-.906 2.279-1.224 2.475-2.324 3.529-3.289 3.967c-.501 2.281-3.299 2.695-5.9 3.993-2.035 1.015-7.412.498-8.444-.365zm166.407-1.49c-2.708-.973-8.142-3.733-10.469-5.995-1.418-2.062-4.946-8.086-3.485-15.047 1.774-13.322.881-20.556-4.855-24.686l-2.717-1.637-10.272.626c-7.835.478-10.955-.717-11.735-1.363-1.355-1.938-5.553-4.915-5.782-8.591 0-.566-1.499-3.506-1.739-4.216-.445-1.316-.409-15.489.552-17.513.394-.83 1.275-4.108 1.889-5.829 1.21-1.902 2.726-7.493 8.611-11.172 1.751-.981 9.612-4.753 13.057-5.897.618-.314 7.248-2.625 8.987-3.041 3.337-.986 6.421-1.399 10.206-3.971 6.077-3.351 6.542-3.303 10.125-10.626 1.059-1.638 2.586-5.107 2.501-6.417 1.112-1.112 1.147-23.467.036-24.155-.426-.263-.596-1.202-.749-2.39-.912-.635-.567-2.4-1.773-2.412-.011-1.152-2.458-3.798-4.687-4.78-3.634-1.601-5.29-1.027-11.225-1.298-6.45-.295-8.423-.886-10.021-2.171-.324-.58-3.561-2.685-3.843-2.65-1.246-1.827-3.259-3.535-4.466-6.232-.813-1.945-.755-4.331-.173-6.153-.393-.963 2.214-4.225 3.754-6.422 1.137-1.559 2.166-2.869 2.558-2.744.349-1.387 1.575-3.063 1.82-4.717.503-2.566.94-4.749.307-6.35-.545-.545-1.279-2.016-1.328-2.865-.519-.848-1.683-3.031-2.008-2.923-.882.293-3.936-3.839-4.23-4.479-1.206-.482-1.726-2.259-1.616-3.308-1.041-.242-1.119-2.882.229-4.596 1.219-1.549 2.395-2.176 7.35-2.176 3.101 0 5.546.855 5.914.848.72-.015 2.476.958 3.37.958s3.096 1.468 6.076 3.296c8.487 5.206 8.492 5.066 14.164 5.061 6.203-.006 7.223-.112 10.517-3.33 1.404-2.18 2.373-3.756 2.386-7.106.025-6.604-1.816-9.095-8.998-9.929-10.742-1.248-13.694-1.277-14.842-1.773-1.244-.537-2.506-.406-9.118-1.778-2.957-.613-3.746.07-7.086-3.229-2.14-2.114-3.131-2.34-3.487-3.277s-3.47-4.604-3.808-4.395c-.826.51-5.979-4.039-5.789-5.222.083-.514-1.835-2.802-2.265-2.853s-1.203-2.314-1.547-2.357-1.346-2.356-1.346-3.551c-.048-2.589.086-1.876.827-2.817.279-1.396 2.232-2.555 5.493-4.117 1.994-.955 4.377-1.746 9.882-1.676 4.568.058 6.906.612 7.221 1.12 1.064.368 8.762 1.307 9.922.894.389-.389 4.912-1.15 5.654-1.15s3.152-.926 5.526-1.787c3.199-1.16 4.512-1.676 8.083-1.676 2.65 0 6.045.365 6.258.709 1.395.248 4.682.859 6.622 1.492 1.491.537 4.608 1.272 8.149 1.287 5.132.022 5.818-.882 8.476-2.23 3.068-1.557 6.411-1.99 9.013-.522 2.172.544 2.828 1.788 6.508 4.396 2.432 4.166 3.679 6.74 6.239 10.23 2.594 3.507 5.558 8.184 5.649 8.336.826 1.466 2.024 3.931 2.799 5.308 5.623 5.534 8.08 18.507 11.351 24.253 0 .613 1.35 3.671 2.447 5.751.107 2.026 1.128 3.857 1.812 5.256 1.426 3.201 3.405 8.432 3.831 10.46.217 1.033 1.249 5.263 1.449 5.779 1.015 2.631 2.511 13.292 2.531 18.062.021 5-.252 7.626-1.061 8.612-.197.172-2.035 2.855-2.258 3.457-1.104 1.258-2.807 3.646-5.032 5.556-.652 1.175-2.14 2.293-4.017 4.206-2.164 2.016-3.296 1.919-3.792 4.594-1.862 2.461.103 11.422 1.172 12.278.802.702 1.055 1.763 2.462 3.655 1.908 2.248 2.771 3.654 4.6 5.524.841.967 2.033 2.717 3.903 4.413 0 .435.884 2.387 1.253 2.51.386.129 1.09 3.06 1.094 5.386.01 5.645-1.222 7.817-2.481 9.246-.707.803-3.143 2.737-4.554 3.909-2.031 1.686-5.348 3.036-16.233 2.576-10.089-1.521-13.974 1.541-16.056 2.588-1.398.451-4.649 4.887-7.976 5.473-2.11 1.999-2.594 2.622-3.837 4.932-1.057 2.712-2.052 4.584-.134 7.409 2.279 1.458-.082 1.615 6.605 4.709 1.628.795 4.24 2.401 4.687 2.824s2.234 1.702 2.654 2.722c1.479.829.01 5.828-1.542 8.322-1.86 3.535-3.722 4.948-5.472 8.346-.599 1.149-1.479 4.649-1.676 8.528.059 7.824.615 6.143-.199 9.896-.777 2.064-4.183 4.569-5.376 4.51.263.962-5.109 6.442-6.04 6.084-1.882 1.445-1.903 2.002-3.825 3.621-2.033 1.734-2.69 1.226-4.434 2.923-.291 0-4.773 3.867-6.847 5.245s-4.276 2.477-4.487 2.477-3.791 2.113-5.674 2.974c-3.082.775-6.452 1.734-10.117-.031z" fill="#5fd35f" paint-order="normal"/><path d="M201.417 223.852c-1.878-.278-4.399-.343-4.588-.619s-2.968-1.193-3.606-1.429c-1.474-1.533-1.414-.74-2.894-2.678-.646.248-1.915-1.526-1.915-3.429 0-2.292-.724-4.582 1.261-5.525.337-.742 1.12-2.534 4.854-3.762 2.068-2.068 13.139-2.135 11.82-.001 1.336-.118 2.015.618 2.898.818.929.631 1.019 1.237 1.314 1.777.818.954 1.138 1.778 1.915 2.575.845-.095.602 1.538.62 3.334.014 1.392-.987 3.546-2.586 5.145-2.657 2.657-5.584 3.545-9.094 3.793zm69.701 3.758c-3.366-.595-4.562-1.349-5.949-2.288-.704-.477-2.513-2.611-3.092-3.572-.603.372-.84-3.129-.563-5.702.405-3.763 8.758-7.633 14.702-6.496 3.509.671 7.807 3.854 7.563 4.469 1.826 1.213 2.525 2.901 2.619 3.477-.063 1.247.465 1.555-.069 4.403-.308 1.64-2.673 3.922-3.343 3.665-.606-.233-1.984 1.194-3.176 1.72-1.291.31-4.377 1.087-8.692.325z" fill="#f55" paint-order="normal"/><path d="M281.581 62.957c-3.279-1.623-4.311-5.687-5.442-8.318-.783-1.823-.275-5.223 1.959-7.518 1.451-1.49 3.869-2.697 4.817-2.899s5.364-1.86 6.397-2.428c2.692-1.48 6.189-2.119 7.888-1.126 1.043.04 1.587.746 2.291.746.996 0 3.031.239 2.762 1.268 1.256.071 1.573.982 1.939 1.561.984-.312 1.372 1.128 1.953 1.551.664.484 1.515 1.26 1.724 1.927 1.006.006 2.736 3.887 2.736 6.041 0 3.572-5.334 7.676-14.251 9.95-5.166 1.318-7.307 1.98-11.049.733z" fill="#5fd35f" paint-order="normal"/></g></g><path d="M291.011 69.095l1.245-.119c.474-.045.368.185.892 1.287l.53 1.115c.524 1.102-1.279.708-1.748.652l-1.511-.18c-.469-.056-1.836.775-1.419-.307l.612-1.589c.416-1.082.04-.7.515-.665z" fill="#5df" stroke="#5df" stroke-width=".101" paint-order="normal"/><g stroke="#000004"><path d="M59.496 208.296c-.6.009-1.56-.285-2.629-.692-1.328.062-3.062-.992-4.052-1.371-7.471-.476-21.866-11.473-29.438-22.016-4.78-4.418-8.313-27.459-13.24-28.757-2.516-1.077-5.351-4.148-6.375-6.345-2.333-6.312-1.121-16.349 7.767-16.703 3.878.111 6.42 2.701 7.958 6.018.789 1.702 2.12 2.234 3.464 2.203.994-.338 1.128-.311 1.784.348.578.581.586.605.705 2.231.147 2.009.144 2.349-.037 4.227-.543 2.669-3.666 6.075-5.695 7.367-.341.134-.964.517-1.386.851-.624.494-.799.745-.945 1.351 1.111 7.98 7.092 18.155 11.903 25.801 4.06 4.907 21.172 20.005 26.951 19.645.534.133 2.219.692 2.46.84 2.258 1.597 5.476 2.511 6.284 5.282 0 .041-.935.074-2.079.074-.808.005-2.622-.13-3.399-.353z" stroke-width=".108" paint-order="normal"/><path d="M189.066 397.865c-.949-3.08-1.396-5.172.251-6.819 3.54-2.884 3.989-2.017 9.273-3.069 4.221-.926 10.469 1.074 11.991 1.731-.184-5.598-2.374-8.879-3.549-20.565-1.584-1.849-1.572-2.188.071-2.053 2.96.243 3.97.832 3.97 2.313 0 .797.239 1.68.531 1.963s.644 1.607.782 2.944c1.923 7.077.945 4.746 1.627 7.418.595 2.474 1.134 3.366 1.387 7.413 1.15 3.757 2.675 6.765 1.674 8.208-2.004 1.649-7.234 3.03-8.862 3.732-1.17-.375-8.997 2.741-11.405 2.978-5.299.117-6.219-3.652-7.741-6.193z" stroke-width=".387" paint-order="normal"/><path d="M289.695 398.514c-5.258.109-3.03-.109-5.165-.222-2.643-10.587-2.799-10.651-8.087-28.796-.28-.181-.51-.704-.51-1.162 0-.68.14-.711.765-.17.528.458.765.478.765.065 0-.329.803-.598 1.784-.598 1.825 0 2.328.816 1.217 1.977 1.071 5.631 2.66 15.203 7.958 17.724.766-.319 11.202-10.855 18.112-4.068.01.626.088 2.507.172 4.178.086 1.697-.048 2.91-.302 2.745-1.179 3.945-2.097 3.828-6.005 5.682-2.692.896-8.065 2.823-10.704 2.643z" stroke-width=".358" paint-order="normal"/><path d="M467.715 117.504c-.73-.024-4.274.429-4.608.71-4.383 2.41-8.01 4.953-7.922 11.253.064 1.475.32 2.579.637 3.462s1.477 2.161 1.735 2.776c7.949 6.934-1.064 15.664-3.407 28.079-7.401 11.678-21.78 18.839-30.505 24.28-.231.526-.74.942-1.131.924-.429-.02-.939.485-1.286 1.276-.448 1.019-.42 1.25.124 1.037 16.467.789 34.695-14.08 38.626-26.479 3.925-15.054 11.162-22.465 14.419-31.361 3.153-6.613 3.569-10.696.604-13.319.948-.014-2.772-1.658-3.603-1.775s-1.752-.741-2.306-.992c-1.288.007-1.321-.002-1.854.048z" stroke-width="1.304" paint-order="normal"/></g></g><text y="132" x="115.809" xml:space="preserve" font-size="59.308" font-family="sans-serif" letter-spacing="0" word-spacing="0" fill="#000"><tspan y="132" x="115.809">Molt bé!</tspan></text></g></svg>