<?xml version="1.0" encoding="UTF-8" standalone="no"?>
<svg
   xmlns:dc="http://purl.org/dc/elements/1.1/"
   xmlns:cc="http://creativecommons.org/ns#"
   xmlns:rdf="http://www.w3.org/1999/02/22-rdf-syntax-ns#"
   xmlns:svg="http://www.w3.org/2000/svg"
   xmlns="http://www.w3.org/2000/svg"
   xmlns:sodipodi="http://sodipodi.sourceforge.net/DTD/sodipodi-0.dtd"
   xmlns:inkscape="http://www.inkscape.org/namespaces/inkscape"
   width="185.333"
   height="234.667"
   viewBox="0 0 139 176"
   preserveAspectRatio="xMidYMid meet"
   version="1.1"
   id="svg4554"
   sodipodi:docname="arbol_emoji.svg"
   inkscape:version="0.92.3 (2405546, 2018-03-11)">
  <metadata
     id="metadata4560">
    <rdf:RDF>
      <cc:Work
         rdf:about="">
        <dc:format>image/svg+xml</dc:format>
        <dc:type
           rdf:resource="http://purl.org/dc/dcmitype/StillImage" />
      </cc:Work>
    </rdf:RDF>
  </metadata>
  <defs
     id="defs4558" />
  <sodipodi:namedview
     pagecolor="#ffffff"
     bordercolor="#666666"
     borderopacity="1"
     objecttolerance="10"
     gridtolerance="10"
     guidetolerance="10"
     inkscape:pageopacity="0"
     inkscape:pageshadow="2"
     inkscape:window-width="1920"
     inkscape:window-height="1017"
     id="namedview4556"
     showgrid="false"
     inkscape:zoom="1.0056804"
     inkscape:cx="92.666496"
     inkscape:cy="117.3335"
     inkscape:window-x="-8"
     inkscape:window-y="-8"
     inkscape:window-maximized="1"
     inkscape:current-layer="g4546" />
  <g
     stroke="#ecd877"
     stroke-linejoin="round"
     stroke-width="6.014"
     id="g4546">
    <path
       d="M33.405 125.733c-5.558-.194-6.681-.014-7.82-.597-.716-.366-1.958-2.945-1.958-3.72 0-.948 2.812-5.15 10.354-15.338 8.293-11.203 9.091-11.872 8.774-13.134-.275-1.097-1.73-2.324-3.403-2.81-2.009-.584-3.048-1.124-3.534-2.34-.819-2.047-.134-3.712 8.151-14.817 5.302-7.107 8.364-10.614 9.068-11.999.713-1.402.636-2.487-.36-3.479-.728-.725-1.01-.93-2.436-.939-2.234-.013-3.444-.714-3.951-1.818-.467-1.016-.786-2.14-.23-3.228 1.662-3.257 14.706-20.814 19.472-27.185 2.135-2.854 3.582-3.731 4.822-3.385.933.26 3.723 2.779 6.071 5.679 3.676 4.542 17.535 23.756 18.375 25.334.771 1.449-2.849 4.702-5.131 4.702-1.46 0-2.871 1.052-3.128 2.422-.262 1.396 1.047 3.149 8.636 13.439 8.094 10.974 9.659 14.052 8.651 15.935-.144.268-1.446 1.223-2.813 1.96-2.426 1.308-3.373 1.865-3.373 2.832 0 .991 4 7.054 9.478 14.476 7.965 10.794 10.086 14.458 8.603 16.288-.255.315-1.455 1.298-2.038 1.434-2.789.653-64.36 1.02-79.682.484zm2.129-2.864c2.214-1.106 4.376-3.599 6.921-7.745 2.391-3.896 2.843-5.334 3.102-6.982.24-1.525 1.032-2.207 2.215-2.811 1.16-.592 1.738-1.459 1.503-1.84-.095-.154.286-.498.648-.662 1.162-.529 1.101-1.847-.142-4.097-1.628-2.95-4.216-3.125-6.685-.438-1.276 1.388-1.762 2.748-1.569 4.189.129.958.151 1.229-.466 1.229-1.017 0-2.065.641-5.046 4.132-3.854 4.513-4.814 5.783-6.051 8.205-1.397 2.735-1.61 4.743-.685 5.911 1.565 1.976 3.549 2.261 6.256.909zm71.719-4.138c.137-.549-5.308-7.877-6.668-9.237-.437-.437-.63-.854-.71-.443-.095.494 2.721 4.389 5.415 7.769 1.693 2.125 1.774 2.667 1.93 2.043zm-8.22-11.31c0-.362-2.653-3.665-5.633-7.49-1.548-1.986-2.966-3.996-3.172-4.486-.351-.836-.581-1.051.055-1.97.373-.539.728-.996.728-1.098s-.083-.384-.591-.384c-1.269 0-1.667.908-1.24 2.133.594 1.703 4.743 7.584 8.692 12.282.894 1.064 1.16 1.471 1.16 1.012zm-26.184-7.762c2.212-1.11 3.38-2.785 3.38-4.848 0-1.52-.203-2.021-.818-2.021-.576 0-1.107.757-1.579 2.254-.662 2.098-1.756 3.049-3.504 3.049-1.297 0-3.285-1.348-3.807-2.581-.858-2.027-1.062-2.326-1.642-2.41-.462-.067-.678.117-.974.826-.454 1.087-.204 2.289.746 3.575 2.028 2.749 5.302 3.61 8.199 2.156zM54.94 88.216c.301-.328.797-1.096 1.103-1.706 1.365-2.721 3.704-2.516 5.383.473.571 1.016 1.48 1.535 2.06 1.177.154-.095.28-.685.28-1.311 0-1.43-1.099-3.038-2.824-4.132-1.867-1.184-2.559-1.242-4.288-.358-1.901.972-2.99 2.454-3.168 4.313-.083.861-.01 1.486.202 1.742.442.532.606.506 1.251-.198zm22.739.17c.235-.235.719-1.002 1.075-1.705 1.476-2.913 3.728-2.826 5.503.211 1.031 1.765 1.758 2.008 2.129.712.681-2.374-1.777-5.381-4.759-5.821-1.338-.197-3.508 1.023-4.509 2.534-1.438 2.173-.966 5.596.561 4.069zm17.533-5.062c-.467-.873-4.918-6.493-7.699-9.923-2.311-2.85-2.616-3.731-2.616-3.18 0 .518 7.646 10.471 9.829 12.825.89.96.911 1.072.486.278zM84.3 68.443c0-.329-.436-.868-1.488-2.16-1.271-1.56-3.46-5.116-3.719-5.982-.129-.434-.181-.871.32-1.307.887-.771 1.302-.692.316-.692-.966 0-2.257.378-2.257.842 0 .951 3.6 6.436 5.714 8.671.825.873 1.114 1.074 1.114.629zm-28.05-13.592c1.598-.774 4.337-3.815 7.303-8.109 3.097-4.485 3.66-5.57 3.66-7.056 0-2.6-2.681-4.774-5.185-4.398-1.639.246-2.518.964-4.748 3.689-4.167 5.093-7.404 10.532-7.404 12.484 0 1.22 1.059 2.384 2.7 3.197 1.414.7 2.236.889 3.674.193zM79.668 41.6c-1.706-2.577-5.196-7.277-7.118-9.568-2.477-2.67-4.806-5.643-4.806-5.365 0 .373 5.996 8.246 9.82 13.072 3.411 4.306 4.452 5.408 2.104 1.861z"
       fill="#71bc45"
       stroke-opacity="0"
       paint-order="normal"
       id="path4542"
       style="fill:#83d891;fill-opacity:1" />
    <path
       d="M63.666 145.076c-1.861-.328-2.452-.03-2.936-1.132-.363-.827-1.124-2.827-.874-8.919l-.042-7.787 10.484-.017 2.996.021 1.347.009 5.914.041.246 7.098c-.077 6.39-.378 6.898-.927 8.086-.479 1.037-.596 1.541-1.634 2.019-1.175.541-1.998.858-7.396.902-3.208.026-6.471-.195-7.178-.32z"
       fill="#ad7132"
       stroke-opacity="0"
       paint-order="normal"
       id="path4544" />
  </g>
  <path
     d="M67.35 19.378c-2.028 1.099-22.312 27.974-23.58 31.355s.676 6.677 4.564 7.775c1.606.423 3.043.845 3.212.93.169.169-3.719 5.578-8.621 12.086S33.798 84.37 33.46 85.553c-.423 1.69 0 2.704 2.028 4.733 1.437 1.352 3.212 2.535 3.888 2.535.761 0 1.352.169 1.352.423s-4.226 6.001-9.297 12.846c-5.155 6.846-9.55 13.353-9.888 14.452-.338 1.352.085 2.789 1.183 4.226l1.69 2.282 16.649.254 16.565.169v8.113c0 7.353.169 8.198 2.113 10.057 1.859 1.944 2.704 2.113 9.973 2.113 6.761 0 8.282-.254 10.226-1.775 2.113-1.69 2.197-2.028 2.197-10.142v-8.367h16.48c15.804 0 16.48-.085 18.171-1.859 3.127-3.381 2.282-5.493-8.029-19.354l-9.804-13.015 2.789-.93c3.381-1.099 5.409-4.31 4.648-7.268-.338-1.099-4.564-7.353-9.466-13.86l-8.874-11.748 2.789-.676c3.803-1.014 5.663-2.958 5.663-6.085 0-2.113-2.282-5.747-10.987-17.41C73.097 18.702 71.576 17.265 67.35 19.378zm16.058 16.903c6.254 8.367 11.41 15.551 11.41 15.889 0 1.606-2.874 4.31-4.564 4.31-2.197 0-3.888 1.437-3.888 3.296 0 .761 4.057 6.677 8.959 13.184 9.128 12.086 10.311 14.959 6.93 16.565l-2.958 1.521c-.845.338-1.606 1.352-1.775 2.113s3.803 6.93 9.043 13.945c9.719 13.015 11.071 16.058 7.775 17.833-1.099.507-16.565.845-44.539.845-38.708 0-43.018-.169-44.455-1.437-.845-.761-1.521-2.028-1.521-2.874 0-.761 3.55-6.085 7.86-11.832 12.001-16.058 11.748-15.72 10.818-17.495-.507-.93-2.028-1.859-3.381-2.113-1.859-.423-2.704-1.183-3.127-2.704-.423-1.775.676-3.803 6.93-12.001 11.071-14.79 11.41-15.382 10.395-17.241-.507-1.014-1.69-1.606-3.127-1.606-2.789 0-4.395-1.352-4.395-3.803 0-1.69 20.115-29.665 22.312-31.017 2.62-1.775 4.31-.169 15.297 14.621zm-2.958 98.206c0 10.142-.592 10.733-10.48 10.733-4.902 0-8.113-.338-8.79-1.014s-1.014-3.888-1.014-8.874v-7.86h10.142H80.45zM70.055 29.858c3.55 5.071 10.48 13.945 10.902 13.945.592 0-6.508-9.804-9.888-13.522l-3.465-3.803zm-9.973 6.085c-1.099.761-4.057 4.31-6.508 7.944-4.733 7.099-4.902 8.79-1.014 10.902 2.62 1.437 5.409-.338 9.466-6.085 5.493-7.691 5.832-8.452 4.648-10.818-1.437-2.704-4.057-3.465-6.592-1.944zm4.141 1.268c1.69 1.69 1.099 3.381-3.719 10.226-4.057 5.747-4.986 6.592-6.93 6.339-3.803-.423-3.296-3.212 1.944-10.733 4.733-6.761 6.592-7.944 8.705-5.832z"
     id="path4548" />
  <path
     d="M77.492 59.015c-.592.93 6.254 10.48 7.015 9.804.169-.254-.169-1.014-.93-1.69-.676-.761-2.113-2.704-3.127-4.395-1.606-2.535-1.69-3.212-.761-3.803s.93-.761-.254-.761c-.761 0-1.69.423-1.944.845zm9.381 14.114c5.24 7.015 8.79 11.325 8.79 10.818 0-.676-10.311-13.945-10.818-13.945-.169 0 .676 1.437 2.028 3.127zM55.095 83.525c-1.775 1.775-2.282 5.071-.845 5.071.507 0 1.268-1.014 1.69-2.197 1.014-2.704 4.226-2.535 5.493.338 1.014 2.197 2.62 1.944 2.282-.338-.338-2.028-3.296-4.564-5.324-4.564-.845 0-2.366.761-3.296 1.69zm22.819 0c-1.775 1.775-2.282 5.071-.845 5.071.507 0 1.268-1.014 1.69-2.197 1.014-2.704 4.226-2.535 5.493.254 1.099 2.535 2.113 2.451 2.113-.085 0-2.282-2.789-4.733-5.24-4.733-.845 0-2.282.761-3.212 1.69zm10.987 10.057c0 .845 2.282 4.479 5.071 8.113s5.071 6.254 5.071 5.916-1.859-2.958-4.057-5.832c-5.409-6.761-5.578-7.099-4.395-8.536.845-1.014.761-1.268-.338-1.268-.761 0-1.352.676-1.352 1.606zm-25.016.507c-.93 2.282 2.366 5.916 5.578 6.17 3.296.338 6.761-2.451 6.761-5.493 0-2.62-1.521-2.451-2.197.169-.761 3.127-3.296 4.226-5.916 2.535-1.099-.676-2.028-1.859-2.028-2.535 0-1.775-1.606-2.451-2.197-.845zm-20.622 3.803c-1.69 1.69-2.028 2.704-1.775 4.986.169.592-.169.845-.592.592-.761-.423-1.859.592-7.606 7.437-3.634 4.31-5.493 8.705-4.479 10.564 2.366 4.31 8.452 2.282 12.339-4.057.423-.845 1.69-2.789 2.704-4.395 1.099-1.606 1.944-3.719 1.944-4.817 0-1.183.761-2.282 2.113-2.874 1.099-.507 1.859-1.268 1.606-1.606-.254-.423 0-.761.423-.761 1.352 0 1.099-2.704-.423-4.902-1.606-2.282-4.057-2.366-6.254-.169zm4.902 1.014c2.366 2.366.085 6.339-3.127 5.324-.93-.254-1.944-1.268-2.197-2.197-1.014-3.212 2.958-5.493 5.324-3.127zm-4.902 7.86c.845 1.014.845 1.775.169 3.212-1.521 3.212-8.621 12.508-9.973 13.015-1.183.423-4.564-1.859-4.564-3.212 0-.338 2.282-3.719 5.071-7.437 5.155-6.93 7.184-8.113 9.297-5.578zm56.625 2.367c0 .761 6.761 9.888 7.353 9.888.254 0-1.014-2.028-2.789-4.479-3.803-5.324-4.564-6.17-4.564-5.409z"
     id="path4550" />
  <path
     d="M31.796 122.484c-1.562-.773-2.863-2.19-2.644-2.879.23-.724 4.45-6.651 6.94-9.747 2.285-2.841 3.805-4.075 5.02-4.075 1.015 0 2.049.76 2.493 1.833.288.695.245.97-.357 2.284-1.587 3.466-9.088 13.12-10.194 13.119-.098 0-.664-.24-1.257-.534zm12.052-19.322c-.762-.762-1.029-1.247-1.029-1.869 0-2.403 2.384-3.901 4.482-2.816 1.045.541 1.617 1.536 1.617 2.815 0 .893-.167 1.263-.902 1.998-.74.74-1.102.902-2.02.902-.946 0-1.277-.159-2.148-1.029zm9.179-49.652c-1.285-.293-1.724-.821-1.724-2.078 0-2.498 6.943-12.871 9.694-14.483 1.36-.797 2.207-.671 3.167.47.832.989.857 2.193.079 3.848-.731 1.554-3.99 6.423-6.193 9.251-2.3 2.952-3.101 3.429-5.024 2.991z"
     stroke-opacity="0"
     paint-order="normal"
     stroke="#ecd877"
     stroke-linejoin="round"
     stroke-width="6.014"
     fill="#c6e1b4"
     id="path4552" />
</svg>
