<svg xmlns="http://www.w3.org/2000/svg" width="793.701" height="1122.52" viewBox="0 0 210 297" xmlns:v="https://vecta.io/nano"><g transform="matrix(.190191 0 0 -.190191 -1849.1036 555.96523)"><path d="M10474.862 2195.223c-.288-24.242-17.755-43.638-39.036-43.348s-38.336 20.158-38.114 44.4 17.636 43.701 38.918 43.486 38.391-20.022 38.235-44.265" fill="#df8e62" paint-order="normal"/><path d="M10194.778 1862.622c-.358-42.597-21.83-75.761-46.956-84.075-61.867-20.472-60.401 36.27-51.606 86.451 8.128 46.372 15.436 99.192 63.145 91.168 28.084-4.723 60.167-44.383 35.416-93.543" fill="#688e1f" paint-order="normal"/><path d="M10374.457 2276.184c-27.261-1.107-.8-213.987-2.545-311.185-1.745-168.014 0-174.957 33.153-168.014 57.582 12.497 40.133-5.554-38.388-41.656-92.48-41.656-193.684-58.319-240.797-37.491-50.602 22.217-43.623 41.656 17.449 41.656 55.837 0 59.327 5.554 76.776 127.746 10.469 69.427-1.745 83.313-64.562 86.09-34.898 1.389-36.643 9.72-43.623 245.773-6.98 256.881 1.745 288.818 64.562 242.996 62.817-44.433 209.388-13.886 312.338 65.262l49.632 34.609-.775-101.259c-20.939-242.995-44.815-626.754-15.75-639.642 20.318-9.01 40.179 382.761 40.179 620.202 0 112.472-15.704 158.294-43.623 123.581-5.235-6.943-27.918-20.828-48.857-30.548-34.898-13.885-36.643-13.885-13.959 6.943 34.898 34.714 3.49 29.159-48.857-6.943-36.643-26.382-40.133-26.382-17.449-4.166 64.561 63.873 64.561 83.313 0 29.159-22.684-19.44-52.347-30.548-69.796-26.382-47.113 9.72-165.766-19.44-198.919-48.599-26.174-22.217-29.663-73.593-34.898-397.124-3.49-336.028-7.263-372.13 20.656-387.404 24.456-8.559 36.893-29.042 33.519-45.531-4.465-6.742-5.186-9.958-31.491-23.896-57.582 4.166-129.123-8.331-115.164-20.828 20.939-15.274 92.48-18.051 139.592-2.777 38.388 11.108 43.623 19.44 34.898 48.599-8.724 27.771-5.235 34.714 24.429 34.714 27.919 0 33.153-8.331 27.919-43.045-5.235-29.159 1.685-46.959 18.237-47.186 205.797-2.824 195.989 28.158 13.172 52.74-3.49 30.548 6.98 40.268 69.796 62.484 41.878 15.274 102.949 44.433 136.103 65.262 46.507 29.771 76.44 44.199 64.516 41.123 12.268 12.113-88.944-23.072-62.771 1.921 24.429 22.217 31.408 80.536 41.878 351.302l12.214 324.92-59.327-37.491c-33.153-19.44-71.541-36.102-83.755-36.102-13.959 0-17.449-11.108-10.469-30.548 5.235-18.051 10.459-52.765 10.469-79.147.017-34.67-1.533-40.77 4.29-40.117m6.489-.094c20.761 2.328 6.67 31.88 8.415 69.371 3.49 54.153 12.214 66.65 54.092 86.09l48.857 23.605v-72.204c0-40.268-5.235-68.039-12.214-62.485s-10.469 31.937-8.725 58.319c5.235 45.822 1.745 47.211-31.408 33.325-27.918-12.497-31.408-20.828-17.449-41.656 12.214-19.44 12.214-27.771 0-27.771-8.725 0-17.449-13.885-17.449-30.548 1.745-29.159 3.49-29.159 22.684-8.331 20.939 20.828 24.429 20.828 43.623-4.166 12.214-13.886 20.939-33.325 20.939-43.045 0-13.886-3.49-13.886-15.704 0-8.724 11.108-29.663 16.663-47.112 13.885-26.174-4.166-33.153-16.662-33.153-66.65 0-56.93 3.49-62.485 40.133-59.707 34.898 4.166 38.388-2.777 38.388-58.319 0-52.765-5.235-62.485-34.898-62.485-19.194 0-34.898-5.554-34.898-12.497s15.704-9.72 34.898-5.554c31.408 6.943 34.898 0 34.898-69.427 0-73.593-27.918-120.804-71.541-120.804-26.174 0-19.194 119.415 8.725 137.466 19.194 12.497 26.174 12.497 33.153-1.389 5.235-11.108 10.469-8.331 10.469 8.331 1.745 19.44-6.98 23.605-33.153 18.051-29.663-5.554-34.898 0-34.898 33.325 0 30.548 8.724 40.268 34.898 40.268s34.898 9.72 34.898 34.714c0 30.548-5.235 33.325-33.153 20.828-52.268-12.679-31.394 169.943-43.313 169.459m-45.677 233.219c0-6.943-15.704-13.886-33.153-13.886-19.194 0-40.133-5.554-45.368-13.885-5.235-6.943-19.194-13.886-27.918-13.886-10.469 0-12.214 6.943-5.235 15.274 6.98 11.108-1.745 12.497-29.663 6.943-34.898-8.331-36.643-6.943-10.469 5.554 15.704 8.331 36.643 12.497 45.368 6.943 8.724-4.166 20.939-1.389 27.918 6.943 13.959 18.051 78.521 18.051 78.521 0zm139.592-313.811c0-16.663-12.214-34.714-27.918-38.879-13.959-4.166-20.939-2.777-15.704 5.554s0 13.885-12.214 15.274c-12.214 0-6.98 5.554 12.214 12.497 31.408 11.108 31.408 12.497 3.49 12.497-38.388 1.389-26.174 24.994 13.959 24.994 15.704 0 26.174-12.497 26.174-31.937zm-34.898-116.638c0-6.943-6.98-13.885-17.449-13.885-8.725 0-17.449 6.943-17.449 13.885 0 8.331 8.725 13.886 17.449 13.886 10.469 0 17.449-5.554 17.449-13.886zm-259.991-138.855c24.429 0 17.449-115.249-10.469-144.409-29.663-31.937-85.5-19.44-71.541 15.274 5.235 13.885 10.469 51.376 13.959 84.701 1.745 44.433 10.469 56.93 27.919 51.376 12.214-4.166 31.408-6.943 40.133-6.943zm-47.801-68.982c0-6.943 8.724-13.885 19.194-13.885 8.725 0 12.214 6.943 6.98 13.885-5.235 8.331-13.959 13.886-19.194 13.886-3.49 0-6.98-5.554-6.98-13.886z"/><path d="M10294.451 2408.391c-26.174-8.331-40.133-26.382-40.133-47.211 0-45.822 34.898-40.268 38.388 6.943 1.745 24.994 5.235 16.663 13.959-24.994 10.469-52.765 12.214-55.542 17.449-20.828l5.235 41.656 12.214-48.599c12.214-47.211 12.214-47.211 13.959-6.943 0 23.605-5.235 58.319-12.214 77.759-8.725 31.937-15.704 34.714-48.857 22.217zm-123.888-37.491c0-19.44 3.49-26.382 8.725-16.662 3.49 8.331 3.49 24.994 0 34.714-5.235 8.331-8.725 1.389-8.725-18.051zm31.408-90.256c0-11.108 8.725-20.828 17.449-20.828 10.469 0 17.449 9.72 17.449 20.828s-6.98 20.828-17.449 20.828c-8.724 0-17.449-9.72-17.449-20.828zm-52.347-6.942c0-6.943 8.725-13.886 17.449-13.886 10.469 0 17.449 6.943 17.449 13.886 0 8.331-6.98 13.885-17.449 13.885-8.725 0-17.449-5.554-17.449-13.885zm162.276-59.708c-26.174-11.108-36.643-26.382-34.898-52.765 1.745-20.828 8.725-34.714 15.704-31.937 5.235 2.777 15.704-2.777 19.194-11.108 5.235-9.72 10.469-2.777 12.214 16.662 3.49 33.325 5.235 31.937 17.449-6.943 12.214-36.102 13.959-30.548 15.704 31.937 0 38.879 0 70.816-1.745 70.816l-43.623-16.663zm-171.001-37.491c-1.745-4.166 0-30.548 3.49-58.319 6.98-44.433 15.704-52.765 52.347-52.765 22.684 0 36.643 5.554 31.408 13.885s-1.745 13.886 6.98 13.886c10.469 0 19.194 22.217 19.194 48.599 0 44.433-3.49 47.211-54.092 44.433-29.663-1.389-55.837-5.554-59.327-9.72zm87.245-27.771c-5.235-6.943-20.939-9.72-34.898-4.166-36.643 9.72-33.153 18.051 10.469 18.051 19.194 0 31.408-5.554 24.429-13.886zm118.654-215.224c0-52.765 3.49-73.593 6.98-44.433 3.49 27.771 3.49 72.204 0 97.198-3.49 23.605-6.98 1.389-6.98-52.765zm-36.643 34.713c-1.745-26.382-8.725-73.593-12.214-104.141-8.725-48.599-6.98-51.376 8.725-20.828 10.469 18.051 15.704 65.262 12.214 104.141-3.49 48.599-6.98 55.542-8.725 20.828z"/><path d="M10254.318 1896.017c0-54.153 3.49-95.81 6.98-93.033 15.704 13.886 24.429 193.008 10.469 193.008-10.469 0-17.449-44.433-17.449-99.975zm160.531 1.389c1.745-18.051 13.959-31.937 22.684-29.159 26.174 4.166 20.939 48.599-5.235 55.542-15.704 4.166-22.684-4.166-17.449-26.382z"/><path d="M10225.235 2468.167c-4.04.922-5.554 2.785-5.316 6.539.148 2.335.428 2.992 2.977 6.983 3.504 5.487 4.004 7.705 2.137 9.471-1.783 1.686-3.573 2.002-10.066 1.777-6.849-.237-15.095-1.55-27.352-4.355-13.898-3.18-21.936-4.444-21.936-3.448 0 .901 4.709 3.648 14.773 8.617 15.834 7.818 26.027 10.824 36.709 10.823 5.521-.001 8.043-.478 11.155-2.112 2.681-1.408 5.391-2.008 9.215-2.04 7.432-.064 13.417 2.618 19.158 8.578 3.803 3.948 7.102 6.146 12.403 8.264 19.134 7.643 51.409 6.951 62.341-1.337 3.525-2.672 4.507-7.189 2.195-10.091-3.499-4.39-12.121-8.104-22.231-9.576-1.477-.215-6.413-.543-10.968-.729-13.374-.545-22.49-2.159-31.113-5.508-6.235-2.422-9.56-4.578-12.651-8.203-3.025-3.549-4.801-5.039-9.061-7.605-8.032-4.837-17.024-7.269-22.367-6.049zm174.495-651.174c-15.769 8.302-14.881 85.017 1.383 119.61 4.375 9.306 11.747 16.335 22.284 21.249 10.001 4.664 13.915 3.63 19.51-5.157 2.423-3.805 5.349-7.383 6.502-7.95 4.262-2.097 6.925 4.006 6.925 15.872 0 9.79-.619 12.274-3.881 15.575-4.269 4.318-1.223 4.23-42.032 1.229-9.46-.693-11.501-.403-14.613 2.07-5.51 4.385-8.092 17.299-7.09 35.468.718 13.022 1.662 17.199 5.149 22.775 5.61 8.972 11.752 11.57 31.038 13.126 17.923 1.445 23.224 3.726 28.743 12.369 5.031 7.877 5.316 40.668.406 46.635-4.092 4.974-10.968 5.064-22.79.298-11.593-4.675-15.303-4.497-22.277 1.069-7.205 5.75-12.609 18.268-16.149 37.406-3.199 17.294-6.284 59.288-6.491 88.348-.081 11.756-.761 25.223-1.504 29.924-1.167 7.381-.909 8.801 1.89 10.383 6.154 3.481 7.348 11.801 5.025 35.02-3.442 34.397.231 68.689 9.063 84.618 8.813 15.895 16.24 21.079 61.581 42.983l30.244 14.611-1.035-53.196c-.997-51.247-2.55-68.593-6.908-77.158-3.022-5.938-6.306-2.416-9.786 10.492-2.363 8.767-2.679 16.463-1.808 44.107 1.167 37.042.506 40.25-8.452 41.073-5.805.534-26.73-7.034-38.456-13.909-9.27-5.434-13.62-12.67-11.97-19.914.64-2.812 4.258-10.564 8.039-17.226 8.787-15.481 10.083-20.304 6.273-23.336-1.599-1.273-4.43-2.314-6.291-2.314-4.25 0-10.143-4.907-13.691-11.4-3.276-5.996-4.949-26.708-2.876-35.625 2.397-10.315 6.728-9.469 19.722 3.85 19.054 19.532 23.203 21.333 32.018 13.895 8.594-7.251 24.85-29.641 29.438-40.545 3.916-9.306 5.571-23.033 3.023-25.069-.752-.597-6.795 3.469-13.43 9.043-10.474 8.799-13.462 10.453-22.674 12.542-13.19 2.992-26.83 2.089-37.301-2.469-10.893-4.742-16.758-14.735-19.439-33.122-2.426-16.638-1.118-68.645 1.928-76.701 4.72-12.482 13.283-15.46 39.458-13.722 16.737 1.112 24.627-.734 29.064-6.796 9.105-12.439 9.079-87.029-.03-101.584-5.073-8.103-10.705-10.357-28.861-11.554-17.716-1.168-31.453-5.292-33.334-10.009-3.507-8.793 8.119-12.896 28.413-10.025 25.793 3.648 25.582 3.649 30.4-.185 7.521-5.985 9.126-16.277 9.173-58.806.03-24.853-.779-42.511-2.278-49.874-6.068-29.807-18.226-54.351-32.872-66.361-11.271-9.243-31.348-15.33-38.368-11.634zm46.374 54.141c9.056 6.521 11.587 21.992 5.847 35.743-6.52 15.62-30.017 24.561-37.054 14.101-4.489-6.674-1.04-31.909 5.832-42.678 7.078-11.089 16.306-13.696 25.374-7.165z" paint-order="normal" fill="#fff"/><path d="M10399.731 1814.015c-18.012 8.667-17.419 87.598.099 122.763 4.393 9.343 13.765 20.01 23.484 23.498 8.936 3.703 15.44 3.556 21.294-6.918 2.496-3.733 4.671-8.54 5.897-8.859 3.771-.982 5.289 7.084 4.658 18.512-.466 8.433-1.286 10.618-4.054 13.06-3.766 3.323-10.475 1.91-39.316-.934-21.723-2.143-24.591 4.65-24.593 34.472 0 19.958 2.159 24.579 6.338 31.208 5.773 9.156 8.657 8.719 28.034 10.472 27.613 2.496 35.581 7.582 35.629 36.133.03 15.42-1.503 18.994-4.138 22.195-4.093 4.974-9.354 4.193-21.175-.571-4.859-1.96-11.299-3.687-13.399-3.687-6.33 0-16.305 7.893-20.523 18.028-7.534 18.101-12.013 63.07-12.277 110.874-.062 11.756-1 25.615-1.774 31.1-1.237 8.772-5.815 9.117-2.967 10.729 6.053 3.427 12.208 12.892 9.924 34.722-4.73 36.515 1.5 73.533 11.889 91.182 8.78 15.184 14.956 20.037 89.291 53.226 2.259 1.088 1.65-7.637.743-53.955-.977-49.951-2.443-69.728-6.597-78.422-1.534-3.211-5.441-4.012-7.758-2.168-6.059 4.821-8.163 20.013-7.545 56.669.645 38.317 1.903 41.785-7.782 41.785-5.581 0-26.398-8.481-36.416-14.562-8.304-5.04-12.659-11.741-11.175-18.038.621-2.634 3.828-10.147 7.735-17.15 8.987-16.111 11.489-21.387 7.597-24.484-1.639-1.304-6.2-3.365-8.012-3.365-4.231 0-11.335-6.212-14.397-13.112-2.593-5.843-2.648-28.729-.399-35.131.758-2.155 1.406-3.297 2.808-3.297s5.056 4.39 9.791 8.846c24.993 23.519 28.701 24.073 37.756 16.432 8.504-7.175 25.018-29.857 29.583-40.705 3.922-9.323 7.805-25.642 5.248-27.687-2.631-3.789-11.733.9-16.97 8.885-10.407 8.686-13.474 11.075-22.518 13.167-19.97 4.62-40.232-.255-48.104-11.532-6.174-10.723-8.685-19.799-9.226-57.462.292-37.505 2.138-41.681 9.044-50.639 4.241-3.923 4.125-4.936 27.99-5.092 27.342 5.217 32.147.26 36.46-6.669 5.875-9.04 8.261-58.893 4.192-84.999-2.1-24.042-8.264-30.464-34.284-29.69-17.789-1.306-24.843-2.202-30.76-6.613-4.91-3.659-5.501-5.856-1.042-9.066 5.346-3.85 15.119-3.437 32.398-.646 18.963 3.063 25.445.916 29.622-7.039 6.68-12.723 6.877-80.345.848-108.643-5.951-27.932-15.036-51.527-29.429-63.329-11.272-9.243-34.701-17.193-41.721-13.497zm45.437 57.713c5.467 3.964 9.377 10.447 9.359 20.721-.03 14.996-9.231 26.441-22.408 30.414-13.189 3.976-18.388-.551-18.388-14.286 2.33-30.004 16.158-47.928 31.437-36.849zm-32.668 198.217c-9.334 7.428-8.257 15.777 2.613 20.25 7.397 3.044 11.492 2.691 17.805-1.537 10.478-7.016 5.475-20.738-8.331-22.846-4.964-.758-6.674-.177-12.087 4.134z" paint-order="normal" fill="#df8e62"/></g></svg>