<?xml version="1.0" encoding="UTF-8" standalone="no"?>
<!-- Created with Inkscape (http://www.inkscape.org/) -->

<svg
   xmlns:dc="http://purl.org/dc/elements/1.1/"
   xmlns:cc="http://creativecommons.org/ns#"
   xmlns:rdf="http://www.w3.org/1999/02/22-rdf-syntax-ns#"
   xmlns:svg="http://www.w3.org/2000/svg"
   xmlns="http://www.w3.org/2000/svg"
   xmlns:sodipodi="http://sodipodi.sourceforge.net/DTD/sodipodi-0.dtd"
   xmlns:inkscape="http://www.inkscape.org/namespaces/inkscape"
   version="1.1"
   id="svg6033"
   width="354"
   height="434"
   viewBox="0 0 354 434"
   sodipodi:docname="plastico4.svg"
   inkscape:version="0.92.3 (2405546, 2018-03-11)">
  <metadata
     id="metadata6039">
    <rdf:RDF>
      <cc:Work
         rdf:about="">
        <dc:format>image/svg+xml</dc:format>
        <dc:type
           rdf:resource="http://purl.org/dc/dcmitype/StillImage" />
        <dc:title></dc:title>
      </cc:Work>
    </rdf:RDF>
  </metadata>
  <defs
     id="defs6037" />
  <sodipodi:namedview
     pagecolor="#ffffff"
     bordercolor="#666666"
     borderopacity="1"
     objecttolerance="10"
     gridtolerance="10"
     guidetolerance="10"
     inkscape:pageopacity="0"
     inkscape:pageshadow="2"
     inkscape:window-width="1920"
     inkscape:window-height="1017"
     id="namedview6035"
     showgrid="false"
     inkscape:zoom="0.35355339"
     inkscape:cx="-1148.8733"
     inkscape:cy="-90.202223"
     inkscape:window-x="-8"
     inkscape:window-y="-8"
     inkscape:window-maximized="1"
     inkscape:current-layer="svg6033" />
  <path
     style="opacity:1;fill:#fffffe;fill-opacity:1;stroke:#000006;stroke-width:0.74892581;stroke-linejoin:round;stroke-miterlimit:4;stroke-dasharray:none;stroke-opacity:1;paint-order:normal"
     d=""
     id="path6663"
     inkscape:connector-curvature="0" />
  <path
     style="opacity:1;fill:#f9fbff;fill-opacity:1;stroke:#000006;stroke-width:0.10857984;stroke-linejoin:round;stroke-miterlimit:4;stroke-dasharray:none;stroke-opacity:1;paint-order:normal"
     d=""
     id="path6939"
     inkscape:connector-curvature="0" />
  <path
     style="opacity:1;fill:#fffffc;fill-opacity:1;stroke:#000006;stroke-width:0.08666208;stroke-linejoin:round;stroke-miterlimit:4;stroke-dasharray:none;stroke-opacity:1;paint-order:normal"
     d=""
     id="path6957"
     inkscape:connector-curvature="0" />
  <path
     style="opacity:1;fill:#fffffe;fill-opacity:1;stroke:#000000;stroke-width:0.51770478;stroke-linejoin:round;stroke-miterlimit:4;stroke-dasharray:none;stroke-opacity:1;paint-order:normal"
     d=""
     id="path13750"
     inkscape:connector-curvature="0" />
  <path
     style="opacity:1;fill:#fffffe;fill-opacity:1;stroke:#000000;stroke-width:0.73214513;stroke-linejoin:round;stroke-miterlimit:4;stroke-dasharray:none;stroke-opacity:1;paint-order:normal"
     d=""
     id="path13772"
     inkscape:connector-curvature="0" />
  <path
     style="opacity:1;fill:#fffffe;fill-opacity:1;stroke:#000000;stroke-width:0.73214513;stroke-linejoin:round;stroke-miterlimit:4;stroke-dasharray:none;stroke-opacity:1;paint-order:normal"
     d=""
     id="path13790"
     inkscape:connector-curvature="0" />
  <path
     style="opacity:1;fill:#fffffe;fill-opacity:1;stroke:#000000;stroke-width:2.92858052;stroke-linejoin:round;stroke-miterlimit:4;stroke-dasharray:none;stroke-opacity:1;paint-order:normal"
     d=""
     id="path13800"
     inkscape:connector-curvature="0" />
  <path
     style="opacity:1;fill:#fffffe;fill-opacity:1;stroke:#000000;stroke-width:2.92858052;stroke-linejoin:round;stroke-miterlimit:4;stroke-dasharray:none;stroke-opacity:1;paint-order:normal"
     d=""
     id="path13804"
     inkscape:connector-curvature="0" />
  <path
     style="fill:#36bfaf;fill-opacity:1;stroke:#000000;stroke-width:2.62613297;stroke-linecap:butt;stroke-linejoin:miter;stroke-miterlimit:4;stroke-dasharray:none;stroke-opacity:1"
     d="m 167.66036,332.67036 1.62249,2.54234 15.06667,0.36319 3.94042,-1.81595 -10.66245,-174.15266 2.31792,-4.72156 6.0266,-5.44794 22.94761,-2.17917 42.41828,-5.26635 1.39076,-12.34868 -2.78151,-0.908 -66.98849,6.53755 -9.50355,1.99757 -8.57637,3.81357 -4.404,7.26392 -2.54977,7.80873 z"
     id="path3749"
     inkscape:connector-curvature="0" />
  <path
     style="fill:#000000;fill-opacity:1;stroke:#000000;stroke-width:1.64133286px;stroke-linecap:butt;stroke-linejoin:miter;stroke-opacity:1"
     d="m 160.24289,234.3349 0.46359,9.62474 -10.54658,3.5412 -6.95388,1.27111 -13.67581,-1.45276 -6.8379,-3.5412 -3.24509,-4.99397 -0.46359,-6.08353 0.57946,-8.98907 -4.98357,-4.17676 -1.15901,-0.81721 v -3.90439 l 1.70136,-1.19026 1.63916,-1.38033 2.45845,-0.77045 3.11423,0.0325 1.88466,0.51367 1.68015,1.34826 1.76191,1.38033 0.86052,1.09148 -0.1632,3.37076 -2.04886,1.57308 -2.37658,1.12366 -0.4508,0.96298 0.4508,3.788 2.54044,5.939 4.05662,4.84752 0.57368,0.77045 16.88201,-0.32115 6.35121,-1.47653 z"
     id="path3751"
     inkscape:connector-curvature="0" />
  <path
     style="fill:#000000;fill-opacity:1;stroke:#000000;stroke-width:1.64133286px;stroke-linecap:butt;stroke-linejoin:miter;stroke-opacity:1"
     d="m 182.78491,231.42937 2.20205,1.77043 6.31633,0.59037 6.60617,1.49807 4.69384,1.45276 8.05479,-0.40849 4.98357,-2.99635 2.31792,-5.22103 0.1743,-5.72035 -0.34771,-1.86137 -2.95548,-1.95219 -1.68037,-0.72639 -0.63755,-4.49453 0.75342,-1.72513 1.6226,-1.36205 2.20205,-1.27112 2.66564,-0.63566 3.41884,-0.0897 2.14418,1.27123 1.39076,1.72513 1.27488,2.76929 -0.28984,3.45037 -2.08618,1.08958 -1.79624,1.67994 0.7532,3.45037 0.92717,5.67482 -1.27489,6.26519 -2.43379,4.76701 -2.31792,2.67847 -3.59281,1.49829 -3.30297,1.13487 -6.54829,0.40872 -9.09784,-0.18165 -5.91073,-1.86148 -7.24361,-1.22571 z"
     id="path3753"
     inkscape:connector-curvature="0" />
  <path
     style="fill:#000000;fill-opacity:1;stroke:#000000;stroke-width:1.64133286px;stroke-linecap:butt;stroke-linejoin:miter;stroke-opacity:1"
     d="m 167.66036,332.67036 -1.61727,-11.60092 -7.94915,2.63226 -8.93286,3.78811 -5.40871,5.65004 -3.27809,3.72375 -1.80302,4.68706 v 10.01585 l -0.98338,2.11882 -10.65367,-0.12783 -3.44195,0.89884 -2.78639,1.92618 -0.57357,2.3756 1.96677,1.66929 3.36007,1.41251 9.75216,0.12783 4.34346,-1.34826 1.72091,-1.41262 1.96688,-1.79768 2.04886,-3.78811 -0.32783,-3.91639 2.13062,-4.43017 2.13085,-3.85236 4.01562,-2.9533 4.42533,-3.14605 3.93364,-2.24721 z"
     id="path3755"
     inkscape:connector-curvature="0" />
  <path
     style="fill:#000000;fill-opacity:1;stroke:#000000;stroke-width:1.64133286px;stroke-linecap:butt;stroke-linejoin:miter;stroke-opacity:1"
     d="m 188.25194,320.29887 -0.24584,8.92448 9.09672,4.10914 5.73654,3.0818 4.58942,4.49431 2.86804,3.98064 1.47519,4.36592 1.80301,5.52165 0.65566,1.73354 2.54044,1.5409 6.63805,-0.25689 7.94937,-0.0639 h 2.86816 l 1.72103,-1.4124 1.14725,-1.86204 -0.32761,-1.86193 -0.90162,-1.41251 -1.96677,-1.09148 -2.86827,-0.89884 -4.17948,-0.32092 -3.03224,0.51356 -2.04886,0.51367 -2.21261,-0.32103 -0.4918,-4.43017 0.16319,-6.22774 -3.52382,-4.87959 -3.85187,-4.17328 -4.09761,-3.33869 -4.67107,-3.0818 -4.75327,-2.18296 -4.50731,-0.64206 z"
     id="path3757"
     inkscape:connector-curvature="0" />
  <path
     style="fill:#ffffff;fill-opacity:1;stroke:#000000;stroke-width:1.64133286px;stroke-linecap:butt;stroke-linejoin:miter;stroke-opacity:1"
     d="m 166.12508,179.62652 -3.44206,8.28247 -8.44095,3.21021 -9.09651,-1.66939 -5.32683,-4.81526 -1.31121,-3.91655 1.22922,-3.788 4.91702,-3.85235 4.5893,-1.60519 5.90051,-0.7062 5.5728,2.05453 4.75305,3.5955 1.39319,3.21023 1.88489,-4.87948 4.01563,-4.1092 4.42544,-1.47661 5.40871,-0.44949 4.34345,1.60518 4.5893,3.14601 2.13073,3.65956 -0.0811,4.43013 -1.3932,4.17341 -3.19588,2.24717 -3.2782,1.34819 -4.42533,0.32106 -4.50742,-0.57777 -3.52382,-1.86203 -3.93364,-2.88916 -1.55706,-2.63245 z"
     id="path3759"
     inkscape:connector-curvature="0" />
  <path
     style="fill:#000000;fill-opacity:1;stroke:#000000;stroke-width:1.64133286px;stroke-linecap:butt;stroke-linejoin:miter;stroke-opacity:1"
     d="m 154.89773,179.43388 -2.62243,-1.21991 -2.04886,0.38528 -0.90139,1.34833 0.0811,1.86188 1.47519,1.47677 2.21261,-0.25686 1.80301,-1.09147 z"
     id="path3761"
     inkscape:connector-curvature="0" />
  <path
     style="fill:#000000;fill-opacity:1;stroke:#000000;stroke-width:1.64133286px;stroke-linecap:butt;stroke-linejoin:miter;stroke-opacity:1"
     d="m 181.45003,176.93 2.2946,0.89884 1.06548,1.54082 -1.47519,1.09148 -1.06547,1.02726 -2.54044,-0.83462 -1.47519,-1.09148 -0.57356,-1.02726 1.72091,-1.34833 z"
     id="path3763"
     inkscape:connector-curvature="0" />
  <path
     style="fill:none;stroke:#000000;stroke-width:1.64133286px;stroke-linecap:butt;stroke-linejoin:miter;stroke-opacity:1"
     d="m 163.53442,158.81391 c 0.56779,0.22242 0.0189,0.0378 0.34761,0.09 0.36482,0.0566 -0.0189,0.0785 0.34772,0.13656 0.0578,0.0145 0.28172,0 0.34771,0 0.19308,0 0.38627,0 0.57946,0 0.0666,0 0.25273,-0.0146 0.28972,0 0.0389,0.0159 0.0222,0.0727 0.0578,0.09 0.0311,0.0174 0.0778,0 0.11498,0 0.0578,0 0.11498,0 0.1743,0 0.15386,0 0.30917,0 0.46359,0 0.69543,0 1.39075,0 2.08618,0"
     id="path3765"
     inkscape:connector-curvature="0" />
  <path
     style="fill:none;stroke:#000000;stroke-width:1.64133286px;stroke-linecap:butt;stroke-linejoin:miter;stroke-opacity:1"
     d="m 166.4318,154.41008 c 0.0311,0 0.35572,0.0654 0.4056,0.09 0.0189,0.0146 -0.0189,0.0407 0,0.0451 0.0411,0.0146 0.32172,0 0.4057,0 0.0389,0 0.08,-0.0146 0.11498,0 0.0811,0.0218 0.14831,0.0741 0.23174,0.0901 0.0367,0.0146 0.0778,0 0.11498,0 0.0389,0 0.0778,0 0.11498,0 0.1743,0 0.34771,0 0.52146,0 0.1743,0 0.34772,0 0.52158,0 0.0367,0 0.14097,-0.0146 0.1743,0 0.10553,-0.0276 0.10776,0.0741 0.17441,0.09 0.31272,0.0814 0.0255,-0.0146 0.11487,-0.0451 0.0356,-0.0146 0.0778,0 0.11498,0 0.0389,0 0.0778,0 0.11498,0 0.0389,0 0.0778,0 0.11498,0 0.0189,0 0.0578,-0.0146 0.0578,0 0,0.0159 -0.0778,0 -0.0578,0 0.15953,0 0.0811,-0.0146 0.23185,0.0451"
     id="path3767"
     inkscape:connector-curvature="0" />
  <path
     style="fill:none;stroke:#000000;stroke-width:1.64133286px;stroke-linecap:butt;stroke-linejoin:miter;stroke-opacity:1"
     d="m 169.27119,148.73514 c 0.0467,0.093 0.20152,-0.0799 0.28984,-0.0451 0.0244,0.0146 0.0355,0.0334 0.0578,0.0451 0.0356,0.0188 0.0778,0.0305 0.11498,0.0451 0.0389,0.016 0.0744,0.0378 0.11498,0.0451 0.0367,0.0146 0.0889,-0.0218 0.11498,0 0.0278,0.0217 -0.0189,0.0625 0,0.09 0.0189,0.0392 0.14653,0.0843 0.1743,0.09 0.0189,0 0.0411,0 0.0578,0 0.0478,0.0188 0.0667,0.0712 0.11498,0.09 0.0189,0 0.0411,0 0.0578,0 0.0244,0.0146 0.0311,0.0393 0.0578,0.0451 0.0367,0.0146 0.0811,-0.0146 0.11498,0 0.0478,0.0188 0.0722,0.0654 0.11498,0.09 0.0356,0.0203 0.08,0.0261 0.11498,0.0451 0.0222,0.0145 0.0356,0.0334 0.0578,0.0451 0.0355,0.0188 0.0855,0.0217 0.11498,0.0451 0.03,0.0232 0.0278,0.0668 0.0578,0.09 0.03,0.0232 0.0922,0.0174 0.11498,0.0451 0.0222,0.0247 -0.0278,0.0697 0,0.09 0.0578,0.0451 0.11498,-0.0232 0.1743,0 0.0244,0.0145 0.0356,0.0334 0.0578,0.0451 0.0356,0.0188 0.08,0.0261 0.11498,0.0451 0.0222,0.0146 0.0333,0.0363 0.0578,0.0451 0.0189,0 0.0411,0 0.0578,0 0.0244,0.0145 0.23018,0.18029 0.23184,0.1816"
     id="path3769"
     inkscape:connector-curvature="0" />
  <path
     style="fill:none;stroke:#000000;stroke-width:1.64133286px;stroke-linecap:butt;stroke-linejoin:miter;stroke-opacity:1"
     d="m 174.13888,144.51291 c -0.12797,0.2169 0.27851,0.20935 0.34772,0.31787 0.0722,0.11477 -0.22018,-0.0393 0.11487,0.13656 0.0189,0.0146 0.0444,-0.0146 0.0578,0 0.14097,0.11045 -0.0189,0.0668 0.11497,0.13656 0.0356,0.0188 0.0855,0.0218 0.11498,0.0451 0.0189,0.0146 0,0.0305 0,0.0451 0.0189,0.0319 0.0278,0.0668 0.0578,0.09 0.0189,0.0145 0.05,-0.0146 0.0578,0 0.0189,0.0276 -0.0278,0.0697 0,0.09 0.0422,0.0334 0.1242,0.0174 0.1743,0.0451 0.0356,0.0203 0.0333,0.0625 0.0578,0.09 0.0444,0.0522 0.12987,0.0842 0.1743,0.13655 0.0244,0.0276 0.0389,0.061 0.0578,0.09 0.0189,0.0305 0.0444,0.0581 0.0578,0.09 0,0.0146 0,0.032 0,0.0451 0.0189,0.0276 0.21329,0.16227 0.23185,0.18159 0.0256,0.0276 0.0333,0.0625 0.0578,0.09 0.0189,0.0174 0.0389,0.0305 0.0578,0.0451 0.0189,0.0146 0.0356,0.0334 0.0578,0.0451 0.0356,0.0189 0.08,0.0261 0.11498,0.0451 0.17241,0.09 -0.0667,-0.0146 0.0578,0.13657 0.0244,0.0276 0.0778,0.0305 0.11497,0.0451"
     id="path3771"
     inkscape:connector-curvature="0" />
  <path
     style="fill:none;stroke:#000000;stroke-width:1.64133286px;stroke-linecap:butt;stroke-linejoin:miter;stroke-opacity:1"
     d="m 181.84608,141.10802 c 0.52179,-0.33226 0.18363,0.18871 0.23184,0.22693 0.03,0.0247 0.0855,0.0217 0.11498,0.0451 0.03,0.0232 0.0222,0.0727 0.0578,0.09 0.0311,0.0174 0.0822,-0.0146 0.11498,0 0.0189,0 -0.0189,0.0334 0,0.0451 0.03,0.0363 0.0833,0.0566 0.11498,0.09 0.0256,0.0276 0.0333,0.0625 0.0578,0.09 0.0189,0.0174 0.0467,0.0261 0.0578,0.0451 0,0.0146 0,0.0305 0,0.0451 0.0778,0.1845 0.0311,0 0.1743,0.1816 0.33416,0.43641 -0.26596,-0.18683 0.1743,0.2724 0.13353,0.13947 -0.0367,-0.0741 0.1743,0.09 0.03,0.0247 0.0333,0.0625 0.0578,0.09 0.0189,0.0174 0.05,0.0247 0.0578,0.0451 0.0189,0.029 -0.0189,0.0639 0,0.09 0,0.0146 0.0411,-0.0146 0.0578,0 0.0444,0.0232 0.0911,0.0522 0.11498,0.09 0.0189,0.0276 -0.0189,0.0625 0,0.09 0,0.0203 0.0389,0.0305 0.0578,0.0451 0.0389,0.0305 0.0833,0.0566 0.11498,0.09 0.15198,0.15864 -0.0189,0.0203 0.0578,0.18159 0.0189,0.0407 0.0855,0.0552 0.11498,0.09 0.0244,0.0276 0.0333,0.0625 0.0578,0.09 0.0256,0.0305 0.16319,0.11191 0.17441,0.13656 0.0189,0.029 0,0.061 0,0.09"
     id="path3773"
     inkscape:connector-curvature="0" />
</svg>
