<svg xmlns="http://www.w3.org/2000/svg" width="354" height="434" stroke="#000" xmlns:v="https://vecta.io/nano"><path d="M150.312 186.272l-9.192 10.607 2.475 21.213 9.899 17.324.707 6.718-9.192 10.253-.354 6.718 7.071 13.789-2.828 9.546-12.374 14.849-2.828 10.96 4.95 8.485 11.314 6.01 15.203 4.596 14.849 2.121 10.96-.354 6.718-1.768 1.732-1.219-.125-15.75 1.75-3.5 7.125-10.375.125-24.875-2.75-11.875-.25-3.625 10.125-10.75-.75-3.5-9.625-9.625-.625-2.625 4.5-6.5 1.25-4v-8.75l-3.375-10.75-4.75-11.75-2.25-4.5-4.125-3.625-6.125-2.5-8.125-2.5-6.25 3.125-15.75 4.75z" fill="#c8e7eb" stroke-width="1.6"/><path d="M150.312 186.272c3.204 1.116 9.414-1.215 13.414-2.131l12.5-4c1.667-.833 3.775-1.49 5.442-2.323 3.51-.543 4.457-1.439 4.874-2.689-1.25-4.833-3.472-12.937-5.783-15.207-2.22-1.361-7.533.636-10.283 1.22l-22.75 6.5c-1.576.46-3.77 1.096-4.197 2.439-.185 3.571 3.52 13.24 6.783 16.192z" fill="#12b9cf"/><path d="M205.296 256.121l4.313 2.25 4.25 2.813 4.125 3.625 1.188 2.375.313 3.063-3.937 3.813v3.375l2.063 1.875 1.938 1 2.875-.562 2.063-1.875.25-2.875-1.312-2.062-.812-.375.563-1.5.062-5.062-.812-4-2.875-3.875-5.062-3.75-4.5-2.687-.625-.812zm-61.878 3.249l-2.342.442-2.166 1.547-1.945 1.547-1.282 2.121-.884 2.077-.442 4.287.221 1.37 1.105.663 1.679.221 1.017 1.016.044 2.74-.884 1.9-1.856 1.105-1.149.442-2.387-.177-1.105-1.061-.751-1.105-.265-1.768.398-.928-.044-3.58-.177-4.817.265-3.889 1.282-2.961 2.475-3.049 3.005-2.254 3.094-1.724 2.033-.884 2.652-.265zm41.04 70.624l-.875 1.813-.312 19.563-2.812 4.125-3.25 2.938-3.812 1.625-2.625.063-1.562-1.375-.062-2.875 2.313-2.687 2.875-1.937 2.938-.812 1.438-.937-1.312-8.5-.062-11.125zm-34.499-7.25l.265 21.213-3.138 2.607-3.447 1.945-2.74 1.105-4.552.088-1.016-.928-.398-1.812 1.017-1.37 1.37-.928 1.989-.575 2.342-.575 2.431-.619.972-1.326-1.193-4.331-.707-5.613-.177-10.607.486-1.812zm20.991-61.231l14.584.11.199 6.121-.022 4-1.105 3.005-2.828 4.773-6.054-.044-3.005-3.646-1.922-3.182.022-3.027.111-3.513.398-3.049z"/><path d="M172.408 261.783h4.864l.463 7.056 1.506.109 1.506-7.273h4.241l.039 1.684.263 7.232-1.11 4.224-2.392 4.198-2.988-.082-2.686.048-1.434-1.334-2.392-3.301-1.02-1.691.021-5.985.191-3.365z" fill="#ef6352" stroke-width=".369"/><path d="M184.132 239.869l2.74 3.977 2.298 2.386 2.298.088.796-1.326-.796-1.856-3.359-2.652-1.945-1.945zm-21.508 6.014l1.503 1.237 5.215-3.182 1.856-2.386-.619-1.591-1.856-.177-1.591 1.768-2.387 2.74z"/><g fill="none"><path d="M150.852 171.887l.177.442c0 .03-.01.06 0 .088.021.063.072.113.088.177.021.086-.028.181 0 .265.213.64-.026-.139.177.265.029.057-.028.386 0 .442.037.075.139.102.177.177.013.026-.01.06 0 .088.021.063.068.114.088.177.026.079-.027.186 0 .265.013.04.075.049.088.088.019.056-.026.124 0 .177.013.026.075-.026.088 0 .035.071-.035.194 0 .265.019.037.07.051.088.088.026.053-.026.124 0 .177.019.037.075.049.088.088.019.056-.033.128 0 .177.037.055.13.042.177.088v.265c.013.04.07.051.088.088s-.014.313 0 .354.075.049.088.088c0 .402-.042.005.088.265.013.026 0 .059 0 .088 0 .059-.019.121 0 .177.013.04.065.054.088.088a.9.9 0 0 1 .088.177c.069.173.093.364.177.53.019.037.07.051.088.088.013.026-.013.062 0 .088.019.037.065.054.088.088.037.055.042.13.088.177.021.021.075-.026.088 0 .053.105-.037.242 0 .354.013.04.075.049.088.088.019.056-.014.12 0 .177.016.064.064.116.088.177.035.087.047.182.088.265.019.037.07.051.088.088.013.026 0 .059 0 .088.029.059.052.122.088.177a.24.24 0 0 0 .088.088c.026.013.075-.026.088 0 .026.053-.019.121 0 .177.026.079.15.098.177.177.013.04-.02.314 0 .354.037.075.139.102.177.177.013.026 0 .059 0 .088 0 .059-.019.121 0 .177-.033.193.147.03.177.088.04.079 0 .177 0 .265m1.951-10.426c.068.077-.037.649 0 .796.02.081.15.098.177.177.014.04-.02.314 0 .354s.07.051.088.088 0 .453 0 .53v.354c.019.037.078.048.088.088.021.086 0 .177 0 .265v.707c0 .059-.012.119 0 .177.02.103.109.341.177.442.023.035.07.051.088.088.047.095-.076.189.088.354.021.021.075-.026.088 0 .053.105-.037.242 0 .354.013.04.059.059.088.088.03.059.075.112.088.177.017.087 0 .177 0 .265 0 .03-.013.062 0 .088.037.075.139.102.177.177.013.026-.021.067 0 .088s.062-.013.088 0c.037.019.059.059.088.088s.07.051.088.088c.109.218-.256-.08.088.265.021.021.068-.021.088 0 .047.047.042.13.088.177s.122.052.177.088c.035.023.059.059.088.088.075.075.29.322.353.354.053.026.135-.042.177 0 .021.021-.021.332 0 .354.047.047.14.034.177.088s-.019.121 0 .177c.013.04.07.051.088.088.013.026-.021.067 0 .088.183.183-.01-.279.177.088.028.056-.028.298 0 .354.109.218.088-.03.088.177v.354.088c0 .03.03.088 0 .088s-.01-.06 0-.088c.021-.062.059-.118.088-.177m2.569-9.544c.255.125.11.589.265.795.04.053.13.042.177.088.021.021-.01.06 0 .088.223.893-.032-.064.177.354.029.059-.025.279 0 .354.213.64-.025-.139.177.265.013.026-.01.06 0 .088.021.063.068.114.088.177.01.028-.01.06 0 .088.021.063.068.114.088.177.01.028 0 .059 0 .088 0 .058-.017.284 0 .354.023.09.066.175.088.265.01.029-.013.062 0 .088.037.075.139.102.177.177.013.026 0 .059 0 .088v.53c.023.09.07.174.088.265.01.034-.01.339 0 .354.013.026.059 0 .088 0 .029.059.075.112.088.177.029.144 0 .295 0 .442 0 .059-.014.12 0 .177-.053.16.143.164.177.265.019.056 0 .118 0 .177.029.059.068.114.088.177.025.076-.028.386 0 .442.019.037.07.051.088.088.269.063.034.245.088.354.019.037.07.051.088.088.026.053-.026.124 0 .177.019.037.07.051.088.088.013.026-.021.067 0 .088.108.108.197.041.265.177.103.206-.256-.04.177.177m2.92-9.987v1.679.53c.068.135.157.069.265.177.021.021-.01.06 0 .088.021.063.068.114.088.177.01.028-.013.062 0 .088.019.037.065.054.088.088.037.055.042.13.088.177s.13.042.177.088-.026.124 0 .177c.037.075.139.102.177.177.013.026-.013.062 0 .088.019.037.075.049.088.088.019.056-.019.121 0 .177.013.04.065.054.088.088.037.055.055.12.088.177.055.091.129.17.177.265.042.083.041.185.088.265a.58.58 0 0 0 .177.177c.024.016.075-.026.088 0 .053.105-.037.242 0 .354.013.04.059.059.088.088 0 .059-.019.121 0 .177.045.136.193.069.265.177.033.049-.019.121 0 .177.026.079.139.102.177.177.013.026-.021.067 0 .088.047.047.13.042.177.088.024.024-.024.306 0 .354.037.075.15.098.177.177.019.056-.019.121 0 .177.013.04.075.049.088.088.037.112-.037.242 0 .354.013.04.075.049.088.088.031.094-.031.26 0 .354.25.501-.033-.132.088.354-.053.16.143.164.177.265.055.164-.122.354.177.354m2.213-9.634c-.029.147-.088.292-.088.442 0 .066.064.116.088.177.035.087.07.174.088.265.012.058 0 .118 0 .177l.088.354.088.265c.024.061.078.112.088.177.019.116-.017.237 0 .354.013.092.059.177.088.265l.088.265c.029.088.07.174.088.265.011.058 0 .118 0 .177.029.088.07.174.088.265.012.058-.026.124 0 .177.013.026.072-.024.088 0 .052.077.054.179.088.265.024.061.068.114.088.177.01.028-.01.06 0 .088.023.09.059.177.088.265.048.144.09.312.177.442.169.253.016-.135.177.265.164.066.052.333.088.442.026.079.15.098.177.177.07.21-.105.161.088.354.118.118.085-.187.177.088.019.056-.026.124 0 .177.013.026.075-.026.088 0 .026.053-.019.121 0 .177.013.04.07.051.088.088.013.026-.013.062 0 .088.135.27.07-.162.177.265.029.114-.037.242 0 .354.013.04.065.054.088.088.098.146.088.201.088.354m3.276-8.575v.619c0 .03.013.062 0 .088-.019.037-.07.051-.088.088-.013.026.013.062 0 .088-.019.037-.075.049-.088.088-.019.056 0 .118 0 .177v.177.795 1.237.442c.013.026.075-.026.088 0 .028.056-.028.298 0 .354.019.037.065.054.088.088.036.055.042.13.088.177.021.021.068-.021.088 0v.265c.02.06.231.198.265.265.109.218-.256-.08.088.265.047.047.137.036.177.088.328.437-.149.146.265.354m-37.246 136.205c1.036-.518.075-.103.442-.177l.353-.088c.126-.025.327.038.442 0 .125-.042.231-.128.353-.177.027-.011.059 0 .088 0h.177.619 1.945.707c.071 0 .298.019.354 0 .64-.213-.139.026.265-.177.026-.013.059 0 .088 0h.088.53c.04 0 .238.014.265 0 .075-.037.098-.15.177-.177.056-.019.118 0 .177 0h.177.707 2.21 1.945.619c.059 0 .121-.019.177 0 .04.013.049.075.088.088.056.019.118 0 .177 0h.177.619.177c.059 0 .121-.019.177 0 .04.013.051.07.088.088.056.028.298-.028.354 0 .026.013 0 .059 0 .088.029.029.049.075.088.088.084.028.177 0 .265 0h.53c.04 0 .238-.014.265 0 .075.037.102.14.177.177.026.013.445 0 .53 0 .338 0 .014-.019.442.088.057.014.118 0 .177 0h.53c.088 0 .179-.021.265 0 .064.016.114.068.177.088.056.019.124-.026.177 0 .037.019.051.07.088.088.026.013.059 0 .088 0h.088.53c.088 0 .181-.028.265 0 .04.013.059.059.088.088.059.029.113.072.177.088.057.014.118 0 .177 0h.353 1.061 3.359 1.149.442c.026.013 0 .059 0 .088.029.029.049.075.088.088.05.017.359 0 .442 0 .029 0 .06-.009.088 0 .062.021.114.068.177.088.094.031.26-.031.353 0 .062.021.113.072.177.088.057.014.118 0 .177 0h.53c.03 0 .06-.009.088 0 .062.021.113.072.177.088.086.021.181-.028.265 0 .64.213-.139-.026.265.177.026.013.059 0 .088 0h.177.619c.04 0 .238-.014.265 0 .037.019.051.07.088.088.026.013.059 0 .088 0 .059 0 .121-.019.177 0 .04.013.051.07.088.088.052.026.204-.02.265 0s.113.072.177.088c.057.014.118 0 .177 0 .029 0 .062-.013.088 0 .037.019.051.07.088.088.056.028.418-.024.442 0s-.021.067 0 .088c.042.042.121-.019.177 0 .062.021.113.072.177.088.057.014.118 0 .177 0 .059.029.114.068.177.088.028.009.062-.013.088 0 .037.019.051.07.088.088.026.013.06-.007.088 0a1.29 1.29 0 0 1 .265.088c.037.019.049.075.088.088.337.112.015-.196.442.088.024.016-.021.068 0 .088.047.047.116.064.177.088a1.47 1.47 0 0 0 .265.088c.116.023.239-.029.354 0 .064.016.114.068.177.088.094.031.367-.037.442 0 .026.013 0 .059 0 .088.029.029.049.075.088.088.073.024.386-.028.442 0 .075.037.102.139.177.177.056.028.298-.028.354 0 .037.019.051.07.088.088.026.013.059 0 .088 0 .059 0 .121-.019.177 0 .04.013.049.075.088.088.402 0 0-.042.265.088.026.013.059 0 .088 0h.088.442c.029 0 .062-.013.088 0 .071.035.106.141.177.177.056.028.298-.028.354 0 .037.019.051.07.088.088.071.035.194-.035.265 0 .037.019.051.07.088.088.053.026.368-.025.442 0 .501.25-.132-.033.353.088.37-.16.102.14.177.177.026.013.458 0 .53 0 .03 0 .061-.009.088 0l.177.088c0 .029-.026.075 0 .088.097.049.25-.035.354 0 .062.021.113.072.177.088.086.021.181-.028.265 0 .125.042.229.135.354.177.104.034.256-.049.353 0 .026.013-.013.062 0 .088.019.037.059.059.088.088s.051.07.088.088c.053.026.124-.026.177 0 .037.019.059.059.088.088.069.069.189.214.265.265s.214.075.265.177c.013.026-.021.068 0 .088s.062-.013.088 0c.293.293-.083-.042.177.088.037.019.049.075.088.088.056.019.121-.019.177 0 .039.013.051.07.088.088.026.013.062-.013.088 0 .037.019.051.07.088.088.026.013.062-.013.088 0 .405.202-.375-.037.265.177.056.019.135-.042.177 0 .108.108.041.197.177.265a1.23 1.23 0 0 0 .265.088c.029.007.068-.021.088 0s-.021.068 0 .088.059 0 .088 0c.059 0 .124-.026.177 0 .026.013 0 .059 0 .088.03.029.049.075.088.088.056.019.121-.019.177 0s.198.231.265.265c.026.013.062-.013.088 0 .037.019.051.07.088.088.026.013.062-.013.088 0 .037.019.059.059.088.088s.07.051.088.088c.013.026-.021.068 0 .088s.059 0 .088 0h.442c.026.013 0 .059 0 .088.059.029.114.068.177.088.094.031.26-.031.353 0 .193-.033.029.147.088.177.053.026.121-.019.177 0 .04.013.051.07.088.088.026.013.06-.007.088 0 .09.023.179.052.265.088.121.052.236.118.354.177.059.029.13.042.177.088.021.021-.026.075 0 .088.053.026.121-.019.177 0 .079.026.102.14.177.177.218.109-.08-.257.265.088.118.118-.187.085.088.177.056.019.124-.026.177 0 .075.037.107.131.177.177.024.016.062-.013.088 0 .075.037.102.14.177.177.026.013.062-.013.088 0 .037.019.054.065.088.088.055.037.13.042.177.088.021.021-.026.075 0 .088.053.026.121-.019.177 0 .04.013.054.065.088.088.055.036.13.042.177.088.021.021-.021.067 0 .088.047.047.122.052.177.088.035.023.051.07.088.088.026.013.067-.021.088 0 .047.047.034.14.088.177s.135-.042.177 0c.066.066.047.182.088.265.019.037.07.051.088.088.013.026-.013.062 0 .088.019.037.059.059.088.088.059.059.131.107.177.177.016.024-.021.067 0 .088s.062-.013.088 0c.037.019.059.059.088.088l.088.088c.112.112.23.261.354.354.053.039.118.059.177.088"/><path d="M187.914 191.744c-.049.065-.146.173-.177.265 0 .014.01.034 0 .044s-.034-.01-.044 0c-.023.023-.017.07-.044.088s-.067-.021-.088 0 .01.06 0 .088c-.013.04-.07.051-.088.088-.01.013.01.031 0 .044-.01.019-.035.026-.044.044s.01.031 0 .044c-.092.184 0-.047-.088.044-.01.01.01.195 0 .221s-.116.099-.132.133c-.013.026.01.06 0 .088s-.034.057-.044.088c0 .014.01.031 0 .044-.027.053-.106.08-.133.133-.01.013.01.031 0 .044-.019.037-.07.051-.088.088-.01.013.01.031 0 .044-.01.019-.03.03-.044.044s-.026.035-.044.044-.034-.01-.044 0c-.091.091.14-.004-.044.088-.013.007-.038-.013-.044 0-.013.026.01.06 0 .088-.01.02-.029.059-.044.044s.044-.065.044-.044c0 .16-.055.032-.088.133-.055.164.06.029-.044.133m3.841-1.057c0 .076.042.178-.044.221-.013.007-.034-.01-.044 0s.01.031 0 .044c-.027.053-.106.079-.133.133-.01.013.01.031 0 .044-.01.019-.026.035-.044.044s-.044-.015-.044 0c0 .047.035.087.044.133.01.029 0 .059 0 .088 0 .015.01.034 0 .044s-.031-.007-.044 0c-.019.009-.03.03-.044.044s-.035.026-.044.044c-.012.024.012.165 0 .177s-.034-.01-.044 0 .01.031 0 .044c-.01.019-.035.026-.044.044s.01.034 0 .044c-.023.023-.07.017-.088.044s.017.232 0 .265c-.01.013-.038-.013-.044 0-.013.026 0 .059 0 .088 0 .015.01.034 0 .044s-.038-.013-.044 0c-.013.026.01.06 0 .088-.013.04-.065.054-.088.088l-.044.088c0 .015.01.031 0 .044-.01.019-.029.03-.044.044s-.027.033-.044.044c-.027.018-.057.034-.088.044-.014.005-.034-.01-.044 0s.013.038 0 .044c-.026.013-.064-.016-.088 0-.152.102.034.088-.088.088m-7.359 125.676c-.059 0-.119-.012-.177 0-.02.004-.03.029-.044.044s-.035.026-.044.044.01.031 0 .044c-.01.019-.029.029-.044.044l-.044.044-.177.177-.044.044c-.015.015-.035.026-.044.044s.01.031 0 .044c-.01.019-.038.024-.044.044-.01.028.01.06 0 .088-.01.02-.033.027-.044.044-.018.027-.026.061-.044.088-.034.051-.099.082-.133.133-.018.027-.021.065-.044.088s-.065.021-.088.044c-.01.01.01.031 0 .044-.01.019-.038.024-.044.044-.01.028.013.062 0 .088-.01.013-.044.015-.044 0s.055-.01.044 0c-.101.102-.088-.012-.088.088m-1.24-2.206c-.09.082-.212-.033-.309 0-.02.007-.025.035-.044.044-.013.007-.031-.007-.044 0-.019.009-.027.033-.044.044-.027.018-.061.026-.088.044-.017.012-.026.035-.044.044s-.03-.005-.044 0c-.031.01-.056.036-.088.044-.052.013-.108-.03-.133.044-.01.028.013.062 0 .088-.01.013-.031-.007-.044 0-.037.019-.051.07-.088.088-.013.007-.031-.007-.044 0-.019.009-.027.033-.044.044-.027.018-.065.021-.088.044-.011.01 0 .029 0 .044-.015.029-.021.065-.044.088-.011.01-.034-.01-.044 0-.023.023-.026.061-.044.088-.012.017-.035.026-.044.044s.01.031 0 .044c-.01.019-.033.027-.044.044-.018.027-.021.065-.044.088-.01.01-.038-.013-.044 0-.013.026 0 .059 0 .088s-.013.062 0 .088c.01.013.03 0 .044 0h.177c.013.007-.01.031 0 .044.01.019.029.029.044.044"/></g></svg>