<?xml version="1.0" encoding="UTF-8" standalone="no"?>
<!-- Created with Inkscape (http://www.inkscape.org/) -->

<svg
   xmlns:dc="http://purl.org/dc/elements/1.1/"
   xmlns:cc="http://creativecommons.org/ns#"
   xmlns:rdf="http://www.w3.org/1999/02/22-rdf-syntax-ns#"
   xmlns:svg="http://www.w3.org/2000/svg"
   xmlns="http://www.w3.org/2000/svg"
   xmlns:sodipodi="http://sodipodi.sourceforge.net/DTD/sodipodi-0.dtd"
   xmlns:inkscape="http://www.inkscape.org/namespaces/inkscape"
   width="250"
   height="250"
   viewBox="0 0 66.145832 66.145832"
   version="1.1"
   id="svg3548"
   inkscape:version="0.92.3 (2405546, 2018-03-11)"
   sodipodi:docname="ico_europa2.svg">
  <defs
     id="defs3542" />
  <sodipodi:namedview
     id="base"
     pagecolor="#ffffff"
     bordercolor="#666666"
     borderopacity="1.0"
     inkscape:pageopacity="0.0"
     inkscape:pageshadow="2"
     inkscape:zoom="2.61"
     inkscape:cx="39.158595"
     inkscape:cy="112.57341"
     inkscape:document-units="mm"
     inkscape:current-layer="layer1"
     showgrid="false"
     units="px"
     inkscape:window-width="1920"
     inkscape:window-height="1017"
     inkscape:window-x="1912"
     inkscape:window-y="-8"
     inkscape:window-maximized="1" />
  <metadata
     id="metadata3545">
    <rdf:RDF>
      <cc:Work
         rdf:about="">
        <dc:format>image/svg+xml</dc:format>
        <dc:type
           rdf:resource="http://purl.org/dc/dcmitype/StillImage" />
        <dc:title></dc:title>
      </cc:Work>
    </rdf:RDF>
  </metadata>
  <g
     inkscape:label="Capa 1"
     inkscape:groupmode="layer"
     id="layer1"
     transform="translate(0,-230.85418)">
    <path
       style="fill:#ffffff;fill-opacity:1;stroke:#000000;stroke-width:1.32291667;stroke-opacity:1;stroke-miterlimit:4;stroke-dasharray:none;stroke-linejoin:round"
       d="m 42.922451,232.44527 c -0.04807,0.001 -0.09973,0.004 -0.155239,0.008 -0.143177,1.09812 -1.388965,2.96406 -1.01028,0.65569 -0.992163,1.43277 -1.856965,3.19259 -0.979702,0.53468 1.169819,-1.05405 -0.178839,-1.68897 -0.278725,-0.57996 -1.13158,-0.41542 -0.298937,1.60194 -1.965129,1.03682 0.634431,2.38177 -0.467233,0.45992 -1.631492,0.9166 1.251389,0.99466 -0.733399,0.80048 -1.170461,1.88198 0.142938,-1.04009 -0.233736,-1.36537 -0.505013,0.16746 -0.645645,-2.71177 -0.08779,1.93091 -0.768771,-0.21561 -1.637813,-1.36409 0.872842,1.26452 -0.791803,0.54275 0.05226,1.9935 -1.952601,1.77793 -2.084713,1.42446 -0.227925,-0.41906 -1.465037,-0.32274 -1.175797,0.54119 1.799989,-0.68868 -1.816532,2.02352 0.556537,0.73611 1.221642,-0.64659 2.936812,-0.5329 1.031362,0.17176 -0.181909,0.87509 -2.40801,1.04287 -0.917112,1.47651 -1.046715,0.69706 -0.558165,0.91369 -0.225766,1.23722 -2.220884,0.0147 -1.382541,2.16424 -1.5689,2.35771 -1.681282,0.41758 -0.438343,2.88371 -2.119067,3.13898 1.146324,1.10659 -2.805902,1.68278 -0.953937,2.65101 1.683963,-2.16481 0.660634,1.65411 -1.02004,0.39597 -0.922323,0.88469 -2.516088,0.83512 -2.067147,1.89915 -1.952845,0.11704 -1.975814,2.20322 -1.852311,3.19819 -0.299094,1.40793 0.366501,1.57483 0.0095,2.37124 1.827833,-1.78415 0.197378,-0.12733 0.01978,1.05921 1.310951,-1.22233 -0.162748,3.31049 2.613146,2.02824 1.44953,-0.69891 2.463729,-3.87935 3.380487,-1.38829 0,0 0.01704,0.32212 -0.05947,0.63513 0.940673,1.74103 0.723868,4.57984 2.280549,5.47444 2.062123,-1.24423 3.087198,-2.88146 2.872743,-5.43943 1.112919,-0.72786 2.427383,-1.90409 0.172024,-1.46819 -1.671624,-0.76857 3.802743,-0.19718 1.285491,-2.19467 -2.560391,-1.47268 -0.274918,-5.73836 1.979835,-6.73781 1.578129,-1.37323 0.4587,-5.15324 3.457387,-4.67209 0.126802,-0.17552 0.161759,-0.37239 0.148863,-0.57502 0.192614,0.68232 0.524642,1.31023 1.131424,1.82265 -0.324519,2.64572 -4.917675,4.24473 -3.767862,7.33481 -0.340413,2.47846 0.996069,4.70893 3.634878,3.40222 1.160608,-0.39807 2.294096,-0.6545 3.19805,-1.35069 -0.219472,0.53747 -0.04563,1.0262 0.937022,1.47821 1.295839,0.18006 -1.098952,0.31044 -1.755241,1.35042 -1.062069,-1.34182 -5.853035,0.49235 -3.196489,2.50293 -0.09763,-0.0771 -0.09524,0.51481 0.07964,0.29786 0.212913,-0.10956 0.460952,-0.12452 0.722185,-0.0924 -0.596828,0.0905 -1.057888,0.54447 -1.075732,1.51581 -1.361885,-1.28521 -2.880381,-1.35888 -2.895775,1.12857 l 0.06701,0.397 0.10605,0.15407 c -0.204673,0.51243 -0.01582,1.15808 0.405337,1.51529 -0.430168,-0.11075 -0.920327,7.9e-4 -1.316853,0.57489 -0.462589,0.23475 -0.559104,0.39532 -0.461809,0.50553 -0.690343,-0.0836 -1.342747,-0.15191 -1.826548,-0.25895 -1.307666,0.15483 -3.298738,0.75756 -3.452053,2.33742 -0.3834,-1.53836 -1.024322,-2.62022 -2.979444,-1.14236 0.329697,-1.08297 -0.998566,-0.48674 -1.640992,-1.29122 0.714998,0.0453 -0.183593,-1.78304 0.901757,-0.46766 1.120248,-0.84484 -1.837676,-0.97907 0.164347,-1.88016 -0.264778,-1.23613 0.541026,-3.72092 -1.445285,-1.80534 -2.039188,0.99998 1.765014,0.31774 -0.416006,1.0557 -1.185034,-0.70492 0.06914,2.9138 0.321146,2.91607 0.08457,0.0491 0.158808,0.0855 0.226285,0.11386 -0.651886,0.94216 -0.329767,2.51607 -1.818089,2.127 -0.09331,0.24784 -0.188302,0.50745 -0.281979,0.77189 -0.02079,-0.57739 -0.43206,-0.78021 -1.694992,-0.0775 -0.529566,0.46783 -1.667922,2.10756 -1.410801,2.71855 -0.736142,0.09 -1.194169,0.46911 -0.55602,1.07482 -0.403461,-0.17533 -0.81523,-0.25713 -1.253221,-0.17697 -0.252256,2.3258 -3.083488,1.86994 -3.346003,2.01757 0.855838,2.12484 -4.330695,0.1285 -2.402476,2.24541 2.128025,0.15821 3.522839,3.43224 2.923622,3.85752 -0.872716,1.33398 -0.606746,2.20728 0.155237,2.73286 -1.870075,-0.45175 -3.747226,-0.81999 -5.7182891,-0.85153 -2.001868,-0.47645 -2.662884,1.8264 -1.292909,2.25817 -0.124925,0.0183 -0.258985,0.0448 -0.404295,0.0815 0.07875,1.91122 -1.5863127,5.79832 1.014445,5.96227 1.4295391,0.69135 0.340046,-0.17697 1.4295391,0.69135 0.691466,1.19971 2.24176,-1.05531 3.771508,-0.19337 2.789046,-1.67761 1.218803,-5.34589 4.782048,-6.23722 1.278702,0.003 0.0207,-0.54697 0.438388,-0.70839 -0.477867,-0.11142 -0.951733,-0.22917 -1.424075,-0.3486 0.447378,0.008 0.888265,-0.0227 1.283671,-0.0859 -0.148027,-2.17423 3.205685,-0.24273 3.8907,-1.13975 0.0963,0.0273 0.240306,-0.0602 0.435004,-0.37241 -0.138592,-0.22549 -0.253196,-0.32323 -0.343136,-0.34184 -0.01253,-0.0681 -0.02851,-0.13991 -0.04958,-0.21718 0.274095,0.0429 1.423558,0.19539 1.957452,-0.14899 0.687079,1.30766 1.785139,2.26863 2.939106,3.16969 -0.09073,0.35072 0.05881,0.90802 0.48237,0.3728 1.12386,0.85984 2.254848,1.70065 3.073783,2.77866 -0.869558,3.0831 1.718334,0.36249 0.733637,-1.17163 0.85529,-0.95094 1.669436,1.88907 1.595057,0.10006 -1.522561,-1.43462 -4.553813,-2.89813 -5.418352,-4.91828 0.0091,-0.0143 0.01765,-0.0263 0.02693,-0.0415 -0.03588,-0.0604 -0.06982,-0.11 -0.102798,-0.15498 -0.197001,-0.56139 -0.224303,-1.16528 -0.006,-1.82291 0.769104,-0.43422 0.80472,-0.89936 0.475864,-1.26272 0.273545,0.096 0.559242,0.12868 0.845024,0.11009 -0.638239,0.47029 -0.815833,1.05728 0.276772,1.23149 -0.872789,0.26159 -0.637945,0.74668 0.497465,0.64971 -0.131131,1.33278 2.306642,2.88817 2.833052,2.90046 0.206526,0.10069 0.403193,0.0877 0.581134,-0.004 -0.169186,0.70838 0.586957,0.97309 1.070657,0.74235 -0.260043,0.21642 -0.395856,0.7224 -0.134027,1.52856 -0.354317,1.22327 0.292481,1.57102 0.830842,1.42955 -0.04461,0.15247 -0.06536,0.31699 -0.05869,0.49459 0.158419,1.55405 1.995596,1.16029 2.539494,1.92206 -3.336658,-1.51504 0.250352,3.56415 0.0094,0.96227 -0.275236,-1.16956 0.577598,0.66266 0.365775,-0.85947 2.089021,0.46839 -1.901682,-2.08368 0.708785,-0.64815 1.354211,0.68227 -1.464165,-0.75709 -0.889394,-1.3041 -0.98053,-1.9193 0.06033,-0.51577 0.511124,-0.86441 1.023464,0.11876 -0.400597,-1.22392 1.175668,-0.7512 0.493403,-0.11891 1.028031,0.0294 1.358234,-0.2125 0.02032,0.22757 0.120031,0.45279 0.323358,0.6488 0.466867,-0.95288 1.832303,-0.32654 2.247886,-1.073 -0.416544,-0.86593 -1.02912,-1.06998 -1.552376,-0.92856 0.788077,-0.54712 0.9237,-1.72788 0.497073,-2.40039 0.764256,-0.2494 1.268333,-1.49575 1.738974,-1.69747 -0.540507,-0.0248 -0.892128,-0.23078 -1.133899,-0.53897 0.01595,-0.0381 0.02614,-0.0787 0.0298,-0.1192 1.104341,1.50645 2.451433,-2.99301 4.022778,-0.86233 2.110729,0.4212 -1.488467,0.95908 0.705921,1.7585 0.292399,1.56291 4.277985,-1.1383 1.719064,-0.69864 -0.841997,-1.73422 1.572366,-1.81967 2.992848,-2.61119 0.275545,0.36853 1.451308,0.14163 -0.02928,0.8851 -0.729125,0.75603 0.588256,0.66986 -0.636175,1.58738 -0.913857,0.56286 -1.127291,0.0955 0.112297,1.22355 0.809988,0.8111 1.773542,1.25643 2.793498,1.5732 -0.150998,0.0586 -0.208828,0.20249 -0.135589,0.46754 0.836862,0.49385 0.923573,1.47619 1.41913,1.99076 -0.331658,-0.005 -0.723992,0.0999 -1.206378,0.36409 -3.158816,1.7123 -6.072368,-2.76183 -9.086022,-0.0604 -0.77266,0.69828 -2.291004,-0.46992 -1.844374,0.82316 -1.154258,0.51553 -4.143398,0.0361 -2.354982,2.11074 0.05775,1.04574 -1.170434,0.24826 0.154459,1.55186 0.626673,1.59676 2.944169,1.92434 4.149775,1.26402 1.098352,2.19091 4.704408,-1.77384 4.289272,0.79857 2.211723,-1.85192 6.624799,-0.95006 8.31582,-1.81172 -0.600393,-1.13826 -0.167402,-2.14372 -0.199872,-2.94353 0.621146,0.74833 1.36893,1.55061 2.127525,1.07431 -0.02888,-0.0944 -0.06847,-0.20347 -0.115422,-0.32076 0.421886,0.28988 0.925907,0.25618 1.412624,-0.44164 0.765598,3.73831 1.520706,-1.24083 2.14431,-1.18347 -0.82414,-0.6415 -1.454345,-1.39589 -2.160315,-1.34249 0.296559,-0.73285 -0.234611,-2.7557 -0.950552,-3.54301 -0.07382,-2.12318 3.759581,-2.85407 0.935069,-4.47548 -1.959028,-0.7569 -1.067194,-5.08611 0.6946,-3.46012 0.396356,-0.69633 0.567582,-1.73643 1.465585,-1.97814 0.730806,-4.0736 0.126704,-8.24514 0.351984,-12.36228 0.02201,-6.91389 0.128785,-13.82951 -0.05856,-20.74212 -1.879611,0.78862 -2.332199,1.91108 -3.196622,3.54379 -2.361216,-0.14861 -2.200799,-2.48571 -0.463892,-3.10501 -0.423973,-1.70172 -4.557678,-2.50281 -2.445154,-0.003 -0.674696,1.48239 1.044027,4.16117 -0.151855,4.93182 -1.189213,-2.4438 -5.272284,0.72579 -3.452445,3.08264 -0.71601,0.68305 -4.816933,-2.17677 -2.92453,0.33467 2.224802,2.7943 -3.606252,0.45211 -2.523101,-1.82889 1.295532,-1.46911 -3.568179,-4.32829 -1.736762,-3.96122 1.813621,1.25124 4.625091,2.97446 6.94757,1.80078 3.215732,-2.77523 -1.361004,-5.275 -3.454527,-6.78778 -0.724618,-1.05595 -5.348957,-0.89028 -3.284848,-1.99375 -0.615222,-0.5586 -1.430578,-0.34135 -2.214316,0.20585 0.07032,-0.8075 -3.293526,-1.70564 -0.678596,-1.22069 2.388503,-0.59688 -1.673957,-3.65811 -1.785297,-1.13884 -0.884729,-0.38237 1.096182,-1.82264 -0.394015,-1.78725 z m 20.77348,4.59948 c -2.530996,0.2146 0.212469,3.0053 0.800391,1.21289 -0.0055,-0.39177 -0.275404,-1.15394 -0.800391,-1.21289 z M 8.5691249,250.47561 c 0.317283,1.11416 -1.23964,0.60689 -1.644634,0.94574 -0.4411198,-0.56788 -1.5686936,0.63295 -1.9757998,0.0347 -0.2660885,2.1091 -1.4023999,1.57907 -1.1525062,-0.15198 -1.1345797,-1.18493 -1.1683154,-0.72247 -1.2715693,0.10462 -1.0127973,-0.97929 -2.06226809,2.46595 0.087703,1.09304 1.9188792,1.05019 -0.6689975,1.27057 -0.9433974,1.78556 0.427234,0.14583 0.8711407,-0.28993 1.2575162,0.0671 1.5819721,0.67836 -1.473906,2.66197 1.2744321,1.89551 2.0618011,2.05001 5.7911584,-0.45312 6.8226505,-2.33637 0.740057,-0.52376 -0.288181,-1.94586 -0.867666,-2.2838 0.544913,-1.43899 -0.9621131,-0.98409 -1.5867291,-1.1542 z m 3.7244031,10.61276 c -1.354173,0.0113 -0.730444,1.24215 -1.697986,2.16487 -0.140681,-0.42516 -1.0669071,0.12707 0.107223,0.9153 -1.4569501,2.10821 1.0951,-0.23835 0.204684,1.55367 -0.338205,2.87096 1.049086,-1.61057 0.75628,1.0553 -1.268209,2.24306 1.994171,0.20603 1.162916,1.33768 1.328046,1.04796 0.459798,2.43478 -0.973196,2.31737 1.658512,1.36723 -2.2677581,2.59906 0.811452,2.57086 2.660324,-0.0597 -1.545719,0.77037 -1.803646,2.24385 2.381965,-0.92338 4.391026,-0.59315 6.604432,-1.47664 -1.168703,-0.84691 1.661323,-2.2617 -0.286923,-2.96175 -1.210081,-0.49623 -1.520367,-3.02695 -2.821474,-4.69734 -3.059203,-0.0734 1.930991,-2.92571 -0.656083,-3.32609 -2.555852,0.86762 -0.204178,-0.83586 -0.695903,-1.62277 -0.284591,-0.0526 -0.518324,-0.0759 -0.711776,-0.0743 z m -1.999482,0.28393 c -1.8611191,1.0491 0.08258,2.29805 0,0 z m -1.1302551,2.62239 c -0.01808,-1.3e-4 -0.03995,0.001 -0.0661,0.004 -0.242952,0.28988 0.337379,-0.001 0.0661,-0.004 z m 29.0696511,1.03552 c 0.207639,0.003 0.418645,0.0329 0.631229,0.0812 -0.477414,-0.042 -0.95478,-0.0267 -1.378921,0.0518 0.242528,-0.0973 0.492604,-0.13625 0.747692,-0.13299 z m -10.044124,0.59948 c -0.863536,0.69442 -1.865303,0.86786 -0.487055,2.02759 -2.244067,0.26021 1.479515,0.83697 0.152506,-0.35914 0.288504,-0.50268 0.707114,-1.06687 0.334549,-1.66845 z m -19.0234451,1.44256 c -0.698677,0.0139 -1.371581,0.97434 -1.071179,1.49889 -1.7778971,-0.18816 -1.665061,1.46194 -0.597659,1.89708 -1.1141692,1.3391 0.933957,0.50721 -0.712298,1.30956 -0.7966486,0.52258 0.873805,0.16229 -0.3338969,0.76292 1.0046499,1.28096 5.497811,-0.88454 3.682503,-3.23267 -0.01321,-0.21866 0.560153,-0.023 0.269356,-0.25621 -0.01993,-0.003 -0.03764,-0.006 -0.05725,-0.01 0.465048,-0.13342 0.894303,-0.73679 0.608849,-1.01197 -0.812208,-1.65453 -2.1169471,-0.34121 -2.1478231,0.4298 -0.149055,-0.27882 0.02088,-0.69266 0.576058,-1.36006 -0.07178,-0.0203 -0.144379,-0.0291 -0.216656,-0.0277 z m 0.573325,1.76747 c 0.03207,0.0441 0.06652,0.081 0.102798,0.11151 -0.09958,-0.0207 -0.192317,-0.0423 -0.279116,-0.0651 0.05544,-0.0121 0.113877,-0.0272 0.176318,-0.0464 z m 18.4030141,11.11881 c 0.03268,0.0353 0.06602,0.0686 0.09968,0.10085 -0.07015,-0.0261 -0.143097,-0.0492 -0.217437,-0.0705 0.04052,-0.009 0.07987,-0.0188 0.117761,-0.0303 z m 16.546148,0.41028 c -0.106506,0.46419 -0.429901,0.90926 -1.044372,1.25778 -0.0021,-0.008 -0.0039,-0.0166 -0.0068,-0.0245 0.485357,-0.56496 0.874165,-0.89326 1.051139,-1.23332 z m -1.597139,0.0612 c 0.07417,0.25603 0.140541,0.50752 0.185298,0.74093 -0.07715,-0.23423 -0.133747,-0.48635 -0.185298,-0.74093 z m -17.70451,4.73599 c -1.972975,1.03759 0.448271,3.12873 -0.01171,0.41678 l 0.04385,-0.21535 z m 10.055704,0.18087 c 0.167109,0.2195 0.316268,0.46849 0.361744,0.83279 -0.182216,-0.15344 -0.402167,-0.19257 -0.58946,-0.11216 0.183822,-0.14293 0.293188,-0.38151 0.227716,-0.72063 z m -10.354077,2.10189 c -2.041157,0.0529 -0.24475,5.03293 0.553026,1.65153 0.08317,-0.49093 0.142592,-1.48478 -0.452961,-1.65036 -0.03435,-0.002 -0.06767,-0.002 -0.100065,-10e-4 z m 5.601827,3.83448 c -0.127992,0.002 -0.291076,0.0502 -0.493818,0.16084 -1.098344,-0.2517 -3.357777,-0.14847 -0.912037,0.87664 1.162711,2.04149 2.448094,-1.05102 1.405855,-1.03748 z m 18.78623,2.95173 c -1.34162,0.0515 -3.219797,1.8473 -0.791673,0.89863 0.08655,-0.47942 0.601458,-0.53165 0.791673,-0.89863 z m -10.368262,0.0651 c -0.199557,1.42901 4.14314,0.44423 0.796226,0.27586 -0.342056,0.22746 -0.485886,-0.27475 -0.796226,-0.27586 z"
       id="path4093"
       inkscape:connector-curvature="0"
       sodipodi:nodetypes="ccccccccccccccccccccccccccccccccccccccccccccccccccccccccccccccccccccccccccccccccccccccccccccccccccccccccccccccccccccccccccccccccccccccccccccccccccccccccccccccccccccccccccccccccccccscccccccccccccsccccccccccccccccccccccccccccccccccccccccccccccccccccccccccccccc" />
    <path
       d="m 29.944449,250.01737 -8.354782,-12.57022 c -0.274887,-0.41358 -0.831309,-0.52273 -1.241501,-0.2501 -0.213573,0.14195 -0.359533,0.37092 -0.393759,0.62828 l -0.670907,5.0647 -4.59005,-2.63351 c -0.623812,-0.35762 -1.418902,-0.14197 -1.776525,0.48185 -0.357622,0.62381 -0.141974,1.4189 0.481838,1.77652 l 4.484006,2.5769 -4.003618,2.66101 c -0.413586,0.27488 -0.526133,0.83356 -0.251245,1.24714 0.14195,0.21357 0.368672,0.35615 0.622637,0.39263 l 14.775154,2.081 c 0.231385,0.0319 0.46177,-0.0186 0.655005,-0.14695 0.433924,-0.2884 0.552155,-0.8753 0.263751,-1.30922 z"
       id="path830"
       style="fill:#ffffff;fill-opacity:1;stroke:#000000;stroke-width:1.32291675;stroke-linejoin:round;stroke-miterlimit:4;stroke-dasharray:none;stroke-opacity:1"
       inkscape:connector-curvature="0"
       inkscape:transform-center-x="5.0531406"
       inkscape:transform-center-y="-4.4930427" />
  </g>
</svg>
