<?xml version="1.0" encoding="UTF-8" standalone="no"?>
<!-- Created with Inkscape (http://www.inkscape.org/) -->

<svg
   xmlns:dc="http://purl.org/dc/elements/1.1/"
   xmlns:cc="http://creativecommons.org/ns#"
   xmlns:rdf="http://www.w3.org/1999/02/22-rdf-syntax-ns#"
   xmlns:svg="http://www.w3.org/2000/svg"
   xmlns="http://www.w3.org/2000/svg"
   xmlns:sodipodi="http://sodipodi.sourceforge.net/DTD/sodipodi-0.dtd"
   xmlns:inkscape="http://www.inkscape.org/namespaces/inkscape"
   width="250"
   height="250"
   viewBox="0 0 66.145831 66.145832"
   version="1.1"
   id="svg1197"
   sodipodi:docname="ico_continentes2.svg"
   inkscape:version="0.92.3 (2405546, 2018-03-11)">
  <defs
     id="defs1191" />
  <sodipodi:namedview
     id="base"
     pagecolor="#ffffff"
     bordercolor="#666666"
     borderopacity="1.0"
     inkscape:pageopacity="0.0"
     inkscape:pageshadow="2"
     inkscape:zoom="3.0304395"
     inkscape:cx="40.883378"
     inkscape:cy="133.22514"
     inkscape:document-units="mm"
     inkscape:current-layer="g4188"
     showgrid="false"
     units="px"
     inkscape:window-width="1920"
     inkscape:window-height="1017"
     inkscape:window-x="-8"
     inkscape:window-y="-8"
     inkscape:window-maximized="1" />
  <metadata
     id="metadata1194">
    <rdf:RDF>
      <cc:Work
         rdf:about="">
        <dc:format>image/svg+xml</dc:format>
        <dc:type
           rdf:resource="http://purl.org/dc/dcmitype/StillImage" />
        <dc:title></dc:title>
      </cc:Work>
    </rdf:RDF>
  </metadata>
  <g
     inkscape:label="Capa 1"
     inkscape:groupmode="layer"
     id="layer1"
     transform="translate(0,-230.85417)" />
  <g
     id="g4188"
     transform="matrix(0.31860811,0,0,0.31860811,-2.3107992,55.121039)">
    <path
       style="fill:#ffffff;fill-opacity:1;stroke:#000000;stroke-width:4.15217512;stroke-miterlimit:4;stroke-dasharray:none;stroke-opacity:1;stroke-linejoin:round"
       d="m 92.030926,-127.58859 c -2.986951,0.21528 -11.302541,-0.0644 -8.125866,1.38809 -5.520792,0.60197 -12.601745,1.42604 -15.211177,5.68454 -3.742169,5.92038 9.247476,3.04403 8.619047,9.76488 3.613409,3.48506 -1.553346,11.29633 5.579541,13.698483 1.692872,-5.218933 10.972428,-9.896923 11.789423,-11.139883 -3.76296,-2.07015 4.414007,0.4401 0.4499,-3.84928 5.922096,-0.43901 1.131191,-4.01875 2.940626,-4.94094 0.01287,-1.55342 -0.671409,-5.57736 3.05387,-6.13762 1.76025,-3.58582 -4.904144,0.78661 -6.145148,-1.94126 -8.631814,0.72625 6.569598,-0.91041 -2.076552,-1.98819 -3.844199,0.36782 1.573422,-0.4439 -0.873664,-0.53882 z m 71.455884,10.45244 c -8.1562,-2.28842 -14.9394,8.53533 -19.37335,6.10471 -2.50002,3.2565 4.83403,5.58341 -0.26,5.74048 -3.15402,5.460074 1.25431,-12.64722 -3.41018,-3.55934 -0.50228,5.88057 -3.39245,-0.94428 -6.76009,2.06846 -5.47382,-0.10562 -7.54416,2.78345 -12.20337,4.707 -5.31882,-3.26998 8.1249,-1.43084 0.33692,-5.08599 -6.7178,-3.9444 -13.70467,-0.15632 -14.82415,4.84839 -4.15571,3.411126 -3.66812,6.758491 0.0924,7.793449 3.61073,7.264996 5.23064,-12.042199 7.17464,-6.611149 -3.4032,3.747502 3.81731,6.489603 -2.66053,9.473223 -4.8085,3.681003 -5.08977,-5.925061 -7.16996,1.414195 -3.1686,2.771976 -6.91949,3.508411 -5.280944,8.617302 -8.143549,-2.282444 -0.418406,11.5729 1.966654,2.670299 1.48659,-6.008695 5.25996,-0.509994 6.33346,-1.629307 4.66909,4.403453 2.20263,0.262477 0.91444,-2.129314 4.78057,0.921844 3.82823,9.488034 7.98226,3.651353 0.27043,-3.51349 4.43791,-5.360891 6.44302,-4.983797 7.4121,6.616556 -7.27941,0.86659 -6.09245,7.550496 6.81186,-0.394954 3.25238,9.997588 7.98349,14.482253 1.16306,10.227397 17.18863,-6.438641 6.25933,-4.927084 -4.12305,-6.756508 6.38711,1.19213 9.69015,0.326117 4.60848,2.217497 4.00468,16.119963 7.80825,6.399345 4.61117,-9.843892 10.84798,-4.689455 11.12506,1.658705 v 0 c 4.14098,4.220926 7.21822,0.09236 3.79386,-3.928665 3.46755,-3.77133 11.74071,-4.816449 8.41712,-12.046798 -0.13888,-2.401193 -2.62765,-5.197846 2.62036,-3.75482 1.00824,5.533763 2.50648,2.998496 3.00122,-0.923431 3.65215,-3.465441 9.33924,-9.226737 3.91016,-12.966075 3.23364,-4.694128 11.55274,-4.790084 16.14131,-6.460817 -4.95079,-0.07072 -6.17493,14.30062 -1.41592,6.587222 0.076,-7.096581 11.60968,-5.452351 10.75156,-10.946232 7.29805,4.952919 3.51623,-4.94227 -2.04408,-3.62791 -8.10543,0.48149 -15.18644,-5.15658 -23.26845,-3.50148 -5.28656,0.6736 -11.89655,-3.81094 -17.52219,-2.26759 3.93099,-1.91504 4.63854,-3.93925 -0.45997,-4.7432 z m 3.42496,3.096 c -1.33673,1.00539 1.95426,0.7216 0,0 z m -112.169973,0.92353 c -2.468152,2.63178 1.085529,10.89677 -6.167324,7.14351 -5.740487,1.57068 -12.437349,-3.91189 -17.556688,-1.61853 -0.943674,0.16302 -2.177321,0.0604 -3.556491,-0.1585 -5.960629,-0.94598 -14.639424,-4.06341 -14.37511,2.70838 1.824102,1.40072 -5.5010272,3.27312 0.8571,3.39263 -5.4287024,2.78838 6.482742,7.774823 -0.290467,9.835823 4.414066,-1.540157 5.795351,-7.042908 10.147184,-5.408812 8.485501,1.364096 12.391909,8.945504 12.648195,17.296645 0.73557,5.063108 5.363752,9.08346 7.620025,13.053556 -3.251592,-10.113664 4.765601,8.199028 10.673769,6.39367 2.197666,2.836832 12.607793,7.323981 5.907865,3.41324 -0.07678,-3.843374 -3.2014,-3.962747 -3.512269,-7.342464 -8.428186,5.836239 -4.66379,-11.524193 3.076732,-6.418933 2.137762,6.533947 1.895723,-4.445902 4.176576,-5.669771 0.8564,-6.773189 12.489699,-4.757698 4.963642,-10.160255 5.042174,1.432543 8.299495,-4.072454 3.612289,-7.86529 -0.834719,-3.552541 -5.277203,0.657702 -6.037784,-3.966081 -6.248049,-4.029868 -0.929064,14.923196 -6.945143,6.899398 -7.808917,-1.87273 -6.552456,-9.160416 0.06992,-12.028536 2.746008,-3.86553 -0.197373,-3.15579 -2.791076,-2.50534 -4.300904,-2.11089 -0.685804,-5.18089 -2.52095,-6.99434 z m 127.011393,21.147722 c -0.90411,0.518478 0.94999,0.683236 0,0 z m -51.46034,5.734586 c -0.0587,2.696158 1.68036,6.552789 1.35617,9.639335 -3.99252,-0.71166 -4.59138,-5.971561 -1.35617,-9.639335 z m -26.35465,10.083144 c -8.450832,-1.274649 -13.455001,9.001834 -13.152966,16.409144 -0.04291,11.236031 16.097906,0.777588 16.322556,11.374722 2.22238,6.776798 -1.17401,23.662434 9.20909,21.939089 5.43618,-6.506198 7.4782,-13.585139 8.31256,-21.252999 1.76118,-4.103266 9.66306,-9.401003 1.67101,-10.625045 -6.6646,-4.230708 -2.70554,-17.289515 -13.77703,-13.938682 -4.69208,1.255609 -4.30312,-4.445117 -8.58522,-3.906229 z m 16.25573,0.979811 0.28321,0.299043 z m 0.40106,0.218128 0.0263,0.109061 z m -0.66669,0.311356 0.14777,0.02638 z m -51.562372,16.996352 c -8.115123,2.363188 -7.298482,14.014273 -1.844218,19.547813 4.006452,7.759617 -1.296488,15.991934 -1.119845,23.797891 -1.855702,2.179643 3.958626,6.5250491 4.419916,0.271728 -0.156115,-5.185734 5.568735,-9.455846 5.817707,-11.494555 5.025017,-3.077952 9.65745,-11.078288 12.444652,-17.247921 2.077793,-8.477349 -10.847931,-2.740282 -9.494397,-10.586273 -3.337845,-1.532658 -6.463933,-3.942021 -10.223815,-4.288683 z m 112.342352,9.8333 c -0.0232,7.280291 -3.7214,0.198765 -6.28415,0.893124 -5.53395,3.109413 -14.23393,8.180674 -9.11287,15.546219 5.53104,-0.413895 11.65054,-3.084303 15.17589,3.173883 9.92001,0.940569 7.15137,-13.599063 1.51347,-17.330315 l -0.68697,-1.600729 z"
       id="Europa"
       inkscape:connector-curvature="0"
       sodipodi:nodetypes="cccccccccccccccccccccccccccccccccccccccccccccccccccccccscccccccccccccccccccccccccccccccccccccccccccccccccccccccc" />
    <path
       d="m 169.25183,-19.349616 -15.01289,44.931357 c -0.49396,1.478322 -2.09035,2.264997 -3.55656,1.775091 -0.7634,-0.255068 -1.39325,-0.829211 -1.70784,-1.580893 L 142.79167,10.98069 131.04272,22.720889 c -1.59698,1.594693 -4.18265,1.59284 -5.77734,-0.0041 -1.59471,-1.596973 -1.59285,-4.182641 0.004,-5.777334 L 136.74342,5.4576251 122.43276,0.67600309 c -1.47833,-0.493938 -2.27712,-2.09439389 -1.78317,-3.57272439 0.25508,-0.7633981 0.82517,-1.3811233 1.56475,-1.6997619 l 43.06048,-18.4122248 c 0.6749,-0.286371 1.41427,-0.322198 2.10496,-0.09142 1.55103,0.518239 2.39016,2.199526 1.87192,3.750557 z"
       id="path830"
       style="fill:#ffffff;fill-opacity:1;stroke:#000000;stroke-width:4.15217512;stroke-miterlimit:4;stroke-dasharray:none;stroke-opacity:1;stroke-linejoin:round"
       inkscape:connector-curvature="0"
       inkscape:transform-center-x="4.7223604"
       inkscape:transform-center-y="4.7211449" />
  </g>
</svg>
