<?xml version="1.0" encoding="UTF-8" standalone="no"?>
<!-- Created with Inkscape (http://www.inkscape.org/) -->

<svg
   xmlns:dc="http://purl.org/dc/elements/1.1/"
   xmlns:cc="http://creativecommons.org/ns#"
   xmlns:rdf="http://www.w3.org/1999/02/22-rdf-syntax-ns#"
   xmlns:svg="http://www.w3.org/2000/svg"
   xmlns="http://www.w3.org/2000/svg"
   xmlns:sodipodi="http://sodipodi.sourceforge.net/DTD/sodipodi-0.dtd"
   xmlns:inkscape="http://www.inkscape.org/namespaces/inkscape"
   width="250"
   height="250"
   viewBox="0 0 66.145832 66.145832"
   version="1.1"
   id="svg4976"
   inkscape:version="0.92.3 (2405546, 2018-03-11)"
   sodipodi:docname="ico_espana.svg">
  <defs
     id="defs4970" />
  <sodipodi:namedview
     id="base"
     pagecolor="#ffffff"
     bordercolor="#666666"
     borderopacity="1.0"
     inkscape:pageopacity="0.0"
     inkscape:pageshadow="2"
     inkscape:zoom="3"
     inkscape:cx="181.49806"
     inkscape:cy="122.13225"
     inkscape:document-units="mm"
     inkscape:current-layer="g5676"
     showgrid="false"
     units="px"
     inkscape:window-width="1920"
     inkscape:window-height="1017"
     inkscape:window-x="1912"
     inkscape:window-y="-8"
     inkscape:window-maximized="1" />
  <metadata
     id="metadata4973">
    <rdf:RDF>
      <cc:Work
         rdf:about="">
        <dc:format>image/svg+xml</dc:format>
        <dc:type
           rdf:resource="http://purl.org/dc/dcmitype/StillImage" />
        <dc:title />
      </cc:Work>
    </rdf:RDF>
  </metadata>
  <g
     inkscape:label="Capa 1"
     inkscape:groupmode="layer"
     id="layer1"
     transform="translate(0,-230.85418)">
    <g
       id="g5635"
       transform="matrix(0.43745529,0,0,0.43745529,-19.896875,183.31656)"
       style="stroke:#000000;stroke-opacity:1">
      <g
         id="g5671"
         transform="translate(-4.5302086,-9.7731661)">
        <g
           id="g5676"
           transform="translate(-0.79611585,-6.653075)">
          <g
             id="g821"
             transform="translate(-0.46532266,0.02408028)">
            <path
               sodipodi:nodetypes="ccccccccccccccccccccccccccccccc"
               inkscape:connector-curvature="0"
               id="Madrid"
               d="m 72.943591,135.98679 c -3.81896,0.42152 -6.21818,4.10521 -6.442631,5.56642 -4.479142,-1.08782 -13.473601,5.42918 -6.634002,8.68786 -3.735329,3.57425 4.327894,0.63163 0.888328,3.86081 2.92116,2.55864 0.706144,2.77675 0.09545,6.56396 2.792029,0.87661 7.606263,-3.85789 7.644481,2.23932 5.917463,1.36627 14.202683,-5.62027 17.162611,2.41555 3.635753,5.25162 -9.141414,8.87943 -4.105543,15.4545 -1.431322,4.80334 0.314163,11.56085 -5.99517,11.62408 0.16407,4.27069 6.468674,7.87194 1.940105,12.98752 -3.092875,4.69935 5.801106,5.8878 0.146023,8.95816 -4.708305,4.45339 -2.409757,11.92201 4.411705,10.5842 7.088673,2.63036 3.285711,13.8352 12.975803,13.62236 5.916069,-7.69177 16.557799,-9.27791 26.072039,-8.38428 5.47504,1.00732 15.08434,-3.36066 11.71285,-9.31869 5.61678,1.34445 12.20935,-3.91026 10.07481,-6.25984 3.03829,-3.20016 6.9969,-8.40456 8.74022,-10.91422 -5.39166,-6.46046 -3.63682,-13.72192 2.27294,-18.89164 2.63206,-4.81367 4.94025,-6.06266 7.53271,-10.45819 6.80615,-3.34048 14.54942,-5.04148 20.35829,-10.23007 5.28735,-5.67673 0.97069,-12.01951 -6.10373,-8.36102 -6.7145,2.27195 -12.42165,-7.95346 -17.40516,-5.33816 -5.25632,2.88164 -13.8148,-1.61244 -19.37178,-4.10045 -2.4823,-2.72646 -5.58388,-4.74042 -8.46212,-0.23318 6.94862,-6.90243 -7.22454,-2.5941 -10.69993,-4.57574 -7.33273,-2.79334 -14.18595,1.94725 -21.040883,-1.63603 -7.634188,-3.18087 -16.083279,1.68084 -23.383731,-2.18947 -0.837578,-0.4934 -1.627024,-1.06466 -2.383683,-1.67376 z m 70.601469,80.98426 c -0.35965,2.15489 0.89762,0.94125 0,0 z"
               style="fill:#ffffff;fill-opacity:1;stroke:#010000;stroke-width:3.02411866;stroke-linejoin:round;stroke-miterlimit:4;stroke-dasharray:none;stroke-opacity:1" />
            <path
               sodipodi:nodetypes="ccccccc"
               inkscape:connector-curvature="0"
               id="path5666"
               d="m 196.14536,237.42902 -5.21677,0.0716 -27.61785,0.37899 -11.2401,0.15424 -23.83682,27.32665 68.13667,-0.14824 z"
               style="fill:#ffffff;fill-opacity:1;stroke:#000000;stroke-width:3.02411866;stroke-linecap:butt;stroke-linejoin:round;stroke-miterlimit:4;stroke-dasharray:none;stroke-opacity:1" />
            <path
               transform="matrix(0.60482371,0,0,0.60482371,45.48322,108.66852)"
               sodipodi:nodetypes="ccccccccccccccccccccccccccccccccc"
               inkscape:connector-curvature="0"
               id="Navarresa"
               d="m 241.17383,125.51758 c -4.52681,0.25119 1.74944,9.21912 5.51758,3.88281 -1.08119,-0.72758 -1.01005,-2.19555 -1.95313,-3.04101 -1.30362,-0.53474 -2.31942,-0.79041 -3.0918,-0.83985 -0.16895,-0.0108 -0.32663,-0.0101 -0.47265,-0.002 z m -16.03516,3.72851 c -4.52431,-0.16808 -13.27735,6.76244 -10.14258,8.96094 3.29109,6.17278 19.35258,5.92463 14.94141,-5.56836 l -0.96484,0.77344 h -1.42969 c 0.49012,-2.94849 -0.63391,-4.10024 -2.4043,-4.16602 z m -27.27929,19.22266 c -11.18634,0.3249 -1.40613,12.13245 1.15039,0.006 -0.40543,-0.0146 -0.78955,-0.0164 -1.15039,-0.006 z m 37.5957,74.27734 c -1.72687,-0.0914 -0.56779,1.44753 -0.0586,1.28125 l -0.26367,0.73633 -0.90429,0.81055 c -13.27564,4.94291 5.15443,7.28806 1.35351,-1.85156 0.0321,-0.2036 0.008,-0.50726 -0.12695,-0.97657 z m -8.57422,11.06641 c -2.00018,2.72433 -2.31643,6.20773 -3.86914,9.14844 -12.43237,10.97726 16.25954,-4.21727 3.86914,-9.14844 z m -39.99609,3.45117 c -0.59483,0.011 -1.8698,0.51747 -4.1875,1.72071 -10.14154,-2.53731 -5.58646,14.78296 0.78906,6.5957 l 0.13086,-0.50196 c 0.71023,-3.42353 5.05204,-7.84741 3.26758,-7.81445 z m 13.54101,8.12305 c -0.55731,-0.007 -1.1887,0.15175 -1.77734,0.45508 -11.92583,0.048 4.72884,14.19207 3.16601,2.14453 0.70824,-1.77878 -0.16259,-2.58496 -1.38867,-2.59961 z"
               style="fill:none;stroke:#000000;stroke-width:5;stroke-linejoin:round;stroke-miterlimit:4;stroke-dasharray:none;stroke-opacity:1" />
          </g>
        </g>
      </g>
    </g>
  </g>
</svg>
