<?xml version="1.0" encoding="UTF-8" standalone="no"?>
<!-- Created with Inkscape (http://www.inkscape.org/) -->

<svg
   xmlns:dc="http://purl.org/dc/elements/1.1/"
   xmlns:cc="http://creativecommons.org/ns#"
   xmlns:rdf="http://www.w3.org/1999/02/22-rdf-syntax-ns#"
   xmlns:svg="http://www.w3.org/2000/svg"
   xmlns="http://www.w3.org/2000/svg"
   xmlns:sodipodi="http://sodipodi.sourceforge.net/DTD/sodipodi-0.dtd"
   xmlns:inkscape="http://www.inkscape.org/namespaces/inkscape"
   width="250"
   height="250"
   viewBox="0 0 66.145833 66.145833"
   version="1.1"
   id="svg8"
   inkscape:version="0.92.3 (2405546, 2018-03-11)"
   sodipodi:docname="ico_baleares.svg">
  <defs
     id="defs2" />
  <sodipodi:namedview
     id="base"
     pagecolor="#ffffff"
     bordercolor="#666666"
     borderopacity="1.0"
     inkscape:pageopacity="0.0"
     inkscape:pageshadow="2"
     inkscape:zoom="3"
     inkscape:cx="155.8761"
     inkscape:cy="140.6554"
     inkscape:document-units="mm"
     inkscape:current-layer="g4370"
     showgrid="false"
     units="px"
     inkscape:window-width="1920"
     inkscape:window-height="1017"
     inkscape:window-x="1912"
     inkscape:window-y="-8"
     inkscape:window-maximized="1" />
  <metadata
     id="metadata5">
    <rdf:RDF>
      <cc:Work
         rdf:about="">
        <dc:format>image/svg+xml</dc:format>
        <dc:type
           rdf:resource="http://purl.org/dc/dcmitype/StillImage" />
        <dc:title />
      </cc:Work>
    </rdf:RDF>
  </metadata>
  <g
     inkscape:label="Capa 1"
     inkscape:groupmode="layer"
     id="layer1"
     transform="translate(0,-230.85417)">
    <g
       id="g2344"
       transform="matrix(0.02645833,0,0,-0.02645833,-74.66861,304.15435)">
      <g
         id="g2925"
         transform="translate(-600.00002,-5.2371958e-6)">
        <g
           id="g2939"
           transform="matrix(0.34344686,0,0,0.34344686,1711.1777,-372.52866)"
           style="stroke-width:87.34976869;stroke-miterlimit:4;stroke-dasharray:none;fill:#ffffff;fill-opacity:1">
          <g
             id="g4370"
             transform="translate(-7.5767899,-3.8854056)">
            <path
               style="fill:#ffffff;fill-opacity:1;stroke:#000300;stroke-width:145.58294782;stroke-miterlimit:4;stroke-dasharray:none;stroke-opacity:1;stroke-linejoin:round"
               d="m 11027,8304 c -306.717,-335.0916 -911.357,-143.3118 -746.148,-134.4223 -121.743,238.9433 -999.1427,-1291.2395 -188.962,-382.2466 -35.776,-523.3109 597.884,-12.3541 830.323,-339.6003 258.23,-117.2627 620.778,-612.8515 881.411,-293.9357 37.403,171.8559 -219.591,294.893 49.895,166.0975 -123.808,333.928 -305.262,633.4389 -551.382,910.7171 -81.516,0.9434 -164.186,-284.9098 -115.887,-45.3597 -160.258,-166.8067 -82.146,45.3952 -159.25,118.75 z"
               id="Menorca"
               inkscape:connector-curvature="0" />
            <path
               style="fill:#ffffff;fill-opacity:1;stroke:#000300;stroke-width:145.58294782;stroke-miterlimit:4;stroke-dasharray:none;stroke-opacity:1;stroke-linejoin:round"
               d="m 8941,7704 c -240.6978,-207.2013 -876.7305,-366.0932 -710.7203,-211.2793 -273.505,-116.3902 -538.1614,-250.6187 -803.9944,-400.3656 -291.2117,-176.771 -448.3622,-522.1924 -781.6252,-640.6405 -191.6603,-214.0887 -815.5854,-373.218 -476.3007,-706.574 232.1788,-35.9588 327.9775,18.1083 342.9824,-261.7719 270.6605,-233.1161 166.44,335.1891 416.2447,292.38 256.6077,241.4017 655.6199,-95.3865 501.1834,-374.4278 -47.1619,-420.5615 350.6185,-501.3082 682.8442,-463.7313 250.7722,41.9948 381.8013,-650.9952 608.4171,-288.6677 275.3571,189.7951 619.2781,346.3335 640.4288,731.0647 53.7293,342.3108 460.8528,462.7107 427.2188,805.0591 231.6482,-22.0574 96.6494,521.8771 144.8925,525.7487 -150.4528,108.0549 -382.6135,298.498 -466.4691,26.5668 -282.5534,-277.4385 -953.0293,347.9442 -483.282,423.4509 190.8601,178.1976 12.9309,322.445 -131.164,107.9431 -352.0801,-38.112 360.3759,294.8193 140.4208,318.4423 162.2583,61.3875 93.8318,168.9586 -51.077,116.8025 z"
               id="Mallorca"
               inkscape:connector-curvature="0" />
            <path
               style="fill:#ffffff;fill-opacity:1;stroke:#000300;stroke-width:145.58294782;stroke-miterlimit:4;stroke-dasharray:none;stroke-opacity:1;stroke-linejoin:round"
               d="m 6490,4827 c -234.3652,-146.5368 -841.2661,-230.7875 -653.1929,-247.4974 -304.3745,-80.3768 67.4457,-527.6483 -342.0164,-426.3956 -254.3199,-174.1694 -88.6682,-498.5595 184.781,-389.7306 C 5828.1057,3708.9959 6169.7711,3188.4822 6000,3530 c 248.8215,-55.4487 238.636,427.9494 305.0514,377.2387 240.3716,150.7895 514.2647,372.0612 518.8358,636.6282 C 6795.3902,4674.9742 6679.4566,4976.2703 6490,4827 Z"
               id="Eivissa"
               inkscape:connector-curvature="0"
               sodipodi:nodetypes="cccccccc" />
            <path
               style="fill:#ffffff;fill-opacity:1;stroke:#000300;stroke-width:145.58294782;stroke-miterlimit:4;stroke-dasharray:none;stroke-opacity:1;stroke-linejoin:round"
               d="m 6206,3183 c -241.3622,-66.8848 -275.6371,-705.7651 15.2961,-367.5004 162.4,168.0047 468.9538,-337.3527 500.2955,31.2066 C 6475.1173,2784.004 6354.2929,2974.642 6206,3183 Z"
               id="Formentera"
               inkscape:connector-curvature="0" />
          </g>
        </g>
      </g>
    </g>
  </g>
</svg>
