<svg xmlns="http://www.w3.org/2000/svg" width="500" height="500" fill="none" xmlns:v="https://vecta.io/nano"><g stroke="#000"><path d="M337 344.267c0 32.699-11.54 56.019-27.791 71.188C292.868 430.708 271.461 438 251.363 438c-20.118 0-42.241-7.307-59.279-22.609C175.154 400.186 163 376.875 163 344.267c0-32.753 12.277-63.513 29.699-86.053C210.258 235.496 232.302 222 251.363 222c19.015 0 40.367 13.445 57.245 36.14C325.357 280.66 337 311.443 337 344.267z" fill="#fff" stroke-width="10"/><use href="#B" fill="#000" stroke-width="4"/><g stroke-width="10"><use href="#C"/><use href="#D"/><use href="#E"/></g><use href="#B" fill="#000" stroke-width="4"/><g stroke-width="10"><use href="#C"/><use href="#D"/><use href="#E"/><path d="M451.247 443.115h-395.5l13.5-13s-33.075-21.329-39.501-31.5c-9.178-14.526-8.071-44.456 8.5-49 23.443-6.428 55.178 7.446 69.257 14.592-9.428-5.373-25.289-15.472-30.257-25.092-9.052-17.526 13.275-35.5 33-35.5 11.102 0 37.153 13.777 48.753 20.234-11.451-6.892-35.961-23.731-35.253-41.234 1.202-29.695 40.236-36.178 69.5-31 32.558 5.761 56 63.5 56 63.5s-9.481-28.125-5-40c11.42-30.268 73.573-24.671 94.5 0 10.514 12.395 4.5 40 4.5 40s5.256-23.773 16.5-32.5c25.584-19.857 67.17 19.187 65 51.5-.989 14.726-16.5 34-16.5 34s21.069-14.428 35.5-12c26.975 4.539 43.306 49.345 22 66.5-9.701 7.812-31 7.5-31 7.5l16.5 13z" fill="#fff"/></g></g><defs ><path id="B" d="M175.753 344.063c0 4.302-3.514 7.811-7.876 7.811S160 348.365 160 344.063s3.514-7.811 7.877-7.811 7.876 3.51 7.876 7.811zm24.266 15.371c0 4.302-3.514 7.811-7.877 7.811s-7.876-3.509-7.876-7.811 3.514-7.811 7.876-7.811 7.877 3.509 7.877 7.811zm27.344 7.495c0 4.302-3.514 7.811-7.877 7.811s-7.876-3.509-7.876-7.811 3.513-7.811 7.876-7.811 7.877 3.509 7.877 7.811zm29.503 5.26c0 4.301-3.514 7.811-7.877 7.811s-7.876-3.51-7.876-7.811 3.513-7.812 7.876-7.812 7.877 3.51 7.877 7.812zm26.855-5.26c0 4.302-3.514 7.811-7.876 7.811s-7.877-3.509-7.877-7.811 3.514-7.811 7.877-7.811 7.876 3.509 7.876 7.811zm26.803-9.811c0 4.301-3.514 7.811-7.876 7.811s-7.877-3.51-7.877-7.811 3.514-7.812 7.877-7.812 7.876 3.51 7.876 7.812zM335 339.811c0 4.302-3.514 7.812-7.877 7.812s-7.876-3.51-7.876-7.812 3.514-7.811 7.876-7.811 7.877 3.51 7.877 7.811z"/><path id="C" d="M162.963 308.465c7.881 1.576 13.744-14.165 21.443-15.139 8.989-1.136 2.292 25.165 11.349 24.906 8.79-.251 13.043-26.104 21.754-24.906 7.263 1 1.842 36.836 9.142 37.517 7.977.744 10.243-39.628 17.971-37.517 6.232 1.703 7.1 41.978 12.926 44.773 9.239 4.432 7.231-48.738 17.024-45.719 7.605 2.345 12.556 27.349 20.177 29.64 10.072 3.029 3.043-29.306 13.556-29.64 10.444-.33 16.704 20.813 29.945 17.976"/><path id="D" d="M167.035 388.499c15.803-6.773 45.473 32.573 88.045 32.573s61.599-43.861 79.982-35.798"/><path id="E" d="M196.032 247.024c9.452 7.211 29.077 18.558 56.295 18.563s42.75-14.34 51.709-21.399"/></defs></svg>