<svg xmlns="http://www.w3.org/2000/svg" width="500" height="500" fill="none" xmlns:v="https://vecta.io/nano"><style><![CDATA[.B{fill:#fff}.C{stroke:#000}.D{fill:#000}.E{stroke-width:10}.F{stroke-width:5}.G{stroke-opacity:.2}.H{stroke-linecap:round}]]></style><g class="B C E"><path d="M306 389.134c0 26.791-9.447 45.818-22.682 58.172-13.324 12.437-30.79 18.39-47.192 18.39-16.422 0-34.486-5.968-48.389-18.455C173.943 434.852 164 415.834 164 389.134c0-26.846 10.066-52.072 24.352-70.556C202.776 299.917 220.761 289 236.126 289c15.319 0 32.73 10.865 46.592 29.504C296.449 336.968 306 362.217 306 389.134z"/><path d="M255.832 295.19c-.055-.318-.129-.632-.221-.939l.914.487a7.83 7.83 0 0 0-.693.452zm-88.391 107.391c-.35-2.01-1.45-3.857-3.102-5.085l-.335-7.436.029-.771c3.225.52 6.294-1.041 7.924-3.652 1.581 1.975 4.044 3.123 6.592 2.989-.498 2.651.38 5.419 2.289 7.277-2.796.925-4.708 3.285-5.255 5.984-2.616-1.299-5.762-1.042-8.142.694z"/></g><mask id="A" class="B"><path d="M163.164 358.385a124.58 124.58 0 0 1 9.632-24.652c.111.715-.042 1.492-.564 2.211l-1.465 2.016c-1.329 1.83-.238 4.442 1.977 4.732l3.328.435c3.335.436 3.429 5.328.114 5.897l-6.544 1.123c-1.862.319-2.943 2.328-2.207 4.101l.28.675c1.188 2.863-2.174 5.437-4.537 3.473l-.014-.011z"/></mask><path d="M163.164 358.385a124.58 124.58 0 0 1 9.632-24.652c.111.715-.042 1.492-.564 2.211l-1.465 2.016c-1.329 1.83-.238 4.442 1.977 4.732l3.328.435c3.335.436 3.429 5.328.114 5.897l-6.544 1.123c-1.862.319-2.943 2.328-2.207 4.101l.28.675c1.188 2.863-2.174 5.437-4.537 3.473l-.014-.011z" class="B"/><path d="M163.164 358.385l-9.649-2.624-1.687 6.205 4.945 4.11 6.391-7.691zm9.632-24.652l9.881-1.535-4.688-30.179-14.069 27.108 8.876 4.606zm-.564 2.211l8.09 5.878h0l-8.09-5.878zm-1.465 2.016l-8.09-5.878h0l8.09 5.878zm1.977 4.732l1.296-9.916h0l-1.296 9.916zm3.328.435l-1.296 9.916h0l1.296-9.916zm.114 5.897l-1.692-9.856h0l1.692 9.856zm-6.544 1.123l1.691 9.856h0l-1.691-9.856zm-2.207 4.101l-9.236 3.834h0l9.236-3.834zm.28.675l9.236-3.833h0l-9.236 3.833zm-4.537 3.473l6.392-7.691h-.001l-6.391 7.691zm9.636 2.612a114.61 114.61 0 0 1 8.857-22.668l-17.751-9.213a134.55 134.55 0 0 0-10.405 26.634l19.299 5.247zm-9.9-25.74c-.29-1.868.181-3.761 1.228-5.202l16.18 11.756c2.092-2.879 2.867-6.327 2.355-9.624l-19.763 3.07zm1.228-5.202l-1.465 2.016 16.18 11.756 1.465-2.016-16.18-11.756zm-1.465 2.016c-5.626 7.743-1.239 19.217 8.77 20.525l2.593-19.831c5.58.73 7.785 6.978 4.817 11.062l-16.18-11.756zm8.77 20.525l3.329.436 2.593-19.831-3.329-.436-2.593 19.831zm3.329.436c-1.708-.224-3.406-1.134-4.601-2.618-1.097-1.362-1.525-2.887-1.551-4.207-.051-2.658 1.787-6.35 5.87-7.05l3.383 19.711c14.553-2.497 14.266-23.735-.508-25.667l-2.593 19.831zm-.282-13.875l-6.544 1.123 3.383 19.712 6.544-1.124-3.383-19.711zm-6.544 1.123c-8.4 1.441-12.863 10.293-9.751 17.791l18.472-7.667c1.64 3.952-.661 8.785-5.338 9.588l-3.383-19.712zm-9.751 17.791l.28.674 18.472-7.666-.28-.675-18.472 7.667zm.28.674c-1.34-3.229.033-6.552 2.221-8.227 2.222-1.702 6.003-2.206 8.87.176l-12.784 15.382c5.23 4.346 11.873 3.536 16.07.323 4.164-3.187 6.624-9.229 4.095-15.32l-18.472 7.666zm11.09-8.051l-.013-.011-12.783 15.382.014.011 12.782-15.382z" mask="url(#A)" class="D"/><mask id="B" class="B"><path d="M218.269 468.563c-9.537-2.276-18.989-6.393-27.449-12.448 1.773.561 3.613-.692 3.774-2.591l.46-5.425c.296-3.491 5.229-3.689 5.794-.233l.839 5.134c.338 2.07 2.613 3.145 4.38 2.07l1.973-1.2c2.743-1.669 5.747 1.717 3.845 4.334l-1.465 2.017c-1.329 1.829-.238 4.442 1.977 4.731l3.328.435c1.782.233 2.638 1.738 2.544 3.176z"/></mask><path d="M218.269 468.563c-9.537-2.276-18.989-6.393-27.449-12.448 1.773.561 3.613-.692 3.774-2.591l.46-5.425c.296-3.491 5.229-3.689 5.794-.233l.839 5.134c.338 2.07 2.613 3.145 4.38 2.07l1.973-1.2c2.743-1.669 5.747 1.717 3.845 4.334l-1.465 2.017c-1.329 1.829-.238 4.442 1.977 4.731l3.328.435c1.782.233 2.638 1.738 2.544 3.176z" class="B"/><path d="M218.269 468.563l-2.32 9.727 11.525 2.75.774-11.825-9.979-.652zm-27.449-12.448l3.013-9.535L185 464.247l5.82-8.132zm3.774-2.591l-9.964-.845h0l9.964.845zm.46-5.425l9.964.845h0l-9.964-.845zm5.794-.233l9.869-1.613h0l-9.869 1.613zm.839 5.134l-9.869 1.613h0l9.869-1.613zm4.38 2.07l5.198 8.543h0l-5.198-8.543zm1.973-1.2l-5.198-8.543h0l5.198 8.543zm3.845 4.334l8.09 5.878h0l-8.09-5.878zm-1.465 2.017l-8.09-5.878h0l8.09 5.878zm1.977 4.731l1.296-9.915h0l-1.296 9.915zm3.328.435l1.297-9.915h0l-1.297 9.915zm4.865-6.551c-8.357-1.994-16.605-5.596-23.95-10.853L185 464.247c9.575 6.853 20.23 11.485 30.949 14.043l4.641-19.454zm-32.784 6.814c8.092 2.558 16.068-3.214 16.752-11.281l-19.928-1.69c.361-4.268 4.657-7.536 9.203-6.099l-6.027 19.07zm16.752-11.281l.46-5.425-19.928-1.69-.46 5.425 19.928 1.69zm.46-5.425c-.685 8.084-12.677 8.872-14.039.535l19.738-3.226c-2.492-15.249-24.35-14.064-25.627 1.001l19.928 1.69zm-14.039.535l.839 5.134 19.738-3.226-.839-5.134-19.738 3.226zm.839 5.134c1.442 8.824 11.41 13.89 19.447 9l-10.396-17.086c4.503-2.74 9.922.177 10.687 4.86l-19.738 3.226zm19.447 9l1.973-1.201-10.396-17.085-1.973 1.2 10.396 17.086zm1.973-1.201c-3.372 2.052-7.162.743-9.015-1.347-1.821-2.053-2.606-5.741-.428-8.738l16.18 11.755c4.08-5.614 2.744-12.305-.79-16.288-3.565-4.02-10.228-6.188-16.343-2.467l10.396 17.085zm-9.443-10.085l-1.465 2.016 16.18 11.755 1.465-2.016-16.18-11.755zm-1.465 2.016c-5.626 7.743-1.239 19.216 8.77 20.525l2.593-19.831c5.58.729 7.785 6.977 4.817 11.061l-16.18-11.755zm8.77 20.525l3.329.435 2.593-19.831-3.329-.435-2.593 19.831zm3.329.435c-1.85-.242-3.64-1.279-4.818-2.901-1.066-1.467-1.412-3.089-1.32-4.492l19.957 1.305c.365-5.582-3.177-12.691-11.226-13.743l-2.593 19.831z" mask="url(#B)" class="D"/><path d="M270.906 456.447c-2.566 1.47-5.208 2.761-7.9 3.876-.029-.518-.107-1.035-.236-1.544 2.747-.007 5.249-1.483 6.666-3.751.43.537.925 1.013 1.47 1.419zm11.118-138.866c4.954 6.514 9.4 13.922 13.078 21.994-3.555-2.808-8.59-2.416-11.704.89l-1.454 1.544c1.178-4.96-1.777-10.694-7.57-11.317 5.247-2.44 6.609-8.995 3.659-13.463 1.355.454 2.712.547 3.991.352zM306 389.134l-.055 3.51c-2.39 1.58-4.041 4.252-3.909 7.263l-.671-.49c-3.413-2.496-8.265-2.321-11.467.517l3.317 3.742-3.317-3.742-1.739 1.541c.319-1.978-.121-3.966-1.129-5.605-1.098-1.787-2.822-3.115-4.859-3.758 3.083-2.348 4.344-6.54 2.667-10.107 4.413.945 9.66-1.47 10.712-6.535 1.448 4.443 6.076 6.418 10.172 5.691a114.6 114.6 0 0 1 .278 7.973zm-96.697-90.671c2.213 1.019 4.847 1.145 7.324-.067-1.878 2.812-2.007 6.16-.958 8.871 1.052 2.722 3.501 5.253 7.099 5.761l.645.091-5.054.937c-5.325.988-7.976 6.133-7.254 10.775l-.575-.517c-3.635-3.263-9.038-2.933-12.298.615l-1.909 2.077a9.72 9.72 0 0 0-.536-7.395c-.931-1.86-2.558-3.538-4.722-4.401 5.678-6.767 11.878-12.434 18.238-16.747zm17.908 13.952h0z" class="B C E"/><mask id="C" class="B"><path d="M306.576 419.191c-3.464 10.793-8.782 19.806-15.299 27.118l-.077-.003c-3.131-.127-3.897-4.511-1.001-5.733l2.362-.997c1.925-.812 2.423-3.358.951-4.861l-1.016-1.037c-2.183-2.229.077-5.939 3.004-4.93l2.637.909c1.795.618 3.684-.642 3.848-2.568l.46-5.424c.198-2.339 2.478-3.2 4.131-2.474z"/></mask><path d="M306.576 419.191c-3.464 10.793-8.782 19.806-15.299 27.118l-.077-.003c-3.131-.127-3.897-4.511-1.001-5.733l2.362-.997c1.925-.812 2.423-3.358.951-4.861l-1.016-1.037c-2.183-2.229.077-5.939 3.004-4.93l2.637.909c1.795.618 3.684-.642 3.848-2.568l.46-5.424c.198-2.339 2.478-3.2 4.131-2.474z" class="B"/><path d="M306.576 419.191l9.522 3.056 2.756-8.586-8.256-3.626-4.022 9.156zm-15.299 27.118l-.406 9.992 4.724.192 3.146-3.53-7.464-6.654zm-.077-.003l-.405 9.992h0l.405-9.992zm-1.001-5.733l-3.887-9.214h0l3.887 9.214zm2.362-.997l3.888 9.214h0l-3.888-9.214zm.951-4.861l7.144-6.997h0l-7.144 6.997zm-1.016-1.037l7.145-6.996h0l-7.145 6.996zm3.004-4.93l3.258-9.455h0l-3.258 9.455zm2.637.909l3.259-9.455h0l-3.259 9.455zm3.848-2.568l9.964.845h0l-9.964-.845zm.46-5.424l-9.965-.845h0l9.965.845zm-5.39-5.53c-3.041 9.473-7.662 17.259-13.243 23.52l14.929 13.308c7.455-8.362 13.469-18.604 17.357-30.716l-19.043-6.112zm-5.373 20.182l-.076-.003-.811 19.984.076.003.811-19.984zm-.076-.003c3.892.158 6.233 3.232 6.684 5.816.449 2.571-.693 6.175-4.203 7.656l-7.775-18.427c-12.371 5.22-9.72 24.362 4.483 24.939l.811-19.984zm2.481 13.472l2.362-.996-7.775-18.427-2.362.996 7.775 18.427zm2.362-.996c8.537-3.602 10.528-14.617 4.207-21.072l-14.289 13.994c-3.377-3.449-2.381-9.371 2.307-11.349l7.775 18.427zm4.207-21.072l-1.015-1.036-14.289 13.993 1.015 1.037 14.289-13.994zm-1.015-1.036c2.541 2.594 2.366 6.245.981 8.518-1.404 2.305-4.739 4.257-8.381 3.002l6.517-18.909c-6.568-2.264-12.497 1.039-15.217 5.504-2.7 4.433-2.914 11.054 1.811 15.878l14.289-13.993zm-7.4 11.52l2.638.909 6.517-18.909-2.638-.909-6.517 18.909zm2.638.909c8.185 2.821 16.377-3.004 17.07-11.177l-19.929-1.69c.367-4.321 4.781-7.625 9.376-6.042l-6.517 18.909zm17.07-11.177l.46-5.424-19.929-1.69-.46 5.424 19.929 1.69zm.46-5.424c-.195 2.299-1.638 4.5-3.83 5.64-1.874.975-4.066 1.057-6.024.197l8.043-18.312a13.06 13.06 0 0 0-11.247.372c-3.795 1.973-6.477 5.774-6.871 10.413l19.929 1.69z" mask="url(#C)" class="D"/><path d="M238.479 353.862c3.742.489 7.26-1.65 8.718-4.987 1.759 3.02 5.278 4.701 8.75 4.047-1.171 3.589.214 7.61 3.322 9.68l-.216.036c-4.027.69-6.697 4.04-6.956 7.738a8.34 8.34 0 0 0-10.585 1.037l-.095.096c-.005-3.434-2.103-6.697-5.447-7.931 2.893-2.336 3.854-6.339 2.509-9.716zm-2.543 23.154h0z" class="B C E"/><mask id="D" class="B"><path d="M204.463 349.101c1.105-2.007 4.157-.796 3.584 1.422l-.85 3.294c-.343 1.329.754 2.584 2.113 2.418l1.517-.186c2.11-.259 3.038 2.575 1.189 3.627l-1.425.81c-1.292.736-1.321 2.591-.052 3.361l1.908 1.157c1.911 1.159.672 4.108-1.494 3.555l-4.275-1.092a1.95 1.95 0 0 0-2.428 1.858l-.008.478c-.037 2.031-2.762 2.664-3.678.854l-.956-1.889c-.448-.887-1.492-1.291-2.42-.937l-4.217 1.603c-2.119.806-3.661-2.051-1.831-3.392l1.667-1.222c1.181-.865 1.025-2.676-.285-3.32l-1.422-.7c-1.87-.92-1.174-3.746.911-3.696l1.699.04c1.385.033 2.362-1.354 1.866-2.649l-.342-.894c-.737-1.921 1.62-3.529 3.131-2.138l1.363 1.254c.927.854 2.409.609 3.018-.498l1.717-3.118z"/></mask><path d="M204.463 349.101c1.105-2.007 4.157-.796 3.584 1.422l-.85 3.294c-.343 1.329.754 2.584 2.113 2.418l1.517-.186c2.11-.259 3.038 2.575 1.189 3.627l-1.425.81c-1.292.736-1.321 2.591-.052 3.361l1.908 1.157c1.911 1.159.672 4.108-1.494 3.555l-4.275-1.092a1.95 1.95 0 0 0-2.428 1.858l-.008.478c-.037 2.031-2.762 2.664-3.678.854l-.956-1.889c-.448-.887-1.492-1.291-2.42-.937l-4.217 1.603c-2.119.806-3.661-2.051-1.831-3.392l1.667-1.222c1.181-.865 1.025-2.676-.285-3.32l-1.422-.7c-1.87-.92-1.174-3.746.911-3.696l1.699.04c1.385.033 2.362-1.354 1.866-2.649l-.342-.894c-.737-1.921 1.62-3.529 3.131-2.138l1.363 1.254c.927.854 2.409.609 3.018-.498l1.717-3.118z" class="B"/><path d="M199.728 352.717l6.773-7.357h0l-6.773 7.357zm3.018-.498l-8.76-4.823h0l8.76 4.823zm-7.512 1.382l-9.338 3.58h0l9.338-3.58zm3.131-2.138l-6.772 7.357h0l6.772-7.357zm-4.655 5.681l-.239 9.997h0l.239-9.997zm1.866-2.649l9.337-3.58h0l-9.337 3.58zM191.1 360.8l4.414-8.973h0L191.1 360.8zm.911-3.696l.239-9.998h0l-.239 9.998zm.796 7.716l5.91 8.066h0l-5.91-8.066zm-.285-3.32l-4.415 8.973h0l4.415-8.973zm.449 7.934l-3.555-9.347h0l3.555 9.347zm-1.831-3.392l-5.911-8.067h0l5.911 8.067zm8.468 2.726l8.923-4.514h0l-8.923 4.514zm-2.42-.937l3.555 9.346h0l-3.555-9.346zm7.054 1.972l9.998.179h0l-9.998-.179zm-3.678.854l-8.923 4.514h0l8.923-4.514zm6.114-3.19l-2.474 9.689h0l2.474-9.689zm-2.428 1.858l-9.998-.179h0l9.998.179zm8.197-4.321l-5.186 8.551h0l5.186-8.551zm-1.494 3.555l2.475-9.689h0l-2.475 9.689zm-.362-8.073l-4.945-8.691h0l4.945 8.691zm-.052 3.361l5.185-8.55h0l-5.185 8.55zm.288-7.798l-1.216-9.926h0l1.216 9.926zm1.189 3.627l4.945 8.692h0l-4.945-8.692zm-4.819-5.859l-9.683-2.499h0l9.683 2.499zm2.113 2.418l1.217 9.925h0l-1.217-9.925zm-1.263-5.712l9.683 2.499h0l-9.683-2.499zm-3.584-1.422l8.76 4.823h0l-8.76-4.823zm-6.099-1.078l-.85 3.295 19.365 4.999.851-3.295-19.366-4.999zm12.163 18.137l1.517-.186-2.433-19.851-1.517.186 2.433 19.851zm-3.456-15.176l-1.425.811 9.89 17.383 1.425-.81-9.89-17.384zm-1.718 21.414l1.908 1.157 10.371-17.101-1.908-1.157-10.371 17.101zm8.075-13.528l-4.275-1.092-4.949 19.378 4.275 1.092 4.949-19.378zm-19.176 10.276l-.009.478 19.997.358.009-.478-19.997-.358zm15.235-3.003l-.956-1.889-17.846 9.028.956 1.889 17.846-9.028zm-15.855-7.659l-4.216 1.603 7.11 18.694 4.217-1.604-7.111-18.693zm3.419 15.624l1.666-1.222-11.821-16.132-1.667 1.221 11.822 16.133zm-.115-21.582l-1.422-.699-8.828 17.946 1.421.7 8.829-17.947zm-5.165 14.575l1.7.04.478-19.994-1.699-.041-.479 19.995zm13.142-16.186l-.342-.893-18.675 7.159.342.893 18.675-7.159zm-13.32 7.905l1.362 1.255 13.546-14.715-1.363-1.254-13.545 14.714zm19.913-1.778l1.717-3.118-17.52-9.646-1.717 3.118 17.52 9.646zm-18.551 3.033c5.729 5.273 14.831 3.725 18.551-3.033l-17.52-9.646c2.502-4.543 8.64-5.603 12.515-2.036l-13.546 14.715zm11.616-10.053c2.991 7.803-6.601 14.669-12.978 8.798l13.545-14.714c-9.4-8.654-23.706 1.429-19.242 13.075l18.675-7.159zm-11.1 17.119c8.518.204 14.478-8.305 11.442-16.226l-18.675 7.159c-2.043-5.331 1.964-11.064 7.711-10.927l-.478 19.994zm2.043-15.314c7.804 3.839 4.825 15.479-3.743 15.274l.479-19.995c-12.736-.304-17.108 16.988-5.564 22.667l8.828-17.946zm3.203 21.059c7.2-5.275 6.313-16.378-1.781-20.36l-8.829 17.947c-5.473-2.693-6.049-10.174-1.211-13.719l11.821 16.132zm-9.301-12.799c9.045-3.44 14.966 8.649 7.635 14.021l-11.822-16.133c-10.991 8.055-1.985 25.858 11.297 20.806l-7.11-18.694zm19.115 4.167a11.94 11.94 0 0 0-14.899-5.77l7.111 18.693a8.06 8.06 0 0 1-10.058-3.895l17.846-9.028zm-14.288 5.37c.148-8.242 11.381-11.117 15.244-3.481l-17.846 9.028c5.694 11.256 22.379 7.116 22.599-5.189l-19.997-.358zm14.91-11.846c-7.502-1.916-14.764 3.692-14.901 11.368l19.997.358c-.093 5.159-4.976 8.947-10.045 7.652l4.949-19.378zm-1.892 15.777c-7.929-4.809-2.797-16.974 6.167-14.685l-4.949 19.378c13.295 3.396 20.905-14.667 9.153-21.794l-10.371 17.101zm-1.615-21.76c-7.886 4.487-8.124 15.853-.293 20.603l10.371-17.101c5.293 3.209 5.114 10.865-.188 13.881l-9.89-17.383zm6.398 14.179c-8.937 1.096-12.447-10.738-4.973-14.99l9.89 17.384c11.172-6.357 5.806-23.857-7.35-22.245l2.433 19.851zm-14.53-14.656c-2.095 8.117 4.619 15.871 13.013 14.842l-2.433-19.851c5.675-.696 10.194 4.548 8.785 10.008l-19.365-4.999zm20.216 1.704c3.517-13.629-15.263-21.029-22.027-8.744l17.52 9.646c-4.553 8.271-17.231 3.292-14.859-5.901l19.366 4.999z" mask="url(#D)" class="D"/><mask id="E" class="B"><path d="M260.143 389.56c.975-1.771 3.667-.703 3.161 1.254l-.75 2.907c-.302 1.172.666 2.28 1.865 2.133l1.339-.164c1.861-.228 2.68 2.272 1.048 3.2l-1.257.715c-1.14.649-1.166 2.286-.046 2.965l1.683 1.021c1.687 1.023.593 3.625-1.317 3.137l-3.772-.964a1.72 1.72 0 0 0-2.142 1.639l-.008.422c-.032 1.792-2.437 2.351-3.245.753l-.843-1.666a1.71 1.71 0 0 0-2.136-.827l-3.72 1.415c-1.869.711-3.23-1.81-1.615-2.994l1.47-1.077c1.042-.764.905-2.361-.251-2.93l-1.255-.617c-1.649-.812-1.035-3.305.804-3.261l1.499.035c1.222.03 2.084-1.195 1.646-2.337l-.302-.788c-.649-1.695 1.43-3.115 2.764-1.887l1.202 1.107c.818.753 2.125.537 2.663-.44l1.515-2.751z"/></mask><use href="#J" class="B"/><path d="M255.965 392.751l-6.773 7.357h0l6.773-7.357zm2.663-.44l-8.76-4.823h0l8.76 4.823zm-6.629 1.22l-9.337 3.579h0l9.337-3.579zm2.764-1.887l6.772-7.357h0l-6.772 7.357zm-4.108 5.012l-.239 9.998h0l.239-9.998zm1.646-2.337l9.338-3.579h0l-9.338 3.579zm-3.949 5.563l4.414-8.973h0l-4.414 8.973zm.804-3.261l.239-9.998h0l-.239 9.998zm.702 6.808l-5.91-8.066h0l5.91 8.066zm-.251-2.93l-4.415 8.973h0l4.415-8.973zm.396 7.001l-3.555-9.347h0l3.555 9.347zm-1.615-2.994l5.91 8.067h0l-5.91-8.067zm7.471 2.406l8.923-4.514h0l-8.923 4.514zm-2.136-.827l3.555 9.347h0l-3.555-9.347zm6.224 1.74l9.999.179h0l-9.999-.179zm-3.245.753l-8.923 4.514h0l8.923-4.514zm5.395-2.814l-2.475 9.689h0l2.475-9.689zm-2.142 1.639l-9.999-.179h0l9.999.179zm7.231-3.812l-5.185 8.551h0l5.185-8.551zm-1.317 3.137l2.474-9.689h0l-2.474 9.689zm-.32-7.123l-4.945-8.692h0l4.945 8.692zm-.046 2.965l5.186-8.55h0l-5.186 8.55zm.255-6.88l-1.217-9.926h0l1.217 9.926zm1.048 3.2l4.945 8.692h0l-4.945-8.692zm-4.252-5.169l-9.683-2.499h0l9.683 2.499zm1.865 2.133l1.217 9.926h0l-1.217-9.926zm-1.115-5.04l9.683 2.5h0l-9.683-2.5zm-3.161-1.254l8.76 4.823h0l-8.76-4.823zm-6.521-1.245l-.751 2.907 19.366 4.998.75-2.906-19.365-4.999zm12.014 17.465l1.338-.164-2.433-19.852-1.339.164 2.434 19.852zm-3.775-15.582l-1.257.715 9.89 17.384 1.257-.715-9.89-17.384zm-1.544 20.923l1.684 1.021 10.371-17.101-1.683-1.021-10.372 17.101zm8.026-14.082l-3.772-.964-4.949 19.378 3.772.964 4.949-19.378zm-18.387 10.185l-.007.422 19.997.358.007-.422-19.997-.358zm15.669-3.16l-.843-1.666-17.846 9.028.843 1.666 17.846-9.028zm-15.457-7.326l-3.72 1.415 7.111 18.693 3.719-1.414-7.11-18.694zm4.13 15.835l1.471-1.078-11.821-16.132-1.471 1.077 11.821 16.133zm-.277-21.047l-1.255-.617-8.828 17.946 1.254.617 8.829-17.946zm-5.104 15.092l1.499.036.478-19.995-1.499-.036-.478 19.995zm12.722-15.878l-.302-.789-18.675 7.159.302.788 18.675-7.158zm-13.649 8.261l1.202 1.107 13.545-14.715-1.202-1.106-13.545 14.714zm19.398-1.867l1.515-2.751-17.52-9.646-1.515 2.751 17.52 9.646zm-18.196 2.974c5.619 5.173 14.547 3.654 18.196-2.974l-17.52-9.646c2.573-4.674 8.886-5.762 12.869-2.095l-13.545 14.715zm12.145-10.157c3.078 8.03-6.792 15.085-13.347 9.05l13.545-14.714c-9.222-8.49-23.25 1.404-18.873 12.823l18.675-7.159zm-10.921 16.703c8.355.2 14.2-8.147 11.223-15.914l-18.675 7.158c-2.102-5.483 2.02-11.38 7.93-11.239l-.478 19.995zm2.35-15.745c8.025 3.948 4.963 15.92-3.849 15.709l.478-19.995c-12.49-.298-16.781 16.661-5.457 22.232l8.828-17.946zm3.003 20.586c7.06-5.174 6.192-16.063-1.748-19.969l-8.829 17.946c-5.627-2.768-6.221-10.463-1.244-14.109l11.821 16.132zm-9.321-13.342c9.295-3.535 15.397 8.89 7.85 14.42l-11.821-16.133c-10.776 7.897-1.952 25.364 11.082 20.406l-7.111-18.693zm18.334 4.245a11.71 11.71 0 0 0-14.614-5.66l7.11 18.694a8.29 8.29 0 0 1-10.342-4.006l17.846-9.028zm-14.833 5.248c.152-8.481 11.706-11.43 15.676-3.582l-17.846 9.028c5.586 11.043 21.95 6.978 22.167-5.088l-19.997-.358zm14.622-11.571c-7.358-1.879-14.48 3.622-14.615 11.149l19.997.358c-.095 5.307-5.118 9.203-10.331 7.871l4.949-19.378zm-2.57 16.067c-8.155-4.946-2.877-17.458 6.342-15.103l-4.949 19.378c13.041 3.33 20.505-14.386 8.978-21.376l-10.371 17.101zm-1.397-21.229c-7.734 4.401-7.968 15.549-.287 20.208l10.372-17.101c5.442 3.3 5.259 11.174-.195 14.277l-9.89-17.384zm6.37 14.703c-9.185 1.126-12.804-11.042-5.113-15.418l9.89 17.384c10.955-6.232 5.698-23.4-7.21-21.818l2.433 19.852zm-14.103-14.394c-2.054 7.961 4.531 15.567 12.765 14.558l-2.434-19.852c5.836-.715 10.484 4.676 9.035 10.292l-19.366-4.998zm20.116 2.092c3.45-13.368-14.971-20.626-21.604-8.577l17.52 9.646c-4.684 8.507-17.721 3.386-15.281-6.068l19.365 4.999z" mask="url(#E)" class="D"/><mask id="F" class="B"><path d="M260.143 389.56c.975-1.771 3.667-.703 3.161 1.254l-.75 2.907c-.302 1.172.666 2.28 1.865 2.133l1.339-.164c1.861-.228 2.68 2.272 1.048 3.2l-1.257.715c-1.14.649-1.166 2.286-.046 2.965l1.683 1.021c1.687 1.023.593 3.625-1.317 3.137l-3.772-.964a1.72 1.72 0 0 0-2.142 1.639l-.008.422c-.032 1.792-2.437 2.351-3.245.753l-.843-1.666a1.71 1.71 0 0 0-2.136-.827l-3.72 1.415c-1.869.711-3.23-1.81-1.615-2.994l1.47-1.077c1.042-.764.905-2.361-.251-2.93l-1.255-.617c-1.649-.812-1.035-3.305.804-3.261l1.499.035c1.222.03 2.084-1.195 1.646-2.337l-.302-.788c-.649-1.695 1.43-3.115 2.764-1.887l1.202 1.107c.818.753 2.125.537 2.663-.44l1.515-2.751z"/></mask><use href="#J" class="B"/><path d="M255.965 392.751l-6.773 7.357h0l6.773-7.357zm2.663-.44l-8.76-4.823h0l8.76 4.823zm-6.629 1.22l-9.337 3.579h0l9.337-3.579zm2.764-1.887l6.772-7.357h0l-6.772 7.357zm-4.108 5.012l-.239 9.998h0l.239-9.998zm1.646-2.337l9.338-3.579h0l-9.338 3.579zm-3.949 5.563l4.414-8.973h0l-4.414 8.973zm.804-3.261l.239-9.998h0l-.239 9.998zm.702 6.808l-5.91-8.066h0l5.91 8.066zm-.251-2.93l-4.415 8.973h0l4.415-8.973zm.396 7.001l-3.555-9.347h0l3.555 9.347zm-1.615-2.994l5.91 8.067h0l-5.91-8.067zm7.471 2.406l8.923-4.514h0l-8.923 4.514zm-2.136-.827l3.555 9.347h0l-3.555-9.347zm6.224 1.74l9.999.179h0l-9.999-.179zm-3.245.753l-8.923 4.514h0l8.923-4.514zm5.395-2.814l-2.475 9.689h0l2.475-9.689zm-2.142 1.639l-9.999-.179h0l9.999.179zm7.231-3.812l-5.185 8.551h0l5.185-8.551zm-1.317 3.137l2.474-9.689h0l-2.474 9.689zm-.32-7.123l-4.945-8.692h0l4.945 8.692zm-.046 2.965l5.186-8.55h0l-5.186 8.55zm.255-6.88l-1.217-9.926h0l1.217 9.926zm1.048 3.2l4.945 8.692h0l-4.945-8.692zm-4.252-5.169l-9.683-2.499h0l9.683 2.499zm1.865 2.133l1.217 9.926h0l-1.217-9.926zm-1.115-5.04l9.683 2.5h0l-9.683-2.5zm-3.161-1.254l8.76 4.823h0l-8.76-4.823zm-6.521-1.245l-.751 2.907 19.366 4.998.75-2.906-19.365-4.999zm12.014 17.465l1.338-.164-2.433-19.852-1.339.164 2.434 19.852zm-3.775-15.582l-1.257.715 9.89 17.384 1.257-.715-9.89-17.384zm-1.544 20.923l1.684 1.021 10.371-17.101-1.683-1.021-10.372 17.101zm8.026-14.082l-3.772-.964-4.949 19.378 3.772.964 4.949-19.378zm-18.387 10.185l-.007.422 19.997.358.007-.422-19.997-.358zm15.669-3.16l-.843-1.666-17.846 9.028.843 1.666 17.846-9.028zm-15.457-7.326l-3.72 1.415 7.111 18.693 3.719-1.414-7.11-18.694zm4.13 15.835l1.471-1.078-11.821-16.132-1.471 1.077 11.821 16.133zm-.277-21.047l-1.255-.617-8.828 17.946 1.254.617 8.829-17.946zm-5.104 15.092l1.499.036.478-19.995-1.499-.036-.478 19.995zm12.722-15.878l-.302-.789-18.675 7.159.302.788 18.675-7.158zm-13.649 8.261l1.202 1.107 13.545-14.715-1.202-1.106-13.545 14.714zm19.398-1.867l1.515-2.751-17.52-9.646-1.515 2.751 17.52 9.646zm-18.196 2.974c5.619 5.173 14.547 3.654 18.196-2.974l-17.52-9.646c2.573-4.674 8.886-5.762 12.869-2.095l-13.545 14.715zm12.145-10.157c3.078 8.03-6.792 15.085-13.347 9.05l13.545-14.714c-9.222-8.49-23.25 1.404-18.873 12.823l18.675-7.159zm-10.921 16.703c8.355.2 14.2-8.147 11.223-15.914l-18.675 7.158c-2.102-5.483 2.02-11.38 7.93-11.239l-.478 19.995zm2.35-15.745c8.025 3.948 4.963 15.92-3.849 15.709l.478-19.995c-12.49-.298-16.781 16.661-5.457 22.232l8.828-17.946zm3.003 20.586c7.06-5.174 6.192-16.063-1.748-19.969l-8.829 17.946c-5.627-2.768-6.221-10.463-1.244-14.109l11.821 16.132zm-9.321-13.342c9.295-3.535 15.397 8.89 7.85 14.42l-11.821-16.133c-10.776 7.897-1.952 25.364 11.082 20.406l-7.111-18.693zm18.334 4.245a11.71 11.71 0 0 0-14.614-5.66l7.11 18.694a8.29 8.29 0 0 1-10.342-4.006l17.846-9.028zm-14.833 5.248c.152-8.481 11.706-11.43 15.676-3.582l-17.846 9.028c5.586 11.043 21.95 6.978 22.167-5.088l-19.997-.358zm14.622-11.571c-7.358-1.879-14.48 3.622-14.615 11.149l19.997.358c-.095 5.307-5.118 9.203-10.331 7.871l4.949-19.378zm-2.57 16.067c-8.155-4.946-2.877-17.458 6.342-15.103l-4.949 19.378c13.041 3.33 20.505-14.386 8.978-21.376l-10.371 17.101zm-1.397-21.229c-7.734 4.401-7.968 15.549-.287 20.208l10.372-17.101c5.442 3.3 5.259 11.174-.195 14.277l-9.89-17.384zm6.37 14.703c-9.185 1.126-12.804-11.042-5.113-15.418l9.89 17.384c10.955-6.232 5.698-23.4-7.21-21.818l2.433 19.852zm-14.103-14.394c-2.054 7.961 4.531 15.567 12.765 14.558l-2.434-19.852c5.836-.715 10.484 4.676 9.035 10.292l-19.366-4.998zm20.116 2.092c3.45-13.368-14.971-20.626-21.604-8.577l17.52 9.646c-4.684 8.507-17.721 3.386-15.281-6.068l19.365 4.999z" mask="url(#F)" class="D"/><mask id="G" class="B"><path d="M242.956 318.397c-1.735-1.037-.571-3.689 1.367-3.114l2.878.854c1.161.344 2.302-.584 2.198-1.788l-.116-1.343c-.161-1.868 2.366-2.598 3.236-.934l.669 1.282c.608 1.163 2.243 1.247 2.962.152l1.08-1.645c1.083-1.649 3.644-.463 3.088 1.429l-1.098 3.735a1.72 1.72 0 0 0 1.561 2.199l.422.023c1.789.096 2.261 2.52.636 3.27l-1.696.783a1.71 1.71 0 0 0-.903 2.104l1.281 3.769c.644 1.893-1.925 3.163-3.049 1.507l-1.024-1.508c-.726-1.069-2.327-.989-2.937.146l-.662 1.232c-.87 1.62-3.34.916-3.23-.92l.089-1.497c.073-1.22-1.12-2.126-2.277-1.729l-.799.274c-1.717.588-3.061-1.54-1.786-2.829l1.149-1.162c.782-.79.613-2.105-.344-2.677l-2.695-1.613z"/></mask><path d="M242.956 318.397c-1.735-1.037-.571-3.689 1.367-3.114l2.878.854c1.161.344 2.302-.584 2.198-1.788l-.116-1.343c-.161-1.868 2.366-2.598 3.236-.934l.669 1.282c.608 1.163 2.243 1.247 2.962.152l1.08-1.645c1.083-1.649 3.644-.463 3.088 1.429l-1.098 3.735a1.72 1.72 0 0 0 1.561 2.199l.422.023c1.789.096 2.261 2.52.636 3.27l-1.696.783a1.71 1.71 0 0 0-.903 2.104l1.281 3.769c.644 1.893-1.925 3.163-3.049 1.507l-1.024-1.508c-.726-1.069-2.327-.989-2.937.146l-.662 1.232c-.87 1.62-3.34.916-3.23-.92l.089-1.497c.073-1.22-1.12-2.126-2.277-1.729l-.799.274c-1.717.588-3.061-1.54-1.786-2.829l1.149-1.162c.782-.79.613-2.105-.344-2.677l-2.695-1.613z" class="B"/><path d="M245.995 322.687l7.11 7.032h0l-7.11-7.032zm-.344-2.677l-5.133 8.582h0l5.133-8.582zm.981 6.668l3.243 9.459h0l-3.243-9.459zm-1.786-2.829l-7.11-7.032h0l7.11 7.032zm4.862 4.284l9.982.597h0l-9.982-.597zm-2.277-1.729l-3.243-9.46h0l3.243 9.46zm5.418 4.146l-8.809-4.733h0l8.809 4.733zm-3.23-.92l-9.983-.597h0l9.983.597zm6.829-.458l8.272-5.618h0l-8.272 5.618zm-2.937.146l8.809 4.733h0l-8.809-4.733zm7.01-.145l-9.468 3.218h0l9.468-3.218zm-3.049 1.507l-8.273 5.618h0l8.273-5.618zm2.671-7.38l-4.192-9.079h0l4.192 9.079zm-.903 2.104l9.468-3.218h0l-9.468 3.218zm1.963-6.157l.537-9.986h0l-.537 9.986zm.636 3.27l4.192 9.079h0l-4.192-9.079zm-2.619-5.492l9.594 2.82h0l-9.594-2.82zm1.561 2.199l-.537 9.986h0l.537-9.986zm-3.551-7.363l8.36 5.488h0l-8.36-5.488zm3.088 1.429l-9.594-2.82h0l9.594 2.82zm-7.13.064l-8.863 4.63h0l8.863-4.63zm2.962.152l-8.359-5.488h0l8.359 5.488zm-6.867-.5l-9.963.86h0l9.963-.86zm3.236-.934l8.863-4.63h0l-8.863 4.63zm-5.318 4.065l-2.845 9.586h0l2.845-9.586zm2.198-1.788l9.963-.86h0l-9.963.86zm-5.076.934l2.844-9.587h0l-2.844 9.587zm-1.367 3.114l5.133-8.581h0l-5.133 8.581zm-1.478 6.473l2.878.853 5.689-19.173-2.878-.854-5.689 19.174zm17.884-11.381l-.116-1.344-19.926 1.721.116 1.344 19.926-1.721zm-15.707 3.214l.67 1.281 17.727-9.261-.67-1.281-17.727 9.261zm20.854 2.292l1.081-1.646-16.719-10.977-1.08 1.646 16.718 10.977zm-13.785-8.525l-1.098 3.735 19.188 5.64 1.098-3.735-19.188-5.64zm9.52 18.74l.422.022 1.074-19.971-.422-.022-1.074 19.971zm-2.597-15.772l-1.696.783 8.384 18.158 1.696-.783-8.384-18.158zm-7.875 15.185l1.281 3.768 18.936-6.437-1.281-3.768-18.936 6.437zm15.973-3.561l-1.025-1.508-16.545 11.236 1.024 1.508 16.546-11.236zm-21.043-.476l-.662 1.231 17.618 9.466.662-1.232-17.618-9.465zm14.899 5.641l.089-1.497-19.964-1.194-.09 1.497 19.965 1.194zm-15.413-13.283l-.798.274 6.485 18.919.798-.273-6.485-18.92zm7.768 13.937l1.149-1.162-14.22-14.064-1.149 1.162 14.22 14.064zm-1.171-19.453l-2.696-1.612-10.267 17.163 2.696 1.613 10.267-17.164zm2.32 18.291c5.371-5.431 4.172-14.407-2.32-18.291l-10.267 17.164a8.29 8.29 0 0 1-1.633-12.937l14.22 14.064zm-9.715-12.501c8.134-2.788 14.831 7.328 8.566 13.663l-14.22-14.064c-8.814 8.912.57 23.286 12.139 19.32l-6.485-18.919zm16.3 11.512c.499-8.342-7.632-14.483-15.502-11.786l6.485 18.92c-5.554 1.904-11.3-2.426-10.947-8.328l19.964 1.194zm-15.65-2.913c4.232-7.878 16.087-4.389 15.561 4.41l-19.965-1.194c-.746 12.472 16.05 17.367 22.022 6.25l-17.618-9.466zm20.68-2.263c-4.917-7.241-15.831-6.763-20.018 1.032l17.618 9.465c-2.968 5.525-10.679 5.843-14.145.739l16.545-11.236zm-13.667 8.837c-3.2-9.415 9.435-15.069 14.692-7.329l-16.546 11.236c7.506 11.052 25.278 2.859 20.79-10.344l-18.936 6.437zm4.898-18.17c-5.444 2.513-8.107 8.729-6.179 14.402l18.936-6.437a8.29 8.29 0 0 1-4.373 10.193l-8.384-18.158zm4.715 15.011c-8.471-.455-11.004-12.107-3.019-15.794l8.384 18.158c11.235-5.187 7.758-21.687-4.291-22.335l-1.074 19.971zm-11.04-15.027c-2.142 7.286 3.1 14.6 10.618 15.005l1.074-19.971c5.3.285 9.013 5.444 7.496 10.606l-19.188-5.64zm15.964 3.144c-5.235 7.972-17.55 2.25-14.866-6.879l19.188 5.64c3.795-12.913-13.642-21.007-21.041-9.738l16.719 10.977zm-21.265.635c4.121 7.888 15.253 8.521 20.184 1.011l-16.718-10.977c3.493-5.32 11.355-4.856 14.261.705l-17.727 9.261zm14.921-5.839c.796 9.22-11.493 12.401-15.591 4.558l17.727-9.261c-5.836-11.171-23.181-6.532-22.062 6.424l19.926-1.721zm-14.89 13.578c7.883 2.339 15.72-3.969 15.006-12.234l-19.926 1.721c-.506-5.858 5.049-10.31 10.609-8.66l-5.689 19.173zm2.811-20.027c-13.235-3.927-21.148 14.222-9.345 21.283l10.267-17.163c8.335 4.985 2.749 17.831-6.611 15.054l5.689-19.174z" mask="url(#G)" class="D"/><mask id="H" class="B"><path d="M240.841 436.1c1.015-1.823 3.819-.723 3.293 1.292l-.782 2.993c-.315 1.207.694 2.347 1.942 2.196l1.394-.169c1.938-.235 2.791 2.339 1.092 3.295l-1.309.737c-1.187.668-1.214 2.353-.048 3.053l1.753 1.051c1.756 1.053.617 3.732-1.372 3.229l-3.928-.992c-1.117-.282-2.21.545-2.23 1.688l-.008.435c-.034 1.845-2.538 2.42-3.379.775l-.878-1.716c-.412-.805-1.371-1.172-2.224-.852l-3.873 1.457c-1.947.732-3.364-1.864-1.683-3.082l1.531-1.109c1.085-.786.942-2.431-.262-3.017l-1.306-.635c-1.718-.836-1.078-3.404.837-3.359l1.561.037c1.273.03 2.17-1.23 1.714-2.407l-.314-.811c-.677-1.745 1.488-3.207 2.877-1.943l1.252 1.14a1.8 1.8 0 0 0 2.773-.453l1.577-2.833z"/></mask><path d="M240.841 436.1c1.015-1.823 3.819-.723 3.293 1.292l-.782 2.993c-.315 1.207.694 2.347 1.942 2.196l1.394-.169c1.938-.235 2.791 2.339 1.092 3.295l-1.309.737c-1.187.668-1.214 2.353-.048 3.053l1.753 1.051c1.756 1.053.617 3.732-1.372 3.229l-3.928-.992c-1.117-.282-2.21.545-2.23 1.688l-.008.435c-.034 1.845-2.538 2.42-3.379.775l-.878-1.716c-.412-.805-1.371-1.172-2.224-.852l-3.873 1.457c-1.947.732-3.364-1.864-1.683-3.082l1.531-1.109c1.085-.786.942-2.431-.262-3.017l-1.306-.635c-1.718-.836-1.078-3.404.837-3.359l1.561.037c1.273.03 2.17-1.23 1.714-2.407l-.314-.811c-.677-1.745 1.488-3.207 2.877-1.943l1.252 1.14a1.8 1.8 0 0 0 2.773-.453l1.577-2.833z" class="B"/><path d="M236.491 439.386l-6.732 7.395h0l6.732-7.395zm2.773-.453l-8.737-4.864h0l8.737 4.864zm-6.902 1.256l-9.324 3.614h0l9.324-3.614zm2.877-1.943l6.732-7.395h0l-6.732 7.395zm-4.277 5.161l-.236 9.998h0l.236-9.998zm1.714-2.407l9.324-3.614h0L232.676 441zm-4.112 5.729l4.375-8.993h0l-4.375 8.993zm.837-3.359l.237-9.997h0l-.237 9.997zm.731 7.011l-5.867-8.098h0l5.867 8.098zm-.262-3.017l-4.374 8.992h0l4.374-8.992zm.414 7.208l-3.521-9.36h0l3.521 9.36zm-1.683-3.082l-5.867-8.098h0l5.867 8.098zm7.78 2.477l8.902-4.555h0l-8.902 4.555zm-2.224-.852l3.52 9.36h0l-3.52-9.36zm6.481 1.793l9.998.181h0l-9.998-.181zm-3.379.775l-8.903 4.554h0l8.903-4.554zm5.617-2.898l-2.449 9.696h0l2.449-9.696zm-2.23 1.688l-9.999-.181h0l9.999.181zm7.53-3.925l-5.143 8.576h0l5.143-8.576zm-1.372 3.229l2.448-9.695h0l-2.448 9.695zm-.333-7.333l-4.903-8.716h0l4.903 8.716zm-.048 3.053l5.143-8.576h0l-5.143 8.576zm.265-7.085l-1.203-9.927h0l1.203 9.927zm1.092 3.295l4.903 8.716h0l-4.903-8.716zm-4.428-5.322l-9.675-2.526h0l9.675 2.526zm1.942 2.196l1.203 9.927h0l-1.203-9.927zm-1.16-5.189l9.675 2.525h0l-9.675-2.525zm-3.293-1.292l8.737 4.865h0l-8.737-4.865zm-6.383-1.234l-.781 2.993 19.351 5.052.781-2.994-19.351-5.051zm12.039 17.642l1.394-.168-2.406-19.855-1.394.169 2.406 19.854zm-3.62-15.516l-1.309.736 9.806 17.431 1.309-.736-9.806-17.431zm-1.597 21.081l1.753 1.051 10.286-17.152-1.753-1.051-10.286 17.152zm7.972-13.991l-3.927-.992-4.898 19.391 3.928.992 4.897-19.391zm-18.605 10.21l-.008.434 19.997.363.008-.435-19.997-.362zm15.514-3.163l-.878-1.717-17.805 9.109.878 1.716 17.805-9.108zm-15.524-7.373l-3.874 1.456 7.041 18.72 3.873-1.457-7.04-18.719zm3.832 15.832l1.531-1.11-11.735-16.195-1.531 1.109 11.735 16.196zm-.224-21.217l-1.306-.635-8.749 17.985 1.306.635 8.749-17.985zm-5.081 14.997l1.562.037.473-19.995-1.561-.037-.474 19.995zM242 437.386l-.314-.811-18.648 7.228.314.812L242 437.386zm-13.492 8.255l1.251 1.14 13.463-14.79-1.251-1.14-13.463 14.79zm19.493-1.843l1.577-2.833-17.474-9.729-1.577 2.833 17.474 9.729zm-18.242 2.983c5.611 5.108 14.542 3.663 18.242-2.983l-17.474-9.729c2.58-4.635 8.787-5.636 12.695-2.078l-13.463 14.79zm11.927-10.206c3.292 8.492-7.071 14.626-13.178 9.066l13.463-14.79c-8.885-8.087-23.578.97-18.933 12.952l18.648-7.228zm-10.96 16.83c8.244.195 14.364-8.05 11.274-16.019l-18.648 7.229c-2.177-5.617 2.147-11.34 7.847-11.205l-.473 19.995zm2.213-15.669c8.277 4.027 4.674 15.832-3.775 15.632l.474-19.995c-12.278-.29-17.162 16.65-5.448 22.348l8.749-17.985zM236 458.478c7.191-5.21 6.253-16.211-1.755-20.107l-8.749 17.985c-5.601-2.724-6.252-10.435-1.231-14.073L236 458.478zm-9.237-13.266c4.358-1.639 8.453.749 10.096 3.759 1.653 3.028 1.44 7.841-2.39 10.617l-11.735-16.196c-11.633 8.429-1.203 25.156 11.07 20.54l-7.041-18.72zm18.52 4.2c-2.756-5.388-9.091-7.746-14.646-5.656l7.04 18.719a8.21 8.21 0 0 1-10.199-3.954l17.805-9.109zm-14.644 5.314c.157-8.657 11.67-11.127 15.522-3.597l-17.805 9.108c5.535 10.819 22.056 7.2 22.28-5.148l-19.997-.363zm14.686-11.636c-7.258-1.833-14.538 3.511-14.678 11.202l19.997.362c-.098 5.404-5.194 9.096-10.217 7.827l4.898-19.391zm-2.292 16.034c-4.03-2.417-4.679-7.143-3.343-10.288 1.327-3.123 5.099-5.881 9.562-4.754l-4.897 19.391c12.445 3.143 21.215-14.154 8.964-21.501l-10.286 17.152zm-1.465-21.396c-7.831 4.406-8.079 15.673-.288 20.345l10.286-17.152c5.459 3.273 5.264 11.168-.192 14.238l-9.806-17.431zm6.323 14.612c-8.696 1.053-13.062-10.821-5.014-15.348l9.806 17.431c11.445-6.439 5.373-23.462-7.198-21.938l2.406 19.855zm-14.214-14.481c-2.133 8.171 4.709 15.633 12.82 14.649l-2.406-19.854c5.614-.681 10.44 4.5 8.937 10.257l-19.351-5.052zm20.132 2.058c1.756-6.724-2.443-12.096-7.091-13.919-4.627-1.816-11.277-.755-14.614 5.238l17.474 9.729c-2.321 4.169-7.062 4.868-10.165 3.651-3.124-1.226-6.184-5.04-4.955-9.75l19.351 5.051z" mask="url(#H)" class="D"/><g class="B"><g class="C"><path d="M218.315 400.916c1.699 4.078 6.269 6.322 10.536 5.019-1.97 4.371-.021 9.652 4.332 11.618l-1.644.28c-4.534.776-7.429 4.8-7.258 9.022l-.092-.075c-3.469-2.871-8.527-2.619-11.699.563l-1.074 1.078c.66-4.348-2.041-8.773-6.512-9.863 3.898-2.476 5.114-7.585 3.013-11.542 4.618 1.122 9.139-1.715 10.398-6.1z" class="E"/><path d="M326.919 375.461c.62-4.021 6.438-4.185 7.058-.164l.336 2.177c.369 2.391 3.174 3.501 5.078 2.01 2.397-1.877 5.802.382 5.005 3.32l-.216.798a3.44 3.44 0 0 0 3.32 4.339h.99c3.142 0 4.467 4.006 1.967 5.909-1.758 1.337-1.71 4.008.104 5.268l.372.259c2.144 1.49 1.543 4.81-.986 5.455a3.05 3.05 0 0 0-1.699 4.762l1.347 1.824c2.084 2.822-1.099 6.513-4.197 4.867-2.424-1.288-5.268.779-4.792 3.482l.326 1.844c.721 4.089-4.954 5.891-6.723 2.134l-.767-1.629c-1.24-2.632-4.943-2.744-6.34-.192l-2.438 4.454c-2.069 3.779-7.819 1.316-6.511-2.788l.661-2.078c.92-2.889-2.247-5.366-4.83-3.776-3.134 1.929-6.572-1.987-4.253-4.845l1.078-1.328c1.861-2.293.275-5.723-2.676-5.799-3.996-.104-4.765-5.722-.965-6.961 2.802-.913 3.331-4.671.904-6.343-3.283-2.261-1.007-7.448 2.842-6.409 2.849.769 5.311-2.136 4.168-4.857-1.531-3.64 3.121-6.807 5.762-3.872 1.976 2.197 5.625 1.059 6.075-1.861z" class="F"/><path d="M201.278 179.902h-32.883-7.847s-30.953-95.677-1.799-141.212c4.296-6.71 8.247-10.23 14.13-13.492 5.52-3.06 10.471-2.798 16.043 0 6.27 3.148 10.431 8.446 15.087 15.906 23.797 38.128-2.731 138.798-2.731 138.798z" class="E"/></g><use href="#K"/></g><g class="C"><g stroke-width="8"><use href="#K"/><use href="#K" class="G"/></g><path d="M286.317 192.1l-25.281-21.027-6.033-5.018s37.382-93.352 88.914-109.718c7.593-2.412 12.882-2.592 19.491-1.338 6.2 1.176 9.839 4.544 12.335 10.259 2.807 6.429 2.618 13.164 1.428 21.876-6.085 44.531-90.854 104.966-90.854 104.966z" class="B E"/></g><use href="#L" class="B"/><g class="C"><g stroke-width="8"><use href="#L"/><use href="#L" class="G"/></g><path d="M146.242 410.427c0 76.64 187.26 73.623 171.357-10.658 0-3.434-4.703-20.879-5.653-24.967s-14.251-45.4-16.014-49.036c0 0-124.223-4.015-125.623 0l-21.159 59.129c-1.735 5.618-2.908 15.497-2.908 25.532z" class="B E"/></g><path d="M217.347 448.079l-16.006 1.966s-11.707-1.953-16.822-7.183c-3.54-3.62-5.108-5.495-7.506-9.609-2.564-4.398-3.664-7.023-5.211-12.078s-1.647-7.778-1.833-12.883.915-12.301.915-12.301 1.235-6.219 2.703-9.981c2.441-6.254 4.659-9.527 9.008-14.641 3.916-4.605 6.509-6.97 11.552-10.303 6.077-4.019 10.084-5.508 17.108-7.439 8.479-2.332 13.635-2.726 22.412-2.18 7.084.44 12.053.912 18.756 3.244s10.851 3.578 16.687 7.492c4.852 3.255 8.305 5.917 12.26 10.217 4.524 4.919 6.065 8.766 8.513 14.984 2.075 5.269 2.584 10.364 3.065 16.006.545 6.382-.187 9.148-1.362 14.303s-2.416 7.383-5.28 12.94-3.665 6.492-6.8 9.789c-2.877 3.027-5.34 4.706-8.953 6.801-3.529 2.047-9.745 3.763-9.745 3.763s-7.801-1.522-13.834-2.303-8.987-1.191-14.643-1.46c-5.845-.278-9.168.215-14.984.856zm-94.12-173.994c-.23-1.227-15.926-2.044-15.109-7.769s15.109-7.769 20.826-24.533c16.516-48.43 44.946-90.366 102.278-90.366s85.762 41.936 102.277 90.366c5.717 16.764 20.01 18.809 20.826 24.533s-14.879 6.542-15.109 7.769 11.843 7.769 11.843 11.858-15.518 9.405-26.135 18.4c-25.871 21.92-59.388 34.756-93.702 34.756s-67.832-12.836-93.702-34.756c-10.618-8.995-26.135-14.311-26.135-18.4s12.072-10.631 11.842-11.858z" class="B"/><path d="M168.479 243.567c-6.093 0-36.47 2.416-41.636 19.647-7.514 25.066 64.418 42.724 82.632 42.724 18.234 0 88.989-15.287 82.324-42.724-4.246-17.48-35.543-19.647-41.636-19.647s-6.803 11.681-12.186 9.146c-10.34-4.869-13.983-8.129-27.185-8.129s-19.82 3.276-30.127 8.129c-5.382 2.535-6.093-9.146-12.186-9.146z" fill="#fefffb"/><path fill-rule="evenodd" d="M161.951 175.565c17.098-17.283 39.601-28.235 69.441-28.235s52.344 10.952 69.441 28.235c16.979 17.162 28.482 40.41 36.844 64.897 2.499 7.32 6.821 11.411 10.863 14.466.923.697 1.816 1.33 2.707 1.961l.33.234c.969.686 1.973 1.404 2.867 2.132 1.644 1.338 3.824 3.4 4.265 6.483.533 3.732-1.861 6.177-3.779 7.445s-4.329 2.083-6.344 2.644l-.409.111c1.452 1.128 3.038 2.442 4.314 3.806.686.734 1.381 1.584 1.922 2.524.527.914 1.066 2.182 1.066 3.675 0 1.827-.858 3.247-1.591 4.158-.754.938-1.71 1.753-2.643 2.451-1.864 1.394-4.367 2.847-6.932 4.305l-1.225.696c-5.036 2.854-10.642 6.032-15.227 9.911-26.615 22.52-61.105 35.723-96.469 35.723s-69.854-13.203-96.469-35.723c-4.585-3.879-10.19-7.057-15.226-9.911l-1.225-.696c-2.565-1.458-5.069-2.911-6.933-4.305-.932-.698-1.888-1.513-2.643-2.451-.732-.911-1.59-2.331-1.59-4.158 0-1.493.538-2.761 1.065-3.675.542-.94 1.237-1.79 1.923-2.524 1.276-1.364 2.862-2.678 4.314-3.806l-.409-.111c-2.016-.561-4.425-1.375-6.344-2.644s-4.312-3.713-3.779-7.445c.44-3.083 2.621-5.145 4.264-6.483.894-.728 1.899-1.446 2.867-2.132l.33-.234 2.708-1.961c4.041-3.055 8.363-7.146 10.863-14.466 8.362-24.487 19.865-47.735 36.843-64.897zm5.814 5.751c-15.742 15.912-26.742 37.846-34.918 61.788-3.225 9.445-8.921 14.758-13.671 18.348-1.031.779-2.032 1.487-2.914 2.112l-.326.23c-.99.702-1.78 1.272-2.433 1.803-.457.372-.762.661-.963.875.822.497 2.138.999 3.852 1.476 1.356.378 2.695.672 3.965.951l1.224.272c.737.167 1.553.362 2.222.586a6.98 6.98 0 0 1 1.301.574c.248.146.638.4 1.022.798s.944 1.124 1.146 2.203c.322 1.718-.5 2.987-.69 3.278-.309.473-.663.846-.901 1.08-.498.491-1.119.99-1.685 1.427-.559.432-1.203.907-1.848 1.384l-.116.085-2.13 1.597c-1.46 1.121-2.744 2.195-3.636 3.148a12.35 12.35 0 0 0-.285.316c.132.108.283.227.457.357 1.382 1.033 3.427 2.238 6.076 3.745l1.297.735c4.93 2.791 11.192 6.335 16.395 10.738 25.196 21.318 57.83 33.787 91.186 33.787s65.991-12.469 91.187-33.787c5.203-4.403 11.465-7.947 16.395-10.738l1.297-.735c2.648-1.507 4.694-2.712 6.076-3.745a13 13 0 0 0 .456-.357c-.084-.097-.179-.203-.284-.316-.892-.953-2.177-2.027-3.636-3.148l-2.131-1.597-.115-.085-1.848-1.384c-.566-.437-1.188-.936-1.685-1.427-.238-.234-.593-.607-.901-1.08-.191-.291-1.013-1.56-.69-3.278.202-1.079.764-1.809 1.145-2.203s.774-.652 1.023-.798c.49-.287.984-.468 1.3-.574.67-.224 1.486-.419 2.222-.586l1.224-.272c1.27-.279 2.609-.573 3.966-.951 1.714-.477 3.029-.979 3.852-1.476-.201-.214-.506-.503-.964-.875-.652-.531-1.443-1.101-2.433-1.803l-.325-.23-2.914-2.112c-4.75-3.59-10.447-8.903-13.672-18.348-8.176-23.942-19.175-45.876-34.918-61.788-15.623-15.793-36.058-25.808-63.627-25.808s-48.003 10.015-63.627 25.808zm183.037 84.751s-.005.007-.019.02a.12.12 0 0 1 .019-.02zm-3.421 20.387zm-232.15-1.531l.014.022c-.01-.015-.015-.022-.014-.022zm.18 1.514zm-3.428-20.37c.001 0 .007.007.018.02-.013-.013-.019-.02-.018-.02z" class="D"/><path d="M121.257 277.53c-.001 0-.007-.002-.019-.007m-1.293-5.662c.009-.01.014-.015.014-.014m41.992-96.282c17.097-17.283 39.601-28.235 69.441-28.235s52.344 10.952 69.441 28.235c16.979 17.162 28.482 40.41 36.844 64.897 2.499 7.32 6.821 11.411 10.863 14.466.923.697 1.816 1.33 2.707 1.961l.33.234c.969.686 1.973 1.404 2.867 2.132 1.644 1.338 3.824 3.4 4.265 6.483.533 3.732-1.861 6.177-3.779 7.445s-4.329 2.083-6.344 2.644l-.409.111c1.452 1.128 3.038 2.442 4.314 3.806.686.734 1.381 1.584 1.922 2.524.527.914 1.066 2.182 1.066 3.675 0 1.827-.858 3.247-1.591 4.158-.754.938-1.71 1.753-2.643 2.451-1.864 1.394-4.367 2.847-6.932 4.305l-1.225.696c-5.036 2.854-10.642 6.032-15.227 9.911-26.615 22.52-61.105 35.723-96.469 35.723s-69.854-13.203-96.469-35.723c-4.585-3.879-10.19-7.057-15.226-9.911l-1.225-.696c-2.565-1.458-5.069-2.911-6.933-4.305-.932-.698-1.888-1.513-2.643-2.451-.732-.911-1.59-2.331-1.59-4.158 0-1.493.538-2.761 1.065-3.675.542-.94 1.237-1.79 1.923-2.524 1.276-1.364 2.862-2.678 4.314-3.806l-.409-.111c-2.016-.561-4.425-1.375-6.344-2.644s-4.312-3.713-3.779-7.445c.44-3.083 2.621-5.145 4.264-6.483.894-.728 1.899-1.446 2.867-2.132l.33-.234 2.708-1.961c4.041-3.055 8.363-7.146 10.863-14.466 8.362-24.487 19.865-47.735 36.843-64.897zm5.814 5.751c-15.742 15.912-26.742 37.846-34.918 61.788-3.225 9.445-8.921 14.758-13.671 18.348-1.031.779-2.032 1.487-2.914 2.112l-.326.23c-.99.702-1.78 1.272-2.433 1.803-.457.372-.762.661-.963.875.822.497 2.138.999 3.852 1.476 1.356.378 2.695.672 3.965.951l1.224.272c.737.167 1.553.362 2.222.586a6.98 6.98 0 0 1 1.301.574 4.81 4.81 0 0 1 1.022.798c.382.394.944 1.124 1.146 2.203.322 1.718-.5 2.987-.69 3.278-.309.473-.663.846-.901 1.08-.498.491-1.119.99-1.685 1.427-.559.432-1.203.907-1.848 1.384l-.116.085-2.13 1.597c-1.46 1.121-2.744 2.195-3.636 3.148a12.35 12.35 0 0 0-.285.316c.132.108.283.227.457.357 1.382 1.033 3.427 2.238 6.076 3.745l1.297.735c4.93 2.791 11.192 6.335 16.395 10.738 25.196 21.318 57.83 33.787 91.186 33.787s65.991-12.469 91.187-33.787c5.203-4.403 11.465-7.947 16.395-10.738l1.297-.735c2.648-1.507 4.694-2.712 6.076-3.745a13 13 0 0 0 .456-.357c-.084-.097-.179-.203-.284-.316-.892-.953-2.177-2.027-3.636-3.148l-2.131-1.597-.115-.085-1.848-1.384c-.566-.437-1.188-.936-1.685-1.427-.238-.234-.593-.607-.901-1.08-.191-.291-1.013-1.56-.69-3.278.202-1.079.764-1.809 1.145-2.203s.774-.652 1.023-.798c.49-.287.984-.468 1.3-.574.67-.224 1.486-.419 2.222-.586l1.224-.272c1.27-.279 2.609-.573 3.966-.951 1.714-.477 3.029-.979 3.852-1.476-.201-.214-.506-.503-.964-.875-.652-.531-1.443-1.101-2.433-1.803l-.325-.23-2.914-2.112c-4.75-3.59-10.447-8.903-13.672-18.348-8.176-23.942-19.175-45.876-34.918-61.788-15.623-15.793-36.058-25.808-63.627-25.808s-48.003 10.015-63.627 25.808zm183.037 84.751s-.005.007-.019.02a.12.12 0 0 1 .019-.02zm-3.421 20.387zm-232.15-1.531l.014.022c-.01-.015-.015-.022-.014-.022zm.18 1.514zm-3.428-20.37c.001 0 .007.007.018.02-.013-.013-.019-.02-.018-.02z" stroke-width="2" class="C"/><path d="M194.266 215.227c0 4.344-10.677 0-14.751 0s-13.521-.624-13.521-4.969 2.049-9.11 13.521-9.11 14.751 9.734 14.751 14.079zm73.574 0c0 4.344 10.677 0 14.75 0s13.521-.624 13.521-4.969-2.049-9.11-13.521-9.11-14.75 9.734-14.75 14.079z" class="D"/><path d="M231.815 297.819v12.311m0 0s-3.79 3.688-6.88 3.983c-3.716.354-8.69-3.983-8.69-3.983m15.57 0s3.781 3.793 6.879 3.983c3.472.213 7.966-3.983 7.966-3.983" class="C F H"/><g class="D"><path d="M231.534 298.906c-1.627 0-12.607-4.037-13.736-10.294s29.413-6.257 27.471 0-12.108 10.294-13.735 10.294z"/><ellipse cx="17.852" cy="23.977" rx="17.852" ry="23.977" transform="matrix(-.998648 .051982 .051982 .998648 298.994 222.39)" class="C"/></g><circle cx="5.021" cy="5.021" r="5.021" transform="matrix(-.923252 .384195 .384195 .923252 280.155 230.792)" class="B C"/><ellipse cx="17.852" cy="23.977" rx="17.852" ry="23.977" transform="matrix(-.998648 .051982 .051982 .998648 200.025 222.39)" class="C D"/><circle cx="5.021" cy="5.021" r="5.021" transform="matrix(-.923252 .384195 .384195 .923252 181.186 230.792)" class="B C"/><path d="M201.953 297.731c-14.942-7.76-22.636-8.495-35.515-5.203m37.433 14.646c-15.567-6.415-23.296-6.47-35.836-2.057m93.941-7.737c14.942-7.76 22.636-8.495 35.515-5.203m-37.433 14.646c15.567-6.415 23.296-6.47 35.836-2.057" class="F H C"/><g class="B"><ellipse cx="174.331" cy="280.394" rx="16.018" ry="7.195" fill-opacity=".8"/><ellipse cx="294.973" cy="280.663" rx="16.018" ry="7.195" transform="rotate(357.724 294.973 280.663)" fill-opacity=".8"/><path d="M248.589 470.591c1.946-.448 5.372-3.179 5.372-3.179s2.702 2.165 4.233 2.931c1.954.976 2.605 1.302 4.792 1.634 2.932.445 3.592.101 5.953-.332 2.237-.41 3.165-1.553 4.979-2.826 1.355-.951 2.455-2.753 2.455-2.753s3.658 1.621 6.238 1.733c2.63.115 4.283-.146 6.681-1.226 2.253-1.014 3.44-1.945 4.898-3.777 1.752-2.203 2.198-3.939 2.745-6.548.656-3.13.648-4.987-.158-8.029-.869-3.28-1.749-5.38-4.664-7.49-1.692-1.224-2.897-1.691-5.016-2.245-3.06-.799-8.261-.21-8.261-.21l-5.409.993s-2.851-2.141-5.386-2.465c-2.224-.285-5.932-.063-5.932-.063-2.361.434-3.181.584-5.306 1.55s-4.364 3.103-4.364 3.103l-1.932 3.808-6.671-.502c-2.236.411-3.818.701-5.624 1.608s-4.094 2.607-5.279 5.286c-1.105 2.497-1.236 4.471-1.001 7.091.342 3.805.98 6.075 3.914 8.779 2.11 1.944 3.872 2.668 6.863 3.345 2.249.509 3.581.312 5.88-.216zm-69.518-5.132c1.994-.109 6.186-2.93 6.186-2.93s.652 1.953 1.628 3.446c1.063 1.623 1.954 2.74 3.908 3.392 2.848.949 3.855.843 6.242.593 2.549-.268 3.15-.625 5.154-1.57 1.498-.707 3.582-3.256 3.582-3.256s.534.947 1.71 1.953c1.142.977 2.583 2.008 3.825 2.28 1.284.28 3.248.468 4.884.325 1.643-.143 3.283-.323 4.559-.651 2.392-.615 3.342-1.82 4.884-3.582 2.279-2.605 2.334-3.431 3.256-6.186 1.011-3.022 1.129-5.039.853-8.174-.297-3.38-.805-5.599-3.318-8.175-1.458-1.495-2.566-2.161-4.56-3.068-2.878-1.309-8.104-1.616-8.104-1.616l-5.499.056s-2.444-2.595-4.886-3.347c-2.144-.66-5.835-1.074-5.835-1.074-2.4.025-3.234.033-5.493.622s-3.251.941-4.829 2.314c-1.258 1.095-2.553 3.423-2.553 3.423s-3.972-1.823-6.245-1.8-3.601.065-5.536.651-3.26 1.47-4.884 3.907c-1.514 2.273-2.279 4.729-2.279 7.359 0 3.712.261 6.024 1.953 9.318.635 1.235 1.276 2.13 1.954 2.86.712.767 1.479 1.35 2.931 1.953 2.129.886 4.156 1.106 6.512.977z" class="C E"/><path d="M170.984 389.909c-.027-7.492 5.967-13.085 7.692-18.104 0 0 34.547 23.632 31.534 27.759-2.583 3.538-39.226-9.655-39.226-9.655zm121.297-.605c.028-7.661-5.462-12.971-7.241-18.104 0 0-36.299 24.746-33.191 28.967 2.663 3.618 40.432-10.863 40.432-10.863z"/></g><path d="M168.987 362.149s55.856 34.106 41.179 39.361c-10.276 3.678-51.855-15.506-51.855-15.506m136.57-23.855s-55.855 34.106-41.178 39.361c10.275 3.678 51.854-15.506 51.854-15.506" class="C E"/><defs ><path id="J" d="M260.143 389.56c.975-1.771 3.667-.703 3.161 1.254l-.75 2.907c-.302 1.172.666 2.28 1.865 2.133l1.339-.164c1.861-.228 2.68 2.272 1.048 3.2l-1.257.715c-1.14.649-1.166 2.286-.046 2.965l1.683 1.021c1.687 1.023.593 3.625-1.317 3.137l-3.772-.964a1.72 1.72 0 0 0-2.142 1.639l-.008.422c-.032 1.792-2.437 2.351-3.245.753l-.843-1.666a1.71 1.71 0 0 0-2.136-.827l-3.72 1.415c-1.869.711-3.23-1.81-1.615-2.994l1.47-1.077c1.042-.764.905-2.361-.251-2.93l-1.255-.617c-1.649-.812-1.035-3.305.804-3.261l1.499.035c1.222.03 2.084-1.195 1.646-2.337l-.302-.788c-.649-1.695 1.43-3.115 2.764-1.887l1.202 1.107c.818.753 2.125.537 2.663-.44l1.515-2.751z"/><path id="K" d="M190.09 177.488h-14.66-3.499s-13.8-72.126-.802-106.452c1.915-5.058 3.677-7.712 6.3-10.171 2.46-2.307 4.668-2.109 7.152 0 2.795 2.373 4.651 6.367 6.726 11.991 10.61 28.742-1.217 104.632-1.217 104.632z"/><path id="L" d="M279.259 183.09l-11.271-9.375-2.69-2.237s35.511-64.277 67.454-82.356c4.707-2.664 7.758-3.578 11.347-3.792 3.367-.2 4.938 1.363 5.499 4.574.632 3.612-.496 7.869-2.496 13.52-10.223 28.882-67.843 79.666-67.843 79.666z"/></defs></svg>