<svg xmlns="http://www.w3.org/2000/svg" width="500" height="500" fill="none" xmlns:v="https://vecta.io/nano"><g clip-path="url(#A)"><path d="M14 391.671V126.33L99.338 54H372.65v246.858V446.67h-84.388-130.596H14v-54.999z" fill="#fff"/><path d="M14 126.33v265.341 54.999h143.666 130.596 84.388V300.858 54H99.338M14 126.33L99.338 54M14 126.33h85.338V54" stroke="#000" stroke-width="10"/><g fill="#000"><use href="#B"/><use href="#C"/><path d="M144.549 188.4c-.48 0-.88-.14-1.2-.42-.64-.52-.82-1.18-.54-1.98 0-.04.14-.52.42-1.44l1.08-3.12.54-1.74.42-1.38-3.96 1.5-4.92 1.8-4.92 1.86c-.44.16-.88.14-1.32-.06-.48-.24-.82-.6-1.02-1.08-.16-.44-.12-.88.12-1.32.2-.48.54-.82 1.02-1.02l5.58-1.98 5.34-1.98 4.02-1.56 1.56-.6c.2-.04.4-.06.6-.06.2-.04.38-.02.54.06.56.08.96.4 1.2.96.2.32.28.74.24 1.26 0 .48-.1 1.18-.3 2.1l-.48 1.74-.66 2.1-.12.42-.12.42c1.6-.88 3.56-1.8 5.88-2.76.44-.2.88-.2 1.32 0 .48.16.8.46.96.9.24.44.26.9.06 1.38s-.52.82-.96 1.02l-4.86 2.28-3.36 1.74-1.26.66c-.24.2-.54.3-.9.3z"/><path d="M175.249 187.8c-.28 0-.54-.04-.78-.12-.76-.16-1.3-.62-1.62-1.38-.24-.68-.18-1.44.18-2.28.4-.84.92-1.78 1.56-2.82l.66-1.08.6-1.08.18-.3a2.33 2.33 0 0 1 .12-.3c-1.2-.2-2.6-.24-4.2-.12-1.56.08-3.32.38-5.28.9-1.72.44-3.58 1.02-5.58 1.74l-6.24 2.46c-.44.16-.88.16-1.32 0s-.76-.46-.96-.9c-.24-.44-.26-.9-.06-1.38.2-.52.52-.86.96-1.02l6.42-2.58c2.08-.76 4.04-1.36 5.88-1.8 4.92-1.24 8.94-1.44 12.06-.6.92.24 1.56.8 1.92 1.68s.28 1.86-.24 2.94-1.14 2.2-1.86 3.36c-.04.08-.1.18-.18.3s-.16.26-.24.42c.92-.2 2.28-.6 4.08-1.2s4.28-1.48 7.44-2.64c.44-.16.88-.12 1.32.12.48.2.8.54.96 1.02a1.66 1.66 0 0 1 0 1.38c-.2.44-.56.76-1.08.96l-5.04 1.74c-1.52.52-2.88.96-4.08 1.32-1.6.48-2.82.82-3.66 1.02-.84.16-1.48.24-1.92.24z"/><path d="M203.201 188.4c-.48 0-.88-.14-1.2-.42-.64-.52-.82-1.18-.54-1.98 0-.04.14-.52.42-1.44l1.08-3.12.54-1.74.42-1.38-3.96 1.5-4.92 1.8-4.92 1.86c-.44.16-.88.14-1.32-.06-.48-.24-.82-.6-1.02-1.08-.16-.44-.12-.88.12-1.32.2-.48.54-.82 1.02-1.02l5.58-1.98 5.34-1.98 4.02-1.56 1.56-.6c.2-.04.4-.06.6-.06.2-.04.38-.02.54.06.56.08.96.4 1.2.96.2.32.28.74.24 1.26 0 .48-.1 1.18-.3 2.1l-.48 1.74-.66 2.1-.12.42-.12.42c1.6-.88 3.56-1.8 5.88-2.76.44-.2.88-.2 1.32 0 .48.16.8.46.96.9.24.44.26.9.06 1.38s-.52.82-.96 1.02l-4.86 2.28-3.36 1.74-1.26.66c-.24.2-.54.3-.9.3z"/><use href="#D"/><path d="M287.635 188.4c-.48 0-.88-.14-1.2-.42-.64-.52-.82-1.18-.54-1.98 0-.04.14-.52.42-1.44l1.08-3.12.54-1.74.42-1.38-3.96 1.5-4.92 1.8-4.92 1.86c-.44.16-.88.14-1.32-.06-.48-.24-.82-.6-1.02-1.08-.16-.44-.12-.88.12-1.32.2-.48.54-.82 1.02-1.02l5.58-1.98 5.34-1.98 4.02-1.56 1.56-.6c.2-.04.4-.06.6-.06.2-.04.38-.02.54.06.56.08.96.4 1.2.96.2.32.28.74.24 1.26 0 .48-.1 1.18-.3 2.1l-.48 1.74-.66 2.1-.12.42-.12.42c1.6-.88 3.56-1.8 5.88-2.76.44-.2.88-.2 1.32 0 .48.16.8.46.96.9.24.44.26.9.06 1.38s-.52.82-.96 1.02l-4.86 2.28-3.36 1.74-1.26.66c-.24.2-.54.3-.9.3zm-148.246 63.42c-.28 0-.56-.04-.84-.12l-.84-.12c-.72-.2-1.22-.62-1.5-1.26-.36-.8-.36-1.76 0-2.88.4-1.16 1.04-2.64 1.92-4.44l.48-1.08.54-1.14c-.52.2-1.08.54-1.68 1.02l-1.74 1.38c-.4.28-.84.4-1.32.36-.52-.08-.94-.3-1.26-.66-.28-.4-.38-.84-.3-1.32a1.97 1.97 0 0 1 .6-1.26l1.74-1.32a12.61 12.61 0 0 1 1.92-1.2c1.64-.84 3.14-1.06 4.5-.66.64.12 1.12.52 1.44 1.2.32.64.3 1.44-.06 2.4-.32.96-.88 2.26-1.68 3.9l-.66 1.44-.6 1.38c-.04.16-.1.3-.18.42l-.12.36c.84-.12 2.06-.54 3.66-1.26 1.64-.76 3.84-2.24 6.6-4.44l4.02-3.36 2.88-2.76 1.08-1.08c.48-.56 1.06-.74 1.74-.54.32.04.58.18.78.42.2.2.36.4.48.6.28.56.3 1.22.06 1.98-.2.72-.64 1.9-1.32 3.54l-.72 1.56-.6 1.44-.12.42c0 .08-.02.16-.06.24.76-.12 1.56-.44 2.4-.96.88-.56 1.72-1.18 2.52-1.86l2.1-1.74c.4-.36.84-.52 1.32-.48a1.97 1.97 0 0 1 1.26.6c.32.4.46.84.42 1.32 0 .48-.2.9-.6 1.26l-3.84 3.06c-1.28.96-2.58 1.68-3.9 2.16a6.82 6.82 0 0 1-3.9.18c-.64-.28-1.1-.68-1.38-1.2-.24-.56-.32-1.18-.24-1.86.12-.68.36-1.52.72-2.52l-1.38 1.14-1.44 1.2c-5.52 4.36-9.82 6.54-12.9 6.54z"/><use href="#E"/><path d="M204.106 247.8c-.28 0-.54-.04-.78-.12-.76-.16-1.3-.62-1.62-1.38-.24-.68-.18-1.44.18-2.28.4-.84.92-1.78 1.56-2.82l.66-1.08.6-1.08.18-.3a2.33 2.33 0 0 1 .12-.3c-1.2-.2-2.6-.24-4.2-.12-1.56.08-3.32.38-5.28.9-1.72.44-3.58 1.02-5.58 1.74l-6.24 2.46c-.44.16-.88.16-1.32 0s-.76-.46-.96-.9c-.24-.44-.26-.9-.06-1.38.2-.52.52-.86.96-1.02l6.42-2.58c2.08-.76 4.04-1.36 5.88-1.8 4.92-1.24 8.94-1.44 12.06-.6.92.24 1.56.8 1.92 1.68s.28 1.86-.24 2.94-1.14 2.2-1.86 3.36c-.04.08-.1.18-.18.3s-.16.26-.24.42c.92-.2 2.28-.6 4.08-1.2s4.28-1.48 7.44-2.64c.44-.16.88-.12 1.32.12.48.2.8.54.96 1.02a1.66 1.66 0 0 1 0 1.38c-.2.44-.56.76-1.08.96l-5.04 1.74c-1.52.52-2.88.96-4.08 1.32-1.6.48-2.82.82-3.66 1.02-.84.16-1.48.24-1.92.24z"/><path d="M226.358 246.6a1.56 1.56 0 0 1-.48-.06c-.64-.16-1.1-.4-1.38-.72-.24-.36-.4-.64-.48-.84-.28-.88-.18-1.78.3-2.7.48-.96 1.1-1.96 1.86-3 .24-.32.46-.66.66-1.02l.6-1.02c.04-.04.1-.12.18-.24a10.42 10.42 0 0 0-.9.36c-.32.16-.7.4-1.14.72-.72.44-1.48 1.02-2.28 1.74l-2.46 2.16-.66.54-.6.6c-.36.32-.78.48-1.26.48-.52-.04-.94-.26-1.26-.66-.36-.36-.52-.78-.48-1.26a1.8 1.8 0 0 1 .6-1.26l.66-.6c.2-.2.4-.38.6-.54l3.78-3.18c1.24-1 2.46-1.76 3.66-2.28s2.36-.62 3.48-.3c.68.16 1.16.44 1.44.84.32.36.5.68.54.96.36.88.28 1.82-.24 2.82-.52.96-1.18 2.02-1.98 3.18-.08.08-.18.22-.3.42-.08.16-.18.32-.3.48l2.34-.9 3.48-1.32c.52-.16 1-.12 1.44.12.44.2.74.54.9 1.02.2.44.18.9-.06 1.38-.2.44-.52.76-.96.96l-3.48 1.2-2.64.96-1.08.42-.78.24-.72.24c-.2.04-.4.06-.6.06zm-114.449 65.22c-.28 0-.56-.04-.84-.12l-.84-.12c-.72-.2-1.22-.62-1.5-1.26-.36-.8-.36-1.76 0-2.88.4-1.16 1.04-2.64 1.92-4.44l.48-1.08.54-1.14c-.52.2-1.08.54-1.68 1.02l-1.74 1.38c-.4.28-.84.4-1.32.36-.52-.08-.94-.3-1.26-.66-.28-.4-.38-.84-.3-1.32a1.97 1.97 0 0 1 .6-1.26l1.74-1.32a12.61 12.61 0 0 1 1.92-1.2c1.64-.84 3.14-1.06 4.5-.66.64.12 1.12.52 1.44 1.2.32.64.3 1.44-.06 2.4-.32.96-.88 2.26-1.68 3.9l-.66 1.44-.6 1.38c-.04.16-.1.3-.18.42l-.12.36c.84-.12 2.06-.54 3.66-1.26 1.64-.76 3.84-2.24 6.6-4.44l4.02-3.36 2.88-2.76 1.08-1.08c.48-.56 1.06-.74 1.74-.54.32.04.58.18.78.42.2.2.36.4.48.6.28.56.3 1.22.06 1.98-.2.72-.64 1.9-1.32 3.54l-.72 1.56-.6 1.44-.12.42c0 .08-.02.16-.06.24.76-.12 1.56-.44 2.4-.96.88-.56 1.72-1.18 2.52-1.86l2.1-1.74c.4-.36.84-.52 1.32-.48a1.97 1.97 0 0 1 1.26.6c.32.4.46.84.42 1.32 0 .48-.2.9-.6 1.26l-3.84 3.06c-1.28.96-2.58 1.68-3.9 2.16a6.82 6.82 0 0 1-3.9.18c-.64-.28-1.1-.68-1.38-1.2-.24-.56-.32-1.18-.24-1.86.12-.68.36-1.52.72-2.52l-1.38 1.14-1.44 1.2c-5.52 4.36-9.82 6.54-12.9 6.54z"/><path d="M147.022 306.6a1.56 1.56 0 0 1-.48-.06c-.64-.16-1.1-.4-1.38-.72-.24-.36-.4-.64-.48-.84-.28-.88-.18-1.78.3-2.7.48-.96 1.1-1.96 1.86-3 .24-.32.46-.66.66-1.02l.6-1.02c.04-.04.1-.12.18-.24a10.42 10.42 0 0 0-.9.36c-.32.16-.7.4-1.14.72-.72.44-1.48 1.02-2.28 1.74l-2.46 2.16-.66.54-.6.6c-.36.32-.78.48-1.26.48-.52-.04-.94-.26-1.26-.66-.36-.36-.52-.78-.48-1.26a1.8 1.8 0 0 1 .6-1.26l.66-.6c.2-.2.4-.38.6-.54l3.78-3.18c1.24-1 2.46-1.76 3.66-2.28s2.36-.62 3.48-.3c.68.16 1.16.44 1.44.84.32.36.5.68.54.96.36.88.28 1.82-.24 2.82-.52.96-1.18 2.02-1.98 3.18-.08.08-.18.22-.3.42-.08.16-.18.32-.3.48l2.34-.9 3.48-1.32c.52-.16 1-.12 1.44.12.44.2.74.54.9 1.02.2.44.18.9-.06 1.38-.2.44-.52.76-.96.96l-3.48 1.2-2.64.96-1.08.42-.78.24-.72.24c-.2.04-.4.06-.6.06z"/><path d="M160.366 311.82c-.28 0-.56-.04-.84-.12l-.84-.12c-.72-.2-1.22-.62-1.5-1.26-.36-.8-.36-1.76 0-2.88.4-1.16 1.04-2.64 1.92-4.44l.48-1.08.54-1.14c-.52.2-1.08.54-1.68 1.02l-1.74 1.38c-.4.28-.84.4-1.32.36-.52-.08-.94-.3-1.26-.66-.28-.4-.38-.84-.3-1.32a1.97 1.97 0 0 1 .6-1.26l1.74-1.32a12.61 12.61 0 0 1 1.92-1.2c1.64-.84 3.14-1.06 4.5-.66.64.12 1.12.52 1.44 1.2.32.64.3 1.44-.06 2.4-.32.96-.88 2.26-1.68 3.9l-.66 1.44-.6 1.38c-.04.16-.1.3-.18.42l-.12.36c.84-.12 2.06-.54 3.66-1.26 1.64-.76 3.84-2.24 6.6-4.44l4.02-3.36 2.88-2.76 1.08-1.08c.48-.56 1.06-.74 1.74-.54.32.04.58.18.78.42.2.2.36.4.48.6.28.56.3 1.22.06 1.98-.2.72-.64 1.9-1.32 3.54l-.72 1.56-.6 1.44-.12.42c0 .08-.02.16-.06.24.76-.12 1.56-.44 2.4-.96.88-.56 1.72-1.18 2.52-1.86l2.1-1.74c.4-.36.84-.52 1.32-.48a1.97 1.97 0 0 1 1.26.6c.32.4.46.84.42 1.32 0 .48-.2.9-.6 1.26l-3.84 3.06c-1.28.96-2.58 1.68-3.9 2.16a6.82 6.82 0 0 1-3.9.18c-.64-.28-1.1-.68-1.38-1.2-.24-.56-.32-1.18-.24-1.86.12-.68.36-1.52.72-2.52l-1.38 1.14-1.44 1.2c-5.52 4.36-9.82 6.54-12.9 6.54z"/><path d="M195.479 306.6a1.56 1.56 0 0 1-.48-.06c-.64-.16-1.1-.4-1.38-.72-.24-.36-.4-.64-.48-.84-.28-.88-.18-1.78.3-2.7.48-.96 1.1-1.96 1.86-3 .24-.32.46-.66.66-1.02l.6-1.02c.04-.04.1-.12.18-.24a10.42 10.42 0 0 0-.9.36c-.32.16-.7.4-1.14.72-.72.44-1.48 1.02-2.28 1.74l-2.46 2.16-.66.54-.6.6c-.36.32-.78.48-1.26.48-.52-.04-.94-.26-1.26-.66-.36-.36-.52-.78-.48-1.26a1.8 1.8 0 0 1 .6-1.26l.66-.6c.2-.2.4-.38.6-.54l3.78-3.18c1.24-1 2.46-1.76 3.66-2.28s2.36-.62 3.48-.3c.68.16 1.16.44 1.44.84.32.36.5.68.54.96.36.88.28 1.82-.24 2.82-.52.96-1.18 2.02-1.98 3.18-.08.08-.18.22-.3.42-.08.16-.18.32-.3.48l2.34-.9 3.48-1.32c.52-.16 1-.12 1.44.12.44.2.74.54.9 1.02.2.44.18.9-.06 1.38-.2.44-.52.76-.96.96l-3.48 1.2-2.64.96-1.08.42-.78.24-.72.24c-.2.04-.4.06-.6.06z"/></g><g stroke="#000" stroke-width="3"><use href="#B"/><use href="#C"/><path d="M144.549 188.4c-.48 0-.88-.14-1.2-.42-.64-.52-.82-1.18-.54-1.98 0-.04.14-.52.42-1.44l1.08-3.12.54-1.74.42-1.38-3.96 1.5-4.92 1.8-4.92 1.86c-.44.16-.88.14-1.32-.06-.48-.24-.82-.6-1.02-1.08-.16-.44-.12-.88.12-1.32.2-.48.54-.82 1.02-1.02l5.58-1.98 5.34-1.98 4.02-1.56 1.56-.6c.2-.04.4-.06.6-.06.2-.04.38-.02.54.06.56.08.96.4 1.2.96.2.32.28.74.24 1.26 0 .48-.1 1.18-.3 2.1l-.48 1.74-.66 2.1-.12.42-.12.42c1.6-.88 3.56-1.8 5.88-2.76.44-.2.88-.2 1.32 0 .48.16.8.46.96.9.24.44.26.9.06 1.38s-.52.82-.96 1.02l-4.86 2.28-3.36 1.74-1.26.66c-.24.2-.54.3-.9.3z"/><path d="M175.249 187.8c-.28 0-.54-.04-.78-.12-.76-.16-1.3-.62-1.62-1.38-.24-.68-.18-1.44.18-2.28.4-.84.92-1.78 1.56-2.82l.66-1.08.6-1.08.18-.3a2.33 2.33 0 0 1 .12-.3c-1.2-.2-2.6-.24-4.2-.12-1.56.08-3.32.38-5.28.9-1.72.44-3.58 1.02-5.58 1.74l-6.24 2.46c-.44.16-.88.16-1.32 0s-.76-.46-.96-.9c-.24-.44-.26-.9-.06-1.38.2-.52.52-.86.96-1.02l6.42-2.58c2.08-.76 4.04-1.36 5.88-1.8 4.92-1.24 8.94-1.44 12.06-.6.92.24 1.56.8 1.92 1.68s.28 1.86-.24 2.94-1.14 2.2-1.86 3.36c-.04.08-.1.18-.18.3s-.16.26-.24.42c.92-.2 2.28-.6 4.08-1.2s4.28-1.48 7.44-2.64c.44-.16.88-.12 1.32.12.48.2.8.54.96 1.02a1.66 1.66 0 0 1 0 1.38c-.2.44-.56.76-1.08.96l-5.04 1.74c-1.52.52-2.88.96-4.08 1.32-1.6.48-2.82.82-3.66 1.02-.84.16-1.48.24-1.92.24z"/><path d="M203.201 188.4c-.48 0-.88-.14-1.2-.42-.64-.52-.82-1.18-.54-1.98 0-.04.14-.52.42-1.44l1.08-3.12.54-1.74.42-1.38-3.96 1.5-4.92 1.8-4.92 1.86c-.44.16-.88.14-1.32-.06-.48-.24-.82-.6-1.02-1.08-.16-.44-.12-.88.12-1.32.2-.48.54-.82 1.02-1.02l5.58-1.98 5.34-1.98 4.02-1.56 1.56-.6c.2-.04.4-.06.6-.06.2-.04.38-.02.54.06.56.08.96.4 1.2.96.2.32.28.74.24 1.26 0 .48-.1 1.18-.3 2.1l-.48 1.74-.66 2.1-.12.42-.12.42c1.6-.88 3.56-1.8 5.88-2.76.44-.2.88-.2 1.32 0 .48.16.8.46.96.9.24.44.26.9.06 1.38s-.52.82-.96 1.02l-4.86 2.28-3.36 1.74-1.26.66c-.24.2-.54.3-.9.3z"/><use href="#D"/><path d="M287.635 188.4c-.48 0-.88-.14-1.2-.42-.64-.52-.82-1.18-.54-1.98 0-.04.14-.52.42-1.44l1.08-3.12.54-1.74.42-1.38-3.96 1.5-4.92 1.8-4.92 1.86c-.44.16-.88.14-1.32-.06-.48-.24-.82-.6-1.02-1.08-.16-.44-.12-.88.12-1.32.2-.48.54-.82 1.02-1.02l5.58-1.98 5.34-1.98 4.02-1.56 1.56-.6c.2-.04.4-.06.6-.06.2-.04.38-.02.54.06.56.08.96.4 1.2.96.2.32.28.74.24 1.26 0 .48-.1 1.18-.3 2.1l-.48 1.74-.66 2.1-.12.42-.12.42c1.6-.88 3.56-1.8 5.88-2.76.44-.2.88-.2 1.32 0 .48.16.8.46.96.9.24.44.26.9.06 1.38s-.52.82-.96 1.02l-4.86 2.28-3.36 1.74-1.26.66c-.24.2-.54.3-.9.3zm-148.246 63.42c-.28 0-.56-.04-.84-.12l-.84-.12c-.72-.2-1.22-.62-1.5-1.26-.36-.8-.36-1.76 0-2.88.4-1.16 1.04-2.64 1.92-4.44l.48-1.08.54-1.14c-.52.2-1.08.54-1.68 1.02l-1.74 1.38c-.4.28-.84.4-1.32.36-.52-.08-.94-.3-1.26-.66-.28-.4-.38-.84-.3-1.32a1.97 1.97 0 0 1 .6-1.26l1.74-1.32a12.61 12.61 0 0 1 1.92-1.2c1.64-.84 3.14-1.06 4.5-.66.64.12 1.12.52 1.44 1.2.32.64.3 1.44-.06 2.4-.32.96-.88 2.26-1.68 3.9l-.66 1.44-.6 1.38c-.04.16-.1.3-.18.42l-.12.36c.84-.12 2.06-.54 3.66-1.26 1.64-.76 3.84-2.24 6.6-4.44l4.02-3.36 2.88-2.76 1.08-1.08c.48-.56 1.06-.74 1.74-.54.32.04.58.18.78.42.2.2.36.4.48.6.28.56.3 1.22.06 1.98-.2.72-.64 1.9-1.32 3.54l-.72 1.56-.6 1.44-.12.42c0 .08-.02.16-.06.24.76-.12 1.56-.44 2.4-.96.88-.56 1.72-1.18 2.52-1.86l2.1-1.74c.4-.36.84-.52 1.32-.48a1.97 1.97 0 0 1 1.26.6c.32.4.46.84.42 1.32 0 .48-.2.9-.6 1.26l-3.84 3.06c-1.28.96-2.58 1.68-3.9 2.16a6.82 6.82 0 0 1-3.9.18c-.64-.28-1.1-.68-1.38-1.2-.24-.56-.32-1.18-.24-1.86.12-.68.36-1.52.72-2.52l-1.38 1.14-1.44 1.2c-5.52 4.36-9.82 6.54-12.9 6.54z"/><use href="#E"/><path d="M204.106 247.8c-.28 0-.54-.04-.78-.12-.76-.16-1.3-.62-1.62-1.38-.24-.68-.18-1.44.18-2.28.4-.84.92-1.78 1.56-2.82l.66-1.08.6-1.08.18-.3a2.33 2.33 0 0 1 .12-.3c-1.2-.2-2.6-.24-4.2-.12-1.56.08-3.32.38-5.28.9-1.72.44-3.58 1.02-5.58 1.74l-6.24 2.46c-.44.16-.88.16-1.32 0s-.76-.46-.96-.9c-.24-.44-.26-.9-.06-1.38.2-.52.52-.86.96-1.02l6.42-2.58c2.08-.76 4.04-1.36 5.88-1.8 4.92-1.24 8.94-1.44 12.06-.6.92.24 1.56.8 1.92 1.68s.28 1.86-.24 2.94-1.14 2.2-1.86 3.36c-.04.08-.1.18-.18.3s-.16.26-.24.42c.92-.2 2.28-.6 4.08-1.2s4.28-1.48 7.44-2.64c.44-.16.88-.12 1.32.12.48.2.8.54.96 1.02a1.66 1.66 0 0 1 0 1.38c-.2.44-.56.76-1.08.96l-5.04 1.74c-1.52.52-2.88.96-4.08 1.32-1.6.48-2.82.82-3.66 1.02-.84.16-1.48.24-1.92.24z"/><path d="M226.358 246.6a1.56 1.56 0 0 1-.48-.06c-.64-.16-1.1-.4-1.38-.72-.24-.36-.4-.64-.48-.84-.28-.88-.18-1.78.3-2.7.48-.96 1.1-1.96 1.86-3 .24-.32.46-.66.66-1.02l.6-1.02c.04-.04.1-.12.18-.24a10.42 10.42 0 0 0-.9.36c-.32.16-.7.4-1.14.72-.72.44-1.48 1.02-2.28 1.74l-2.46 2.16-.66.54-.6.6c-.36.32-.78.48-1.26.48-.52-.04-.94-.26-1.26-.66-.36-.36-.52-.78-.48-1.26a1.8 1.8 0 0 1 .6-1.26l.66-.6c.2-.2.4-.38.6-.54l3.78-3.18c1.24-1 2.46-1.76 3.66-2.28s2.36-.62 3.48-.3c.68.16 1.16.44 1.44.84.32.36.5.68.54.96.36.88.28 1.82-.24 2.82-.52.96-1.18 2.02-1.98 3.18-.08.08-.18.22-.3.42-.08.16-.18.32-.3.48l2.34-.9 3.48-1.32c.52-.16 1-.12 1.44.12.44.2.74.54.9 1.02.2.44.18.9-.06 1.38-.2.44-.52.76-.96.96l-3.48 1.2-2.64.96-1.08.42-.78.24-.72.24c-.2.04-.4.06-.6.06zm-114.449 65.22c-.28 0-.56-.04-.84-.12l-.84-.12c-.72-.2-1.22-.62-1.5-1.26-.36-.8-.36-1.76 0-2.88.4-1.16 1.04-2.64 1.92-4.44l.48-1.08.54-1.14c-.52.2-1.08.54-1.68 1.02l-1.74 1.38c-.4.28-.84.4-1.32.36-.52-.08-.94-.3-1.26-.66-.28-.4-.38-.84-.3-1.32a1.97 1.97 0 0 1 .6-1.26l1.74-1.32a12.61 12.61 0 0 1 1.92-1.2c1.64-.84 3.14-1.06 4.5-.66.64.12 1.12.52 1.44 1.2.32.64.3 1.44-.06 2.4-.32.96-.88 2.26-1.68 3.9l-.66 1.44-.6 1.38c-.04.16-.1.3-.18.42l-.12.36c.84-.12 2.06-.54 3.66-1.26 1.64-.76 3.84-2.24 6.6-4.44l4.02-3.36 2.88-2.76 1.08-1.08c.48-.56 1.06-.74 1.74-.54.32.04.58.18.78.42.2.2.36.4.48.6.28.56.3 1.22.06 1.98-.2.72-.64 1.9-1.32 3.54l-.72 1.56-.6 1.44-.12.42c0 .08-.02.16-.06.24.76-.12 1.56-.44 2.4-.96.88-.56 1.72-1.18 2.52-1.86l2.1-1.74c.4-.36.84-.52 1.32-.48a1.97 1.97 0 0 1 1.26.6c.32.4.46.84.42 1.32 0 .48-.2.9-.6 1.26l-3.84 3.06c-1.28.96-2.58 1.68-3.9 2.16a6.82 6.82 0 0 1-3.9.18c-.64-.28-1.1-.68-1.38-1.2-.24-.56-.32-1.18-.24-1.86.12-.68.36-1.52.72-2.52l-1.38 1.14-1.44 1.2c-5.52 4.36-9.82 6.54-12.9 6.54z"/><path d="M147.022 306.6a1.56 1.56 0 0 1-.48-.06c-.64-.16-1.1-.4-1.38-.72-.24-.36-.4-.64-.48-.84-.28-.88-.18-1.78.3-2.7.48-.96 1.1-1.96 1.86-3 .24-.32.46-.66.66-1.02l.6-1.02c.04-.04.1-.12.18-.24a10.42 10.42 0 0 0-.9.36c-.32.16-.7.4-1.14.72-.72.44-1.48 1.02-2.28 1.74l-2.46 2.16-.66.54-.6.6c-.36.32-.78.48-1.26.48-.52-.04-.94-.26-1.26-.66-.36-.36-.52-.78-.48-1.26a1.8 1.8 0 0 1 .6-1.26l.66-.6c.2-.2.4-.38.6-.54l3.78-3.18c1.24-1 2.46-1.76 3.66-2.28s2.36-.62 3.48-.3c.68.16 1.16.44 1.44.84.32.36.5.68.54.96.36.88.28 1.82-.24 2.82-.52.96-1.18 2.02-1.98 3.18-.08.08-.18.22-.3.42-.08.16-.18.32-.3.48l2.34-.9 3.48-1.32c.52-.16 1-.12 1.44.12.44.2.74.54.9 1.02.2.44.18.9-.06 1.38-.2.44-.52.76-.96.96l-3.48 1.2-2.64.96-1.08.42-.78.24-.72.24c-.2.04-.4.06-.6.06z"/><path d="M160.366 311.82c-.28 0-.56-.04-.84-.12l-.84-.12c-.72-.2-1.22-.62-1.5-1.26-.36-.8-.36-1.76 0-2.88.4-1.16 1.04-2.64 1.92-4.44l.48-1.08.54-1.14c-.52.2-1.08.54-1.68 1.02l-1.74 1.38c-.4.28-.84.4-1.32.36-.52-.08-.94-.3-1.26-.66-.28-.4-.38-.84-.3-1.32a1.97 1.97 0 0 1 .6-1.26l1.74-1.32a12.61 12.61 0 0 1 1.92-1.2c1.64-.84 3.14-1.06 4.5-.66.64.12 1.12.52 1.44 1.2.32.64.3 1.44-.06 2.4-.32.96-.88 2.26-1.68 3.9l-.66 1.44-.6 1.38c-.04.16-.1.3-.18.42l-.12.36c.84-.12 2.06-.54 3.66-1.26 1.64-.76 3.84-2.24 6.6-4.44l4.02-3.36 2.88-2.76 1.08-1.08c.48-.56 1.06-.74 1.74-.54.32.04.58.18.78.42.2.2.36.4.48.6.28.56.3 1.22.06 1.98-.2.72-.64 1.9-1.32 3.54l-.72 1.56-.6 1.44-.12.42c0 .08-.02.16-.06.24.76-.12 1.56-.44 2.4-.96.88-.56 1.72-1.18 2.52-1.86l2.1-1.74c.4-.36.84-.52 1.32-.48a1.97 1.97 0 0 1 1.26.6c.32.4.46.84.42 1.32 0 .48-.2.9-.6 1.26l-3.84 3.06c-1.28.96-2.58 1.68-3.9 2.16a6.82 6.82 0 0 1-3.9.18c-.64-.28-1.1-.68-1.38-1.2-.24-.56-.32-1.18-.24-1.86.12-.68.36-1.52.72-2.52l-1.38 1.14-1.44 1.2c-5.52 4.36-9.82 6.54-12.9 6.54z"/><path d="M195.479 306.6a1.56 1.56 0 0 1-.48-.06c-.64-.16-1.1-.4-1.38-.72-.24-.36-.4-.64-.48-.84-.28-.88-.18-1.78.3-2.7.48-.96 1.1-1.96 1.86-3 .24-.32.46-.66.66-1.02l.6-1.02c.04-.04.1-.12.18-.24a10.42 10.42 0 0 0-.9.36c-.32.16-.7.4-1.14.72-.72.44-1.48 1.02-2.28 1.74l-2.46 2.16-.66.54-.6.6c-.36.32-.78.48-1.26.48-.52-.04-.94-.26-1.26-.66-.36-.36-.52-.78-.48-1.26a1.8 1.8 0 0 1 .6-1.26l.66-.6c.2-.2.4-.38.6-.54l3.78-3.18c1.24-1 2.46-1.76 3.66-2.28s2.36-.62 3.48-.3c.68.16 1.16.44 1.44.84.32.36.5.68.54.96.36.88.28 1.82-.24 2.82-.52.96-1.18 2.02-1.98 3.18-.08.08-.18.22-.3.42-.08.16-.18.32-.3.48l2.34-.9 3.48-1.32c.52-.16 1-.12 1.44.12.44.2.74.54.9 1.02.2.44.18.9-.06 1.38-.2.44-.52.76-.96.96l-3.48 1.2-2.64.96-1.08.42-.78.24-.72.24c-.2.04-.4.06-.6.06z"/></g><path d="M262.914 221.255l169.367-115.793 35.073 47.472-171.328 123.027-81.599 21.83 21.115-33.33 27.372-43.206z" fill="#fff"/><path d="M262.914 221.255l169.367-115.793 35.073 47.472-171.328 123.027m-33.112-54.706l20.732 3.942-4.176 23.411 20.732 3.942-4.176 23.411m-33.112-54.706l-27.372 43.206-21.115 33.33 81.599-21.83" stroke="#000" stroke-width="10" stroke-linecap="round"/><path d="M228.663 271.716l-20.492 28.076c-1.154 1.581.342 3.761 2.169 3.161l34.029-11.17c1.328-.435 1.807-2.12.918-3.23l-13.537-16.907a1.93 1.93 0 0 0-3.087.07z" fill="#000"/><g stroke="#000" stroke-width="10"><path d="M468.121 152.388l-35.407-47.1 27.949-20.005 33.544 48.553-26.086 18.553z" fill="#fff"/><g stroke-linecap="round"><path d="M283.646 225.197l159.564-105.9M300.202 252.55l158.576-111.62"/></g></g></g><defs><clipPath id="A"><path fill="#fff" d="M0 0h500v500H0z"/></clipPath><path id="B" d="M93.276 187.8c-.28 0-.54-.04-.78-.12-.76-.16-1.3-.62-1.62-1.38-.24-.68-.18-1.44.18-2.28.4-.84.92-1.78 1.56-2.82l.66-1.08.6-1.08.18-.3a2.33 2.33 0 0 1 .12-.3c-1.2-.2-2.6-.24-4.2-.12-1.56.08-3.32.38-5.28.9-1.72.44-3.58 1.02-5.58 1.74l-6.24 2.46c-.44.16-.88.16-1.32 0s-.76-.46-.96-.9c-.24-.44-.26-.9-.06-1.38.2-.52.52-.86.96-1.02l6.42-2.58c2.08-.76 4.04-1.36 5.88-1.8 4.92-1.24 8.94-1.44 12.06-.6.92.24 1.56.8 1.92 1.68s.28 1.86-.24 2.94-1.14 2.2-1.86 3.36c-.04.08-.1.18-.18.3s-.16.26-.24.42c.92-.2 2.28-.6 4.08-1.2s4.28-1.48 7.44-2.64c.44-.16.88-.12 1.32.12.48.2.8.54.96 1.02a1.66 1.66 0 0 1 0 1.38c-.2.44-.56.76-1.08.96l-5.04 1.74c-1.52.52-2.88.96-4.08 1.32-1.6.48-2.82.82-3.66 1.02-.84.16-1.48.24-1.92.24z"/><path id="C" d="M121.228 188.4c-.48 0-.88-.14-1.2-.42-.64-.52-.82-1.18-.54-1.98 0-.04.14-.52.42-1.44l1.08-3.12.54-1.74.42-1.38-3.96 1.5-4.92 1.8-4.92 1.86c-.44.16-.88.14-1.32-.06-.48-.24-.82-.6-1.02-1.08-.16-.44-.12-.88.12-1.32.2-.48.54-.82 1.02-1.02l5.58-1.98 5.34-1.98 4.02-1.56 1.56-.6c.2-.04.4-.06.6-.06.2-.04.38-.02.54.06.56.08.96.4 1.2.96.2.32.28.74.24 1.26 0 .48-.1 1.18-.3 2.1l-.48 1.74-.66 2.1-.12.42-.12.42c1.6-.88 3.56-1.8 5.88-2.76.44-.2.88-.2 1.32 0 .48.16.8.46.96.9.24.44.26.9.06 1.38s-.52.82-.96 1.02l-4.86 2.28-3.36 1.74-1.26.66c-.24.2-.54.3-.9.3z"/><path id="D" d="M246.821 191.82c-.28 0-.56-.04-.84-.12l-.84-.12c-.72-.2-1.22-.62-1.5-1.26-.36-.8-.36-1.76 0-2.88.4-1.16 1.04-2.64 1.92-4.44l.48-1.08.54-1.14c-.52.2-1.08.54-1.68 1.02l-1.74 1.38c-.4.28-.84.4-1.32.36-.52-.08-.94-.3-1.26-.66-.28-.4-.38-.84-.3-1.32a1.97 1.97 0 0 1 .6-1.26l1.74-1.32a12.61 12.61 0 0 1 1.92-1.2c1.64-.84 3.14-1.06 4.5-.66.64.12 1.12.52 1.44 1.2.32.64.3 1.44-.06 2.4-.32.96-.88 2.26-1.68 3.9l-.66 1.44-.6 1.38c-.04.16-.1.3-.18.42l-.12.36c.84-.12 2.06-.54 3.66-1.26 1.64-.76 3.84-2.24 6.6-4.44l4.02-3.36 2.88-2.76 1.08-1.08c.48-.56 1.06-.74 1.74-.54.32.04.58.18.78.42.2.2.36.4.48.6.28.56.3 1.22.06 1.98-.2.72-.64 1.9-1.32 3.54l-.72 1.56-.6 1.44-.12.42c0 .08-.02.16-.06.24.76-.12 1.56-.44 2.4-.96.88-.56 1.72-1.18 2.52-1.86l2.1-1.74c.4-.36.84-.52 1.32-.48a1.97 1.97 0 0 1 1.26.6c.32.4.46.84.42 1.32 0 .48-.2.9-.6 1.26l-3.84 3.06c-1.28.96-2.58 1.68-3.9 2.16a6.82 6.82 0 0 1-3.9.18c-.64-.28-1.1-.68-1.38-1.2-.24-.56-.32-1.18-.24-1.86.12-.68.36-1.52.72-2.52l-1.38 1.14-1.44 1.2c-5.52 4.36-9.82 6.54-12.9 6.54z"/><path id="E" d="M174.503 246.6a1.56 1.56 0 0 1-.48-.06c-.64-.16-1.1-.4-1.38-.72-.24-.36-.4-.64-.48-.84-.28-.88-.18-1.78.3-2.7.48-.96 1.1-1.96 1.86-3 .24-.32.46-.66.66-1.02l.6-1.02c.04-.04.1-.12.18-.24a10.42 10.42 0 0 0-.9.36c-.32.16-.7.4-1.14.72-.72.44-1.48 1.02-2.28 1.74l-2.46 2.16-.66.54-.6.6c-.36.32-.78.48-1.26.48-.52-.04-.94-.26-1.26-.66-.36-.36-.52-.78-.48-1.26a1.8 1.8 0 0 1 .6-1.26l.66-.6c.2-.2.4-.38.6-.54l3.78-3.18c1.24-1 2.46-1.76 3.66-2.28s2.36-.62 3.48-.3c.68.16 1.16.44 1.44.84.32.36.5.68.54.96.36.88.28 1.82-.24 2.82-.52.96-1.18 2.02-1.98 3.18-.08.08-.18.22-.3.42-.08.16-.18.32-.3.48l2.34-.9 3.48-1.32c.52-.16 1-.12 1.44.12.44.2.74.54.9 1.02.2.44.18.9-.06 1.38-.2.44-.52.76-.96.96l-3.48 1.2-2.64.96-1.08.42-.78.24-.72.24c-.2.04-.4.06-.6.06z"/></defs></svg>