<?xml version="1.0" encoding="UTF-8" standalone="no"?>
<svg
   width="600"
   height="600"
   fill="none"
   stroke="#000"
   stroke-width="16"
   version="1.1"
   id="svg4354"
   sodipodi:docname="icono_pintar.svg"
   inkscape:version="1.1.2 (b8e25be833, 2022-02-05)"
   xmlns:inkscape="http://www.inkscape.org/namespaces/inkscape"
   xmlns:sodipodi="http://sodipodi.sourceforge.net/DTD/sodipodi-0.dtd"
   xmlns="http://www.w3.org/2000/svg"
   xmlns:svg="http://www.w3.org/2000/svg">
  <defs
     id="defs4358" />
  <sodipodi:namedview
     id="namedview4356"
     pagecolor="#ffffff"
     bordercolor="#666666"
     borderopacity="1.0"
     inkscape:pageshadow="2"
     inkscape:pageopacity="0.0"
     inkscape:pagecheckerboard="0"
     showgrid="false"
     inkscape:zoom="0.98287843"
     inkscape:cx="224.34107"
     inkscape:cy="271.65109"
     inkscape:window-width="1920"
     inkscape:window-height="1017"
     inkscape:window-x="-8"
     inkscape:window-y="-8"
     inkscape:window-maximized="1"
     inkscape:current-layer="svg4354" />
  <rect
     x="88"
     y="115.219"
     width="426.708"
     height="355.094"
     rx="25"
     fill="#fffbfb"
     id="rect4346" />
  <path
     d="M350.629 292.028c-5.854 6.545-11.992 11.306-20.394 14.94-6.754 2.922-15.239 5.231-26.643 6.969l.502-9.591.052-1.133c.261-5.632.5-9.987 1.125-13.917 1.157-7.273 3.649-13.284 11.363-21.91 11.904-13.309 18.529-15.975 21.96-16.224 3.413-.248 6.714 1.495 13.744 6.592 6.979 5.058 10.043 7.887 10.691 11.336.608 3.238-.626 9.773-12.4 22.938z"
     id="path4348" />
  <path
     d="M229.74 471.802l-48.178 92.448M301.354 61.646l.165 30.301m50.616 4.855l-102.864.022m134.114 374.978l42.743 95.082"
     stroke-linecap="round"
     id="path4350" />
  <path
     d="m 440.173,198.732 c -18.376,18.218 -32.361,31.109 -43.184,40.053 -10.927,9.031 -18.192,13.665 -23.144,15.806 -4.61,1.993 -6.261,1.444 -6.96,1.184 -1.455,-0.541 -2.616,-1.5 -5.224,-3.655 l -1.862,-1.533 -1.831,-1.484 c -2.707,-2.185 -4.251,-3.431 -5.318,-5.086 -0.821,-1.275 -1.634,-3.283 -0.268,-7.746 1.482,-4.841 5.403,-12.048 13.919,-22.892 8.445,-10.753 21.062,-24.651 39.397,-42.829 36.696,-36.381 72.39908,-67.05489 100.375,-87.242 14.04108,-10.131888 26.15093,-16.76622 34.644,-21.464 4.57275,-2.52933 6.44872,-4.178029 9.53893,-3.477892 2.30199,0.570079 -0.50498,4.586286 -2.87693,8.923892 -4.34504,7.945819 -10.548,19.551 -20.4,33.108 -19.629,27.01 -50.11,61.953 -86.806,98.334 z"
     fill="#ffffff"
     id="path4352"
     sodipodi:nodetypes="cccccccccccsscscc" />
</svg>
