<?xml version="1.0" encoding="UTF-8" standalone="no"?>
<svg
   xmlns:dc="http://purl.org/dc/elements/1.1/"
   xmlns:cc="http://creativecommons.org/ns#"
   xmlns:rdf="http://www.w3.org/1999/02/22-rdf-syntax-ns#"
   xmlns:svg="http://www.w3.org/2000/svg"
   xmlns="http://www.w3.org/2000/svg"
   xmlns:sodipodi="http://sodipodi.sourceforge.net/DTD/sodipodi-0.dtd"
   xmlns:inkscape="http://www.inkscape.org/namespaces/inkscape"
   width="500"
   height="500"
   version="1.1"
   id="svg14"
   sodipodi:docname="icono_buscar.svg"
   inkscape:version="0.92.3 (2405546, 2018-03-11)"
   style="fill:none">
  <metadata
     id="metadata20">
    <rdf:RDF>
      <cc:Work
         rdf:about="">
        <dc:format>image/svg+xml</dc:format>
        <dc:type
           rdf:resource="http://purl.org/dc/dcmitype/StillImage" />
        <dc:title />
      </cc:Work>
    </rdf:RDF>
  </metadata>
  <defs
     id="defs18" />
  <sodipodi:namedview
     pagecolor="#ffffff"
     bordercolor="#666666"
     borderopacity="1"
     objecttolerance="10"
     gridtolerance="10"
     guidetolerance="10"
     inkscape:pageopacity="0"
     inkscape:pageshadow="2"
     inkscape:window-width="1920"
     inkscape:window-height="1017"
     id="namedview16"
     showgrid="false"
     inkscape:snap-bbox="true"
     inkscape:bbox-paths="true"
     inkscape:bbox-nodes="true"
     inkscape:snap-bbox-edge-midpoints="true"
     inkscape:snap-bbox-midpoints="true"
     inkscape:object-paths="true"
     inkscape:snap-intersection-paths="true"
     inkscape:snap-smooth-nodes="true"
     inkscape:snap-midpoints="true"
     inkscape:zoom="1.5733334"
     inkscape:cx="199.23424"
     inkscape:cy="312.92475"
     inkscape:window-x="892"
     inkscape:window-y="152"
     inkscape:window-maximized="1"
     inkscape:current-layer="g822" />
  <g
     id="g867"
     transform="translate(-45.664691,-45.80227)">
    <g
       id="g822"
       transform="matrix(0.85038406,0,0,0.85038406,42.642632,42.447157)"
       style="stroke-width:1.17593932">
      <circle
         transform="matrix(0.9999618,0.008741,-0.009294,0.99995681,0,0)"
         id="circle4-5"
         style="display:inline;fill:#ffffff;fill-opacity:1;stroke:none;stroke-width:13.33348274;stroke-miterlimit:4;stroke-dasharray:none;stroke-opacity:1"
         r="138.04103"
         cy="234.1022"
         cx="254.63727" />
      <rect
         ry="24.50775"
         style="display:inline;fill:#ffffff;fill-opacity:1;stroke:none;stroke-width:13.33348465;stroke-miterlimit:4;stroke-dasharray:none;stroke-opacity:1"
         id="rect2-3"
         transform="rotate(48.638)"
         rx="24.50775"
         height="41.681999"
         width="381.02701"
         y="-50.927387"
         x="295.85995" />
      <path
         sodipodi:nodetypes="sssccsccssccscccssssc"
         inkscape:connector-curvature="0"
         id="circle4"
         transform="translate(45.664691,45.80227)"
         d="M 208.12305,46.8125 C 128.8241,46.119321 63.819071,109.95926 63.082031,189.25781 c -0.73703,79.29856 63.070189,144.26776 142.369139,144.96094 26.11089,0.22824 50.67108,-6.54107 71.89844,-18.55469 l 116.94168,132.82019 c 9.64037,10.94949 26.46653,12.01929 37.41602,2.37891 10.9495,-9.64038 12.01927,-26.46457 2.3789,-37.41406 L 317.91797,281.50781 c 20.07308,-24.46942 32.25762,-55.67296 32.57422,-89.73633 C 351.22923,112.47292 287.422,47.505678 208.12305,46.8125 Z m 94.76129,234.77661 122.69211,139.35217 c 5.61902,6.38206 5.01878,15.79308 -1.36328,21.41211 -6.38207,5.61903 -15.79308,5.02072 -21.41211,-1.36133 l -122.69168,-139.35144 -10.39844,5.34766 c -19.06088,10.31631 -40.92878,16.09755 -64.1543,15.89453 C 132.3855,322.2432 73.739852,262.52819 74.419922,189.35742 75.100002,116.18665 134.84645,57.510771 208.01758,58.150391 c 73.17113,0.63961 131.81679,60.350709 131.13672,133.521489 -0.28589,30.75938 -11.01168,58.95627 -28.78321,81.26367"
         style="color:#000000;font-style:normal;font-variant:normal;font-weight:normal;font-stretch:normal;font-size:medium;line-height:normal;font-family:sans-serif;font-variant-ligatures:normal;font-variant-position:normal;font-variant-caps:normal;font-variant-numeric:normal;font-variant-alternates:normal;font-feature-settings:normal;text-indent:0;text-align:start;text-decoration:none;text-decoration-line:none;text-decoration-style:solid;text-decoration-color:#000000;letter-spacing:normal;word-spacing:normal;text-transform:none;writing-mode:lr-tb;direction:ltr;text-orientation:mixed;dominant-baseline:auto;baseline-shift:baseline;text-anchor:start;white-space:normal;shape-padding:0;clip-rule:nonzero;display:inline;overflow:visible;visibility:visible;opacity:1;isolation:auto;mix-blend-mode:normal;color-interpolation:sRGB;color-interpolation-filters:linearRGB;solid-color:#000000;solid-opacity:1;vector-effect:none;fill:#000000;fill-opacity:1;fill-rule:nonzero;stroke:none;stroke-width:13.33397579;stroke-linecap:butt;stroke-linejoin:miter;stroke-miterlimit:4;stroke-dasharray:none;stroke-dashoffset:0;stroke-opacity:1;color-rendering:auto;image-rendering:auto;shape-rendering:auto;text-rendering:auto;enable-background:accumulate" />
      <path
         style="display:inline;fill:#ffffff;fill-opacity:1;stroke:#000000;stroke-width:13.33397484;stroke-miterlimit:4;stroke-dasharray:none"
         inkscape:connector-curvature="0"
         id="path8"
         d="m 356.439,237.743 c -0.532,57.159 -47.299,103.091 -104.458,102.591 -57.159,-0.5 -103.066,-47.241 -102.534,-104.4 0.532,-57.159 47.298,-103.091 104.458,-102.591 57.16,0.5 103.065,47.241 102.534,104.4 z" />
      <path
         style="display:inline;stroke:#000000;stroke-width:8.8889904;stroke-linecap:round;stroke-miterlimit:4;stroke-dasharray:none"
         inkscape:connector-curvature="0"
         id="path10"
         d="m 169.20396,221.70469 c 2.389,-19.858 23.439,-49.789 41.293,-56.557 m 14.707,-7.944 c 0.767,-0.676 11,-4.001 12.5,-4" />
    </g>
  </g>
</svg>
