<svg xmlns="http://www.w3.org/2000/svg" width="600" height="600" fill="none" xmlns:v="https://vecta.io/nano"><mask id="A" fill="#fff"><rect x="69" y="84" width="200" height="200" rx="12"/></mask><rect x="69" y="84" width="200" height="200" rx="12" fill="#fff" stroke="#000" stroke-width="32" mask="url(#A)"/><mask id="B" fill="#fff"><rect x="332" y="315" width="200" height="200" rx="12"/></mask><rect x="332" y="315" width="200" height="200" rx="12" fill="#fff" stroke="#000" stroke-width="32" mask="url(#B)"/><mask id="C" fill="#fff"><rect x="332" y="84" width="200" height="200" rx="12"/></mask><rect x="332" y="84" width="200" height="200" rx="12" fill="#fff" stroke="#000" stroke-width="32" mask="url(#C)"/><g fill="#000"><path d="M475.315 185.747l-43.054-43.548-43.548 43.054 43.054 43.548 43.548-43.054zM168.957 191.5l263.014 1.5.086-15-263.014-1.5-.086 15z"/><path d="M432 458.301L475.301 415 432 371.699 388.699 415 432 458.301zM424.5 186v229h15V186h-15zm-255.603-46.003l40.899 43.901-43.901 40.899-40.899-43.901z"/></g><path d="M173.496 164.636V201h-8.772v-28.161h-.213l-8.132 4.972v-7.599l8.967-5.576h8.15zm260.017 268.861c-2.77 0-5.226-.473-7.369-1.42-2.131-.959-3.811-2.279-5.042-3.96s-1.859-3.616-1.883-5.806h8.843a3.65 3.65 0 0 0 .763 2.113c.474.604 1.119 1.077 1.936 1.42s1.746.515 2.787.515 1.959-.183 2.752-.55c.805-.379 1.433-.894 1.883-1.545.449-.663.668-1.42.656-2.273.012-.852-.23-1.609-.727-2.272s-1.202-1.178-2.113-1.545c-.9-.367-1.965-.55-3.196-.55h-3.534v-6.25h3.534c1.077 0 2.024-.178 2.84-.533.829-.355 1.474-.852 1.936-1.492.461-.651.686-1.396.675-2.237.011-.817-.184-1.533-.586-2.148-.391-.628-.941-1.113-1.652-1.456-.698-.343-1.509-.515-2.432-.515-.971 0-1.853.172-2.646.515-.781.343-1.402.828-1.864 1.456s-.704 1.355-.728 2.184h-8.399c.024-2.166.628-4.072 1.812-5.718 1.183-1.657 2.793-2.953 4.829-3.888 2.048-.935 4.38-1.403 6.996-1.403 2.604 0 4.894.456 6.871 1.367s3.516 2.155 4.617 3.729c1.101 1.563 1.651 3.332 1.651 5.309.012 2.048-.657 3.735-2.006 5.06-1.338 1.326-3.06 2.143-5.167 2.451v.284c2.817.331 4.942 1.243 6.374 2.734 1.444 1.492 2.16 3.356 2.148 5.593 0 2.107-.621 3.977-1.864 5.611-1.231 1.622-2.947 2.9-5.149 3.835-2.19.924-4.705 1.385-7.546 1.385zM419.681 202v-6.321l13.264-11.612 2.539-2.468c.698-.758 1.231-1.515 1.598-2.273.367-.769.55-1.604.55-2.504 0-1.006-.219-1.864-.657-2.574-.438-.722-1.042-1.279-1.811-1.669s-1.651-.586-2.646-.586c-1.006 0-1.888.207-2.645.621-.758.403-1.35.989-1.776 1.758-.414.77-.621 1.705-.621 2.806h-8.328c0-2.474.557-4.611 1.669-6.41s2.676-3.184 4.688-4.155c2.024-.983 4.374-1.474 7.049-1.474 2.758 0 5.155.462 7.191 1.385s3.61 2.214 4.723 3.871c1.125 1.645 1.687 3.557 1.687 5.735 0 1.385-.278 2.758-.835 4.119s-1.556 2.865-3 4.51c-1.433 1.646-3.469 3.616-6.108 5.913l-4.35 4.013v.23h14.737V202h-26.918z" fill="#fff"/></svg>