<svg xmlns="http://www.w3.org/2000/svg" width="500" height="500" fill="none" xmlns:v="https://vecta.io/nano"><style><![CDATA[.B{stroke:#000}.C{stroke-width:10}.D{stroke-linecap:round}]]></style><g fill="#fff" stroke-width="8" class="B"><path d="M307.618 312.799c-6.555 23.186-12.267 37.092-24.185 57.094-2.104-3.16-4.517-5.542-7.671-6.824s-6.589-1.267-10.335-.569c5.368-22.061 11.317-35.942 24.304-57.275l17.887 7.574z"/><path d="M262.883 368.788a10.34 10.34 0 0 1 13.551-5.489 10.34 10.34 0 0 1 5.489 13.551 10.34 10.34 0 0 1-13.551 5.489 10.34 10.34 0 0 1-5.489-13.551zm57.944-63.299l-32.771-13.876 91.875-216.975 26.33-16.546 6.441 30.423-91.875 216.974z"/></g><path d="M398.323 73.745l-89.292 210.874" stroke-width="5" class="B D"/><g fill="#fff" class="B"><path d="M255.487 272.581l.974.67a472.64 472.64 0 0 0 12.701 8.418c10.169 6.501 23.224 14.264 34.287 18.914 10.852 4.562 25.243 8.421 36.769 11.122 5.793 1.358 10.922 2.436 14.603 3.176l1.037.207-2.824 6.668c-22.943-.638-39.875-3.354-55.063-9.752s-28.943-16.607-45.315-32.737l2.831-6.686z" stroke-width="8"/><path d="M259.1 131.352c-20.857 4.592-24.245 24.611-24.245 24.611l-23.347-13.837s21.742-42.836 47.593-47.593c24.594-4.525 34.445 21.202 59.266 24.247 11.486 1.409 29.633 0 29.633 0s-10.822 17.115-21.551 23.347c-23.032 13.379-41.336-16.502-67.349-10.775z" class="C"/></g><path d="M229.468 141.593s11.614-18.853 26.939-24.245c8.27-2.91 13.85-1.708 22.449 0 11.077 2.2 26.041 12.572 26.041 12.572" class="B C"/><g fill="#fff" class="B C"><path d="M273.784 408.829l-.598-.149h-.615-14.546l12.248-35.64 23.328-.893 2.014 10.656 1.598 12.436.798 6.981-1.039 3.208-1.399 1.917-3.882 1.382-15.047.818-2.86-.716zm-33.37-111.885h-56.353l1.406 14.368-2.694 6.811 1.288 16.288L209.5 368l30.914-26.157 1.625-21.551-1.625-8.908v-14.44z"/><path d="M267.348 390.834l2.913 18.306H157.764l2.309-18.472.359-2.879-2.321-1.741-27.221-20.415 1.449-10.762 3.165-8.365 5.062-4.218 7.443-3.474 11.584-4.31.075-.028.074-.03 12.046-4.928.154-.063.149-.073 8.431-4.122 1.668 2.447.224.328.272.288 4.654 4.928.414.438.505.327 4.654 3.011.395.256.435.177 7.392 3.012.657.267.706.075 10.403 1.095.531.056.53-.058 10.13-1.095.807-.087.739-.339 6.57-3.011.463-.212.411-.301 4.106-3.012.309-.226.27-.27 3.559-3.559.445-.445.321-.542 2.121-3.58 9.633 4.239.172.076.178.062 13.865 4.894 10.662 4.265 4.268 2.134 2.948 2.358 1.619 2.833 2.02 4.291 1.4 3.736.738 4.427.004.022 1.188 7.329-23.866 20.349-2.135 1.82.441 2.771zM146.461 230.05l-1.084-21.95.528-12.924.988-6.67 2.45-7.105 2.911-5.338 3.761-5.014 4.232-4.73 5.102-4.081 6.494-4.936 6.665-3.633 8.374-2.186 8.488-.514 21.83-.808 17.062 1.333 6.625.981 6.491 2.644 6.652 3.942 4.59 4.108 4.544 5.301 3.522 5.093 3.897 9.463 1.537 4.678 1.234 7.156v35.437 4.057l3.97.835 4.259.897 2.247 1.498 1.705 3.239.386 3.476-.417 4.377-1.262 2.705-2.083 2.429-2.164.928-4.961.727-3.667.537-.553 3.665-1.199 7.955-1.718 6.63-1.728 3.455-2.513 3.199-3.165 3.165-4.151 3.373-.03.024-3.859 3.087-4.614 2.914-8.023 3.364-7.644 2.9-4.508 1.252-5.144.98-10.418.26-10.45-.258-12.33-2.854-8.381-2.619-7.673-3.123-4.502-2.313-3.427-1.958-2.164-1.683-.02-.016-3.505-2.754-2.99-3.22-2.046-3.183-1.878-3.99-1.982-6.936-1.046-7.589-.596-4.317h-4.358-5.313l-4.182-1.711-2.499-2.499-1.237-2.652-.6-3.998.568-3.6 1.315-2.441 1.098-1.412 2.949-1.802h4.616 5.253l-.259-5.247z"/><path d="M295.02 213.642c0 87.792-12.828-32.537-83.512-32.537s-87.103 120.329-87.103 32.537c0-56.157 42.469-101.681 87.103-101.681s83.512 45.524 83.512 101.681z"/></g><g fill="#000"><ellipse cx="178.427" cy="234.129" rx="5.749" ry="7.939"/><ellipse cx="242.489" cy="234.129" rx="5.749" ry="7.939"/></g><g class="C D"><use href="#B" stroke="#fff"/><use href="#B" class="B"/></g><g fill="#fff" class="B C"><path d="M251.975 204.9c17.424 14.372 31.827 53.713 31.827 53.713s2.264-22.115 0-35.809c-2.646-16-5.863-25.365-14.334-37.799-15.178-22.28-33.412-26.268-55.625-27.851-25.697-1.832-44.247 4.575-62.035 27.851-9.419 12.323-14.285 21.219-17.465 37.799-2.608 13.598.002 35.809.002 35.809s13.284-39.243 30.21-53.713c16.413-14.032 29.457-17.64 49.288-15.915 15.661 1.363 25.026 5.105 38.132 15.915z"/><use href="#C"/><use href="#C" x="-148.399"/><path d="M204.155 161.543c4.196-1.313 8.162-1.484 12.904 0v24.388s-3.634-1.355-6.452-1.355-6.452 1.355-6.452 1.355v-24.388zm-15.097 285.361s6.099-7.874 9.878-18.858l-93.389-97.879-.846 25.614 84.357 91.123zM206.119 314.9H161.22l44.899 46.695V314.9z"/><path d="M148.743 461.994c-29.093-1.442-47.451-34.975-44.095-107.582l86.208 89.798c-6.286 8.979-13.021 19.227-42.113 17.784zm-43.196-147.573l35.413.48 66.058 71.838c-1.173 18.456-1.586 27.071-8.082 42.205l-93.389-98.67v-15.853z"/><path d="M207.019 386.74l-66.45-71.844 9.472.002h11.182l44.898 46.698c.871 9.977 1.796 15.266.898 25.144z"/></g><defs ><path id="B" d="M191.523 268.219c15.058 7.665 26.556 6.57 41.066 0"/><path id="C" d="M274.978 241.906c4.916-6.796 14.747-6.796 19.663 0a16.03 16.03 0 0 1 0 18.878c-4.916 6.796-14.747 6.796-19.663 0a16.03 16.03 0 0 1 0-18.878z"/></defs></svg>