<svg xmlns="http://www.w3.org/2000/svg" width="500" height="500" fill="none" xmlns:v="https://vecta.io/nano"><style><![CDATA[.B{stroke:#000}.C{fill:#fff}.D{stroke-width:2}.E{fill:#000}.F{stroke-width:10}]]></style><g clip-path="url(#A)"><g class="B C D"><path d="M445.767 236.182c-5.278 33.299-20.887 55.541-40.306 68.649-19.439 13.121-42.764 17.137-63.526 13.846s-42.385-14.434-57.488-33.041c-15.085-18.584-23.711-44.665-18.436-77.947 5.28-33.31 22.7-62.549 44.012-82.628 21.346-20.109 46.423-30.881 66.98-27.622 20.548 3.257 40.391 21.138 53.799 46.752 13.388 25.574 20.247 58.666 14.965 91.991z"/><path d="M324.985 113.493c-23.896 17.087-32.521 27.24-40.24 46.271 63.442 1.201 98.427 7.184 160.237 23.88-5.246-22.221-10.011-34.352-24.193-54.965-36.636-10.854-57.521-14.715-95.804-15.186z"/><path d="M444.36 182.435c-62.576-17.233-98.2-23.237-160.927-23.563 7.436-12.938 16.584-24.384 26.59-33.811 21.346-20.109 46.423-30.881 66.98-27.622 20.548 3.257 40.391 21.138 53.799 46.752 5.998 11.457 10.685 24.424 13.558 38.244zm-179.843 48.12c67.029 19.563 105.748 25.541 175.735 27.775-7.497 21.328-20.046 36.547-34.791 46.501-19.439 13.121-42.764 17.137-63.526 13.846s-42.385-14.434-57.488-33.041c-11.439-14.092-19.164-32.496-19.93-55.081z"/><path d="M283.285 159.719l-.74 1.429 1.609.031c63.367 1.199 98.012 5.612 159.737 22.285l.718.194c3.326 16.681 4.004 34.568 1.158 52.523-5.278 33.299-20.887 55.541-40.306 68.649-19.439 13.122-42.764 17.137-63.526 13.846s-42.385-14.434-57.488-33.041c-15.085-18.584-23.711-44.665-18.436-77.947 3.127-19.725 10.51-38.022 20.438-53.835-1.054 1.867-2.103 3.816-3.164 5.866zm93.718-62.281c15.721 2.492 31.029 13.544 43.359 30.071-36.087-10.662-57.012-14.51-94.791-15.009 17.326-11.834 35.702-17.555 51.432-15.062z"/><path d="M264.456 227.292c-.026-6.229.471-12.764 1.555-19.604 5.28-33.31 22.7-62.549 44.013-82.627 21.345-20.11 46.422-30.882 66.979-27.623 20.548 3.257 40.391 21.138 53.799 46.752 13.388 25.574 20.247 58.666 14.965 91.991-1.087 6.859-2.613 13.249-4.52 19.187l-.667-.023c-68.359-2.33-107.5-8.3-175.069-27.749l-1.055-.304zm45.065 79.724c25.501-1.714 42.119.717 65.918 10.626-11.257 2.482-22.726 2.742-33.504 1.034-10.926-1.732-22.089-5.638-32.414-11.66z"/></g><path d="M282.813 160.869c62.99.29 98.476 6.26 161.286 23.569 2.386 14.744 3.248 26.067 2.528 37.031-.718 10.918-3.008 21.524-6.974 34.841-69.395-2.245-107.913-8.22-174.545-27.666.297-13.068 1.402-23.376 4.069-33.691 2.682-10.377 6.957-20.803 13.636-34.084z" class="B D E"/><path d="M265.235 228.557c1.819 33.624 6.359 52.019 42.375 77.59 27.03-1.989 44.116.42 69.137 10.959 32.159-8.065 52.629-28.614 63.799-60.762-68.439-2.333-107.663-8.315-175.311-27.787z" class="B C D"/><g class="E B D"><path d="M341.387 318.587c-11.217-1.882-22.639-6.222-33.1-12.976.783-.243 1.769-.457 2.959-.629 2.158-.312 4.874-.47 8.026-.464 6.302.011 14.274.68 22.876 2.043 9.584 1.519 18.154 3.617 24.361 5.796 3.11 1.091 5.588 2.19 7.298 3.227.856.519 1.484 1.002 1.899 1.433a4.72 4.72 0 0 1 .126.137c-10.155 2.538-20.459 3.148-30.259 2.024l-4.186-.591zm34.8-201.028c-20.631-3.27-39.668-4.075-53.685-2.708 18.28-13.406 37.99-20.029 54.705-17.38 16.164 2.562 31.896 14.171 44.414 31.508-12.252-4.586-28.029-8.661-45.434-11.42z"/></g><g class="F B"><path d="M441.816 235.555c-5.119 32.296-20.167 53.522-38.593 65.96-18.527 12.507-40.811 16.358-60.662 13.211-19.87-3.149-40.576-13.83-55.009-31.611-14.34-17.667-22.695-42.594-17.59-74.8 5.127-32.349 22.069-60.807 42.804-80.342 20.899-19.689 44.784-29.568 63.611-26.584 18.78 2.977 37.764 19.599 50.881 44.657 13.016 24.864 19.697 57.09 14.558 89.509z"/><g class="C"><use href="#B"/><use href="#B"/></g></g><g class="E"><path d="M103.084 142.338c17.856 18.555 7.629 34.768-20.454 37.379-12.911 4.49-26.649 3.532-31.174-9.483s-3.102-33.04 9.809-37.53 33.09.563 41.82 9.634zm65.306 46.08c3.677 10.575 8.647 25.058-1.242 28.497s-42.389 1.558-41.534-13.623c-3.677-10.574 5.762-31.719 15.651-35.158s23.448 9.71 27.125 20.284z"/><use href="#C"/><path d="M161.151 270.847c2.151 17.412-2.162 33.219-14.798 37.613s-38.066-5.251-42.403-17.723c-15.314-19.989 13.831-30.123 26.468-34.517s22.65-15.03 30.733 14.627zm59.732-30.244c2.196 22.349-3.289 16.552-12.629 19.8s-16.708 9.671-19.442 1.807-.853-33.271 8.487-36.519 26.168 6.309 23.584 14.912zm5.939-74.495c6.027 14.283 6.125 18.21-6.478 23.503-19.301-.993-22.316 6.529-28.342-7.754s-.78-21.741 8.783-31.119c12.603-5.293 20.011 1.086 26.037 15.37z"/><path d="M232.908 180.585c23.196 66.708-14.173 113.593-56.455 128.296s-103.39 2.059-126.586-64.649 7.143-142.554 49.425-157.256 110.421 26.901 133.617 93.609z"/></g><use href="#B" class="B C F"/><g class="E"><path d="M106.072 142.914c17.856 18.554 7.629 34.767-20.455 37.379-12.911 4.489-26.649 3.531-31.174-9.484s-3.102-33.04 9.809-37.529 33.09.562 41.82 9.634zm62.317 45.504c3.677 10.575 8.648 25.058-1.241 28.497s-42.389 1.558-41.534-13.623c-3.677-10.574 5.761-31.719 15.651-35.158s23.447 9.71 27.124 20.284z"/><use href="#C"/><path d="M161.151 270.848c2.152 17.412-2.161 33.219-14.797 37.613s-38.066-5.251-42.403-17.723c-15.314-19.989 13.831-30.123 26.467-34.517s22.651-15.03 30.733 14.627zm7.887-161.701c7.853 22.583 6.65 35.158-15.524 30.712-25.262-16.53-33.163-.777-38.207-15.28-.675-19.576 3.004-29.908 15.915-34.398s33.479 6.493 37.816 18.966zm30.213 130.175c2.196 22.349-3.289 16.552-12.628 19.799s-16.709 9.671-19.443 1.808-.852-33.272 8.488-36.519 26.167 6.309 23.583 14.912zm34.856 14.177c-3.319 8.812-7.9 16.772-13.392 23.804-4.062-.558-4.323-2.493-4.711-5.365-.17-1.26-.365-2.701-.916-4.286-.614-1.767-1.386-3.437-2.1-4.983-2.132-4.613-3.748-8.111.878-9.72 3.901-1.356 13.26-1.387 20.241.55zM66.481 114.06A87.32 87.32 0 0 1 84.06 95.782c4.014 1.487 3.768 3.315 3.396 6.084-.157 1.167-.336 2.501-.228 4.047.12 1.725.407 3.4.672 4.951.791 4.626 1.39 8.134-3.19 8.484-3.875.295-12.389-1.895-18.228-5.288zm159.012 52.61c6.026 14.283 6.124 18.211-6.478 23.504-19.302-.993-22.316 6.528-28.343-7.755s-.78-21.74 8.784-31.119c12.602-5.293 20.01 1.087 26.037 15.37z"/></g><g class="B C D"><path d="M332.381 242.41c-4.217 32.995-18.977 55.388-37.778 68.885-18.821 13.512-41.758 18.158-62.381 15.522s-42.334-12.989-57.823-30.895c-15.47-17.884-24.781-43.351-20.566-76.328 4.217-33.006 20.558-62.355 41.023-82.783 20.496-20.46 44.961-31.82 65.379-29.211 20.409 2.608 40.561 19.659 54.586 44.526 14.004 24.829 21.779 57.263 17.56 90.284z"/><path d="M233.554 312.956l-.39-.231-.431.141-21.058 6.886-2.602.851 2.537 1.027.815.327c-14.023-5.135-27.469-13.831-38.026-26.035-15.47-17.884-24.781-43.351-20.566-76.328 4.217-33.006 20.558-62.355 41.023-82.783 20.496-20.46 44.961-31.82 65.379-29.211 20.409 2.608 40.561 19.659 54.586 44.526 14.004 24.829 21.779 57.263 17.56 90.284-4.217 32.995-18.977 55.388-37.778 68.885-12.071 8.666-25.835 13.685-39.595 15.475l1.38-.281-2.232-1.323-20.602-12.21z"/><path d="M174.399 295.922a86.4 86.4 0 0 1-6.218-8.11l19.174-3.937 21.736 16.166.442.329.514-.198 25.952-10.008 18.17 15.601.454.389.557-.215 26.043-10.042 17.778 11.133.567.355.418-.298-5.383 4.208c-18.821 13.512-41.758 18.158-62.381 15.522s-42.334-12.989-57.823-30.895zm125.382-23.338l-27.2 11.838-17.35-13.995-.535-.431-.595.345-17.9 10.386-17.652-14.974-.509-.431-.594.304-19.916 10.19-20.967-16.953-.603-.488-.623.464-15.598 11.616-.481.358c-5.615-14.36-7.953-31.439-5.425-51.219 4.217-33.006 20.558-62.355 41.023-82.783 20.496-20.46 44.961-31.82 65.379-29.211 20.409 2.608 40.561 19.659 54.586 44.526 14.004 24.829 21.779 57.263 17.56 90.284-2.512 19.653-8.764 35.544-17.382 48.035l-.132-.165-13.906-17.403-.478-.598-.702.305z"/><path d="M174.399 295.922c-10.393-12.016-18.007-27.455-20.606-46.294l.863-.445 23.646-12.195 20.577 19.84.596.576.677-.48 20.341-14.437 17.521 19.301.63.694.733-.584 18.33-14.605 16.496 19.103.519.601.703-.37 26.438-13.886 22.819 18.2.459.366c-7.009 17.727-17.854 30.882-30.538 39.988-18.821 13.512-41.758 18.158-62.381 15.522s-42.334-12.989-57.823-30.895zm130.952-75.032l-26.236 12.423-17.202-14.939-.539-.468-.618.358-17.908 10.391-18.15-15.049-.507-.42-.586.3-19.946 10.205-21.165-15.509-.421-.308-.493.168-27.451 9.371c4.645-32.117 20.714-60.625 40.727-80.602 20.496-20.46 44.961-31.82 65.379-29.211 20.409 2.608 40.561 19.659 54.586 44.526 13.653 24.207 21.386 55.643 17.854 87.803l-26.312-18.946-.479-.345-.533.252z"/><path d="M153.833 219.594c.981-7.684 2.62-15.169 4.815-22.39l1.658-.685 25.467-10.53 19.692 19.254.596.583.681-.482 19.775-14 16.593 18.665.612.688.736-.552 18.796-14.106 17.567 18.805.503.539.664-.322 27.368-13.287 24.132 19.877.016.014a143.46 143.46 0 0 1-1.123 20.745c-4.217 32.995-18.977 55.388-37.778 68.885-18.821 13.512-41.758 18.158-62.381 15.522s-42.334-12.989-57.823-30.895c-15.47-17.884-24.781-43.351-20.566-76.328zm160.988-67.468c5.99 10.62 10.84 22.631 14.1 35.485l-22.299-15.995-.458-.328-.518.221-23.885 10.202-14.177-14.977-.547-.577-.685.402-18.442 10.805-13.933-12.454-.505-.451-.606.301-17.155 8.518-13.972-12.488-.396-.354-.515.13-29.168 7.362-.356.09-.214.299-.3.422c6.75-12.087 15.004-22.882 24.066-31.928 20.496-20.46 44.961-31.82 65.379-29.211 20.409 2.608 40.561 19.659 54.586 44.526z"/><path d="M153.833 219.594c3.334-26.093 14.244-49.899 28.779-68.82l1.099 1.3 19.813-10.585 12.461 16.112.574.744.778-.528 18.064-12.249 15.865 16.612.622.652.713-.551 16.048-12.412 14.836 16.411.572.632.715-.465 17.556-11.414 19.679 14.768 1.681 1.262c8.16 21.373 11.907 46.19 8.693 71.347-4.217 32.995-18.977 55.388-37.778 68.885-18.821 13.512-41.758 18.158-62.381 15.522s-42.334-12.989-57.823-30.895c-15.47-17.884-24.781-43.351-20.566-76.328zM260.235 107.6c15.862 2.027 31.57 12.779 44.367 29.145l-.626.291-13.896 6.454-18.2-15.091-.554-.459-.612.379-16.892 10.479-17.139-14.884-.509-.443-.602.308-19.991 10.229-10.398-6.474c18.054-14.522 37.97-22.117 55.052-19.934z"/></g><path d="M255.817 120.029l.456.314.509-.22 17.075-7.395 1.432-.621c14.978 7.043 28.987 21.322 39.532 40.019 14.004 24.829 21.779 57.263 17.56 90.284-4.217 32.995-18.977 55.388-37.778 68.885-18.821 13.512-41.758 18.158-62.381 15.522s-42.334-12.989-57.823-30.895c-15.47-17.884-24.781-43.351-20.566-76.328 4.217-33.006 20.558-62.355 41.023-82.783 14.048-14.024 29.961-23.772 45.157-27.677l1.443.994 14.361 9.901z" class="B D E"/><g class="C B D"><path d="M154.253 248.087l.217 1.378 1.235-.649 22.528-11.833 20.507 19.827.598.577.677-.482 20.289-14.441 17.463 19.291.631.697.735-.587 18.281-14.608 16.442 19.093.519.603.705-.371 26.357-13.887 21.754 18.045 1.057.877.51-1.275c4.253-10.636 5.575-17.559 7.745-28.917l.004-.024.118-.615-.503-.374-26.161-19.473-.482-.36-.544.258-26.166 12.43-17.147-14.93-.541-.47-.619.36-17.859 10.395-18.093-15.04-.508-.422-.588.302-19.892 10.211-21.1-15.5-.421-.309-.495.169-26.807 9.184-.577.198-.088.603c-1.675 11.422-1.679 18.056.219 30.069zM255.849 120.05l.442.281.482-.204 16.516-6.962 2.105-.888-2.081-.944c-5.853-2.656-10.585-4.256-15.531-4.698s-10.035.281-16.591 2.142l-2.148.61 1.885 1.196 14.921 9.467zm-22.295 192.906l-.39-.231-.431.141-21.059 6.886-2.602.851 2.538 1.027c14.32 5.792 26.254 8.63 42.236 5.376l2.542-.517-2.232-1.323-20.602-12.21zm-65.412-25.744l.378.53.638-.131 18.197-3.736 21.736 16.166.442.329.514-.199 25.952-10.007 18.17 15.6.454.39.557-.215 26.048-10.044 17.473 10.755.564.348.54-.385c7.477-5.327 10.509-8.875 14.815-15.551l.389-.604-.449-.562-13.599-17.019-.478-.598-.702.305-27.2 11.838-17.35-13.995-.535-.431-.595.345-17.9 10.386-17.652-14.974-.509-.431-.594.303-19.916 10.191-20.967-16.953-.618-.5-.627.49-14.563 11.404-.483.378.118.603c1.324 6.719 3.608 10.153 7.752 15.974zm-8.155-92.085l-.391 1.865 1.757-.738 24.423-10.261 19.689 19.25.597.584.68-.482 19.775-14.001 16.593 18.666.612.687.736-.552 18.796-14.106 17.567 18.806.503.539.664-.322 27.354-13.281 22.209 19.108 1.732 1.489-.08-2.282c-.459-13.101-1.157-20.349-5.048-32.169l-.098-.3-.253-.188-21.167-15.811-.461-.345-.53.227-23.885 10.202-14.177-14.977-.547-.577-.685.402-18.442 10.804-13.933-12.454-.505-.451-.606.301-17.155 8.519-13.972-12.488-.396-.354-.515.13-28.127 7.099-.356.09-.213.298c-3.761 5.268-6.255 9.412-8.082 13.567s-2.971 8.288-4.063 13.506zm45.926-67.138l-.609-.379-.554.455c-7.259 5.967-14.184 13.018-20.477 20.956l1.233 1.514 18.006-9.061 12.473 16.128.575.743.777-.527 18.064-12.25 15.865 16.613.623.651.712-.551 16.048-12.411 14.837 16.41.572.633.715-.465 17.542-11.406 19.14 14.995 2.715 2.128-1.156-3.25c-4.67-13.128-8.179-20.241-18.415-31.399l-.495-.54-.663.309-13.361 6.205-18.2-15.09-.554-.46-.611.38-16.893 10.478-17.138-14.883-.51-.443-.601.307-19.991 10.229-9.669-6.019z"/></g><g class="E B D"><path d="M204.232 140.769l-22.669 11.721-10.217 16.841 30.16-7.236 13.485 12.813 18.257-8.757 15.965 13.13 16.653-11.986 15.585 16.106 24.093-11.036 23.52 17.12-5.654-18.869-20.977-17.298-18.701 12.228-15.521-16.602-16.717 12.482-15.52-16.601-18.701 12.228-13.041-16.284zm-19.43 43.891l-25.41 11.371-5.486 22.99 27.854-10.555 21.555 16.869 20.721-10.319 18.021 15.269 18.474-10.605 18.021 15.269 27.342-13.009 26.56 19.897.661-21.133-24.48-20.22-27.415 13.588-17.502-19.328-18.993 14.665-17.503-19.329-21.239 14.378-21.181-19.798zm-6.181 51.633l-24.856 11.442c.797 9.679 2.093 13.004 5.643 22.9l16.171-10.536 21.498 16.861 20.673-10.324 17.973 15.263 18.433-10.611 17.973 15.263 27.279-13.016 14.172 16.801c5.32-7.01 9.517-12.258 11.167-19.744l-22.598-18.514-27.353 13.597-17.454-19.322-18.951 14.669-17.455-19.322-21.192 14.384-21.123-19.791zM256.5 114.5l-14.972-5.258c-4.401-1.066-26.383 9.23-37.264 19.433l11.018 6.534 20.508-10.345 17.803 15.241 18.288-10.629 17.803 15.241 15.705-6.648c.828-.806-22.172-25.902-31.929-26.259l-16.96 2.69z"/></g><path d="M328.413 241.903c-4.087 31.984-18.315 53.344-36.143 66.143-17.928 12.871-39.83 17.322-59.541 14.804-19.73-2.522-40.511-12.443-55.304-29.545-14.698-16.991-23.7-41.311-19.625-73.204 4.094-32.038 19.978-60.591 39.882-80.459 20.061-20.026 43.362-30.462 62.046-28.074 18.638 2.381 37.893 18.204 51.609 42.523 13.609 24.13 21.179 55.703 17.076 87.812z" class="B F"/><use href="#D" class="C"/><g class="F"><use href="#D" stroke="#fff"/><use href="#D" class="B"/></g><path d="M123.316 452.884l-58.59-185.306h20.438 79.028 77.665 84.478H404h29.976l-50.414 185.306h-72.215-128.079-59.952z" class="C"/><g class="F"><use href="#E" stroke="#fff"/><g class="B"><use href="#E"/></g></g><path d="M83.802 287.931c27.147 5.556 42.332 4.707 69.49 0M93.34 319.269c24.962 8.066 37.961 7.644 59.952 0m-53.139 27.251c19.378 5.105 30.766 6.011 53.139 0m-43.602 27.251c16.871 7.164 27.599 8.049 50.415 0m-39.514 25.888c16.857 6.822 25.625 7.375 39.514 0m-34.064 27.251c17.375 7.355 26.474 8.049 40.876 0m10.901-138.979c22.326 7.181 33.786 6.31 53.139 0m-53.139 31.338c23.728 7.566 35.316 7.853 53.139 0m-44.964 27.251c16.141 3.67 25.851 4.315 44.964 0m-44.964 27.251c16.141 4.258 25.851 4.964 44.964 0m-38.151 25.888c19.905 7.869 27.308 6.456 38.151 0m-38.151 27.251c16.431 7.757 24.685 7.599 38.151 0m29.976-138.979c25.602 7.326 36.519 6.284 53.139 0m-53.139 31.338c17.677 7.818 29.535 7.809 53.139 0m-53.139 27.251c16.576 5.027 26.788 5.767 46.326 0m-46.326 27.251c16.576 7.143 26.788 7.839 46.326 0m-46.326 25.888c15.984 7.501 24.934 7.523 40.876 0m-40.876 27.251c15.963 7.931 24.915 11.682 40.876 0m36.789-138.979c27.641 6.124 43.212 7.336 70.852 0m-70.852 31.338c22.341 8.993 34.886 9.583 57.227 0m-57.227 27.251c17.26 6.196 30.858 5.031 57.227 0m-57.227 27.251c20.183 7.862 30.48 7.367 47.689 0m-58.589 25.888c14.208 4.892 22.708 6.904 46.326 0m-46.326 27.251c12.664 4.324 20.869 5.152 39.513 0" stroke-width="8" stroke-linecap="round" class="B"/><path d="M71.852 293.61l-8.954-26.104h379.066l-7.959 30.454s7.959 28.714 7.959 31.325-14.932-1.376-22.883 4.35c-10.073 7.255 12.664 18.286-7.96 25.234-13.892 4.681-20.863-12.149-35.927-9.718-13.981 2.257-17.525 15.51-31.629 17.371-18.475 2.439-13.601-21.065-31.629-17.371-12.391 2.539-19.025 15.386-31.629 17.371-12.966 2.043-17.087-17.954-30.363-17.371-11.468.504-17.611 17.591-29.099 17.371-15.117-.288-16.719-15.628-31.628-17.371-14.325-1.674-22.287 18.693-36.69 17.371-19.404-1.78-9.569-22.514-29.098-23.451-14.563-.698-20.059 13.02-34.159 10.423-15.225-2.804 3.854-25.959-11.448-28.56-8.752-1.487-14.924 0-19.899 0s13.929-31.324 13.929-31.324z" class="C"/><g class="F"><use href="#F" stroke="#fff"/><use href="#F" class="B"/></g></g><defs><clipPath id="A"><path d="M0 0h500v500H0z" class="C"/></clipPath><path id="B" d="M228.405 182.355c11.121 31.983 7.631 58.76-3.344 79.253-11.058 20.646-29.941 35.319-50.131 42.339-40.614 14.123-98.541 1.84-120.56-61.485-11.146-32.055-9.449-66.405.171-94.52 9.675-28.275 27.008-49.333 46.274-56.033 19.286-6.706 45.376-.724 69.933 15.734 24.416 16.363 46.48 42.569 57.657 74.712z"/><path id="C" d="M95.746 221.729c10.453 15.814-.159 30.526-12.016 34.649-9.387-2.571-24.53-1.339-28.306-12.2s4.926-26.996 16.782-31.119 19.764-2.19 23.54 8.67z"/><path id="D" d="M92.395 271.717s-8.593 35.468-22.218 0S108.327 74.148 246.362 74.148c148.099-5.49 184.47 143.026 180.801 197.569s-66.432 1.331-20.02 0c-11.661-118.361-51.777-170.318-154.912-175.753S82.439 204.911 92.395 271.717z"/><path id="E" d="M326.335 267.578l-14.988 185.306m14.988-185.306h-84.478m84.478 0H404h29.976l-50.414 185.306h-72.215m0 0H183.268m58.589-185.306l5.45 181.219m-5.45-181.219h-77.665m0 0l19.076 185.306m-19.076-185.306H85.165 64.726l58.59 185.306h59.952"/><path id="F" d="M71.852 293.61l-8.954-26.104h379.066l-7.959 30.454m-362.152-4.35s-18.904 31.324-13.929 31.324 11.147-1.487 19.899 0c15.302 2.601-3.778 25.756 11.448 28.56 14.1 2.597 19.596-11.121 34.159-10.423 19.529.937 9.694 21.671 29.098 23.451 14.403 1.322 22.365-19.045 36.69-17.371 14.909 1.743 16.511 17.083 31.628 17.371 11.488.22 17.631-16.867 29.099-17.371 13.276-.583 17.397 19.414 30.363 17.371 12.604-1.985 19.238-14.832 31.629-17.371 18.028-3.694 13.154 19.81 31.629 17.371 14.104-1.861 17.648-15.114 31.629-17.371 15.064-2.431 22.035 14.399 35.927 9.718 20.624-6.948-2.113-17.979 7.96-25.234 7.951-5.726 22.883-1.74 22.883-4.35s-7.959-31.325-7.959-31.325m-362.152-4.35l362.152 4.35"/></defs></svg>