<svg xmlns="http://www.w3.org/2000/svg" width="500" height="500" fill="none" xmlns:v="https://vecta.io/nano"><style><![CDATA[.B{fill:#fff}.C{stroke-opacity:.2}.D{stroke:#000}.E{stroke-width:5}.F{fill-rule:evenodd}.G{fill:#000}.H{fill-opacity:.2}]]></style><path d="M156.3 53.556c-6.733.046-13.092-2.942-19.091-5.761-9.018-4.237-17.224-8.093-24.674-.691-6.502 6.46-7.165 13.699-7.829 20.956-.659 7.193-1.319 14.405-7.669 20.895-7.966 8.143-15.192 5.907-22.554 3.63-7.245-2.241-14.621-4.524-22.963 3.005-9.584 8.649-6.888 17.429-3.91 27.129 2.47 8.044 5.134 16.721 1.153 26.483a25.76 25.76 0 0 1-.954 2.079l145.835 67.748-.421-1.34c-1.223-3.825-2.452-7.67 1.101-9.797 2.718-1.626 5.571-.283 8.454 1.075 2.828 1.331 5.685 2.676 8.469 1.244 1.909-.983 2.206-4.762 2.503-8.531.275-3.501.55-6.994 2.115-8.232L156.3 53.556z" class="B F"/><g class="G"><use href="#B"/><use href="#B" class="H"/></g><path d="M160.906 64.373C117.395 82.781 81.547 115.56 59.518 156.72l111.756 51.917c9.243-13.281 22.599-23.77 38.343-29.864l-48.71-114.4z" class="B F"/><path d="M160.906 64.373l3.68-1.567-1.564-3.672-3.675 1.555 1.559 3.684zM59.518 156.72l-3.527-1.888-1.997 3.732 3.839 1.784 1.685-3.628zm111.756 51.917l-1.685 3.627 3.048 1.417 1.92-2.759-3.283-2.285zm38.343-29.864l1.444 3.73 3.857-1.493-1.62-3.805-3.681 1.568zM159.347 60.689c-44.35 18.763-80.894 52.175-103.356 94.143l7.053 3.775c21.597-40.351 56.749-72.497 99.42-90.55l-3.117-7.368zM57.832 160.348l111.756 51.916 3.37-7.255-111.755-51.917-3.37 7.256zm150.34 14.694c-16.47 6.376-30.473 17.359-40.182 31.31l6.566 4.57c8.777-12.612 21.486-22.606 36.504-28.419l-2.888-7.461zm5.125 2.163L164.586 62.806l-7.361 3.134 48.711 114.4 7.361-3.135z" class="G"/><use href="#C" class="B"/><g class="D E"><use href="#C"/><use href="#C" class="C"/></g><path d="M18.913 171.009c3.533-9.868 9.822-10.757 16.205-11.659l1.495-.215 140.685 65.766c-.176.122-.342.262-.497.422-2.333 2.415.686 5.334 3.835 8.379 2.85 2.756 5.806 5.615 4.999 8.297-.834 2.772-4.504 3.075-8.01 3.364-3.574.295-6.976.575-7.027 3.442-.048 2.656 3.428 4.787 6.909 6.92 3.185 1.953 6.374 3.907 6.869 6.268.63 3.005-2.304 4.872-5.248 6.744-1.756 1.117-3.515 2.236-4.523 3.6l-138.74 56.814c1.408-5.816 1.858-11.652-1.676-17.75-2.934-5.064-6.987-9.665-10.955-14.17-6.082-6.906-11.965-13.585-13.315-21.358-2.085-12.004 3.291-17.065 9.214-22.641 5.103-4.804 10.613-9.99 12.107-20.33 1.682-11.634-2.802-20.777-7.155-29.651-4.915-10.022-9.663-19.702-5.173-32.242z" class="B F"/><g class="G"><use href="#D"/><use href="#D" class="H"/></g><path d="M51.815 322.62l113.122-46.324c-2.93-8.171-4.488-16.935-4.416-26.045.085-10.688 2.405-20.863 6.538-30.135L56.203 168.294c-11.071 24.744-17.316 52.084-17.544 80.865-.205 25.856 4.463 50.627 13.156 73.461z" class="B F"/><path d="M164.937 276.296l1.515 3.702 3.541-1.45-1.291-3.602-3.765 1.35zM51.815 322.62l-3.738 1.423 1.459 3.832 3.795-1.554-1.516-3.701zm115.244-102.504l3.654 1.629 1.599-3.589-3.559-1.664-1.694 3.624zM56.203 168.294l1.694-3.624-3.684-1.722-1.661 3.712 3.651 1.634zm107.218 104.301L50.3 318.918l3.032 7.403 113.121-46.323-3.031-7.403zm-6.9-22.376c-.076 9.591 1.565 18.822 4.65 27.428l7.531-2.701c-2.774-7.737-4.249-16.034-4.181-24.664l-8-.063zm6.885-31.732c-4.352 9.762-6.795 20.48-6.885 31.732l8 .063a71.24 71.24 0 0 1 6.192-28.537l-7.307-3.258zm-108.897-46.57l110.856 51.823 3.388-7.248L57.897 164.67l-3.388 7.247zm-1.957-5.257c-11.292 25.238-17.66 53.123-17.893 82.467l8 .063c.224-28.216 6.345-55.012 17.195-79.263l-7.302-3.267zm-17.893 82.467c-.209 26.361 4.551 51.626 13.418 74.916l7.477-2.847c-8.519-22.377-13.096-46.655-12.895-72.006l-8-.063z" class="G"/><use href="#E" class="B"/><g class="D E"><use href="#E"/><use href="#E" class="C"/></g><path d="M152.046 480.865l63.039-165.607-1.027.504c-4.374 2.153-8.699 4.282-11.328 2.679-2.161-1.317-1.693-3.803-1.228-6.27.472-2.504.94-4.989-1.35-6.212s-4.461-1.139-6.638-1.052h-.001c-2.138.085-4.286.17-6.576-.985-2.414-1.217-1.395-4.517-.382-7.798 1.022-3.307 2.037-6.595-.477-7.711-.926-.857-3.057-1.77-5.447-2.792v-.001c-1.399-.599-2.888-1.236-4.275-1.922L29.659 343.771c-1.264 5.408-1.681 10.931 1.085 16.759 4.821 10.156 14.876 12.961 24.9 15.758h0 0c10.11 2.82 20.188 5.632 24.835 15.966 3.188 7.09.787 14.158-1.507 20.912-2.638 7.766-5.134 15.116 1.17 21.605 6.627 6.822 14.768 4.302 23.412 1.627 7.538-2.333 15.457-4.783 23.084-1.258 10.128 4.681 12.515 14.733 14.85 24.565 1.985 8.356 3.932 16.553 10.559 21.16z" class="B F"/><g class="G"><use href="#F"/><use href="#F" class="H"/></g><path d="M166.129 443.867l44.175-116.049c-19.702-7.436-35.711-21.709-44.766-39.689L52.256 334.518c21.634 49.763 62.725 89.359 113.873 109.349z" class="B F"/><path d="M166.129 443.867l-1.456 3.726 3.759 1.469 1.436-3.772-3.739-1.423zm44.175-116.049l3.738 1.423 1.427-3.749-3.752-1.416-1.413 3.742zm-44.766-39.689l3.573-1.799-1.665-3.305-3.424 1.402 1.516 3.702zM52.256 334.518l-1.516-3.701-3.782 1.548 1.629 3.748 3.668-1.595zM169.868 445.29l44.174-116.049-7.476-2.846-44.175 116.049 7.477 2.846zm-7.902-155.362c9.522 18.908 26.321 33.856 46.926 41.632l2.825-7.484c-18.799-7.095-34.019-20.695-42.606-37.746l-7.145 3.598zm2.056-5.501L50.74 330.817l3.032 7.403 113.282-46.389-3.032-7.404zM48.588 336.113c22.061 50.744 63.951 91.105 116.085 111.48l2.912-7.451c-50.162-19.605-90.453-58.438-111.661-107.218l-7.337 3.189z" class="G"/><use href="#G" class="B"/><g class="D E"><use href="#G"/><use href="#G" class="C"/></g><path d="M333.931 470.527l-64.686-151.918c-.672 1.333-1.746 2.301-3.608 2.593-2.632.413-4.89-1.682-7.156-3.785-2.204-2.044-4.416-4.097-6.989-3.862-3.472.318-5.451 3.706-7.393 7.029-2.02 3.458-4 6.846-7.577 6.632-2.806-.167-3.943-3.058-5.091-5.976-.873-2.219-1.753-4.455-3.378-5.52l-65.132 171.102c9.181 1.359 16.162-3.804 23.374-9.14 7.222-5.341 14.677-10.855 24.806-10.169 8.75.592 14.708 5.408 20.517 10.104 6.433 5.201 12.684 10.253 22.341 9.258 8.061-.832 12.85-5.018 17.829-9.371 4.153-3.631 8.44-7.378 14.87-9.392 9.851-3.085 18.364-1.237 26.775.59 6.689 1.453 13.314 2.892 20.498 1.825z" class="B F"/><g class="G"><use href="#H"/><use href="#H" class="H"/></g><path d="M323.156 445.221c-24.829 10.186-52.095 15.713-80.671 15.487-22.9-.182-44.9-4.045-65.43-11.016l44.318-116.425a88.71 88.71 0 0 0 21.546 2.812c11.097.088 21.707-1.861 31.432-5.478l48.805 114.62z" class="B F"/><path d="M323.156 445.221l1.518 3.701 3.751-1.538-1.588-3.73-3.681 1.567zm-146.101 4.471l-3.738-1.423-1.476 3.877 3.928 1.333 1.286-3.787zm44.318-116.425l1.003-3.872-3.467-.897-1.274 3.346 3.738 1.423zm52.978-2.666l3.681-1.567-1.496-3.514-3.579 1.332 1.394 3.749zm-31.898 134.106c29.117.231 56.909-5.401 82.221-15.785l-3.036-7.401c-24.346 9.987-51.085 15.409-79.121 15.187l-.064 7.999zm-66.684-11.228c20.929 7.107 43.352 11.043 66.684 11.228l.064-7.999c-22.469-.179-44.046-3.968-64.175-10.804l-2.573 7.575zm5.025-2.364l44.318-116.425-7.477-2.846-44.318 116.425 7.477 2.846zm39.577-113.975c7.184 1.859 14.732 2.877 22.517 2.939l.063-8a84.7 84.7 0 0 1-20.575-2.684l-2.005 7.745zm22.517 2.939c11.587.092 22.68-1.944 32.858-5.729l-2.789-7.498c-9.273 3.449-19.4 5.312-30.006 5.227l-.063 8zm27.783-7.911l48.805 114.62 7.361-3.134-48.805-114.62-7.361 3.134z" class="G"/><use href="#I" class="B"/><g class="D E"><use href="#I"/><use href="#I" class="C"/></g><path d="M442.57 344.507l-129.907-59.356a4.02 4.02 0 0 1-.623.991c-2.049 2.448-5.608 1.717-9.131.992h0 0c-3.557-.731-7.077-1.454-8.968 1.111-1.514 2.053-.647 5.105.22 8.157h0 0c.872 3.073 1.744 6.144.187 8.195-1.695 2.232-4.872.645-8.279-1.058h0 0c-3.137-1.567-6.468-3.232-9.02-2.106a5.98 5.98 0 0 0-.9.491l69.057 162.186c11.688-5.255 15.771-14.491 19.828-23.668 4.309-9.75 8.589-19.432 21.93-24.2 7.655-2.735 14.99-2.189 22.037-1.663 9.012.672 17.55 1.308 25.677-5.003 9.532-7.401 6.144-17.327 2.495-28.017-3.112-9.117-6.414-18.79-2.051-27.926 1.83-3.831 4.424-6.751 7.448-9.126z" class="B F"/><g class="G"><use href="#J"/><use href="#J" class="H"/></g><path d="M433.019 340.141l-112.24-51.283c-7.831 14.614-20.313 26.614-35.597 34.277l48.799 114.607c43.368-20.126 78.526-54.747 99.038-97.601z" class="B F"/><path d="M320.779 288.858l1.663-3.638-3.415-1.561-1.774 3.31 3.526 1.889zm112.24 51.283l3.608 1.727 1.758-3.673-3.703-1.692-1.663 3.638zm-147.837-17.006l-1.792-3.576-3.36 1.684 1.472 3.459 3.68-1.567zm48.799 114.607l-3.68 1.567 1.618 3.8 3.746-1.739-1.684-3.628zm-14.864-145.246l112.24 51.283 3.325-7.276-112.24-51.283-3.325 7.276zm-32.142 34.214c15.993-8.019 29.095-20.594 37.33-35.963l-7.052-3.778c-7.426 13.86-19.29 25.283-33.863 32.59l3.585 7.151zm50.686 109.465l-48.798-114.607-7.361 3.134 48.799 114.607 7.36-3.134zm-1.996 5.195c44.203-20.513 80.046-55.803 100.962-99.502l-7.216-3.454c-20.107 42.009-54.581 75.962-97.114 95.7l3.368 7.256z" class="G"/><use href="#K" class="B"/><g class="D E"><use href="#K"/><use href="#K" class="C"/></g><path d="M489.304 160.95a23.72 23.72 0 0 0-1.78-2.94l-174.549 71.478c1.595.34 2.877.865 3.348 1.947 1.265 2.904-.955 5.414-3.258 8.018-2.012 2.275-4.089 4.623-3.959 7.368.149 3.167 3.547 4.943 6.869 6.679 3.526 1.843 6.968 3.642 6.355 7.014-.497 2.73-3.86 3.676-7.243 4.628-2.97.835-5.955 1.675-7.03 3.731l148.186 69.277 3.837-1.709c9.665-4.245 18.97-8.332 21.247-19.544 2.03-9.992-3.447-16.835-9.094-23.888-5.107-6.379-10.352-12.931-10.303-22.142.063-11.797 7.364-16.832 14.689-21.883 7.358-5.073 14.74-10.163 14.835-22.141.063-7.923-7.101-10.896-14.539-13.984-5.696-2.363-11.552-4.794-14.449-9.565-5.486-9.038 3.6-14.791 12.885-20.671 9.366-5.93 18.933-11.988 13.953-21.673z" class="B F"/><g class="G"><use href="#L"/><use href="#L" class="H"/></g><path d="M440.965 177.076l-114.147 46.743c3.854 9.204 5.937 19.246 5.853 29.748-.068 8.66-1.605 16.984-4.384 24.764l111.832 52.282c9.81-23.498 15.311-49.215 15.525-76.196.217-27.328-5.01-53.444-14.679-77.341z" class="B F"/><path d="M440.965 177.076l3.708-1.5-1.507-3.724-3.717 1.522 1.516 3.702zm-114.147 46.743l-1.516-3.702-3.731 1.528 1.558 3.719 3.689-1.545zm1.469 54.512l-3.767-1.346-1.225 3.428 3.298 1.542 1.694-3.624zm111.832 52.282l-1.694 3.623 3.778 1.766 1.607-3.849-3.691-1.54zm-.67-157.239l-114.147 46.743 3.032 7.403 114.147-46.743-3.032-7.403zm-102.778 80.224c.088-11.056-2.106-21.634-6.163-31.324l-7.379 3.09a71.26 71.26 0 0 1 5.543 28.171l7.999.063zm-4.618 26.079c2.928-8.194 4.546-16.962 4.618-26.079l-7.999-.063c-.066 8.204-1.52 16.085-4.152 23.45l7.533 2.692zm-5.46 2.278l111.832 52.281 3.388-7.247-111.832-52.282-3.388 7.248zm117.217 50.198c10.006-23.967 15.616-50.195 15.834-77.705l-8-.063c-.209 26.454-5.603 51.658-15.216 74.687l7.382 3.081zm15.834-77.705c.221-27.862-5.109-54.498-14.971-78.872l-7.416 3c9.476 23.42 14.6 49.016 14.387 75.809l8 .063z" class="G"/><use href="#M" class="B"/><g class="D E"><use href="#M"/><use href="#M" class="C"/></g><path d="M461.771 147.183c6.151-.956 12.45-1.936 17.924-.337l-176.1 72.113c-.197-1.617-.072-3.51.052-5.401.22-3.335.44-6.663-1.109-8.449-1.984-2.288-5.103-.989-8.207.304-3.112 1.297-6.209 2.587-8.139.258-1.293-1.561-1.34-4.969-1.389-8.449-.058-4.208-.118-8.522-2.382-9.806-.808-.458-1.697-.314-2.642.219l52.432-137.739a22.18 22.18 0 0 0 .785.377c8.925 4.074 18.331-.216 27.225-4.272 9.913-4.521 19.189-8.751 26.45-.784 6.062 6.652 5.137 15.009 4.219 23.303-.94 8.504-1.874 16.941 4.738 23.407 6.554 6.409 14.612 4.525 22.705 2.633 8.033-1.878 16.101-3.764 22.762 2.448 6.978 6.507 3.278 15.387-.39 24.191-3.704 8.89-7.377 17.704.008 23.92 5.356 4.507 13.082 3.306 21.058 2.065z" class="B F"/><g class="G"><use href="#N"/><use href="#N" class="H"/></g><path d="M438.339 163.782c-21.676-47.172-60.992-84.791-109.68-104.553l-44.405 116.654c16.879 7.198 30.78 19.506 39.506 34.819l114.579-46.92z" class="B F"/><path d="M438.339 163.782l1.516 3.702 3.861-1.581-1.742-3.791-3.635 1.67zM328.659 59.229l1.504-3.706-3.788-1.538-1.454 3.821 3.738 1.423zm-44.405 116.654l-3.739-1.423-1.368 3.594 3.538 1.508 1.569-3.679zm39.506 34.819l-3.475 1.981 1.74 3.052 3.251-1.331-1.516-3.702zm118.214-48.59c-22.104-48.101-62.183-86.446-111.811-106.589l-3.008 7.413c47.749 19.381 86.3 56.274 107.549 102.518l7.27-3.341zM324.921 57.806L280.515 174.46l7.477 2.846 44.405-116.654-7.476-2.846zm2.315 150.916c-9.173-16.097-23.755-28.989-41.413-36.519l-3.138 7.359c16.101 6.866 29.32 18.591 37.6 33.121l6.951-3.961zm-1.96 5.682l114.579-46.92-3.032-7.403L322.245 207l3.031 7.404z" class="G"/><use href="#O" class="B"/><g class="D E"><use href="#O"/><use href="#O" class="C"/></g><path d="M261.974 199.632l60.296-158.4c-1.916-3.139-2.922-6.691-3.915-10.197-1.999-7.056-3.946-13.927-13.141-16.873-11.855-3.799-20.617 2.611-29.631 9.204-8.373 6.125-16.962 12.408-28.449 10.815-8.552-1.186-14.062-5.873-19.506-10.504-5.747-4.888-11.42-9.714-20.519-10.294-13.306-.848-17.658 6.911-22.373 15.317-3.651 6.51-7.52 13.408-15.934 16.997l64.068 150.467c1.103.543 2.231.825 3.4.646 3.131-.48 5.279-3.72 7.393-6.91 2.258-3.408 4.479-6.758 7.818-6.624 3.538.142 4.608 4.106 5.693 8.123.98 3.628 1.971 7.297 4.8 8.233z" class="B F"/><g class="G"><use href="#P"/><use href="#P" class="H"/></g><path d="M272.119 172.983l45.2-118.743c-21.611-7.655-44.871-11.908-69.124-12.101-26.504-.21-51.899 4.447-75.317 13.127l49.766 116.878c7.617-2.035 15.665-3.094 23.981-3.029 8.891.071 17.454 1.423 25.494 3.868z" class="B F"/><path d="M272.119 172.983l-1.164 3.827 3.573 1.087 1.329-3.491-3.738-1.423zm45.2-118.743l3.739 1.423 1.456-3.826-3.859-1.367-1.336 3.771zm-144.441 1.026l-1.39-3.751-3.934 1.458 1.644 3.86 3.68-1.567zm49.766 116.878l-3.68 1.567 1.359 3.193 3.353-.896-1.032-3.864zm53.213 2.262l45.201-118.743-7.477-2.846-45.2 118.743 7.476 2.846zm42.798-123.937c-22.025-7.802-45.725-12.134-70.428-12.33l-.063 8c23.803.189 46.622 4.362 67.82 11.871l2.671-7.541zm-70.428-12.33c-26.996-.214-52.873 4.53-76.739 13.376l2.78 7.501c22.97-8.514 47.883-13.084 73.896-12.877l.063-8zm-79.029 18.694l49.766 116.878 7.36-3.134-49.766-116.878-7.36 3.134zm77.459 108.283c-8.678-.069-17.083 1.036-25.045 3.163l2.064 7.729c7.272-1.942 14.962-2.956 22.918-2.893l.063-7.999zm26.626 4.041c-8.405-2.557-17.349-3.968-26.626-4.041l-.063 7.999c8.504.068 16.685 1.361 24.361 3.695l2.328-7.653z" class="G"/><use href="#Q" class="B"/><g class="D E"><use href="#Q"/><use href="#Q" class="C"/></g><use href="#R" class="B"/><g class="D E"><use href="#R"/><use href="#R" class="C"/></g><use href="#R" x="-20" y="195" class="B"/><g class="D E"><use href="#R" x="-20" y="195"/><use href="#R" x="-20" y="195" class="C"/></g><use href="#S" class="B"/><g class="D E"><use href="#S"/><use href="#S" class="C"/></g><use href="#T" class="B"/><g class="D E"><use href="#T"/><use href="#T" class="C"/></g><use href="#U" class="B"/><g class="D E"><use href="#U"/><use href="#U" class="C"/></g><use href="#V" class="B"/><g class="D E"><use href="#V"/><use href="#V" class="C"/></g><use href="#W" class="B"/><g class="D E"><use href="#W"/><use href="#W" class="C"/></g><g transform="rotate(2.3 107.445 135.598)"><rect x="107.445" y="135.598" width="30.567" height="21.083" rx="2.5" class="B"/><g class="D E"><rect x="107.445" y="135.598" width="30.567" height="21.083" rx="2.5"/><rect x="107.445" y="135.598" width="30.567" height="21.083" rx="2.5" class="C"/><rect x="107.445" y="135.598" width="30.567" height="21.083" rx="2.5" class="C"/></g></g><g transform="rotate(45.772 234.642 396.535)"><rect x="234.642" y="396.535" width="30.567" height="21.083" rx="2.5" class="B"/><g class="D E"><rect x="234.642" y="396.535" width="30.567" height="21.083" rx="2.5"/><rect x="234.642" y="396.535" width="30.567" height="21.083" rx="2.5" class="C"/><rect x="234.642" y="396.535" width="30.567" height="21.083" rx="2.5" class="C"/></g></g><g transform="rotate(13.25 247.373 372.006)"><rect x="247.373" y="372.006" width="27.797" height="19.051" rx="2.5" class="B"/><g class="D E"><rect x="247.373" y="372.006" width="27.797" height="19.051" rx="2.5"/><rect x="247.373" y="372.006" width="27.797" height="19.051" rx="2.5" class="C"/><rect x="247.373" y="372.006" width="27.797" height="19.051" rx="2.5" class="C"/></g></g><g transform="rotate(28.064 81.765 249.252)"><rect x="81.765" y="249.252" width="30.567" height="21.083" rx="2.5" class="B"/><g class="D E"><rect x="81.765" y="249.252" width="30.567" height="21.083" rx="2.5"/><rect x="81.765" y="249.252" width="30.567" height="21.083" rx="2.5" class="C"/><rect x="81.765" y="249.252" width="30.567" height="21.083" rx="2.5" class="C"/></g></g><g transform="rotate(358.299 129.573 361.481)"><rect x="129.573" y="361.481" width="30.567" height="21.083" rx="2.5" class="B"/><g class="D E"><rect x="129.573" y="361.481" width="30.567" height="21.083" rx="2.5"/><rect x="129.573" y="361.481" width="30.567" height="21.083" rx="2.5" class="C"/><rect x="129.573" y="361.481" width="30.567" height="21.083" rx="2.5" class="C"/></g></g><g transform="rotate(77.3 269.679 103.988)"><rect x="269.679" y="103.988" width="21.127" height="28.385" rx="4.5" class="B"/><g class="D E"><rect x="269.679" y="103.988" width="21.127" height="28.385" rx="4.5"/><rect x="269.679" y="103.988" width="21.127" height="28.385" rx="4.5" class="C"/></g></g><g transform="rotate(77.3 361.679 364.988)"><rect x="361.679" y="364.988" width="21.127" height="28.385" rx="4.5" class="B"/><g class="D E"><rect x="361.679" y="364.988" width="21.127" height="28.385" rx="4.5"/><rect x="361.679" y="364.988" width="21.127" height="28.385" rx="4.5" class="C"/></g></g><g transform="rotate(77.3 363.432 113.988)"><rect x="363.432" y="113.988" width="21.127" height="35.308" rx="4.5" class="B"/><g class="D E"><rect x="363.432" y="113.988" width="21.127" height="35.308" rx="4.5"/><rect x="363.432" y="113.988" width="21.127" height="35.308" rx="4.5" class="C"/></g></g><g transform="rotate(77.3 120.616 221.988)"><rect x="120.616" y="221.988" width="16.263" height="22.17" rx="4.5" class="B"/><g class="D E"><rect x="120.616" y="221.988" width="16.263" height="22.17" rx="4.5"/><rect x="120.616" y="221.988" width="16.263" height="22.17" rx="4.5" class="C"/></g></g><defs ><path id="B" d="M156.3 53.556l3.68-1.567-1.043-2.451-2.664.018.027 4zm-19.091-5.761l-1.701 3.62h0l1.701-3.62zm-24.674-.691l2.819 2.837h0l-2.819-2.837zm-7.829 20.956l3.983.365h0l-3.983-.365zm-7.669 20.895l-2.859-2.797h0l2.859 2.797zm-22.554 3.63l-1.182 3.821h0l1.182-3.821zM51.521 95.59l2.68 2.969h0l-2.68-2.969zm-3.91 27.129l3.824-1.174h0l-3.824 1.174zm1.153 26.483l3.704 1.51h0l-3.704-1.51zm-.954 2.079l-3.555-1.834-1.911 3.705 3.781 1.756 1.685-3.627zm145.835 67.748l-1.685 3.628 8.118 3.771-2.606-8.563-3.827 1.164zm-.421-1.34l3.81-1.218h0l-3.81 1.218zm1.101-9.797l2.055 3.432h0l-2.055-3.432zm8.454 1.075l-1.704 3.619h0l1.704-3.619zm8.469 1.244l1.83 3.556h0l-1.83-3.556zm2.503-8.531l-3.988-.314h0l3.988.314zm2.115-8.232l2.482 3.137 2.394-1.894-1.196-2.81-3.68 1.567zM156.273 49.556c-5.669.039-11.193-2.482-17.363-5.381l-3.402 7.24c5.829 2.739 13.021 6.194 20.819 6.14l-.054-8zm-17.363-5.381c-4.349-2.044-9.244-4.384-14.078-5.053-5.233-.724-10.428.485-15.116 5.144l5.638 5.675c2.762-2.744 5.395-3.307 8.382-2.894 3.386.468 7.104 2.175 11.772 4.368l3.402-7.24zm-29.194.091c-7.64 7.591-8.335 16.235-8.994 23.429l7.967.73c.67-7.321 1.301-13.153 6.665-18.483l-5.638-5.675zm-8.994 23.429c-.664 7.256-1.292 13.094-6.544 18.463l5.719 5.594c7.447-7.613 8.139-16.198 8.792-23.328l-7.967-.73zm-6.544 18.463c-3.35 3.425-6.221 4.402-8.831 4.524-2.9.136-5.865-.738-9.681-1.919l-2.365 7.642c3.546 1.097 7.875 2.48 12.42 2.267 4.835-.226 9.56-2.203 14.176-6.921l-5.719-5.594zm-18.512 2.606c-3.508-1.085-7.791-2.448-12.347-2.339-4.803.114-9.637 1.827-14.478 6.196l5.36 5.939c3.502-3.16 6.527-4.071 9.308-4.137 3.029-.072 6.056.828 9.792 1.984l2.365-7.642zM48.841 92.62c-5.549 5.008-7.793 10.368-7.984 16.005-.179 5.284 1.489 10.576 2.93 15.268l7.648-2.348c-1.538-5.008-2.707-8.956-2.582-12.65.113-3.34 1.313-6.694 5.348-10.336l-5.36-5.939zm-5.054 31.273c2.506 8.163 4.65 15.518 1.273 23.798l7.408 3.021c4.585-11.242 1.4-21.242-1.033-29.167l-7.648 2.348zm1.273 23.798a21.66 21.66 0 0 1-.805 1.756l7.11 3.667a29.58 29.58 0 0 0 1.102-2.402l-7.408-3.021zm1.065 7.217l145.835 67.749 3.37-7.255-145.835-67.749-3.37 7.255zm143.288 63.999l.405 1.287 7.654-2.329-.438-1.394-7.621 2.436zm2.858-14.447c-1.46.874-2.611 2.046-3.355 3.51-.729 1.435-.944 2.908-.932 4.221.022 2.433.873 4.975 1.43 6.716l7.62-2.436c-.666-2.084-1.042-3.378-1.051-4.355-.003-.392.064-.519.066-.522s.01-.021.042-.054.117-.113.289-.216l-4.109-6.864zm12.212.888c-1.34-.631-3.207-1.532-5.156-1.949-2.121-.454-4.609-.403-7.056 1.061l4.109 6.864c.271-.162.568-.253 1.274-.102.877.188 1.879.637 3.421 1.364l3.408-7.238zm4.935 1.306c-.328.169-.718.25-1.497.072-.916-.21-1.934-.67-3.438-1.378l-3.408 7.238c1.325.623 3.148 1.501 5.064 1.938 2.052.47 4.483.507 6.939-.757l-3.66-7.113zm.345-5.288c-.155 1.972-.287 3.541-.559 4.737-.132.58-.256.87-.312.974-.049.089.081-.195.526-.423l3.66 7.113c2.695-1.386 3.558-4.269 3.926-5.889.428-1.881.593-4.087.735-5.885l-7.976-.627zm3.621-11.054c-1.993 1.577-2.663 4.055-2.978 5.605-.358 1.754-.51 3.768-.643 5.449l7.976.627c.143-1.82.266-3.302.505-4.479.117-.571.233-.92.318-1.109.089-.197.061-.038-.214.18l-4.964-6.273zm6.162 1.569L159.98 51.989l-7.36 3.134 59.565 139.893 7.361-3.135z"/><path id="C" d="M145.05 92.164c4.22.861 9.08 3.745 14.054 8.249 4.933 4.466 9.787 10.352 14.002 16.888 8.506 13.189 14.051 28.448 12.95 39.518-.276 2.772-2.11 5.043-5.11 7.512-1.104.909-2.267 1.769-3.49 2.672l-1.312.974c-1.659 1.241-3.381 2.587-4.867 4.091-1.317 1.333-2.648 2.79-3.95 4.216l-.566.619c-1.499 1.639-2.961 3.217-4.413 4.613-3.035 2.918-5.507 4.51-7.541 4.641-4.287.276-10.072-.657-16.568-2.637-6.456-1.968-13.448-4.919-20.094-8.534s-12.892-7.864-17.882-12.399c-5.018-4.56-8.612-9.269-10.213-13.775-2.152-6.057-.396-11.6 4.354-16.078 2.231-2.103 6.945-6.912 12.455-12.533l3.751-3.825 20.417-20.323c3.252-3.066 8.438-5.028 14.023-3.888z"/><path id="D" d="M35.117 159.35l.56 3.961h0l-.56-3.961zm-16.205 11.659l-3.766-1.349h0l3.766 1.349zm17.7-11.874l1.694-3.624-1.094-.511-1.194.179.594 3.956zm140.685 65.766l2.278 3.288 5.721-3.964-6.305-2.948-1.694 3.624zm-.497.422l-2.876-2.779h0l2.876 2.779zm3.835 8.379l2.78-2.875h0l-2.78 2.875zm4.999 8.297l-3.83-1.152h0l3.83 1.152zm-8.01 3.364l-.329-3.986h0l.329 3.986zm-7.027 3.442l-4-.072h0l4 .072zm6.909 6.92l2.09-3.41h0l-2.09 3.41zm6.869 6.268l-3.915.821h0l3.915-.821zm-5.248 6.744l-2.147-3.375h0l2.147 3.375zm-4.523 3.6l1.516 3.702 1.036-.424.665-.901-3.217-2.377zm-138.74 56.814l-3.888-.941-1.842 7.61 7.245-2.967-1.516-3.702zm-1.676-17.75l3.461-2.006h0l-3.461 2.006zm-10.955-14.17l3.002-2.644h0l-3.002 2.644zM9.919 275.873l-3.941.685h0l3.941-.685zm9.214-22.641l2.742 2.913h0l-2.742-2.913zm12.107-20.33l-3.959-.572 3.959.572zm-7.155-29.651l3.591-1.762h0l-3.591 1.762zm10.472-47.861c-3.058.432-6.988.942-10.56 2.934-3.795 2.117-6.816 5.652-8.851 11.336l7.532 2.697c1.498-4.184 3.388-6.027 5.216-7.046 2.052-1.145 4.458-1.53 7.782-2l-1.119-7.921zm1.46-.211l-1.46.211 1.119 7.921 1.53-.221-1.189-7.911zm142.973 66.098L38.306 155.511l-3.388 7.247 140.685 65.767 3.388-7.248zm-3.972.336a7.31 7.31 0 0 0-1.095.931l5.753 5.559a.69.69 0 0 1-.102.086l-4.556-6.576zm-1.095.931c-1.225 1.268-1.963 2.881-1.952 4.704.011 1.666.646 3.075 1.27 4.103 1.184 1.953 3.174 3.836 4.612 5.227l5.561-5.751-2.11-2.107c-.613-.658-1.002-1.153-1.223-1.518-.234-.385-.112-.348-.11-.004a1.59 1.59 0 0 1-.124.618 1.35 1.35 0 0 1-.116.216c-.034.049-.056.072-.055.071l-5.753-5.559zm3.93 14.034c1.501 1.451 2.657 2.587 3.395 3.623.784 1.098.409 1.13.555.646l7.661 2.305c.952-3.166-.497-5.906-1.702-7.596-1.251-1.754-2.998-3.425-4.348-4.729l-5.561 5.751zm3.95 4.269c.129-.43.489-.321-.371-.051-.949.298-2.258.426-4.138.581l.657 7.972c1.626-.134 3.906-.302 5.877-.92 2.06-.647 4.672-2.076 5.636-5.277l-7.661-2.305zm-4.509.53c-1.603.132-3.945.295-5.85.975-1.02.364-2.246.982-3.234 2.105-1.061 1.205-1.585 2.695-1.614 4.276l7.999.144c-.003.148-.082.527-.379.865-.224.254-.366.246-.083.145.277-.099.73-.206 1.434-.302.696-.095 1.468-.16 2.384-.236l-.657-7.972zm-10.698 7.356c-.057 3.182 1.993 5.427 3.503 6.743 1.602 1.397 3.659 2.644 5.315 3.659l4.181-6.82c-1.824-1.118-3.246-2.003-4.24-2.87-1.086-.946-.75-1.094-.76-.568l-7.999-.144zm8.818 10.402c1.656 1.015 2.997 1.846 4.002 2.668 1.094.894 1.089 1.23 1.043 1.011l7.83-1.642c-.541-2.58-2.388-4.401-3.809-5.563-1.509-1.234-3.355-2.357-4.885-3.294l-4.181 6.82zm5.045 3.679c.002.01-.004-.077.024-.154.01-.027-.029.097-.293.374-.615.648-1.619 1.315-3.211 2.328l4.294 6.75c1.351-.859 3.287-2.062 4.717-3.567 1.578-1.661 2.973-4.156 2.299-7.373l-7.83 1.642zm-3.48 2.548c-1.547.984-4.049 2.508-5.593 4.598l6.434 4.754c.471-.638 1.488-1.352 3.453-2.602l-4.294-6.75zm-139.6 67.491l138.74-56.814-3.032-7.403-138.739 56.813 3.032 7.404zm-6.652-19.447c2.783 4.803 2.553 9.417 1.249 14.804l7.775 1.882c1.512-6.245 2.181-13.304-2.102-20.697l-6.922 4.011zm-10.495-13.531c4.02 4.564 7.794 8.87 10.495 13.531l6.922-4.011c-3.167-5.466-7.499-10.362-11.414-14.808l-6.003 5.288zM5.978 276.558c1.581 9.107 8.396 16.666 14.255 23.317l6.003-5.288c-6.306-7.16-11.258-12.96-12.376-19.398l-7.882 1.369zm10.413-26.238c-2.872 2.703-6.22 5.804-8.407 9.958-2.292 4.352-3.177 9.535-2.006 16.28l7.882-1.369c-.913-5.26-.153-8.61 1.202-11.183 1.46-2.772 3.761-4.989 6.813-7.861l-5.484-5.825zm10.89-17.99c-1.283 8.873-5.843 13.238-10.89 17.99l5.484 5.825c5.159-4.857 11.618-10.865 13.324-22.671l-7.918-1.144zm-6.787-27.318c4.402 8.975 8.27 17.062 6.787 27.318l7.918 1.144c1.881-13.013-3.219-23.211-7.522-31.985l-7.183 3.523zm-5.348-35.352c-5.125 14.314.497 25.462 5.348 35.352l7.183-3.523c-4.98-10.154-8.853-18.366-4.998-29.132l-7.532-2.697z"/><path id="E" d="M67.424 210.503c3.533-2.462 8.974-3.992 15.665-4.489 6.636-.492 14.246.052 21.885 1.508 15.417 2.936 30.291 9.444 37.548 17.876 1.817 2.111 2.197 5.006 1.916 8.88-.103 1.426-.283 2.862-.472 4.371l-.2 1.622c-.245 2.057-.458 4.231-.394 6.345.057 1.873.195 3.842.329 5.768l.058.837c.153 2.216.287 4.363.297 6.377.02 4.21-.532 7.098-1.84 8.661-2.756 3.295-7.421 6.841-13.335 10.18-5.878 3.317-12.836 6.345-20.037 8.665s-14.587 3.912-21.311 4.398c-6.763.489-12.652-.156-17.019-2.104-5.87-2.619-8.673-7.713-8.64-14.241.016-3.066-.216-9.796-.487-17.663l-.183-5.354-.636-28.8c.023-4.47 2.178-9.578 6.855-12.837z"/><path id="F" d="M152.046 480.865l-2.284 3.285 4.201 2.921 1.821-4.783-3.738-1.423zm63.039-165.607l3.738 1.423 3.6-9.456-9.093 4.438 1.755 3.595zm-1.027.504l-1.766-3.589h0l1.766 3.589zm-11.328 2.679l-2.082 3.416h0l2.082-3.416zm-1.228-6.27l3.931.741h0l-3.931-.741zm-1.35-6.212l1.884-3.529h0l-1.884 3.529zm-6.638-1.052l.134 3.997h.013l.012-.001-.159-3.996zm-.001 0l-.134-3.998h-.013l-.012.001.159 3.997zm-6.576-.985l-1.801 3.572h0l1.801-3.572zm-.382-7.798l3.822 1.181h0l-3.822-1.181zm-.477-7.711l-2.716 2.936.487.451.606.269 1.623-3.656zm-5.447-2.792l1.575-3.678-.025-.01-.025-.011-1.525 3.699zm0-.001l-1.574 3.678.025.01.025.011 1.524-3.699zm-4.275-1.922l1.774-3.585-1.618-.801-1.671.684 1.515 3.702zM29.659 343.771l-1.516-3.702-1.91.782-.47 2.01 3.895.91zm1.085 16.759l3.614-1.716h0l-3.614 1.716zm24.9 15.758l1.295-3.785-.109-.037-.111-.031-1.075 3.853zm0 0l1.295-3.785-1.295 3.785zm0 0l-1.295 3.784.109.037.111.031 1.075-3.852zm24.835 15.966l3.648-1.64h0l-3.648 1.64zm-1.507 20.912l-3.787-1.286h0l3.787 1.286zm1.17 21.605l2.869-2.787h0l-2.869 2.787zm23.412 1.627l1.182 3.821h0l-1.182-3.821zm23.084-1.258l1.679-3.631h0l-1.679 3.631zm14.85 24.565l-3.891.925h0l3.891-.925zm14.297 22.583l63.039-165.607-7.477-2.846-63.039 165.607 7.477 2.846zm60.041-162.937l1.015-.498-3.51-7.19-1.038.51 3.533 7.178zm-15.177 2.506c2.859 1.743 6.074 1.15 8.266.477 2.325-.714 4.808-1.948 6.911-2.983l-3.533-7.178-5.727 2.513c-1.722.529-1.984.199-1.753.34l-4.164 6.831zm-3.077-10.426c-.204 1.084-.576 2.902-.425 4.652.178 2.052 1.094 4.306 3.502 5.774l4.164-6.831c-.001-.001.039.024.096.082a.98.98 0 0 1 .153.209c.085.152.068.218.055.075-.013-.158-.01-.433.047-.887l.27-1.593-7.862-1.481zm.697-1.944c.011.006-.031-.015-.096-.075a1.13 1.13 0 0 1-.192-.236c-.115-.189-.108-.299-.097-.188.013.13.015.386-.041.839l-.271 1.604 7.862 1.481c.205-1.089.59-2.952.409-4.731-.217-2.144-1.265-4.394-3.806-5.751l-3.768 7.057zm-4.595-.584c2.243-.089 3.372-.069 4.595.584l3.768-7.057c-3.366-1.797-6.57-1.604-8.682-1.52l.319 7.993zm-.025.001h0l-.269-7.995h0l.269 7.995zm-8.512-1.41c3.325 1.677 6.46 1.492 8.537 1.409l-.319-7.993c-2.2.087-3.361.074-4.616-.559l-3.602 7.143zm-2.403-12.55c-.459 1.488-1.152 3.647-1.265 5.624-.06 1.045.013 2.356.572 3.66.604 1.408 1.663 2.543 3.096 3.266l3.602-7.143c.226.114.507.38.655.724.103.241.042.294.061-.049.019-.329.099-.809.271-1.487l.652-2.234-7.644-2.361zm1.722-2.875c-.209-.093-.534-.351-.72-.747-.135-.288-.072-.391-.088-.071-.015.308-.089.774-.26 1.452l-.654 2.241 7.644 2.361c.46-1.491 1.163-3.675 1.261-5.662.051-1.055-.04-2.396-.659-3.717-.671-1.431-1.812-2.518-3.278-3.169l-3.246 7.312zm-5.398-2.771l3.089 1.374c.927.453 1.22.681 1.216.677l5.433-5.872c-.931-.861-2.167-1.518-3.135-1.992l-3.454-1.542-3.149 7.355zm.05.021h0l3.049-7.397h-.001l-3.048 7.397zm-4.525-2.036l4.475 2.015 3.148-7.355-4.075-1.83-3.548 7.17zm.259-7.287L28.143 340.069l3.032 7.404 146.697-60.074-3.031-7.403zM25.764 342.861c-1.36 5.82-1.954 12.39 1.366 19.384l7.227-3.431c-2.212-4.66-1.971-9.138-.803-14.133l-7.79-1.82zm1.366 19.384c5.722 12.056 17.761 15.195 27.439 17.895l2.15-7.705c-10.371-2.894-18.442-5.364-22.361-13.621l-7.227 3.431zm27.219 17.827h0l2.59-7.569h0l-2.59 7.569zm0 0h0l2.59-7.569h0l-2.59 7.569zm.22.068c10.469 2.921 18.5 5.39 22.261 13.755l7.296-3.281c-5.532-12.304-17.658-15.459-27.408-18.179l-2.15 7.705zm22.261 13.755c2.441 5.428.745 10.945-1.646 17.985l7.575 2.572c2.197-6.467 5.302-15.087 1.367-23.838l-7.296 3.281zm-1.646 17.985c-1.272 3.746-2.78 8.09-2.976 12.384-.21 4.594 1.058 9.17 5.064 13.294l5.738-5.574c-2.297-2.364-2.932-4.708-2.811-7.353.135-2.945 1.195-6.159 2.56-10.179l-7.575-2.572zm2.088 25.678c4.209 4.334 9.045 5.724 13.932 5.586 4.597-.13 9.347-1.63 13.531-2.925l-2.365-7.642c-4.458 1.38-8.101 2.477-11.392 2.57-3.002.085-5.55-.675-7.967-3.163l-5.738 5.574zm27.463 2.661c7.844-2.427 14.219-4.224 20.224-1.448l3.357-7.262c-9.25-4.275-18.714-1.17-25.946 1.068l2.365 7.642zm20.224-1.448c8.096 3.742 10.211 11.646 12.637 21.859l7.783-1.849c-2.245-9.452-4.905-21.652-17.063-27.272l-3.357 7.262zm12.637 21.859c1.889 7.957 4.054 17.88 12.166 23.52l4.567-6.569c-5.142-3.575-6.871-10.046-8.95-18.8l-7.783 1.849z"/><path id="G" d="M91.002 352.572c.617-4.262 3.218-9.28 7.428-14.504 4.176-5.182 9.773-10.365 16.057-14.948 12.679-9.249 27.595-15.661 38.71-15.196 2.783.116 5.155 1.817 7.792 4.67.971 1.05 1.896 2.162 2.869 3.331l1.047 1.254c1.334 1.585 2.776 3.226 4.363 4.624 1.407 1.238 2.938 2.484 4.436 3.701l.651.53c1.722 1.403 3.381 2.772 4.858 4.142 3.087 2.862 4.819 5.239 5.066 7.262.522 4.264-.077 10.092-1.681 16.691-1.595 6.559-4.14 13.708-7.367 20.551s-7.112 13.322-11.352 18.564c-4.265 5.272-8.76 9.13-13.167 10.987-5.923 2.496-11.558 1.061-16.301-3.424-2.228-2.107-7.299-6.537-13.228-11.715l-4.033-3.526-21.462-19.217c-3.247-3.071-5.504-8.135-4.687-13.777z"/><path id="H" d="M269.245 318.609l3.68-1.567-3.375-7.928-3.877 7.695 3.572 1.8zm64.686 151.918l.588 3.956 5.121-.76-2.028-4.763-3.681 1.567zm-68.294-149.325l.619 3.952h0l-.619-3.952zm-7.156-3.785l-2.721 2.932h0l2.721-2.932zm-6.989-3.862l.364 3.984h0l-.364-3.984zm-7.393 7.029l-3.453-2.018h0l3.453 2.018zm-7.577 6.632l-.239 3.993h0l.239-3.993zm-5.091-5.976l-3.722 1.465h0l3.722-1.465zm-3.378-5.52l2.193-3.346-4.161-2.727-1.77 4.65 3.738 1.423zm-65.132 171.102l-3.738-1.423-1.771 4.652 4.924.728.585-3.957zm23.374-9.14l2.379 3.216h0l-2.379-3.216zm24.806-10.169l.271-3.991h0l-.271 3.991zm20.517 10.104l2.514-3.111h0l-2.514 3.111zm22.341 9.258l.411 3.978-.411-3.978zm17.829-9.371l2.633 3.012h0l-2.633-3.012zm14.87-9.392l1.195 3.817h0l-1.195-3.817zm26.775.59l-.849 3.909h0l.849-3.909zm-47.868-148.526l64.686 151.918 7.361-3.134-64.687-151.918-7.36 3.134zm.691 4.978c3.255-.51 5.366-2.373 6.561-4.745l-7.144-3.6c-.123.243-.202.299-.207.304s-.033.023-.089.046-.171.062-.36.092l1.239 7.903zm-10.496-4.805c1.064.987 2.481 2.321 4.043 3.297 1.627 1.017 3.834 1.919 6.453 1.508l-1.239-7.903c-.013.002-.251.063-.976-.39-.792-.495-1.636-1.26-2.839-2.376l-5.442 5.864zm-3.904-2.81c.061-.006.359-.024 1.106.457.796.511 1.634 1.273 2.798 2.353l5.442-5.864c-1.039-.964-2.409-2.251-3.914-3.219-1.553-.998-3.648-1.924-6.161-1.694l.729 7.967zm-4.303 5.063c1.022-1.749 1.797-3.044 2.642-3.984.777-.863 1.278-1.044 1.661-1.079l-.729-7.967c-3.088.283-5.312 1.954-6.879 3.695-1.497 1.664-2.682 3.724-3.602 5.299l6.907 4.036zm-11.27 8.607c3.334.199 5.796-1.378 7.506-3.171 1.582-1.659 2.819-3.819 3.764-5.436l-6.907-4.036c-1.076 1.84-1.839 3.104-2.646 3.95-.679.712-.996.722-1.24.708l-.477 7.985zm-8.574-8.504c.525 1.335 1.265 3.277 2.372 4.854 1.22 1.737 3.194 3.471 6.202 3.65l.477-7.985c-.013-.001.009-.001.051.013s.072.031.085.04c.02.012-.079-.046-.268-.316-.449-.64-.852-1.602-1.475-3.185l-7.444 2.929zm-1.849-3.64c.032.021.272.204.657.907s.734 1.569 1.192 2.733l7.444-2.929-1.623-3.654c-.678-1.236-1.691-2.704-3.284-3.748l-4.386 6.691zm-59.2 169.18l65.131-171.102-7.476-2.846-65.132 171.102 7.477 2.846zm-4.324 2.534c11.073 1.639 19.388-4.74 26.338-9.881l-4.757-6.431c-7.476 5.529-13.122 9.477-20.41 8.398l-1.171 7.914zm26.338-9.881c7.397-5.471 13.705-9.967 22.157-9.394l.541-7.982c-11.807-.8-20.409 5.732-27.455 10.945l4.757 6.431zm22.157-9.394c7.324.495 12.364 4.448 18.272 9.224l5.029-6.222c-5.71-4.616-12.586-10.295-22.76-10.984l-.541 7.982zm18.272 9.224c6.305 5.097 13.769 11.311 25.267 10.125l-.821-7.957c-7.818.806-12.855-3.085-19.417-8.39l-5.029 6.222zm25.267 10.125c9.456-.975 15.103-6.012 20.051-10.337l-5.266-6.023c-5.011 4.38-8.94 7.715-15.606 8.403l.821 7.957zm20.051-10.337c4.184-3.659 7.9-6.854 13.432-8.587l-2.391-7.634c-7.328 2.295-12.184 6.594-16.307 10.198l5.266 6.023zm13.432-8.587c8.721-2.731 16.253-1.159 24.731.682l1.698-7.818c-8.345-1.812-17.837-3.938-28.82-.498l2.391 7.634zm24.731.682c6.595 1.432 13.919 3.063 21.935 1.872l-1.175-7.913c-6.353.944-12.279-.303-19.062-1.777l-1.698 7.818z"/><path id="I" d="M212.077 434.625c-2.402-3.574-3.841-9.04-4.225-15.738-.38-6.644.292-14.243 1.875-21.858 3.196-15.365 9.953-30.127 18.505-37.242 2.142-1.781 5.042-2.112 8.912-1.766 1.424.127 2.857.331 4.362.546l1.618.227c2.053.28 4.223.529 6.337.5 1.875-.025 3.846-.13 5.773-.232l.839-.044c2.218-.115 4.366-.213 6.38-.189 4.21.051 7.088.651 8.629 1.985 3.249 2.811 6.715 7.535 9.954 13.505 3.219 5.932 6.129 12.941 8.327 20.18s3.667 14.65 4.04 21.382c.375 6.771-.369 12.647-2.39 16.981-2.718 5.825-7.858 8.542-14.385 8.399-3.065-.067-9.798.051-17.668.19l-5.356.093-28.808.151c-4.468-.098-9.539-2.339-12.719-7.07z"/><path id="J" d="M312.663 285.151l1.662-3.638-3.719-1.699-1.617 3.756 3.674 1.581zm129.907 59.356l2.471 3.145 5.163-4.055-5.971-2.729-1.663 3.639zm-130.53-58.365l-3.068-2.567h0l3.068 2.567zm-9.131.992l.806-3.918-.019-.003-.018-.004-.769 3.925zm0 0l.769-3.925-.017-.003-.017-.004-.735 3.932zm0 0l-.805 3.919.035.007.036.006.734-3.932zm-8.968 1.111l-3.22-2.374h0l3.22 2.374zm.22 8.157l-3.848 1.093.007.027.008.026 3.833-1.146zm0 0l3.842-1.111-.005-.018-.005-.017-3.832 1.146zm0 0l3.847-1.092-.002-.01-.003-.009-3.842 1.111zm.187 8.195l-3.185-2.419h0l3.185 2.419zm-8.279-1.058l-1.91 3.514.06.033.062.031 1.788-3.578zm0 0l1.91-3.515-.094-.05-.096-.046-1.72 3.611zm0 0l-1.788 3.578.033.017.034.016 1.721-3.611zm-9.02-2.106l-1.615-3.66h0l1.615 3.66zm-.9.491l-2.216-3.33-2.765 1.84 1.301 3.057 3.68-1.567zm69.057 162.186l-3.68 1.567 1.599 3.754 3.722-1.673-1.641-3.648zm19.828-23.668l3.658 1.617h0l-3.658-1.617zm21.93-24.2l-1.346-3.766h0l1.346 3.766zm22.037-1.663l-.298 3.989h0l.298-3.989zm25.677-5.003l-2.453-3.159h0l2.453 3.159zm2.495-28.017l3.785-1.292h0l-3.785 1.292zm-2.051-27.926l3.609 1.724h0l-3.609-1.724zM311.001 288.79l129.907 59.355 3.325-7.277-129.908-59.355-3.324 7.277zm4.106-.081a8 8 0 0 0 1.23-1.976l-7.348-3.163.017-.037c.007-.012-.005.007-.034.042l6.135 5.134zm-13.003 2.344c1.644.337 3.883.818 6.006.774 2.267-.047 4.974-.699 6.997-3.118l-6.135-5.134c-.025.029-.122.235-1.027.254-1.049.021-2.351-.226-4.23-.613l-1.611 7.837zm.037.007h0l1.537-7.851h0l-1.537 7.851zm.034.006h0l1.469-7.864h0l-1.469 7.864zm-5.015-.448c.041-.056.046-.051.066-.06.06-.026.259-.093.698-.106.998-.031 2.272.208 4.18.601l1.611-7.837c-1.65-.339-3.914-.826-6.038-.761-2.306.072-5.037.814-6.956 3.416l6.439 4.747zm.848 4.691l-.869-3.746c-.09-.934.098-1.049.021-.945l-6.439-4.747c-1.59 2.157-1.726 4.595-1.544 6.464.177 1.83.728 3.724 1.136 5.16l7.695-2.186zm-.015-.053h0l-7.665 2.292h0l7.665-2.292zm.01.035h0l-7.685 2.223h0l7.685-2.223zm-.469 11.725c1.64-2.16 1.792-4.621 1.614-6.508-.174-1.845-.729-3.754-1.14-5.198l-7.695 2.185c.462 1.628.779 2.791.87 3.762.088.93-.103 1.03-.02.921l6.371 4.838zm-13.253.101c1.557.778 3.674 1.863 5.67 2.324 1.054.243 2.383.394 3.783.066 1.506-.354 2.821-1.202 3.8-2.491l-6.371-4.838a1.39 1.39 0 0 1 .741-.459c.221-.052.224.014-.153-.073-.366-.085-.876-.262-1.579-.571l-2.315-1.114-3.576 7.156zm-.123-.064h.001l3.82-7.028v-.001l-3.821 7.029zm.19.097h.001l3.44-7.222h0l-3.441 7.222zm-5.685-2.058c.002 0 .018-.008.06-.015a1.22 1.22 0 0 1 .247-.012c.261.008.65.068 1.202.237 1.162.355 2.467.995 4.109 1.815l3.576-7.156c-1.495-.747-3.424-1.723-5.35-2.311-1.909-.583-4.506-1.009-7.073.123l3.229 7.319zm-.297.161c.079-.052.176-.107.297-.161l-3.229-7.319c-.53.234-1.031.508-1.501.821l4.433 6.659zm70.521 157.29L279.83 300.356l-7.361 3.135 69.057 162.186 7.361-3.134zm-2.04 5.215c13.226-5.946 17.815-16.581 21.845-25.699l-7.317-3.234c-4.082 9.235-7.659 17.073-17.809 21.637l3.281 7.296zm21.845-25.699c4.321-9.775 8.03-17.909 19.618-22.05l-2.692-7.533c-15.093 5.394-19.944 16.625-24.243 26.349l7.317 3.234zm19.618-22.05c6.747-2.411 13.262-1.973 20.393-1.441l.595-7.978c-6.961-.519-15.117-1.175-23.68 1.886l2.692 7.533zm20.393-1.441c8.855.66 18.934 1.54 28.428-5.832l-4.906-6.319c-6.76 5.249-13.758 4.856-22.927 4.173l-.595 7.978zm28.428-5.832c5.858-4.548 7.875-10.135 7.736-16.029-.129-5.483-2.141-11.263-3.909-16.44l-7.571 2.584c1.882 5.513 3.388 10.041 3.482 14.044.085 3.592-.97 6.669-4.644 9.522l4.906 6.319zm3.827-32.469c-3.234-9.475-5.767-17.496-2.227-24.91l-7.219-3.448c-5.184 10.857-1.115 22.182 1.875 30.942l7.571-2.584zm-2.227-24.91c1.52-3.183 3.682-5.64 6.31-7.705l-4.941-6.291c-3.42 2.686-6.448 6.069-8.588 10.548l7.219 3.448z"/><path id="K" d="M349.333 406.093c-4.228-.814-9.121-3.644-14.145-8.091-4.982-4.411-9.901-10.243-14.189-16.732-8.651-13.093-14.366-28.29-13.388-39.371.244-2.775 2.053-5.066 5.025-7.568 1.094-.921 2.248-1.794 3.461-2.712l1.301-.988c1.645-1.259 3.351-2.624 4.821-4.144 1.302-1.348 2.617-2.82 3.902-4.26l.56-.626c1.481-1.655 2.925-3.249 4.362-4.661 3.002-2.952 5.456-4.571 7.488-4.725 4.284-.324 10.079.544 16.597 2.452 6.477 1.896 13.501 4.769 20.187 8.31s12.979 7.72 18.019 12.199c5.069 4.505 8.715 9.173 10.366 13.661 2.219 6.033.525 11.595-4.175 16.126-2.207 2.127-6.868 6.989-12.315 12.671l-3.708 3.866-20.19 20.549c-3.218 3.102-8.381 5.121-13.979 4.044z"/><path id="L" d="M487.524 158.01l3.254-2.325-1.84-2.576-2.93 1.2 1.516 3.701zm1.78 2.94l3.557-1.829h0l-3.557 1.829zm-176.329 68.538l-1.516-3.702-11.993 4.911 12.674 2.703.835-3.912zm3.348 1.947l3.667-1.598h0l-3.667 1.598zm-3.258 8.018l2.996 2.65h0l-2.996-2.65zm-3.959 7.368l3.995-.189h0l-3.995.189zm6.869 6.679l-1.853 3.545h0l1.853-3.545zm6.355 7.014l3.935.716h0l-3.935-.716zm-7.243 4.628l-1.083-3.851h0l1.083 3.851zm-7.03 3.731l-3.545-1.853-1.937 3.706 3.788 1.771 1.694-3.624zm148.186 69.277l-1.694 3.624 1.677.783 1.682-.77-1.665-3.637zm3.837-1.709l1.609 3.662h0l-1.609-3.662zm21.247-19.544l3.92.797h0l-3.92-.797zm-9.094-23.888l3.123-2.5h0l-3.123 2.5zm-10.303-22.142l4 .021h0l-4-.021zm14.689-21.883l-2.271-3.293h0l2.271 3.293zm.296-36.125l-1.533 3.695h0l1.533-3.695zm-14.449-9.565l3.419-2.076h0l-3.419 2.076zm12.885-20.671l2.14 3.38h0l-2.14-3.38zm8.918-22.287c.507.709 1.002 1.518 1.477 2.443l7.115-3.658a27.65 27.65 0 0 0-2.083-3.436l-6.509 4.651zM314.49 233.19l174.55-71.478-3.032-7.403-174.549 71.477 3.031 7.404zm-2.35.21l.732.189c.188.061.283.106.314.123s-.043-.018-.157-.129c-.123-.121-.266-.306-.373-.55l7.334-3.196c-.702-1.612-1.935-2.595-3.036-3.182-1.061-.567-2.202-.878-3.145-1.079l-1.669 7.824zm.516-.367c.046.104.035.123.034.129-.004.041-.03.21-.206.548-.413.793-1.172 1.687-2.415 3.093l5.992 5.3c1.06-1.199 2.563-2.861 3.52-4.701 1.062-2.041 1.661-4.693.409-7.565l-7.334 3.196zm-2.587 3.77c-.957 1.081-2.219 2.493-3.185 4.047-.991 1.597-1.891 3.68-1.774 6.16l7.991-.378c-.012-.266.062-.728.579-1.561.544-.875 1.325-1.774 2.381-2.968l-5.992-5.3zm-4.959 10.207c.15 3.159 1.962 5.345 3.698 6.775 1.667 1.373 3.751 2.443 5.314 3.26l3.706-7.09c-1.759-.919-3.036-1.605-3.934-2.346-.832-.684-.792-.969-.793-.977l-7.991.378zm9.012 10.035c1.9.993 3.136 1.668 3.908 2.363.334.3.397.451.392.439-.029-.068-.014-.128-.028-.05l7.871 1.433c.637-3.499-1.02-6.092-2.885-7.77-1.678-1.509-3.926-2.655-5.552-3.505l-3.706 7.09zm4.272 2.752c.066-.361.341-.266-.464.157-.878.461-2.118.828-3.926 1.337l2.167 7.701c1.574-.443 3.707-1.024 5.481-1.957 1.846-.97 4.05-2.714 4.613-5.805l-7.871-1.433zm-4.39 1.494c-1.409.397-3.216.895-4.803 1.62-1.571.716-3.545 1.92-4.689 4.109l7.09 3.706c-.07.133-.014-.111.92-.537.917-.419 2.088-.758 3.649-1.197l-2.167-7.701zm143.933 73.236l-148.186-69.278-3.388 7.248 148.186 69.277 3.388-7.247zm.534-1.748l-3.893 1.734 3.33 7.274 3.781-1.684-3.218-7.324zm18.936-16.678c-1.804 8.882-8.898 12.269-18.936 16.678l3.218 7.324c9.292-4.082 20.807-8.869 23.558-22.409l-7.84-1.593zm-8.296-20.592c5.821 7.271 9.904 12.68 8.296 20.592l7.84 1.593c2.453-12.074-4.42-20.35-9.891-27.185l-6.245 5zm-11.181-24.663c-.057 10.829 6.201 18.442 11.181 24.663l6.245-5c-5.234-6.538-9.466-12.028-9.426-19.621l-8-.042zm16.418-25.155c-3.572 2.464-7.724 5.293-10.895 9.174-3.308 4.05-5.486 9.138-5.523 15.981l8 .042c.026-4.954 1.53-8.282 3.719-10.962 2.327-2.848 5.488-5.061 9.241-7.649l-4.542-6.586zm13.106-18.88c-.04 5.052-1.574 8.444-3.793 11.163-2.356 2.887-5.545 5.119-9.313 7.717l4.542 6.586c3.59-2.475 7.77-5.325 10.969-9.246 3.336-4.088 5.54-9.23 5.595-16.156l-8-.064zm-12.072-10.257c3.86 1.602 6.953 2.917 9.153 4.636 1.958 1.529 2.939 3.161 2.919 5.621l8 .064c.043-5.463-2.526-9.28-5.994-11.989-3.226-2.521-7.434-4.236-11.012-5.721l-3.066 7.389zm-16.335-11.184c1.917 3.157 4.71 5.37 7.559 7.053 2.824 1.668 5.982 2.972 8.776 4.131l3.066-7.389c-2.902-1.204-5.52-2.298-7.773-3.629-2.227-1.316-3.81-2.704-4.79-4.318l-6.838 4.152zm14.164-26.126c-4.455 2.821-9.68 6.079-12.917 9.973-1.692 2.035-3.063 4.487-3.407 7.391-.35 2.955.42 5.896 2.16 8.762l6.838-4.152c-1.003-1.653-1.154-2.82-1.054-3.669.107-.901.559-1.949 1.614-3.217 2.255-2.712 6.216-5.271 11.046-8.329l-4.28-6.759zm12.535-16.465c.911 1.77 1.03 3.093.852 4.14-.187 1.105-.776 2.314-1.941 3.688-2.462 2.902-6.594 5.565-11.446 8.637l4.28 6.759c4.514-2.859 9.848-6.19 13.267-10.221 1.774-2.093 3.229-4.585 3.727-7.525.509-2.997-.044-6.064-1.624-9.136l-7.115 3.658z"/><path id="M" d="M426.054 288.134c-3.576 2.4-9.043 3.836-15.741 4.216-6.644.377-14.243-.299-21.857-1.887-15.363-3.204-30.122-9.969-37.231-18.525-1.78-2.143-2.11-5.043-1.762-8.913.129-1.424.333-2.856.548-4.361l.228-1.618c.281-2.053.532-4.224.504-6.338-.024-1.874-.127-3.845-.228-5.772l-.044-.839c-.115-2.218-.211-4.367-.186-6.381.053-4.21.656-7.088 1.99-8.628 2.813-3.247 7.539-6.711 13.51-9.946 5.934-3.215 12.945-6.122 20.185-8.316s14.652-3.659 21.384-4.028c6.771-.371 12.648.376 16.98 2.4 5.824 2.72 8.538 7.862 8.391 14.389-.069 3.064.046 9.798.18 17.668l.09 5.356.136 28.808c-.1 4.468-2.344 9.538-7.077 12.715z"/><path id="N" d="M479.695 146.846l1.326 3.239 9.26-3.792-9.605-2.806-.981 3.359zm-17.924.337l-.538-3.458h0l.538 3.458zm-158.176 71.776l-3.474.424.555 4.553 4.245-1.738-1.326-3.239zm.052-5.401l-3.492-.23h0l3.492.23zm-1.109-8.449l2.644-2.293h0l-2.644 2.293zm-8.207.304l1.346 3.231h0l-1.346-3.231zm-8.139.258l-2.695 2.233h0l2.695-2.233zm-1.389-8.449l3.5-.049h0l-3.5.049zm-2.382-9.806l1.726-3.044h0l-1.726 3.044zm-2.642.219l-3.271-1.245-3.445 9.051 8.435-4.757-1.719-3.049zm52.432-137.739l1.578-3.124-3.467-1.751-1.382 3.63 3.271 1.245zm.785.377l1.454-3.184h0l-1.454 3.184zm27.225-4.272l-1.452-3.184h0l1.452 3.184zm26.45-.784l2.586-2.358h0l-2.586 2.358zm4.219 23.303l3.479.385h0l-3.479-.385zm4.738 23.407l-2.447 2.502h0l2.447-2.502zm22.705 2.633l.797 3.408h0l-.797-3.408zm22.762 2.448l-2.387 2.56h0l2.387-2.56zm-.39 24.191l3.231 1.346h0l-3.231-1.346zm.008 23.92l-2.253 2.677h0l2.253-2.677zm39.963-1.631c-6.366-1.86-13.497-.687-19.443.238l1.075 6.917c6.357-.989 11.825-1.774 16.405-.436l1.963-6.719zm-175.755 78.711l176.1-72.113-2.653-6.478-176.099 72.113 2.652 6.478zm-4.766-8.87c-.119 1.798-.279 4.046-.034 6.055l6.948-.848c-.149-1.224-.06-2.763.071-4.747l-6.985-.46zm-.262-5.926c.033.037.281.393.373 1.615.089 1.176.003 2.579-.111 4.311l6.985.46c.106-1.603.24-3.532.106-5.299-.13-1.723-.548-3.924-2.064-5.673l-5.289 4.586zm-4.216 1.242c1.674-.697 2.786-1.136 3.668-1.261.382-.054.528-.014.535-.012-.018-.008-.025-.012-.031-.016-.015-.009.002-.003.044.047l5.289-4.586c-2.015-2.324-4.652-2.67-6.818-2.363-1.949.275-3.949 1.133-5.379 1.73l2.692 6.461zm-12.18-.74c1.975 2.384 4.616 2.766 6.799 2.465 1.946-.268 3.951-1.129 5.381-1.725l-2.692-6.461c-1.682.7-2.782 1.133-3.644 1.251-.37.051-.494.009-.479.014.063.019.083.06.025-.01l-5.39 4.466zm-2.193-10.633c.023 1.688.046 3.612.252 5.316.191 1.579.607 3.707 1.941 5.317l5.39-4.466c.041.049-.214-.307-.381-1.692-.153-1.26-.178-2.781-.203-4.573l-6.999.098zm-.609-6.81c-.345-.195.016-.255.296 1.358.248 1.437.282 3.267.313 5.452l6.999-.098c-.028-2.023-.053-4.454-.415-6.547-.331-1.916-1.132-4.775-3.741-6.254l-3.452 6.089zm.803.223c.203-.115.194-.067.011-.048-.101.01-.24.01-.399-.023a1.41 1.41 0 0 1-.415-.152l3.452-6.089c-2.314-1.312-4.599-.625-6.087.214l3.438 6.098zM328.94 48.651l-52.432 137.74 6.542 2.49 52.432-137.739-6.542-2.49zm5.51-1.562a18.2 18.2 0 0 1-.661-.318l-3.156 6.248a25.56 25.56 0 0 0 .91.437l2.907-6.368zm24.319-4.273c-4.515 2.059-8.767 3.984-12.945 4.961-4.095.957-7.832.928-11.374-.688l-2.907 6.368c5.383 2.457 10.811 2.32 15.874 1.137 4.979-1.164 9.877-3.411 14.256-5.409l-2.904-6.369zm30.488.042c-4.536-4.977-9.893-6.159-15.303-5.399-5.072.712-10.367 3.159-15.185 5.357l2.904 6.369c5.095-2.324 9.395-4.252 13.254-4.794 3.521-.494 6.432.193 9.157 3.182l5.173-4.715zm5.112 26.045c.883-7.98 2.181-18.043-5.112-26.045l-5.173 4.715c4.831 5.302 4.28 11.952 3.328 20.56l6.957.77zm3.706 20.519c-5.208-5.093-4.685-11.673-3.706-20.519l-6.957-.77c-.903 8.161-2.247 18.455 5.769 26.294l4.894-5.005zm19.461 1.728c-8.488 1.984-14.485 3.139-19.461-1.728l-4.894 5.005c8.131 7.952 18.252 5.339 25.949 3.539l-1.594-6.816zm25.946 3.296c-8.231-7.675-18.293-5.085-25.946-3.296l1.594 6.816c8.414-1.967 14.486-3.149 19.578 1.599l4.774-5.12zm.454 28.097c1.783-4.279 3.848-9.17 4.43-13.873.614-4.966-.387-10.031-4.884-14.224l-4.774 5.12c2.482 2.314 3.119 4.943 2.711 8.245-.441 3.565-2.06 7.516-3.945 12.041l6.462 2.692zm-.969 19.896c-2.616-2.202-3.295-4.705-2.938-7.89.391-3.495 1.999-7.427 3.907-12.006l-6.462-2.692c-1.797 4.312-3.877 9.232-4.402 13.92-.559 4.997.619 10.01 5.388 14.023l4.507-5.355zm18.266 1.285c-4.067.632-7.656 1.179-10.869 1.082-3.138-.094-5.534-.799-7.397-2.367l-4.507 5.355c3.492 2.94 7.637 3.888 11.694 4.009 3.984.12 8.246-.554 12.154-1.162l-1.075-6.917z"/><path id="O" d="M400.287 149.154c-.723 4.246-3.448 9.197-7.788 14.315-4.303 5.076-10.028 10.118-16.424 14.543-12.906 8.929-27.977 14.967-39.077 14.226-2.779-.186-5.109-1.945-7.674-4.863-.944-1.074-1.841-2.209-2.784-3.402l-1.016-1.28c-1.294-1.618-2.695-3.294-4.246-4.731-1.376-1.273-2.876-2.556-4.342-3.811l-.638-.546c-1.687-1.445-3.311-2.855-4.753-4.261-3.015-2.939-4.687-5.358-4.884-7.386-.415-4.276.329-10.088 2.097-16.645 1.758-6.517 4.48-13.6 7.877-20.36s7.442-13.141 11.812-18.275c4.396-5.164 8.985-8.909 13.437-10.656 5.984-2.347 11.581-.773 16.211 3.83 2.174 2.162 7.134 6.717 12.931 12.041l3.944 3.625 20.976 19.747c3.169 3.151 5.299 8.27 4.341 13.889z"/><path id="P" d="M261.974 199.632l-1.255 3.798 3.632 1.201 1.361-3.576-3.738-1.423zm60.296-158.4l3.738 1.423.698-1.833-1.022-1.674-3.414 2.084zm-3.915-10.197l-3.849 1.09h0l3.849-1.09zm-13.141-16.873l-1.22 3.809h0l1.22-3.809zm-29.631 9.204l2.362 3.228h0l-2.362-3.228zm-28.449 10.815l-.549 3.962.549-3.962zm-19.506-10.504l-2.592 3.047h0l2.592-3.047zm-20.519-10.294l.254-3.992h0l-.254 3.992zM184.736 28.7l3.489 1.957h0l-3.489-1.957zm-15.934 16.997l-1.569-3.679-3.677 1.568 1.566 3.678 3.68-1.567zm64.068 150.467l-3.68 1.567.581 1.365 1.331.655 1.768-3.587zm3.4.646l.606 3.954h0l-.606-3.954zm7.393-6.91l3.334 2.21h0l-3.334-2.21zm7.818-6.624l-.16 3.997h0l.16-3.997zm5.693 8.123l3.862-1.043h0l-3.862 1.043zm8.538 9.656l60.296-158.4-7.477-2.846-60.295 158.4 7.476 2.846zm59.972-161.907c-1.583-2.593-2.461-5.605-3.481-9.204l-7.697 2.181c.967 3.414 2.101 7.507 4.349 11.191l6.829-4.168zm-3.481-9.204c-.967-3.415-2.09-7.485-4.344-11.032-2.38-3.747-5.923-6.797-11.424-8.56l-2.441 7.618c3.694 1.184 5.722 3.043 7.113 5.232 1.518 2.389 2.368 5.282 3.399 8.923l7.697-2.181zm-15.768-19.592c-14.064-4.507-24.488 3.402-33.214 9.785l4.724 6.457c9.301-6.804 16.403-11.715 26.049-8.623l2.441-7.618zm-33.214 9.785c-8.588 6.283-15.89 11.42-25.538 10.082l-1.098 7.924c13.325 1.848 23.203-5.582 31.36-11.549l-4.724-6.457zm-25.538 10.082c-7.261-1.007-11.962-4.909-17.463-9.589l-5.184 6.094c5.387 4.582 11.706 10.054 21.549 11.419l1.098-7.924zM230.22 20.63c-5.685-4.835-12.282-10.565-22.857-11.239l-.509 7.984c7.624.486 12.373 4.408 18.182 9.349l5.184-6.094zM207.363 9.391c-7.582-.483-13.059 1.511-17.276 5.153-3.969 3.427-6.56 8.135-8.84 12.2l6.978 3.914c2.435-4.342 4.378-7.716 7.09-10.058 2.463-2.127 5.815-3.589 11.539-3.224l.509-7.984zm-26.116 17.352c-3.711 6.617-7.009 12.286-14.014 15.274l3.139 7.358c9.822-4.19 14.262-12.317 17.853-18.719l-6.978-3.914zm-16.125 20.521l64.068 150.467 7.361-3.134L172.483 44.13l-7.361 3.134zm70.542 145.592c-.108.017-.391.032-1.025-.28l-3.537 7.175c1.57.775 3.543 1.355 5.774 1.013l-1.212-7.908zm4.665-5.166c-1.103 1.664-1.98 2.967-2.896 3.942-.896.953-1.454 1.176-1.769 1.224l1.212 7.908c2.816-.432 4.897-2.069 6.386-3.653 1.469-1.563 2.724-3.475 3.735-5.001l-6.668-4.42zm11.313-8.411c-3.22-.129-5.628 1.488-7.295 3.143-1.601 1.592-2.951 3.657-4.018 5.268l6.668 4.42c1.191-1.797 2.081-3.111 2.989-4.013.843-.837 1.215-.829 1.335-.824l.321-7.994zm9.394 11.077c-.503-1.862-1.16-4.392-2.298-6.425-1.248-2.23-3.453-4.506-7.096-4.652l-.321 7.994c.068.003.077.011.052.002s-.043-.02-.04-.018c.019.014.179.143.424.581.553.989.974 2.45 1.555 4.604l7.724-2.086zm2.194 5.478c-.012-.004-.022-.008-.038-.019s-.061-.043-.125-.11c-.139-.146-.345-.426-.59-.93-.525-1.079-.925-2.507-1.441-4.419l-7.724 2.086c.464 1.716 1.049 3.937 1.971 5.833.939 1.928 2.546 4.2 5.436 5.155l2.511-7.596z"/><path id="Q" d="M285.327 68.234c2.416 3.665 3.83 9.245 4.159 16.063.326 6.763-.427 14.488-2.108 22.219-3.391 15.597-10.399 30.557-19.172 37.722-2.207 1.802-5.174 2.111-9.108 1.723-1.448-.142-2.904-.363-4.433-.595l-1.642-.245c-2.085-.303-4.287-.576-6.434-.567-1.905.009-3.909.097-5.87.183l-.853.038c-2.256.097-4.443.177-6.492.133-4.28-.09-7.216-.726-8.783-2.108-3.283-2.893-6.768-7.733-10.007-13.834-3.22-6.065-6.116-13.22-8.286-20.604s-3.595-14.935-3.913-21.788c-.32-6.891.49-12.868 2.59-17.265 2.824-5.915 8.093-8.638 14.742-8.433 3.115.096 9.961.038 17.965-.031l5.448-.045 29.295.109c4.555.141 9.704 2.472 12.902 7.325z"/><path id="R" d="M172.583 139.027c-.044 5.502-5.017 10.285-11.573 10.233s-11.452-4.914-11.408-10.415 5.017-10.286 11.572-10.234 11.453 4.914 11.409 10.416z"/><path id="S" d="M246.656 87.848c-.055 7.034-6.393 13.049-14.62 12.983s-14.468-6.179-14.412-13.213 6.394-13.048 14.62-12.983 14.468 6.18 14.412 13.213z"/><path id="T" d="M361.406 163.409c-.045 5.71-5.204 10.66-11.986 10.606s-11.861-5.085-11.815-10.795 5.203-10.66 11.985-10.606 11.861 5.086 11.816 10.795z"/><path id="U" d="M402.38 260.138c-.073 9.234-8.371 17.017-18.998 16.933s-18.8-7.998-18.727-17.232 8.372-17.017 18.998-16.932 18.8 7.997 18.727 17.231z"/><path id="V" d="M362.146 338.47c-.063 7.914-7.185 14.636-16.371 14.563s-16.202-6.907-16.139-14.821 7.185-14.636 16.372-14.563 16.201 6.907 16.138 14.821z"/><path id="W" d="M424.456 230.897c-.047 5.975-5.441 11.138-12.512 11.082s-12.383-5.304-12.336-11.279 5.442-11.138 12.513-11.082 12.383 5.305 12.335 11.279z"/></defs></svg>