<?xml version="1.0" encoding="UTF-8" standalone="no"?>
<svg
   xmlns:dc="http://purl.org/dc/elements/1.1/"
   xmlns:cc="http://creativecommons.org/ns#"
   xmlns:rdf="http://www.w3.org/1999/02/22-rdf-syntax-ns#"
   xmlns:svg="http://www.w3.org/2000/svg"
   xmlns="http://www.w3.org/2000/svg"
   xmlns:sodipodi="http://sodipodi.sourceforge.net/DTD/sodipodi-0.dtd"
   xmlns:inkscape="http://www.inkscape.org/namespaces/inkscape"
   width="500"
   height="500"
   viewBox="0 0 500 500"
   fill="none"
   version="1.1"
   id="svg126"
   sodipodi:docname="icono_verano2.svg"
   inkscape:version="0.92.3 (2405546, 2018-03-11)">
  <metadata
     id="metadata132">
    <rdf:RDF>
      <cc:Work
         rdf:about="">
        <dc:format>image/svg+xml</dc:format>
        <dc:type
           rdf:resource="http://purl.org/dc/dcmitype/StillImage" />
      </cc:Work>
    </rdf:RDF>
  </metadata>
  <defs
     id="defs130" />
  <sodipodi:namedview
     pagecolor="#ffffff"
     bordercolor="#666666"
     borderopacity="1"
     objecttolerance="10"
     gridtolerance="10"
     guidetolerance="10"
     inkscape:pageopacity="0"
     inkscape:pageshadow="2"
     inkscape:window-width="1920"
     inkscape:window-height="1017"
     id="namedview128"
     showgrid="false"
     inkscape:zoom="0.472"
     inkscape:cx="250"
     inkscape:cy="250"
     inkscape:window-x="-8"
     inkscape:window-y="-8"
     inkscape:window-maximized="1"
     inkscape:current-layer="svg126" />
  <g
     id="g2431"
     transform="matrix(3.6249573,1.0698193,-1.0698193,3.6249573,81.442981,-595.41705)">
    <path
       sodipodi:nodetypes="cscscscscscscscscscscscscscscsc"
       inkscape:connector-curvature="0"
       id="path1205"
       d="m 65.462684,221.16015 c 0,0 4.711432,-6.6271 3.556282,-9.95665 -1.536123,-4.42763 -11.913546,-7.46748 -11.913546,-7.46748 0,0 10.260478,-2.71824 12.44699,-6.93409 1.81102,-3.49186 -1.244699,-11.73462 -1.244699,-11.73462 0,0 6.882752,-1.54938 8.535076,-4.26713 2.093896,-3.44404 -0.177812,-12.09021 -0.177812,-12.09021 0,0 9.692093,5.24456 13.869499,3.02255 4.673929,-2.4861 5.867869,-14.75717 5.867869,-14.75717 0,0 5.706787,11.29355 11.024487,11.55683 4.44976,0.2203 10.1354,-8.71207 10.1354,-8.71207 0,0 3.72271,9.46296 8.00163,10.66783 4.78866,1.34841 13.86951,-5.51171 13.86951,-5.51171 0,0 -5.22851,11.17861 -2.13377,15.29056 2.52013,3.34848 12.44698,1.77797 12.44698,1.77797 0,0 -7.40989,7.07724 -6.57912,11.37903 0.72839,3.77163 9.06852,7.11188 9.06852,7.11188 0,0 -6.84711,5.65428 -6.93475,9.60105 -0.10547,4.74934 7.82382,11.91241 7.82382,11.91241 0,0 -8.78527,-0.37008 -11.73573,2.31137 -2.60891,2.37104 -1.51094,11.45736 -1.51094,11.45736 0,0 -7.63608,-1.01223 -10.04698,0.63285 -2.60721,1.77903 -5.33442,7.82307 -5.33442,7.82307 0,0 -8.22302,-4.9471 -12.44699,-3.91154 -3.74491,0.91811 -8.17945,8.17868 -8.17945,8.17868 0,0 -4.054487,-7.76164 -7.823827,-8.35647 -3.144674,-0.49625 -8.357264,4.62273 -8.357264,4.62273 0,0 -1.718125,-8.93316 -5.334424,-10.31224 -3.260393,-1.24335 -9.779774,3.73374 -9.779774,3.73374 0,0 6.436219,-8.86213 4.445351,-12.97919 -1.778963,-3.67886 -11.557918,-4.08934 -11.557918,-4.08934 z"
       style="display:inline;fill:#ffffff;fill-opacity:1;stroke:#000000;stroke-width:2;stroke-linecap:round;stroke-linejoin:round;stroke-miterlimit:4;stroke-dasharray:none;stroke-opacity:1" />
    <ellipse
       inkscape:label="sol"
       ry="22.42956"
       rx="24.306776"
       cy="203.83023"
       cx="107.90857"
       id="path4608"
       style="display:inline;opacity:1;fill:#ffffff;fill-opacity:1;stroke:#000000;stroke-width:2;stroke-linecap:round;stroke-linejoin:round;stroke-miterlimit:4;stroke-dasharray:none;stroke-opacity:1" />
    <path
       style="fill:#000000;fill-opacity:1;stroke-width:0.26458335"
       d="M 132.54936,202.26534 H 82.461608 c -0.383721,0 -0.735849,-0.30737 -0.787187,-0.68714 l -0.425187,-3.13295 c -0.05134,-0.37912 0.216543,-0.68649 0.599605,-0.68649 h 51.313291 c 0.3824,0 0.6516,0.30737 0.60026,0.68649 l -0.4265,3.13295 c -0.0513,0.37911 -0.40347,0.68714 -0.78653,0.68714 z"
       id="path145"
       inkscape:connector-curvature="0" />
    <path
       inkscape:connector-curvature="0"
       id="path147"
       d="m 106.4649,202.78531 c 0,6.12768 -5.27732,11.09499 -11.788068,11.09499 -6.510091,0 -11.788063,-4.96731 -11.788063,-11.09499 0,-6.12703 5.27863,-7.62571 11.788063,-7.62571 6.510748,0 11.788068,1.49868 11.788068,7.62571 z"
       style="fill:#000000;fill-opacity:1;stroke-width:0.26458335" />
    <path
       inkscape:connector-curvature="0"
       id="path149"
       d="m 104.38504,203.09136 c 0,5.04564 -4.34665,9.13625 -9.708208,9.13625 -5.361561,0 -9.707545,-4.09061 -9.707545,-9.13625 0,-5.04563 4.345984,-6.28038 9.707545,-6.28038 5.361558,6.6e-4 9.708208,1.23475 9.708208,6.28038 z"
       style="fill:#000000;fill-opacity:1;stroke-width:0.26458335" />
    <path
       inkscape:connector-curvature="0"
       id="path153"
       d="m 108.54607,202.78531 c 0,6.12768 5.27797,11.09499 11.78741,11.09499 6.5114,0 11.78872,-4.96731 11.78872,-11.09499 0,-6.12703 -5.27797,-7.62571 -11.78872,-7.62571 -6.50944,0 -11.78741,1.49868 -11.78741,7.62571 z"
       style="fill:#000000;fill-opacity:1;stroke-width:0.26458335" />
    <path
       inkscape:connector-curvature="0"
       id="path155"
       d="m 110.62659,203.09136 c 0,5.04564 4.34598,9.13625 9.70689,9.13625 5.36156,0 9.7082,-4.09061 9.7082,-9.13625 0,-5.04563 -4.3473,-6.28038 -9.7082,-6.28038 -5.36091,6.6e-4 -9.70689,1.23475 -9.70689,6.28038 z"
       style="fill:#000000;fill-opacity:1;stroke-width:0.26458335" />
    <path
       style="fill:#ffffff;fill-opacity:1;stroke-width:0.26458335"
       d="m 90.411804,198.96653 c 0.791137,0.52062 -0.377797,1.45327 -1.342035,2.91904 -0.963581,1.46577 -1.357833,2.90851 -2.148969,2.38723 -0.791136,-0.51996 -0.65226,-2.13054 0.311979,-3.59565 0.964238,-1.46512 2.387231,-2.2319 3.179025,-1.71062 z"
       id="path159"
       inkscape:connector-curvature="0" />
    <path
       style="fill:#ffffff;fill-opacity:1;stroke-width:0.26458335"
       d="m 116.16388,198.96653 c 0.79114,0.52062 -0.37845,1.45327 -1.34203,2.91904 -0.96358,1.46577 -1.35783,2.90851 -2.14963,2.38723 -0.79048,-0.51996 -0.65226,-2.13054 0.31264,-3.59565 0.96358,-1.46512 2.38657,-2.2319 3.17902,-1.71062 z"
       id="path161"
       inkscape:connector-curvature="0" />
  </g>
</svg>
