<svg xmlns="http://www.w3.org/2000/svg" width="500" height="500" fill="#fff" stroke="#000" stroke-width="10" xmlns:v="https://vecta.io/nano"><path d="M245 107.5L106.356 247.774s-17.839 17.355-6.69 17.355h29.213V391h234.614V265.129H397.5c8.048 0-8.688-17.355-8.688-17.355L245 107.5z"/><path d="M236.561 235.149c5.096 2.565 11.73 8.713 11.73 8.713s8.057-6.236 14-8.713c14.188-5.914 26.079-7.755 39.352 0 13.762 8.04 18.659 20.05 19.298 35.99.562 14.032-2.854 23.509-12.487 33.717C286.501 328.121 248.291 356 248.291 356s-33.684-27.122-56.758-51.144c-10.037-10.449-15.915-18.563-15.514-33.717.439-16.539 7.662-28.361 22.325-35.99 13.244-6.89 24.883-6.712 38.217 0z"/></svg>