<svg xmlns="http://www.w3.org/2000/svg" width="600" height="600" fill="none" xmlns:v="https://vecta.io/nano"><mask id="A" fill="#fff"><rect x="69" y="84" width="200" height="200" rx="12"/></mask><rect x="69" y="84" width="200" height="200" rx="12" fill="#fff" stroke="#000" stroke-width="32" mask="url(#A)"/><mask id="B" fill="#fff"><rect x="332" y="315" width="200" height="200" rx="12"/></mask><rect x="332" y="315" width="200" height="200" rx="12" fill="#fff" stroke="#000" stroke-width="32" mask="url(#B)"/><mask id="C" fill="#fff"><rect x="332" y="84" width="200" height="200" rx="12"/></mask><rect x="332" y="84" width="200" height="200" rx="12" fill="#fff" stroke="#000" stroke-width="32" mask="url(#C)"/><g fill="#000"><path d="M475.315 185.747l-43.054-43.548-43.548 43.054 43.054 43.548 43.548-43.054zM168.957 191.5l263.014 1.5.086-15-263.014-1.5-.086 15z"/><path d="M168.897 139.997l40.899 43.901-43.901 40.899-40.899-43.901z"/></g><path d="M173.496 164.636V201h-8.772v-28.161h-.213l-8.132 4.972v-7.599l8.967-5.576h8.15zM419.681 202v-6.321l13.264-11.612 2.539-2.468c.698-.758 1.231-1.515 1.598-2.273.367-.769.55-1.604.55-2.504 0-1.006-.219-1.864-.657-2.574-.438-.722-1.042-1.279-1.811-1.669s-1.651-.586-2.646-.586c-1.006 0-1.888.207-2.645.621-.758.403-1.35.989-1.776 1.758-.414.77-.621 1.705-.621 2.806h-8.328c0-2.474.557-4.611 1.669-6.41s2.676-3.184 4.688-4.155c2.024-.983 4.374-1.474 7.049-1.474 2.758 0 5.155.462 7.191 1.385s3.61 2.214 4.723 3.871c1.125 1.645 1.687 3.557 1.687 5.735 0 1.385-.278 2.758-.835 4.119s-1.556 2.865-3 4.51c-1.433 1.646-3.469 3.616-6.108 5.913l-4.35 4.013v.23h14.737V202h-26.918z" fill="#fff"/></svg>