<svg xmlns="http://www.w3.org/2000/svg" width="500" height="500" fill="none" xmlns:v="https://vecta.io/nano"><g fill="#000"><use href="#E"/><use href="#E" fill-opacity=".2"/></g><path d="M145.731 114.559c0-16.569 13.432-30 30-30H347.96c16.568 0 30 13.432 30 30V387.91c0 16.568-13.432 30-30 30H155.731c-5.522 0-10-4.477-10-10V114.559z" fill="#fff"/><g fill="#000" fill-rule="evenodd"><use href="#F"/><use href="#F" fill-opacity=".2"/></g><path d="M139 106c0-17.673 14.327-32 32-32h168.229c17.674 0 32 14.327 32 32v269.351c0 17.673-14.326 32-32 32H139V106z" fill="#fff"/><g stroke="#000" stroke-width="10"><use href="#G"/><use href="#G" stroke-opacity=".2"/></g><mask id="A" fill="#fff"><path fill-rule="evenodd" d="M258.821 97.442c-.546-1.923-3.271-1.923-3.841 0l-5.626 18.963-13.508-7.696 6.405 13.866-17.592 5.171c-1.917.564-1.934 3.274-.024 3.837l18.386 5.425-10.028 17.598 16.714-9.854 4.87 17.135c.546 1.923 3.27 1.923 3.841 0l4.774-16.092 13.123 7.476-7.335-15.88 19.759-5.808c1.917-.563 1.934-3.273.024-3.837l-18.152-5.355 8.557-15.017-15.01 8.849-5.337-18.781z"/></mask><g fill="#fff"><path fill-rule="evenodd" d="M258.821 97.442c-.546-1.923-3.271-1.923-3.841 0l-5.626 18.963-13.508-7.696 6.405 13.866-17.592 5.171c-1.917.564-1.934 3.274-.024 3.837l18.386 5.425-10.028 17.598 16.714-9.854 4.87 17.135c.546 1.923 3.27 1.923 3.841 0l4.774-16.092 13.123 7.476-7.335-15.88 19.759-5.808c1.917-.563 1.934-3.273.024-3.837l-18.152-5.355 8.557-15.017-15.01 8.849-5.337-18.781z"/><path d="M254.98 97.442l5.751 1.673h0l-5.751-1.673zm3.841 0l-5.772 1.674h0l5.772-1.674zm-9.467 18.963l-2.995 5.218 6.582 3.75 2.164-7.295-5.751-1.673zm-13.508-7.696l2.995-5.218-16.328-9.301 7.883 17.063 5.45-2.544zm6.405 13.866l1.659 5.756 6.713-1.974-2.922-6.326-5.45 2.544zm-17.592 5.171l1.659 5.756h0l-1.659-5.756zm-.024 3.837l-1.731 5.756h0l1.731-5.756zm18.386 5.425l5.209 2.945 3.744-6.57-7.222-2.131-1.731 5.756zm-10.028 17.598l-5.209-2.945-11.122 19.519 19.354-11.41-3.023-5.164zm16.714-9.854l5.773-1.673-2.112-7.431-6.684 3.941 3.023 5.163zm4.87 17.135l-5.773 1.674h0l5.773-1.674zm3.841 0l5.751 1.673h0l-5.751-1.673zm4.774-16.092l2.995-5.218-6.582-3.75-2.164 7.295 5.751 1.673zm13.123 7.476l-2.995 5.218 16.328 9.302-7.883-17.064-5.45 2.544zm-7.335-15.88l-1.659-5.755-6.714 1.973 2.923 6.327 5.45-2.545zm19.759-5.808l1.659 5.756h0l-1.659-5.756zm.024-3.837l1.731-5.755h0l-1.731 5.755zm-18.152-5.355l-5.208-2.946-3.744 6.571 7.221 2.13 1.731-5.755zm8.557-15.017l5.209 2.946 11.122-19.519-19.354 11.41 3.023 5.163zm-15.01 8.849l-5.772 1.674 2.111 7.43 6.684-3.94-3.023-5.164zm-3.427-17.108c-1.141 3.847-6.59 3.845-7.682 0l11.545-3.347c-2.186-7.691-13.083-7.692-15.366 0l11.503 3.346zm-5.626 18.963l5.626-18.963-11.503-3.346-5.625 18.963 11.502 3.346zm-22.254-4.151l13.508 7.696 5.99-10.436-13.508-7.696-5.99 10.436zm14.85 6.104l-6.406-13.866-10.899 5.088 6.405 13.866 10.9-5.088zm-21.383 13.471l17.592-5.171-3.318-11.511L223 121.991l3.318 11.511zm.048-7.674c3.819 1.126 3.786 6.546-.048 7.674L223 121.991c-7.668 2.254-7.735 13.094-.096 15.348l3.462-11.511zm18.386 5.424l-18.386-5.424-3.462 11.511 18.386 5.424 3.462-11.511zm-6.55 26.3l10.028-17.599-10.418-5.891-10.028 17.599 10.418 5.891zm8.482-17.963l-16.714 9.854 6.046 10.327 16.715-9.854-6.047-10.327zm13.665 20.625l-4.869-17.135-11.545 3.347 4.869 17.135 11.545-3.347zm-7.683 0c1.142-3.847 6.59-3.845 7.683 0l-11.545 3.347c2.185 7.69 13.083 7.692 15.365-.001l-11.503-3.346zm4.775-16.092l-4.775 16.092 11.503 3.346 4.775-16.092-11.503-3.346zm21.869 3.932l-13.123-7.477-5.99 10.436 13.123 7.476 5.99-10.435zm-15.78-8.118l7.335 15.879 10.9-5.088-7.335-15.88-10.9 5.089zm23.55-14.108l-19.759 5.808 3.317 11.511 19.76-5.808-3.318-11.511zm-.048 7.674c-3.819-1.127-3.787-6.547.048-7.674l3.318 11.511c7.668-2.254 7.734-13.095.096-15.348l-3.462 11.511zm-18.152-5.356l18.152 5.356 3.462-11.511-18.152-5.356-3.462 11.511zm5.079-23.717l-8.556 15.016 10.417 5.891 8.557-15.016-10.418-5.891zm-6.778 16.958l15.01-8.849-6.046-10.327-15.01 8.849 6.046 10.327zm-14.132-22.271l5.337 18.781 11.544-3.347-5.336-18.781-11.545 3.347z" mask="url(#A)"/></g><path d="M254.98 97.442l5.751 1.673h0l-5.751-1.673zm3.841 0l-5.772 1.674h0l5.772-1.674zm-9.467 18.963l-2.995 5.218 6.582 3.75 2.164-7.295-5.751-1.673zm-13.508-7.696l2.995-5.218-16.328-9.301 7.883 17.063 5.45-2.544zm6.405 13.866l1.659 5.756 6.713-1.974-2.922-6.326-5.45 2.544zm-17.592 5.171l1.659 5.756h0l-1.659-5.756zm-.024 3.837l-1.731 5.756h0l1.731-5.756zm18.386 5.425l5.209 2.945 3.744-6.57-7.222-2.131-1.731 5.756zm-10.028 17.598l-5.209-2.945-11.122 19.519 19.354-11.41-3.023-5.164zm16.714-9.854l5.773-1.673-2.112-7.431-6.684 3.941 3.023 5.163zm4.87 17.135l-5.773 1.674h0l5.773-1.674zm3.841 0l5.751 1.673h0l-5.751-1.673zm4.774-16.092l2.995-5.218-6.582-3.75-2.164 7.295 5.751 1.673zm13.123 7.476l-2.995 5.218 16.328 9.302-7.883-17.064-5.45 2.544zm-7.335-15.88l-1.659-5.755-6.714 1.973 2.923 6.327 5.45-2.545zm19.759-5.808l1.659 5.756h0l-1.659-5.756zm.024-3.837l1.731-5.755h0l-1.731 5.755zm-18.152-5.355l-5.208-2.946-3.744 6.571 7.221 2.13 1.731-5.755zm8.557-15.017l5.209 2.946 11.122-19.519-19.354 11.41 3.023 5.163zm-15.01 8.849l-5.772 1.674 2.111 7.43 6.684-3.94-3.023-5.164zm-3.427-17.108c-1.141 3.847-6.59 3.845-7.682 0l11.545-3.347c-2.186-7.691-13.083-7.692-15.366 0l11.503 3.346zm-5.626 18.963l5.626-18.963-11.503-3.346-5.625 18.963 11.502 3.346zm-22.254-4.151l13.508 7.696 5.99-10.436-13.508-7.696-5.99 10.436zm14.85 6.104l-6.406-13.866-10.899 5.088 6.405 13.866 10.9-5.088zm-21.383 13.471l17.592-5.171-3.318-11.511L223 121.991l3.318 11.511zm.048-7.674c3.819 1.126 3.786 6.546-.048 7.674L223 121.991c-7.668 2.254-7.735 13.094-.096 15.348l3.462-11.511zm18.386 5.424l-18.386-5.424-3.462 11.511 18.386 5.424 3.462-11.511zm-6.55 26.3l10.028-17.599-10.418-5.891-10.028 17.599 10.418 5.891zm8.482-17.963l-16.714 9.854 6.046 10.327 16.715-9.854-6.047-10.327zm13.665 20.625l-4.869-17.135-11.545 3.347 4.869 17.135 11.545-3.347zm-7.683 0c1.142-3.847 6.59-3.845 7.683 0l-11.545 3.347c2.185 7.69 13.083 7.692 15.365-.001l-11.503-3.346zm4.775-16.092l-4.775 16.092 11.503 3.346 4.775-16.092-11.503-3.346zm21.869 3.932l-13.123-7.477-5.99 10.436 13.123 7.476 5.99-10.435zm-15.78-8.118l7.335 15.879 10.9-5.088-7.335-15.88-10.9 5.089zm23.55-14.108l-19.759 5.808 3.317 11.511 19.76-5.808-3.318-11.511zm-.048 7.674c-3.819-1.127-3.787-6.547.048-7.674l3.318 11.511c7.668-2.254 7.734-13.095.096-15.348l-3.462 11.511zm-18.152-5.356l18.152 5.356 3.462-11.511-18.152-5.356-3.462 11.511zm5.079-23.717l-8.556 15.016 10.417 5.891 8.557-15.016-10.418-5.891zm-6.778 16.958l15.01-8.849-6.046-10.327-15.01 8.849 6.046 10.327zm-14.132-22.271l5.337 18.781 11.544-3.347-5.336-18.781-11.545 3.347z" fill="#000" mask="url(#A)"/><mask id="B" fill="#fff"><path d="M260.942 115.922l-4.12 13.803 13.389.868-13.393-.518 3.851 14.216-4.156-14.123-11.009 7.917 10.823-8.211-10.655-9.322 10.846 9.048 4.424-13.678z"/></mask><path d="M260.942 115.922l-4.12 13.803 13.389.868-13.393-.518 3.851 14.216-4.156-14.123-11.009 7.917 10.823-8.211-10.655-9.322 10.846 9.048 4.424-13.678z" fill="#000"/><path d="M260.942 115.922l18.784 7.449-37.437-15.32 18.653 7.871zm-4.12 13.803l-18.785-7.45-7.773 26.039 26.931 1.748-.373-20.337zm13.389.868l.869 20.363-1.243-40.7.374 20.337zm-13.393-.518l-.869-20.362-24.851-.962 6.863 25.332 18.857-4.008zm3.851 14.216l-18.726 4.473 37.584-8.481-18.858 4.008zm-4.156-14.123l18.726-4.473-8.43-28.644-22.328 16.058 12.032 17.059zm-11.009 7.917l-12.39-16.795 24.421 33.854-12.031-17.059zm10.823-8.211l12.39 16.795 19.287-14.631-19.771-17.299-11.906 15.135zm-10.655-9.322l11.508-15.475-23.414 30.61 11.906-15.135zm10.846 9.048l-11.508 15.475 21.816 18.201 8.346-25.805-18.654-7.871zm-14.36-21.128l-4.121 13.803 37.569 14.899 4.12-13.803-37.568-14.899zm15.037 41.59l13.389.868-.747-40.674-13.389-.868.747 40.674zm12.147-39.831l-13.393-.518 1.738 40.725 13.393.518-1.738-40.725zm-31.381 23.852l3.851 14.216 37.715-8.016-3.851-14.215-37.715 8.015zm41.434 5.735l-4.156-14.123-37.453 8.945 4.157 14.124 37.452-8.946zm-34.914-26.709l-11.009 7.917 24.063 34.118 11.009-7.917-24.063-34.118zm13.413 41.771l10.823-8.211-24.78-33.589-10.823 8.21 24.78 33.59zm10.339-40.141l-10.655-9.322-23.812 30.27 10.656 9.322 23.811-30.27zm-34.069 21.288l10.846 9.048 23.016-30.95-10.846-9.048-23.016 30.95zm41.008 1.444l4.424-13.679-37.307-15.741-4.424 13.679 37.307 15.741z" fill="#fff" mask="url(#B)"/><mask id="C" fill="#fff"><path d="M267.542 121.632l-10.678 8.09 10.303 9.879-10.493-9.604-4.488 13.889 4.193-14.025-13.077-1.295 13.084.935-3.593-14.689 3.893 14.604 10.856-7.784z"/></mask><path d="M267.542 121.632l-10.678 8.09 10.303 9.879-10.493-9.604-4.488 13.889 4.193-14.025-13.077-1.295 13.084.935-3.593-14.689 3.893 14.604 10.856-7.784z" fill="#000"/><g fill="#fff"><path d="M267.542 121.632l5.308 8.923-10.428-17.984 5.12 9.061zm-10.678 8.09l-5.309-8.923-10.201 7.729 9.655 9.258 5.855-8.064zm10.303 9.879l-5.683 8.224 11.537-16.287-5.854 8.063zm-10.493-9.604l5.683-8.224-10.071-9.217-4.358 13.488 8.746 3.953zm-4.488 13.889l-8.821-3.714 17.567 7.667-8.746-3.953zm4.193-14.025l8.82 3.714 3.918-13.104-12.218-1.21-.52 10.6zm-13.077-1.295l.297-10.619-.817 21.218.52-10.599zm13.084.935l-.296 10.619 12.707.909-3.449-14.098-8.962 2.57zm-3.593-14.689l8.899-2.812-17.861 5.383 8.962-2.571zm3.893 14.604l-8.899 2.812 3.648 13.685 10.371-7.436-5.12-9.061zm5.547-16.706l-10.678 8.089 10.617 17.846 10.678-8.09-10.617-17.845zm-11.224 25.076l10.303 9.878 11.709-16.126-10.303-9.879-11.709 16.127zm21.841-6.409l-10.493-9.604-11.366 16.448 10.493 9.604 11.366-16.448zm-24.922-5.333l-4.488 13.889 17.492 7.906 4.488-13.889-17.492-7.906zm13.078 21.556l4.193-14.025-17.64-7.428-4.194 14.025 17.641 7.428zm-4.107-28.339l-13.076-1.295-1.041 21.199 13.077 1.295 1.04-21.199zm-13.893 19.923l13.084.936.593-21.237-13.084-.936-.593 21.237zm22.342-12.253l-3.594-14.689-17.923 5.141 3.594 14.689 17.923-5.141zm-21.455-9.306l3.894 14.603 17.798-5.625L261.692 112l-17.799 5.625zm17.913 20.852l10.856-7.783-10.24-18.123-10.856 7.783 10.24 18.123z" mask="url(#C)"/><path d="M209.667 246.346c1.55-3.946 1.577-6.925 1.246-11.337-3.018-.199-4.211-.312-6.946-1.605-2.322-1.098-3.709-1.707-5.263-3.753-1.146-1.507-2.741-4.734-2.741-4.734s-4.482 1.611-7.226.872c-2.307-.621-3.665-1.087-5.109-2.99-1.367-1.802-1.548-2.972-1.619-5.233-.083-2.632.409-3.892 1.993-5.855 1.134-1.406 3.489-2.367 3.489-2.367s.195-2.013.996-3.115c.997-1.371 1.78-2.225 3.24-2.866 2.65-1.163 3.844-.872 6.852-.872 3.849 0 5.871.426 9.593 0 3.771-.431 5.205-1.19 8.597-1.246 3.825-.062 6.281.22 9.967 1.246 1.762-1.724 3.031-3.575 4.475-4.821 1.722-1.485 3.221-1.979 5.232-1.485 1.77.435 2.918 1.6 3.375 3.364.612 2.367.341 2.942 0 4.61-.424 2.068-1.384 3.577-2.752 5.185 1.166 1.493 2.09 2.46 2.752 4.236.809 2.173.992 3.536.996 5.855.007 4.293-1.305 6.553-3.124 10.331-3.19 6.627-6.748 9.866-8.712 16.954-1.272 4.595-1.744 12.085-1.744 12.085s2.17.34 3.489 0c3.185-.822 3.889-3.572 5.232-6.603 2.531-5.711 3.555-8.478 7.612-12.361l.043-.041c2.189-2.095 3.474-3.324 6.299-4.418 2.314-.895 4.122-1.084 6.354 0 1.671.812 3.364 3.364 3.364 3.364l3.987 3.987c1.557 1.557 2.456-.376 3.321-1.495 2.379-3.076 2.939-4.056 5.4-5.856 3.022-2.21 5.81-2.285 9.469-1.495 5.141 1.112 6.82 3.715 9.199 6.794 3.367 4.357 3.27 8.648 6.623 13.016 1.992 2.594 3.592 3.632 5.731 6.105 1.72 1.988 2.744 2.714 3.878 5.086 1.539 3.219.784 4.911 2.227 7.497 1.326 2.375 2.334 3.83 4.734 5.108 2.309 1.229 4.145 2.014 6.604 1.121 2.298-.833 3.3-2.351 4.236-4.609 1.042-2.518.652-4.332 0-6.977-.377-1.527-1.495-3.738-1.495-3.738s-1.78-.29-2.741-.872c-1.516-.917-2.143-1.946-2.741-3.613-.674-1.878.373-5.108.373-5.108l3.97 6.897s-1.553-3.652-.475-5.501C322.8 253.598 323 256.5 323 256.5l.541-3.862 1.495 3.052s-2.317 4.713-1.036 4.81c1.62.123.5-.5.5-.5l3.152-1.195s.489 2.213.872 3.613c.76 2.775 1.384 4.122 1.744 6.977l.004.028c.223 1.767.33 2.612.051 4.561-.286 2.003-.773 3.059-2.048 4.63-2.198 2.709-3.768 4.043-7.187 4.735-4.198.849-5.521 0-9.383 0-2.703 0-6.354 2.492-6.354 2.492s-1.171 8.856 0 14.327c.589 2.754 2.07 4.042 2.242 6.852.212 3.464-1.372 5.238-2.242 8.597l-3.862 15.075s.414 3.607 0 5.856c-.467 2.532-.25 3.987-2.492 5.731-1.669 1.298-3.281 2.945-4.984 2.118s-2.657-.917-4.36-1.744c0 0-2.975.989-4.361 0-1.94-1.386-1.703-2.651 0-6.105l4.361-8.846s-.419-4.737 0-7.724c.465-3.323 2.758-4.878 2.491-8.223-.211-2.657-.84-4.262-2.491-6.354.485 2.433.485 3.92 0 6.354-.711 3.564-3.077 4.822-4.361 8.223-1.1 2.914-.858 4.823-1.993 7.724-.936 2.391-2.99 5.856-2.99 5.856s1.495 3.364 0 5.482-3.125 3.074-5.607 4.485-3.87 1.049-5.855.249c-1.916-.772-4.236-2.367-4.236-4.734 0-4.083 10.538-10.369 9.344-11.338l2.741-13.829s-3.027-3.975-4.361-6.853c-1.184-2.554-2.243-6.852-2.243-6.852l-3.114.498c-5.279.88-8.47 1.115-13.705 0-3.871-.824-9.718-2.491-9.718-2.491s1.725 5.315 1.994 8.845c.14 1.844.373 2.991 0 4.735-.447 2.086-1.495 3.488-1.495 3.488s-.103 7.658 1.121 12.459c1.115 4.374 2.242 7.102 2.242 11.338 0 1.66.218 2.48-.996 3.613-1.98 1.847-1.745 1.744-5.981 1.744-3.421 0-2.242 1.121-7.973-2.118-1.747-.987.452-3.801.997-5.731 1.202-4.261 0-11.338 0-11.338l-1.745-15.698s-3.366 9.405-4.111 15.698c-.635 5.364.374 8.846.374 14.577 0 1.993-1.352 2.32-3.24 2.492-2.741.249-5.357 1.495-9.219.374-2.053-.596-4.485-1.246-4.002-3.364.639-2.806 4.251-8.846 4.251-8.846l2.243-14.826c1.114-8.042 2.118-20.682 2.118-20.682s-2.889-1.788-4.61-3.114c-4.526-3.489-7.431-5.594-9.967-10.715-2.52-5.089-2.554-8.648-2.492-14.327.058-5.344.396-8.54 2.492-13.456 1.24-2.909 2.955-4.033 4.111-6.977z"/></g><path d="M210.913 235.009c.331 4.412.304 7.391-1.246 11.337-1.156 2.944-2.871 4.068-4.111 6.977-2.096 4.916-2.434 8.112-2.492 13.456-.062 5.679-.028 9.238 2.492 14.327 2.536 5.121 5.441 7.226 9.967 10.715 1.721 1.326 4.61 3.114 4.61 3.114m-9.22-59.926c-3.018-.199-4.211-.312-6.946-1.605-2.322-1.098-3.709-1.707-5.263-3.753-1.146-1.507-2.741-4.734-2.741-4.734m14.95 10.092c2.818-.517 1.087-.509 7.216-1.323m2.004 61.249s-1.004 12.64-2.118 20.682l-2.243 14.826s-3.612 6.04-4.251 8.846c-.483 2.118 1.949 2.768 4.002 3.364 3.862 1.121 6.478-.125 9.219-.374 1.888-.172 3.24-.499 3.24-2.492 0-5.731-1.009-9.213-.374-14.577.745-6.293 4.111-15.698 4.111-15.698m-11.586-14.577l6.343 1.17m5.243 13.407l1.745 15.698s1.202 7.077 0 11.338c-.545 1.93-2.744 4.744-.997 5.731 5.731 3.239 4.552 2.118 7.973 2.118 4.236 0 4.001.103 5.981-1.744 1.214-1.133.996-1.953.996-3.613 0-4.236-1.127-6.964-2.242-11.338-1.224-4.801-1.121-12.459-1.121-12.459s1.048-1.402 1.495-3.488c.373-1.744.14-2.891 0-4.735-.269-3.53-1.994-8.845-1.994-8.845m-11.836 11.337l-5.243-13.407m17.079 2.07s5.847 1.667 9.718 2.491c5.235 1.115 8.426.88 13.705 0l3.114-.498m-26.537-1.993s4.194-4.194 5.098-7.677c.697-2.684 0-4.498 0-7.101m21.439 16.771s1.059 4.298 2.243 6.852c1.334 2.878 4.361 6.853 4.361 6.853l-2.741 13.829c1.194.969-9.344 7.255-9.344 11.338 0 2.367 2.32 3.962 4.236 4.734 1.985.8 3.374 1.162 5.855-.249s4.112-2.367 5.607-4.485 0-5.482 0-5.482 2.054-3.465 2.99-5.856c1.135-2.901.893-4.81 1.993-7.724 1.284-3.401 3.65-4.659 4.361-8.223.485-2.434.485-3.921 0-6.354m-19.561-5.233l8.711-2.07m10.85 7.303c1.651 2.092 2.28 3.697 2.491 6.354.267 3.345-2.026 4.9-2.491 8.223-.419 2.987 0 7.724 0 7.724l-4.361 8.846c-1.703 3.454-1.94 4.719 0 6.105 1.386.989 4.361 0 4.361 0 1.703.827 2.657.917 4.36 1.744s3.315-.82 4.984-2.118c2.242-1.744 2.025-3.199 2.492-5.731.414-2.249 0-5.856 0-5.856l3.862-15.075c.87-3.358 2.454-5.133 2.242-8.597-.172-2.81-1.653-4.098-2.242-6.852-1.171-5.471 0-14.327 0-14.327m-15.698 19.56l-10.85-7.303m26.548-12.257s3.651-2.492 6.354-2.492c3.862 0 5.185.849 9.383 0 3.419-.692 4.989-2.026 7.187-4.735 1.275-1.571 1.762-2.627 2.048-4.63.28-1.959.171-2.803-.055-4.589-.36-2.855-.984-4.202-1.744-6.977-.383-1.4-.872-3.613-.872-3.613L324.5 260s1.12.623-.5.5c-1.281-.097 1.036-4.81 1.036-4.81l-1.495-3.052L323 256.5s-.2-2.902-1.073-1.407c-1.078 1.849.475 5.501.475 5.501l-3.97-6.897s-1.047 3.23-.373 5.108c.598 1.667 1.225 2.696 2.741 3.613.961.582 2.741.872 2.741.872s1.118 2.211 1.495 3.738c.652 2.645 1.042 4.459 0 6.977-.936 2.258-1.938 3.776-4.236 4.609-2.459.893-4.295.108-6.604-1.121-2.4-1.278-3.408-2.733-4.734-5.108-1.443-2.586-.688-4.278-2.227-7.497-1.134-2.372-2.158-3.098-3.878-5.086-2.139-2.473-3.739-3.511-5.731-6.105-3.353-4.368-3.256-8.659-6.623-13.016-2.379-3.079-4.058-5.682-9.199-6.794-3.659-.79-6.447-.715-9.469 1.495-2.461 1.8-3.021 2.78-5.4 5.856-.865 1.119-1.764 3.052-3.321 1.495l-3.987-3.987s-1.693-2.552-3.364-3.364c-2.232-1.084-4.04-.895-6.354 0-2.843 1.101-4.127 2.339-6.342 4.459-4.057 3.883-5.081 6.65-7.612 12.361-1.343 3.031-2.047 5.781-5.232 6.603-1.319.34-3.489 0-3.489 0s.472-7.49 1.744-12.085c1.964-7.088 5.522-10.327 8.712-16.954 1.819-3.778 3.131-6.038 3.124-10.331-.004-2.319-.187-3.682-.996-5.855-.662-1.776-1.586-2.743-2.752-4.236m68.285 76.497s.208-3.762-.384-6.057c-.832-3.224-.467-3.284-4.236-7.399m-63.665-63.041c1.368-1.608 2.328-3.117 2.752-5.185.341-1.668.612-2.243 0-4.61-.457-1.764-1.605-2.929-3.375-3.364-2.011-.494-3.51 0-5.232 1.485-1.444 1.246-2.713 3.097-4.475 4.821m10.33 6.853c-2.096.924 0 0-4.983 2.367m-5.347-9.22c-3.686-1.026-6.142-1.308-9.967-1.246-3.392.056-4.826.815-8.597 1.246-3.722.426-5.744 0-9.593 0-3.008 0-4.202-.291-6.852.872-1.46.641-2.243 1.495-3.24 2.866-.801 1.102-.996 3.115-.996 3.115m39.245-6.853c-.247 1.965-.736 2.509-.882 5.032m-38.363 1.821s-2.355.961-3.489 2.367c-1.584 1.963-2.076 3.223-1.993 5.855.071 2.261.252 3.431 1.619 5.233 1.444 1.903 2.802 2.369 5.109 2.99 2.744.739 7.226-.872 7.226-.872m-8.472-15.573s2.489 1.334 4.236 1.667c1.764.337 1.773 0 4.599 0m-.363 13.906l3.229-2.818m27.284 74.006s-1.932-4.298-2.491-7.226-.985-4.879-.374-7.773m55.192 16.992s-1.376-4.073-2.107-6.728c-.665-2.413-1.563-3.727-1.506-6.229.042-1.841 0-1.141.997-4.61" stroke="#000" stroke-width="4"/><g fill="#000"><path d="M331.5 255c.039 1.798-.5 3.5-1.646 4.652s-3.199 1.679-3.199 1.679l-2.478-.14s-2.257-.381-3.475-1.142c-1.921-1.2-2.716-2.796-3.475-4.978-.854-2.459.973-7.034.973-7.034l2.298 4.618s0-1.399.678-3.783c.615-2.162 1.106-5.872 1.106-5.872l1.895 3.996 1.778 4.959s.19-.552 1.545-1.455c1.5-1 2.5-2 2.5-2s1.444 3.923 1.5 6.5zm-93.437 89.071c-2.01 0-3.365-1.122-5.357-2.243-1.308-.736.469-3.027.872-4.111.375-1.008.505-3.364 1.907-3.364 2.545 0 2.818.396 4.915.914 2.375.587 4 1.509 5.977 3.919.532.649.769.903.532 2.019-.345 1.624-.623 1.371-2.243 2.367-1.468.904-2.374.426-3.198.499-.875.077-1.762 0-3.405 0zm38.747-2.368c-1.306 1.007-1.808 1.222-3.115 1.744-1.246.499-1.181.466-1.869.499-.766.036-2.549-.406-3.862-.997-.616-.278-1.143-.914-1.619-1.37-.575-.551-.81-1.022-1.122-1.745-.516-1.198.475-2.557 1.122-3.488.601-.866 2.762-3.591 3.862-3.24 1.996.638 2.251.726 3.737 1.745 1.685 1.154 4.308 1.363 5.731 3.737.527.879-2.234 2.629-2.865 3.115zm21.305.748c-1.498.691-1.122 1.246-2.492 1.619-.696.19-.943-.01-1.69-.259-.873-.291-1.407-.624-2.172-.862-.743-.231-1.495-.498-2.368-.498-1.231 0-2.847.434-3.801-.125-.328-.192-.684-.623-.933-.997-.724-1.085.419-3.072.872-4.111.422-.966 1.096-3.495 2.243-3.364 2.082.238 2.888.051 4.545.762 1.876.805 6.555.673 8.412 2.727.687.759-.997 4.36-2.616 5.108zm-75.996-.073c-2.197.297-3.279.767-5.802.128l-.028-.007c-2.495-.632-2.638-.668-3.377-1.143-1.123-.721-1.261-1.533-1.261-1.533l2.018-4.854c.91-1.843 2.64-4.725 2.901-4.599.523.253 7.188 1.828 8.954 5.876.816 1.871 2.901 4.687 1.135 5.326-1.615.584-2.575.541-4.54.806z"/><ellipse cx="213.954" cy="212.872" rx="3.944" ry="5.69" transform="rotate(26.029 213.954 212.872)"/></g><ellipse cx="215.602" cy="210.867" rx="1.246" ry="1.495" transform="rotate(21.602 215.602 210.867)" fill="#fff"/><path d="M235.584 205.557c-1.129 2.318-1.742 3.521-3.226 2.798s-4.409-1.756-3.28-4.074 4.381-4.954 5.865-4.231 1.771 3.188.641 5.507z" fill="#000"/><path d="M183 221c-2.033-1.293 2.51.749 5.5.5 3.266-.272 3.666-.733 5.5-2.5" stroke="#000" stroke-width="3"/><defs ><path id="E" d="M154 104c0-16.568 13.431-30 30-30h172c16.569 0 30 13.432 30 30v291c0 16.569-13.431 30-30 30H169c-8.284 0-15-6.716-15-15V104z"/><path id="F" d="M158.017 424.395L139 407.35h11.899l11.78 10.558h10.538v7.542H161.67c-1.29.188-2.659-.164-3.653-1.055z"/><path id="G" d="M169 79h172c13.807 0 25 11.193 25 25v273c0 13.807-11.193 25-25 25H144V104c0-13.807 11.193-25 25-25z"/></defs></svg>