<svg xmlns="http://www.w3.org/2000/svg" width="500" height="500" fill="none" xmlns:v="https://vecta.io/nano"><g stroke="#000"><path fill="#fff" stroke-width="10" d="M116 52h268v396.173H116z"/><g stroke-width="5" stroke-linecap="round"><path d="M172.971 413.627c-16.492 2.906-18.512-29.913-50.999-25.067m257.08-289.082c-43.729 10.582-54.93-5.538-53.954-17.465.493-10.988-14.858-30.111-32.24-22.122-19.537 8.979-9.566 26.758-.477 21.378 5.835-3.454 3.778-8.944 1.994-10.194-2.021-1.417-6.659-.491-6.571 5.017"/><path d="M325.697 81.585c15.953-5.171 22.31 27.063 53.853 17.746m-257.065 12.274c44.729 4.406 53.686-13.121 51.136-24.802-1.947-10.817 10.725-31.897 29.005-26.398 20.548 6.18 13.029 25.181 3.31 21.114-6.239-2.611-4.929-8.336-3.328-9.823 1.814-1.685 6.532-1.412 7.176 4.058"/><path d="M172.972 86.462c-16.492-2.906-18.512 29.914-51 25.067m.513 276.955c44.729-4.406 53.686 13.122 51.136 24.803-1.947 10.817 10.725 31.897 29.005 26.398 20.548-6.18 13.029-25.181 3.31-21.114-6.239 2.611-4.929 8.336-3.328 9.823 1.814 1.685 6.532 1.412 7.176-4.058m165.537-35.403c-44.73-4.406-53.687 13.122-51.137 24.803 1.947 10.817-10.724 31.897-29.005 26.399-20.548-6.181-13.029-25.182-3.309-21.114 6.238 2.61 4.929 8.336 3.328 9.822-1.815 1.685-6.533 1.412-7.176-4.057"/><path d="M324.834 414.077c16.492 2.905 18.512-29.914 50.999-25.067"/></g></g><path d="M291.869 159.543L401.908 50.532l32.498 30.487-110.512 114.651-57.63 27.302 11.15-27.622 14.455-35.806z" fill="#fff"/><path d="M291.869 159.543L401.908 50.532l32.498 30.487-110.512 114.651m-32.025-36.126l15.932.11.081 17.953 15.932.109.08 17.954m-32.025-36.126l-14.455 35.806-11.15 27.622 57.63-27.302" stroke="#000" stroke-width="10" stroke-linecap="round"/><path d="M273.021 202.233l-10.46 21.683c-.851 1.762 1.014 3.637 2.703 2.719l21.79-11.853c1.228-.668 1.395-2.411.321-3.343l-11.33-9.83a1.93 1.93 0 0 0-3.024.624z" fill="#000"/><g stroke="#000" stroke-width="10"><path d="M434.901 80.508l-32.695-30.166 18.036-18.656 31.509 31.497-16.85 17.324z" fill="#fff"/><path d="M307.801 159.652L411.904 59.32m-88.09 118.396L426.405 73.27" stroke-linecap="round"/></g></svg>