<svg xmlns="http://www.w3.org/2000/svg" width="500" height="500" fill="none" xmlns:v="https://vecta.io/nano"><g fill="#fff" stroke="#000" stroke-width="10"><rect x="86" y="195" width="218" height="217" rx="26"/><rect x="122" y="165" width="218" height="217" rx="26"/></g><path d="M249.026 298.549l-13.937-15.92m0 0l-13.937-15.92c-7.813-5.761-16.872-.289-12.196 10.677l32.9 37.582-18.741-6.643c-12.845.796-12.893 11.288-6.125 15.504l46.648 16.019c11.067.1 19.35-4.664 38.653-23.697 6.568-7.566 6.1-13.568-.184-26.577-2.122-5.022-10.559-13.157-24.98-28.534-6.291-1.561-11.344 2.862-10.628 9.304m-31.41 12.285c-1.814-8.4 3.675-14.435 11.848-10.372l4.036 4.611m9.901 11.309l-9.901-11.309m0 0c-2.717-8.378 4.557-14.131 12.022-10.525l3.504 4.001m8.682 9.918l-8.682-9.918" stroke="#000" stroke-width="10"/></svg>