<?xml version="1.0" encoding="UTF-8" standalone="no"?>
<svg
   width="500"
   height="500"
   fill="none"
   version="1.1"
   id="svg48855"
   sodipodi:docname="icono_navidad2.svg"
   inkscape:version="1.1.2 (b8e25be833, 2022-02-05)"
   xmlns:inkscape="http://www.inkscape.org/namespaces/inkscape"
   xmlns:sodipodi="http://sodipodi.sourceforge.net/DTD/sodipodi-0.dtd"
   xmlns="http://www.w3.org/2000/svg"
   xmlns:svg="http://www.w3.org/2000/svg">
  <defs
     id="defs48859" />
  <sodipodi:namedview
     id="namedview48857"
     pagecolor="#ffffff"
     bordercolor="#666666"
     borderopacity="1.0"
     inkscape:pageshadow="2"
     inkscape:pageopacity="0.0"
     inkscape:pagecheckerboard="0"
     showgrid="false"
     inkscape:zoom="1.714"
     inkscape:cx="250"
     inkscape:cy="249.70828"
     inkscape:window-width="1920"
     inkscape:window-height="1017"
     inkscape:window-x="-8"
     inkscape:window-y="-8"
     inkscape:window-maximized="1"
     inkscape:current-layer="g48853" />
  <style
     id="style48809"><![CDATA[.B{stroke:#000}.C{stroke-width:10}.D{stroke-linecap:round}]]></style>
  <g
     fill="#fff"
     class="B C"
     id="g48815">
    <ellipse
       cx="258.2"
       cy="349.67"
       rx="119.123"
       ry="119.987"
       id="ellipse48811" />
    <ellipse
       cx="252.317"
       cy="181.835"
       rx="82.357"
       ry="83.181"
       id="ellipse48813" />
  </g>
  <g
     fill="#000"
     id="g48821">
    <ellipse
       cx="223.639"
       cy="166.377"
       rx="18.383"
       ry="16.195"
       id="ellipse48817" />
    <ellipse
       cx="276.583"
       cy="166.377"
       rx="18.383"
       ry="16.195"
       id="ellipse48819" />
  </g>
  <path
     d="M213.345 221.586c28.766 20.574 44.134 21.584 69.856 0"
     class="B C D"
     id="path48823" />
  <g
     fill="#000"
     id="g48833">
    <ellipse
       cx="258.2"
       cy="312.864"
       rx="10.295"
       ry="11.042"
       id="ellipse48825" />
    <ellipse
       cx="258.2"
       cy="349.67"
       rx="10.295"
       ry="11.042"
       id="ellipse48827" />
    <ellipse
       cx="258.2"
       cy="386.476"
       rx="10.295"
       ry="11.042"
       id="ellipse48829" />
    <path
       d="M469.899 230.901c2.261-1.584 2.812-4.704 1.229-6.967s-4.698-2.812-6.96-1.228l5.731 8.195zm-102.946 72.14l102.946-72.14-5.731-8.195-102.946 72.14 5.731 8.195z"
       id="path48831" />
  </g>
  <path
     d="M439.829 245.777l1.47-32.389m31.537 35.195l-32.275-2.706"
     class="B C D"
     id="path48835" />
  <path
     d="M119.323 158.523c-.885-2.616-3.723-4.019-6.337-3.132s-4.016 3.726-3.13 6.343l9.467-3.211zm42.785 126.415l-42.785-126.415-9.467 3.211 42.784 126.415 9.468-3.211z"
     fill="#000"
     id="path48837" />
  <path
     d="M123.555 190.366l-30.306-11.437m43.199-19.11l-12.571 29.88"
     class="B C D"
     id="path48839" />
  <g
     fill="#000"
     id="g48845">
    <path
       d="M92.494 89.715c-.724-.835-.634-2.099.2-2.823l83.181-72.267c.833-.724 2.096-.635 2.819.199l48.916 56.423c.724.835.634 2.099-.199 2.823l-83.181 72.267c-.833.724-2.096.635-2.819-.2L92.494 89.715z"
       id="path48841" />
    <rect
       width="157.326"
       height="15.227"
       rx="1"
       transform="matrix(.754891 -.65585 .655051 .755585 121.323 157.834)"
       id="rect48843" />
  </g>
  <g
     fill="#ffffff"
     id="g48853">
    <ellipse
       cx="219.228"
       cy="164.16901"
       rx="6.618"
       ry="6.625"
       id="ellipse48847" />
    <ellipse
       cx="272.17099"
       cy="164.16901"
       rx="6.618"
       ry="6.625"
       id="ellipse48849" />
    <path
       d="m 191.767,197.729 c -3.443,-0.702 -3.08,-5.733 0.427,-5.934 l 64.479,-3.699 a 3,3 0 0 1 3.165,3.211 l -1.196,16.612 a 3,3 0 0 1 -3.591,2.724 z"
       class="B C"
       id="path48851"
       style="stroke-width:5.148;stroke-miterlimit:4;stroke-dasharray:none" />
  </g>
</svg>
