<svg xmlns="http://www.w3.org/2000/svg" width="500" height="500" fill="none" xmlns:v="https://vecta.io/nano"><style><![CDATA[.B{stroke:#000}.C{stroke:#fff}.D{stroke-width:10}.E{fill:#fff}.F{stroke-opacity:.2}]]></style><g fill="#000"><use href="#B"/><use href="#B" fill-opacity=".2"/></g><g class="B D"><use href="#B"/><use href="#B" class="F"/><use href="#B" class="F"/></g><use href="#C" class="E"/><g class="D"><use href="#C" class="C"/><use href="#C" class="B"/></g><use href="#D" class="E"/><g class="D"><use href="#D" class="C"/><use href="#D" class="B"/></g><use href="#E" class="E"/><g class="B D"><use href="#E"/><use href="#E" class="F"/></g><use href="#F" class="E"/><g class="B D"><use href="#F"/><use href="#F" class="F"/></g><use href="#G" class="E"/><g class="D"><use href="#G" class="C"/><use href="#G" class="B"/></g><use href="#H" class="E"/><g class="D"><use href="#H" class="C"/><use href="#H" class="B"/><g class="C"><use href="#I"/><use href="#I"/><use href="#I"/><use href="#J"/><use href="#J"/></g><use href="#J" class="B"/><g class="C"><use href="#K"/><use href="#K"/><use href="#K"/><use href="#L"/><use href="#L"/><use href="#L"/><use href="#M"/><use href="#M"/><use href="#M"/></g><g class="B"><use href="#N"/><use href="#N"/><use href="#N"/><use href="#O"/></g><g class="C"><use href="#O"/><use href="#O"/><use href="#P"/><use href="#P"/><use href="#Q"/></g><g class="B"><use href="#Q"/><use href="#R"/></g><use href="#R" class="C"/><g class="B"><use href="#R"/><use href="#S"/></g><g class="C"><use href="#S"/><use href="#S"/></g><use href="#T" class="B"/><use href="#T" class="C"/><g class="B"><use href="#T"/><use href="#U"/></g><g class="C"><use href="#U"/><use href="#U"/></g></g><g fill="#000"><path d="M97.775 199.025a1.03 1.03 0 0 1-.325-.05c-.317-.067-.542-.258-.675-.575-.1-.283-.075-.6.075-.95a12.65 12.65 0 0 1 .65-1.175l.275-.45.25-.45.075-.125a.95.95 0 0 1 .05-.125c-.5-.083-1.083-.1-1.75-.05-.65.033-1.383.158-2.2.375-.717.183-1.492.425-2.325.725l-2.6 1.025c-.183.067-.367.067-.55 0s-.317-.192-.4-.375c-.1-.183-.108-.375-.025-.575.083-.217.217-.358.4-.425l2.675-1.075a22.12 22.12 0 0 1 2.45-.75c2.05-.517 3.725-.6 5.025-.25.383.1.65.333.8.7s.117.775-.1 1.225-.475.917-.775 1.4c-.017.033-.042.075-.075.125a1.6 1.6 0 0 0-.1.175c.383-.083.95-.25 1.7-.5l3.1-1.1c.183-.067.367-.05.55.05.2.083.333.225.4.425.083.183.083.375 0 .575-.083.183-.233.317-.45.4l-2.1.725-1.7.55-1.525.425c-.35.067-.617.1-.8.1zm9.272-.5c-.084 0-.15-.008-.2-.025-.267-.067-.459-.167-.575-.3-.1-.15-.167-.267-.2-.35-.117-.367-.075-.742.125-1.125.2-.4.458-.817.775-1.25a3.77 3.77 0 0 0 .275-.425l.25-.425c.016-.017.041-.05.075-.1-.1.033-.225.083-.375.15a3.52 3.52 0 0 0-.475.3c-.3.183-.617.425-.95.725l-1.025.9-.275.225-.25.25c-.15.133-.325.2-.525.2-.217-.017-.392-.108-.525-.275-.15-.15-.217-.325-.2-.525.016-.217.1-.392.25-.525l.275-.25c.083-.083.166-.158.25-.225l1.575-1.325c.516-.417 1.025-.733 1.525-.95s.983-.258 1.45-.125c.283.067.483.183.6.35.133.15.208.283.225.4.15.367.116.758-.1 1.175-.217.4-.492.842-.825 1.325-.034.033-.075.092-.125.175a1.37 1.37 0 0 1-.125.2l.975-.375 1.45-.55c.216-.067.416-.05.6.05a.68.68 0 0 1 .375.425.64.64 0 0 1-.025.575c-.084.183-.217.317-.4.4l-1.45.5-1.1.4-.45.175-.325.1-.3.1c-.084.017-.167.025-.25.025zm12.334.5c-.116 0-.225-.017-.325-.05-.316-.067-.541-.258-.675-.575-.1-.283-.075-.6.075-.95a12.89 12.89 0 0 1 .65-1.175l.275-.45.25-.45c.034-.05.059-.092.075-.125.017-.05.034-.092.05-.125-.5-.083-1.083-.1-1.75-.05-.65.033-1.383.158-2.2.375-.716.183-1.491.425-2.325.725l-2.6 1.025c-.183.067-.366.067-.55 0s-.316-.192-.4-.375c-.1-.183-.108-.375-.025-.575.084-.217.217-.358.4-.425l2.675-1.075c.867-.317 1.684-.567 2.45-.75 2.05-.517 3.725-.6 5.025-.25.384.1.65.333.8.7s.117.775-.1 1.225-.475.917-.775 1.4c-.016.033-.041.075-.075.125s-.066.108-.1.175c.384-.083.95-.25 1.7-.5l3.1-1.1a.64.64 0 0 1 .55.05.67.67 0 0 1 .4.425c.084.183.084.375 0 .575-.083.183-.233.317-.45.4l-2.1.725-1.7.55-1.525.425c-.35.067-.616.1-.8.1zm11.647.25a.73.73 0 0 1-.5-.175.68.68 0 0 1-.225-.825c0-.017.058-.217.175-.6l.45-1.3.225-.725.175-.575-1.65.625-2.05.75-2.05.775a.7.7 0 0 1-.55-.025.86.86 0 0 1-.425-.45c-.067-.183-.05-.367.05-.55a.76.76 0 0 1 .425-.425l2.325-.825 2.225-.825 1.675-.65.65-.25c.083-.017.167-.025.25-.025a.34.34 0 0 1 .225.025c.233.033.4.167.5.4.083.133.117.308.1.525 0 .2-.042.492-.125.875l-.2.725-.275.875-.05.175c-.017.05-.033.108-.05.175.667-.367 1.483-.75 2.45-1.15a.64.64 0 0 1 .55 0c.2.067.333.192.4.375.1.183.108.375.025.575a.77.77 0 0 1-.4.425l-2.025.95-1.4.725-.525.275c-.1.083-.225.125-.375.125zm7.342-.75a.64.64 0 0 1-.2-.025c-.267-.067-.458-.167-.575-.3-.1-.15-.167-.267-.2-.35-.117-.367-.075-.742.125-1.125.2-.4.458-.817.775-1.25a3.64 3.64 0 0 0 .275-.425l.25-.425a.71.71 0 0 0 .075-.1c-.1.033-.225.083-.375.15-.133.067-.292.167-.475.3-.3.183-.617.425-.95.725l-1.025.9-.275.225-.25.25c-.15.133-.325.2-.525.2-.217-.017-.392-.108-.525-.275-.15-.15-.217-.325-.2-.525a.75.75 0 0 1 .25-.525l.275-.25a3.17 3.17 0 0 1 .25-.225l1.575-1.325c.517-.417 1.025-.733 1.525-.95s.983-.258 1.45-.125c.283.067.483.183.6.35.133.15.208.283.225.4.15.367.117.758-.1 1.175-.217.4-.492.842-.825 1.325-.033.033-.075.092-.125.175a1.29 1.29 0 0 1-.125.2l.975-.375 1.45-.55c.217-.067.417-.05.6.05a.68.68 0 0 1 .375.425.64.64 0 0 1-.025.575.78.78 0 0 1-.4.4l-1.45.5-1.1.4-.45.175-.325.1-.3.1c-.083.017-.167.025-.25.025zm12.335.5a1.03 1.03 0 0 1-.325-.05c-.317-.067-.542-.258-.675-.575-.1-.283-.075-.6.075-.95a12.42 12.42 0 0 1 .65-1.175l.275-.45.25-.45.075-.125a.83.83 0 0 1 .05-.125c-.5-.083-1.084-.1-1.75-.05-.65.033-1.384.158-2.2.375-.717.183-1.492.425-2.325.725l-2.6 1.025c-.184.067-.367.067-.55 0a.68.68 0 0 1-.4-.375c-.1-.183-.109-.375-.025-.575.083-.217.216-.358.4-.425l2.675-1.075c.866-.317 1.683-.567 2.45-.75 2.05-.517 3.725-.6 5.025-.25a1.13 1.13 0 0 1 .8.7c.15.367.116.775-.1 1.225s-.475.917-.775 1.4c-.017.033-.042.075-.075.125s-.067.108-.1.175c.383-.083.95-.25 1.7-.5l3.1-1.1c.183-.067.366-.05.55.05.2.083.333.225.4.425.083.183.083.375 0 .575-.084.183-.234.317-.45.4l-2.1.725-1.7.55-1.525.425c-.35.067-.617.1-.8.1zm11.646.25a.73.73 0 0 1-.5-.175c-.266-.217-.341-.492-.225-.825 0-.017.059-.217.175-.6l.45-1.3.225-.725.175-.575-1.65.625-2.05.75-2.05.775c-.183.067-.366.058-.55-.025-.2-.1-.341-.25-.425-.45-.066-.183-.05-.367.05-.55a.76.76 0 0 1 .425-.425l2.325-.825 2.225-.825 1.675-.65.65-.25c.084-.017.167-.025.25-.025a.34.34 0 0 1 .225.025c.234.033.4.167.5.4.084.133.117.308.1.525 0 .2-.041.492-.125.875l-.2.725-.275.875-.05.175-.05.175c.667-.367 1.484-.75 2.45-1.15a.64.64 0 0 1 .55 0 .6.6 0 0 1 .4.375c.1.183.109.375.025.575s-.216.342-.4.425l-2.025.95-1.4.725-.525.275c-.1.083-.225.125-.375.125zm12.792-.25a1.03 1.03 0 0 1-.325-.05c-.317-.067-.542-.258-.675-.575-.1-.283-.075-.6.075-.95a12.65 12.65 0 0 1 .65-1.175l.275-.45.25-.45.075-.125a.95.95 0 0 1 .05-.125c-.5-.083-1.083-.1-1.75-.05-.65.033-1.383.158-2.2.375-.717.183-1.492.425-2.325.725l-2.6 1.025c-.183.067-.367.067-.55 0s-.317-.192-.4-.375c-.1-.183-.108-.375-.025-.575.083-.217.217-.358.4-.425l2.675-1.075a22.12 22.12 0 0 1 2.45-.75c2.05-.517 3.725-.6 5.025-.25a1.13 1.13 0 0 1 .8.7c.15.367.117.775-.1 1.225s-.475.917-.775 1.4c-.017.033-.042.075-.075.125a1.6 1.6 0 0 0-.1.175c.383-.083.95-.25 1.7-.5l3.1-1.1c.183-.067.367-.05.55.05.2.083.333.225.4.425.083.183.083.375 0 .575-.083.183-.233.317-.45.4l-2.1.725-1.7.55-1.525.425c-.35.067-.617.1-.8.1zm9.272-.5a.64.64 0 0 1-.2-.025c-.267-.067-.458-.167-.575-.3-.1-.15-.167-.267-.2-.35-.117-.367-.075-.742.125-1.125.2-.4.458-.817.775-1.25a3.64 3.64 0 0 0 .275-.425l.25-.425a.71.71 0 0 0 .075-.1c-.1.033-.225.083-.375.15-.133.067-.292.167-.475.3-.3.183-.617.425-.95.725l-1.025.9-.275.225-.25.25c-.15.133-.325.2-.525.2-.217-.017-.392-.108-.525-.275-.15-.15-.217-.325-.2-.525a.75.75 0 0 1 .25-.525l.275-.25a3.17 3.17 0 0 1 .25-.225l1.575-1.325c.517-.417 1.025-.733 1.525-.95s.983-.258 1.45-.125c.283.067.483.183.6.35.133.15.208.283.225.4.15.367.117.758-.1 1.175-.217.4-.492.842-.825 1.325-.033.033-.075.092-.125.175a1.29 1.29 0 0 1-.125.2l.975-.375 1.45-.55c.217-.067.417-.05.6.05a.68.68 0 0 1 .375.425.64.64 0 0 1-.025.575.78.78 0 0 1-.4.4l-1.45.5-1.1.4-.45.175-.325.1-.3.1c-.083.017-.167.025-.25.025zM91 225.7a1.28 1.28 0 0 1-.35-.05l-.35-.05c-.3-.083-.508-.258-.625-.525-.15-.333-.15-.733 0-1.2.167-.483.433-1.1.8-1.85l.2-.45.225-.475a2.7 2.7 0 0 0-.7.425l-.725.575a.81.81 0 0 1-.55.15.85.85 0 0 1-.525-.275.72.72 0 0 1-.125-.55.82.82 0 0 1 .25-.525l.725-.55a5.23 5.23 0 0 1 .8-.5c.683-.35 1.308-.442 1.875-.275.267.05.467.217.6.5.133.267.125.6-.025 1-.133.4-.367.942-.7 1.625l-.275.6-.25.575c-.017.067-.042.125-.075.175l-.05.15c.35-.05.858-.225 1.525-.525.683-.317 1.6-.933 2.75-1.85l1.675-1.4 1.2-1.15.45-.45c.2-.233.442-.308.725-.225.133.017.242.075.325.175.083.083.15.167.2.25.117.233.125.508.025.825-.083.3-.267.792-.55 1.475l-.3.65-.25.6-.05.175c0 .033-.008.067-.025.1.317-.05.65-.183 1-.4.367-.233.717-.492 1.05-.775l.875-.725c.167-.15.35-.217.55-.2s.375.1.525.25c.133.167.192.35.175.55 0 .2-.083.375-.25.525l-1.6 1.275c-.533.4-1.075.7-1.625.9-.533.183-1.075.208-1.625.075-.267-.117-.458-.283-.575-.5-.1-.233-.133-.492-.1-.775.05-.283.15-.633.3-1.05l-.575.475-.6.5c-2.3 1.817-4.092 2.725-5.375 2.725zm20.081-1.675a1.03 1.03 0 0 1-.325-.05c-.317-.067-.542-.258-.675-.575-.1-.283-.075-.6.075-.95a12.42 12.42 0 0 1 .65-1.175l.275-.45.25-.45.075-.125a.83.83 0 0 1 .05-.125c-.5-.083-1.084-.1-1.75-.05-.65.033-1.384.158-2.2.375-.717.183-1.492.425-2.325.725l-2.6 1.025c-.184.067-.367.067-.55 0a.68.68 0 0 1-.4-.375c-.1-.183-.109-.375-.025-.575.083-.217.216-.358.4-.425l2.675-1.075c.866-.317 1.683-.567 2.45-.75 2.05-.517 3.725-.6 5.025-.25a1.13 1.13 0 0 1 .8.7c.15.367.116.775-.1 1.225s-.475.917-.775 1.4c-.017.033-.042.075-.075.125s-.067.108-.1.175c.383-.083.95-.25 1.7-.5l3.1-1.1c.183-.067.366-.05.55.05.2.083.333.225.4.425.083.183.083.375 0 .575-.084.183-.234.317-.45.4l-2.1.725-1.7.55-1.525.425c-.35.067-.617.1-.8.1zm7.946 1.675c-.116 0-.233-.017-.35-.05l-.35-.05c-.3-.083-.508-.258-.625-.525-.15-.333-.15-.733 0-1.2.167-.483.434-1.1.8-1.85l.2-.45.225-.475c-.216.083-.45.225-.7.425l-.725.575a.81.81 0 0 1-.55.15c-.216-.033-.391-.125-.525-.275-.116-.167-.158-.35-.125-.55.017-.2.1-.375.25-.525l.725-.55c.267-.2.534-.367.8-.5.684-.35 1.309-.442 1.875-.275.267.05.467.217.6.5.134.267.125.6-.025 1-.133.4-.366.942-.7 1.625l-.275.6-.25.575c-.016.067-.041.125-.075.175l-.05.15c.35-.05.859-.225 1.525-.525.684-.317 1.6-.933 2.75-1.85l1.675-1.4 1.2-1.15.45-.45c.2-.233.442-.308.725-.225.134.017.242.075.325.175a1.29 1.29 0 0 1 .2.25c.117.233.125.508.025.825-.083.3-.266.792-.55 1.475l-.3.65-.25.6-.05.175c0 .033-.008.067-.025.1.317-.05.65-.183 1-.4.367-.233.717-.492 1.05-.775l.875-.725c.167-.15.35-.217.55-.2s.375.1.525.25a.75.75 0 0 1 .175.55c0 .2-.083.375-.25.525l-1.6 1.275c-.533.4-1.075.7-1.625.9-.533.183-1.075.208-1.625.075-.266-.117-.458-.283-.575-.5-.1-.233-.133-.492-.1-.775.05-.283.15-.633.3-1.05l-.575.475-.6.5c-2.3 1.817-4.091 2.725-5.375 2.725zM94.7 249.275a.73.73 0 0 1-.5-.175.68.68 0 0 1-.225-.825 10.74 10.74 0 0 1 .175-.6l.45-1.3.225-.725.175-.575-1.65.625-2.05.75-2.05.775a.7.7 0 0 1-.55-.025.86.86 0 0 1-.425-.45c-.067-.183-.05-.367.05-.55a.76.76 0 0 1 .425-.425l2.325-.825 2.225-.825 1.675-.65.65-.25c.083-.017.167-.025.25-.025a.34.34 0 0 1 .225.025c.233.033.4.167.5.4.083.133.117.308.1.525 0 .2-.042.492-.125.875l-.2.725-.275.875-.05.175-.05.175c.667-.367 1.483-.75 2.45-1.15a.64.64 0 0 1 .55 0c.2.067.333.192.4.375.1.183.108.375.025.575a.77.77 0 0 1-.4.425l-2.025.95-1.4.725-.525.275c-.1.083-.225.125-.375.125zm12.792-.25a1.03 1.03 0 0 1-.325-.05c-.317-.067-.542-.258-.675-.575-.1-.283-.075-.6.075-.95a12.42 12.42 0 0 1 .65-1.175l.275-.45.25-.45.075-.125a.83.83 0 0 1 .05-.125c-.5-.083-1.084-.1-1.75-.05-.65.033-1.384.158-2.2.375-.717.183-1.492.425-2.325.725l-2.6 1.025c-.183.067-.367.067-.55 0s-.317-.192-.4-.375c-.1-.183-.108-.375-.025-.575.083-.217.217-.358.4-.425l2.675-1.075c.866-.317 1.683-.567 2.45-.75 2.05-.517 3.725-.6 5.025-.25a1.13 1.13 0 0 1 .8.7c.15.367.116.775-.1 1.225s-.475.917-.775 1.4c-.017.033-.042.075-.075.125s-.067.108-.1.175c.383-.083.95-.25 1.7-.5l3.1-1.1c.183-.067.366-.05.55.05.2.083.333.225.4.425.083.183.083.375 0 .575-.084.183-.234.317-.45.4l-2.1.725-1.7.55-1.525.425c-.35.067-.617.1-.8.1zm11.646.25a.73.73 0 0 1-.5-.175c-.266-.217-.341-.492-.225-.825 0-.017.059-.217.175-.6l.45-1.3.225-.725.175-.575-1.65.625-2.05.75-2.05.775c-.183.067-.366.058-.55-.025-.2-.1-.341-.25-.425-.45-.066-.183-.05-.367.05-.55a.76.76 0 0 1 .425-.425l2.325-.825 2.225-.825 1.675-.65.65-.25c.084-.017.167-.025.25-.025a.34.34 0 0 1 .225.025c.234.033.4.167.5.4.084.133.117.308.1.525 0 .2-.041.492-.125.875l-.2.725-.275.875-.05.175-.05.175c.667-.367 1.484-.75 2.45-1.15a.64.64 0 0 1 .55 0 .6.6 0 0 1 .4.375c.1.183.109.375.025.575s-.216.342-.4.425l-2.025.95-1.4.725-.525.275c-.1.083-.225.125-.375.125zm12.792-.25c-.116 0-.225-.017-.325-.05-.316-.067-.541-.258-.675-.575-.1-.283-.075-.6.075-.95a12.89 12.89 0 0 1 .65-1.175l.275-.45.25-.45c.034-.05.059-.092.075-.125.017-.05.034-.092.05-.125-.5-.083-1.083-.1-1.75-.05-.65.033-1.383.158-2.2.375-.716.183-1.491.425-2.325.725l-2.6 1.025c-.183.067-.366.067-.55 0s-.316-.192-.4-.375c-.1-.183-.108-.375-.025-.575.084-.217.217-.358.4-.425l2.675-1.075c.867-.317 1.684-.567 2.45-.75 2.05-.517 3.725-.6 5.025-.25.384.1.65.333.8.7s.117.775-.1 1.225-.475.917-.775 1.4c-.016.033-.041.075-.075.125s-.066.108-.1.175c.384-.083.95-.25 1.7-.5l3.1-1.1a.64.64 0 0 1 .55.05.67.67 0 0 1 .4.425c.084.183.084.375 0 .575-.083.183-.233.317-.45.4l-2.1.725-1.7.55-1.525.425c-.35.067-.616.1-.8.1zm11.647.25a.73.73 0 0 1-.5-.175.68.68 0 0 1-.225-.825c0-.017.058-.217.175-.6l.45-1.3.225-.725.175-.575-1.65.625-2.05.75-2.05.775a.7.7 0 0 1-.55-.025.86.86 0 0 1-.425-.45c-.067-.183-.05-.367.05-.55a.76.76 0 0 1 .425-.425l2.325-.825 2.225-.825 1.675-.65.65-.25c.083-.017.167-.025.25-.025a.34.34 0 0 1 .225.025c.233.033.4.167.5.4.083.133.117.308.1.525 0 .2-.042.492-.125.875l-.2.725-.275.875-.05.175c-.017.05-.033.108-.05.175.667-.367 1.483-.75 2.45-1.15a.64.64 0 0 1 .55 0c.2.067.333.192.4.375.1.183.108.375.025.575a.77.77 0 0 1-.4.425l-2.025.95-1.4.725-.525.275c-.1.083-.225.125-.375.125zm12.792-.25a1.03 1.03 0 0 1-.325-.05c-.317-.067-.542-.258-.675-.575-.1-.283-.075-.6.075-.95a12.42 12.42 0 0 1 .65-1.175l.275-.45.25-.45.075-.125a.83.83 0 0 1 .05-.125c-.5-.083-1.084-.1-1.75-.05-.65.033-1.384.158-2.2.375-.717.183-1.492.425-2.325.725l-2.6 1.025c-.184.067-.367.067-.55 0a.68.68 0 0 1-.4-.375c-.1-.183-.109-.375-.025-.575.083-.217.216-.358.4-.425l2.675-1.075c.866-.317 1.683-.567 2.45-.75 2.05-.517 3.725-.6 5.025-.25a1.13 1.13 0 0 1 .8.7c.15.367.116.775-.1 1.225s-.475.917-.775 1.4c-.017.033-.042.075-.075.125s-.067.108-.1.175c.383-.083.95-.25 1.7-.5l3.1-1.1c.183-.067.366-.05.55.05.2.083.333.225.4.425.083.183.083.375 0 .575-.084.183-.234.317-.45.4l-2.1.725-1.7.55-1.525.425c-.35.067-.617.1-.8.1zm9.271-.5a.64.64 0 0 1-.2-.025c-.266-.067-.458-.167-.575-.3a2.19 2.19 0 0 1-.2-.35c-.116-.367-.075-.742.125-1.125.2-.4.459-.817.775-1.25a3.64 3.64 0 0 0 .275-.425l.25-.425a.71.71 0 0 0 .075-.1c-.1.033-.225.083-.375.15-.133.067-.291.167-.475.3-.3.183-.616.425-.95.725l-1.025.9-.275.225-.25.25c-.15.133-.325.2-.525.2-.216-.017-.391-.108-.525-.275a.64.64 0 0 1-.2-.525.75.75 0 0 1 .25-.525l.275-.25.25-.225 1.575-1.325c.517-.417 1.025-.733 1.525-.95s.984-.258 1.45-.125c.284.067.484.183.6.35.134.15.209.283.225.4.15.367.117.758-.1 1.175-.216.4-.491.842-.825 1.325-.033.033-.075.092-.125.175a1.29 1.29 0 0 1-.125.2l.975-.375 1.45-.55c.217-.067.417-.05.6.05.184.083.309.225.375.425.084.183.075.375-.025.575-.083.183-.216.317-.4.4l-1.45.5-1.1.4-.45.175-.325.1-.3.1a1.24 1.24 0 0 1-.25.025zm12.335.5c-.116 0-.225-.017-.325-.05-.316-.067-.541-.258-.675-.575-.1-.283-.075-.6.075-.95a12.89 12.89 0 0 1 .65-1.175l.275-.45.25-.45c.034-.05.059-.092.075-.125.017-.05.034-.092.05-.125-.5-.083-1.083-.1-1.75-.05-.65.033-1.383.158-2.2.375-.716.183-1.491.425-2.325.725l-2.6 1.025c-.183.067-.366.067-.55 0s-.316-.192-.4-.375c-.1-.183-.108-.375-.025-.575.084-.217.217-.358.4-.425l2.675-1.075c.867-.317 1.684-.567 2.45-.75 2.05-.517 3.725-.6 5.025-.25.384.1.65.333.8.7s.117.775-.1 1.225-.475.917-.775 1.4c-.016.033-.041.075-.075.125s-.066.108-.1.175c.384-.083.95-.25 1.7-.5l3.1-1.1a.64.64 0 0 1 .55.05.67.67 0 0 1 .4.425c.084.183.084.375 0 .575-.083.183-.233.317-.45.4l-2.1.725-1.7.55-1.525.425c-.35.067-.616.1-.8.1zm11.647.25a.73.73 0 0 1-.5-.175.68.68 0 0 1-.225-.825c0-.017.058-.217.175-.6l.45-1.3.225-.725.175-.575-1.65.625-2.05.75-2.05.775a.7.7 0 0 1-.55-.025.86.86 0 0 1-.425-.45c-.067-.183-.05-.367.05-.55a.76.76 0 0 1 .425-.425l2.325-.825 2.225-.825 1.675-.65.65-.25c.083-.017.167-.025.25-.025a.34.34 0 0 1 .225.025c.233.033.4.167.5.4.083.133.117.308.1.525 0 .2-.042.492-.125.875l-.2.725-.275.875-.05.175c-.017.05-.033.108-.05.175.667-.367 1.483-.75 2.45-1.15a.64.64 0 0 1 .55 0c.2.067.333.192.4.375.1.183.108.375.025.575a.77.77 0 0 1-.4.425l-2.025.95-1.4.725-.525.275c-.1.083-.225.125-.375.125zm12.792-.25a1.03 1.03 0 0 1-.325-.05c-.317-.067-.542-.258-.675-.575-.1-.283-.075-.6.075-.95a12.42 12.42 0 0 1 .65-1.175l.275-.45.25-.45.075-.125a.83.83 0 0 1 .05-.125c-.5-.083-1.084-.1-1.75-.05-.65.033-1.384.158-2.2.375-.717.183-1.492.425-2.325.725l-2.6 1.025c-.184.067-.367.067-.55 0a.68.68 0 0 1-.4-.375c-.1-.183-.109-.375-.025-.575.083-.217.216-.358.4-.425l2.675-1.075c.866-.317 1.683-.567 2.45-.75 2.05-.517 3.725-.6 5.025-.25a1.13 1.13 0 0 1 .8.7c.15.367.116.775-.1 1.225s-.475.917-.775 1.4c-.017.033-.042.075-.075.125s-.067.108-.1.175c.383-.083.95-.25 1.7-.5l3.1-1.1c.183-.067.366-.05.55.05.2.083.333.225.4.425.083.183.083.375 0 .575-.084.183-.234.317-.45.4l-2.1.725-1.7.55-1.525.425c-.35.067-.617.1-.8.1zm9.271-.5a.64.64 0 0 1-.2-.025c-.266-.067-.458-.167-.575-.3a2.19 2.19 0 0 1-.2-.35c-.116-.367-.075-.742.125-1.125.2-.4.459-.817.775-1.25a3.64 3.64 0 0 0 .275-.425l.25-.425a.71.71 0 0 0 .075-.1c-.1.033-.225.083-.375.15-.133.067-.291.167-.475.3-.3.183-.616.425-.95.725l-1.025.9-.275.225-.25.25c-.15.133-.325.2-.525.2-.216-.017-.391-.108-.525-.275a.64.64 0 0 1-.2-.525.75.75 0 0 1 .25-.525l.275-.25.25-.225 1.575-1.325c.517-.417 1.025-.733 1.525-.95s.984-.258 1.45-.125c.284.067.484.183.6.35.134.15.209.283.225.4.15.367.117.758-.1 1.175-.216.4-.491.842-.825 1.325-.033.033-.075.092-.125.175a1.29 1.29 0 0 1-.125.2l.975-.375 1.45-.55c.217-.067.417-.05.6.05.184.083.309.225.375.425.084.183.075.375-.025.575-.083.183-.216.317-.4.4l-1.45.5-1.1.4-.45.175-.325.1-.3.1a1.24 1.24 0 0 1-.25.025zM91 275.7a1.28 1.28 0 0 1-.35-.05l-.35-.05c-.3-.083-.508-.258-.625-.525-.15-.333-.15-.733 0-1.2.167-.483.433-1.1.8-1.85l.2-.45.225-.475a2.7 2.7 0 0 0-.7.425l-.725.575a.81.81 0 0 1-.55.15.85.85 0 0 1-.525-.275.72.72 0 0 1-.125-.55.82.82 0 0 1 .25-.525l.725-.55a5.23 5.23 0 0 1 .8-.5c.683-.35 1.308-.442 1.875-.275.267.05.467.217.6.5.133.267.125.6-.025 1-.133.4-.367.942-.7 1.625l-.275.6-.25.575c-.017.067-.042.125-.075.175l-.05.15c.35-.05.858-.225 1.525-.525.683-.317 1.6-.933 2.75-1.85l1.675-1.4 1.2-1.15.45-.45c.2-.233.442-.308.725-.225.133.017.242.075.325.175.083.083.15.167.2.25.117.233.125.508.025.825-.083.3-.267.792-.55 1.475l-.3.65-.25.6-.05.175c0 .033-.008.067-.025.1.317-.05.65-.183 1-.4.367-.233.717-.492 1.05-.775l.875-.725c.167-.15.35-.217.55-.2s.375.1.525.25c.133.167.192.35.175.55 0 .2-.083.375-.25.525l-1.6 1.275c-.533.4-1.075.7-1.625.9-.533.183-1.075.208-1.625.075-.267-.117-.458-.283-.575-.5-.1-.233-.133-.492-.1-.775.05-.283.15-.633.3-1.05l-.575.475-.6.5c-2.3 1.817-4.092 2.725-5.375 2.725zm20.081-1.675a1.03 1.03 0 0 1-.325-.05c-.317-.067-.542-.258-.675-.575-.1-.283-.075-.6.075-.95a12.42 12.42 0 0 1 .65-1.175l.275-.45.25-.45.075-.125a.83.83 0 0 1 .05-.125c-.5-.083-1.084-.1-1.75-.05-.65.033-1.384.158-2.2.375-.717.183-1.492.425-2.325.725l-2.6 1.025c-.184.067-.367.067-.55 0a.68.68 0 0 1-.4-.375c-.1-.183-.109-.375-.025-.575.083-.217.216-.358.4-.425l2.675-1.075c.866-.317 1.683-.567 2.45-.75 2.05-.517 3.725-.6 5.025-.25a1.13 1.13 0 0 1 .8.7c.15.367.116.775-.1 1.225s-.475.917-.775 1.4c-.017.033-.042.075-.075.125s-.067.108-.1.175c.383-.083.95-.25 1.7-.5l3.1-1.1c.183-.067.366-.05.55.05.2.083.333.225.4.425.083.183.083.375 0 .575-.084.183-.234.317-.45.4l-2.1.725-1.7.55-1.525.425c-.35.067-.617.1-.8.1zm7.946 1.675c-.116 0-.233-.017-.35-.05l-.35-.05c-.3-.083-.508-.258-.625-.525-.15-.333-.15-.733 0-1.2.167-.483.434-1.1.8-1.85l.2-.45.225-.475c-.216.083-.45.225-.7.425l-.725.575a.81.81 0 0 1-.55.15c-.216-.033-.391-.125-.525-.275-.116-.167-.158-.35-.125-.55.017-.2.1-.375.25-.525l.725-.55c.267-.2.534-.367.8-.5.684-.35 1.309-.442 1.875-.275.267.05.467.217.6.5.134.267.125.6-.025 1-.133.4-.366.942-.7 1.625l-.275.6-.25.575c-.016.067-.041.125-.075.175l-.05.15c.35-.05.859-.225 1.525-.525.684-.317 1.6-.933 2.75-1.85l1.675-1.4 1.2-1.15.45-.45c.2-.233.442-.308.725-.225.134.017.242.075.325.175a1.29 1.29 0 0 1 .2.25c.117.233.125.508.025.825-.083.3-.266.792-.55 1.475l-.3.65-.25.6-.05.175c0 .033-.008.067-.025.1.317-.05.65-.183 1-.4.367-.233.717-.492 1.05-.775l.875-.725c.167-.15.35-.217.55-.2s.375.1.525.25a.75.75 0 0 1 .175.55c0 .2-.083.375-.25.525l-1.6 1.275c-.533.4-1.075.7-1.625.9-.533.183-1.075.208-1.625.075-.266-.117-.458-.283-.575-.5-.1-.233-.133-.492-.1-.775.05-.283.15-.633.3-1.05l-.575.475-.6.5c-2.3 1.817-4.091 2.725-5.375 2.725zm29.164-1.425a.73.73 0 0 1-.5-.175c-.266-.217-.341-.492-.225-.825 0-.017.059-.217.175-.6l.45-1.3.225-.725.175-.575-1.65.625-2.05.75-2.05.775c-.183.067-.366.058-.55-.025-.2-.1-.341-.25-.425-.45-.066-.183-.05-.367.05-.55a.76.76 0 0 1 .425-.425l2.325-.825 2.225-.825 1.675-.65.65-.25c.084-.017.167-.025.25-.025a.34.34 0 0 1 .225.025c.234.033.4.167.5.4.084.133.117.308.1.525 0 .2-.041.492-.125.875l-.2.725-.275.875-.05.175-.05.175c.667-.367 1.484-.75 2.45-1.15a.64.64 0 0 1 .55 0 .6.6 0 0 1 .4.375c.1.183.109.375.025.575s-.216.342-.4.425l-2.025.95-1.4.725-.525.275c-.1.083-.225.125-.375.125zm7.342-.75a.64.64 0 0 1-.2-.025c-.267-.067-.458-.167-.575-.3-.1-.15-.167-.267-.2-.35-.117-.367-.075-.742.125-1.125.2-.4.458-.817.775-1.25a3.64 3.64 0 0 0 .275-.425l.25-.425a.71.71 0 0 0 .075-.1c-.1.033-.225.083-.375.15-.133.067-.292.167-.475.3-.3.183-.617.425-.95.725l-1.025.9-.275.225-.25.25c-.15.133-.325.2-.525.2-.217-.017-.392-.108-.525-.275-.15-.15-.217-.325-.2-.525a.75.75 0 0 1 .25-.525l.275-.25a3.17 3.17 0 0 1 .25-.225l1.575-1.325c.517-.417 1.025-.733 1.525-.95s.983-.258 1.45-.125c.283.067.483.183.6.35.133.15.208.283.225.4.15.367.117.758-.1 1.175-.217.4-.492.842-.825 1.325-.033.033-.075.092-.125.175a1.29 1.29 0 0 1-.125.2l.975-.375 1.45-.55c.217-.067.417-.05.6.05a.68.68 0 0 1 .375.425.64.64 0 0 1-.025.575.78.78 0 0 1-.4.4l-1.45.5-1.1.4-.45.175-.325.1-.3.1c-.083.017-.167.025-.25.025zm9.26.75a.73.73 0 0 1-.5-.175.68.68 0 0 1-.225-.825c0-.017.058-.217.175-.6l.45-1.3.225-.725.175-.575-1.65.625-2.05.75-2.05.775a.7.7 0 0 1-.55-.025.86.86 0 0 1-.425-.45c-.067-.183-.05-.367.05-.55a.76.76 0 0 1 .425-.425l2.325-.825 2.225-.825 1.675-.65.65-.25a1.24 1.24 0 0 1 .25-.025.34.34 0 0 1 .225.025c.233.033.4.167.5.4.083.133.116.308.1.525 0 .2-.042.492-.125.875l-.2.725-.275.875-.05.175c-.017.05-.034.108-.05.175.666-.367 1.483-.75 2.45-1.15a.64.64 0 0 1 .55 0c.2.067.333.192.4.375.1.183.108.375.025.575s-.217.342-.4.425l-2.025.95-1.4.725-.525.275c-.1.083-.225.125-.375.125zm7.342-.75c-.084 0-.15-.008-.2-.025-.267-.067-.459-.167-.575-.3-.1-.15-.167-.267-.2-.35-.117-.367-.075-.742.125-1.125.2-.4.458-.817.775-1.25a3.77 3.77 0 0 0 .275-.425l.25-.425c.016-.017.041-.05.075-.1-.1.033-.225.083-.375.15a3.52 3.52 0 0 0-.475.3c-.3.183-.617.425-.95.725l-1.025.9-.275.225-.25.25c-.15.133-.325.2-.525.2-.217-.017-.392-.108-.525-.275-.15-.15-.217-.325-.2-.525.016-.217.1-.392.25-.525l.275-.25c.083-.083.166-.158.25-.225l1.575-1.325c.516-.417 1.025-.733 1.525-.95s.983-.258 1.45-.125c.283.067.483.183.6.35.133.15.208.283.225.4.15.367.116.758-.1 1.175-.217.4-.492.842-.825 1.325-.034.033-.075.092-.125.175a1.37 1.37 0 0 1-.125.2l.975-.375 1.45-.55c.216-.067.416-.05.6.05a.68.68 0 0 1 .375.425.64.64 0 0 1-.025.575c-.084.183-.217.317-.4.4l-1.45.5-1.1.4-.45.175-.325.1-.3.1c-.084.017-.167.025-.25.025zm6.884 0a.64.64 0 0 1-.2-.025c-.266-.067-.458-.167-.575-.3a2.19 2.19 0 0 1-.2-.35c-.116-.367-.075-.742.125-1.125.2-.4.459-.817.775-1.25a3.64 3.64 0 0 0 .275-.425l.25-.425a.71.71 0 0 0 .075-.1c-.1.033-.225.083-.375.15-.133.067-.291.167-.475.3-.3.183-.616.425-.95.725l-1.025.9-.275.225-.25.25c-.15.133-.325.2-.525.2-.216-.017-.391-.108-.525-.275a.64.64 0 0 1-.2-.525.75.75 0 0 1 .25-.525l.275-.25.25-.225 1.575-1.325c.517-.417 1.025-.733 1.525-.95s.984-.258 1.45-.125c.284.067.484.183.6.35.134.15.209.283.225.4.15.367.117.758-.1 1.175-.216.4-.491.842-.825 1.325-.033.033-.075.092-.125.175a1.29 1.29 0 0 1-.125.2l.975-.375 1.45-.55c.217-.067.417-.05.6.05.184.083.309.225.375.425.084.183.075.375-.025.575-.083.183-.216.317-.4.4l-1.45.5-1.1.4-.45.175-.325.1-.3.1a1.24 1.24 0 0 1-.25.025zm12.335.5a1.03 1.03 0 0 1-.325-.05c-.317-.067-.542-.258-.675-.575-.1-.283-.075-.6.075-.95a12.65 12.65 0 0 1 .65-1.175l.275-.45.25-.45.075-.125a.95.95 0 0 1 .05-.125c-.5-.083-1.083-.1-1.75-.05-.65.033-1.383.158-2.2.375-.717.183-1.492.425-2.325.725l-2.6 1.025c-.183.067-.367.067-.55 0s-.317-.192-.4-.375c-.1-.183-.108-.375-.025-.575.083-.217.217-.358.4-.425l2.675-1.075a22.12 22.12 0 0 1 2.45-.75c2.05-.517 3.725-.6 5.025-.25a1.13 1.13 0 0 1 .8.7c.15.367.117.775-.1 1.225s-.475.917-.775 1.4c-.017.033-.042.075-.075.125a1.6 1.6 0 0 0-.1.175c.383-.083.95-.25 1.7-.5l3.1-1.1c.183-.067.367-.05.55.05.2.083.333.225.4.425.083.183.083.375 0 .575-.083.183-.233.317-.45.4l-2.1.725-1.7.55-1.525.425c-.35.067-.617.1-.8.1zm9.272-.5c-.084 0-.15-.008-.2-.025-.267-.067-.459-.167-.575-.3-.1-.15-.167-.267-.2-.35-.117-.367-.075-.742.125-1.125.2-.4.458-.817.775-1.25a3.77 3.77 0 0 0 .275-.425l.25-.425c.016-.017.041-.05.075-.1-.1.033-.225.083-.375.15a3.52 3.52 0 0 0-.475.3c-.3.183-.617.425-.95.725l-1.025.9-.275.225-.25.25c-.15.133-.325.2-.525.2-.217-.017-.392-.108-.525-.275-.15-.15-.217-.325-.2-.525.016-.217.1-.392.25-.525l.275-.25c.083-.083.166-.158.25-.225l1.575-1.325c.516-.417 1.025-.733 1.525-.95s.983-.258 1.45-.125c.283.067.483.183.6.35.133.15.208.283.225.4.15.367.116.758-.1 1.175-.217.4-.492.842-.825 1.325-.034.033-.075.092-.125.175a1.37 1.37 0 0 1-.125.2l.975-.375 1.45-.55c.216-.067.416-.05.6.05a.68.68 0 0 1 .375.425.64.64 0 0 1-.025.575c-.084.183-.217.317-.4.4l-1.45.5-1.1.4-.45.175-.325.1-.3.1c-.084.017-.167.025-.25.025zm12.335.5a1.03 1.03 0 0 1-.325-.05c-.317-.067-.542-.258-.675-.575-.1-.283-.075-.6.075-.95a12.42 12.42 0 0 1 .65-1.175l.275-.45.25-.45.075-.125a.83.83 0 0 1 .05-.125c-.5-.083-1.084-.1-1.75-.05-.65.033-1.384.158-2.2.375-.717.183-1.492.425-2.325.725l-2.6 1.025c-.184.067-.367.067-.55 0a.68.68 0 0 1-.4-.375c-.1-.183-.109-.375-.025-.575.083-.217.216-.358.4-.425l2.675-1.075c.866-.317 1.683-.567 2.45-.75 2.05-.517 3.725-.6 5.025-.25a1.13 1.13 0 0 1 .8.7c.15.367.116.775-.1 1.225s-.475.917-.775 1.4c-.017.033-.042.075-.075.125s-.067.108-.1.175c.383-.083.95-.25 1.7-.5l3.1-1.1c.183-.067.366-.05.55.05.2.083.333.225.4.425.083.183.083.375 0 .575-.084.183-.234.317-.45.4l-2.1.725-1.7.55-1.525.425c-.35.067-.617.1-.8.1zm9.271-.5a.64.64 0 0 1-.2-.025c-.266-.067-.458-.167-.575-.3a2.19 2.19 0 0 1-.2-.35c-.116-.367-.075-.742.125-1.125.2-.4.459-.817.775-1.25a3.64 3.64 0 0 0 .275-.425l.25-.425a.71.71 0 0 0 .075-.1c-.1.033-.225.083-.375.15-.133.067-.291.167-.475.3-.3.183-.616.425-.95.725l-1.025.9-.275.225-.25.25c-.15.133-.325.2-.525.2-.216-.017-.391-.108-.525-.275a.64.64 0 0 1-.2-.525.75.75 0 0 1 .25-.525l.275-.25.25-.225 1.575-1.325c.517-.417 1.025-.733 1.525-.95s.984-.258 1.45-.125c.284.067.484.183.6.35.134.15.209.283.225.4.15.367.117.758-.1 1.175-.216.4-.491.842-.825 1.325-.033.033-.075.092-.125.175a1.29 1.29 0 0 1-.125.2l.975-.375 1.45-.55c.217-.067.417-.05.6.05.184.083.309.225.375.425.084.183.075.375-.025.575-.083.183-.216.317-.4.4l-1.45.5-1.1.4-.45.175-.325.1-.3.1a1.24 1.24 0 0 1-.25.025z"/><path d="M283.775 199.025a1.03 1.03 0 0 1-.325-.05c-.317-.067-.542-.258-.675-.575-.1-.283-.075-.6.075-.95a12.65 12.65 0 0 1 .65-1.175l.275-.45.25-.45.075-.125a.95.95 0 0 1 .05-.125c-.5-.083-1.083-.1-1.75-.05-.65.033-1.383.158-2.2.375-.717.183-1.492.425-2.325.725l-2.6 1.025c-.183.067-.367.067-.55 0s-.317-.192-.4-.375c-.1-.183-.108-.375-.025-.575.083-.217.217-.358.4-.425l2.675-1.075a22.12 22.12 0 0 1 2.45-.75c2.05-.517 3.725-.6 5.025-.25a1.13 1.13 0 0 1 .8.7c.15.367.117.775-.1 1.225s-.475.917-.775 1.4c-.017.033-.042.075-.075.125a1.6 1.6 0 0 0-.1.175c.383-.083.95-.25 1.7-.5l3.1-1.1c.183-.067.367-.05.55.05.2.083.333.225.4.425.083.183.083.375 0 .575-.083.183-.233.317-.45.4l-2.1.725-1.7.55-1.525.425c-.35.067-.617.1-.8.1zm9.272-.5c-.084 0-.15-.008-.2-.025-.267-.067-.459-.167-.575-.3-.1-.15-.167-.267-.2-.35-.117-.367-.075-.742.125-1.125.2-.4.458-.817.775-1.25a3.77 3.77 0 0 0 .275-.425l.25-.425c.016-.017.041-.05.075-.1-.1.033-.225.083-.375.15a3.52 3.52 0 0 0-.475.3c-.3.183-.617.425-.95.725l-1.025.9-.275.225-.25.25c-.15.133-.325.2-.525.2-.217-.017-.392-.108-.525-.275-.15-.15-.217-.325-.2-.525.016-.217.1-.392.25-.525l.275-.25c.083-.083.166-.158.25-.225l1.575-1.325c.516-.417 1.025-.733 1.525-.95s.983-.258 1.45-.125c.283.067.483.183.6.35.133.15.208.283.225.4.15.367.116.758-.1 1.175-.217.4-.492.842-.825 1.325-.034.033-.075.092-.125.175a1.37 1.37 0 0 1-.125.2l.975-.375 1.45-.55c.216-.067.416-.05.6.05a.68.68 0 0 1 .375.425.64.64 0 0 1-.025.575c-.084.183-.217.317-.4.4l-1.45.5-1.1.4-.45.175-.325.1-.3.1c-.084.017-.167.025-.25.025zm12.334.5c-.116 0-.225-.017-.325-.05-.316-.067-.541-.258-.675-.575-.1-.283-.075-.6.075-.95a12.89 12.89 0 0 1 .65-1.175l.275-.45.25-.45c.034-.05.059-.092.075-.125.017-.05.034-.092.05-.125-.5-.083-1.083-.1-1.75-.05-.65.033-1.383.158-2.2.375-.716.183-1.491.425-2.325.725l-2.6 1.025c-.183.067-.366.067-.55 0s-.316-.192-.4-.375c-.1-.183-.108-.375-.025-.575.084-.217.217-.358.4-.425l2.675-1.075c.867-.317 1.684-.567 2.45-.75 2.05-.517 3.725-.6 5.025-.25.384.1.65.333.8.7s.117.775-.1 1.225-.475.917-.775 1.4c-.016.033-.041.075-.075.125s-.066.108-.1.175c.384-.083.95-.25 1.7-.5l3.1-1.1a.64.64 0 0 1 .55.05.67.67 0 0 1 .4.425c.084.183.084.375 0 .575-.083.183-.233.317-.45.4l-2.1.725-1.7.55-1.525.425c-.35.067-.616.1-.8.1zm11.647.25a.73.73 0 0 1-.5-.175.68.68 0 0 1-.225-.825c0-.017.058-.217.175-.6l.45-1.3.225-.725.175-.575-1.65.625-2.05.75-2.05.775a.7.7 0 0 1-.55-.025.86.86 0 0 1-.425-.45c-.067-.183-.05-.367.05-.55a.76.76 0 0 1 .425-.425l2.325-.825 2.225-.825 1.675-.65.65-.25c.083-.017.167-.025.25-.025a.34.34 0 0 1 .225.025c.233.033.4.167.5.4.083.133.117.308.1.525 0 .2-.042.492-.125.875l-.2.725-.275.875-.05.175c-.017.05-.033.108-.05.175.667-.367 1.483-.75 2.45-1.15a.64.64 0 0 1 .55 0c.2.067.333.192.4.375.1.183.108.375.025.575a.77.77 0 0 1-.4.425l-2.025.95-1.4.725-.525.275c-.1.083-.225.125-.375.125zm7.342-.75a.64.64 0 0 1-.2-.025c-.267-.067-.458-.167-.575-.3-.1-.15-.167-.267-.2-.35-.117-.367-.075-.742.125-1.125.2-.4.458-.817.775-1.25a3.64 3.64 0 0 0 .275-.425l.25-.425a.71.71 0 0 0 .075-.1c-.1.033-.225.083-.375.15-.133.067-.292.167-.475.3-.3.183-.617.425-.95.725l-1.025.9-.275.225-.25.25c-.15.133-.325.2-.525.2-.217-.017-.392-.108-.525-.275-.15-.15-.217-.325-.2-.525a.75.75 0 0 1 .25-.525l.275-.25a3.17 3.17 0 0 1 .25-.225l1.575-1.325c.517-.417 1.025-.733 1.525-.95s.983-.258 1.45-.125c.283.067.483.183.6.35.133.15.208.283.225.4.15.367.117.758-.1 1.175-.217.4-.492.842-.825 1.325-.033.033-.075.092-.125.175a1.29 1.29 0 0 1-.125.2l.975-.375 1.45-.55c.217-.067.417-.05.6.05a.68.68 0 0 1 .375.425.64.64 0 0 1-.025.575.78.78 0 0 1-.4.4l-1.45.5-1.1.4-.45.175-.325.1-.3.1c-.083.017-.167.025-.25.025zm12.335.5a1.03 1.03 0 0 1-.325-.05c-.317-.067-.542-.258-.675-.575-.1-.283-.075-.6.075-.95a12.42 12.42 0 0 1 .65-1.175l.275-.45.25-.45.075-.125a.83.83 0 0 1 .05-.125c-.5-.083-1.084-.1-1.75-.05-.65.033-1.384.158-2.2.375-.717.183-1.492.425-2.325.725l-2.6 1.025c-.184.067-.367.067-.55 0a.68.68 0 0 1-.4-.375c-.1-.183-.109-.375-.025-.575.083-.217.216-.358.4-.425l2.675-1.075c.866-.317 1.683-.567 2.45-.75 2.05-.517 3.725-.6 5.025-.25a1.13 1.13 0 0 1 .8.7c.15.367.116.775-.1 1.225s-.475.917-.775 1.4c-.017.033-.042.075-.075.125s-.067.108-.1.175c.383-.083.95-.25 1.7-.5l3.1-1.1c.183-.067.366-.05.55.05.2.083.333.225.4.425.083.183.083.375 0 .575-.084.183-.234.317-.45.4l-2.1.725-1.7.55-1.525.425c-.35.067-.617.1-.8.1zm11.646.25a.73.73 0 0 1-.5-.175c-.266-.217-.341-.492-.225-.825 0-.017.059-.217.175-.6l.45-1.3.225-.725.175-.575-1.65.625-2.05.75-2.05.775c-.183.067-.366.058-.55-.025-.2-.1-.341-.25-.425-.45-.066-.183-.05-.367.05-.55a.76.76 0 0 1 .425-.425l2.325-.825 2.225-.825 1.675-.65.65-.25c.084-.017.167-.025.25-.025a.34.34 0 0 1 .225.025c.234.033.4.167.5.4.084.133.117.308.1.525 0 .2-.041.492-.125.875l-.2.725-.275.875-.05.175-.05.175c.667-.367 1.484-.75 2.45-1.15a.64.64 0 0 1 .55 0 .6.6 0 0 1 .4.375c.1.183.109.375.025.575s-.216.342-.4.425l-2.025.95-1.4.725-.525.275c-.1.083-.225.125-.375.125zm12.792-.25a1.03 1.03 0 0 1-.325-.05c-.317-.067-.542-.258-.675-.575-.1-.283-.075-.6.075-.95a12.65 12.65 0 0 1 .65-1.175l.275-.45.25-.45.075-.125a.95.95 0 0 1 .05-.125c-.5-.083-1.083-.1-1.75-.05-.65.033-1.383.158-2.2.375-.717.183-1.492.425-2.325.725l-2.6 1.025c-.183.067-.367.067-.55 0s-.317-.192-.4-.375c-.1-.183-.108-.375-.025-.575.083-.217.217-.358.4-.425l2.675-1.075a22.12 22.12 0 0 1 2.45-.75c2.05-.517 3.725-.6 5.025-.25a1.13 1.13 0 0 1 .8.7c.15.367.117.775-.1 1.225s-.475.917-.775 1.4c-.017.033-.042.075-.075.125a1.6 1.6 0 0 0-.1.175c.383-.083.95-.25 1.7-.5l3.1-1.1c.183-.067.367-.05.55.05.2.083.333.225.4.425.083.183.083.375 0 .575-.083.183-.233.317-.45.4l-2.1.725-1.7.55-1.525.425c-.35.067-.617.1-.8.1zm9.272-.5a.64.64 0 0 1-.2-.025c-.267-.067-.458-.167-.575-.3-.1-.15-.167-.267-.2-.35-.117-.367-.075-.742.125-1.125.2-.4.458-.817.775-1.25a3.64 3.64 0 0 0 .275-.425l.25-.425a.71.71 0 0 0 .075-.1c-.1.033-.225.083-.375.15-.133.067-.292.167-.475.3-.3.183-.617.425-.95.725l-1.025.9-.275.225-.25.25c-.15.133-.325.2-.525.2-.217-.017-.392-.108-.525-.275-.15-.15-.217-.325-.2-.525a.75.75 0 0 1 .25-.525l.275-.25a3.17 3.17 0 0 1 .25-.225l1.575-1.325c.517-.417 1.025-.733 1.525-.95s.983-.258 1.45-.125c.283.067.483.183.6.35.133.15.208.283.225.4.15.367.117.758-.1 1.175-.217.4-.492.842-.825 1.325-.033.033-.075.092-.125.175a1.29 1.29 0 0 1-.125.2l.975-.375 1.45-.55c.217-.067.417-.05.6.05a.68.68 0 0 1 .375.425.64.64 0 0 1-.025.575.78.78 0 0 1-.4.4l-1.45.5-1.1.4-.45.175-.325.1-.3.1c-.083.017-.167.025-.25.025zM277 225.7a1.28 1.28 0 0 1-.35-.05l-.35-.05c-.3-.083-.508-.258-.625-.525-.15-.333-.15-.733 0-1.2.167-.483.433-1.1.8-1.85l.2-.45.225-.475c-.217.083-.45.225-.7.425l-.725.575a.81.81 0 0 1-.55.15c-.217-.033-.392-.125-.525-.275a.72.72 0 0 1-.125-.55c.017-.2.1-.375.25-.525l.725-.55c.267-.2.533-.367.8-.5.683-.35 1.308-.442 1.875-.275.267.05.467.217.6.5.133.267.125.6-.025 1-.133.4-.367.942-.7 1.625l-.275.6-.25.575a.57.57 0 0 1-.075.175l-.05.15c.35-.05.858-.225 1.525-.525.683-.317 1.6-.933 2.75-1.85l1.675-1.4 1.2-1.15.45-.45c.2-.233.442-.308.725-.225.133.017.242.075.325.175.083.083.15.167.2.25.117.233.125.508.025.825-.083.3-.267.792-.55 1.475l-.3.65-.25.6-.05.175c0 .033-.008.067-.025.1.317-.05.65-.183 1-.4.367-.233.717-.492 1.05-.775l.875-.725c.167-.15.35-.217.55-.2s.375.1.525.25c.133.167.192.35.175.55 0 .2-.083.375-.25.525l-1.6 1.275c-.533.4-1.075.7-1.625.9-.533.183-1.075.208-1.625.075-.267-.117-.458-.283-.575-.5-.1-.233-.133-.492-.1-.775.05-.283.15-.633.3-1.05l-.575.475-.6.5c-2.3 1.817-4.092 2.725-5.375 2.725zm13.306 0c-.117 0-.234-.017-.35-.05l-.35-.05c-.3-.083-.509-.258-.625-.525-.15-.333-.15-.733 0-1.2.166-.483.433-1.1.8-1.85l.2-.45.225-.475c-.217.083-.45.225-.7.425l-.725.575a.81.81 0 0 1-.55.15c-.217-.033-.392-.125-.525-.275-.117-.167-.159-.35-.125-.55.016-.2.1-.375.25-.525l.725-.55a5.18 5.18 0 0 1 .8-.5c.683-.35 1.308-.442 1.875-.275.266.05.466.217.6.5.133.267.125.6-.025 1-.134.4-.367.942-.7 1.625l-.275.6-.25.575a.57.57 0 0 1-.075.175l-.05.15c.35-.05.858-.225 1.525-.525.683-.317 1.6-.933 2.75-1.85l1.675-1.4 1.2-1.15.45-.45c.2-.233.441-.308.725-.225a.49.49 0 0 1 .325.175c.083.083.15.167.2.25.116.233.125.508.025.825-.084.3-.267.792-.55 1.475l-.3.65-.25.6-.05.175a.23.23 0 0 1-.025.1c.316-.05.65-.183 1-.4.366-.233.716-.492 1.05-.775l.875-.725c.166-.15.35-.217.55-.2s.375.1.525.25a.76.76 0 0 1 .175.55c0 .2-.084.375-.25.525l-1.6 1.275c-.534.4-1.075.7-1.625.9-.534.183-1.075.208-1.625.075-.267-.117-.459-.283-.575-.5-.1-.233-.134-.492-.1-.775.05-.283.15-.633.3-1.05l-.575.475-.6.5c-2.3 1.817-4.092 2.725-5.375 2.725zm13.305 0c-.116 0-.233-.017-.35-.05l-.35-.05c-.3-.083-.508-.258-.625-.525-.15-.333-.15-.733 0-1.2.167-.483.434-1.1.8-1.85l.2-.45.225-.475c-.216.083-.45.225-.7.425l-.725.575a.81.81 0 0 1-.55.15c-.216-.033-.391-.125-.525-.275-.116-.167-.158-.35-.125-.55.017-.2.1-.375.25-.525l.725-.55c.267-.2.534-.367.8-.5.684-.35 1.309-.442 1.875-.275.267.05.467.217.6.5.134.267.125.6-.025 1-.133.4-.366.942-.7 1.625l-.275.6-.25.575c-.016.067-.041.125-.075.175l-.05.15c.35-.05.859-.225 1.525-.525.684-.317 1.6-.933 2.75-1.85l1.675-1.4 1.2-1.15.45-.45c.2-.233.442-.308.725-.225.134.017.242.075.325.175a1.29 1.29 0 0 1 .2.25c.117.233.125.508.025.825-.083.3-.266.792-.55 1.475l-.3.65-.25.6-.05.175c0 .033-.008.067-.025.1.317-.05.65-.183 1-.4.367-.233.717-.492 1.05-.775l.875-.725c.167-.15.35-.217.55-.2s.375.1.525.25a.75.75 0 0 1 .175.55c0 .2-.083.375-.25.525l-1.6 1.275c-.533.4-1.075.7-1.625.9-.533.183-1.075.208-1.625.075-.266-.117-.458-.283-.575-.5-.1-.233-.133-.492-.1-.775.05-.283.15-.633.3-1.05l-.575.475-.6.5c-2.3 1.817-4.091 2.725-5.375 2.725zM280.7 249.275a.73.73 0 0 1-.5-.175.68.68 0 0 1-.225-.825c0-.017.058-.217.175-.6l.45-1.3.225-.725.175-.575-1.65.625-2.05.75-2.05.775a.7.7 0 0 1-.55-.025.86.86 0 0 1-.425-.45c-.067-.183-.05-.367.05-.55a.76.76 0 0 1 .425-.425l2.325-.825 2.225-.825 1.675-.65.65-.25c.083-.017.167-.025.25-.025a.34.34 0 0 1 .225.025c.233.033.4.167.5.4.083.133.117.308.1.525 0 .2-.042.492-.125.875l-.2.725-.275.875-.05.175c-.017.05-.033.108-.05.175.667-.367 1.483-.75 2.45-1.15a.64.64 0 0 1 .55 0c.2.067.333.192.4.375.1.183.108.375.025.575a.77.77 0 0 1-.4.425l-2.025.95-1.4.725-.525.275c-.1.083-.225.125-.375.125zm12.792-.25a1.03 1.03 0 0 1-.325-.05c-.317-.067-.542-.258-.675-.575-.1-.283-.075-.6.075-.95a12.42 12.42 0 0 1 .65-1.175l.275-.45.25-.45.075-.125a.83.83 0 0 1 .05-.125c-.5-.083-1.084-.1-1.75-.05-.65.033-1.384.158-2.2.375-.717.183-1.492.425-2.325.725l-2.6 1.025c-.184.067-.367.067-.55 0a.68.68 0 0 1-.4-.375c-.1-.183-.109-.375-.025-.575.083-.217.216-.358.4-.425l2.675-1.075c.866-.317 1.683-.567 2.45-.75 2.05-.517 3.725-.6 5.025-.25a1.13 1.13 0 0 1 .8.7c.15.367.116.775-.1 1.225s-.475.917-.775 1.4c-.017.033-.042.075-.075.125s-.067.108-.1.175c.383-.083.95-.25 1.7-.5l3.1-1.1c.183-.067.366-.05.55.05.2.083.333.225.4.425.083.183.083.375 0 .575-.084.183-.234.317-.45.4l-2.1.725-1.7.55-1.525.425c-.35.067-.617.1-.8.1zm11.646.25a.73.73 0 0 1-.5-.175c-.266-.217-.341-.492-.225-.825 0-.017.059-.217.175-.6l.45-1.3.225-.725.175-.575-1.65.625-2.05.75-2.05.775c-.183.067-.366.058-.55-.025-.2-.1-.341-.25-.425-.45-.066-.183-.05-.367.05-.55a.76.76 0 0 1 .425-.425l2.325-.825 2.225-.825 1.675-.65.65-.25c.084-.017.167-.025.25-.025a.34.34 0 0 1 .225.025c.234.033.4.167.5.4.084.133.117.308.1.525 0 .2-.041.492-.125.875l-.2.725-.275.875-.05.175-.05.175c.667-.367 1.484-.75 2.45-1.15a.64.64 0 0 1 .55 0 .6.6 0 0 1 .4.375c.1.183.109.375.025.575s-.216.342-.4.425l-2.025.95-1.4.725-.525.275c-.1.083-.225.125-.375.125zm12.792-.25c-.116 0-.225-.017-.325-.05-.316-.067-.541-.258-.675-.575-.1-.283-.075-.6.075-.95a12.89 12.89 0 0 1 .65-1.175l.275-.45.25-.45c.034-.05.059-.092.075-.125.017-.05.034-.092.05-.125-.5-.083-1.083-.1-1.75-.05-.65.033-1.383.158-2.2.375-.716.183-1.491.425-2.325.725l-2.6 1.025c-.183.067-.366.067-.55 0s-.316-.192-.4-.375c-.1-.183-.108-.375-.025-.575.084-.217.217-.358.4-.425l2.675-1.075c.867-.317 1.684-.567 2.45-.75 2.05-.517 3.725-.6 5.025-.25.384.1.65.333.8.7s.117.775-.1 1.225-.475.917-.775 1.4c-.016.033-.041.075-.075.125s-.066.108-.1.175c.384-.083.95-.25 1.7-.5l3.1-1.1a.64.64 0 0 1 .55.05.67.67 0 0 1 .4.425c.084.183.084.375 0 .575-.083.183-.233.317-.45.4l-2.1.725-1.7.55-1.525.425c-.35.067-.616.1-.8.1zm11.647.25a.73.73 0 0 1-.5-.175.68.68 0 0 1-.225-.825c0-.017.058-.217.175-.6l.45-1.3.225-.725.175-.575-1.65.625-2.05.75-2.05.775a.7.7 0 0 1-.55-.025.86.86 0 0 1-.425-.45c-.067-.183-.05-.367.05-.55a.76.76 0 0 1 .425-.425l2.325-.825 2.225-.825 1.675-.65.65-.25c.083-.017.167-.025.25-.025a.34.34 0 0 1 .225.025c.233.033.4.167.5.4.083.133.117.308.1.525 0 .2-.042.492-.125.875l-.2.725-.275.875-.05.175c-.017.05-.033.108-.05.175.667-.367 1.483-.75 2.45-1.15a.64.64 0 0 1 .55 0c.2.067.333.192.4.375.1.183.108.375.025.575a.77.77 0 0 1-.4.425l-2.025.95-1.4.725-.525.275c-.1.083-.225.125-.375.125zm12.792-.25a1.03 1.03 0 0 1-.325-.05c-.317-.067-.542-.258-.675-.575-.1-.283-.075-.6.075-.95a12.42 12.42 0 0 1 .65-1.175l.275-.45.25-.45.075-.125a.83.83 0 0 1 .05-.125c-.5-.083-1.084-.1-1.75-.05-.65.033-1.384.158-2.2.375-.717.183-1.492.425-2.325.725l-2.6 1.025c-.184.067-.367.067-.55 0a.68.68 0 0 1-.4-.375c-.1-.183-.109-.375-.025-.575.083-.217.216-.358.4-.425l2.675-1.075c.866-.317 1.683-.567 2.45-.75 2.05-.517 3.725-.6 5.025-.25a1.13 1.13 0 0 1 .8.7c.15.367.116.775-.1 1.225s-.475.917-.775 1.4c-.017.033-.042.075-.075.125s-.067.108-.1.175c.383-.083.95-.25 1.7-.5l3.1-1.1c.183-.067.366-.05.55.05.2.083.333.225.4.425.083.183.083.375 0 .575-.084.183-.234.317-.45.4l-2.1.725-1.7.55-1.525.425c-.35.067-.617.1-.8.1zm9.271-.5a.64.64 0 0 1-.2-.025c-.266-.067-.458-.167-.575-.3a2.19 2.19 0 0 1-.2-.35c-.116-.367-.075-.742.125-1.125.2-.4.459-.817.775-1.25a3.64 3.64 0 0 0 .275-.425l.25-.425a.71.71 0 0 0 .075-.1c-.1.033-.225.083-.375.15-.133.067-.291.167-.475.3-.3.183-.616.425-.95.725l-1.025.9-.275.225-.25.25c-.15.133-.325.2-.525.2-.216-.017-.391-.108-.525-.275a.64.64 0 0 1-.2-.525.75.75 0 0 1 .25-.525l.275-.25.25-.225 1.575-1.325c.517-.417 1.025-.733 1.525-.95s.984-.258 1.45-.125c.284.067.484.183.6.35.134.15.209.283.225.4.15.367.117.758-.1 1.175-.216.4-.491.842-.825 1.325-.033.033-.075.092-.125.175a1.29 1.29 0 0 1-.125.2l.975-.375 1.45-.55c.217-.067.417-.05.6.05.184.083.309.225.375.425.084.183.075.375-.025.575-.083.183-.216.317-.4.4l-1.45.5-1.1.4-.45.175-.325.1-.3.1a1.24 1.24 0 0 1-.25.025zm12.335.5c-.116 0-.225-.017-.325-.05-.316-.067-.541-.258-.675-.575-.1-.283-.075-.6.075-.95a12.89 12.89 0 0 1 .65-1.175l.275-.45.25-.45c.034-.05.059-.092.075-.125.017-.05.034-.092.05-.125-.5-.083-1.083-.1-1.75-.05-.65.033-1.383.158-2.2.375-.716.183-1.491.425-2.325.725l-2.6 1.025c-.183.067-.366.067-.55 0s-.316-.192-.4-.375c-.1-.183-.108-.375-.025-.575.084-.217.217-.358.4-.425l2.675-1.075c.867-.317 1.684-.567 2.45-.75 2.05-.517 3.725-.6 5.025-.25.384.1.65.333.8.7s.117.775-.1 1.225-.475.917-.775 1.4c-.016.033-.041.075-.075.125s-.066.108-.1.175c.384-.083.95-.25 1.7-.5l3.1-1.1a.64.64 0 0 1 .55.05.67.67 0 0 1 .4.425c.084.183.084.375 0 .575-.083.183-.233.317-.45.4l-2.1.725-1.7.55-1.525.425c-.35.067-.616.1-.8.1zm11.647.25a.73.73 0 0 1-.5-.175.68.68 0 0 1-.225-.825c0-.017.058-.217.175-.6l.45-1.3.225-.725.175-.575-1.65.625-2.05.75-2.05.775a.7.7 0 0 1-.55-.025.86.86 0 0 1-.425-.45c-.067-.183-.05-.367.05-.55a.76.76 0 0 1 .425-.425l2.325-.825 2.225-.825 1.675-.65.65-.25c.083-.017.167-.025.25-.025a.34.34 0 0 1 .225.025c.233.033.4.167.5.4.083.133.117.308.1.525 0 .2-.042.492-.125.875l-.2.725-.275.875-.05.175c-.017.05-.033.108-.05.175.667-.367 1.483-.75 2.45-1.15a.64.64 0 0 1 .55 0c.2.067.333.192.4.375.1.183.108.375.025.575a.77.77 0 0 1-.4.425l-2.025.95-1.4.725-.525.275c-.1.083-.225.125-.375.125zm12.792-.25a1.03 1.03 0 0 1-.325-.05c-.317-.067-.542-.258-.675-.575-.1-.283-.075-.6.075-.95a12.42 12.42 0 0 1 .65-1.175l.275-.45.25-.45.075-.125a.83.83 0 0 1 .05-.125c-.5-.083-1.084-.1-1.75-.05-.65.033-1.384.158-2.2.375-.717.183-1.492.425-2.325.725l-2.6 1.025c-.184.067-.367.067-.55 0a.68.68 0 0 1-.4-.375c-.1-.183-.109-.375-.025-.575.083-.217.216-.358.4-.425l2.675-1.075c.866-.317 1.683-.567 2.45-.75 2.05-.517 3.725-.6 5.025-.25a1.13 1.13 0 0 1 .8.7c.15.367.116.775-.1 1.225s-.475.917-.775 1.4c-.017.033-.042.075-.075.125s-.067.108-.1.175c.383-.083.95-.25 1.7-.5l3.1-1.1c.183-.067.366-.05.55.05.2.083.333.225.4.425.083.183.083.375 0 .575-.084.183-.234.317-.45.4l-2.1.725-1.7.55-1.525.425c-.35.067-.617.1-.8.1zm9.271-.5a.64.64 0 0 1-.2-.025c-.266-.067-.458-.167-.575-.3a2.19 2.19 0 0 1-.2-.35c-.116-.367-.075-.742.125-1.125.2-.4.459-.817.775-1.25a3.64 3.64 0 0 0 .275-.425l.25-.425a.71.71 0 0 0 .075-.1c-.1.033-.225.083-.375.15-.133.067-.291.167-.475.3-.3.183-.616.425-.95.725l-1.025.9-.275.225-.25.25c-.15.133-.325.2-.525.2-.216-.017-.391-.108-.525-.275a.64.64 0 0 1-.2-.525.75.75 0 0 1 .25-.525l.275-.25.25-.225 1.575-1.325c.517-.417 1.025-.733 1.525-.95s.984-.258 1.45-.125c.284.067.484.183.6.35.134.15.209.283.225.4.15.367.117.758-.1 1.175-.216.4-.491.842-.825 1.325-.033.033-.075.092-.125.175a1.29 1.29 0 0 1-.125.2l.975-.375 1.45-.55c.217-.067.417-.05.6.05.184.083.309.225.375.425.084.183.075.375-.025.575-.083.183-.216.317-.4.4l-1.45.5-1.1.4-.45.175-.325.1-.3.1a1.24 1.24 0 0 1-.25.025zM280.7 274.275a.73.73 0 0 1-.5-.175.68.68 0 0 1-.225-.825c0-.017.058-.217.175-.6l.45-1.3.225-.725.175-.575-1.65.625-2.05.75-2.05.775a.7.7 0 0 1-.55-.025.86.86 0 0 1-.425-.45c-.067-.183-.05-.367.05-.55a.76.76 0 0 1 .425-.425l2.325-.825 2.225-.825 1.675-.65.65-.25c.083-.017.167-.025.25-.025a.34.34 0 0 1 .225.025c.233.033.4.167.5.4.083.133.117.308.1.525 0 .2-.042.492-.125.875l-.2.725-.275.875-.05.175c-.017.05-.033.108-.05.175.667-.367 1.483-.75 2.45-1.15a.64.64 0 0 1 .55 0c.2.067.333.192.4.375.1.183.108.375.025.575a.77.77 0 0 1-.4.425l-2.025.95-1.4.725-.525.275c-.1.083-.225.125-.375.125zm7.342-.75c-.084 0-.15-.008-.2-.025-.267-.067-.459-.167-.575-.3-.1-.15-.167-.267-.2-.35-.117-.367-.075-.742.125-1.125.2-.4.458-.817.775-1.25a3.77 3.77 0 0 0 .275-.425l.25-.425c.016-.017.041-.05.075-.1-.1.033-.225.083-.375.15a3.52 3.52 0 0 0-.475.3c-.3.183-.617.425-.95.725l-1.025.9-.275.225-.25.25c-.15.133-.325.2-.525.2-.217-.017-.392-.108-.525-.275-.15-.15-.217-.325-.2-.525.016-.217.1-.392.25-.525l.275-.25c.083-.083.166-.158.25-.225l1.575-1.325c.516-.417 1.025-.733 1.525-.95s.983-.258 1.45-.125c.283.067.483.183.6.35.133.15.208.283.225.4.15.367.116.758-.1 1.175-.217.4-.492.842-.825 1.325-.034.033-.075.092-.125.175a1.37 1.37 0 0 1-.125.2l.975-.375 1.45-.55c.216-.067.416-.05.6.05a.68.68 0 0 1 .375.425.64.64 0 0 1-.025.575c-.084.183-.217.317-.4.4l-1.45.5-1.1.4-.45.175-.325.1-.3.1c-.084.017-.167.025-.25.025zm9.26.75a.73.73 0 0 1-.5-.175.68.68 0 0 1-.225-.825c0-.017.058-.217.175-.6l.45-1.3.225-.725.175-.575-1.65.625-2.05.75-2.05.775a.7.7 0 0 1-.55-.025.86.86 0 0 1-.425-.45c-.067-.183-.05-.367.05-.55a.76.76 0 0 1 .425-.425l2.325-.825 2.225-.825 1.675-.65.65-.25a1.24 1.24 0 0 1 .25-.025.34.34 0 0 1 .225.025c.233.033.4.167.5.4.083.133.116.308.1.525 0 .2-.042.492-.125.875l-.2.725-.275.875-.05.175c-.017.05-.034.108-.05.175.666-.367 1.483-.75 2.45-1.15a.64.64 0 0 1 .55 0c.2.067.333.192.4.375.1.183.108.375.025.575s-.217.342-.4.425l-2.025.95-1.4.725-.525.275c-.1.083-.225.125-.375.125zm7.341-.75a.64.64 0 0 1-.2-.025c-.266-.067-.458-.167-.575-.3a2.19 2.19 0 0 1-.2-.35c-.116-.367-.075-.742.125-1.125.2-.4.459-.817.775-1.25a3.64 3.64 0 0 0 .275-.425l.25-.425a.71.71 0 0 0 .075-.1c-.1.033-.225.083-.375.15-.133.067-.291.167-.475.3-.3.183-.616.425-.95.725l-1.025.9-.275.225-.25.25c-.15.133-.325.2-.525.2-.216-.017-.391-.108-.525-.275a.64.64 0 0 1-.2-.525.75.75 0 0 1 .25-.525l.275-.25.25-.225 1.575-1.325c.517-.417 1.025-.733 1.525-.95s.984-.258 1.45-.125c.284.067.484.183.6.35.134.15.209.283.225.4.15.367.117.758-.1 1.175-.216.4-.491.842-.825 1.325-.033.033-.075.092-.125.175a1.29 1.29 0 0 1-.125.2l.975-.375 1.45-.55c.217-.067.417-.05.6.05.184.083.309.225.375.425.084.183.075.375-.025.575-.083.183-.216.317-.4.4l-1.45.5-1.1.4-.45.175-.325.1-.3.1a1.24 1.24 0 0 1-.25.025zm6.885 0a.64.64 0 0 1-.2-.025c-.267-.067-.458-.167-.575-.3-.1-.15-.167-.267-.2-.35-.117-.367-.075-.742.125-1.125.2-.4.458-.817.775-1.25a3.64 3.64 0 0 0 .275-.425l.25-.425a.71.71 0 0 0 .075-.1c-.1.033-.225.083-.375.15-.133.067-.292.167-.475.3-.3.183-.617.425-.95.725l-1.025.9-.275.225-.25.25c-.15.133-.325.2-.525.2-.217-.017-.392-.108-.525-.275-.15-.15-.217-.325-.2-.525a.75.75 0 0 1 .25-.525l.275-.25a3.17 3.17 0 0 1 .25-.225l1.575-1.325c.517-.417 1.025-.733 1.525-.95s.983-.258 1.45-.125c.283.067.483.183.6.35.133.15.208.283.225.4.15.367.117.758-.1 1.175-.217.4-.492.842-.825 1.325-.033.033-.075.092-.125.175a1.29 1.29 0 0 1-.125.2l.975-.375 1.45-.55c.217-.067.417-.05.6.05a.68.68 0 0 1 .375.425.64.64 0 0 1-.025.575.78.78 0 0 1-.4.4l-1.45.5-1.1.4-.45.175-.325.1-.3.1c-.083.017-.167.025-.25.025zm12.335.5a1.03 1.03 0 0 1-.325-.05c-.317-.067-.542-.258-.675-.575-.1-.283-.075-.6.075-.95a12.65 12.65 0 0 1 .65-1.175l.275-.45.25-.45.075-.125a.95.95 0 0 1 .05-.125c-.5-.083-1.083-.1-1.75-.05-.65.033-1.383.158-2.2.375-.717.183-1.492.425-2.325.725l-2.6 1.025c-.183.067-.367.067-.55 0s-.317-.192-.4-.375c-.1-.183-.108-.375-.025-.575.083-.217.217-.358.4-.425l2.675-1.075a22.12 22.12 0 0 1 2.45-.75c2.05-.517 3.725-.6 5.025-.25a1.13 1.13 0 0 1 .8.7c.15.367.117.775-.1 1.225s-.475.917-.775 1.4c-.017.033-.042.075-.075.125a1.6 1.6 0 0 0-.1.175c.383-.083.95-.25 1.7-.5l3.1-1.1c.183-.067.367-.05.55.05.2.083.333.225.4.425.083.183.083.375 0 .575-.083.183-.233.317-.45.4l-2.1.725-1.7.55-1.525.425c-.35.067-.617.1-.8.1zm9.272-.5c-.084 0-.15-.008-.2-.025-.267-.067-.459-.167-.575-.3-.1-.15-.167-.267-.2-.35-.117-.367-.075-.742.125-1.125.2-.4.458-.817.775-1.25a3.77 3.77 0 0 0 .275-.425l.25-.425c.016-.017.041-.05.075-.1-.1.033-.225.083-.375.15a3.52 3.52 0 0 0-.475.3c-.3.183-.617.425-.95.725l-1.025.9-.275.225-.25.25c-.15.133-.325.2-.525.2-.217-.017-.392-.108-.525-.275-.15-.15-.217-.325-.2-.525.016-.217.1-.392.25-.525l.275-.25c.083-.083.166-.158.25-.225l1.575-1.325c.516-.417 1.025-.733 1.525-.95s.983-.258 1.45-.125c.283.067.483.183.6.35.133.15.208.283.225.4.15.367.116.758-.1 1.175-.217.4-.492.842-.825 1.325-.034.033-.075.092-.125.175a1.37 1.37 0 0 1-.125.2l.975-.375 1.45-.55c.216-.067.416-.05.6.05a.68.68 0 0 1 .375.425.64.64 0 0 1-.025.575c-.084.183-.217.317-.4.4l-1.45.5-1.1.4-.45.175-.325.1-.3.1c-.084.017-.167.025-.25.025zm12.334.5c-.116 0-.225-.017-.325-.05-.316-.067-.541-.258-.675-.575-.1-.283-.075-.6.075-.95a12.89 12.89 0 0 1 .65-1.175l.275-.45.25-.45c.034-.05.059-.092.075-.125.017-.05.034-.092.05-.125-.5-.083-1.083-.1-1.75-.05-.65.033-1.383.158-2.2.375-.716.183-1.491.425-2.325.725l-2.6 1.025c-.183.067-.366.067-.55 0s-.316-.192-.4-.375c-.1-.183-.108-.375-.025-.575.084-.217.217-.358.4-.425l2.675-1.075c.867-.317 1.684-.567 2.45-.75 2.05-.517 3.725-.6 5.025-.25.384.1.65.333.8.7s.117.775-.1 1.225-.475.917-.775 1.4c-.016.033-.041.075-.075.125s-.066.108-.1.175c.384-.083.95-.25 1.7-.5l3.1-1.1a.64.64 0 0 1 .55.05.67.67 0 0 1 .4.425c.084.183.084.375 0 .575-.083.183-.233.317-.45.4l-2.1.725-1.7.55-1.525.425c-.35.067-.616.1-.8.1zm9.272-.5a.64.64 0 0 1-.2-.025c-.267-.067-.458-.167-.575-.3-.1-.15-.167-.267-.2-.35-.117-.367-.075-.742.125-1.125.2-.4.458-.817.775-1.25a3.64 3.64 0 0 0 .275-.425l.25-.425a.71.71 0 0 0 .075-.1c-.1.033-.225.083-.375.15-.133.067-.292.167-.475.3-.3.183-.617.425-.95.725l-1.025.9-.275.225-.25.25c-.15.133-.325.2-.525.2-.217-.017-.392-.108-.525-.275-.15-.15-.217-.325-.2-.525a.75.75 0 0 1 .25-.525l.275-.25a3.17 3.17 0 0 1 .25-.225l1.575-1.325c.517-.417 1.025-.733 1.525-.95s.983-.258 1.45-.125c.283.067.483.183.6.35.133.15.208.283.225.4.15.367.117.758-.1 1.175-.217.4-.492.842-.825 1.325-.033.033-.075.092-.125.175a1.29 1.29 0 0 1-.125.2l.975-.375 1.45-.55c.217-.067.417-.05.6.05a.68.68 0 0 1 .375.425.64.64 0 0 1-.025.575.78.78 0 0 1-.4.4l-1.45.5-1.1.4-.45.175-.325.1-.3.1c-.083.017-.167.025-.25.025zm17.718 2.175a1.28 1.28 0 0 1-.35-.05l-.35-.05c-.3-.083-.508-.258-.625-.525-.15-.333-.15-.733 0-1.2.167-.483.433-1.1.8-1.85l.2-.45.225-.475c-.217.083-.45.225-.7.425l-.725.575a.81.81 0 0 1-.55.15c-.217-.033-.392-.125-.525-.275a.72.72 0 0 1-.125-.55c.017-.2.1-.375.25-.525l.725-.55c.267-.2.533-.367.8-.5.683-.35 1.308-.442 1.875-.275.267.05.467.217.6.5.133.267.125.6-.025 1-.133.4-.367.942-.7 1.625l-.275.6-.25.575a.57.57 0 0 1-.075.175l-.05.15c.35-.05.858-.225 1.525-.525.683-.317 1.6-.933 2.75-1.85l1.675-1.4 1.2-1.15.45-.45c.2-.233.442-.308.725-.225.133.017.242.075.325.175.083.083.15.167.2.25.117.233.125.508.025.825-.083.3-.267.792-.55 1.475l-.3.65-.25.6-.05.175c0 .033-.008.067-.025.1.317-.05.65-.183 1-.4.367-.233.717-.492 1.05-.775l.875-.725c.167-.15.35-.217.55-.2s.375.1.525.25c.133.167.192.35.175.55 0 .2-.083.375-.25.525l-1.6 1.275c-.533.4-1.075.7-1.625.9-.533.183-1.075.208-1.625.075-.267-.117-.458-.283-.575-.5-.1-.233-.133-.492-.1-.775.05-.283.15-.633.3-1.05l-.575.475-.6.5c-2.3 1.817-4.092 2.725-5.375 2.725zm13.306 0c-.117 0-.234-.017-.35-.05l-.35-.05c-.3-.083-.509-.258-.625-.525-.15-.333-.15-.733 0-1.2.166-.483.433-1.1.8-1.85l.2-.45.225-.475c-.217.083-.45.225-.7.425l-.725.575a.81.81 0 0 1-.55.15c-.217-.033-.392-.125-.525-.275-.117-.167-.159-.35-.125-.55.016-.2.1-.375.25-.525l.725-.55a5.18 5.18 0 0 1 .8-.5c.683-.35 1.308-.442 1.875-.275.266.05.466.217.6.5.133.267.125.6-.025 1-.134.4-.367.942-.7 1.625l-.275.6-.25.575a.57.57 0 0 1-.075.175l-.05.15c.35-.05.858-.225 1.525-.525.683-.317 1.6-.933 2.75-1.85l1.675-1.4 1.2-1.15.45-.45c.2-.233.441-.308.725-.225a.49.49 0 0 1 .325.175c.083.083.15.167.2.25.116.233.125.508.025.825-.084.3-.267.792-.55 1.475l-.3.65-.25.6-.05.175a.23.23 0 0 1-.025.1c.316-.05.65-.183 1-.4.366-.233.716-.492 1.05-.775l.875-.725c.166-.15.35-.217.55-.2s.375.1.525.25a.76.76 0 0 1 .175.55c0 .2-.084.375-.25.525l-1.6 1.275c-.534.4-1.075.7-1.625.9-.534.183-1.075.208-1.625.075-.267-.117-.459-.283-.575-.5-.1-.233-.134-.492-.1-.775.05-.283.15-.633.3-1.05l-.575.475-.6.5c-2.3 1.817-4.092 2.725-5.375 2.725zm13.305 0c-.116 0-.233-.017-.35-.05l-.35-.05c-.3-.083-.508-.258-.625-.525-.15-.333-.15-.733 0-1.2.167-.483.434-1.1.8-1.85l.2-.45.225-.475c-.216.083-.45.225-.7.425l-.725.575a.81.81 0 0 1-.55.15c-.216-.033-.391-.125-.525-.275-.116-.167-.158-.35-.125-.55.017-.2.1-.375.25-.525l.725-.55c.267-.2.534-.367.8-.5.684-.35 1.309-.442 1.875-.275.267.05.467.217.6.5.134.267.125.6-.025 1-.133.4-.366.942-.7 1.625l-.275.6-.25.575c-.016.067-.041.125-.075.175l-.05.15c.35-.05.859-.225 1.525-.525.684-.317 1.6-.933 2.75-1.85l1.675-1.4 1.2-1.15.45-.45c.2-.233.442-.308.725-.225.134.017.242.075.325.175a1.29 1.29 0 0 1 .2.25c.117.233.125.508.025.825-.083.3-.266.792-.55 1.475l-.3.65-.25.6-.05.175c0 .033-.008.067-.025.1.317-.05.65-.183 1-.4.367-.233.717-.492 1.05-.775l.875-.725c.167-.15.35-.217.55-.2s.375.1.525.25a.75.75 0 0 1 .175.55c0 .2-.083.375-.25.525l-1.6 1.275c-.533.4-1.075.7-1.625.9-.533.183-1.075.208-1.625.075-.266-.117-.458-.283-.575-.5-.1-.233-.133-.492-.1-.775.05-.283.15-.633.3-1.05l-.575.475-.6.5c-2.3 1.817-4.091 2.725-5.375 2.725z"/></g><defs ><path id="B" d="M266.461 348.459l192.818.025s.388-.168.484-.724c.51-2.929.533-5.862.72-8.812.356-5.591.645-13.208.879-22.16l.845-64.155.095-62.873-.059-20.566-.025-5.748-.007-1.512c-.003-.471.018-.851-.184-1.335-.21-.505-.668-1.209-1.677-1.929-2.025-1.444-6.359-3.007-15.599-3.007h-.001l-387.879-.547c-7.041.168-11.63.229-12.925.696-1.168.54-1.629.688-2.437 1.429 0 0-.48.471-.48.753l-.136 2.103c-1.81 59.966-4.826 120.079-3.612 180.07.054 2.683.135 4.814.245 6.305.055.747.129 1.578.867 1.65l195.676 1.052c-.07 3.205-3.428 5.682-1.354 5.78h35.98c3.753.147-2.608-3.125-2.234-6.495z"/><path id="C" d="M249.885 344.116c-23.109-11.409-119.077 5.216-199.307-7.525l23.979-22.627 176.528-4.667-1.2 34.819z"/><path id="D" d="M251.155 344.405c58.135-12.046 119.58 4.442 199.515-8.392l-13.732-11.776-169.005-20.692-17.171 14.796.393 26.064z"/><path id="E" d="M437.192 323.915V150.49c-31.203 3.949-51.146 3.135-88.507 0l-.125-.017c-36.467-4.933-59.346-8.028-97.475 3.101v164.834c33.026-13.982 61.413 1.42 92.177 5.507 62.958 4.677 61.753.999 93.93 0z"/><path id="F" d="M64.979 323.929v-174.13c31.203 3.95 51.146 3.839 88.507.704l.125-.017c36.467-4.933 59.346-8.028 97.475 3.102l-.393 164.843c-33.441-13.547-61.02 1.41-91.784 5.498-62.404 4.663-61.753.999-93.93 0z"/><path id="G" d="M450.716 168.316c-6.562-2.647-9.461-6.815-13.708-17.419V323.69c4.201 7.366 8.07 7.105 14.285 11.491l-.577-166.865z"/><path id="H" d="M64 324.458c-3.445 3.868-6.729 6.465-14 11.542V166.145c6.554-1.412 9.575-6.953 14-10.145v168.458z"/><path id="I" d="M444.531 164.359l-.969 165.938"/><path id="J" d="M440.516 158.607l-.762 168.941"/><path id="K" d="M448.247 166.891l-1.915 165.485"/><path id="L" d="M54.456 159.349l.992 172.602"/><path id="M" d="M58.679 156.165l-.165 173.614"/><path id="N" d="M62.164 152.819l-.329 174.277"/><path id="O" d="M61.748 327.15c104.408 15.52 172.79-24.961 188.761-.398"/><path id="P" d="M439.662 327.754c-104.408 15.52-154.535-25.879-188.53-1.365"/><path id="Q" d="M442 330c-104.408 15.519-153.181-20.758-191.053-1.042"/><path id="R" d="M442.5 332.5c-66.374 15.501-169.836-14.485-191.576.184"/><path id="S" d="M451 333.117c-55.202 17.575-177.975-11.488-200 5.36"/><path id="T" d="M56 329.861c105.904 16.158 183.904-21.734 195 .13"/><path id="U" d="M50 333.659c80.481 16.693 186.756-12.701 200 4.827m-194.484-5.983c104.384 15.7 182.764-16.612 194.485.825"/></defs></svg>