<?xml version="1.0" encoding="UTF-8" standalone="no"?>
<svg
   width="500"
   height="500"
   fill="none"
   version="1.1"
   id="svg26548"
   sodipodi:docname="icono_zambomba2.svg"
   inkscape:version="1.1.2 (b8e25be833, 2022-02-05)"
   xmlns:inkscape="http://www.inkscape.org/namespaces/inkscape"
   xmlns:sodipodi="http://sodipodi.sourceforge.net/DTD/sodipodi-0.dtd"
   xmlns="http://www.w3.org/2000/svg"
   xmlns:svg="http://www.w3.org/2000/svg">
  <defs
     id="defs26552" />
  <sodipodi:namedview
     id="namedview26550"
     pagecolor="#ffffff"
     bordercolor="#666666"
     borderopacity="1.0"
     inkscape:pageshadow="2"
     inkscape:pageopacity="0.0"
     inkscape:pagecheckerboard="0"
     showgrid="false"
     showguides="false"
     inkscape:zoom="0.857"
     inkscape:cx="-54.259043"
     inkscape:cy="168.028"
     inkscape:window-width="1920"
     inkscape:window-height="1017"
     inkscape:window-x="-8"
     inkscape:window-y="-8"
     inkscape:window-maximized="1"
     inkscape:current-layer="svg26548" />
  <g
     id="g61793"
     transform="translate(5.4214338,-15.747453)">
    <g
       id="g59003">
      <path
         d="m 145.9,166.025 c 0,6.264 -5.236,11.547 -11.95,11.547 -6.714,0 -11.95,-5.283 -11.95,-11.547 0,-6.264 5.236,-11.546 11.95,-11.546 6.714,0 11.95,5.282 11.95,11.546 z"
         fill="#ffffff"
         id="path26528"
         style="stroke:#000000;stroke-width:10" />
      <path
         d="M 148,166.85 184.725,116 c 0,0 20.322,6.082 23.811,16.95 1.783,5.552 0,14.932 0,14.932"
         stroke-linecap="square"
         id="path26530"
         style="stroke:#000000;stroke-width:10" />
    </g>
    <g
       id="g58459">
      <path
         d="m 421.312,236.107 c 3.528,3.527 3.579,9.485 -0.245,13.309 -3.824,3.824 -9.783,3.774 -13.31,0.246 -3.527,-3.528 -3.579,-9.486 0.245,-13.31 3.824,-3.824 9.782,-3.773 13.31,-0.245 z"
         fill="#ffffff"
         id="path26532"
         style="stroke:#000000;stroke-width:10" />
      <path
         d="m 422.94,236.254 -8.594,-53.285 c 0,0 16.065,-8.664 24.801,-4.174 4.463,2.293 9.085,9.085 9.085,9.085"
         stroke-linecap="square"
         id="path26534"
         style="stroke:#000000;stroke-width:10" />
    </g>
    <g
       id="g59011">
      <path
         d="m 387.717,430.03 c 2.733,4.734 1.09,11.037 -4.017,13.985 -5.107,2.948 -11.387,1.221 -14.12,-3.514 -2.733,-4.735 -1.091,-11.036 4.017,-13.985 5.108,-2.949 11.386,-1.22 14.12,3.514 z m 50.59,-29.208 c 2.734,4.734 1.091,11.037 -4.017,13.985 -5.108,2.948 -11.386,1.221 -14.12,-3.514 -2.734,-4.735 -1.09,-11.036 4.017,-13.985 5.107,-2.949 11.387,-1.22 14.12,3.514 z"
         fill="#ffffff"
         id="path26536"
         style="stroke:#000000;stroke-width:10" />
      <path
         d="m 385.308,426.629 -30.989,-56.413 49.405,-28.524 32.859,56.915"
         id="path26538"
         style="stroke:#000000;stroke-width:10" />
    </g>
    <g
       id="g59007">
      <path
         d="m 46.738,336.648 c -0.506,1.888 -2.57,3.187 -4.791,2.592 -2.221,-0.595 -3.359,-2.752 -2.853,-4.64 0.506,-1.888 2.57,-3.188 4.791,-2.592 2.221,0.596 3.359,2.752 2.853,4.64 z m 32.668,8.754 c -0.506,1.888 -2.57,3.187 -4.791,2.592 -2.221,-0.595 -3.359,-2.752 -2.853,-4.64 0.506,-1.888 2.57,-3.188 4.791,-2.593 2.221,0.595 3.359,2.753 2.853,4.641 z"
         fill="#ffffff"
         id="path26540"
         style="stroke:#000000;stroke-width:10" />
      <path
         d="M 47,334 59.585,299.034 91.487,307.582 79.5,343.5"
         id="path26542"
         style="stroke:#000000;stroke-width:10" />
    </g>
    <g
       id="g58492"
       transform="translate(-542.0877,-84.159734)">
      <path
         style="fill:#fffffd;fill-opacity:1;stroke:none;stroke-width:9;stroke-linecap:butt;stroke-linejoin:miter;stroke-miterlimit:4;stroke-dasharray:none;stroke-opacity:1"
         d="m 679.99682,348.65089 c -9.6562,24.58973 -37.8567,104.43611 -29.2908,123.35176 27.2903,37.49034 112.9985,63.06289 157.5932,50.74337 17.2591,-5.58974 40.6555,-62.8934 53.5226,-139.33501 -18.8645,-47.81462 -106.9827,-59.09328 -146.8868,-56.64754 -16.7455,4.95962 -21.8883,-4.0229 -34.9382,21.88742 z"
         id="path26828-2"
         sodipodi:nodetypes="cccccc" />
      <path
         style="fill:none;stroke:#070000;stroke-width:9;stroke-linecap:butt;stroke-linejoin:miter;stroke-miterlimit:4;stroke-dasharray:none;stroke-opacity:1"
         d="m 679.99692,348.65089 c -9.65629,24.58973 -37.85673,104.43611 -29.29089,123.35176 27.29035,37.49034 112.99855,63.06289 157.59323,50.74337 17.25916,-5.58974 40.65544,-62.8934 53.52256,-139.33501 -18.86444,-47.81462 -106.98269,-59.09328 -146.88671,-56.64754 -16.74551,4.95962 -21.88831,-4.0229 -34.93819,21.88742 z"
         id="path26828"
         sodipodi:nodetypes="cccccc" />
      <path
         style="fill:#fffaff;fill-opacity:1;stroke:none;stroke-width:8.19045;stroke-linecap:butt;stroke-linejoin:miter;stroke-miterlimit:4;stroke-dasharray:none;stroke-opacity:0.762749"
         d="m 677.4738,327.12365 c -7.02352,6.54804 -22.13765,17.52685 -21.23641,29.27275 0.6267,8.16783 7.05846,11.53837 14.81953,14.02757 5.79957,1.86008 18.98243,-6.27763 18.98243,-6.27763 0,0 -1.51785,18.98458 3.58292,24.94939 5.32197,6.22346 14.85385,10.78382 22.49309,7.89287 4.92304,-1.86303 11.23074,-11.89823 11.23074,-11.89823 0,0 1.15685,18.94833 6.67166,25.18523 5.5148,6.23689 17.78375,6.37789 24.35537,4.47746 6.57161,-1.90044 13.05762,-15.59488 13.05762,-15.59488 0,0 4.66018,18.02287 11.36692,22.17764 4.56428,2.82753 9.72479,3.12538 13.34472,0 6.43552,-5.55635 10.83311,-13.33474 10.83311,-13.33474 0,0 3.97127,16.74791 11.91599,19.96318 7.94473,3.21527 13.3661,2.55679 19.12981,-0.60212 7.06792,-3.8737 7.94057,-22.2259 7.94057,-22.2259 0,0 13.26228,17.99115 23.64305,19.02848 10.38077,1.03732 17.26208,-10.10373 18.72412,-16.80832 3.68045,-16.87775 -19.42494,-42.05746 -19.42494,-42.05746 -1.68797,8.27138 -34.2509,20.83138 -48.73462,19.78546 -33.01573,-2.3842 -50.11621,-5.83347 -71.15425,-12.91741 -27.98282,-9.42238 -61.82544,-34.81657 -61.42679,-52.92742 0,0 -0.46173,-1.61759 -10.11464,7.88408 z"
         id="path28275-9"
         sodipodi:nodetypes="csscssczzcssczsccsssscc" />
      <path
         style="fill:none;stroke:#070000;stroke-width:8.19045;stroke-linecap:butt;stroke-linejoin:miter;stroke-miterlimit:4;stroke-dasharray:none;stroke-opacity:1"
         d="m 677.4738,327.12365 c -7.02352,6.54804 -22.13765,17.52685 -21.23641,29.27275 0.6267,8.16783 7.05846,11.53837 14.81953,14.02757 5.79957,1.86008 18.98243,-6.27763 18.98243,-6.27763 0,0 -1.51785,18.98458 3.58292,24.94939 5.32197,6.22346 14.85385,10.78382 22.49309,7.89287 4.92304,-1.86303 10.3556,-8.98107 10.3556,-8.98107 0,0 0.2817,16.76046 5.7965,22.99736 5.51481,6.23689 17.78376,6.37788 24.35538,4.47746 6.57161,-1.90044 14.80791,-16.32417 14.80791,-16.32417 0,0 4.66018,18.02287 11.36692,22.17764 4.56428,2.82753 9.72479,3.12538 13.34472,0 6.43552,-5.55635 10.83311,-13.33474 10.83311,-13.33474 0,0 3.97127,16.74791 11.91599,19.96318 7.94473,3.21527 13.3661,2.55679 19.12981,-0.60212 7.06792,-3.8737 7.94057,-22.2259 7.94057,-22.2259 0,0 13.26228,17.99115 23.64305,19.02848 10.38077,1.03732 17.26208,-10.10373 18.72412,-16.80832 3.68045,-16.87775 -19.42494,-42.05746 -19.42494,-42.05746 -1.68797,8.27138 -33.95918,18.78938 -48.44291,17.74345 -33.01573,-2.3842 -50.40792,-3.79146 -71.44596,-10.8754 -27.98282,-9.42238 -61.82544,-34.81657 -61.42679,-52.92742 0,0 -0.46173,-1.61759 -10.11464,7.88408 z"
         id="path28275"
         sodipodi:nodetypes="csscssczzcssczsccsssscc" />
      <ellipse
         style="fill:#ffffff;fill-opacity:1;stroke:none;stroke-width:7.87882;stroke-linecap:round;stroke-linejoin:round;stroke-miterlimit:4;stroke-dasharray:none;stroke-opacity:0.762749;paint-order:markers stroke fill"
         id="path36395-5"
         cx="850.06744"
         cy="139.77171"
         rx="92.111374"
         ry="35.105301"
         transform="matrix(0.96868076,0.24830944,-0.32927089,0.9442355,0,0)" />
      <ellipse
         style="fill:none;fill-opacity:1;stroke:#070000;stroke-width:7.87882;stroke-linecap:round;stroke-linejoin:round;stroke-miterlimit:4;stroke-dasharray:none;stroke-opacity:0.986696;paint-order:markers stroke fill"
         id="path36395"
         cx="849.93427"
         cy="139.37524"
         rx="92.111374"
         ry="35.105301"
         transform="matrix(0.96868076,0.24830944,-0.32927089,0.9442355,0,0)" />
      <g
         id="rect41330"
         transform="matrix(0.95516738,0.36253663,-0.30715052,0.97911993,524.39302,93.020687)"
         style="stroke:#070000;stroke-width:4.10548;stroke-miterlimit:4;stroke-dasharray:none;stroke-opacity:0.762749">
        <path
           style="color:#000000;fill:#000000;stroke:none;stroke-width:4.10548;stroke-linecap:round;stroke-linejoin:round;stroke-miterlimit:4;stroke-dasharray:none;stroke-opacity:1;paint-order:markers stroke fill"
           d="m 307.10201,-39.8313 c -2.27709,1.043493 -2.57676,2.205541 -3.06292,4.754808 -0.53835,2.479788 -0.63675,6.114207 -0.63675,9.525711 V 127.84375 c 0,3.41151 0.28001,6.4831 0.81836,8.96289 0.26918,1.23989 0.57201,2.31933 1.13477,3.41211 0.28138,0.54639 0.62036,1.11739 1.26367,1.7207 0.64332,0.60331 1.78418,1.28125 3.1543,1.28125 h 6.19336 c 1.37012,0 2.51098,-0.67794 3.15429,-1.28125 0.64332,-0.60331 0.9823,-1.17431 1.26368,-1.7207 0.56275,-1.09278 0.86559,-2.17222 1.13476,-3.41211 0.53835,-2.47979 0.81836,-5.55139 0.81836,-8.96289 V -25.550781 c 0,-3.411502 -0.16462,-5.786522 -0.43809,-8.785732 -0.0994,-2.366507 -1.01249,-6.980186 -2.56539,-5.518786 -3.64587,6.657575 -11.42506,3.826588 -12.2324,0.024 z"
           id="path42250"
           sodipodi:nodetypes="ccsssssssssssscccc" />
        <path
           style="color:#000000;fill:#ffffff;stroke:none;stroke-width:4.59423;stroke-linecap:round;stroke-linejoin:round;stroke-miterlimit:4;stroke-dasharray:none;stroke-opacity:1;paint-order:markers stroke fill"
           d="m 307.46535,-35.364946 c 0.51932,0.5746 6.83355,3.604696 10.78826,-0.608421 0,0 -0.16196,6.970351 -0.45674,12.881522 l -0.0368,147.404765 c -0.002,6.37171 -0.40986,15.03265 -1.7931,15.03265 h -6.19336 c -1.38324,0 -1.3797,-5.11214 -1.41086,-11.48186 -0.24247,-49.558458 0.0694,-70.260705 -1.79147,-122.0511305 -0.0629,-3.919601 -0.0401,-37.1076885 0.54149,-39.7807615 z"
           id="path42252"
           sodipodi:nodetypes="cscssssccc" />
        <path
           style="fill:none;stroke:#000000;stroke-width:1.95499;stroke-linecap:butt;stroke-linejoin:miter;stroke-miterlimit:4;stroke-dasharray:none;stroke-opacity:1"
           d="m 306.18399,-38.140468 c 4.60898,-3.439915 13.29702,-2.948062 13.67744,-0.631274"
           id="path44590"
           sodipodi:nodetypes="cc" />
      </g>
      <path
         style="fill:#010101;fill-opacity:1;stroke:#000000;stroke-width:2;stroke-linecap:butt;stroke-linejoin:miter;stroke-miterlimit:4;stroke-dasharray:none;stroke-opacity:1"
         d="m 818.4367,193.44476 c -0.0162,0.0487 19.26205,0.10388 27.0925,-4.30258 8.46892,-4.76575 23.36429,-4.29753 26.52795,-1.95389 7.84036,5.80814 4.49251,21.77451 5.80181,30.63524 0.72212,4.88699 1.57813,8.9864 8.90159,9.71834 4.58704,0.45846 8.65693,-4.4773 10.38634,-7.66803 3.51304,-6.48153 3.24567,-10.67115 9.63974,-12.60582 5.73234,-1.73443 12.45662,2.94674 12.91241,8.11988 0.85333,9.68504 -11.03965,21.44149 -12.08165,36.78387 -0.48821,7.18827 0.52077,20.25889 6.29898,24.56261 4.88439,3.63801 20.4439,-4.7928 20.4439,-4.7928 -0.57154,3.09422 -13.03369,37.26893 -13.03369,37.26893 -11.46609,-5.95201 -23.02889,-11.95109 -28.08094,-21.80866 -4.42655,-8.6371 -2.907,-18.10714 0.50272,-27.19381 2.01121,-5.35969 7.02457,-14.29377 2.69792,-17.12064 -6.02881,-3.93899 -10.59187,11.52454 -17.69802,10.35621 -9.40507,-1.5463 -14.47188,-11.63437 -18.41246,-20.099 -5.62141,-12.07527 1.18912,-24.83914 -5.90156,-31.55198 -7.64048,-7.23335 -40.34462,5.87804 -39.7973,4.08693 z"
         id="path47788"
         sodipodi:nodetypes="cssssssssssssssssssc" />
      <path
         style="fill:#010001;fill-opacity:1;stroke:#000000;stroke-width:2;stroke-linecap:butt;stroke-linejoin:miter;stroke-miterlimit:4;stroke-dasharray:none;stroke-opacity:1"
         d="m 818.4367,193.44476 c 0,0 6.47106,2.78072 11.44103,5.48567 9.56183,5.2042 24.62584,16.98324 19.16035,25.35161 -5.16289,11.75082 0.63628,28.67195 2.45402,29.37022 8.09241,9.80793 15.57563,10.07433 19.00178,13.4349 4.423,4.03787 3.8412,12.21046 -0.3704,15.24877 -7.885,5.68822 -4.26864,-0.57822 -17.9841,6.37594 -6.42602,3.25821 9.26282,4.21156 13.47184,7.25267 4.93661,3.56682 14.57752,15.11351 14.57752,15.11351 -2.951,1.09199 -38.69016,7.86889 -38.69016,7.86889 -0.75226,-12.89699 -32.86717,-15.17489 -26.98217,-24.55899 5.15638,-8.22228 14.07058,-11.76172 23.62244,-13.48098 5.63408,-1.01408 22.88859,3.26063 16.09056,-6.44118 -22.21045,-15.18213 -18.34898,-31.46059 -14.83873,-50.27594 2.30596,-10.26552 -25.57557,-15.48944 -24.63802,-18.58423 z"
         id="path47788-6"
         sodipodi:nodetypes="cscccsssssssccsc" />
      <rect
         style="fill:none;fill-opacity:1;stroke:#010100;stroke-width:4.6;stroke-linecap:square;stroke-linejoin:miter;stroke-miterlimit:4;stroke-dasharray:none;stroke-opacity:1;paint-order:markers stroke fill"
         id="rect55479"
         width="15.409319"
         height="25.562025"
         x="838.52704"
         y="-71.843071"
         rx="0"
         ry="0"
         transform="rotate(17.816908)" />
      <rect
         style="fill:#ffffff;fill-opacity:1;stroke:none;stroke-width:1.74402;stroke-linecap:square;stroke-linejoin:miter;stroke-miterlimit:4;stroke-dasharray:none;stroke-opacity:1;paint-order:markers stroke fill"
         id="rect55479-2"
         width="14.478742"
         height="24.918383"
         x="840.30444"
         y="-63.990307"
         rx="0"
         ry="0"
         transform="matrix(0.95486533,0.29703906,-0.27996784,0.96000938,0,0)" />
    </g>
  </g>
  <rect
     style="fill:none;fill-opacity:1;stroke:#010100;stroke-width:2;stroke-linecap:square;stroke-linejoin:miter;stroke-miterlimit:4;stroke-dasharray:none;stroke-opacity:1;paint-order:markers stroke fill"
     id="rect56223"
     width="0"
     height="0"
     x="814.32324"
     y="209.37865" />
</svg>
