<svg xmlns="http://www.w3.org/2000/svg" width="500" height="500" fill="none" xmlns:v="https://vecta.io/nano"><style><![CDATA[.B{stroke:#000}.C{fill:#fff}.D{stroke-width:2}.E{fill:#000}.F{stroke-width:10}]]></style><g clip-path="url(#A)"><g class="B C D"><path d="M408.557 314.274c-7.606 32.847-24.741 53.935-45.033 65.645-20.314 11.723-43.863 14.088-64.342 9.345s-41.266-17.379-55.023-37.002c-13.741-19.599-20.512-46.222-12.909-79.05 7.609-32.857 27.042-60.798 49.714-79.328 22.706-18.559 48.479-27.54 68.756-22.844 20.268 4.693 38.804 23.926 50.378 50.419 11.557 26.453 16.072 59.945 8.459 92.815z"/><path d="M296.702 183.396c-25.038 15.363-34.356 24.885-43.394 43.327 63.2 5.659 97.678 14.087 158.161 35.088-3.67-22.535-7.571-34.971-20.268-56.53-35.782-13.404-56.344-18.724-94.499-21.885z"/><path d="M410.933 260.562c-61.209-21.591-96.322-30.085-158.872-34.821 8.328-12.383 18.258-23.157 28.903-31.857 22.706-18.559 48.479-27.54 68.756-22.844 20.268 4.693 38.804 23.926 50.378 50.419 5.177 11.851 8.942 25.115 10.835 39.103zm-182.781 35.355c65.487 24.227 103.69 32.913 173.346 40.063-8.978 20.748-22.566 35.047-37.974 43.939-20.314 11.723-43.863 14.088-64.342 9.345s-41.266-17.379-55.023-37.002c-10.42-14.862-16.831-33.763-16.007-56.345z"/><path d="M251.854 226.575l-.838 1.374 1.603.143c63.126 5.653 97.374 12.491 157.774 33.464l.703.244c2.144 16.873 1.563 34.763-2.538 52.473-7.607 32.847-24.741 53.935-45.034 65.645-20.314 11.723-43.863 14.088-64.342 9.345s-41.266-17.379-55.023-37.002c-13.741-19.599-20.511-46.222-12.909-79.05 4.506-19.456 13.158-37.189 24.173-52.265a184.98 184.98 0 0 0-3.569 5.629zm97.866-55.536c15.507 3.591 30 15.692 41.137 33.045-35.248-13.173-55.85-18.482-93.501-21.638 18.115-10.586 36.849-15.001 52.364-11.407z"/><path d="M228.32 292.657c.413-6.215 1.368-12.699 2.93-19.446 7.61-32.857 27.042-60.798 49.714-79.328 22.707-18.559 48.479-27.54 68.756-22.844 20.268 4.693 38.804 23.926 50.378 50.419 11.557 26.453 16.072 59.945 8.46 92.815-1.567 6.767-3.539 13.034-5.858 18.823l-.664-.07c-68.026-7.131-106.651-15.839-172.684-39.992l-1.032-.377zm39.347 82.695c25.559.084 41.965 3.678 65.008 15.236-11.404 1.684-22.862 1.137-33.493-1.325-10.778-2.496-21.639-7.177-31.515-13.911z"/></g><path d="M251.303 227.69c62.814 4.718 97.792 13.169 159.229 34.851 1.344 14.876 1.407 26.232-.082 37.118-1.484 10.841-4.514 21.259-9.407 34.264-69.065-7.119-107.067-15.788-172.168-39.871 1.216-13.015 3.043-23.22 6.428-33.323 3.406-10.162 8.404-20.261 16-33.039z" class="B D E"/><path d="M229.008 293.974c-.55 33.669 2.685 52.338 36.815 80.378 27.102-.084 43.977 3.521 68.195 15.793 32.646-5.783 54.51-24.842 67.913-56.124-68.106-7.14-106.811-15.867-172.923-40.047z" class="B C D"/><g class="E B D"><path d="M298.641 389.135c-11.057-2.666-22.146-7.799-32.105-15.272.797-.187 1.796-.331 2.995-.419 2.175-.159 4.895-.126 8.039.101 6.286.455 14.19 1.682 22.675 3.647 9.454 2.19 17.855 4.885 23.894 7.495 3.025 1.307 5.42 2.577 7.053 3.732.817.578 1.41 1.104 1.793 1.563l.117.146c-10.309 1.817-20.631 1.701-30.327-.109l-4.134-.884zm48.85-198.083c-20.35-4.712-39.283-6.854-53.361-6.476 19.177-12.087 39.304-17.308 55.791-13.49 15.944 3.692 30.821 16.378 42.088 34.554-11.899-5.437-27.35-10.612-44.518-14.588z"/></g><g class="F B"><path d="M404.661 313.372c-7.378 31.856-23.881 51.971-43.137 63.083-19.36 11.172-41.86 13.447-61.44 8.912-19.599-4.539-39.503-16.649-52.65-35.401-13.063-18.632-19.644-44.084-12.287-75.851 7.39-31.909 26.29-59.106 48.348-77.134 22.232-18.17 46.753-26.345 65.322-22.045 18.525 4.29 36.293 22.206 47.616 48.124 11.235 25.718 15.633 58.334 8.228 90.312z"/><g class="C"><use href="#B"/><use href="#B"/></g></g><g class="E"><path d="M128.32 220.123c20.1 16.096 12.05 33.493-15.462 39.705-12.224 6.118-25.97 6.94-32.137-5.383s-7.338-32.363 4.886-38.481 32.886-3.71 42.713 4.159z"/><use href="#C"/><use href="#D"/><path d="M202.478 340.068c4.38 16.988 2.142 33.22-9.822 39.208s-38.425-.297-44.334-12.106c-17.765-17.846 9.83-31.656 21.793-37.643s20.523-17.826 32.363 10.541zm55.332-37.697c5.061 21.879-1.126 16.838-9.969 21.263s-15.321 11.745-19.047 4.301-5.137-32.884 3.706-37.31 26.763 2.881 25.31 11.746zm-3.72-74.639c7.819 13.386 8.423 17.268-3.392 24.142-19.268 1.506-21.287 9.353-29.106-4.033s-3.577-21.458 4.696-31.992c11.815-6.874 19.984-1.504 27.802 11.883z"/><path d="M261.992 241.302c31.607 63.159.599 114.473-39.433 134.507S120.298 391.188 88.691 328.03s-11.306-142.284 28.726-162.318 112.968 12.432 144.575 75.59z"/></g><use href="#B" class="B C F"/><g class="E"><path d="M131.357 220.308c20.1 16.096 12.05 33.493-15.462 39.705-12.224 6.117-25.971 6.939-32.137-5.383s-7.338-32.364 4.886-38.481 32.887-3.711 42.714 4.159z"/><use href="#C"/><use href="#D"/><path d="M202.479 340.068c4.38 16.988 2.142 33.22-9.822 39.208s-38.425-.297-44.334-12.106c-17.765-17.846 9.829-31.656 21.793-37.643s20.523-17.826 32.363 10.541zM189.441 178.7c10.701 21.382 11.13 34.006-11.433 32.458-27.183-13.133-32.986 3.507-39.858-10.224-3.195-19.325-.88-30.045 11.344-36.163s34.038 2.12 39.947 13.929zm46.753 125.19c5.061 21.879-1.126 16.838-9.969 21.264s-15.321 11.745-19.047 4.3-5.137-32.884 3.706-37.309 26.763 2.881 25.31 11.745zm36.394 9.563c-2.155 9.166-5.671 17.651-10.211 25.332-4.099-.029-4.608-1.914-5.363-4.712-.331-1.228-.71-2.631-1.461-4.131-.837-1.673-1.818-3.231-2.726-4.671-2.708-4.3-4.762-7.56-.383-9.752 3.694-1.848 12.971-3.086 20.144-2.066zM88.375 196.802a87.33 87.33 0 0 1 15.074-20.393c4.172.956 4.165 2.801 4.153 5.595-.005 1.177-.011 2.524.296 4.043.341 1.695.841 3.319 1.304 4.822 1.381 4.486 2.428 7.888-2.069 8.825-3.805.793-12.53-.281-18.758-2.892zm164.469 31.658c7.819 13.387 8.422 17.269-3.392 24.143-19.268 1.505-21.287 9.353-29.106-4.033s-3.577-21.459 4.696-31.993c11.815-6.874 19.984-1.503 27.802 11.883z"/></g><g class="B C D"><path d="M339.118 280.576c.568 33.259-10.822 57.54-27.488 73.599-16.685 16.076-38.716 23.969-59.503 24.324-20.792.355-43.761-6.772-61.662-22.267-17.879-15.476-30.753-39.341-31.32-72.581-.569-33.27 11.386-64.662 28.703-87.819 17.344-23.192 39.923-37.949 60.504-38.301 20.571-.351 42.965 13.627 60.417 36.221 17.426 22.56 29.781 53.54 30.349 86.824z"/><path d="M251.453 364.59l-.419-.172-.406.201-19.851 9.84-2.453 1.216 2.659.652.853.206c-14.615-3.066-29.17-9.74-41.371-20.301-17.879-15.476-30.753-39.341-31.32-72.581-.569-33.27 11.386-64.662 28.703-87.819 17.344-23.192 39.923-37.949 60.504-38.301 20.571-.351 42.965 13.627 60.417 36.221 17.426 22.56 29.781 53.54 30.349 86.824.568 33.259-10.822 57.54-27.488 73.599-10.701 10.31-23.6 17.254-36.961 21.003l1.326-.476-2.399-.989-22.143-9.123z"/><path d="M190.465 356.232a86.37 86.37 0 0 1-7.319-7.132l18.409-6.652 23.833 12.876.485.262.481-.271 24.244-13.632 20.223 12.828.505.32.521-.293 24.33-13.679 19.193 8.463.612.27.371-.355-4.723 4.938c-16.685 16.076-38.716 23.969-59.503 24.324-20.792.355-43.761-6.772-61.662-22.267zm120.727-41.11l-25.216 15.623-19.181-11.357-.592-.35-.539.427-16.222 12.85-19.621-12.282-.565-.354-.544.386-18.245 12.946-23.185-13.764-.668-.397-.549.549-13.767 13.737-.425.423c-7.62-13.405-12.388-29.97-12.728-49.908-.569-33.27 11.386-64.662 28.703-87.819 17.344-23.192 39.923-37.949 60.504-38.301 20.571-.351 42.965 13.627 60.417 36.221 17.426 22.56 29.781 53.54 30.349 86.824.339 19.81-3.565 36.435-10.3 50.034l-.153-.144-16.263-15.224-.559-.524-.651.404z"/><path d="M190.465 356.232c-12.013-10.398-21.765-24.583-27.045-42.853l.791-.565 21.649-15.465 23.213 16.678.673.483.601-.572 18.056-17.21 20.112 16.584.723.596.642-.684 16.041-17.087 19.069 16.535.6.52.643-.466 24.169-17.541 25.197 14.733.507.296c-4.39 18.55-13.232 33.127-24.476 43.961-16.685 16.076-38.716 23.969-59.503 24.324-20.792.355-43.761-6.772-61.662-22.267zm118.812-93.068l-24.179 16.063-19.169-12.312-.601-.386-.561.443-16.228 12.856-20.124-12.285-.562-.343-.538.381-18.272 12.966-23.174-12.308-.46-.244-.465.237-25.819 13.218c-.018-32.451 11.788-62.972 28.723-85.618 17.344-23.192 39.923-37.949 60.504-38.301 20.571-.351 42.965 13.627 60.417 36.221 16.989 21.994 29.158 51.993 30.285 84.327l-28.762-14.969-.523-.273-.492.327z"/><path d="M159.145 283.651c-.133-7.745.414-15.388 1.548-22.85l1.542-.916 23.691-14.079 22.254 16.224.674.492.604-.575 17.558-16.697 19.103 16.088.704.593.649-.653 16.574-16.659 20.087 16.086.576.461.61-.414 25.175-17.082 26.738 16.204.017.011c1.105 6.756 1.749 13.673 1.869 20.691.568 33.259-10.822 57.54-27.488 73.599-16.685 16.076-38.716 23.969-59.503 24.324-20.792.355-43.761-6.772-61.662-22.267-17.879-15.476-30.753-39.341-31.32-72.581zm149.624-89.899c7.454 9.649 13.979 20.839 19.052 33.091l-24.366-12.625-.5-.259-.481.294-22.172 13.528-16.181-12.785-.624-.492-.621.496-16.697 13.342-15.578-10.323-.565-.374-.557.385-15.752 10.895-15.622-10.351-.442-.293-.491.202-27.809 11.477-.339.14-.168.326-.237.462c4.944-12.932 11.561-24.801 19.229-35.056 17.344-23.192 39.923-37.949 60.504-38.301 20.571-.351 42.965 13.627 60.417 36.221z"/><path d="M159.145 283.651c-.45-26.301 6.927-51.428 18.592-72.241l1.275 1.128 18.086-13.321 14.647 14.154.675.653.694-.633 16.117-14.718 18.087 14.16.71.556.626-.648 14.098-14.588 17.04 14.108.657.544.641-.563 15.733-13.818 21.597 11.787 1.845 1.008c11.146 19.978 18.42 43.999 18.853 69.357.568 33.259-10.822 57.54-27.488 73.599-16.685 16.076-38.716 23.969-59.503 24.324-20.792.355-43.761-6.772-61.662-22.267-17.879-15.476-30.753-39.341-31.32-72.581zm89.207-126.12c15.989-.273 33.079 8.111 48.094 22.468l-.578.378-12.824 8.383-20.18-12.319-.614-.375-.551.464-15.211 12.797-19.099-12.267-.568-.365-.551.391-18.314 12.995-11.221-4.913c15.78-16.965 34.398-27.343 51.617-27.637z"/></g><path d="M245.766 170.466l.496.245.472-.291 15.835-9.772 1.329-.819c15.834 4.818 31.749 16.935 44.871 33.923 17.426 22.56 29.781 53.54 30.349 86.824.568 33.259-10.822 57.54-27.488 73.599-16.685 16.076-38.716 23.969-59.503 24.324-20.792.355-43.761-6.772-61.662-22.267-17.879-15.476-30.753-39.341-31.32-72.581-.569-33.27 11.386-64.662 28.703-87.819 11.888-15.896 26.235-27.829 40.712-33.878l1.571.777 15.635 7.735z" class="B D E"/><g class="C B D"><path d="M163.654 311.788l.414 1.332 1.129-.819 20.593-14.948 23.144 16.675.674.486.601-.574 18.003-17.207 20.054 16.582.724.599.643-.687 15.993-17.083 19.015 16.533.6.522.644-.468 24.088-17.531 24.121 14.733 1.172.716.322-1.335c2.681-11.137 2.995-18.178 3.51-29.73l.001-.024.028-.626-.552-.298-28.687-15.512-.529-.287-.501.334-24.109 16.06-19.114-12.311-.602-.388-.562.446-16.18 12.852-20.066-12.283-.564-.345-.538.383-18.219 12.963-23.107-12.307-.462-.246-.465.239-25.21 12.94-.542.279-.001.609c-.016 11.544.933 18.11 4.537 29.726zM245.8 170.482l.478.214.448-.271 15.344-9.263 1.956-1.181-2.195-.635c-6.174-1.788-11.087-2.691-16.045-2.418s-9.891 1.72-16.111 4.503l-2.039.912 2.038.914 16.126 7.225zm5.653 194.108l-.419-.173-.406.202-19.851 9.84-2.453 1.216 2.659.651c15.003 3.675 27.222 4.769 42.57-.747l2.442-.878-2.399-.988-22.143-9.123zm-68.432-16.079l.45.471.613-.221 17.471-6.312 23.833 12.875.485.262.481-.27 24.244-13.632 20.223 12.827.505.321.521-.293 24.334-13.683 18.837 8.134.609.262.479-.458c6.634-6.346 9.125-10.292 12.426-17.518l.299-.654-.525-.491-15.904-14.889-.559-.523-.651.403-25.216 15.623-19.181-11.357-.592-.35-.539.427-16.222 12.85-19.621-12.282-.565-.354-.544.386-18.245 12.947-23.185-13.765-.684-.406-.55.575-12.774 13.378-.423.444.203.579c2.276 6.46 5.029 9.53 9.967 14.694zm-21.302-89.957l-.118 1.901 1.632-.982 22.696-13.665 22.251 16.223.673.491.605-.575 17.558-16.697 19.103 16.088.704.593.649-.652 16.574-16.66 20.087 16.086.575.461.611-.414 25.162-17.073 24.724 15.718 1.928 1.226-.407-2.248c-2.336-12.898-4.068-19.971-9.617-31.109l-.141-.283-.277-.15-23.219-12.605-.506-.275-.492.3-22.172 13.528-16.181-12.785-.624-.492-.621.496-16.697 13.342-15.578-10.323-.565-.374-.557.385-15.753 10.896-15.621-10.352-.443-.293-.491.203-26.814 11.066-.34.14-.168.327c-2.965 5.753-4.838 10.212-6.049 14.587s-1.749 8.629-2.081 13.95zm35.804-73.041l-.657-.288-.484.531c-6.326 6.948-12.165 14.92-17.253 23.68l1.438 1.321 16.517-11.554 14.661 14.169.676.653.693-.634 16.117-14.718 18.087 14.161.71.555.626-.648 14.098-14.588 17.04 14.109.657.543.641-.562 15.721-13.809 21.097 12.091 2.992 1.714-1.611-3.049c-6.508-12.321-11.002-18.857-22.736-28.428l-.567-.463-.612.401-12.33 8.06-20.18-12.318-.614-.375-.55.463-15.212 12.797-19.099-12.267-.568-.365-.551.391-18.314 12.995-10.433-4.568z"/></g><g class="E B D"><path d="M197.695 198.402l-20.749 14.857-7.691 18.134 28.807-11.494 15.186 10.742 16.81-11.289 17.685 10.7 14.759-14.254 17.736 13.699 22.258-14.382 25.735 13.562-8.306-17.861-23.244-14.105-16.75 14.789-17.745-14.199-14.75 14.754-17.745-14.199-16.75 14.788-15.246-14.242zm-12.921 46.228l-23.513 14.904-2.126 23.54 26.049-14.447 23.755 13.596 19.023-13.189 20.028 12.522 16.759-13.15 20.028 12.521 25.188-16.801 29.144 15.873-2.382-21.008-27.131-16.493-25.179 17.386-20.098-16.613-16.689 17.242-20.098-16.613-18.953 17.28-23.805-16.55zm1.301 51.985l-22.954 14.895c2.179 9.464 3.94 12.568 8.874 21.851l14.49-12.749 23.697 13.597 18.976-13.187 19.979 12.522 16.717-13.149 19.98 12.522 25.125-16.801 16.439 14.591c4.259-7.702 7.658-13.499 8.215-21.144l-25.023-15.075-25.116 17.386-20.049-16.614-16.647 17.241-20.05-16.614-18.905 17.279-23.748-16.551zM246.449 166l-16.375-4.156c-4.507-.423-24.782 12.925-34.085 24.585l11.843 4.883 18.809-13.184 19.808 12.525 16.571-13.147 19.808 12.525 14.587-8.835c.704-.917-25.663-22.448-35.371-21.399L246.449 166z"/></g><path d="M335.119 280.645c.551 32.239-10.461 55.422-26.265 70.649-15.892 15.313-36.928 22.866-56.796 23.205-19.888.34-41.878-6.492-58.975-21.292-16.987-14.703-29.39-37.477-29.939-69.625-.552-32.294 11.065-62.833 27.907-85.354 16.976-22.7 38.537-36.376 57.369-36.698 18.787-.32 40.116 12.571 57.184 34.667 16.935 21.925 28.962 52.082 29.515 84.448z" class="B F"/><use href="#E" class="C"/><g class="F"><use href="#E" stroke="#fff"/><use href="#E" class="B"/></g><path d="M123.316 452.884l-58.59-185.306h20.438 79.028 77.665 84.478H404h29.976l-50.414 185.306h-72.215-128.079-59.952z" class="C"/><g class="F"><use href="#F" stroke="#fff"/><g class="B"><use href="#F"/></g></g><path d="M83.802 287.931c27.147 5.556 42.332 4.707 69.49 0M93.34 319.269c24.962 8.066 37.961 7.644 59.952 0m-53.139 27.251c19.378 5.105 30.766 6.011 53.139 0m-43.602 27.251c16.871 7.164 27.599 8.049 50.415 0m-39.514 25.888c16.857 6.822 25.625 7.375 39.514 0m-34.064 27.251c17.375 7.355 26.474 8.049 40.876 0m10.901-138.979c22.326 7.181 33.786 6.31 53.139 0m-53.139 31.338c23.728 7.566 35.316 7.853 53.139 0m-44.964 27.251c16.141 3.67 25.851 4.315 44.964 0m-44.964 27.251c16.141 4.258 25.851 4.964 44.964 0m-38.151 25.888c19.905 7.869 27.308 6.456 38.151 0m-38.151 27.251c16.431 7.757 24.685 7.599 38.151 0m29.976-138.979c25.602 7.326 36.519 6.284 53.139 0m-53.139 31.338c17.677 7.818 29.535 7.809 53.139 0m-53.139 27.251c16.576 5.027 26.788 5.767 46.326 0m-46.326 27.251c16.576 7.143 26.788 7.839 46.326 0m-46.326 25.888c15.984 7.501 24.934 7.523 40.876 0m-40.876 27.251c15.963 7.931 24.915 11.682 40.876 0m36.789-138.979c27.641 6.124 43.212 7.336 70.852 0m-70.852 31.338c22.341 8.993 34.886 9.583 57.227 0m-57.227 27.251c17.26 6.196 30.858 5.031 57.227 0m-57.227 27.251c20.183 7.862 30.48 7.367 47.689 0m-58.589 25.888c14.208 4.892 22.708 6.904 46.326 0m-46.326 27.251c12.664 4.324 20.869 5.152 39.513 0" stroke-width="8" stroke-linecap="round" class="B"/><path d="M71.852 293.61l-8.954-26.104h379.066l-7.959 30.454s7.959 28.714 7.959 31.325-14.932-1.376-22.883 4.35c-10.073 7.255 12.664 18.286-7.96 25.234-13.892 4.681-20.863-12.149-35.927-9.718-13.981 2.257-17.525 15.51-31.629 17.371-18.475 2.439-13.601-21.065-31.629-17.371-12.391 2.539-19.025 15.386-31.629 17.371-12.966 2.043-17.087-17.954-30.363-17.371-11.468.504-17.611 17.591-29.099 17.371-15.117-.288-16.719-15.628-31.628-17.371-14.325-1.674-22.287 18.693-36.69 17.371-19.404-1.78-9.569-22.514-29.098-23.451-14.563-.698-20.059 13.02-34.159 10.423-15.225-2.804 3.854-25.959-11.448-28.56-8.752-1.487-14.924 0-19.899 0s13.929-31.324 13.929-31.324z" class="C"/><g class="F"><use href="#G" stroke="#fff"/><use href="#G" class="B"/></g></g><defs><clipPath id="A"><path d="M0 0h500v500H0z" class="C"/></clipPath><path id="B" d="M257.755 243.639c15.154 30.281 15.148 57.285 6.908 79.022-8.302 21.9-25.135 38.886-44.251 48.453-38.453 19.243-97.48 14.535-127.484-45.421-15.188-30.348-17.936-64.631-12.023-93.752 5.947-29.287 20.418-52.405 38.659-61.533 18.26-9.138 44.904-6.571 71.379 6.581 26.323 13.077 51.582 36.217 66.812 66.65z"/><path id="C" d="M199.024 257.393c5.01 10.011 11.808 23.733 2.444 28.419s-41.834 7.013-42.944-8.152c-5.01-10.011 1.622-32.198 10.985-36.883s24.504 6.604 29.515 16.616z"/><path id="D" d="M131.284 299.796c12.406 14.334 3.78 30.291-7.446 35.909-9.641-1.338-24.498 1.837-29.644-8.446s1.402-27.406 12.628-33.024 19.316-4.721 24.462 5.561z"/><path id="E" d="M92.395 271.717s-8.593 35.468-22.218 0S108.327 74.148 246.362 74.148c148.099-5.49 184.47 143.026 180.801 197.569s-66.432 1.331-20.02 0c-11.661-118.361-51.777-170.318-154.912-175.753S82.439 204.911 92.395 271.717z"/><path id="F" d="M326.335 267.578l-14.988 185.306m14.988-185.306h-84.478m84.478 0H404h29.976l-50.414 185.306h-72.215m0 0H183.268m58.589-185.306l5.45 181.219m-5.45-181.219h-77.665m0 0l19.076 185.306m-19.076-185.306H85.165 64.726l58.59 185.306h59.952"/><path id="G" d="M71.852 293.61l-8.954-26.104h379.066l-7.959 30.454m-362.152-4.35s-18.904 31.324-13.929 31.324 11.147-1.487 19.899 0c15.302 2.601-3.778 25.756 11.448 28.56 14.1 2.597 19.596-11.121 34.159-10.423 19.529.937 9.694 21.671 29.098 23.451 14.403 1.322 22.365-19.045 36.69-17.371 14.909 1.743 16.511 17.083 31.628 17.371 11.488.22 17.631-16.867 29.099-17.371 13.276-.583 17.397 19.414 30.363 17.371 12.604-1.985 19.238-14.832 31.629-17.371 18.028-3.694 13.154 19.81 31.629 17.371 14.104-1.861 17.648-15.114 31.629-17.371 15.064-2.431 22.035 14.399 35.927 9.718 20.624-6.948-2.113-17.979 7.96-25.234 7.951-5.726 22.883-1.74 22.883-4.35s-7.959-31.325-7.959-31.325m-362.152-4.35l362.152 4.35"/></defs></svg>