<svg xmlns="http://www.w3.org/2000/svg" width="500" height="500" fill="none" xmlns:v="https://vecta.io/nano"><g fill="#fff"><ellipse cx="249.247" cy="242.327" rx="153.488" ry="113.03" transform="rotate(5.22 249.247 242.327)"/><g stroke="#000" stroke-width="10"><use href="#B"/><use href="#B"/><path d="M190.08 280.019c-25.019 129.097 15.476 140.618-44.471 137.665-43.755-2.156-70.009 4.396-44.52-145.795 15.041-88.629 60.377-138.281 98.256-134.821 47.945 16.795 8.071 53.498-9.265 142.951zm190.157 11.828c.292 131.069-42.715 149.282 19.162 144.885 2.756-.196 60.016 10.656 62.9-137.388 1.746-89.61-39.536-156.347-102.943-155.933-56.894 5.147 20.678 57.616 20.881 148.436z"/><path d="M308.014 287.318c.292 131.069-34.917 133.975 20.027 143.19 50.322 8.44 63.059 16.526 66.017-135.329 1.746-89.61-48.431-145.78-83.567-148.991-46.471 5.065-2.68 50.31-2.477 141.13z"/><path d="M309.673 231.16c17.959 227.475-10.247 201.989-72.622 196.29-51.191-4.677-92.863 36.454-33.826-209.335 20.93-87.139 28.063-69.635 59.336-69.882 15.982 5.599 39.918-8.187 47.112 82.927zm-115.009-90.381c-12.427 3.003-21.944 9.647-31.453 8.779-14.278-14.753-13.611-19.103-22.799-23.046.569-6.233 22.232-6.245 31.741-5.376s24.983 11.593 22.511 19.643z"/><path d="M221.705 161.833c-9.498-6.505-8.894-17.603-27.917-21.98-.376-4.361-2.016-8.48-10.276-13.567.57-6.232 36.606-12.251 46.115-11.382 7.525.688 16.248 37.008-7.922 46.929zm68.333-3.724c-6.417.556-10.043-3.616-14.288-6.934-.372-4.813 2.237-20.446-2.082-32.911.629-6.884 32.474 2.966 37.973 13.543 3.398 6.538-1.033 20.183-21.603 26.302z"/><path d="M364.026 145.095c-1.762 6.929-19.729 12.827-24.421 15.38-7.293 1.231-21.079-10.858-30.895-11.968 4.769-3.572-2.199-16.48 8.711-17.933 6.218-.828 38.988-3.813 46.605 14.521z"/></g></g><g fill="#000"><use href="#C"/><use href="#C"/><use href="#D"/><use href="#D"/></g><path d="M276.296 152.375c-9.694-.886-22.724.563-41.747-3.814 6.706-28.354-17.307-55.376-26.495-59.319.569-6.233 13.4-23.604 22.909-22.735 17.218 1.573 55.277 50.569 45.333 85.868z" fill="#fff" stroke="#000" stroke-width="10"/><g fill="#000"><use href="#E"/><use href="#E"/><path d="M277.509 375.827c-.582 13.242-15.59 23.339-33.522 22.552s-31.997-12.16-31.416-25.402 16.181-36.826 34.113-36.039 31.406 25.647 30.825 38.889z"/></g><defs ><path id="B" d="M104.046 268.021c-25.019 129.097 34.243 157.27-34.058 137.581-22.137-6.381-55.545-30.937-37.691-150.344 13.276-88.789 81.946-132.172 104.768-130.087 67.947 25.864-15.683 53.397-33.019 142.85z"/><path id="C" d="M189.873 191.33s18.044 19.169 23.974 36.81c5.415 16.108 5.725 48.059 5.725 48.059l-108.93-12.785s17.529-31.635 32.93-45.717c15.716-14.369 46.301-26.367 46.301-26.367z"/><path id="D" d="M318.238 204.002s-16.405 21.586-25.188 37.004c-8.669 15.218-19.397 41.078-19.397 41.078l109.44 7.166s-8.775-36.129-21.048-52.397c-13.003-17.234-43.807-32.851-43.807-32.851z"/><path id="E" d="M245.033 280.5s7.789 10.236 11.467 17.715c3.084 6.269 6.964 19.274 6.964 19.274l-42.539-3.886s5.257-10.915 10.341-17.694c4.601-6.136 13.767-15.409 13.767-15.409z"/></defs></svg>