<?xml version="1.0" encoding="UTF-8" standalone="no"?>
<svg
   width="500"
   height="500"
   fill="none"
   version="1.1"
   id="svg2406"
   sodipodi:docname="icono_santantoni.svg"
   inkscape:version="1.1.2 (b8e25be833, 2022-02-05)"
   xmlns:inkscape="http://www.inkscape.org/namespaces/inkscape"
   xmlns:sodipodi="http://sodipodi.sourceforge.net/DTD/sodipodi-0.dtd"
   xmlns="http://www.w3.org/2000/svg"
   xmlns:svg="http://www.w3.org/2000/svg">
  <sodipodi:namedview
     id="namedview2408"
     pagecolor="#ffffff"
     bordercolor="#666666"
     borderopacity="1.0"
     inkscape:pageshadow="2"
     inkscape:pageopacity="0.0"
     inkscape:pagecheckerboard="0"
     showgrid="false"
     inkscape:zoom="1.668"
     inkscape:cx="249.70024"
     inkscape:cy="297.96163"
     inkscape:window-width="1920"
     inkscape:window-height="1017"
     inkscape:window-x="-8"
     inkscape:window-y="-8"
     inkscape:window-maximized="1"
     inkscape:current-layer="svg2406" />
  <g
     fill="#ffffff"
     id="g2372" />
  <g
     stroke="#000000"
     stroke-width="10"
     id="g2378" />
  <g
     fill="#ffffff"
     id="g2384" />
  <path
     d="m 362.878,298.172 c 0.115,38.452 -12.269,68.371 -45.837,90.854 -34.795,23.303 -69.796,25.209 -108.137,7.796 -34.895,-15.849 -47.958,-39.908 -61.158,-74.917 -14.9,-39.517 1.341,-107.66 1.341,-107.66 34.55,22.79 48.414,40.306 61.07,82.026 32.895,-60.276 33.589,-94.589 21.813,-156.165 61.767,46.572 77.961,82.463 59.957,171.405 32.594,-27.907 42.238,-44.387 51.843,-74.526 0,0 19.034,36.555 19.108,61.187 z"
     id="path2390"
     style="fill:#ffffff;stroke:#000000;stroke-width:10" />
  <path
     d="m 216.041,371.723 c -0.029,11.619 3.592,20.662 13.398,27.46 10.165,7.047 20.387,7.627 31.582,2.37 10.189,-4.785 14.001,-12.054 17.852,-22.632 4.347,-11.939 -0.405,-32.534 -0.405,-32.534 -10.088,6.883 -14.134,12.174 -17.825,24.78 -9.615,-18.219 -9.822,-28.588 -6.391,-47.194 -18.033,14.066 -22.758,24.91 -17.488,51.789 -9.523,-8.437 -12.342,-13.418 -15.15,-22.527 0,0 -5.555,11.044 -5.573,18.488 z"
     id="path2392"
     style="fill:#ffffff;stroke:#000000;stroke-width:10" />
  <path
     d="m 337.377,190.791 c 0.388,5.903 -3.24,8.69 -5.462,14.203 l -5.089,12.134 c 0,0 -3.08,-9.639 -5.516,-15.646 -2.841,-7.005 -10.099,-11.617 -8.237,-17.531 l 4.769,-15.144 c 0,0 7.394,4.031 11.061,7.811 4.51,4.651 8.052,7.764 8.474,14.173 z"
     fill="#ffffff"
     stroke-width="8"
     id="path2398"
     style="stroke:#000000" />
  <defs
     id="defs2404">
    <path
       id="B"
       d="M156.114 441.851l178.338-106.45c23.582 8.154 23.337 8.596 19.713 33.026l-178.339 106.45c-23.399-8.074-24.305-8.245-19.712-33.026z" />
    <path
       id="C"
       d="M344.26 446.466L165.922 340.017c-23.582 8.153-23.337 8.595-19.713 33.025l178.338 106.45c23.4-8.074 24.306-8.245 19.713-33.026z" />
  </defs>
</svg>
