<svg xmlns="http://www.w3.org/2000/svg" width="500" height="500" fill="#fff" stroke="#000" stroke-width="10" xmlns:v="https://vecta.io/nano"><path d="M465 277.796c0 93.949-87.098 89.306-214.214 57.334C125.017 361.118 36 367.637 36 277.796c0-181.795 0-153.484 214.786-40.277C465 107.255 465 109.13 465 277.796z"/><path d="M193.639 291.138c0 14.949-26.003 19-57.53 19s-57.084-4.883-57.084-27.066c0-14.949 18.374-41.077 57.084-29.826s56.371 23.775 57.53 37.892zm111.044-5.056c0 14.993 26.003 19.057 57.53 19.057s57.084-4.898 57.084-27.148c0-14.993-18.374-41.2-57.084-29.915s-56.371 23.847-57.53 38.006z"/></svg>