<?xml version="1.0" encoding="UTF-8" standalone="no"?>
<svg
   width="500"
   height="500"
   fill="#fff"
   stroke="#000"
   stroke-width="8"
   version="1.1"
   id="svg23012"
   sodipodi:docname="icono_aporrear.svg"
   inkscape:version="1.1.2 (b8e25be833, 2022-02-05)"
   xmlns:inkscape="http://www.inkscape.org/namespaces/inkscape"
   xmlns:sodipodi="http://sodipodi.sourceforge.net/DTD/sodipodi-0.dtd"
   xmlns="http://www.w3.org/2000/svg"
   xmlns:svg="http://www.w3.org/2000/svg">
  <defs
     id="defs23016" />
  <sodipodi:namedview
     id="namedview23014"
     pagecolor="#ffffff"
     bordercolor="#666666"
     borderopacity="1.0"
     inkscape:pageshadow="2"
     inkscape:pageopacity="0.0"
     inkscape:pagecheckerboard="0"
     showgrid="false"
     inkscape:lockguides="true"
     inkscape:zoom="0.831"
     inkscape:cx="126.95548"
     inkscape:cy="330.92659"
     inkscape:window-width="1920"
     inkscape:window-height="1017"
     inkscape:window-x="-8"
     inkscape:window-y="-8"
     inkscape:window-maximized="1"
     inkscape:current-layer="g25661" />
  <g
     id="g24000"
     transform="translate(-44.024316,-11.168753)">
    <g
       id="g25661"
       transform="matrix(0.99980031,0,0,1.0000565,0.05871395,-0.02757426)">
      <path
         d="m 308.69411,179.52313 -3.836,1.132 c -8.476,2.499 -13.321,11.396 -10.821,19.872 l 72.978,247.463 c 2.5,8.476 11.397,13.321 19.873,10.821 l 3.836,-1.131 c 8.476,-2.5 13.32,-11.397 10.821,-19.873 l -72.978,-247.463 c -2.5,-8.476 -11.397,-13.32 -19.873,-10.821 z"
         id="path23008-4"
         style="fill:#ffffff;fill-opacity:1;stroke:none;stroke-opacity:1" />
      <path
         d="m 308.69411,179.52313 -3.836,1.132 c -8.476,2.499 -13.321,11.396 -10.821,19.872 l 72.978,247.463 c 2.5,8.476 11.397,13.321 19.873,10.821 l 3.836,-1.131 c 8.476,-2.5 13.32,-11.397 10.821,-19.873 l -72.978,-247.463 c -2.5,-8.476 -11.397,-13.32 -19.873,-10.821 z"
         id="path23008" />
      <path
         d="m 369.587,63.526 -182.24,53.744 c -8.476,2.499 -13.321,11.396 -10.821,19.872 l 22.063,74.815 c 2.5,8.475 11.397,13.32 19.872,10.82 l 182.241,-53.744 c 8.476,-2.499 13.32,-11.396 10.821,-19.872 L 389.459,74.347 C 386.96,65.871 378.063,61.027001 369.587,63.526 Z"
         id="path23010-3"
         style="fill:#ffffff;fill-opacity:1;stroke:none" />
      <path
         d="m 369.587,63.526 -182.24,53.744 c -8.476,2.499 -13.321,11.396 -10.821,19.872 l 22.063,74.815 c 2.5,8.475 11.397,13.32 19.872,10.82 l 182.241,-53.744 c 8.476,-2.499 13.32,-11.396 10.821,-19.872 L 389.459,74.347 C 386.96,65.871 378.063,61.027 369.587,63.526 Z"
         id="path23010-3-7"
         style="fill:#ffffff;fill-opacity:1;stroke:none" />
      <path
         d="m 369.587,63.526 -182.24,53.744 c -8.476,2.499 -13.321,11.396 -10.821,19.872 l 22.063,74.815 c 2.5,8.475 11.397,13.32 19.872,10.82 l 182.241,-53.744 c 8.476,-2.499 13.32,-11.396 10.821,-19.872 L 389.459,74.347 C 386.96,65.871 378.063,61.027 369.587,63.526 Z"
         id="path23010"
         style="fill:none" />
      <path
         style="fill:none;stroke:#000300;stroke-width:8;stroke-linecap:butt;stroke-linejoin:miter;stroke-miterlimit:4;stroke-dasharray:none;stroke-opacity:1"
         d="m 193.15673,113.17112 33.04569,107.99104"
         id="path23108"
         sodipodi:nodetypes="cc" />
      <path
         style="fill:none;stroke:#000000;stroke-width:8;stroke-linecap:butt;stroke-linejoin:miter;stroke-miterlimit:4;stroke-dasharray:none;stroke-opacity:1"
         d="m 363.26931,63.526 32.444,106.48683"
         id="path23108-0"
         sodipodi:nodetypes="cc" />
      <rect
         style="fill:#ffffff;stroke:#000200;stroke-width:11;stroke-linecap:round;stroke-linejoin:round;stroke-miterlimit:4;stroke-dasharray:none;stroke-opacity:1;paint-order:markers stroke fill"
         id="rect23518"
         width="70.452187"
         height="9.2854376"
         x="203.78011"
         y="281.00955"
         ry="0"
         rx="0"
         transform="rotate(-16.907944)" />
      <rect
         style="fill:#ffffff;stroke:none;stroke-width:11;stroke-linecap:round;stroke-linejoin:round;stroke-miterlimit:4;stroke-dasharray:none;stroke-opacity:1;paint-order:markers stroke fill"
         id="rect23518-5"
         width="70.452187"
         height="9.2854376"
         x="203.78012"
         y="281.00955"
         ry="0"
         rx="0"
         transform="rotate(-16.907944)" />
    </g>
  </g>
</svg>
