<svg xmlns="http://www.w3.org/2000/svg" width="500" height="500" fill="none" xmlns:v="https://vecta.io/nano"><g fill="#fff"><ellipse cx="248.552" cy="242.427" rx="153.488" ry="113.03"/><g stroke="#000" stroke-width="10"><use href="#B"/><use href="#B"/><path d="M193.06 285.346c-13.17 130.838 28.205 138.627-31.762 141.14-43.769 1.835-69.319 10.747-57.6-141.14 6.915-89.629 47.546-143.2 85.582-143.2 49.274 12.362 12.905 52.541 3.78 143.2zm190.444-5.522c12.216 130.499-28.956 152.549 32.265 142.541 2.727-.446 60.736 5.151 50.139-142.541-6.414-89.397-53.597-152.101-116.703-145.92-56.19 10.302 25.834 55.495 34.299 145.92z"/><path d="M311.168 281.885c12.216 130.499-22.583 136.596 32.972 140.774 50.881 3.827 64.301 10.72 53.431-140.774-6.415-89.397-61.494-140.77-96.777-140.77-45.816 9.272 1.909 50.345 10.374 140.77z"/><path d="M307.711 225.809c38.581 224.898 8.173 202.083-54.461 202.083-51.404 0-89.162 44.752-52.732-205.389 12.915-88.682 21.611-71.9 52.732-74.99 16.425 4.121 39.008-11.786 54.461 78.296zm-122.754-79.543c-12.103 4.121-20.976 11.605-30.525 11.605-15.56-13.393-15.292-17.786-24.801-20.877 0-6.258 21.572-8.241 31.121-8.241s25.933 9.272 24.205 17.513z"/><path d="M213.8 164.773c-10.05-5.613-10.459-16.721-29.801-19.349-.771-4.309-2.779-8.261-11.467-12.575 0-6.259 35.339-15.531 44.888-15.531 7.556 0 19.548 35.376-3.62 47.455zm67.712-9.926c-6.341 1.138-10.331-2.687-14.86-5.605-.809-4.759.367-20.565-5.068-32.585 0-6.913 32.609 0 39.047 10.032 3.98 6.201.809 20.194-19.119 28.158z"/><path d="M354.009 135.156c-1.125 7.06-18.48 14.569-22.921 17.538-7.151 1.889-21.979-8.895-31.856-9.108 4.424-3.99-3.689-16.211 7.043-18.651 6.117-1.39 38.479-7.344 47.734 10.221z"/></g></g><g fill="#000"><use href="#C"/><use href="#C"/><use href="#D"/><use href="#D"/></g><path d="M267.304 150.387c-9.734 0-22.578 2.628-41.92 0 4.098-28.846-22.274-53.571-31.783-56.662 0-6.259 11.197-24.725 20.746-24.725 17.29 0 59.648 45.33 52.957 81.387z" fill="#fff" stroke="#000" stroke-width="10"/><g fill="#000"><use href="#E"/><use href="#E"/><path d="M129.888 389.9l-21.792-65.399 21.792 27.536 24.678-33.273 28.308 39.01 31.937-33.273 34.115 33.273 33.389-33.273 26.13 33.273 25.404-33.273 21.131 27.536 36.2-27.536-36.2 65.399-21.131-32.126-25.404 32.126-31.211-32.126-28.308 32.126-34.115-32.126-31.937 32.126-28.308-32.126-24.678 32.126z"/></g><defs ><path id="B" d="M106.29 281.225c-13.169 130.838 48.411 153.503-21.398 140.11-22.625-4.341-58.129-25.755-51.214-146.291 5.142-89.629 69.581-139.08 92.498-139.08 70.019 19.574-10.76 54.602-19.886 145.261z"/><path id="C" d="M184.784 197.044s19.714 17.448 27.224 34.475c6.858 15.55 10.073 47.34 10.073 47.34l-109.641-2.822s14.578-33.098 28.634-48.522c14.343-15.74 43.71-30.471 43.71-30.471z"/><path id="D" d="M313.77 197.984s-14.374 22.989-21.717 39.142c-7.249 15.944-15.58 42.673-15.58 42.673l109.639-2.821s-12.026-35.181-25.728-50.265c-14.517-15.98-46.614-28.729-46.614-28.729z"/><path id="E" d="M247.828 280.825s8.688 9.485 13.032 16.599c3.641 5.962 8.688 18.56 8.688 18.56h-42.716s4.242-11.347 8.688-18.56c4.024-6.53 12.308-16.599 12.308-16.599z"/></defs></svg>