<svg xmlns="http://www.w3.org/2000/svg" width="500" height="500" fill="none" xmlns:v="https://vecta.io/nano"><path d="M177.275 245.967s-13.105 7.604-21.5 7.787c-13.19.287-25.044-16.45-14.5-26.213 4.156-3.848 8.37-5.011 11.176-5.309-5.688-.24-17.114-1.658-21.676-8.978-7.849-12.594-6.623-37.115 8.191-38 4.85-.29 7.71.584 9.341 1.493-4.073-3.766-12.909-13.113-11.222-21.993 1.86-9.791 8.842-17.524 18.69-16 7.264 1.124 12 4.713 12 4.713s-18.173-19.532-7.19-33c10.963-13.444 27-20.5 40.5-14.213 7.257 3.38 10.19 14.213 10.19 14.213s1.091-17.915 11.81-22.713c13.545-6.063 32.5-5 42.5 0 5.065 2.532 5.69 16.713 5.69 16.713s4.744-13.198 19.191-19.501c13.96-6.09 33.309 3.177 33.309 11.287v14.213s9.397-5.89 18.81-3.713c14.459 3.344 26.534 18.441 20.5 32-3.897 8.758-15.31 11.213-15.31 11.213s14.221-1.612 19.619 6.574c8.169 12.39 9.5 30.5-4.309 44.213-3.515 3.49-8.54 3.317-11.862 2.678 4.012 1.364 10.288 4.326 11.862 9.822 3.043 10.627-.066 21.349-10.5 25-10.585 3.704-22.31-8.787-22.31-8.787l-153 16.5z" fill="#fff"/><g stroke="#000"><g stroke-width="10"><path d="M177.275 245.967s-13.105 7.604-21.5 7.787c-13.19.287-25.044-16.45-14.5-26.213 7.164-6.633 14.5-5.287 14.5-5.287s-18.812.927-25-9c-7.849-12.594-6.623-37.115 8.191-38 9.358-.559 11.309 3.213 11.309 3.213s-15.369-12.247-13.19-23.713c1.86-9.791 8.842-17.524 18.69-16 7.264 1.124 12 4.713 12 4.713s-18.173-19.532-7.19-33c10.963-13.444 27-20.5 40.5-14.213 7.257 3.38 10.19 14.213 10.19 14.213s1.091-17.915 11.81-22.713c13.545-6.063 32.5-5 42.5 0 5.065 2.532 5.69 16.713 5.69 16.713s4.744-13.198 19.191-19.501c13.96-6.09 33.309 3.177 33.309 11.287v14.213s9.397-5.89 18.81-3.713c14.459 3.344 26.534 18.441 20.5 32-3.897 8.758-15.31 11.213-15.31 11.213s14.221-1.612 19.619 6.574c8.169 12.39 9.5 30.5-4.309 44.213-5.681 5.641-15.31 1.713-15.31 1.713s12.948 2.54 15.31 10.787c3.043 10.627-.066 21.349-10.5 25-10.585 3.704-22.31-8.787-22.31-8.787l-153 16.5z"/><g fill="#fff"><circle cx="247.585" cy="211.754" r="82.5"/><path d="M366.085 416.254h-236c6.685-56.99 11.491-83.996 57.81-120 44.807 30.609 86.44 30.29 131.262 0 42.167 44.494 46.928 70.786 46.928 120z"/></g></g><g stroke-width="5"><path d="M180.276 333.728c-3.117-10.241-5.26-29.08 0-49.423 9.25-11.365 35.62 0 35.62 0l23.598 11.131v25.379s-14.054 9.663-23.598 12.913c-13.168 4.484-32.504 10.241-35.62 0zm136.715.48c3.022-10.302 5.099-29.254 0-49.719-8.967-11.433-34.53 0-34.53 0l-22.04 10.302v25.531s12.788 10.616 22.04 13.886c12.765 4.511 31.509 10.302 34.53 0z" fill="#fff"/><path d="M260.421 295.881c-8.424-3.788-13.038-4.26-20.927 0v23.153c8.977 5.003 13.544 4.981 20.927 0v-23.153zm-65.726-6.233a4.18 4.18 0 0 1-4.179 4.178 4.18 4.18 0 0 1-4.178-4.178 4.18 4.18 0 0 1 4.178-4.179 4.18 4.18 0 0 1 4.179 4.179zm1.781 36.51a4.18 4.18 0 0 1-4.179 4.179 4.18 4.18 0 0 1-4.178-4.179 4.18 4.18 0 0 1 4.178-4.179 4.18 4.18 0 0 1 4.179 4.179zm22.263-30.277a4.18 4.18 0 0 1-4.179 4.179 4.18 4.18 0 0 1-4.179-4.179 4.18 4.18 0 0 1 4.179-4.179 4.18 4.18 0 0 1 4.179 4.179zm-14.248 13.358a4.18 4.18 0 0 1-4.179 4.178 4.18 4.18 0 0 1-4.179-4.178 4.18 4.18 0 0 1 4.179-4.179 4.18 4.18 0 0 1 4.179 4.179zm19.591 9.795a4.18 4.18 0 0 1-4.179 4.179 4.18 4.18 0 0 1-4.179-4.179 4.18 4.18 0 0 1 4.179-4.179 4.18 4.18 0 0 1 4.179 4.179zm57.883-19.591a4.18 4.18 0 0 1-4.179 4.179 4.18 4.18 0 0 1-4.179-4.179 4.18 4.18 0 0 1 4.179-4.179 4.18 4.18 0 0 1 4.179 4.179zm25.824-9.795a4.18 4.18 0 0 1-4.179 4.178 4.18 4.18 0 0 1-4.178-4.178 4.18 4.18 0 0 1 4.178-4.179 4.18 4.18 0 0 1 4.179 4.179zm-7.124 19.591a4.18 4.18 0 0 1-4.179 4.178 4.18 4.18 0 0 1-4.178-4.178 4.18 4.18 0 0 1 4.178-4.179 4.18 4.18 0 0 1 4.179 4.179zm10.686 16.919a4.18 4.18 0 0 1-4.179 4.179 4.18 4.18 0 0 1-4.178-4.179 4.18 4.18 0 0 1 4.178-4.179 4.18 4.18 0 0 1 4.179 4.179zm-29.386-7.124a4.18 4.18 0 0 1-4.179 4.179 4.18 4.18 0 0 1-4.179-4.179 4.18 4.18 0 0 1 4.179-4.179 4.18 4.18 0 0 1 4.179 4.179z" fill="#fff"/></g><g stroke-width="10"><circle cx="212.085" cy="200.254" r="26" fill="#fff"/><circle cx="286.085" cy="200.254" r="26" fill="#fff"/></g><path d="M242.751 201.254h14" stroke-width="5"/></g></svg>