<svg xmlns="http://www.w3.org/2000/svg" width="500" height="500" fill="none" xmlns:v="https://vecta.io/nano"><g stroke="#000"><path fill="#fff" stroke-width="10" d="M116 52h268v396.173H116z"/><g stroke-width="5" stroke-linecap="round"><path d="M172.971 413.627c-16.492 2.906-18.512-29.913-50.999-25.067m257.08-289.082c-43.729 10.582-54.93-5.538-53.954-17.465.493-10.988-14.858-30.111-32.24-22.122-19.537 8.979-9.566 26.758-.477 21.378 5.835-3.454 3.778-8.944 1.994-10.194-2.021-1.417-6.659-.491-6.571 5.017"/><path d="M325.697 81.585c15.953-5.171 22.31 27.063 53.853 17.746m-257.065 12.274c44.729 4.406 53.686-13.121 51.136-24.802-1.947-10.817 10.725-31.897 29.005-26.398 20.548 6.18 13.029 25.181 3.31 21.114-6.239-2.611-4.929-8.336-3.328-9.823 1.814-1.685 6.532-1.412 7.176 4.058"/><path d="M172.972 86.462c-16.492-2.906-18.512 29.914-51 25.067m.513 276.955c44.729-4.406 53.686 13.122 51.136 24.803-1.947 10.817 10.725 31.897 29.005 26.398 20.548-6.18 13.029-25.181 3.31-21.114-6.239 2.611-4.929 8.336-3.328 9.823 1.814 1.685 6.532 1.412 7.176-4.058m165.537-35.403c-44.73-4.406-53.687 13.122-51.137 24.803 1.947 10.817-10.724 31.897-29.005 26.399-20.548-6.181-13.029-25.182-3.309-21.114 6.238 2.61 4.929 8.336 3.328 9.822-1.815 1.685-6.533 1.412-7.176-4.057"/><path d="M324.834 414.077c16.492 2.905 18.512-29.914 50.999-25.067"/></g></g><path d="M149.775 152.025a1.03 1.03 0 0 1-.325-.05c-.317-.067-.542-.258-.675-.575-.1-.283-.075-.6.075-.95a12.65 12.65 0 0 1 .65-1.175l.275-.45.25-.45.075-.125a.95.95 0 0 1 .05-.125c-.5-.083-1.083-.1-1.75-.05-.65.033-1.383.158-2.2.375-.717.183-1.492.425-2.325.725l-2.6 1.025c-.183.067-.367.067-.55 0s-.317-.192-.4-.375c-.1-.183-.108-.375-.025-.575.083-.217.217-.358.4-.425l2.675-1.075a22.12 22.12 0 0 1 2.45-.75c2.05-.517 3.725-.6 5.025-.25a1.13 1.13 0 0 1 .8.7c.15.367.117.775-.1 1.225s-.475.917-.775 1.4c-.017.033-.042.075-.075.125a1.6 1.6 0 0 0-.1.175c.383-.083.95-.25 1.7-.5l3.1-1.1c.183-.067.367-.05.55.05.2.083.333.225.4.425.083.183.083.375 0 .575-.083.183-.233.317-.45.4l-2.1.725-1.7.55-1.525.425c-.35.067-.617.1-.8.1zm9.272-.5c-.084 0-.15-.008-.2-.025-.267-.067-.459-.167-.575-.3-.1-.15-.167-.267-.2-.35-.117-.367-.075-.742.125-1.125.2-.4.458-.817.775-1.25a3.77 3.77 0 0 0 .275-.425l.25-.425c.016-.017.041-.05.075-.1-.1.033-.225.083-.375.15a3.52 3.52 0 0 0-.475.3c-.3.183-.617.425-.95.725l-1.025.9-.275.225-.25.25c-.15.133-.325.2-.525.2-.217-.017-.392-.108-.525-.275-.15-.15-.217-.325-.2-.525.016-.217.1-.392.25-.525l.275-.25c.083-.083.166-.158.25-.225l1.575-1.325c.516-.417 1.025-.733 1.525-.95s.983-.258 1.45-.125c.283.067.483.183.6.35.133.15.208.283.225.4.15.367.116.758-.1 1.175-.217.4-.492.842-.825 1.325-.034.033-.075.092-.125.175a1.37 1.37 0 0 1-.125.2l.975-.375 1.45-.55c.216-.067.416-.05.6.05a.68.68 0 0 1 .375.425.64.64 0 0 1-.025.575c-.084.183-.217.317-.4.4l-1.45.5-1.1.4-.45.175-.325.1-.3.1c-.084.017-.167.025-.25.025zm12.334.5c-.116 0-.225-.017-.325-.05-.316-.067-.541-.258-.675-.575-.1-.283-.075-.6.075-.95a12.89 12.89 0 0 1 .65-1.175l.275-.45.25-.45c.034-.05.059-.092.075-.125.017-.05.034-.092.05-.125-.5-.083-1.083-.1-1.75-.05-.65.033-1.383.158-2.2.375-.716.183-1.491.425-2.325.725l-2.6 1.025c-.183.067-.366.067-.55 0s-.316-.192-.4-.375c-.1-.183-.108-.375-.025-.575.084-.217.217-.358.4-.425l2.675-1.075c.867-.317 1.684-.567 2.45-.75 2.05-.517 3.725-.6 5.025-.25.384.1.65.333.8.7s.117.775-.1 1.225-.475.917-.775 1.4c-.016.033-.041.075-.075.125s-.066.108-.1.175c.384-.083.95-.25 1.7-.5l3.1-1.1a.64.64 0 0 1 .55.05.67.67 0 0 1 .4.425c.084.183.084.375 0 .575-.083.183-.233.317-.45.4l-2.1.725-1.7.55-1.525.425c-.35.067-.616.1-.8.1zm11.647.25a.73.73 0 0 1-.5-.175.68.68 0 0 1-.225-.825c0-.017.058-.217.175-.6l.45-1.3.225-.725.175-.575-1.65.625-2.05.75-2.05.775a.7.7 0 0 1-.55-.025.86.86 0 0 1-.425-.45c-.067-.183-.05-.367.05-.55a.76.76 0 0 1 .425-.425l2.325-.825 2.225-.825 1.675-.65.65-.25c.083-.017.167-.025.25-.025a.34.34 0 0 1 .225.025c.233.033.4.167.5.4.083.133.117.308.1.525 0 .2-.042.492-.125.875l-.2.725-.275.875-.05.175c-.017.05-.033.108-.05.175.667-.367 1.483-.75 2.45-1.15a.64.64 0 0 1 .55 0c.2.067.333.192.4.375.1.183.108.375.025.575a.77.77 0 0 1-.4.425l-2.025.95-1.4.725-.525.275c-.1.083-.225.125-.375.125zm7.342-.75a.64.64 0 0 1-.2-.025c-.267-.067-.458-.167-.575-.3-.1-.15-.167-.267-.2-.35-.117-.367-.075-.742.125-1.125.2-.4.458-.817.775-1.25a3.64 3.64 0 0 0 .275-.425l.25-.425a.71.71 0 0 0 .075-.1c-.1.033-.225.083-.375.15-.133.067-.292.167-.475.3-.3.183-.617.425-.95.725l-1.025.9-.275.225-.25.25c-.15.133-.325.2-.525.2-.217-.017-.392-.108-.525-.275-.15-.15-.217-.325-.2-.525a.75.75 0 0 1 .25-.525l.275-.25a3.17 3.17 0 0 1 .25-.225l1.575-1.325c.517-.417 1.025-.733 1.525-.95s.983-.258 1.45-.125c.283.067.483.183.6.35.133.15.208.283.225.4.15.367.117.758-.1 1.175-.217.4-.492.842-.825 1.325-.033.033-.075.092-.125.175a1.29 1.29 0 0 1-.125.2l.975-.375 1.45-.55c.217-.067.417-.05.6.05a.68.68 0 0 1 .375.425.64.64 0 0 1-.025.575.78.78 0 0 1-.4.4l-1.45.5-1.1.4-.45.175-.325.1-.3.1c-.083.017-.167.025-.25.025zm12.335.5a1.03 1.03 0 0 1-.325-.05c-.317-.067-.542-.258-.675-.575-.1-.283-.075-.6.075-.95a12.42 12.42 0 0 1 .65-1.175l.275-.45.25-.45.075-.125a.83.83 0 0 1 .05-.125c-.5-.083-1.084-.1-1.75-.05-.65.033-1.384.158-2.2.375-.717.183-1.492.425-2.325.725l-2.6 1.025c-.184.067-.367.067-.55 0a.68.68 0 0 1-.4-.375c-.1-.183-.109-.375-.025-.575.083-.217.216-.358.4-.425l2.675-1.075c.866-.317 1.683-.567 2.45-.75 2.05-.517 3.725-.6 5.025-.25a1.13 1.13 0 0 1 .8.7c.15.367.116.775-.1 1.225s-.475.917-.775 1.4c-.017.033-.042.075-.075.125s-.067.108-.1.175c.383-.083.95-.25 1.7-.5l3.1-1.1c.183-.067.366-.05.55.05.2.083.333.225.4.425.083.183.083.375 0 .575-.084.183-.234.317-.45.4l-2.1.725-1.7.55-1.525.425c-.35.067-.617.1-.8.1zm11.646.25a.73.73 0 0 1-.5-.175c-.266-.217-.341-.492-.225-.825 0-.017.059-.217.175-.6l.45-1.3.225-.725.175-.575-1.65.625-2.05.75-2.05.775c-.183.067-.366.058-.55-.025-.2-.1-.341-.25-.425-.45-.066-.183-.05-.367.05-.55a.76.76 0 0 1 .425-.425l2.325-.825 2.225-.825 1.675-.65.65-.25c.084-.017.167-.025.25-.025a.34.34 0 0 1 .225.025c.234.033.4.167.5.4.084.133.117.308.1.525 0 .2-.041.492-.125.875l-.2.725-.275.875-.05.175-.05.175c.667-.367 1.484-.75 2.45-1.15a.64.64 0 0 1 .55 0 .6.6 0 0 1 .4.375c.1.183.109.375.025.575s-.216.342-.4.425l-2.025.95-1.4.725-.525.275c-.1.083-.225.125-.375.125zm12.792-.25a1.03 1.03 0 0 1-.325-.05c-.317-.067-.542-.258-.675-.575-.1-.283-.075-.6.075-.95a12.65 12.65 0 0 1 .65-1.175l.275-.45.25-.45.075-.125a.95.95 0 0 1 .05-.125c-.5-.083-1.083-.1-1.75-.05-.65.033-1.383.158-2.2.375-.717.183-1.492.425-2.325.725l-2.6 1.025c-.183.067-.367.067-.55 0s-.317-.192-.4-.375c-.1-.183-.108-.375-.025-.575.083-.217.217-.358.4-.425l2.675-1.075a22.12 22.12 0 0 1 2.45-.75c2.05-.517 3.725-.6 5.025-.25a1.13 1.13 0 0 1 .8.7c.15.367.117.775-.1 1.225s-.475.917-.775 1.4c-.017.033-.042.075-.075.125a1.6 1.6 0 0 0-.1.175c.383-.083.95-.25 1.7-.5l3.1-1.1c.183-.067.367-.05.55.05.2.083.333.225.4.425.083.183.083.375 0 .575-.083.183-.233.317-.45.4l-2.1.725-1.7.55-1.525.425c-.35.067-.617.1-.8.1zm9.272-.5a.64.64 0 0 1-.2-.025c-.267-.067-.458-.167-.575-.3-.1-.15-.167-.267-.2-.35-.117-.367-.075-.742.125-1.125.2-.4.458-.817.775-1.25a3.64 3.64 0 0 0 .275-.425l.25-.425a.71.71 0 0 0 .075-.1c-.1.033-.225.083-.375.15-.133.067-.292.167-.475.3-.3.183-.617.425-.95.725l-1.025.9-.275.225-.25.25c-.15.133-.325.2-.525.2-.217-.017-.392-.108-.525-.275-.15-.15-.217-.325-.2-.525a.75.75 0 0 1 .25-.525l.275-.25a3.17 3.17 0 0 1 .25-.225l1.575-1.325c.517-.417 1.025-.733 1.525-.95s.983-.258 1.45-.125c.283.067.483.183.6.35.133.15.208.283.225.4.15.367.117.758-.1 1.175-.217.4-.492.842-.825 1.325-.033.033-.075.092-.125.175a1.29 1.29 0 0 1-.125.2l.975-.375 1.45-.55c.217-.067.417-.05.6.05a.68.68 0 0 1 .375.425.64.64 0 0 1-.025.575.78.78 0 0 1-.4.4l-1.45.5-1.1.4-.45.175-.325.1-.3.1c-.083.017-.167.025-.25.025zM143 178.7a1.28 1.28 0 0 1-.35-.05l-.35-.05c-.3-.083-.508-.258-.625-.525-.15-.333-.15-.733 0-1.2.167-.483.433-1.1.8-1.85l.2-.45.225-.475c-.217.083-.45.225-.7.425l-.725.575a.81.81 0 0 1-.55.15c-.217-.033-.392-.125-.525-.275a.72.72 0 0 1-.125-.55c.017-.2.1-.375.25-.525l.725-.55c.267-.2.533-.367.8-.5.683-.35 1.308-.442 1.875-.275.267.05.467.217.6.5.133.267.125.6-.025 1-.133.4-.367.942-.7 1.625l-.275.6-.25.575a.57.57 0 0 1-.075.175l-.05.15c.35-.05.858-.225 1.525-.525.683-.317 1.6-.933 2.75-1.85l1.675-1.4 1.2-1.15.45-.45c.2-.233.442-.308.725-.225.133.017.242.075.325.175.083.083.15.167.2.25.117.233.125.508.025.825-.083.3-.267.792-.55 1.475l-.3.65-.25.6-.05.175c0 .033-.008.067-.025.1.317-.05.65-.183 1-.4.367-.233.717-.492 1.05-.775l.875-.725c.167-.15.35-.217.55-.2s.375.1.525.25c.133.167.192.35.175.55 0 .2-.083.375-.25.525l-1.6 1.275c-.533.4-1.075.7-1.625.9-.533.183-1.075.208-1.625.075-.267-.117-.458-.283-.575-.5-.1-.233-.133-.492-.1-.775.05-.283.15-.633.3-1.05l-.575.475-.6.5c-2.3 1.817-4.092 2.725-5.375 2.725zm20.081-1.675a1.03 1.03 0 0 1-.325-.05c-.317-.067-.542-.258-.675-.575-.1-.283-.075-.6.075-.95a12.42 12.42 0 0 1 .65-1.175l.275-.45.25-.45.075-.125a.83.83 0 0 1 .05-.125c-.5-.083-1.084-.1-1.75-.05-.65.033-1.384.158-2.2.375-.717.183-1.492.425-2.325.725l-2.6 1.025c-.184.067-.367.067-.55 0a.68.68 0 0 1-.4-.375c-.1-.183-.109-.375-.025-.575.083-.217.216-.358.4-.425l2.675-1.075c.866-.317 1.683-.567 2.45-.75 2.05-.517 3.725-.6 5.025-.25a1.13 1.13 0 0 1 .8.7c.15.367.116.775-.1 1.225s-.475.917-.775 1.4c-.017.033-.042.075-.075.125s-.067.108-.1.175c.383-.083.95-.25 1.7-.5l3.1-1.1c.183-.067.366-.05.55.05.2.083.333.225.4.425.083.183.083.375 0 .575-.084.183-.234.317-.45.4l-2.1.725-1.7.55-1.525.425c-.35.067-.617.1-.8.1zm7.946 1.675c-.116 0-.233-.017-.35-.05l-.35-.05c-.3-.083-.508-.258-.625-.525-.15-.333-.15-.733 0-1.2.167-.483.434-1.1.8-1.85l.2-.45.225-.475c-.216.083-.45.225-.7.425l-.725.575a.81.81 0 0 1-.55.15c-.216-.033-.391-.125-.525-.275-.116-.167-.158-.35-.125-.55.017-.2.1-.375.25-.525l.725-.55c.267-.2.534-.367.8-.5.684-.35 1.309-.442 1.875-.275.267.05.467.217.6.5.134.267.125.6-.025 1-.133.4-.366.942-.7 1.625l-.275.6-.25.575c-.016.067-.041.125-.075.175l-.05.15c.35-.05.859-.225 1.525-.525.684-.317 1.6-.933 2.75-1.85l1.675-1.4 1.2-1.15.45-.45c.2-.233.442-.308.725-.225.134.017.242.075.325.175a1.29 1.29 0 0 1 .2.25c.117.233.125.508.025.825-.083.3-.266.792-.55 1.475l-.3.65-.25.6-.05.175c0 .033-.008.067-.025.1.317-.05.65-.183 1-.4.367-.233.717-.492 1.05-.775l.875-.725c.167-.15.35-.217.55-.2s.375.1.525.25a.75.75 0 0 1 .175.55c0 .2-.083.375-.25.525l-1.6 1.275c-.533.4-1.075.7-1.625.9-.533.183-1.075.208-1.625.075-.266-.117-.458-.283-.575-.5-.1-.233-.133-.492-.1-.775.05-.283.15-.633.3-1.05l-.575.475-.6.5c-2.3 1.817-4.091 2.725-5.375 2.725zM146.7 202.275a.73.73 0 0 1-.5-.175.68.68 0 0 1-.225-.825c0-.017.058-.217.175-.6l.45-1.3.225-.725.175-.575-1.65.625-2.05.75-2.05.775a.7.7 0 0 1-.55-.025.86.86 0 0 1-.425-.45c-.067-.183-.05-.367.05-.55a.76.76 0 0 1 .425-.425l2.325-.825 2.225-.825 1.675-.65.65-.25c.083-.017.167-.025.25-.025a.34.34 0 0 1 .225.025c.233.033.4.167.5.4.083.133.117.308.1.525 0 .2-.042.492-.125.875l-.2.725-.275.875-.05.175c-.017.05-.033.108-.05.175.667-.367 1.483-.75 2.45-1.15a.64.64 0 0 1 .55 0c.2.067.333.192.4.375.1.183.108.375.025.575a.77.77 0 0 1-.4.425l-2.025.95-1.4.725-.525.275c-.1.083-.225.125-.375.125zm12.792-.25a1.03 1.03 0 0 1-.325-.05c-.317-.067-.542-.258-.675-.575-.1-.283-.075-.6.075-.95a12.42 12.42 0 0 1 .65-1.175l.275-.45.25-.45.075-.125a.83.83 0 0 1 .05-.125c-.5-.083-1.084-.1-1.75-.05-.65.033-1.384.158-2.2.375-.717.183-1.492.425-2.325.725l-2.6 1.025c-.184.067-.367.067-.55 0a.68.68 0 0 1-.4-.375c-.1-.183-.109-.375-.025-.575.083-.217.216-.358.4-.425l2.675-1.075c.866-.317 1.683-.567 2.45-.75 2.05-.517 3.725-.6 5.025-.25a1.13 1.13 0 0 1 .8.7c.15.367.116.775-.1 1.225s-.475.917-.775 1.4c-.017.033-.042.075-.075.125s-.067.108-.1.175c.383-.083.95-.25 1.7-.5l3.1-1.1c.183-.067.366-.05.55.05.2.083.333.225.4.425.083.183.083.375 0 .575-.084.183-.234.317-.45.4l-2.1.725-1.7.55-1.525.425c-.35.067-.617.1-.8.1zm11.646.25a.73.73 0 0 1-.5-.175c-.266-.217-.341-.492-.225-.825 0-.017.059-.217.175-.6l.45-1.3.225-.725.175-.575-1.65.625-2.05.75-2.05.775c-.183.067-.366.058-.55-.025-.2-.1-.341-.25-.425-.45-.066-.183-.05-.367.05-.55a.76.76 0 0 1 .425-.425l2.325-.825 2.225-.825 1.675-.65.65-.25c.084-.017.167-.025.25-.025a.34.34 0 0 1 .225.025c.234.033.4.167.5.4.084.133.117.308.1.525 0 .2-.041.492-.125.875l-.2.725-.275.875-.05.175-.05.175c.667-.367 1.484-.75 2.45-1.15a.64.64 0 0 1 .55 0 .6.6 0 0 1 .4.375c.1.183.109.375.025.575s-.216.342-.4.425l-2.025.95-1.4.725-.525.275c-.1.083-.225.125-.375.125zm12.792-.25c-.116 0-.225-.017-.325-.05-.316-.067-.541-.258-.675-.575-.1-.283-.075-.6.075-.95a12.89 12.89 0 0 1 .65-1.175l.275-.45.25-.45c.034-.05.059-.092.075-.125.017-.05.034-.092.05-.125-.5-.083-1.083-.1-1.75-.05-.65.033-1.383.158-2.2.375-.716.183-1.491.425-2.325.725l-2.6 1.025c-.183.067-.366.067-.55 0s-.316-.192-.4-.375c-.1-.183-.108-.375-.025-.575.084-.217.217-.358.4-.425l2.675-1.075c.867-.317 1.684-.567 2.45-.75 2.05-.517 3.725-.6 5.025-.25.384.1.65.333.8.7s.117.775-.1 1.225-.475.917-.775 1.4c-.016.033-.041.075-.075.125s-.066.108-.1.175c.384-.083.95-.25 1.7-.5l3.1-1.1a.64.64 0 0 1 .55.05.67.67 0 0 1 .4.425c.084.183.084.375 0 .575-.083.183-.233.317-.45.4l-2.1.725-1.7.55-1.525.425c-.35.067-.616.1-.8.1zm11.647.25a.73.73 0 0 1-.5-.175.68.68 0 0 1-.225-.825c0-.017.058-.217.175-.6l.45-1.3.225-.725.175-.575-1.65.625-2.05.75-2.05.775a.7.7 0 0 1-.55-.025.86.86 0 0 1-.425-.45c-.067-.183-.05-.367.05-.55a.76.76 0 0 1 .425-.425l2.325-.825 2.225-.825 1.675-.65.65-.25c.083-.017.167-.025.25-.025a.34.34 0 0 1 .225.025c.233.033.4.167.5.4.083.133.117.308.1.525 0 .2-.042.492-.125.875l-.2.725-.275.875-.05.175c-.017.05-.033.108-.05.175.667-.367 1.483-.75 2.45-1.15a.64.64 0 0 1 .55 0c.2.067.333.192.4.375.1.183.108.375.025.575a.77.77 0 0 1-.4.425l-2.025.95-1.4.725-.525.275c-.1.083-.225.125-.375.125zm12.792-.25a1.03 1.03 0 0 1-.325-.05c-.317-.067-.542-.258-.675-.575-.1-.283-.075-.6.075-.95a12.42 12.42 0 0 1 .65-1.175l.275-.45.25-.45.075-.125a.83.83 0 0 1 .05-.125c-.5-.083-1.084-.1-1.75-.05-.65.033-1.384.158-2.2.375-.717.183-1.492.425-2.325.725l-2.6 1.025c-.184.067-.367.067-.55 0a.68.68 0 0 1-.4-.375c-.1-.183-.109-.375-.025-.575.083-.217.216-.358.4-.425l2.675-1.075c.866-.317 1.683-.567 2.45-.75 2.05-.517 3.725-.6 5.025-.25a1.13 1.13 0 0 1 .8.7c.15.367.116.775-.1 1.225s-.475.917-.775 1.4c-.017.033-.042.075-.075.125s-.067.108-.1.175c.383-.083.95-.25 1.7-.5l3.1-1.1c.183-.067.366-.05.55.05.2.083.333.225.4.425.083.183.083.375 0 .575-.084.183-.234.317-.45.4l-2.1.725-1.7.55-1.525.425c-.35.067-.617.1-.8.1zm9.271-.5a.64.64 0 0 1-.2-.025c-.266-.067-.458-.167-.575-.3a2.19 2.19 0 0 1-.2-.35c-.116-.367-.075-.742.125-1.125.2-.4.459-.817.775-1.25a3.64 3.64 0 0 0 .275-.425l.25-.425a.71.71 0 0 0 .075-.1c-.1.033-.225.083-.375.15-.133.067-.291.167-.475.3-.3.183-.616.425-.95.725l-1.025.9-.275.225-.25.25c-.15.133-.325.2-.525.2-.216-.017-.391-.108-.525-.275a.64.64 0 0 1-.2-.525.75.75 0 0 1 .25-.525l.275-.25.25-.225 1.575-1.325c.517-.417 1.025-.733 1.525-.95s.984-.258 1.45-.125c.284.067.484.183.6.35.134.15.209.283.225.4.15.367.117.758-.1 1.175-.216.4-.491.842-.825 1.325-.033.033-.075.092-.125.175a1.29 1.29 0 0 1-.125.2l.975-.375 1.45-.55c.217-.067.417-.05.6.05.184.083.309.225.375.425.084.183.075.375-.025.575-.083.183-.216.317-.4.4l-1.45.5-1.1.4-.45.175-.325.1-.3.1a1.24 1.24 0 0 1-.25.025zm12.335.5c-.116 0-.225-.017-.325-.05-.316-.067-.541-.258-.675-.575-.1-.283-.075-.6.075-.95a12.89 12.89 0 0 1 .65-1.175l.275-.45.25-.45c.034-.05.059-.092.075-.125.017-.05.034-.092.05-.125-.5-.083-1.083-.1-1.75-.05-.65.033-1.383.158-2.2.375-.716.183-1.491.425-2.325.725l-2.6 1.025c-.183.067-.366.067-.55 0s-.316-.192-.4-.375c-.1-.183-.108-.375-.025-.575.084-.217.217-.358.4-.425l2.675-1.075c.867-.317 1.684-.567 2.45-.75 2.05-.517 3.725-.6 5.025-.25.384.1.65.333.8.7s.117.775-.1 1.225-.475.917-.775 1.4c-.016.033-.041.075-.075.125s-.066.108-.1.175c.384-.083.95-.25 1.7-.5l3.1-1.1a.64.64 0 0 1 .55.05.67.67 0 0 1 .4.425c.084.183.084.375 0 .575-.083.183-.233.317-.45.4l-2.1.725-1.7.55-1.525.425c-.35.067-.616.1-.8.1zm11.647.25a.73.73 0 0 1-.5-.175.68.68 0 0 1-.225-.825c0-.017.058-.217.175-.6l.45-1.3.225-.725.175-.575-1.65.625-2.05.75-2.05.775a.7.7 0 0 1-.55-.025.86.86 0 0 1-.425-.45c-.067-.183-.05-.367.05-.55a.76.76 0 0 1 .425-.425l2.325-.825 2.225-.825 1.675-.65.65-.25c.083-.017.167-.025.25-.025a.34.34 0 0 1 .225.025c.233.033.4.167.5.4.083.133.117.308.1.525 0 .2-.042.492-.125.875l-.2.725-.275.875-.05.175c-.017.05-.033.108-.05.175.667-.367 1.483-.75 2.45-1.15a.64.64 0 0 1 .55 0c.2.067.333.192.4.375.1.183.108.375.025.575a.77.77 0 0 1-.4.425l-2.025.95-1.4.725-.525.275c-.1.083-.225.125-.375.125zm12.792-.25a1.03 1.03 0 0 1-.325-.05c-.317-.067-.542-.258-.675-.575-.1-.283-.075-.6.075-.95a12.42 12.42 0 0 1 .65-1.175l.275-.45.25-.45.075-.125a.83.83 0 0 1 .05-.125c-.5-.083-1.084-.1-1.75-.05-.65.033-1.384.158-2.2.375-.717.183-1.492.425-2.325.725l-2.6 1.025c-.184.067-.367.067-.55 0a.68.68 0 0 1-.4-.375c-.1-.183-.109-.375-.025-.575.083-.217.216-.358.4-.425l2.675-1.075c.866-.317 1.683-.567 2.45-.75 2.05-.517 3.725-.6 5.025-.25a1.13 1.13 0 0 1 .8.7c.15.367.116.775-.1 1.225s-.475.917-.775 1.4c-.017.033-.042.075-.075.125s-.067.108-.1.175c.383-.083.95-.25 1.7-.5l3.1-1.1c.183-.067.366-.05.55.05.2.083.333.225.4.425.083.183.083.375 0 .575-.084.183-.234.317-.45.4l-2.1.725-1.7.55-1.525.425c-.35.067-.617.1-.8.1zm9.271-.5a.64.64 0 0 1-.2-.025c-.266-.067-.458-.167-.575-.3a2.19 2.19 0 0 1-.2-.35c-.116-.367-.075-.742.125-1.125.2-.4.459-.817.775-1.25a3.64 3.64 0 0 0 .275-.425l.25-.425a.71.71 0 0 0 .075-.1c-.1.033-.225.083-.375.15-.133.067-.291.167-.475.3-.3.183-.616.425-.95.725l-1.025.9-.275.225-.25.25c-.15.133-.325.2-.525.2-.216-.017-.391-.108-.525-.275a.64.64 0 0 1-.2-.525.75.75 0 0 1 .25-.525l.275-.25.25-.225 1.575-1.325c.517-.417 1.025-.733 1.525-.95s.984-.258 1.45-.125c.284.067.484.183.6.35.134.15.209.283.225.4.15.367.117.758-.1 1.175-.216.4-.491.842-.825 1.325-.033.033-.075.092-.125.175a1.29 1.29 0 0 1-.125.2l.975-.375 1.45-.55c.217-.067.417-.05.6.05.184.083.309.225.375.425.084.183.075.375-.025.575-.083.183-.216.317-.4.4l-1.45.5-1.1.4-.45.175-.325.1-.3.1a1.24 1.24 0 0 1-.25.025zM143 228.7a1.28 1.28 0 0 1-.35-.05l-.35-.05c-.3-.083-.508-.258-.625-.525-.15-.333-.15-.733 0-1.2.167-.483.433-1.1.8-1.85l.2-.45.225-.475c-.217.083-.45.225-.7.425l-.725.575a.81.81 0 0 1-.55.15c-.217-.033-.392-.125-.525-.275a.72.72 0 0 1-.125-.55c.017-.2.1-.375.25-.525l.725-.55c.267-.2.533-.367.8-.5.683-.35 1.308-.442 1.875-.275.267.05.467.217.6.5.133.267.125.6-.025 1-.133.4-.367.942-.7 1.625l-.275.6-.25.575a.57.57 0 0 1-.075.175l-.05.15c.35-.05.858-.225 1.525-.525.683-.317 1.6-.933 2.75-1.85l1.675-1.4 1.2-1.15.45-.45c.2-.233.442-.308.725-.225.133.017.242.075.325.175.083.083.15.167.2.25.117.233.125.508.025.825-.083.3-.267.792-.55 1.475l-.3.65-.25.6-.05.175c0 .033-.008.067-.025.1.317-.05.65-.183 1-.4.367-.233.717-.492 1.05-.775l.875-.725c.167-.15.35-.217.55-.2s.375.1.525.25c.133.167.192.35.175.55 0 .2-.083.375-.25.525l-1.6 1.275c-.533.4-1.075.7-1.625.9-.533.183-1.075.208-1.625.075-.267-.117-.458-.283-.575-.5-.1-.233-.133-.492-.1-.775.05-.283.15-.633.3-1.05l-.575.475-.6.5c-2.3 1.817-4.092 2.725-5.375 2.725zm20.081-1.675a1.03 1.03 0 0 1-.325-.05c-.317-.067-.542-.258-.675-.575-.1-.283-.075-.6.075-.95a12.42 12.42 0 0 1 .65-1.175l.275-.45.25-.45.075-.125a.83.83 0 0 1 .05-.125c-.5-.083-1.084-.1-1.75-.05-.65.033-1.384.158-2.2.375-.717.183-1.492.425-2.325.725l-2.6 1.025c-.184.067-.367.067-.55 0a.68.68 0 0 1-.4-.375c-.1-.183-.109-.375-.025-.575.083-.217.216-.358.4-.425l2.675-1.075c.866-.317 1.683-.567 2.45-.75 2.05-.517 3.725-.6 5.025-.25a1.13 1.13 0 0 1 .8.7c.15.367.116.775-.1 1.225s-.475.917-.775 1.4c-.017.033-.042.075-.075.125s-.067.108-.1.175c.383-.083.95-.25 1.7-.5l3.1-1.1c.183-.067.366-.05.55.05.2.083.333.225.4.425.083.183.083.375 0 .575-.084.183-.234.317-.45.4l-2.1.725-1.7.55-1.525.425c-.35.067-.617.1-.8.1zm7.946 1.675c-.116 0-.233-.017-.35-.05l-.35-.05c-.3-.083-.508-.258-.625-.525-.15-.333-.15-.733 0-1.2.167-.483.434-1.1.8-1.85l.2-.45.225-.475c-.216.083-.45.225-.7.425l-.725.575a.81.81 0 0 1-.55.15c-.216-.033-.391-.125-.525-.275-.116-.167-.158-.35-.125-.55.017-.2.1-.375.25-.525l.725-.55c.267-.2.534-.367.8-.5.684-.35 1.309-.442 1.875-.275.267.05.467.217.6.5.134.267.125.6-.025 1-.133.4-.366.942-.7 1.625l-.275.6-.25.575c-.016.067-.041.125-.075.175l-.05.15c.35-.05.859-.225 1.525-.525.684-.317 1.6-.933 2.75-1.85l1.675-1.4 1.2-1.15.45-.45c.2-.233.442-.308.725-.225.134.017.242.075.325.175a1.29 1.29 0 0 1 .2.25c.117.233.125.508.025.825-.083.3-.266.792-.55 1.475l-.3.65-.25.6-.05.175c0 .033-.008.067-.025.1.317-.05.65-.183 1-.4.367-.233.717-.492 1.05-.775l.875-.725c.167-.15.35-.217.55-.2s.375.1.525.25a.75.75 0 0 1 .175.55c0 .2-.083.375-.25.525l-1.6 1.275c-.533.4-1.075.7-1.625.9-.533.183-1.075.208-1.625.075-.266-.117-.458-.283-.575-.5-.1-.233-.133-.492-.1-.775.05-.283.15-.633.3-1.05l-.575.475-.6.5c-2.3 1.817-4.091 2.725-5.375 2.725zm29.164-1.425a.73.73 0 0 1-.5-.175c-.266-.217-.341-.492-.225-.825 0-.017.059-.217.175-.6l.45-1.3.225-.725.175-.575-1.65.625-2.05.75-2.05.775c-.183.067-.366.058-.55-.025-.2-.1-.341-.25-.425-.45-.066-.183-.05-.367.05-.55a.76.76 0 0 1 .425-.425l2.325-.825 2.225-.825 1.675-.65.65-.25c.084-.017.167-.025.25-.025a.34.34 0 0 1 .225.025c.234.033.4.167.5.4.084.133.117.308.1.525 0 .2-.041.492-.125.875l-.2.725-.275.875-.05.175-.05.175c.667-.367 1.484-.75 2.45-1.15a.64.64 0 0 1 .55 0 .6.6 0 0 1 .4.375c.1.183.109.375.025.575s-.216.342-.4.425l-2.025.95-1.4.725-.525.275c-.1.083-.225.125-.375.125zm7.342-.75a.64.64 0 0 1-.2-.025c-.267-.067-.458-.167-.575-.3-.1-.15-.167-.267-.2-.35-.117-.367-.075-.742.125-1.125.2-.4.458-.817.775-1.25a3.64 3.64 0 0 0 .275-.425l.25-.425a.71.71 0 0 0 .075-.1c-.1.033-.225.083-.375.15-.133.067-.292.167-.475.3-.3.183-.617.425-.95.725l-1.025.9-.275.225-.25.25c-.15.133-.325.2-.525.2-.217-.017-.392-.108-.525-.275-.15-.15-.217-.325-.2-.525a.75.75 0 0 1 .25-.525l.275-.25a3.17 3.17 0 0 1 .25-.225l1.575-1.325c.517-.417 1.025-.733 1.525-.95s.983-.258 1.45-.125c.283.067.483.183.6.35.133.15.208.283.225.4.15.367.117.758-.1 1.175-.217.4-.492.842-.825 1.325-.033.033-.075.092-.125.175a1.29 1.29 0 0 1-.125.2l.975-.375 1.45-.55c.217-.067.417-.05.6.05a.68.68 0 0 1 .375.425.64.64 0 0 1-.025.575.78.78 0 0 1-.4.4l-1.45.5-1.1.4-.45.175-.325.1-.3.1c-.083.017-.167.025-.25.025zm9.26.75a.73.73 0 0 1-.5-.175.68.68 0 0 1-.225-.825c0-.017.058-.217.175-.6l.45-1.3.225-.725.175-.575-1.65.625-2.05.75-2.05.775a.7.7 0 0 1-.55-.025.86.86 0 0 1-.425-.45c-.067-.183-.05-.367.05-.55a.76.76 0 0 1 .425-.425l2.325-.825 2.225-.825 1.675-.65.65-.25a1.24 1.24 0 0 1 .25-.025.34.34 0 0 1 .225.025c.233.033.4.167.5.4.083.133.116.308.1.525 0 .2-.042.492-.125.875l-.2.725-.275.875-.05.175c-.017.05-.034.108-.05.175.666-.367 1.483-.75 2.45-1.15a.64.64 0 0 1 .55 0c.2.067.333.192.4.375.1.183.108.375.025.575s-.217.342-.4.425l-2.025.95-1.4.725-.525.275c-.1.083-.225.125-.375.125zm7.342-.75c-.084 0-.15-.008-.2-.025-.267-.067-.459-.167-.575-.3-.1-.15-.167-.267-.2-.35-.117-.367-.075-.742.125-1.125.2-.4.458-.817.775-1.25a3.77 3.77 0 0 0 .275-.425l.25-.425c.016-.017.041-.05.075-.1-.1.033-.225.083-.375.15a3.52 3.52 0 0 0-.475.3c-.3.183-.617.425-.95.725l-1.025.9-.275.225-.25.25c-.15.133-.325.2-.525.2-.217-.017-.392-.108-.525-.275-.15-.15-.217-.325-.2-.525.016-.217.1-.392.25-.525l.275-.25c.083-.083.166-.158.25-.225l1.575-1.325c.516-.417 1.025-.733 1.525-.95s.983-.258 1.45-.125c.283.067.483.183.6.35.133.15.208.283.225.4.15.367.116.758-.1 1.175-.217.4-.492.842-.825 1.325-.034.033-.075.092-.125.175a1.37 1.37 0 0 1-.125.2l.975-.375 1.45-.55c.216-.067.416-.05.6.05a.68.68 0 0 1 .375.425.64.64 0 0 1-.025.575c-.084.183-.217.317-.4.4l-1.45.5-1.1.4-.45.175-.325.1-.3.1c-.084.017-.167.025-.25.025zm6.884 0a.64.64 0 0 1-.2-.025c-.266-.067-.458-.167-.575-.3a2.19 2.19 0 0 1-.2-.35c-.116-.367-.075-.742.125-1.125.2-.4.459-.817.775-1.25a3.64 3.64 0 0 0 .275-.425l.25-.425a.71.71 0 0 0 .075-.1c-.1.033-.225.083-.375.15-.133.067-.291.167-.475.3-.3.183-.616.425-.95.725l-1.025.9-.275.225-.25.25c-.15.133-.325.2-.525.2-.216-.017-.391-.108-.525-.275a.64.64 0 0 1-.2-.525.75.75 0 0 1 .25-.525l.275-.25.25-.225 1.575-1.325c.517-.417 1.025-.733 1.525-.95s.984-.258 1.45-.125c.284.067.484.183.6.35.134.15.209.283.225.4.15.367.117.758-.1 1.175-.216.4-.491.842-.825 1.325-.033.033-.075.092-.125.175a1.29 1.29 0 0 1-.125.2l.975-.375 1.45-.55c.217-.067.417-.05.6.05.184.083.309.225.375.425.084.183.075.375-.025.575-.083.183-.216.317-.4.4l-1.45.5-1.1.4-.45.175-.325.1-.3.1a1.24 1.24 0 0 1-.25.025zm12.335.5a1.03 1.03 0 0 1-.325-.05c-.317-.067-.542-.258-.675-.575-.1-.283-.075-.6.075-.95a12.65 12.65 0 0 1 .65-1.175l.275-.45.25-.45.075-.125a.95.95 0 0 1 .05-.125c-.5-.083-1.083-.1-1.75-.05-.65.033-1.383.158-2.2.375-.717.183-1.492.425-2.325.725l-2.6 1.025c-.183.067-.367.067-.55 0s-.317-.192-.4-.375c-.1-.183-.108-.375-.025-.575.083-.217.217-.358.4-.425l2.675-1.075a22.12 22.12 0 0 1 2.45-.75c2.05-.517 3.725-.6 5.025-.25a1.13 1.13 0 0 1 .8.7c.15.367.117.775-.1 1.225s-.475.917-.775 1.4c-.017.033-.042.075-.075.125a1.6 1.6 0 0 0-.1.175c.383-.083.95-.25 1.7-.5l3.1-1.1c.183-.067.367-.05.55.05.2.083.333.225.4.425.083.183.083.375 0 .575-.083.183-.233.317-.45.4l-2.1.725-1.7.55-1.525.425c-.35.067-.617.1-.8.1zm9.272-.5c-.084 0-.15-.008-.2-.025-.267-.067-.459-.167-.575-.3-.1-.15-.167-.267-.2-.35-.117-.367-.075-.742.125-1.125.2-.4.458-.817.775-1.25a3.77 3.77 0 0 0 .275-.425l.25-.425c.016-.017.041-.05.075-.1-.1.033-.225.083-.375.15a3.52 3.52 0 0 0-.475.3c-.3.183-.617.425-.95.725l-1.025.9-.275.225-.25.25c-.15.133-.325.2-.525.2-.217-.017-.392-.108-.525-.275-.15-.15-.217-.325-.2-.525.016-.217.1-.392.25-.525l.275-.25c.083-.083.166-.158.25-.225l1.575-1.325c.516-.417 1.025-.733 1.525-.95s.983-.258 1.45-.125c.283.067.483.183.6.35.133.15.208.283.225.4.15.367.116.758-.1 1.175-.217.4-.492.842-.825 1.325-.034.033-.075.092-.125.175a1.37 1.37 0 0 1-.125.2l.975-.375 1.45-.55c.216-.067.416-.05.6.05a.68.68 0 0 1 .375.425.64.64 0 0 1-.025.575c-.084.183-.217.317-.4.4l-1.45.5-1.1.4-.45.175-.325.1-.3.1c-.084.017-.167.025-.25.025zm12.335.5a1.03 1.03 0 0 1-.325-.05c-.317-.067-.542-.258-.675-.575-.1-.283-.075-.6.075-.95a12.42 12.42 0 0 1 .65-1.175l.275-.45.25-.45.075-.125a.83.83 0 0 1 .05-.125c-.5-.083-1.084-.1-1.75-.05-.65.033-1.384.158-2.2.375-.717.183-1.492.425-2.325.725l-2.6 1.025c-.184.067-.367.067-.55 0a.68.68 0 0 1-.4-.375c-.1-.183-.109-.375-.025-.575.083-.217.216-.358.4-.425l2.675-1.075c.866-.317 1.683-.567 2.45-.75 2.05-.517 3.725-.6 5.025-.25a1.13 1.13 0 0 1 .8.7c.15.367.116.775-.1 1.225s-.475.917-.775 1.4c-.017.033-.042.075-.075.125s-.067.108-.1.175c.383-.083.95-.25 1.7-.5l3.1-1.1c.183-.067.366-.05.55.05.2.083.333.225.4.425.083.183.083.375 0 .575-.084.183-.234.317-.45.4l-2.1.725-1.7.55-1.525.425c-.35.067-.617.1-.8.1zm9.271-.5a.64.64 0 0 1-.2-.025c-.266-.067-.458-.167-.575-.3a2.19 2.19 0 0 1-.2-.35c-.116-.367-.075-.742.125-1.125.2-.4.459-.817.775-1.25a3.64 3.64 0 0 0 .275-.425l.25-.425a.71.71 0 0 0 .075-.1c-.1.033-.225.083-.375.15-.133.067-.291.167-.475.3-.3.183-.616.425-.95.725l-1.025.9-.275.225-.25.25c-.15.133-.325.2-.525.2-.216-.017-.391-.108-.525-.275a.64.64 0 0 1-.2-.525.75.75 0 0 1 .25-.525l.275-.25.25-.225 1.575-1.325c.517-.417 1.025-.733 1.525-.95s.984-.258 1.45-.125c.284.067.484.183.6.35.134.15.209.283.225.4.15.367.117.758-.1 1.175-.216.4-.491.842-.825 1.325-.033.033-.075.092-.125.175a1.29 1.29 0 0 1-.125.2l.975-.375 1.45-.55c.217-.067.417-.05.6.05.184.083.309.225.375.425.084.183.075.375-.025.575-.083.183-.216.317-.4.4l-1.45.5-1.1.4-.45.175-.325.1-.3.1a1.24 1.24 0 0 1-.25.025z" fill="#000"/><path d="M287.751 161.244l132.198-80.72 24.598 37.155-133.958 86.099-62.371 13.287 17.216-24.309 22.317-31.512z" fill="#fff"/><path d="M287.751 161.244l132.198-80.72 24.598 37.155-133.958 86.099m-22.838-42.534l15.478 3.778-4.059 17.489 15.478 3.778-4.059 17.489m-22.838-42.534l-22.317 31.512-17.216 24.309 62.371-13.287" stroke="#000" stroke-width="10" stroke-linecap="round"/><path d="M259.573 198.441l-15.176 18.689c-1.233 1.519.149 3.773 2.004 3.268l23.935-6.512c1.349-.367 1.914-2.025 1.083-3.179l-8.76-12.176c-.757-1.053-2.269-1.097-3.086-.09z" fill="#000"/><g stroke="#000" stroke-width="10"><path d="M445.146 117.297l-24.864-36.888 21.85-13.997 23.403 37.911-20.389 12.974z" fill="#fff"/><path d="M303.229 165.021l124.422-73.642m-113.003 94.91l123.899-77.994" stroke-linecap="round"/></g></svg>