<svg xmlns="http://www.w3.org/2000/svg" width="500" height="500" fill="none" xmlns:v="https://vecta.io/nano"><g fill="#fff"><use href="#B"/><use href="#B"/></g><g stroke="#000" stroke-width="10"><use href="#B"/><use href="#B"/></g><g fill="#fff"><use href="#C"/><use href="#C"/></g><g stroke="#000"><g stroke-width="10"><use href="#C"/><use href="#C"/><g fill="#fff"><path d="M127.187 285.858c-.128 42.725 13.632 75.968 50.93 100.948 38.661 25.893 77.551 28.011 120.152 8.662 38.772-17.609 53.287-44.341 67.953-83.24 16.556-43.908-1.489-119.623-1.489-119.623-38.39 25.323-53.793 44.784-67.856 91.14-36.55-66.973-37.322-105.098-24.237-173.517-68.63 51.747-86.623 91.626-66.619 190.45-36.215-31.006-46.931-49.318-57.603-82.806 0 0-21.148 40.616-21.231 67.986z"/><path d="M209.661 367.581c-.032 12.911 3.99 22.958 14.887 30.512 11.294 7.829 22.652 8.474 35.091 2.632 11.321-5.316 15.557-13.392 19.835-25.145 4.83-13.267-.45-36.149-.45-36.149-11.208 7.647-15.705 13.526-19.806 27.533-10.683-20.243-10.913-31.765-7.1-52.438-20.037 15.628-25.287 27.677-19.432 57.543-10.58-9.374-13.713-14.909-16.834-25.03 0 0-6.171 12.271-6.191 20.542z"/></g></g><path d="M291.015 193.924c.237 5.91 4.138 8.299 6.93 13.547L304.286 219s2.045-9.911 3.834-16.141c2.085-7.266 8.817-12.619 6.34-18.303L308.12 170s-6.928 4.79-10.175 8.935c-3.995 5.101-7.188 8.57-6.93 14.989zm-138.53-48.799c2.397-7.724 8.267-9.533 13.72-15.501l12.247-13.039s-.873 13.795-.775 22.641c.115 10.317 6.89 19.709 1.689 26.362l-13.318 17.037s-7.227-8.717-9.941-15.313c-3.34-8.115-6.225-13.799-3.622-22.187z" fill="#fff" stroke-width="8"/></g><defs ><path id="B" d="M156.114 441.851l178.338-106.45c23.582 8.154 23.337 8.596 19.713 33.026l-178.339 106.45c-23.399-8.074-24.305-8.245-19.712-33.026z"/><path id="C" d="M344.26 446.466L165.922 340.017c-23.582 8.153-23.337 8.595-19.713 33.025l178.338 106.45c23.4-8.074 24.306-8.245 19.713-33.026z"/></defs></svg>