<svg xmlns="http://www.w3.org/2000/svg" width="793.701" height="1122.52" viewBox="0 0 210 297" stroke="#000" xmlns:v="https://vecta.io/nano"><g fill="#fff"><path d="M33.696 221.205a67.558 33.475 0 0 1 33.446-29.301 67.558 33.475 0 0 1 67.936-.08 67.558 33.475 0 0 1 33.728 29.221l-67.556-.245z" stroke-width="5.389" paint-order="stroke fill markers"/><g fill-opacity=".985" stroke-width="5.389"><path d="M111.163 191.607c.162-.422.066-.844-.214-.937-.733-.244.74-4.989 1.528-4.924l1.714.134c.881.066 1.069.463 1.069 2.253 0 3.059-.766 4.241-2.749 4.241-1.207 0-1.564-.203-1.348-.767zm.889-8.576c0-2.143 1.65-5.791 2.317-5.124.313.313 1.013.569 1.556.569.844 0 .937.29.648 2.005-.628 3.724-.733 3.875-2.686 3.875-1.597 0-1.835-.172-1.835-1.326zm2.506-5.999c-.78-.202-.899-.579-.612-1.943.61-2.897 1.93-5.297 2.564-4.663.311.311.984.566 1.494.566.77 0 .878.343.631 2.005-.35 2.354-1.525 4.436-2.454 4.348-.361-.034-1.091-.175-1.624-.313zm3.596-7.387c-.208-.041-.832-.209-1.386-.374-.882-.262-.994-.35-.898-.702.061-.221.164-.723.23-1.115s.193-.759.283-.814.164-.232.164-.39c0-.418 1.109-2.752 1.471-3.095.32-.304.259-.323 2.498.775.156.077.255.253.22.393a35.79 35.79 0 0 0-.25 1.293c-.103.572-.266 1.187-.362 1.368s-.175.545-.175.811c0 .642-1.273 1.955-1.795 1.852zm1.897-6.714c-.204-.118-.714-.317-1.134-.441-.689-.204-.757-.279-.699-.772a4.9 4.9 0 0 1 .304-1.112l.456-1.097c.132-.323.301-.478.434-.396s.166.051.091-.07c-.177-.286 1.003-2.689 1.32-2.689.143 0 .263-.106.266-.236s.11-.062.236.15.374.356.553.318.624.075.992.249c.649.308.849.76.503 1.134-.091.099-.314.647-.495 1.219-.536 1.691-1.354 3.336-1.821 3.663-.511.358-.524.359-1.006.079zm2.9-7.191c-.016-.32-.043-.343-.108-.095-.096.366-.268.418-.541.163-.343-.321-.996-.423-1.085-.171-.047.134-.053-.007-.012-.313s.168-.616.283-.688.16-.211.099-.31.247-.792.686-1.54c.735-1.254 1.204-1.713 2.07-2.026.382-.138.441-.57.094-.699-.161-.06-.133-.131.09-.223.197-.081.439-.021.612.152.157.158.535.341.839.408.749.164.842.536.286 1.136-.255.275-.421.571-.368.656s-.037.475-.2.865c-.21.503-.235.747-.087.838.241.149.061.761-.223.761-.105 0-.482.318-.838.707-.533.581-.679.657-.826.425-.151-.239-.179-.232-.181.049-.004.494-.566.404-.592-.095zm-.794-1.689c-.06-.151-.105-.106-.114.114-.008.199.037.311.099.248s.07-.226.015-.362zm.756-1.323c-.06-.151-.105-.106-.114.114-.008.199.037.311.099.248s.07-.226.015-.362zm2.848-3.207l-1.086-.581c0-.056 1.283-2.559 1.768-3.452.169-.312.308-.673.309-.803 0-.149.279-.236.757-.236.526 0 .756.082.756.267 0 .147.3.576.667.954l.667.687-.483.794-.802 1.449c-.704 1.443-1.152 1.605-2.552.921zm4.879-4.108c-.071-.115-.363-.209-.649-.209-.615 0-1.295-.576-1.461-1.238-.107-.427-.184-.46-.805-.348l-1.051.189c-.423.076-.864-.236-.864-.611 0-.151.196-.26.466-.26.256 0 .859-.133 1.339-.296.615-.209 1.022-.245 1.377-.123.395.136.583.097.868-.176.395-.379.865-.465.865-.157 0 .106.236.174.525.152.7-.053.939.12 1.275.925l.283.676-.735.72c-.404.396-.792.662-.863.592s-.198-.015-.283.123c-.109.176-.194.188-.284.042zm1.216-.987c0-.104-.085-.136-.189-.072s-.189.202-.189.306.085.136.189.072.189-.202.189-.306zm-3.653-2.902c-.468-.468-.385-.97.233-1.41.989-.704 1.782-.369 1.782.753 0 .695-.008.702-.935.851-.58.093-.839.046-1.08-.194z" paint-order="stroke fill markers"/><path d="M108.859 154.614c.061-.178.281-1.038.488-1.911.496-2.088 1.712-4.683 2.848-6.076 1.997-2.448 4.408-4.171 7.066-5.048 2.232-.737 8.207-.646 8.505.129.114.298-.307.702-.669.642-.138-.023-.49.057-.782.177a3.31 3.31 0 0 1-1.049.219c-.284 0-.598.074-.696.165s-.69.319-1.313.508-1.176.391-1.228.45-.605.355-1.228.659l-1.889 1.024c-.415.259-.877.471-1.026.471s-.52.283-.824.63-.663.63-.797.63-.295.133-.357.295-.192.247-.288.188c-.151-.093-1.718 1.279-1.718 1.504 0 .163-1.921 1.981-2.093 1.981-.096 0-.175-.09-.175-.2s-.089-.145-.198-.078c-.135.083-.126.209.027.394.209.252.117.541-.175.549-.304.008-.934.738-.842.977.057.149 0 .24-.133.208s-.261.108-.295.307-.332.624-.665.945c-.366.353-.561.455-.494.26zm.741-.994c.049-.257.016-.422-.073-.367-.157.097-.235.834-.089.834.04 0 .113-.21.162-.467zm.979-1.923c.066-.171.08-.349.033-.397-.15-.15-.489.151-.489.435 0 .371.31.345.457-.038zm-.139-1.237c-.06-.151-.105-.106-.114.114-.008.199.037.311.099.248s.07-.226.015-.362zm2.517-.864c0-.032-.17.032-.378.143s-.378.284-.378.383.17.035.378-.143.378-.35.378-.383zm1.49-1.949c-.303-.187-.441-.088-.268.193.07.113.215.15.323.083.127-.078.108-.176-.055-.276zm-1.418-1.225c.064-.168.033-.244-.074-.178s-.187.195-.187.293c0 .272.135.212.261-.115zm5.924-1.333c-.063-.063-.226-.07-.362-.015-.151.06-.106.105.114.114.199.008.311-.036.248-.099zm-3.729-.442c0-.098-.085-.23-.189-.295s-.189.016-.189.178.085.295.189.295.189-.08.189-.178zm.756-.684c0-.162-.086-.241-.192-.176s-.143.198-.083.295c.162.262.275.213.275-.119zm2.173-1.217c.065-.105-.076-.188-.32-.186-.351.002-.381.039-.153.186.352.227.332.227.472 0zm.61-.492c-.063-.063-.226-.07-.362-.015-.151.06-.106.105.114.114.199.008.311-.036.248-.099zm1.374-.453c.38-.122.398-.152.094-.157a2.2 2.2 0 0 0-.756.157c-.482.207.015.207.661 0zm-11.678 11.148c-.306-1.786-.286-3.588.058-5.24.331-1.589.949-3.34 1.417-4.017.18-.26.385-.662.457-.894s.466-.781.875-1.22.744-.866.744-.948.084-.15.186-.15.567-.276 1.034-.614c.564-.408.825-.725.777-.945s.045-.331.291-.331a1.67 1.67 0 0 0 .691-.186c1.376-.778 4.996-1.164 6.408-.683.476.162.942.247 1.037.189s.471.071.838.287.786.393.932.393c.419 0 1.629.6 2.405 1.192.477.364.709.691.709 1.001 0 .411-.055.445-.52.315-.286-.08-1.829-.143-3.43-.141s-2.706-.053-2.457-.123c.351-.098.275-.131-.338-.146-.436-.01-.839.057-.896.149s-.389.221-.738.287-.984.288-1.41.494-.908.375-1.069.375-.293.075-.293.166-.237.264-.526.384c-.652.27-3.557 3.104-3.938 3.842-.154.298-.441.703-.638.899-.589.589-1.365 2.405-1.222 2.858.086.271.059.361-.081.274-.121-.075-.221.015-.237.213l-.05.625c-.025.321-.699 3.024-.754 3.024-.02 0-.138-.597-.263-1.326zm15.506-12.419a10.82 10.82 0 0 0-1.606 0c-.442.04-.08.072.803.072s1.245-.032.803-.072zm-21.403-.345c0-.125.128-.333.284-.462s.283-.354.283-.498c0-.246.283-.833.62-1.288l.903-1.238c1.009-1.388 2.556-2.963 3.485-3.548l.85-.59c.58-.697 3.829-1.912 5.364-2.007.508-.031.975-.14 1.039-.241.185-.293 3.571.241 4.746.75 2.045.884 2.754 1.364 4.253 2.875 2.013 2.03 2.739 2.988 2.739 3.609 0 .157.077.286.172.286.255 0 1.011 1.657.865 1.894-.075.121-.759-.404-1.68-1.288-1.664-1.597-3.063-2.512-5.027-3.285-2.142-.844-3.137-1.007-6.142-1.007-3.07 0-4.672.33-6.497 1.338-.455.251-.901.457-.992.457-.367 0-2.241 1.481-3.709 2.93-.858.847-1.559 1.437-1.559 1.312zm1.89-2.458c0-.162-.086-.241-.192-.176s-.143.198-.083.295c.162.262.275.213.275-.119zm23.937.129c-.258-.819-.671-1.818-.917-2.221l-.656-1.204c-.114-.26-.635-1.006-1.158-1.657-3.081-3.838-7.158-5.849-12.607-6.218l-2.079-.141 1.323-.16c2.505-.304 6.141.389 8.385 1.597 2.362 1.272 5.131 3.658 4.823 4.157-.076.122-.048.162.065.092.595-.368 3.021 4.285 3.359 6.442.193 1.232-.021.959-.539-.686z" paint-order="stroke fill markers"/><path d="M128.051 138.731c-.975-2.046-1.549-2.852-3.282-4.601-1.583-1.598-2.151-2.036-3.497-2.697-1.56-.766-3.806-1.349-5.198-1.349-.346 0-.657-.075-.692-.166-.118-.312-5.335-2.275-6.075-2.286-.21-.003-.29-.089-.207-.223s.052-.167-.094-.077c-.293.181-1.201-.04-1.065-.26.099-.16 1.523-.627 2.622-.859.347-.073.493-.044.414.084-.067.108-.367.197-.666.197s-.584.064-.633.142.512.113 1.246.078c1.712-.082 4.66.261 6.412.747 4.975 1.379 9.128 5.356 10.836 10.377.535 1.573.521 1.508.321 1.508-.082 0-.281-.276-.442-.614zm-14.012-10.083c-.063-.063-.226-.07-.362-.015-.151.06-.106.105.114.114.199.008.311-.036.248-.099z" paint-order="stroke fill markers"/><path d="M129.046 138.188c-.052-.632-.768-2.568-1.353-3.663-.824-1.539-2.511-3.722-3.51-4.541l-1.072-.923c-.499-.499-2.934-1.763-4.312-2.239-.776-.268-2.217-.574-3.202-.679-1.78-.19-5.179-.141-5.932.085-.743.224-.033-.22 1.032-.644 5.973-2.381 11.464-1.903 15.278 1.331.335.284.644.699.687.923.088.459.279.724.279.388 0-.121.085-.22.189-.22s.189.175.189.389.076.342.168.285c.236-.146.827.811.702 1.136-.06.157.013.268.178.268.154 0 .4.276.545.614l.568 1.312c.3.69.246 2.123-.088 2.329-.08.049-.497-.621-.927-1.489s-.992-1.776-1.248-2.016-.466-.514-.466-.608c0-.383-2.94-2.845-4.297-3.6-.986-.548-2.696-1.077-3.481-1.077-.4 0-.726-.085-.726-.189 0-.11-.571-.181-1.37-.171l-1.37.018 1.228.251c2.229.455 2.728.596 3.969 1.119a19.21 19.21 0 0 1 2.173 1.102c1.055.652 3 2.573 4.064 4.013.866 1.172 1.889 3.207 1.889 3.756 0 .226.115.579.255.784.181.265.216.646.12 1.318-.074.52-.146.807-.16.639zm-14.955-12.723c0-.199-.363-.283-.471-.109-.065.106.014.192.176.192s.295-.037.295-.083z" paint-order="stroke fill markers"/><path d="M130.412 139.817c-.06-.156-.261-.283-.446-.283-.454 0-.566-.366-.572-1.858-.01-2.559-1.323-5.242-3.909-7.983-1.396-1.48-2.792-2.464-4.575-3.224-1.446-.617-1.17-.728.362-.146 2.71 1.029 5.542 3.76 7.169 6.912.736 1.426 1.067 1.608 1.312.721.099-.357.135-.815.082-1.019-.058-.222.062-.541.3-.796.218-.234.397-.601.398-.815.003-.566.608-1.389.944-1.28.156.05.22.024.143-.059s-.045-.264.07-.404c.156-.188.152-.254-.016-.254-.126 0-.032-.239.213-.539s.546-.5.676-.452.247-.007.26-.122l.052-.445c.016-.13.181-.223.367-.208s.29-.021.23-.081c-.224-.224.675-.945 1.056-.846.274.072.362.017.318-.198-.034-.163.014-.295.106-.293s.236-.106.318-.24.347-.254.588-.266c.851-.045 1.503-.317 1.4-.585-.074-.193.089-.26.634-.26.404 0 .763-.083.797-.185.177-.52 6.625-.512 6.964.009.054.082.224.142.378.133.669-.039.959.053.83.262-.084.137-.052.167.088.081.123-.076.487-.08.81-.009.45.099.526.172.326.313-.188.132-.129.155.213.082.513-.11.821.028.896.402.036.178-.506.236-2.213.236-4.667 0-7.72.843-10.213 2.819-.468.371-1.059.879-1.313 1.13-.281.276-.491.37-.535.238-.04-.12-.214-.215-.388-.212-.28.005-.277.035.03.268.324.245.276.345-.763 1.581-.609.726-1.348 1.795-1.642 2.376s-.602 1.015-.685.964-.105.078-.051.287.016.485-.086.614-.337.865-.522 1.634c-.26 1.081-.288 1.478-.12 1.746.267.428.272.541.021.541-.107 0-.244-.128-.304-.283zm2.389-10.405c0-.162-.086-.241-.192-.176s-.143.198-.083.295c.162.262.275.213.275-.119zm4.673-1.52c-.063-.063-.226-.07-.362-.015-.151.06-.106.105.114.114.199.008.311-.037.248-.099zm10.401-2.095a2.07 2.07 0 0 0-.756-.004c-.235.045-.087.084.329.086s.608-.035.427-.082zm-2.034-.437c-.156-.101-.454-.176-.661-.167-.311.013-.295.043.095.167.668.214.898.214.567 0zm-6.567-.125a.73.73 0 0 0-.472 0c-.13.052-.024.095.236.095s.366-.043.236-.095zm2.504-.82c.238-.102.273-.162.095-.162a2.08 2.08 0 0 0-.661.162c-.238.102-.273.162-.095.162a2.08 2.08 0 0 0 .661-.162zm-9.65 12.039c-.119-.311.634-1.733 1.709-3.227 1.2-1.668 2.024-2.476 4.118-4.041 1.246-.931 2.136-1.295 5.051-2.063 1.263-.333 8.141-.682 8.401-.427.112.11.037.176-.2.176-.209 0-.545.125-.746.277s-.494.281-.65.284c-.337.008-2.323.801-2.679 1.069-.137.103-.866.424-1.619.712s-1.417.602-1.476.697-.553.173-1.098.173c-1.242 0-3.445.658-4.976 1.487-1.523.824-3.505 2.508-4.67 3.967l-.998 1.161c-.039 0-.113-.11-.165-.245z" paint-order="stroke fill markers"/><path d="M131.1 139.759c0-1.153 2.289-4.312 4.48-6.181 2.249-1.919 4.129-2.781 6.991-3.205 1.497-.222 1.929-.219 3.118.02 1.604.322 3.192.8 3.45 1.038.099.091.301.166.45.166s.685.298 1.191.661.984.662 1.062.662.879.717 1.781 1.594c1.53 1.486 3.141 3.611 2.912 3.839-.055.055-.464-.194-.909-.553-2.75-2.225-5.312-3.337-8.84-3.835-1.591-.225-2.312-.239-3.638-.071-.91.115-1.654.277-1.654.36s-.489.21-1.087.283c-2.564.312-5.575 1.968-8.126 4.47-.975.956-1.181 1.087-1.181.752z" paint-order="stroke fill markers"/><path d="M131.1 140.904c0-.355 3.143-3.115 4.451-3.909 1.458-.885 3.705-1.853 4.792-2.063.354-.069.76-.221.902-.339.35-.29 4.226-.418 5.637-.186 3.45.567 7.1 2.355 9.383 4.594 1.16 1.138 1.01 1.331-.649.838-2.731-.811-4.773-1.135-8.703-1.38-1.774-.111-4.423.096-6.74.526-.572.106-1.845.273-2.829.371-1.812.18-3.414.523-4.447.951l-.661.267c-.199.068-.857.345-.992.418-.078.042-.142.003-.142-.087z" paint-order="stroke fill markers"/><path d="M145.463 157.955c0-.104.178-.656.395-1.226.541-1.417.583-4.488.086-6.234-1.195-4.199-3.856-7.007-8.219-8.673-1.099-.42-1.534-.474-3.857-.483l-2.617-.01.816-.356c1.762-.768 3.284-1.098 5.437-1.178 1.903-.071 2.334-.024 3.722.399.863.263 1.696.605 1.85.759s.399.281.544.281c.302 0 1.654 1.104 2.544 2.077 1.958 2.141 2.881 5.88 2.142 8.678-.099.374-.219.892-.267 1.152-.116.626-.838 2.222-1.07 2.366-.101.062-.184.239-.184.393s-.298.722-.661 1.262-.661.897-.661.793zm-1.139-.042c-.6-2.965-1.969-6.358-3.256-8.071-.39-.519-.709-.999-.709-1.067 0-.268-2.43-2.572-3.442-3.264-.589-.403-1.113-.841-1.164-.973s-.438-.299-.861-.371-.819-.213-.882-.314-.323-.264-.579-.361-.413-.262-.348-.366.029-.189-.079-.189-.249-.208-.312-.462-.257-.499-.429-.545.41-.092 1.294-.103c1.277-.016 1.962.091 3.339.521.953.298 1.987.722 2.297.943s.621.402.69.402c.244 0 1.529 1.045 2.319 1.887 1.046 1.114 2.315 2.952 2.324 3.364.004.179.128.537.277.797s.273.689.277.954.105.58.225.7c.228.228.526 3.934.335 4.166-.098.119-.318.816-.654 2.07-.065.243-.029.425.084.425.133 0 .127.155-.018.472-.325.714-.484.579-.726-.614zm-4.909-12.331c0-.104-.037-.189-.083-.189s-.136.085-.2.189-.027.189.083.189.2-.085.2-.189zm-4.914-2.268c0-.104-.128-.189-.283-.189s-.283.085-.283.189.128.189.283.189.283-.085.283-.189zm-51.102 51.14c-.67-.248-.834-1.18-.797-4.521l.178-4.795c.055-.055 1.14-.114 2.411-.131s2.355-.102 2.41-.191.276.015.492.231c.269.269.443.787.555 1.647.252 1.946.433 6.492.288 7.262l-.13.692-2.508-.025-2.898-.169zm-.28-11.844c-.401-.645-.449-.983-.535-3.78l.028-3.071c.068 0 .087-.384.043-.854l-.08-.854 1.754.031c.965.017 1.943-.029 2.173-.102 1.286-.408 2.128 2.208 2.128 6.611v2.728h-2.536-2.536zm-.959-10.614c-.365-.85-.487-2.063-.597-5.923-.047-1.641-.003-2.643.118-2.719.106-.065.926-.106 1.823-.09 1.03.018 1.805-.063 2.103-.219.439-.23.509-.202.981.387.29.362.604 1.091.729 1.696.247 1.19.713 7.423.561 7.499-.054.027-1.289.069-2.744.093l-2.646.043zm-.198-10.584c-.604-.737-.961-2.724-1.177-6.554l-.129-2.286 1.295-.126c2.009-.196 2.33-.26 2.662-.53.268-.218.293-.207.186.079-.082.218-.032.331.145.331.278 0 .917 1.256 1.119 2.201s.5 3.508.604 5.2l.101 1.637-1.194.106c-2.911.258-3.359.25-3.611-.057zm-1.315-10.047c-.182-.106-.331-.316-.331-.467s-.074-.274-.164-.274c-.173 0-.208-.207-.674-3.969l-.499-3.366c-.114-.552-.164-1.114-.113-1.248.056-.145.598-.296 1.341-.372.686-.07 1.47-.213 1.742-.316.886-.337 1.505.112 1.849 1.338.365 1.303.367 1.87.008 2.346-.153.202-.277.563-.277.803s-.085.436-.189.436-.189.213-.189.472-.085.472-.189.472c-.31 0-.214.947.108 1.071.163.063.543-.067.843-.289.883-.653.974-.577 1.214 1.014.295 1.958.292 2.091-.045 2.116-.178.013-.877.115-1.553.226-1.535.252-2.455.254-2.882.005zm-1.786-10.663c-.548-.383-.986-1.893-1.864-6.425-.161-.832-.367-1.586-.457-1.677s-.119-.282-.064-.425c.062-.161-.034-.266-.251-.275-.201-.009-.249-.056-.114-.111s.186-.179.123-.281 0-.164.141-.137c.445.084 2.702-.504 3.061-.798s1.233.485 1.46 1.296c.125.446.293.852.374.902s.205.437.277.861.249.997.393 1.275.264.69.264.917.096.652.212.945c.405 1.021.736 3.343.499 3.49-.178.11-3.198.729-3.549.728-.055 0-.282-.128-.505-.284z" paint-order="stroke fill markers"/><path d="M75.733 130.233c-.182-.184-.331-.435-.331-.556s-.069-.22-.153-.22-.394-.872-.689-1.937-.651-2.105-.792-2.31c-.325-.474-.331-1.045-.01-1.045.329 0 1.336-1.078 1.722-1.843.308-.611.563-.763.757-.45.056.091.369.218.695.283.477.095.574.193.494.497-.054.208-.035.339.044.29.195-.12.438.411 1.25 2.734l1.063 2.806c.203.452.342.844.309.872-.307.257-1.209.579-2.46.878l-1.534.347c-.019-.006-.184-.162-.366-.347zm-5.103-7.498c-.286-.155-.52-.369-.52-.476s-.07-.151-.155-.098c-.158.097-.528-.286-.9-.932-.122-.212-.42-.359-.739-.363-.294-.004-.57-.114-.614-.244-.046-.136.079-.236.294-.236.344 0 .658-.307 1.892-1.851.292-.365.735-.619 1.323-.759.824-.196.911-.181 1.282.233.535.597 1.072.865 1.734.865a3.06 3.06 0 0 1 1.099.262c.302.144 1.144.318 1.872.387s1.347.194 1.377.277.263.112.52.063c.281-.054.466-.001.466.133a.11.11 0 0 1-.189.105c-.104-.064-.189.001-.189.146 0 .597-1.751 1.01-2.542.599-.84-.436-1.118-.334-1.62.594-.321.594-.702.98-1.213 1.228-.892.434-2.439.466-3.177.065zm2.741-5.226c-.234-.113-.425-.353-.425-.534a.5.5 0 0 0-.283-.438c-.155-.06-.274-.303-.262-.54.016-.32.044-.346.108-.1.116.443.383.419.531-.047.066-.208.242-.378.391-.378.359 0 .349.549-.013.688-.156.06-.283.184-.283.275 0 .266.629.927.881.927.127 0 .283.085.347.189.152.246-.448.221-.992-.042z" paint-order="stroke fill markers"/><path d="M74.539 117.761c.057-.092-.199-.399-.568-.68-.618-.472-.648-.538-.376-.839.373-.412.377-.75.012-.89-.156-.06-.283-.227-.283-.372 0-.191.266-.263.964-.263.834 0 1.037.079 1.512.587.302.323.548.761.548.974 0 .624-.894 1.651-1.438 1.651-.261 0-.427-.076-.37-.168zm-25.085 23.177c-.975-.961-1.892-1.969-2.039-2.24-1.657-3.058-2.062-4.511-2.062-7.407 0-5.813 3.383-11.701 8.816-15.346.699-.469 1.342-.852 1.431-.852s.37-.137.626-.305c.837-.548 3.549-1.389 5.191-1.609 1.419-.19 1.832-.17 3.54.173 2.058.413 3.976 1.224 5.732 2.423 1.861 1.271 1.692 1.479-.968 1.187-2.074-.228-5.515-.121-6.98.217-3.53.813-6.91 2.917-9.267 5.766-1.096 1.325-2.828 4.15-2.828 4.613 0 .171-.072.392-.159.491-.17.192-.683 2.148-.889 3.392-.19 1.145-.115 4.967.119 6.142.308 1.541.74 2.808 1.339 3.926.294.548.534 1.037.534 1.087 0 .326-.583-.126-2.136-1.658zm-3.216-13.406c-.06-.151-.105-.106-.114.114-.008.199.036.311.099.248s.069-.226.015-.362z" paint-order="stroke fill markers"/><path d="M51.518 142.025c-.288-.624-.562-1.504-.608-1.957s-.166-.976-.266-1.164c-.3-.561-.611-3.972-.482-5.29.196-1.996 1.009-4.887 1.888-6.709.821-1.701 2.826-4.246 4.285-5.437 1.087-.887 2.875-2.013 3.038-1.912.085.053.155.015.155-.083 0-.379 3.413-1.545 5.575-1.905 1.709-.285 6.388-.415 5.673-.158-.31.111-.677.316-.817.455s-.311.255-.381.257-.383.387-.695.854c-.4.599-.762.906-1.228 1.04-.618.177-1.439.578-3.423 1.67-1.072.59-3.013 2.066-4.226 3.214-1.006.952-3.501 3.879-3.501 4.108 0 .072-.196.394-.436.715a8.15 8.15 0 0 0-.736 1.246l-.863 1.89c-.31.676-.752 1.866-.984 2.646l-.574 1.795c-.213.526-.561 2.913-.583 4.005-.01.5-.079 1.121-.152 1.381-.122.433-.177.378-.657-.661zm18.414-27.066c-.254-.245-.573-.402-.709-.35s-.247.031-.247-.048c0-.251-1.144-.827-1.427-.719-.151.058-.274.026-.274-.071 0-.222-1.457-.624-1.705-.471-.102.063-.185.014-.185-.108 0-.135-.185-.187-.472-.132-.26.05-.472.027-.472-.05 0-.192-3.203-.165-3.322.028-.108.174-.224.157-3.576-.521-2.06-.417-3.114-.511-6.52-.584-4.969-.106-8.516.282-12.473 1.365l-2.535.679c-.407.103-.832.248-.945.32s-.546.227-.961.343-.905.274-1.087.352c-1.256.539 1.42-2.178 4.024-4.084.83-.608 1.559-1.106 1.619-1.106s.36-.178.666-.396c.326-.232.687-.345.874-.273.175.067.258.061.183-.013s.026-.227.223-.341c1.444-.832 2.389-1.243 2.821-1.226l.504.019-.472.151c-.292.094-.351.159-.154.17.175.01.555-.071.844-.181.397-.151.462-.239.265-.361-.186-.115-.05-.219.479-.366.915-.254 1.212-.26 1.212-.024s.607.008.861-.33c.41-.546 8.211-.717 8.211-.18 0 .1.228.139.507.085a1.91 1.91 0 0 1 .898.059 7.93 7.93 0 0 0 .958.285c.514.117.532.145.189.296-.273.121-.206.136.244.056.357-.064.734-.018.884.107.144.12.533.252.864.294.725.092 1.693.499 1.693.713 0 .085.077.107.17.049.211-.131 1.805.756 1.838 1.023.053.44.084.466.247.208.138-.218.426-.097 1.503.633.733.496 1.314.99 1.291 1.097s.14.212.362.232c.503.046 3.984 3.455 3.741 3.664-.097.083-.383-.049-.637-.294zm-13.189-7.927c-.128-.052-.383-.055-.567-.007s-.079.09.233.094.462-.035.334-.087z" paint-order="stroke fill markers"/><path d="M70.96 114.798c-3.228-3.73-7.439-6.567-11.622-7.831-.78-.236-1.587-.494-1.795-.575-1.548-.603-6.275-.909-8.824-.571-1.768.234-4.43.866-6.01 1.428-1.061.377-4.615 2.264-5.427 2.881-.342.26-.705.4-.832.321-.136-.084-.177-.06-.102.062.148.24-1.275 1.42-1.473 1.222-.075-.075-.108-.046-.074.065s-.554.806-1.307 1.545-1.37 1.239-1.37 1.112a.73.73 0 0 1 .156-.411c.086-.099.27-.562.409-1.03.396-1.328 2.08-4.25 2.08-3.608 0 .126.074.183.165.126s.165-.303.165-.55c0-.521.772-1.491 1.05-1.319.104.064.137.032.073-.071-.124-.2 2.149-2.516 2.469-2.516.104 0 .298-.132.431-.292 1.069-1.288 7.985-3.922 9.425-3.589.369.085.42.066.206-.079-.31-.21.642-.252 4.536-.201 6.429.084 12.767 3.177 16.469 8.035.475.624 1.043 1.485 1.261 1.914s.512.824.652.878.36.446.487.871.33.753.451.728.272.21.338.522c.091.431.019.68-.302 1.039-.232.26-.451.637-.487.838-.052.29-.299.096-1.2-.945z" paint-order="stroke fill markers"/><path d="M69.09 107.694c-.167-.238-.303-.36-.303-.273s-.127.055-.281-.074-.227-.322-.16-.43.035-.143-.071-.078-.345-.049-.531-.254-.271-.374-.189-.374-.067-.17-.331-.378-.553-.378-.641-.378-.269-.173-.402-.385-.314-.34-.404-.285-.214-.032-.276-.194-.199-.241-.303-.177-.19.031-.19-.075c0-.231-1.501-1.136-2.064-1.245a1.58 1.58 0 0 1-.693-.371c-.253-.253-.731-.389-.881-.25-.026.024-.258-.103-.515-.283s-.661-.327-.898-.327-.43-.076-.43-.168c0-.197-1.45-.52-2.882-.641-.182-.015-.331-.083-.331-.15s-.457-.169-1.016-.227-1.176-.192-1.37-.299c-.907-.496-3.633-1.728-3.824-1.728-.118 0-.215-.085-.215-.189s-.125-.189-.278-.189-.728-.206-1.279-.458l-2.037-.856-1.414-.571c-1.401-.643-2.192-.95-2.446-.95-.162 0-.294-.085-.294-.189s-.128-.189-.283-.189-.283-.085-.283-.189c0-.113.627-.178 1.559-.161 1.279.023 1.407.05.709.148-.493.069.936.169 3.402.237 5.04.14 8.05.619 10.772 1.714 1.458.586 4.214 2.299 4.952 3.077.239.252.516.46.616.462.594.011 5.583 6.072 5.583 6.783 0 .18.101.427.224.55s.174.273.114.334-.246-.085-.413-.322z" paint-order="stroke fill markers"/><path d="M112.341 115.945c-.39-.911-1.863-2.639-3.707-4.347s-2.404-2.173-2.614-2.173c-.105 0-.191-.067-.191-.15 0-.136-1.312-.95-3.024-1.876-.917-.496-3.645-1.496-5.008-1.836-5.309-1.324-11.164-.601-16.253 2.008-1.033.53-3.077 1.789-3.307 2.037-.052.056-.435.349-.85.651s-1.406 1.214-2.201 2.026c-1.224 1.251-1.481 1.434-1.677 1.198a.83.83 0 0 0-.548-.279c-.174 0-.405-.088-.513-.196-.135-.135-.356-.135-.712 0-.797.303-1.058.242-1.058-.248 0-.244-.168-.637-.372-.873s-.427-.611-.495-.832a2.39 2.39 0 0 0-.414-.735c-.16-.183-.24-.383-.178-.446.159-.159-1.054-3.449-1.677-4.551l-.722-1.286c-1.179-2.14-3.992-5.225-6.369-6.989-1.889-1.401-3.595-2.258-5.802-2.913-3.169-.941-4.364-1.062-10.103-1.022-2.887.02-5.209-.029-5.159-.109s.434-.301.855-.49.765-.41.765-.49c0-.162 1.121-.466 1.417-.385.104.028.126-.011.05-.087s.082-.254.352-.394c.599-.311.699-.318.527-.041-.081.131-.03.177.131.118.144-.052.242-.19.216-.305s.187-.259.472-.32.713-.19.95-.286c1.743-.706 6.196-1.1 8.571-.759 2.298.33 4.016.794 3.716 1.003-.165.115-.112.134.161.057.424-.119 2.96.785 2.824 1.006-.041.067.11.133.337.147.464.028 1.903.938 1.679 1.062-.079.044-.042.056.083.026.381-.091 1.264.444 2.05 1.241.411.417.839.76.951.761.316.005 1.046.863.885 1.04-.079.087-.047.103.071.036s.605.325 1.109.903c1.047 1.2 2.247 2.936 2.036 2.944-.081.003.003.092.184.198a.71.71 0 0 1 .331.541c0 .192.128.397.283.457a.46.46 0 0 1 .284.389c0 .154.149.367.331.473.204.119.236.195.083.198-.136.003-.197.087-.136.186s.246.129.411.066c.236-.09.272-.029.171.29-.079.248-.014.568.167.827.163.232.296.616.296.852 0 .697.262.501.881-.656l.936-1.746c.196-.363.547-.848.781-1.078s.425-.491.425-.581.255-.407.567-.706.567-.64.567-.759c0-.228 2.138-2.36 2.367-2.36.074 0 .413-.234.753-.52 1.052-.883 1.484-1.181 1.714-1.181.122 0 .328-.128.457-.283a.87.87 0 0 1 .581-.283c.19 0 .413-.106.497-.236.191-.298.982-.606 3.364-1.31 1.629-.481 2.269-.568 4.63-.625 1.949-.048 2.304-.029 1.228.066-.832.073-1.621.201-1.755.284s-.792.229-1.464.324-1.539.343-1.928.552-.978.379-1.308.379-.63.064-.664.142-.658.452-1.386.83c-2.189 1.139-2.579 1.371-3.096 1.838a78.19 78.19 0 0 1-1.534 1.323c-.572.482-1.118 1.003-1.215 1.159s-.415.509-.709.785-.533.587-.533.693-.069.22-.154.255c-.264.108-1.925 2.598-1.925 2.886 0 .15-.085.326-.189.39-.239.148-.844 1.477-1.101 2.418-.136.5-.135.893.006 1.296.12.343.132.628.029.7-.095.067-.191.83-.215 1.696-.052 1.945.158 1.959 1.106.075.614-1.22 1.071-1.842 2.6-3.54.459-.51 2.102-1.992 2.583-2.33 1.108-.779 3.137-1.888 4.63-2.53 1.652-.711 5.755-1.688 6.011-1.432.094.094.637.091 1.258-.007 1.546-.242 5.717.077 7.264.556 2.363.732 4.026 1.366 4.3 1.64.151.151.323.225.382.166.103-.103 2.13 1.098 2.331 1.38.052.073.233.211.403.306.761.427 1.849 1.465 1.738 1.66-.067.118-.053.151.031.075.172-.156 1.041.704 1.041 1.03 0 .116.056.155.123.087.177-.177 1.021 1.024.88 1.252-.065.104-.04.143.053.086s.281.015.415.16.177.265.094.267-.054.065.061.142.568.904 1.005 1.84l.971 2.029c.097.18.176.484.176.675s.134.741.299 1.224c.317.93.297 1.924-.024 1.175zm-.944-3.483c.06-.097.022-.229-.083-.295s-.192.014-.192.176c0 .332.113.381.275.119zM92.36 100.428c-.063-.063-.226-.07-.362-.015-.151.06-.106.105.114.114.199.008.311-.037.248-.099zm-28.675-6.773c0-.046-.085-.136-.189-.2s-.189-.027-.189.083.085.2.189.2.189-.037.189-.083z" paint-order="stroke fill markers"/><path d="M75.78 111.35c0-.127.075-.378.167-.558s.368-.796.612-1.368l.545-1.134c.055-.052.194-.309.309-.572s.623-1.055 1.13-1.762l1.108-1.649c.103-.2.251-.364.331-.364s.144-.081.144-.18c0-.265 2.403-2.575 3.496-3.362l1.134-.892c.496-.557 3.908-2.296 5.67-2.891 3.425-1.156 5.258-1.423 8.959-1.307l3.676.233c.35.088.589.055.681-.094.179-.29 1.426-.079 1.811.306.15.15.358.22.463.155s.19-.042.19.051-.446.262-.992.377l-3.922 1.027-2.268.727-2.74.951-1.323.573c-.312.136-.652.253-.756.259s-.754.328-1.446.715a10.67 10.67 0 0 1-2.646.995c-4.413.928-7.802 2.657-10.717 5.47-.973.938-2.184 2.34-2.693 3.114s-.925 1.305-.925 1.179zm16.58-10.922c-.063-.063-.226-.07-.362-.015-.151.06-.106.105.114.114.199.008.311-.037.248-.099zm12.662-4.725c-.063-.063-.226-.07-.362-.015-.151.06-.106.105.114.114.199.008.311-.037.248-.099z" paint-order="stroke fill markers"/><path d="M75.528 109.109c-.069-.069-.126-.491-.126-.937 0-.604.241-1.277.938-2.627 2.087-4.038 5.134-7.227 8.746-9.155 1.013-.54 1.89-1.06 1.948-1.155s.292-.173.517-.173 1.05-.204 1.831-.454c1.771-.566 3.855-1.011 5.579-1.191l1.323-.138-.945-.124c-.52-.068-2.051-.056-3.402.027-2.03.125-2.822.268-4.559.826-1.156.371-2.208.802-2.338.959s-.385.284-.568.284-.438.128-.567.283-.341.283-.469.283c-.395 0-2.368 1.534-3.773 2.934-1.706 1.699-2.968 3.347-4.06 5.301l-.868 1.554-.319-.747c-.175-.411-.272-.869-.215-1.019s-.031-.324-.198-.388c-.263-.101-.241-.217.171-.899.26-.431.564-.76.674-.731s.148-.034.084-.138c-.141-.228.232-.988.589-1.199.141-.083.256-.232.256-.331 0-.442 3.784-4.232 5.309-5.317 1.406-1.001 5.357-3.029 6.024-3.093.055-.005.572-.151 1.147-.324s1.809-.405 2.74-.515l1.977-.24c.156-.022 1.249.073 2.429.212 2.216.26 4.084.805 5.887 1.716 1.229.621 3.712 2.205 3.878 2.475.138.224-.953.139-2.744-.213-.726-.143-2.657-.242-4.725-.242-2.98-.001-3.748.061-5.197.419-3.763.93-6.172 2.028-9.096 4.147-2.719 1.971-5.342 5.145-6.944 8.403-.447.909-.869 1.597-.938 1.528z" paint-order="stroke fill markers"/><path d="M109.987 115.555c-1.091-.559-2.133-1.019-2.315-1.022s-.331-.081-.331-.173c0-.169-.615-.43-1.134-.48-.156-.015-.613-.173-1.015-.352s-.874-.324-1.049-.324a.83.83 0 0 1-.497-.171c-.198-.189-3.865-1.167-4.621-1.232-.156-.013-.678-.094-1.16-.179-.58-.102-1.013-.082-1.28.062-.319.171-.462.158-.681-.061-.152-.152-.554-.334-.893-.404s-1.084-.279-1.656-.465c-2-.652-2.863-.762-5.909-.755-3.147.007-4.838.238-5.941.812-.333.173-.848.315-1.145.315s-.705.125-.907.277-.503.28-.669.283-.634.245-1.039.537c-.795.572-1.4.873-1.649.817-.086-.019-.096.062-.023.18s.016.287-.126.375c-.206.127-.211.208-.024.395.338.338.289.537-.132.537-.282 0-.358.119-.331.52.023.336-.058.52-.229.52-.376 0-.472-.888-.118-1.086.307-.172.4-.709.122-.709-.091 0-.272.128-.401.283-.339.408-.675.349-.675-.12 0-.238.389-.775.95-1.309.999-.953 1.436-1.106.655-.23-.339.38-.359.441-.079.235.208-.153.463-.368.567-.479 1.503-1.604 5.586-4.021 8.599-5.091 2.001-.711 2.962-.872 5.811-.976 1.377-.05 2.504-.17 2.504-.266s.128-.174.283-.174.283.073.283.162.775.22 1.723.292 2.074.253 2.504.402.895.274 1.033.275c.526.006 5.701 2.397 5.701 2.634 0 .087.255.263.567.392s.567.288.567.354c0 .209 1.655 1.172 1.919 1.117.14-.029.232.056.205.189-.051.249.206.546 1.177 1.364.309.26.445.322.304.137s-.217-.375-.169-.424c.199-.199 3.178 3.52 3.178 3.968 0 .232-.591.003-2.457-.953zm-34.939-2.303c.235-.3.228-.306-.071-.071-.182.143-.331.291-.331.331 0 .156.155.055.402-.259zm35.924 13.163c-.334-.312-.607-.663-.607-.779s-.049-.162-.108-.103-.634-.288-1.278-.772l-1.64-1.216c-.45-.322-.452-.331-.045-.224.234.062.424.043.423-.042-.003-.17-2.923-2.064-3.879-2.517-.329-.156-.718-.38-.863-.498-.226-.184-1.74-.85-4.327-1.904l-1.039-.43c-.208-.088-.548-.204-.756-.258l-1.417-.398c-2.453-.709-4.78-1.051-8.455-1.242-2.65-.138-3.938-.138-4.193-.002-.202.108-.819.203-1.372.21-1.523.02-2.035.329-.627.378l1.134.04-1.199.192c-.943.151-1.232.139-1.351-.054-.095-.153-.283-.192-.501-.103-.334.136-.333.149.025.282.301.112.227.165-.378.271-.414.072-.989.225-1.279.338-.659.259-.836.096-.526-.483.132-.247.187-.62.121-.828-.076-.24-.023-.415.146-.48.21-.081.254.082.207.772-.035.52.005.771.098.619.087-.14.293-.202.46-.138.236.09.303-.008.303-.445 0-.362.096-.561.272-.561.375 0 .556-.346.327-.623-.129-.156-.11-.337.059-.569.254-.347 2.281-1.643 2.571-1.643.088 0 .439-.119.78-.264s1.386-.506 2.322-.803c1.635-.519 1.847-.54 5.481-.54 3.733 0 3.807.008 5.953.635l2.409.825c.129.105.448.149.709.1s.474-.027.474.05.459.365 1.02.639c2.882 1.41 6.782 4.789 8.53 7.389 1.329 1.977 2.948 5.424 2.675 5.697-.027.027-.322-.206-.656-.519zm-1.741-1.955c0-.046-.085-.136-.189-.2s-.189-.027-.189.083.085.2.189.2.189-.037.189-.083z" paint-order="stroke fill markers"/><path d="M110.176 126.894c-.364-.138-.815-.255-1.003-.261s-.297-.083-.242-.172-.131-.164-.414-.168c-.507-.006-4.882-1.092-5.617-1.394-.208-.086-1.228-.374-2.268-.641l-4.063-1.055-3.024-.734c-.966-.187-2.413-.552-2.835-.715-.156-.06-1.049-.258-1.984-.44l-2.551-.557-1.087-.236c-.13-.005-.236-.081-.236-.167s-.286-.157-.636-.157-2.072-.255-3.827-.566l-3.806-.67c-.71-.121-.764-.315-.236-.843.208-.208.378-.34.378-.293s.404-.038.898-.189c2.149-.656 4.574-.892 8.079-.785l4.347.297c5.472 1.118 6.02 1.264 9.084 2.416 2.042.768 7.37 3.431 7.978 3.987.142.13.826.639 1.52 1.131 1.42 1.006 2.679 2.11 2.679 2.348 0 .208-.325.169-1.134-.137zm-16.493-5.299c-.063-.063-.226-.07-.362-.015-.151.06-.106.105.114.114.199.008.311-.037.248-.099zm45.528-31.535c-1.377-.225-2.914-.572-2.982-.673-.038-.058-.163-.105-.277-.105-.202 0-1.722-.64-1.844-.776-.033-.037-.276-.169-.54-.293-.956-.449-3.118-2.328-3.818-3.318-.796-1.126-1.655-2.701-1.78-3.262-.048-.217-.121-.444-.162-.506-.659-.994-.671-5.561-.019-7.086a13.49 13.49 0 0 0 .28-.787c.18-.552 1.125-2.209 1.604-2.815.948-1.199 2.47-2.554 3.667-3.266.905-.538 2.283-1.173 2.549-1.173.092 0 .262-.048.378-.106.252-.127 1.172-.382 2.094-.581.882-.19 3.218-.191 4.435-.002 4.849.754 9.106 4.092 10.562 8.281.627 1.804.692 2.245.644 4.33-.046 1.991-.091 2.247-.662 3.768-.711 1.895-1.582 3.166-3.193 4.663-1.278 1.187-1.643 1.463-2.653 2.003-.669.357-.831.432-1.721.788l-.608.247c-.179.075-1.283.322-2.491.556-.912.177-2.708.235-3.463.112z" paint-order="stroke fill markers"/><path d="M144.203 100.834c-.005-.106-.087-.359-.182-.562l-.365-.78c-.106-.226-.192-.466-.192-.534s-.055-.124-.121-.124-.121-.098-.121-.217-.082-.293-.182-.386-.182-.25-.182-.349c0-.169-.325-.722-.497-.848-.043-.031-.112-.157-.154-.281s-.242-.402-.444-.619-.488-.555-.636-.753-.473-.476-.723-.619-.456-.297-.458-.344-.079-.084-.171-.084-.235-.076-.319-.169c-.112-.125-.411-.169-1.154-.169s-1.042.044-1.154.169c-.083.093-.228.169-.323.169-.178 0-.655.258-1.074.581l-.751.575c-.653.499-1.762 1.694-2.631 2.837l-.795 1.023c-.061.068-.141.22-.177.337-.131.427.017-1.038.157-1.553.199-.731.128-5.194-.086-5.392-.083-.077-.152-.251-.152-.385s-.082-.308-.182-.385-.183-.197-.183-.267c-.001-.175-.747-.911-1.103-1.089-.421-.209-1.179-.361-1.812-.362-.731-.001-2.089.199-2.404.355-.139.069-.39.125-.558.125s-.338.051-.38.112-.159.112-.262.112-.387.08-.631.177l-.808.322-2.035.874c-.314.143-.259-.039.133-.436.567-.575 1.234-1.349 1.234-1.432 0-.043.137-.214.304-.381s.304-.35.304-.408.078-.185.173-.282c.362-.371 1.406-2.407 1.41-2.748.002-.195.084-.452.182-.572.23-.282.229-.96-.003-1.372-.1-.177-.182-.414-.182-.525-.001-.396-1.829-1.765-2.356-1.765-.05 0-.174-.076-.274-.169s-.333-.169-.518-.169-.373-.035-.419-.077c-.178-.165-1.755-.472-2.454-.479-.404-.003-.791-.058-.86-.122s-.64-.158-1.27-.209-.994-.101-.809-.11.431-.061.547-.116.457-.187.758-.293l.729-.293c.1-.056.264-.132.365-.168.636-.233 1.786-.788 2.317-1.118.343-.213.66-.388.706-.388.152 0 1.597-1.292 1.595-1.426-.001-.073.076-.204.169-.29.215-.199.559-1.124.559-1.504 0-.159-.088-.473-.195-.699l-.662-1.254c-.037-.031-.184-.233-.326-.45-.343-.521-2.014-1.979-3.126-2.728l-1.714-1.096c-.038 0-.161-.085-.273-.189-.191-.177-.185-.183.1-.102.167.048.632.135 1.033.193l1.519.224c.906.136 3.523.075 4.463-.103 1.222-.232 2.704-1.179 2.706-1.728 0-.103.065-.207.143-.232.192-.059.184-2.866-.008-3.044-.074-.069-.135-.311-.135-.539s-.081-.476-.182-.554-.182-.27-.182-.428-.109-.507-.243-.774l-.498-1.02-.547-1.079c-.406-.759-.367-.823.204-.332.273.234.639.502.814.595s.43.274.567.402.441.331.675.45.459.259.5.311c.157.198 2.337 1.22 3.145 1.474.729.229 2.088.226 2.588-.005.616-.285 1.699-1.413 1.947-2.027l.333-.741c.154-.267.362-1.038.479-1.775a10.78 10.78 0 0 1 .228-1.068c.072-.247.132-.754.135-1.125.005-.841.122-1.518.26-1.518.058 0 .106.074.106.165s.077.331.172.534l.365.78c.106.226.192.466.192.534s.055.124.121.124.122.082.122.183c0 .174.709 1.5.865 1.617.041.031.113.17.16.309s.136.253.199.253.113.05.113.112.123.249.273.416c1.374 1.53 2.092 1.947 3.356 1.947.595 0 .88-.049.988-.169.083-.093.281-.169.44-.169s.289-.051.289-.112.08-.112.178-.112.346-.152.551-.337.405-.337.444-.337c.116 0 1.743-1.51 1.743-1.618 0-.055.123-.207.274-.339.297-.26.942-1.029.942-1.123 0-.032.123-.181.273-.331a4.16 4.16 0 0 0 .545-.765l.272-.492.002.512c.001.281-.067.575-.15.652-.218.202-.218 5.792 0 5.995a.61.61 0 0 1 .152.393c0 .139.053.282.118.32s.204.236.31.442c.398.776 1.694 1.358 2.974 1.335.68-.012 1.904-.193 2.309-.342l.972-.304c.887-.255 1.372-.439 2.804-1.063l.885-.348c.139 0-.114.358-.637.9-.268.278-.559.633-.646.787s-.281.407-.432.561-.273.322-.273.373-.123.254-.274.451c-.555.726-1.063 1.637-1.063 1.908 0 .086-.041.194-.091.24-.161.149-.428 1.231-.432 1.753-.008.971.612 1.905 1.686 2.54.356.211.737.384.845.384s.279.076.379.169.333.169.518.169.376.037.425.083c.212.196 2.002.485 4.233.683.964.085 1.597.246.97.246-.141 0-.29.051-.331.112s-.202.112-.357.112a.66.66 0 0 0-.433.169c-.083.093-.251.169-.373.169s-.479.127-.793.281-.638.281-.721.281-.217.076-.301.169-.254.169-.379.169-.228.039-.228.087-.205.186-.456.308l-.516.279c-.033.032-.294.204-.578.382-1.53.961-2.447 2.709-1.927 3.674.108.201.197.429.197.507 0 .188.4.834.516.835.05 0 .091.084.091.186 0 .187 2.479 2.514 2.679 2.514.059 0 .267.139.461.309s.74.537 1.212.815c.86.507 1.111.768.599.624-1.037-.293-5.573-.457-6.713-.243-.736.138-1.935.714-2.325 1.117-.427.44-.614.918-.709 1.811-.099.926.235 2.974.53 3.247.075.069.136.243.136.386a1.11 1.11 0 0 0 .109.456c.06.107.202.423.316.701s.257.582.317.675a2.52 2.52 0 0 1 .18.337c.038.093.202.418.362.723s.272.573.247.596-.254-.134-.508-.35-.602-.459-.772-.54-.419-.249-.554-.373c-.261-.24-1.362-.956-1.471-.956-.036 0-.245-.127-.464-.281s-.482-.281-.585-.281-.254-.076-.338-.169-.254-.169-.379-.169-.228-.046-.228-.103-.219-.137-.486-.179-.486-.122-.486-.179-.519-.103-1.154-.103-1.154.045-1.154.1-.131.131-.291.168c-.439.102-1.326.998-1.71 1.727l-.438.831c-.053.101-.135.379-.181.619s-.125.486-.174.548-.123.431-.165.821-.131.804-.199.921-.125.633-.128 1.148c-.003.544-.075 1.077-.172 1.273-.105.213-.171.266-.177.144zm-2.561-10.323c3.639-.337 6.638-1.671 8.977-3.994 1.584-1.573 2.448-2.908 3.167-4.891.491-1.356.655-2.678.577-4.668-.066-1.699-.323-2.749-1.065-4.363-1.664-3.619-5.497-6.511-9.797-7.391-1.526-.312-4.427-.313-5.728-.001-2.465.591-4.05 1.299-5.731 2.56-2.711 2.033-4.624 5.092-4.977 7.958-.158 1.283-.158 3.145.001 4.16.242 1.549 1.156 3.598 2.345 5.254.432.602 2.187 2.275 3.022 2.881 1.406 1.021 3.473 1.867 5.522 2.26 1.917.368 2.113.38 3.685.235z" paint-order="stroke fill markers"/></g></g><g stroke-width=".265"><path d="M148.224 197.468c-.027-.01-.049-.049-.049-.087 0-.065-.198-.517-.54-1.229-.174-.364-.677-.974-.84-1.021-.058-.017-.245-.017-.416 0-.289.028-.313.023-.359-.075-.116-.246-.349-.469-.573-.549-.186-.067-.255-.124-.383-.318l-.206-.334c-.028-.053-.116-.143-.197-.198a1.08 1.08 0 0 1-.226-.211c-.072-.1-.117-.112-.499-.122l-.42-.012.011-.271c.013-.321-.073-.543-.306-.796-.223-.241-.267-.363-.243-.679.035-.461-.004-.575-.323-.939a2.02 2.02 0 0 0-.922-.637c-.098-.035-.178-.088-.178-.118 0-.102-.145-.13-.599-.116-.361.01-.465-.001-.516-.06-.116-.131-.079-.191.098-.159a9.07 9.07 0 0 0 .706.06c.518.029.554.025.775-.088.286-.146.361-.24.454-.564.1-.351.388-.597.853-.729.104-.03.218-.079.253-.11.135-.12.378-.176.504-.117.066.031.207.056.313.056s.204.02.217.044c.037.068.201.052.305-.031.117-.093.211-.296.26-.56.059-.317.286-.956.515-1.446l.214-.477c.069-.157.17-.347.226-.422s.101-.171.101-.214c0-.094.282-.768.37-.882.035-.045.063-.153.064-.239.001-.233-.058-.608-.101-.638-.058-.041-.044-.242.022-.304.042-.04.064-.04.074-.003.032.109 1.378.141 1.522.036a.77.77 0 0 1 .241-.102c.103-.023.228-.123.411-.329.261-.294.264-.298.264-.567 0-.243.013-.279.116-.355.375-.272.99-.977 1.2-1.375.163-.308.17-.339.149-.622-.013-.163-.044-.351-.071-.417-.132-.324-.246-.501-.338-.526-.055-.015-.109-.056-.119-.092-.014-.049.009-.057.091-.034.065.018.173.001.264-.041.084-.04.197-.072.25-.072s.169-.048.256-.108c.219-.148.642-.636.665-.766l.07-.407c.047-.276.066-.311.237-.442.233-.178.303-.178.481.001.246.247.478.351.709.316.254-.038.315.029.288.317-.026.279.06.467.214.467.065 0 .154.032.199.07.121.104.209.089.342-.06.212-.238.453-.348.722-.33l.24.017.025.212c.038.32.092.428.353.702.194.203.267.251.386.251.129 0 .146.013.134.108s-.043.11-.218.122c-.152.01-.226-.008-.289-.072s-.155-.087-.414-.087c-.309 0-.338.008-.462.143-.29.315-.371.625-.237.909.07.148.094.67.036.771-.018.031-.157.055-.326.056-.391.005-.678.143-.762.369-.032.088-.077.173-.098.188s-.07.131-.107.258c-.053.181-.099.247-.214.31-.224.121-.296.334-.241.711.065.444.06.448-.748.471-.404.012-.883.116-1.061.232a1.01 1.01 0 0 1-.294.121c-.099.02-.216.098-.326.219-.094.104-.224.204-.288.222-.171.048-.33.196-.53.491-.214.316-.491.626-.56.626-.054 0-.101.105-.101.224 0 .04-.036.13-.079.199a6.26 6.26 0 0 0-.237.462l-.212.406c-.03.04-.069.136-.086.215s-.064.192-.105.252-.097.264-.125.454-.079.42-.115.51c-.128.329.004 1.451.202 1.74.07.101.129.122.409.148a1.43 1.43 0 0 0 .538-.034c.232-.071.495-.034.612.086.037.038.111.208.163.376a2.29 2.29 0 0 0 .271.55c.357.493.365.511.391.826.014.167.044.376.068.465.067.248.072.681.011.85-.03.083-.109.19-.174.237s-.182.145-.258.219-.165.134-.197.134-.169.105-.304.233c-.275.26-.555.437-.691.437-.049 0-.193.034-.318.075-.25.083-.46.312-.544.595-.05.17-.011.805.063.994a.89.89 0 0 1 .043.264.57.57 0 0 0 .058.249.96.96 0 0 1 .09.262c.018.092.074.268.126.391a2.14 2.14 0 0 1 .123.394c.016.094.044.171.064.171.06 0 .091.152.044.216s-.246.113-.33.081z" paint-order="stroke fill markers"/><path d="M139.072 195.682c-.001-.148-.029-.343-.062-.434a1.08 1.08 0 0 1-.044-.398c.011-.144-.007-.29-.046-.383-.127-.303-.144-3.353-.022-3.848l.092-.406c.084-.397.212-.671.37-.794.138-.108.183-.115.72-.112.632.003 1.255.052 1.471.117a.39.39 0 0 0 .245-.003c.057-.025.137-.043.176-.042s-.005.035-.097.074c-.143.06-.271.063-.835.019l-.706-.024c-.074.052-.041.255.054.33.071.056.206.075.562.075.412 0 .478.012.543.094a.76.76 0 0 0 .27.168c.22.083.656.355.626.39-.025.029-.36-.13-.641-.304-.141-.087-.813-.252-1.026-.252a1.05 1.05 0 0 0-.835.369c-.23.268-.333.491-.416.896l-.11.443c-.124.353-.241 2.037-.223 3.213l-.025 1.004c-.027.053-.039-.007-.04-.194zm11.05 4.269c-.248-.116-.9-.782-1.273-1.299l-.274-.377a7.1 7.1 0 0 1-.421-.67c-.027-.052-.014-.061.057-.04.139.041.378-.051.432-.166.039-.083.031-.139-.04-.297-.14-.309-.438-1.23-.456-1.414-.011-.105.031-.015.111.239.19.601.418 1.176.622 1.56l.181.383c0 .023.1.164.221.313l.387.512c.091.132.215.26.274.284.473.189.574.209.762.152a1.83 1.83 0 0 0 .736-.45c.093-.094.181-.172.197-.172.042 0 .351-.564.538-.98.098-.22.341-.986.341-1.078 0-.055.048-.217.105-.361s.105-.293.105-.331c0-.09.191-.665.297-.893.045-.097.082-.248.082-.335s.038-.228.084-.314.084-.181.084-.211.047-.168.105-.306c.164-.393.297-.39.698.019.236.24.668.487.854.487a.67.67 0 0 1 .408.287l.1.239c.07.167.059.45-.021.505-.02.013-.079-.021-.131-.078-.187-.203-.559-.495-.705-.554a1.17 1.17 0 0 0-.354-.062c-.17-.001-.24.027-.408.167-.191.159-.382.464-.44.704a4.2 4.2 0 0 1-.102.322l-.173.55c-.053.184-.139.432-.19.55a2.03 2.03 0 0 0-.12.377 2.78 2.78 0 0 1-.148.454l-.22.556a5.43 5.43 0 0 1-.61 1.13c-.378.526-.547.626-1.121.661-.316.019-.43.007-.575-.061zm3.103-10.688c-.155-.03-.294-.068-.309-.086-.06-.07.198-.491.47-.768.453-.461.637-.7.872-1.128.369-.673.441-.832.579-1.277l.133-.43-.051-.549c-.061-.655-.129-.83-.466-1.196-.356-.387-.725-.582-1.399-.738-.531-.123-1.373-.079-1.966.101-.246.075-.332.06-.144-.025.221-.1.533-.155 1.102-.195.709-.049.718-.057.689-.611-.014-.286-.005-.39.04-.432s.057-.01.044.241l-.014.297.198.179c.164.148.232.179.393.18a3.42 3.42 0 0 1 1.077.239c.284.123.63.46.718.699.16.434.193 1.293.079 2.073-.095.655-.079.932.068 1.195.174.311.141.42-.215.715a1.26 1.26 0 0 0-.501.849c-.059.269-.225.482-.483.618-.236.125-.456.136-.916.048zm-8.548-1.273c0-.026.02-.048.044-.048s.074-.081.11-.179.092-.197.124-.218.059-.071.059-.111a1.42 1.42 0 0 1 .081-.296l.221-.628a15.14 15.14 0 0 1 .452-1.076c.752-1.619.689-1.453.661-1.77a.63.63 0 0 0-.183-.468 2.31 2.31 0 0 0-.493-.375c-.185-.106-.403-.256-.485-.334l-.466-.422c-.278-.246-.425-.422-.89-1.07-.103-.143-.345-.751-.451-1.134-.061-.221-.072-1.044-.018-1.435.037-.269.124-.588.321-1.173.027-.08.091-.206.143-.281s.095-.153.095-.172.074-.162.165-.316c.211-.358 1.362-1.691 1.46-1.691.014 0 .113-.066.218-.146s.221-.139.259-.131c.101.022.109.168.013.203-.089.032-.944.994-.97 1.091a.74.74 0 0 1-.113.178c-.053.066-.2.293-.326.504-.638 1.073-.895 2.148-.743 3.106a5.96 5.96 0 0 1 .057.526c.007.132.026.314.043.406.04.211.302.638.646 1.054.263.319.548.517 1.165.81.305.145 1.074.343 1.604.413l.464.061-.553-.02c-.304-.01-.6-.044-.658-.074-.224-.116-.375.148-.262.456a2.1 2.1 0 0 1 .084.388c.025.214.013.268-.144.595l-.235.565a1.76 1.76 0 0 1-.145.335 15.21 15.21 0 0 0-.886 2.141c-.119.404-.199.599-.277.676-.118.115-.19.138-.19.06zm4.739-14.006a2.7 2.7 0 0 0-.293-.198c-.215-.132-.307-.158-.611-.176-.358-.02-1.077.11-1.193.216-.028.025-.112.061-.187.079-.13.032-.137.026-.137-.108 0-.078.028-.203.063-.279s.063-.265.063-.438c0-.297.004-.304.199-.514.17-.182.227-.214.39-.222l.701-.064c.111-.022.208-.013.27.025.144.088.869.071 1.099-.026.351-.147.376-.146.376.013 0 .079.03.171.066.206.068.064.271.485.271.562 0 .024-.142.177-.315.342s-.353.372-.399.461c-.064.123-.113.162-.204.162-.066 0-.137-.019-.16-.043z" paint-order="stroke fill markers"/><path d="M146.245 174.494c-.039-.053.004-.123.206-.35.238-.265.501-.739.501-.903 0-.04-.047-.107-.105-.15s-.146-.154-.196-.246c-.089-.164-.09-.17-.013-.222.268-.18.86-.459.975-.46.075 0 .278-.036.453-.08a.88.88 0 0 1 .631.007l.538.124c.167.03.127.033-.155.012-.459-.034-1.1-.029-1.402.01-.188.025-.254.064-.436.253l-.214.224-.041.406-.049.646c-.007.214.004.241.086.254.052.008.241-.043.421-.114.276-.109.409-.132.854-.143l.527-.013-.485.038c-.418.033-.551.066-.969.241l-.529.243a.69.69 0 0 1-.232.072c-.109.018-.215.071-.253.125-.055.078-.074.083-.115.027zm10.064-.448c-.193-.024-.552-.105-.85-.192-.131-.038-.255-.065-.274-.06-.051.013-.419-.054-.688-.126a4.18 4.18 0 0 0-.527-.093c-.397-.042-1.204-.223-1.181-.265.033-.06 1.065-.112 2.445-.121 1.458-.01 1.475-.008 1.746.261a.57.57 0 0 0 .2.129c.072.021.097.062.097.159 0 .109-.03.145-.179.213-.186.085-.534.127-.79.095zm-6.992.264c-.126-.162-.292-.325-.371-.362s-.131-.088-.118-.112c.044-.081.332.083.603.345.172.166.252.13.414-.183.156-.303.55-.663.825-.756.354-.119.374-.154.136-.233-.19-.062-.221-.095-.365-.375-.086-.168-.158-.35-.158-.404s-.025-.134-.054-.177c-.048-.072-.079-.068-.371.047-.204.081-.348.113-.4.089-.066-.03-.028-.06.192-.155.151-.065.334-.183.406-.263.234-.257.292-.186.372.458.031.251.163.438.415.585.18.105.714.192 1.434.231.627.034 1.049.107.676.116-.332.008-.342.223-.016.335l.148.051-.148-.022-.548-.083c-.543-.082-1.476-.079-1.781.007-.337.094-.544.308-.739.763-.203.474-.254.483-.553.098zm-12.658 26.467c-.014-.015-.189-.045-.39-.065-.483-.05-.519-.089-.419-.464.041-.154.071-.316.066-.36s.011-.093.035-.11.045-.078.046-.136a.47.47 0 0 1 .086-.22c.081-.11.105-.115.515-.103l.522.013c.05 0 .15-.033.221-.073.127-.072.13-.071.13.043 0 .064-.045.198-.1.296a1.38 1.38 0 0 0-.131.343c-.043.222-.307.758-.402.816-.088.053-.142.059-.177.019z" paint-order="stroke fill markers"/><path d="M137.618 199.024c.018-.059.036-.282.041-.496s.022-.413.038-.442c.02-.037.122-.044.32-.024.264.028.312.018.524-.103.149-.086.264-.193.318-.297a3.56 3.56 0 0 1 .241-.375c.201-.273.31-.279.411-.023.041.104.12.237.175.295s.1.143.1.188.028.108.063.141c.046.044.063.16.063.438 0 .341-.011.391-.106.5l-.106.121-.191-.121c-.105-.067-.257-.135-.337-.152s-.156-.05-.168-.073c-.048-.088-.336-.042-.491.077-.085.066-.193.12-.239.12s-.097.024-.113.053a1.51 1.51 0 0 1-.519.282c-.041 0-.048-.03-.026-.107z" paint-order="stroke fill markers"/><path d="M138.945 197.269a.96.96 0 0 1 .068-.191c.056-.128.063-.24.039-.629-.028-.455-.026-.474.056-.474s.089-.01.146-.43c.009-.066.019-.008.022.128.007.259.074.689.135.852a3.16 3.16 0 0 1 .075.263l.072.263c.032.092.029.093-.052.012-.127-.126-.26-.102-.419.079-.079.089-.143.146-.143.127zm1.476.4c.001-.024.029-.086.063-.137.094-.141.075-.211-.069-.254-.125-.037-.117-.043.179-.15.17-.062.328-.129.352-.15a12.63 12.63 0 0 1 .59-.36l.569-.356c.024-.039.586-.394.79-.499a1.73 1.73 0 0 0 .276-.191 1.95 1.95 0 0 1 .333-.218 5.59 5.59 0 0 0 .907-.698c.136-.154.1-.012-.048.194-.165.228-.135.276.087.145.066-.039.197-.07.289-.069l.169.003-.253.108a23.75 23.75 0 0 0-1.728.986c-.042.036-.156.106-1.171.723-.574.349-1.087.707-1.242.869-.052.054-.094.079-.094.055zm10.884-7.384c.059-.053.136-.096.172-.096s.08-.029.099-.064.233-.251.476-.48c.251-.236.507-.525.592-.668l.269-.43c.133-.199.782-.825.782-.755 0 .024-.1.136-.221.248a3.32 3.32 0 0 0-.69.869 6.34 6.34 0 0 1-.387.57c-.218.275-.225.272.245.111a1.6 1.6 0 0 1 .527-.069c.789.027.797.026 1.044-.116a1.12 1.12 0 0 0 .588-.714c.064-.196.1-.261.108-.193.021.167-.18.616-.336.751a2.38 2.38 0 0 1-.39.252c-.237.123-.264.127-.736.096-.424-.028-.521-.02-.721.061-.223.089-1.038.509-1.271.654-.062.038-.145.07-.185.07-.058 0-.051-.02.034-.096zm4.737-2.954c.05-.045.188-.157.307-.249l.267-.216a16.04 16.04 0 0 1 1.033-.776.88.88 0 0 0 .199-.165c.07-.074.142-.134.161-.134s.063-.033.098-.072c.088-.1.049-.09-.162.041l-.497.291c-.035.015-.215.122-.4.239-.571.361-.923.553-1.011.55-.051-.001.009-.054.147-.132l.906-.569a6.36 6.36 0 0 1 .295-.182 8.49 8.49 0 0 0 .506-.334l.501-.344.274-.181.658-.45.864-.604.999-.673c.013.013-.089.104-.225.201l-.837.617-.777.556a1.67 1.67 0 0 0-.376.281 1.14 1.14 0 0 1-.221.154c-.072.036-.122.098-.122.151 0 .081.014.077.145-.036.079-.069.156-.125.171-.125a3.66 3.66 0 0 0 .495-.241c.04-.025.1-.046.133-.046s.069-.029.081-.065c.026-.076.86-.491.899-.446.014.017-.019.05-.074.074-.324.141-1.738.999-2.25 1.366l-.527.366-.956.697-.759.54c-.019-.001.007-.039.057-.084zm2.349-1.834c-.037-.068-.096-.046-.144.054-.042.088-.037.091.06.041.058-.03.095-.073.083-.095zm3.275-2.145a1.55 1.55 0 0 1 .302-.269 3.2 3.2 0 0 0 .326-.233c.403-.328.7-.255.544.134-.043.108-.386.32-.516.32-.03 0-.195.054-.365.12-.443.171-.492.159-.291-.071zm-12.804-1.431a.32.32 0 0 0-.179-.124c-.226-.056-.127-.353.153-.458.681-.255 1.394-1.113 1.471-1.771l.025-.211-.301-.287c-.296-.282-.466-.521-.463-.651.001-.036.037-.115.081-.174.066-.09.121-.108.34-.108.292 0 .639-.1.934-.268a.6.6 0 0 0 .302-.364 2.52 2.52 0 0 0 .137-.444 1.09 1.09 0 0 1 .325-.678c.197-.205.443-.327.575-.279.045.017.143.109.218.207.243.317.402.358.856.224.28-.083.336-.056.4.185l.094.305c.049.14.046.163-.037.251-.123.13-.197.129-.136-.001.053-.112.02-.351-.07-.511-.064-.114-.252-.146-.388-.065-.039.023-.18.025-.316.005-.211-.033-.274-.069-.451-.257-.113-.121-.231-.218-.261-.218-.119.003-.401.185-.508.329a1.13 1.13 0 0 0-.159.353c-.123.54-.186.704-.331.865-.21.232-.556.399-.936.452-.33.046-.502.116-.502.206 0 .073.178.423.215.423.016 0 .127.106.245.235.19.208.215.257.215.433 0 .51-.52 1.295-1.107 1.668-.475.303-.575.448-.432.627.04.05.066.114.057.142s-.038.008-.066-.041z" paint-order="stroke fill markers"/><path d="M148.301 181.741c-.319-.169-.548-.36-.548-.457 0-.084.018-.092.137-.062.398.101.486.114.622.094l.148-.023-.126.069a1.77 1.77 0 0 1-.2.095c-.065.023-.062.039.032.145.058.066.105.142.105.169 0 .062.009.064-.169-.03zm7.06-4.178c-.022-.286-.052-.415-.11-.481-.135-.153-.246-.139-.666.083-.172.091-.342.159-.378.151s.102-.105.305-.217c.443-.243.675-.268.823-.089.082.099.094.165.094.508l-.019.415c-.011.012-.032-.155-.049-.37z" paint-order="stroke fill markers"/><path d="M152.895 181.883c0-.018.048-.09.107-.16s.178-.284.264-.477c.195-.434.323-.523.808-.561.21-.017.355-.051.386-.092.06-.083.059-.664-.004-.844-.099-.293-.049-.513.178-.786.118-.141.153-.155.376-.155.149 0 .3.032.382.08.162.096.52.101.602.008a.54.54 0 0 0 .084-.217c.026-.149.024-.152-.167-.184-.141-.024-.246-.085-.386-.225-.106-.105-.183-.203-.171-.216s.107.022.212.078a.93.93 0 0 0 .399.102c.213 0 .341.082.341.219 0 .038-.04.164-.088.281-.15.363-.474.501-.768.329-.079-.047-.242-.081-.395-.084-.22-.005-.276.013-.369.112a.82.82 0 0 0-.158.298c-.041.154-.036.213.032.382.057.144.08.314.081.61.001.226.018.47.038.544.035.129.031.133-.085.101a1.21 1.21 0 0 1-.247-.108c-.077-.045-.238-.076-.408-.077-.356-.003-.476.091-.623.483-.122.327-.287.591-.368.591-.03 0-.055-.015-.055-.033z" paint-order="stroke fill markers"/><path d="M154.567 181.266c-.248-.147-.227-.207.033-.094.207.089.45.086.477-.008.009-.032-.051-.105-.134-.16s-.151-.129-.151-.163c0-.079.571.232.604.33.081.238-.478.302-.829.095zm1.764-2.254c.168-.454.192-.568.18-.867l-.013-.317-.167.012-.167.012.146-.142c.244-.238.274-.193.258.383-.013.399-.035.552-.114.752-.055.138-.112.251-.127.251s-.014-.037.004-.084zm-9.85-6.11c-.013-.013-.238-.037-.502-.051s-.496-.043-.515-.065-.029-.09-.021-.152c.013-.094.047-.119.204-.146.271-.047.944.008.887.073a.29.29 0 0 0 .007.309c.03.034.033.057.007.057s-.054-.012-.066-.025zm.598-.879c0-.088.164-.133.581-.16.509-.032.466.017-.055.062-.22.019-.429.061-.464.094-.045.042-.063.044-.063.005zm-9.687 26.576c-.009-.181-.106-.42-.256-.635-.208-.297-.218-.465-.046-.781.102-.188.223-.2.326-.033l.174.263c.138.197.049.176-.114-.027-.167-.208-.277-.214-.366-.02-.076.166-.038.368.102.544.112.141.225.515.204.677-.018.135-.018.135-.025.013z" paint-order="stroke fill markers"/><path d="M136.205 200.975c-.47-.114-.632-.18-.637-.26-.014-.233.004-.592.042-.865a.76.76 0 0 1 .236-.526l.191-.217h.57.57l.145-.191c.246-.323.245-.536-.001-1.002-.228-.429-.179-.625.088-.353.048.049.1.074.116.057s.028-.007.028.026.021.044.047.026.061-.007.078.025c.039.072.487.122.695.077a.76.76 0 0 0 .32-.203c.182-.187.212-.175.082.033-.142.227-.398.334-.794.334-.333 0-.348.005-.387.123a1.68 1.68 0 0 0-.042.394l-.025.442c-.022.153-.045.177-.221.239-.123.043-.379.069-.686.069-.569 0-.611.023-.744.422-.105.313-.193.856-.158.98.037.132.19.188.689.252.403.051.44.049.521-.034.116-.119.283-.448.395-.777.245-.721.25-.728.65-.95s.618-.278.274-.069c-.468.282-.775.644-.842.99-.055.285-.196.672-.286.783-.193.239-.451.289-.914.176zm3.157-1.833l-.302-.217c-.1-.08-.124-.082-.322-.015-.173.059-.214.06-.214.008 0-.064.177-.123.368-.123.058 0 .212.064.342.142l.35.189c.141.059.399-.015.451-.129.061-.134.102-1.379.049-1.491-.041-.086-.033-.097.064-.097.06 0 .136.03.169.067.051.058.044.099-.045.29a.71.71 0 0 0-.078.478c.041.394-.016.783-.133.917-.143.162-.438.154-.698-.02zm8.461-1.961l-.389-.776-.277-.558c-.05-.11-.135-.226-.19-.259s-.099-.077-.099-.098-.05-.068-.112-.105c-.099-.059-.152-.055-.439.031-.377.113-.418.096-.548-.23-.145-.364-.272-.473-.615-.525-.295-.045-.343-.098-.319-.35.016-.168.03-.195.078-.149a.23.23 0 0 1 .059.145c0 .049.026.09.058.09s.082.032.11.071.131.097.226.129c.121.04.253.149.434.359l.26.301h.377.377l.209.227c.278.303.498.68.812 1.389.17.384.248.611.226.656s-.091-.05-.236-.349z" paint-order="stroke fill markers"/><path d="M136.332 201.106c-.222-.042-.737-.214-.789-.262-.069-.065-.072-.686-.005-1.064a.97.97 0 0 1 .258-.535l.209-.259.568.005c.494.005.579-.007.653-.083.136-.139.087-.468-.125-.838-.225-.395-.247-.506-.145-.763.107-.271.23-.394.358-.358.101.029.371.407.411.577.029.12.249.188.516.159.144-.015.248-.065.366-.172.091-.083.18-.15.199-.15.149 0 .225-1.405.115-2.128-.148-.98-.165-1.272-.165-2.845 0-1.594.001-1.604.115-2.067.274-1.116.414-1.198 1.845-1.083l1.087.065c.405.007.416-.003.618-.466.146-.336.373-.542.75-.682a4.6 4.6 0 0 0 .447-.201c.179-.094.262-.112.4-.087.483.089.564.089.636-.005.145-.183.261-.437.402-.878.08-.25.409-1.05.731-1.778.576-1.301.585-1.328.556-1.554-.038-.287-.203-.476-.678-.776-.428-.27-.974-.761-1.358-1.22-.48-.574-.595-.781-.865-1.557-.081-.233-.091-.352-.089-1.052.004-.785.004-.792.161-1.315.087-.289.224-.639.304-.776l.145-.278c0-.189 1.364-1.806 1.724-2.043l.34-.202c.147-.066.514-.52.694-.86l.15-.318c0-.019-.056-.081-.125-.137-.101-.082-.242-.114-.722-.165-.62-.067-.668-.088-.67-.301-.001-.227.353-.327.884-.248.468.069.457.071.834-.121a2.96 2.96 0 0 1 .548-.22c.171-.036.159-.039-.093-.018-.16.013-.322.043-.361.067-.099.06-.185-.015-.153-.132.039-.14.117-.163.631-.19.456-.024.459-.023.435.08s-.014.103.154.074c.117-.02.327.007.61.075l.432.105.261-.131c.143-.072.344-.203.447-.292s.22-.162.262-.162c.111 0 .192.172.247.521.058.368.119.482.326.613.223.14.503.194 1.44.275.53.046.841.093.885.134.055.051.336.055 1.522.018 1.82-.056 1.983-.037 2.399.277.25.189.299.247.299.358 0 .406-.719.522-1.728.279l-1.984-.395c-.629-.105-.668-.115-.806-.196-.163-.096-.132-.174.096-.24.166-.048.175-.057.081-.083-.058-.017-.409-.052-.78-.081-1.445-.112-1.727-.257-1.814-.93-.063-.485-.153-.561-.392-.333a1.81 1.81 0 0 1-.358.237c-.127.064-.244.139-.259.167-.046.084.194.058.479-.051.147-.056.279-.083.298-.06a1.48 1.48 0 0 1 .103.281c.108.372.274.608.486.698l.184.077-.202.078c-.402.155-.671.4-1.038.944l-.11.163-.29-.225c-.296-.229-.522-.331-.522-.236 0 .028.043.077.095.108s.221.195.376.365c.177.194.309.301.357.291.042-.008.151-.169.246-.359.344-.692.497-.785 1.35-.817.527-.02 1.767.088 1.829.159.051.058-.06.056-.502-.008-.322-.048-.731-.067-1.222-.056-.668.013-.754.026-.914.123-.197.119-.33.299-.492.666-.1.227-.244.398-.335.398-.02 0-.153-.125-.296-.277-.475-.507-.549-.553-.866-.54-.405.017-.624.073-1.131.294l-.63.252c-.213.066-.614.436-1.109 1.023-.842 1-1.351 2.035-1.506 3.068-.067.446-.067.51.005 1.206.056.543.102.798.177.974a3.82 3.82 0 0 0 .894 1.155c.506.381 1.233.659 2.107.806l.648.125c.161.04.236.033.417-.038.318-.125.826-.685.622-.685-.027 0-.086-.037-.13-.083s-.157-.086-.267-.09c-.229-.008-.72-.314-.816-.507-.058-.117-.058-.138.001-.204s.096-.067.378 0c.172.041.365.061.429.045.079-.02.117-.01.117.029 0 .058-.392.04-.752-.034-.129-.027-.139-.02-.126.084.011.08.099.171.308.317.161.112.318.204.348.204.082 0 .065-.118-.032-.217l-.086-.089.117-.069a6.1 6.1 0 0 1 .407-.205c.686-.321 1.302-1.046 1.402-1.651.026-.159.014-.18-.295-.503-.472-.493-.533-.665-.323-.904.106-.12.156-.14.349-.14a2.11 2.11 0 0 0 .895-.243.56.56 0 0 0 .295-.348c.058-.135.125-.354.151-.485.081-.424.378-.798.743-.935.19-.071.329-.008.539.244.193.231.309.268.614.196s.485-.07.536.005c.023.033.085.206.14.384l.099.324-.135.153c-.111.126-.148.144-.208.1-.051-.037-.069-.101-.06-.208.03-.336-.097-.523-.295-.433-.068.031-.076.046-.027.048.139.007.203.142.203.431 0 .315.021.344.307.432.186.057.209.055.295-.035a1.88 1.88 0 0 1 .241-.198l.148-.101-.132.029c-.14.031-.2-.021-.16-.139.034-.102.612-.411.832-.445.23-.036.419.065.491.262.031.085.046.296.038.528-.014.381-.013.387.1.44a1.73 1.73 0 0 0 .376.088c.211.028.28.06.36.165l.099.13v-.242-.242l-.242-.001-.242-.001.211-.213c.415-.419.501-.346.474.406-.024.671-.199 1.147-.376 1.023-.023-.017-.03-.084-.014-.151l.027-.122-.149.148c-.195.194-.403.237-.653.136-.268-.109-.644-.104-.734.008-.133.166-.166.364-.094.559a1.25 1.25 0 0 1 .066.357c0 .098.013.274.026.391.024.202.035.216.224.292.294.118.486.28.5.423.02.191-.09.257-.43.257-.241 0-.336-.023-.488-.12-.104-.066-.196-.163-.205-.215s-.037-.111-.064-.13c-.073-.054-.569-.043-.664.015-.046.028-.152.211-.235.406-.154.364-.317.595-.419.595-.04 0-.057.065-.057.211 0 .196.013.22.187.351.146.11.253.147.482.169.931.089 1.586.519 1.757 1.153.103.383.123 1.253.044 1.892-.091.73-.086.835.053 1.188.069.174.111.35.099.417s-.152.251-.333.434c-.29.294-.436.51-.436.642 0 .031.029.021.066-.022.151-.171.216-.008.123.308a1.38 1.38 0 0 1-.626.778c-.256.151-.266.153-.87.154l-.611.001-.674.351c-.923.48-.895.468-.957.398-.07-.079-.007-.191.169-.297.3-.182 1.089-1.014 1.314-1.385a4.71 4.71 0 0 1 .816-.931c.135-.116.175-.129.241-.082s.099.026.244-.194c.288-.439.604-1.083.754-1.534l.145-.437-.047-.455c-.076-.736-.099-.798-.438-1.173s-.599-.538-1.125-.699c-.498-.152-1.386-.15-2.016.003-.291.071-.451.091-.479.059-.062-.07-.35.059-.529.237a1.3 1.3 0 0 1-.301.219c-.163.075-1.078 1.117-1.125 1.281a5.49 5.49 0 0 1-.255.526c-.366.692-.523 1.109-.653 1.733-.112.539-.119.617-.079.972.06.538.117.753.241.893l.106.121.61-.034c.743-.041.751-.037.983.512a5.38 5.38 0 0 0 .397.74c.148.221.241.412.256.526l.086.562c.127.786.073 1.007-.324 1.336-.858.708-1.124.885-1.458.969-.359.09-.536.222-.648.483-.075.173-.084.255-.06.526.034.387.093.615.166.647.03.013.118.225.196.47s.284.762.46 1.148c.264.581.384.787.701 1.196.345.446.405.502.615.577.314.112.522.104.773-.031.676-.364 1.041-.957 1.463-2.372l.245-.862c.021-.093.115-.378.209-.633s.171-.512.171-.57.036-.192.08-.299l.186-.465c.12-.306.271-.448.427-.404.057.017.223.139.369.273.286.262.584.442.86.52.293.082.448.236.559.552.079.224.092.319.063.448-.054.239-.153.292-.299.159-.47-.426-.699-.579-.915-.61-.275-.039-.411.031-.645.333-.131.168-.217.373-.401.946l-.785 2.304c-.38.927-.933 1.671-1.336 1.8-.111.035-.375.066-.585.068-.322.003-.415-.015-.592-.113-.273-.151-1.297-1.311-1.644-1.864-.139-.221-.307-.458-.373-.526s-.31-.506-.542-.972c-.423-.849-.658-1.184-.831-1.184a1.93 1.93 0 0 0-.332.073c-.342.1-.43.054-.602-.312-.149-.317-.248-.4-.544-.453-.308-.056-.379-.131-.379-.406 0-.129.018-.248.04-.263.073-.051-.004-.165-.276-.407l-.269-.24h-.418-.418l-.014-.399c-.014-.386-.02-.406-.183-.625-.346-.463-.337-.442-.342-.809l-.011-.445c-.004-.056-.09-.209-.193-.339-.139-.175-.218-.237-.306-.237-.065 0-.289-.088-.498-.194-.433-.22-1.039-.372-1.314-.329-.25.039-.475.178-.657.406-.21.264-.256.378-.403 1.01-.178.765-.222 1.225-.248 2.643-.02 1.055-.014 1.244.04 1.315.035.046.076.226.091.4s.083.53.152.789.114.51.101.557c-.014.053.023.154.096.262a2.44 2.44 0 0 1 .191.344l.072.168-.005-.267c-.007-.33.026-.394.183-.368.101.017.118.007.098-.064s.021-.102.2-.171a14.11 14.11 0 0 0 1.622-.93l.485-.309c.477-.273 1.419-.935 1.711-1.202.146-.134.192-.154.241-.108s.053.075.001.189l-.06.131.208-.023c.139-.015.209-.005.209.031s-.072.054-.171.054-.209.023-.255.051c-.147.089-.167.026-.052-.159.062-.099.102-.191.089-.206s-.141.074-.283.197-.415.326-.605.451l-.556.371c-.694.474-2.122 1.338-2.402 1.454-.31.128-.367.179-.242.216.1.03.125.154.047.242-.026.029-.04.077-.032.105s.109-.024.226-.119c.291-.237.6-.439 1.843-1.207 1.544-.954 2.509-1.476 2.417-1.307-.016.03-.056.055-.089.055-.148 0-3.094 1.764-3.826 2.291l-.506.35c-.179.111-.234.277-.208.637.027.379-.049.743-.186.889-.085.091-.152.113-.345.113-.207 0-.281-.028-.542-.203s-.316-.197-.415-.154a.62.62 0 0 1-.245.039c-.093-.007-.216.051-.416.194-.404.29-.552.507-.708 1.04-.217.738-.5.957-1.094.844zm.633-.151c.177-.107.301-.342.429-.816.119-.439.355-.754.775-1.032.341-.226.272-.276-.112-.08-.427.218-.512.324-.716.9-.099.28-.24.597-.314.706l-.133.197-.376-.01c-.207-.007-.461-.038-.566-.074-.182-.061-.19-.072-.203-.264-.019-.296.152-.965.285-1.116.104-.118.138-.126.656-.15.301-.013.608-.052.684-.083.154-.065.162-.092.199-.636l.047-.437c.024-.07.237-.122.506-.123a.78.78 0 0 0 .596-.255c.163-.174.195-.331.042-.204-.299.248-.346.267-.648.268s-.525-.072-.739-.244a.42.42 0 0 0-.158-.09c-.089 0-.045.248.102.56.193.412.194.606.009.883l-.139.207-.587.013c-.574.013-.59.017-.707.143-.216.234-.278.401-.328.886-.061.587-.042.678.161.755.516.196 1.007.235 1.233.098zm-.011-.334a2.52 2.52 0 0 0 .196-.395l.199-.515c.066-.167.12-.355.12-.417 0-.105-.009-.109-.116-.057-.064.031-.372.068-.685.083l-.569.026-.077.179c-.043.099-.116.364-.163.591-.107.515-.095.532.414.616.559.092.548.094.68-.112zm14.146-.654a1.32 1.32 0 0 0 .372-.175c.237-.192.663-.864.919-1.452.242-.556.349-.859.805-2.293.27-.849.389-1.097.621-1.297a.5.5 0 0 1 .435-.161c.291 0 .449.08.851.429.152.132.294.241.316.241.111 0 .117-.336.011-.598a.73.73 0 0 0-.535-.485c-.317-.094-.509-.207-.788-.465-.511-.472-.582-.447-.862.305-.073.197-.146.445-.162.55a1.74 1.74 0 0 1-.104.362 19.42 19.42 0 0 0-.503 1.622c-.188.736-.572 1.599-.857 1.926-.22.252-.614.533-.854.61-.219.07-.524.024-.786-.118-.131-.071-.833-.96-.937-1.187l-.242-.514c-.106-.224-.283-.665-.392-.98-.2-.576-.273-.734-.273-.587 0 .104.233.848.384 1.227.067.168.122.345.122.393 0 .108-.203.234-.377.234-.071 0-.128.019-.128.042 0 .078.621.984.94 1.372.368.447.837.896 1.044.998.188.093.673.094.983.003zm-11.096-.744c.141-.086.204-.338.205-.819.001-.339.021-.493.085-.654.096-.241.06-.34-.122-.34h-.111l-.001.76c-.004.842-.016.89-.258.942-.117.025-.212-.005-.472-.142-.41-.218-.806-.239-.806-.043 0 .052.026.064.095.041.29-.096.358-.088.552.063.105.082.235.169.289.194.135.061.444.061.546-.001zm-1.814-.348c.588-.313.669-.338.824-.246a.51.51 0 0 0 .172.071c.029 0 .156.058.283.129l.232.129.106-.113c.097-.103.106-.148.105-.5-.001-.333-.016-.417-.116-.608-.198-.383-.348-.618-.412-.646-.098-.042-.254.103-.45.419-.245.395-.462.521-.897.521-.381 0-.378-.005-.411.658-.016.331-.009.442.03.442.028 0 .268-.115.532-.256zm1.725.087c.082-.111.023-.132-.064-.023-.042.053-.057.096-.033.096s.068-.033.097-.073zm-1.002-.294c-.029-.013-.076-.013-.105 0s-.005.024.053.024.082-.01.053-.024zm-1.65-.651c-.18-.393-.202-.505-.129-.659.061-.13.154-.115.321.051.181.18.259.186.161.012-.134-.239-.29-.399-.376-.384-.121.02-.276.307-.276.511 0 .122.049.254.166.449a2.67 2.67 0 0 1 .22.454c.049.161.055.166.07.06.009-.072-.051-.263-.157-.494zm10.807-.572c-.054-.217-.403-1.005-.591-1.334-.106-.186-.29-.455-.408-.596l-.214-.257h-.385-.385l-.248-.284c-.137-.157-.335-.331-.441-.387-.353-.188-.381-.21-.422-.344-.055-.179-.12-.167-.152.03-.038.229.035.354.224.388a1.88 1.88 0 0 1 .347.111c.164.071.209.123.329.38.167.357.229.384.639.278.201-.052.323-.062.374-.031.173.105.43.501.762 1.176.395.803.496.98.557.98.024 0 .03-.047.014-.108zm-7.65-.036c0-.026-.02-.048-.045-.048s-.033.022-.019.048.035.048.045.048.019-.022.019-.048zm8.111-.017c.073-.06.073-.072.009-.203a11.11 11.11 0 0 1-.497-1.594c-.139-.893-.125-1.167.076-1.437.142-.192.272-.265.602-.338.203-.045.347-.12.582-.303l.531-.395c.12-.084.309-.245.42-.359a.57.57 0 0 0 .227-.455c.014-.147-.004-.421-.042-.669l-.091-.592c-.014-.107-.117-.312-.274-.548-.138-.207-.31-.532-.383-.722s-.164-.363-.202-.384-.366-.039-.728-.039c-.572 0-.67-.012-.742-.085-.13-.133-.227-.541-.251-1.063a2.95 2.95 0 0 1 .088-.986c.128-.586.233-.868.599-1.596l.293-.659a.34.34 0 0 1 .149-.204c.066-.039.272-.272.458-.519.247-.327.385-.47.513-.528a1.44 1.44 0 0 0 .335-.235c.171-.166.726-.43 1.071-.509a7.91 7.91 0 0 1 .748-.093l.58-.075c.023-.017.043-.212.043-.436v-.406l.232-.261c.128-.143.232-.285.232-.314s.065-.175.145-.325c.171-.32.333-.425.712-.463.471-.047.45-.029.45-.371 0-.166-.03-.402-.067-.524-.086-.285-.032-.492.204-.783.167-.206.17-.207.46-.207.181 0 .34.028.418.074a.6.6 0 0 0 .325.06c.165-.012.2-.031.211-.116s-.014-.108-.142-.135c-.1-.021-.228-.111-.364-.255-.247-.262-.31-.387-.35-.692l-.03-.226h-.249a.9.9 0 0 0-.696.287c-.149.148-.258.176-.384.099a.8.8 0 0 0-.191-.073c-.141-.034-.199-.179-.199-.502 0-.267-.026-.289-.351-.289a1.06 1.06 0 0 1-.699-.354c-.085-.117-.268-.091-.457.065s-.191.165-.267.617c-.047.279-.072.327-.321.61-.149.169-.321.336-.384.373-.14.082-.611.22-.749.22s-.128.078.021.165c.08.047.168.176.253.368a1.24 1.24 0 0 1 .13.615.83.83 0 0 1-.173.602 6.6 6.6 0 0 1-1.012 1.193c-.229.202-.237.217-.261.486s-.036.29-.291.564c-.381.41-.585.48-1.384.473-.362-.003-.65-.027-.702-.059-.069-.042-.099-.038-.141.019s-.04.135.016.4c.038.18.07.382.07.448 0 .156-.376 1.08-.705 1.731a15.32 15.32 0 0 0-.765 1.942c-.076.261-.174.501-.227.556-.118.123-.272.177-.338.118-.028-.025-.136-.058-.24-.074l-.367-.06a.43.43 0 0 0-.337.062 3.54 3.54 0 0 1-.447.202c-.407.153-.613.345-.771.716-.154.362-.295.505-.596.606-.22.073-.301.073-1.201-.008-.237-.021-.284-.013-.284.047 0 .128.152.172.603.172.381 0 .454.013.551.099a1.76 1.76 0 0 0 .36.21 2.05 2.05 0 0 1 .772.591c.276.347.301.416.294.803-.009.435.024.533.262.823.23.279.277.411.277.777v.284l.369.001c.215 0 .406.025.458.06.239.158.492.422.666.692.159.247.238.322.459.435a1.26 1.26 0 0 1 .454.383l.187.246h.387.387l.207.228c.319.352.553.747.853 1.434.261.6.28.629.403.631.071.001.164-.027.206-.062zm-9.418-.246c.106-.127.286-.158.37-.063.103.117.095-.013-.028-.494a6.71 6.71 0 0 1-.156-.806c-.03-.318-.048-.309-.12.06-.014.072-.052.132-.085.132-.047 0-.063.114-.076.538l-.05.646c-.044.143.021.138.145-.012zm.057-2.75c.029-1.569.093-2.253.279-3.018.19-.778.399-1.112.821-1.312.351-.166 1.111-.039 1.708.285.173.094.341.171.373.171.131 0-.057-.147-.513-.4s-.482-.262-.934-.292c-.471-.032-.551-.065-.576-.24-.014-.093.009-.096.774-.096.543 0 .803-.017.837-.056s-.004-.054-.176-.049a6.68 6.68 0 0 1-.732-.051c-.744-.085-1.428-.077-1.607.019-.24.129-.4.509-.542 1.29-.078.43-.09 2.992-.016 3.533l.079.669c.055.553.14 1.036.171.97.016-.034.04-.675.055-1.425zm12.718-4.297c.868-.465.931-.485 1.567-.485.495 0 .58-.013.768-.112.116-.061.273-.172.35-.245.166-.159.357-.565.334-.71-.013-.084-.034-.06-.111.125-.139.337-.33.558-.615.711-.24.129-.284.136-.826.136-.387 0-.64.023-.78.071l-.238.072c-.072.001.868-1.336 1.103-1.568.267-.265.35-.427.126-.246a4.69 4.69 0 0 0-.783.875c-.085.136-.223.33-.306.431-.243.297-.986 1.018-1.085 1.054a.35.35 0 0 0-.142.103c-.104.143.114.07.638-.21zm1.197-.673l.379-.029-.247-.036c-.339-.05-.421-.105-.387-.261.021-.096-.011-.069-.144.122-.197.283-.207.316-.076.268.052-.019.266-.048.474-.064zm1.023-.173a1.07 1.07 0 0 0 .543-.691c.095-.377.194-.537.5-.811.149-.133.282-.293.296-.355.016-.072-.013-.198-.077-.347-.15-.34-.163-.49-.094-1.084.074-.633.082-1.505.016-1.86s-.213-.622-.455-.824c-.31-.258-.657-.374-1.448-.484a.72.72 0 0 1-.379-.183c-.171-.148-.179-.166-.179-.411 0-.162-.019-.263-.053-.276-.04-.015-.053.086-.053.408s-.016.443-.063.488c-.035.033-.229.078-.432.101-.825.094-1.123.145-1.269.217-.24.118-.097.126.364.019.302-.07.585-.098.99-.098.977 0 1.653.264 2.167.846.299.338.362.52.428 1.233.038.411.035.445-.081.806-.271.843-.708 1.609-1.286 2.256-.454.508-.675.838-.637.951.052.153.931.226 1.2.099zm-9.209-1.357c.057-.077.161-.319.231-.538.187-.586.408-1.131.953-2.358.529-1.19.538-1.23.42-1.708-.055-.223-.059-.305-.02-.403.042-.106.069-.119.185-.095.075.015.392.039.705.053l.569.025-.513-.092c-.872-.156-1.384-.318-1.907-.603-.411-.224-.524-.312-.78-.608-.436-.504-.645-.879-.677-1.219l-.066-.595c-.066-.532-.048-1.18.044-1.597.118-.535.525-1.433.92-2.028a10.04 10.04 0 0 1 .784-.998c.432-.475.514-.628.335-.628-.169 0-.687.443-1.155.988-.581.676-.726.878-.987 1.37a6 6 0 0 0-.489 1.413 6.65 6.65 0 0 0-.043.837c-.001.688.031.842.31 1.514.286.69 1.122 1.61 1.991 2.192.567.38.664.501.687.859.018.279.014.286-.506 1.447-.46 1.024-.876 2.089-.876 2.242 0 .028-.038.115-.084.193l-.169.283c-.1.168-.103.193-.025.193.033 0 .106-.063.164-.14zm3.988-6.093c-.066-.207-.032-.262.299-.499.422-.302.673-.545.87-.841.248-.373.352-.649.352-.933 0-.218-.013-.239-.295-.547s-.39-.517-.311-.605c.02-.023.222-.084.449-.137.757-.175 1.015-.395 1.187-1.012.146-.523.208-.646.41-.812.214-.176.366-.182.5-.02.243.294.433.349 1.046.306.163-.012.237.117.237.41 0 .276.029.311.155.182.098-.101.097-.16-.013-.5-.101-.315-.157-.353-.422-.284a1.97 1.97 0 0 1-.403.049c-.206.001-.232-.013-.443-.242-.202-.22-.239-.241-.375-.221-.345.052-.67.435-.782.923-.1.434-.237.699-.421.816-.221.14-.565.244-.933.283-.244.026-.32.053-.369.132-.126.205-.08.315.306.736.426.464.433.497.213 1.015a2.73 2.73 0 0 1-1.087 1.192c-.196.111-.39.237-.431.279-.117.12-.094.28.051.348.069.032.147.089.175.126.077.106.093.041.034-.143zm4.233-.043c.057-.085.162-.289.234-.453.086-.196.174-.323.255-.371.176-.103.486-.09.79.033.144.058.27.096.28.084.036-.043-.048-1.182-.094-1.28a.64.64 0 0 1 .173-.7c.117-.093.419-.093.644-.001.367.15.664.038.82-.308.105-.235.11-.417.013-.474-.041-.024-.169-.058-.285-.076a2.03 2.03 0 0 1-.391-.109c-.099-.042-.191-.063-.205-.047-.037.042.239.32.394.397a.65.65 0 0 0 .221.067c.115 0 .116.205.001.335-.1.114-.25.121-.531.024a1.69 1.69 0 0 0-.454-.072c-.232 0-.256.01-.392.178-.19.235-.206.33-.143.852.05.412.036.709-.036.76-.018.012-.186.044-.376.071-.471.067-.556.127-.789.565l-.278.486c-.095.137-.1.197-.018.197.034 0 .107-.07.164-.155zm-4.103-.068c0-.044.033-.123.074-.175.073-.094.073-.094-.042-.01s-.162.265-.074.265c.023 0 .042-.036.042-.08zm-.527-.159c.014-.026.005-.048-.018-.048s-.045.022-.045.048.009.048.018.048.03-.022.045-.048zm6.869-.208c.108-.09.061-.192-.154-.335-.341-.225-.57-.212-.287.017.19.154.161.207-.095.176-.122-.015-.276-.042-.343-.061-.176-.048-.103.063.117.176.208.107.647.123.763.027zm-.484-.247c-.029-.04-.062-.063-.072-.051-.029.033.03.124.081.124.028 0 .025-.027-.009-.073zm-4.599-2.15c-.048-.092-.137-.194-.199-.228s-.118-.108-.125-.168-.031-.107-.053-.107c-.103 0 .018.227.249.464l.205.203a1.1 1.1 0 0 0-.078-.165zm6.217-.16c.13-.464.135-1.204.009-1.204-.03 0-.126.065-.213.143l-.159.143h.174.174v.334a1.89 1.89 0 0 1-.084.586c-.1.299-.105.354-.024.278.034-.032.089-.158.124-.281zm-6.201-.423c-.029-.013-.076-.013-.105 0s-.005.024.053.024.082-.01.053-.024zm4.968-.81c-.068-.497-.127-.527-.584-.297l-.22.111h.345.345l.032.215.061.335c.053.219.067-.026.021-.363zm.175-.23c-.032-.312-.125-.411-.382-.411-.142 0-.289.048-.501.163-.283.154-.414.268-.309.268.026 0 .207-.075.403-.167s.385-.167.419-.167c.108 0 .221.173.248.377l.055.4.029.203.031-.215a2.29 2.29 0 0 0 .007-.449zm-2.487-.49c-.029-.013-.085-.013-.126-.001s-.018.023.052.024.103-.008.074-.022zm-.759-.431c-.029-.013-.076-.013-.105 0s-.005.024.053.024.082-.01.053-.024zm-5.743-1.935a4.67 4.67 0 0 1 .358-.158l.611-.251c.285-.12.54-.188.885-.234l.485-.065-.527.017c-.388.012-.599.043-.801.117-.151.055-.326.1-.39.101-.137.001-.141-.035-.071-.754.043-.44.053-.474.2-.648.284-.335.306-.341 1.286-.339l.801-.028a6.41 6.41 0 0 0-.484-.119c-.365-.079-.445-.082-.78-.026a4.26 4.26 0 0 0-.621.155c-.35.129-.827.41-.827.487 0 .035.076.162.169.282s.169.258.169.308c0 .128-.226.519-.469.812-.114.138-.206.294-.206.351s.014.095.032.085l.179-.093zm10.674-.487c.134-.064.158-.098.158-.223 0-.097-.025-.158-.074-.179a2.04 2.04 0 0 1-.274-.186c-.14-.108-.273-.166-.443-.19-.261-.037-3.091.01-3.456.059-.122.017-.221.045-.221.066 0 .054.492.178 1.117.283l2.044.41c.338.084.933.063 1.149-.04zm-7.052-.408c.233-.259.424-.501.424-.538s-.066-.192-.147-.344-.159-.33-.173-.395c-.03-.138-.095-.145-.354-.038-.155.064-.377.079-1.228.083l-1.039.005-.204.197c-.202.194-.205.201-.254.598-.049.404-.07.808-.041.808a6.48 6.48 0 0 0 .348-.124 2.5 2.5 0 0 1 .82-.15c.533-.029.759.025 1.051.25.26.201.327.171.798-.351zm.635-.467c0-.01-.028-.019-.063-.019s-.063.021-.063.046.028.034.063.019.063-.036.063-.046zm-4.161-.365c-.013-.112-.029-.212-.038-.222s-.2-.029-.426-.041c-.488-.025-.643.024-.643.203 0 .067.025.133.056.147.046.02.584.08.983.109.083.007.089-.01.068-.197zm1.049-.771c.493-.073.535-.147.061-.107-.467.039-.574.069-.574.16 0 .05.023.061.074.037a2.88 2.88 0 0 1 .439-.089z" paint-order="stroke fill markers"/></g><g fill="#fff" stroke-width="1.318"><path d="M110.896 208.866c0-.261.592-.683 1.377-.981.947-.359 1.428-.656 1.633-1.007.088-.151.195-.294.236-.318s.054-.074.028-.112.003-.088.065-.109c.076-.026.1-.084.075-.178-.028-.1.016-.182.158-.297l.197-.159.044.338c.075.575-.044.835-.66 1.448-.301.299-.676.624-.834.721-.667.412-1.668.791-2.088.791-.191 0-.23-.023-.23-.136z" paint-order="stroke fill markers"/><path d="M109.726 211.459c-.316-.048-1.059-.278-1.237-.384l-.313-.173c-.085-.043-.153-.162-.179-.312-.306-1.776-.431-2.063-.367-.837l.044.843-.261-.301c-.338-.39-.527-.473-1.268-.555-.694-.077-.731-.115-.654-.665.073-.521.18-.753.395-.85l.2-.091-.044.184c-.049.201.076.851.174.905.034.019.109-.049.167-.152.078-.137.088-.228.039-.345-.071-.169-.03-.348.079-.348.092 0 .252-.153.365-.351l.095-.166.047.227c.065.316.184.284.33-.088.17-.435.277-.451.637-.095.165.163.33.278.369.257s.106-.15.151-.286c.092-.28.105-.286.276-.145.115.094.138.094.305-.006.109-.065.206-.085.244-.051s.079.294.099.584c.05.723.173 1.49.245 1.531.033.019.06-.179.06-.438 0-.273.029-.472.069-.472s.069.03.069.068.039.056.086.042c.061-.018.087-.207.088-.646.002-.772.06-.879.497-.933.18-.022.572-.108.872-.191.314-.087.708-.149.929-.147l.385.004-.781.344c-1.318.58-1.863 1.19-1.568 1.752.234.445.834.493 1.815.148a5.76 5.76 0 0 0 2.016-1.183c.935-.856 1.189-1.343 1.115-2.145-.024-.26-.009-.359.052-.359.119 0 .735.418.783.532a.17.17 0 0 0 .145.093c.149 0 .133-.24-.032-.486-.176-.262-.175-.264.064-.264.296 0 .432-.151.376-.419-.032-.155-.017-.235.05-.273.052-.03.098-.09.101-.134.015-.204.118-.549.163-.549.093 0 .634.528.896.875.321.425.68.779.737.727.068-.062-.895-1.321-1.368-1.789l-.313-.31.161-.096c.088-.053.196-.096.239-.096.127 0 .72.607.925.947l.411.654a11.73 11.73 0 0 1 1.144 2.447c.248.782.236.846-.184.922l-.211.038-.087-.552c-.126-.8-.364-1.529-.468-1.434-.044.04.085.882.234 1.523.058.249.09.489.072.531-.062.147-1.269.67-1.847.801-.558.126-.785.129-1.462.022-.212-.034-.305-.015-.471.096a.57.57 0 0 1-.493.099c-.52-.072-.649-.055-1.072.145-.231.109-.418.176-.417.15s.148-.16.327-.296.511-.42.738-.63.514-.445.637-.522c.223-.139.301-.319.138-.318-.047 0-.256.142-.465.315a17 17 0 0 1-1.067.78 6.31 6.31 0 0 0-1.195 1.025c-.599.662-1.171 1.167-1.422 1.253-.174.06-1.059.072-1.411.019zm-5.371-1.347c-.105-.156-.136-.315-.137-.687v-.484h.338.338l-.036.243c-.047.319.073.632.326.852.113.098.205.201.205.229s-.202.051-.449.051c-.432 0-.454-.007-.585-.203zm-38.224-4.584c-.131-.133-.418-.38-.761-.656l-.339-.278-.595-.487c-.357-.281-.397-.349-.213-.363a2.94 2.94 0 0 0 .387-.102l1.044-.291.439-.127c.255-.089.679-.101.91-.025.372.122.53.339.559.766.01.153.005.29-.013.303s-.046.087-.064.163-.056.172-.085.212l-.198.275c-.08.111-.164.205-.187.207s-.053.027-.067.055-.1.111-.192.184l-.211.18c-.024.025-.101.058-.171.072-.11.023-.144.01-.242-.09z" paint-order="stroke fill markers"/><path d="M66.729 206.424c-.234-.1-.49-.279-1.019-.713l-1.332-1.124-2.006-1.865c-.001-.018-.036-.053-.077-.076s-.067-.058-.058-.077c.026-.054.157-.012.202.063.022.037.055.067.074.066s.1.061.18.138.164.139.187.138.095.044.161.103c.164.145.24.152.51.045a6.42 6.42 0 0 1 .935-.29c.177-.044.348-.096.38-.118s.175-.059.318-.085.308-.072.364-.103.212-.076.345-.101.288-.072.344-.104a1.29 1.29 0 0 1 .309-.097 2.58 2.58 0 0 0 .396-.115c.133-.053.338-.087.698-.115.439-.034.544-.03.76.028.138.037.277.089.31.116s.076.046.097.045c.058-.004.303.275.422.48.096.166.108.22.135.616.025.376.02.466-.042.668-.257.842-.912 1.611-1.962 2.303-.176.116-.354.219-.396.227s-.147-.015-.234-.052zm-.054-.576a4.44 4.44 0 0 0 .843-.821 1.87 1.87 0 0 0 .287-.564.99.99 0 0 0 .056-.582c-.064-.493-.244-.766-.617-.936s-.8-.176-1.359-.012l-1.034.288c-1.017.277-1.006.272-1.028.531-.018.218.067.338.468.661l1.099.908.816.629c.117.03.341-.019.468-.102z" paint-order="stroke fill markers"/><path d="M66.064 206.64a4.9 4.9 0 0 0-.568-.066l-1.356-.111a.88.88 0 0 0-.218-.038c-.072.006-.569-.121-.738-.188-.06-.024-.146-.052-.191-.063-.096-.024-.565-.262-.699-.356a7.2 7.2 0 0 1-.407-.35l-.314-.286.056-.252a6.46 6.46 0 0 0 .173-1.096c.036-.448-.002-1.258-.071-1.523-.035-.136-.033-.159.017-.163a.09.09 0 0 1 .082.051c.013.03.042.054.064.053s.064.012.094.029c.046.027.045.042-.004.11-.069.095-.068.264.003.387.028.049.408.426.844.837l.808.802c.008.03.03.054.047.052s.034.019.036.045c.005.081.49.531 1.143 1.061l.315.263a10.08 10.08 0 0 0 .374.294l.335.265a1.04 1.04 0 0 0 .396.209c.122.019.192.084.091.084-.035 0-.176-.022-.313-.049zm1.609-.2c.011-.024.06-.035.108-.026.061.012.163-.03.331-.134.352-.218.826-.805 1.31-1.621.026-.043.037-.1.026-.125s-.001-.048.024-.05.057-.068.073-.148l.089-.366c.05-.185.054-.306.026-.723-.038-.574-.082-.693-.397-1.081a1 1 0 0 0-.441-.336c-.402-.183-.61-.21-1.235-.163-.4.03-.533.029-.506-.004.106-.132 1.046-.257 1.685-.225.544.028.713.076.766.22a.59.59 0 0 0 .091.161c.028.031.053.077.055.102a.75.75 0 0 0 .078.181c.137.246.202.389.254.558a.9.9 0 0 0 .082.203c.017.02.054.132.082.25a1.43 1.43 0 0 0 .091.281c.022.036.069.251.105.476l.108.539c.023.071.053.292.066.489.027.411.027.411-.322.72-.214.19-.514.349-.766.406a2.14 2.14 0 0 0-.259.077c-.057.023-.316.084-.576.136s-.517.123-.571.159c-.114.076-.41.111-.379.045z" paint-order="stroke fill markers"/><path d="M62.8 206.809c-.387.012-.775.008-.863-.009s-.35-.024-.582-.016c-.512.018-.554.01-.462-.084.102-.105.319-.495.428-.77l.061-.147a1.94 1.94 0 0 0 .055-.149c.028-.087.041-.08.374.201.51.429.916.635 1.649.836.415.114.467.103-.66.138z" paint-order="stroke fill markers"/><path d="M60.891 205.722c-.014-.032-.016-.207-.005-.389s.012-.393.002-.469.002-.168.027-.205c.054-.081.078-.135.207-.455.131-.326.12-.615-.031-.784-.143-.161-.288-.145-.425.048-.056.079-.101.174-.098.21s-.025.099-.061.14-.063.105-.061.143c.005.082-.008.086-.104.031-.063-.036-.084-.024-.168.098-.053.077-.095.161-.094.187.002.047-.074.071-.111.036s.026-.419.084-.514c.032-.052.057-.125.054-.161s.018-.089.045-.117.048-.075.046-.103.024-.118.057-.198.059-.165.058-.188.027-.075.063-.116.064-.098.062-.128c-.005-.068.308-.499.496-.685.087-.086.059-.195-.053-.205-.054-.005-.034-.008.044-.006.222.004.59.077.464.091-.058.007-.127.029-.154.05-.042.034-.041.047.011.103.033.035.098.221.145.413.072.293.082.389.062.603l-.035.578c-.006.178-.032.389-.057.468s-.042.192-.039.25a.58.58 0 0 1-.037.214 1.12 1.12 0 0 0-.059.251c-.008.078-.04.203-.071.278s-.055.154-.053.175c.006.061-.129.406-.159.41-.015.002-.038-.022-.052-.054z" paint-order="stroke fill markers"/><path d="M60.312 206.458c-.229-.154-.32-.259-.35-.403a.53.53 0 0 0-.089-.207c-.092-.099-.138-.858-.064-1.059.038-.103.072-.144.109-.132.03.01.076.016.104.014.036-.003.053.048.063.189.01.151-.005.219-.067.312-.067.099-.075.145-.05.275a1.32 1.32 0 0 0 .106.302c.042.08.088.19.102.245.036.14.266.261.375.197.044-.026.087-.073.096-.105.02-.072.076-.077.164-.015.066.046.066.05.008.126a3.62 3.62 0 0 0-.139.203c-.094.149-.205.167-.366.058zm.272-2.015c-.004-.062.008-.125.026-.139s.037.021.041.087-.008.125-.026.139-.037-.021-.041-.087zm10.319-.602c-.007-.054-.045-.126-.086-.161s-.076-.081-.077-.102-.037-.073-.079-.115c-.048-.048-.09-.152-.111-.279-.019-.111-.069-.263-.109-.338a.69.69 0 0 1-.079-.211c-.005-.078-.095-.271-.294-.631-.147-.266-.146-.3.005-.142.129.135.338.467.345.548.002.026.039.113.082.193s.081.188.085.24a.56.56 0 0 0 .061.187c.029.051.069.165.088.253a1.33 1.33 0 0 0 .116.305.54.54 0 0 1 .073.247l-.008.102zm11.261 8.539c.073-.07.439-.34.813-.6l1.79-1.244 1.11-.771.462.157c.354.121.516.243.697.528.13.204.351.433.491.509.176.095.256.211.256.372 0 .204.04.234.317.234.551 0 .347.172-.567.479-1.147.386-2.229.467-2.972.224-.506-.166-.53-.165-1.267.036-.413.113-.866.205-1.007.205-.22 0-.237-.018-.123-.128z" paint-order="stroke fill markers"/><path d="M76.549 214.81c-.324-1.043-.338-1.192-.133-1.37s1.014-.365 1.053-.244c.032.101.432.002.417-.103-.024-.179.025-.219.144-.116.153.133.509.044.478-.119-.013-.069.074-.1.229-.082.164.019.269-.022.305-.122s.117-.131.222-.096c.098.032.233-.015.329-.115.09-.094.255-.157.367-.14s.204-.015.204-.071.117-.101.261-.101.31-.061.369-.136.168-.112.241-.083.213-.023.311-.115c.234-.22.327-.115.141.16-.22.327-.187.856.068 1.106.318.311.728.338 1.667.108.736-.18.879-.19 1.179-.081.533.194 1.934.145 2.827-.099 1.109-.303 1.681-.609 1.855-.991.166-.363.392-.429 1.507-.439a9.36 9.36 0 0 0 1.337-.129c.362-.067.657-.086.657-.042s-.044.08-.097.08-.073.079-.043.177c.042.137-.023.213-.289.337-.808.377-.877.45-.65.686.074.077.02.101-.202.09-.183-.009-.308.031-.316.103l-.025.169c-.006.028-.09.006-.186-.047-.214-.119-.545-.023-.354.102.14.092.028.115-.411.084-.157-.011-.237.02-.203.078s.018.121-.029.151-.109.016-.138-.032c-.07-.118-.414-.016-.414.123 0 .072-.113.098-.317.073-.283-.034-.317-.015-.319.184-.002.159-.023.186-.078.096-.122-.2-.516-.1-.479.121.026.156.01.165-.109.063-.165-.143-.461-.105-.477.061-.023.238-.039.255-.116.128-.053-.087-.159-.11-.32-.068-.132.035-.217.101-.19.148s.012.11-.035.14-.112.012-.143-.041c-.073-.124-1.094-.125-1.316-.001-.114.063-.188.063-.226 0-.031-.052-.003-.096.063-.098s.051-.044-.046-.103a.59.59 0 0 0-.393-.041c-.148.039-.207.025-.169-.039.032-.054-.015-.124-.106-.154a3.57 3.57 0 0 1-.374-.16c-.166-.083-.227-.076-.293.032s-.084.086-.085-.087c-.002-.199-.032-.218-.273-.168-.204.042-.272.022-.272-.083 0-.173-.171-.184-.233-.015-.029.079-.145.11-.314.084-.216-.033-.284.002-.353.182-.047.123-.088.17-.091.105-.01-.205-.369-.131-.456.094-.045.117-.085.157-.088.088-.003-.079-.097-.113-.255-.094-.137.017-.241.078-.23.138s-.096.103-.27.094-.295.034-.303.104c-.027.243-.041.256-.121.124-.071-.117-.153-.111-.582.041-.275.097-.492.222-.483.276s-.094.086-.233.07c-.166-.019-.269.022-.306.125-.031.085-.115.131-.186.102s-.217.034-.325.139-.25.169-.316.142-.143.015-.172.092-.147.14-.263.14-.237.042-.268.094-.151.094-.267.094c-.187 0-.243-.105-.493-.908zm6.693-4.486c.103-.176.187-.415.187-.532 0-.264.766-1.065 1.244-1.302.419-.208 1.215-.515 1.334-.515.048 0-.053.151-.224.335-.256.276-.288.35-.177.421.172.11.183.1-1.16 1.031-1.369.949-1.452.988-1.204.563zm4.825.058l-.394-.398.394-.057.802-.147c.224-.049.425-.072.446-.05s-.091.227-.249.456-.287.463-.287.519c0 .211-.33.061-.711-.323zm-.183-1.44c-.008-.134-.071-.213-.171-.214-.135-.001-.138-.015-.023-.09.181-.119.297.019.247.294-.04.22-.041.22-.053.011zm-1.131-.758c.073-.549.099-.587.393-.587a.97.97 0 0 0 .444-.109c.203-.132.464-.046.464.154 0 .103-.094.145-.331.145-.268 0-.397.071-.674.375l-.342.375zm2.979.866c-.095-.072-.348-.131-.563-.131-.33 0-.391-.029-.391-.189l-.005-.251c-.005-.056.598-.31.742-.314.032-.001.078.08.103.18s.189.259.365.354l.32.173-.2.155c-.172.134-.223.137-.372.024zm.053 1.494c.077-.128.154-.169.218-.113.099.085.377.05.724-.09.331-.134.827-.289.927-.289.054 0 .077.085.051.189-.04.161-.002.189.258.192.254.002.278.019.144.1-.088.054-.674.123-1.302.154l-1.141.056zm3.368.267c-.251-.332-.254-.381-.019-.381.126 0 .177.053.159.165-.019.12.044.174.228.196.209.025.236.055.148.165-.156.196-.285.159-.516-.145z" paint-order="stroke fill markers"/></g></svg>