<?xml version="1.0" encoding="UTF-8" standalone="no"?>
<svg
   width="400"
   height="364"
   viewBox="0 0 300 273"
   preserveAspectRatio="xMidYMid meet"
   version="1.1"
   id="svg22448"
   sodipodi:docname="icono_tierra1-a.svg"
   inkscape:version="1.1.2 (b8e25be833, 2022-02-05)"
   xmlns:inkscape="http://www.inkscape.org/namespaces/inkscape"
   xmlns:sodipodi="http://sodipodi.sourceforge.net/DTD/sodipodi-0.dtd"
   xmlns="http://www.w3.org/2000/svg"
   xmlns:svg="http://www.w3.org/2000/svg">
  <defs
     id="defs22452" />
  <sodipodi:namedview
     id="namedview22450"
     pagecolor="#ffffff"
     bordercolor="#666666"
     borderopacity="1.0"
     inkscape:pageshadow="2"
     inkscape:pageopacity="0.0"
     inkscape:pagecheckerboard="0"
     showgrid="false"
     inkscape:lockguides="true"
     inkscape:zoom="0.80715074"
     inkscape:cx="10.530871"
     inkscape:cy="192.03352"
     inkscape:window-width="1920"
     inkscape:window-height="1017"
     inkscape:window-x="-8"
     inkscape:window-y="-8"
     inkscape:window-maximized="1"
     inkscape:current-layer="svg22448" />
  <g
     id="g22330"
     transform="matrix(-1,0,0,1,626.2992,-4.6382256)">
    <circle
       style="fill:#ffffff;fill-opacity:1;fill-rule:nonzero;stroke:none;stroke-width:6;stroke-linecap:round;stroke-linejoin:round;stroke-miterlimit:4;stroke-dasharray:none;stroke-opacity:1;paint-order:markers stroke fill"
       id="path2543-0"
       cx="461.57617"
       cy="127.10069"
       r="116.8894" />
    <path
       style="fill:#ffffff;fill-opacity:1;stroke:none;stroke-width:3.75;stroke-linecap:butt;stroke-linejoin:miter;stroke-miterlimit:4;stroke-dasharray:none;stroke-opacity:1"
       d="m 450.34739,26.160763 c 1.69822,4.74357 -2.28979,8.28483 -6.77801,10.19637 -4.48823,1.91154 -14.46177,1.59535 -16.75474,-3.02904 -2.29296,-4.62439 1.43257,-10.3438 6.33114,-12.42337 4.89857,-2.07958 15.50339,0.51247 17.20161,5.25604 z"
       id="path10946-3"
       sodipodi:nodetypes="zzzzz" />
    <circle
       style="fill:none;fill-opacity:0.842572;fill-rule:nonzero;stroke:#050000;stroke-width:6;stroke-linecap:round;stroke-linejoin:round;stroke-miterlimit:4;stroke-dasharray:none;stroke-opacity:1;paint-order:markers stroke fill"
       id="path2543"
       cx="459.50491"
       cy="126.36387"
       r="116.8894" />
    <path
       style="fill:none;stroke:#000000;stroke-width:3.75;stroke-linecap:butt;stroke-linejoin:miter;stroke-miterlimit:4;stroke-dasharray:none;stroke-opacity:1"
       d="m 450.34739,26.160763 c 1.69822,4.743568 -2.28979,8.284828 -6.77801,10.196371 -4.48823,1.911543 -14.46177,1.595351 -16.75474,-3.029039 -2.29296,-4.62439 1.43257,-10.343799 6.33114,-12.423376 4.89857,-2.079577 15.50339,0.512476 17.20161,5.256044 z"
       id="path10946"
       sodipodi:nodetypes="zzzzz" />
    <path
       style="fill:#ffffff;fill-opacity:1;stroke:none;stroke-width:3.75;stroke-linecap:butt;stroke-linejoin:miter;stroke-miterlimit:4;stroke-dasharray:none;stroke-opacity:1"
       d="m 359.89683,127.80206 c -0.21719,6.03149 -6.01928,8.44403 -7.081,14.828 -1.06171,6.38397 0.42877,14.47698 6.282,17.964 5.85323,3.48702 10.88361,-4.87049 16.418,-2.737 5.5344,2.13349 8.87733,6.0208 8.587,10.726 -0.29033,4.7052 -13.04387,4.27924 -10.41719,10.15085 3.50471,7.83432 5.41872,12.75186 10.81787,20.19944 5.39916,7.44758 13.48711,17.27269 21.03032,18.70371 7.54321,1.43102 9.36783,2.76227 14.77805,-2.07518 5.41022,-4.83744 1.3015,-22.74607 7.11395,-27.72381 5.81245,-4.97775 11.054,2.25165 15.8613,-2.68459 4.8073,-4.93625 6.08058,-15.75648 1.68935,-23.98887 -4.39123,-8.23239 -20.08706,-7.27291 -26.35395,-14.86633 -6.26689,-7.59342 -11.42812,-19.5323 -8.78466,-25.67822 2.64347,-6.14592 8.05089,-4.51492 12.92357,-6.67296 4.87269,-2.15804 12.19068,-4.79804 13.43039,-10.55847 1.23971,-5.76044 -7.62768,-9.80144 -7.43317,-14.86635 0.19452,-5.06491 11.00047,-6.22622 7.0953,-11.82549 -3.90517,-5.59927 -20.54361,7.02904 -26.69183,5.06806 -6.14821,-1.96097 -9.86893,-2.06896 -8.0053,-8.32779 1.86363,-6.25882 20.25325,-1.81369 26.92609,-6.20067 6.67284,-4.38698 14.01117,-10.09771 12.01491,-16.34233 -1.99626,-6.24462 -10.95812,-4.8361 -18.09659,-5.95717 -7.13847,-1.12107 -8.6262,-1.95547 -14.84301,-2.88367 -6.21682,-0.92819 -15.50246,1.73281 -22.2604,-0.959155 -6.75794,-2.691965 -20.01355,15.205365 -26.75427,27.493815 -6.74072,12.28845 -17.99816,37.14216 -11.65655,43.24753 9.99542,3.06064 13.40982,15.96666 13.40982,15.96665 z"
       id="path3437-9"
       sodipodi:nodetypes="czzzzszzzzzzzzzzzzzzzzzzzzcc" />
    <path
       style="fill:none;fill-opacity:0.842572;stroke:#000000;stroke-width:3.75;stroke-linecap:butt;stroke-linejoin:miter;stroke-miterlimit:4;stroke-dasharray:none;stroke-opacity:1"
       d="m 359.89683,127.80206 c -0.21719,6.03149 -6.01928,8.44403 -7.081,14.828 -1.06171,6.38397 0.42877,14.47698 6.282,17.964 5.85323,3.48702 10.88361,-4.87049 16.418,-2.737 5.5344,2.13349 8.87733,6.0208 8.587,10.726 -0.29033,4.7052 -13.04387,4.27924 -10.41719,10.15085 3.50471,7.83432 5.41872,12.75186 10.81787,20.19944 5.39916,7.44758 13.48711,17.27269 21.03032,18.70371 7.54321,1.43102 9.36783,2.76227 14.77805,-2.07518 5.41022,-4.83745 1.3015,-22.74607 7.11395,-27.72382 5.81245,-4.97775 11.054,2.25166 15.8613,-2.68459 4.8073,-4.93625 6.08058,-15.75648 1.68935,-23.98887 -4.39123,-8.23239 -20.08706,-7.27291 -26.35395,-14.86633 -6.26689,-7.59342 -11.42812,-19.5323 -8.78466,-25.67822 2.64347,-6.14592 8.05089,-4.51492 12.92357,-6.67296 4.87269,-2.15804 12.19068,-4.79804 13.43039,-10.55847 1.23971,-5.760431 -7.62768,-9.801438 -7.43317,-14.866346 0.19452,-5.064908 11.00047,-6.22622 7.0953,-11.82549 -3.90517,-5.59927 -20.54361,7.029038 -26.69183,5.068065 -6.14821,-1.960973 -9.86893,-2.068969 -8.0053,-8.32779 1.86363,-6.258821 20.25325,-1.813695 26.92609,-6.200673 6.67284,-4.386978 14.01117,-10.097707 12.01491,-16.342327 -1.99626,-6.24462 -10.95812,-4.836109 -18.09659,-5.957179 -7.13847,-1.12107 -8.6262,-1.95547 -14.84301,-2.883663 -6.21682,-0.928193 -15.50246,1.732807 -22.2604,-0.959158 -6.75794,-2.691965 -20.01355,15.205361 -26.75427,27.493811 -6.74072,12.28845 -17.99816,37.14216 -11.65655,43.24753 9.99542,3.06064 13.40982,15.96666 13.40982,15.96666 z"
       id="path3437"
       sodipodi:nodetypes="czzzzszzzzzzzzzzzzzzzzzzzzcc" />
    <path
       style="fill:#ffffff;fill-opacity:1;stroke:none;stroke-width:3.75;stroke-linecap:butt;stroke-linejoin:miter;stroke-miterlimit:4;stroke-dasharray:none;stroke-opacity:1"
       d="m 529.20289,35.961 c -9.30568,-3.21643 -11.28605,2.72839 -14.96279,1.54271 -3.67674,-1.18567 -3.22933,-5.95306 -6.08168,-5.40594 -2.85235,0.54712 -4.16653,8.30223 -4.16653,8.30223 -6.99534,13.72047 -19.15322,3.99973 -24.55253,2.50965 -5.39931,-1.49007 -13.66093,11.82711 -12.16337,17.23144 1.49756,5.40433 7.30601,1.16541 11.48763,5.06807 4.18162,3.90266 5.0429,16.10039 10.13613,19.25866 5.09323,3.15827 9.5104,3.20563 14.1906,0.33788 4.6802,-2.86776 1.67091,-15.37376 8.1089,-16.89357 6.43799,-1.5198 16.43846,6.63025 16.5557,12.83911 0.11724,6.20886 -11.48127,5.95485 -12.50124,10.47401 -1.01997,4.51915 1.1932,8.0753 4.78318,10.44475 3.58998,2.36945 13.32615,-3.78286 16.82457,-0.47219 3.49842,3.31067 5.78402,8.12796 -1.33547,15.36778 -7.11949,7.23982 -17.09478,-10.96372 -24.15282,-4.20786 -7.05805,6.75586 13.08721,18.76225 13.67881,22.45291 0.5916,3.69066 -11.51224,3.77231 -15.37955,6.7952 -3.86731,3.02289 -7.7353,4.94397 -6.24421,9.08475 1.49109,4.14078 9.5375,2.32818 11.66367,4.90941 2.12617,2.58123 9.09392,6.04285 1.51331,7.25396 -15.01999,2.12944 -31.76002,6.36389 -35.81436,17.90718 -4.05434,11.54329 8.61341,17.98242 14.19059,26.69183 5.57718,8.70941 7.86385,17.38404 11.53646,20.86303 6.77846,1.32879 20.3348,-7.00049 25.40394,-12.09887 5.06914,-5.09838 0.96758,-13.59071 4.97966,-20.07084 4.01208,-6.48013 13.99019,-5.48001 19.7784,-10.55729 5.78821,-5.07728 7.4141,-7.2184 10.16566,-18.6396 2.75156,-11.4212 -24.62734,-25.76806 -21.85916,-38.11796 2.76818,-12.3499 21.58676,-11.95482 26.31006,-23.51057 1.51352,-11.55575 -4.28289,-26.15073 -11.44373,-39.0981 C 552.69188,53.27541 538.50857,39.17743 529.20289,35.961 Z"
       id="path6921-9"
       sodipodi:nodetypes="zzzczzzzzzzzzzzzzzzzczzczzzccczz" />
    <path
       style="fill:none;stroke:#000000;stroke-width:3.75;stroke-linecap:butt;stroke-linejoin:miter;stroke-miterlimit:4;stroke-dasharray:none;stroke-opacity:1"
       d="m 529.20289,35.961 c -9.30568,-3.216431 -11.28605,2.728387 -14.96279,1.542712 -3.67674,-1.185675 -3.22933,-5.953057 -6.08168,-5.40594 -2.85235,0.547117 -4.16653,8.302228 -4.16653,8.302228 -6.99534,13.720468 -19.15322,3.999726 -24.55253,2.509653 -5.39931,-1.490073 -13.66093,11.827112 -12.16337,17.231436 1.49756,5.404324 7.30601,1.165409 11.48763,5.06807 4.18162,3.902661 5.0429,16.100389 10.13613,19.258661 5.09323,3.158272 9.5104,3.205628 14.1906,0.337875 4.6802,-2.867753 1.67091,-15.373761 8.1089,-16.893566 6.43799,-1.519805 16.43846,6.630248 16.5557,12.839111 0.11724,6.208863 -11.48127,5.954851 -12.50124,10.474005 -1.01997,4.519154 1.1932,8.075306 4.78318,10.444755 3.58998,2.36945 13.32615,-3.782859 16.82457,-0.47219 3.49842,3.31067 5.78402,8.12796 -1.33547,15.36778 -7.11949,7.23982 -17.09478,-10.96372 -24.15282,-4.20786 -7.05805,6.75586 13.08721,18.76225 13.67881,22.45291 0.5916,3.69066 -11.51224,3.77231 -15.37955,6.7952 -3.86731,3.02289 -7.7353,4.94397 -6.24421,9.08475 1.49109,4.14078 9.5375,2.32818 11.66367,4.90941 2.12617,2.58123 9.09392,6.04285 1.51331,7.25396 -15.01999,2.12944 -31.76002,6.36389 -35.81436,17.90718 -4.05434,11.54329 8.61341,17.98242 14.19059,26.69183 5.57718,8.70941 7.86385,17.38404 11.53646,20.86303 6.77846,1.32879 20.3348,-7.00049 25.40394,-12.09887 5.06914,-5.09838 0.96758,-13.59071 4.97966,-20.07084 4.01208,-6.48013 13.99019,-5.48001 19.7784,-10.55729 5.78821,-5.07728 7.4141,-7.2184 10.16566,-18.6396 2.75156,-11.4212 -24.62734,-25.76806 -21.85916,-38.11796 2.76818,-12.3499 21.58676,-11.95482 26.31006,-23.51057 C 572.80997,93.765117 567.01356,79.170135 559.85272,66.222773 552.69188,53.275411 538.50857,39.177431 529.20289,35.961 Z"
       id="path6921"
       sodipodi:nodetypes="zzzczzzzzzzzzzzzzzzzczzczzzccczz" />
    <path
       style="fill:none;stroke:#000700;stroke-width:6;stroke-linecap:round;stroke-linejoin:miter;stroke-miterlimit:4;stroke-dasharray:none;stroke-opacity:1"
       d="m 577.70212,135.16238 c 14.8553,-5.29663 27.91792,-14.59875 32.081,-39.454004"
       id="path12945"
       sodipodi:nodetypes="cc" />
    <path
       style="fill:none;stroke:#000100;stroke-width:6;stroke-linecap:round;stroke-linejoin:miter;stroke-miterlimit:4;stroke-dasharray:none;stroke-opacity:1"
       d="m 348.48101,171.63546 c -11.94069,8.37088 -16.18884,30.47208 -11.81129,40.25557"
       id="path12945-6"
       sodipodi:nodetypes="cc" />
    <ellipse
       style="fill:#ffffff;fill-opacity:1;fill-rule:nonzero;stroke:none;stroke-width:3.59535;stroke-linecap:square;stroke-linejoin:round;stroke-miterlimit:4;stroke-dasharray:none;stroke-opacity:1;paint-order:markers stroke fill"
       id="path16185-2-1"
       cx="438.1629"
       cy="138.56842"
       rx="8.5842514"
       ry="5.9037719" />
    <path
       style="fill:none;stroke:#000800;stroke-width:6;stroke-linecap:butt;stroke-linejoin:miter;stroke-miterlimit:4;stroke-dasharray:none;stroke-opacity:1"
       d="m 609.78312,95.708376 c 0,0 -11.37006,-9.60253 -5.89204,-10.62885 5.47802,-1.02632 6.75446,-3.17514 9.11734,-3.70583 2.36287,-0.53068 6.59281,4.0853 4.3004,8.36189 -2.2924,4.27659 -7.5257,5.97279 -7.5257,5.97279 z"
       id="path14197"
       sodipodi:nodetypes="czzzc" />
    <path
       style="fill:none;stroke:#000800;stroke-width:6;stroke-linecap:butt;stroke-linejoin:miter;stroke-miterlimit:4;stroke-dasharray:none;stroke-opacity:1"
       d="m 336.66972,211.89103 c 0,0 -4.75463,14.1025 0.46322,12.14389 5.21784,-1.95861 7.42252,-0.78127 9.71874,-1.55081 2.29621,-0.76955 3.52465,-6.90881 -0.65098,-9.38035 -4.17562,-2.47154 -9.53098,-1.21273 -9.53098,-1.21273 z"
       id="path14197-0"
       sodipodi:nodetypes="czzzc" />
    <path
       style="fill:none;stroke:#040000;stroke-width:6;stroke-linecap:square;stroke-linejoin:miter;stroke-miterlimit:4;stroke-dasharray:none;stroke-opacity:1"
       d="m 479.37508,241.65856 c 0,0 -7.54673,25.57392 -5.01713,29.02769 2.5296,3.45377 7.18412,1.81701 9.43698,1.07511 2.25286,-0.7419 3.50909,-1.68764 3.46421,-3.2253 -0.0449,-1.53766 -1.24842,-2.37143 -3.46421,-2.86694 -2.21579,-0.49551 -4.91124,4.71789 -7.64515,2.1502 -2.73392,-2.56768 3.2253,-26.16076 3.2253,-26.16076 z"
       id="path15317"
       sodipodi:nodetypes="czzzzzc" />
    <path
       style="fill:none;stroke:#040000;stroke-width:6;stroke-linecap:square;stroke-linejoin:miter;stroke-miterlimit:4;stroke-dasharray:none;stroke-opacity:1"
       d="m 451.04378,241.3768 c 0,0 7.54673,25.57392 5.01713,29.02769 -2.5296,3.45377 -7.18412,1.81701 -9.43698,1.07511 -2.25286,-0.7419 -3.50909,-1.68764 -3.46421,-3.2253 0.0449,-1.53766 1.24842,-2.37143 3.46421,-2.86694 2.21579,-0.49551 4.91124,4.71789 7.64515,2.1502 2.73392,-2.56768 -3.2253,-26.16076 -3.2253,-26.16076 z"
       id="path15317-8"
       sodipodi:nodetypes="czzzzzc" />
    <ellipse
       style="fill:#ffffff;fill-opacity:1;fill-rule:nonzero;stroke:#010103;stroke-width:3.59535;stroke-linecap:square;stroke-linejoin:round;stroke-miterlimit:4;stroke-dasharray:none;stroke-opacity:1;paint-order:markers stroke fill"
       id="path16185"
       cx="437.77896"
       cy="138.71475"
       rx="8.5842514"
       ry="5.9037719" />
    <ellipse
       style="fill:#ffffff;fill-opacity:1;fill-rule:nonzero;stroke:none;stroke-width:3.59535;stroke-linecap:square;stroke-linejoin:round;stroke-miterlimit:4;stroke-dasharray:none;stroke-opacity:1;paint-order:markers stroke fill"
       id="path16185-2-1-2"
       cx="485.9451"
       cy="136.17932"
       rx="8.5842514"
       ry="5.9037719" />
    <ellipse
       style="fill:#ffffff;fill-opacity:1;fill-rule:nonzero;stroke:#010103;stroke-width:3.59535;stroke-linecap:square;stroke-linejoin:round;stroke-miterlimit:4;stroke-dasharray:none;stroke-opacity:1;paint-order:markers stroke fill"
       id="path16185-2"
       cx="486.18408"
       cy="136.89604"
       rx="8.5842514"
       ry="5.9037719" />
    <path
       style="fill:none;stroke:#010103;stroke-width:3.75;stroke-linecap:round;stroke-linejoin:round;stroke-miterlimit:4;stroke-dasharray:none;stroke-opacity:1"
       d="m 429.667,128.42178 c 2.40859,-4.2172 2.99671,-10.22547 7.91415,-10.47272 6.50959,0.53374 6.13624,6.70569 7.69624,10.0436"
       id="path16442"
       sodipodi:nodetypes="ccc" />
    <path
       style="fill:none;stroke:#010103;stroke-width:3.75;stroke-linecap:round;stroke-linejoin:round;stroke-miterlimit:4;stroke-dasharray:none;stroke-opacity:1"
       d="m 477.761,125.59278 c 2.40859,-4.2172 2.99671,-10.22547 7.91415,-10.47272 6.50959,0.53374 6.13624,6.70569 7.69624,10.0436"
       id="path16442-27"
       sodipodi:nodetypes="ccc" />
    <path
       style="fill:none;stroke:#010103;stroke-width:3.75;stroke-linecap:round;stroke-linejoin:round;stroke-miterlimit:4;stroke-dasharray:none;stroke-opacity:1"
       d="m 456.16941,128.67826 c 0.46328,1.03239 1.81358,4.5736 5.20228,4.87405 4.16314,-0.0321 4.72318,-3.21414 5.45619,-5.95499"
       id="path16442-2"
       sodipodi:nodetypes="ccc" />
  </g>
</svg>
