<svg xmlns="http://www.w3.org/2000/svg" width="500" height="500" fill="#fff" stroke="#000" stroke-width="10" xmlns:v="https://vecta.io/nano"><path d="M245 107.5L106.356 247.774s-17.839 17.355-6.69 17.355h29.213V391h234.614V265.129H397.5c8.048 0-8.688-17.355-8.688-17.355L245 107.5z"/><path d="M236.766 253.555c3.515 1.771 8.09 6.017 8.09 6.017s5.556-4.306 9.655-6.017c9.785-4.083 17.986-5.355 27.14 0 9.49 5.552 12.868 13.845 13.308 24.85.388 9.689-1.968 16.233-8.611 23.281C271.207 317.75 244.856 337 244.856 337s-23.23-18.727-39.143-35.314c-6.923-7.215-10.977-12.817-10.7-23.281.303-11.419 5.284-19.582 15.397-24.85 9.133-4.757 17.16-4.634 26.356 0z"/></svg>