<svg xmlns="http://www.w3.org/2000/svg" width="500" height="500" fill="none" xmlns:v="https://vecta.io/nano"><style><![CDATA[.B{stroke:#000}.C{fill:#fff}.D{stroke-width:10}.E{fill:#000}.F{stroke-width:5}.G{stroke-opacity:.2}.H{stroke-linecap:round}]]></style><g clip-path="url(#A)"><g class="B C D"><use href="#B"/><use href="#B"/></g><g class="E"><path d="M370.771 288.53c1.837 25.685-16.399 31.591-39.644 15.617-12.792-4.818-22.732-14.35-17.875-27.245s18.771-27.366 31.563-22.548 25.059 21.618 25.956 34.176z"/><use href="#C"/><use href="#D"/><path d="M333.097 424.422c-9.495 14.752-22.929 24.134-35.449 19.419s-25.878-28.406-21.224-40.763c1.034-25.16 29.911-14.284 42.431-9.569s27.022 2.957 14.242 30.913zm65.248 15.012c-12.622 18.574-13.124 10.609-22.378 7.124s-19.026-3.269-16.092-11.059 20.648-26.104 29.902-22.619 16.061 21.601 8.568 26.554zm52.259-53.422c-4.516 14.83-6.956 17.91-20.025 13.907-14.191-13.12-21.322-9.273-16.807-24.103s13.321-17.199 26.672-18.281c13.069 4.004 14.675 13.647 10.16 28.477z"/><path d="M446.009 401.029c-24.892 66.094-83.616 78.184-125.509 62.407s-80.738-64.615-55.846-130.709 96.758-104.931 138.65-89.153 67.597 91.361 42.705 157.455z"/></g><use href="#B" class="B C D"/><g class="E"><path d="M372.698 290.883c1.837 25.686-16.399 31.592-39.644 15.617-12.792-4.818-22.732-14.349-17.875-27.244s18.771-27.366 31.563-22.549 25.058 21.619 25.956 34.176z"/><use href="#C"/><use href="#D"/><path d="M333.097 424.423c-9.495 14.752-22.929 24.134-35.449 19.418s-25.878-28.405-21.224-40.762c1.034-25.16 29.911-14.284 42.431-9.569s27.022 2.957 14.242 30.913zM442.686 305.26c-8.427 22.376-17.402 31.265-31.589 13.652-8.821-28.871-24.977-21.829-19.565-36.199 12.015-15.47 21.456-21.051 34.248-16.234s21.56 26.424 16.906 38.781zM382.55 424.599c-12.623 18.574-13.124 10.609-22.378 7.124s-19.027-3.269-16.093-11.059 20.648-26.104 29.902-22.619 16.061 21.601 8.569 26.554zm17.697 33.208c-8.191 4.644-16.807 7.826-25.528 9.71-2.763-3.028-1.725-4.682-.184-7.136.676-1.078 1.45-2.309 2.041-3.879.659-1.75 1.136-3.528 1.577-5.173 1.316-4.908 2.314-8.63 6.897-6.904 3.866 1.456 11.074 7.425 15.197 13.382zM360.76 243.372c8.449-2.214 16.927-3.073 25.207-2.786 2.131 3.712.772 4.959-1.287 6.848-.868.796-1.859 1.706-2.767 2.963-1.012 1.402-1.864 2.872-2.653 4.233-2.355 4.06-4.141 7.139-7.883 4.474-3.166-2.254-8.304-9.387-10.617-15.732zm88.462 142.22c-4.515 14.831-6.955 17.91-20.024 13.907-14.191-13.12-21.322-9.273-16.807-24.103s13.321-17.199 26.672-18.281c13.069 4.004 14.675 13.647 10.159 28.477z"/></g><g class="C"><g class="B"><path d="M277.627 366.34c.088-4.067 5.835-4.991 6.976-1.086l.617 2.115c.679 2.321 3.605 3.055 5.298 1.327h0c2.131-2.174 5.802-.38 5.397 2.636l-.11.82a3.44 3.44 0 0 0 3.859 3.867l.981-.129c3.115-.412 4.953 3.386 2.724 5.6h0c-1.568 1.556-1.171 4.197.792 5.21l.404.208c2.32 1.196 2.159 4.566-.264 5.536h0a3.05 3.05 0 0 0-1.061 4.944l1.574 1.632c2.435 2.525-.237 6.601-3.524 5.375h0c-2.572-.96-5.121 1.461-4.294 4.079l.563 1.785c1.251 3.96-4.139 6.489-6.385 2.996l-.974-1.514c-1.573-2.448-5.26-2.074-6.31.639l-1.834 4.734c-1.556 4.017-7.579 2.329-6.82-1.912l.383-2.145c.534-2.985-2.93-5.026-5.282-3.112h0c-2.855 2.323-6.776-1.11-4.851-4.247l.895-1.458c1.544-2.516-.476-5.709-3.412-5.399h0c-3.975.421-5.473-5.048-1.868-6.774h0c2.658-1.272 2.691-5.067.066-6.406h0c-3.551-1.813-1.974-7.253 1.978-6.727h0c2.926.39 4.986-2.813 3.496-5.36h0c-1.993-3.409 2.204-7.157 5.206-4.593h0c2.247 1.919 5.715.313 5.78-2.641h0z" class="F"/><path d="M127.468 188.91l-32.6 4.304-7.779 1.027S43.878 103.44 66.821 54.481c3.381-7.214 6.837-11.222 12.243-15.226 5.071-3.756 10.014-4.145 15.905-2.1 6.627 2.3 11.446 7.008 17.039 13.795 28.583 34.685 15.46 137.961 15.46 137.961z" class="D"/></g><use href="#E"/></g><g class="B"><g stroke-width="8"><use href="#E"/><use href="#E" class="G"/></g><g class="C D"><path d="M213.372 189.872l-27.816-17.537-6.638-4.185s24.841-97.442 73.787-120.413c7.213-3.385 12.432-4.256 19.149-3.878 6.301.355 10.349 3.217 13.571 8.556 3.624 6.006 4.319 12.708 4.279 21.501-.203 44.944-76.332 115.955-76.332 115.955z"/></g></g><use href="#F" class="C"/><g class="B"><g stroke-width="8"><use href="#F"/><use href="#F" class="G"/></g><g class="C D"><path d="M103.081 424.656c10.032 75.981 195.286 48.477 168.487-32.997-.449-3.404-7.395-20.084-8.872-24.012s-20.071-43.144-22.295-46.518c0 0-123.679 12.28-124.542 16.444l-13.237 61.39c-.985 5.796-.855 15.744.459 25.693z"/></g></g><path d="M178.502 452.676l-15.61 4.044s-11.862-.403-17.618-4.919c-3.983-3.125-5.783-4.779-8.699-8.544-3.117-4.024-4.552-6.483-6.747-11.292s-2.651-7.495-3.504-12.532-.703-12.315-.703-12.315.41-6.327 1.374-10.249c1.601-6.519 3.372-10.054 7.014-15.694 3.279-5.078 5.541-7.761 10.103-11.727 5.499-4.779 9.276-6.779 15.988-9.614 8.1-3.422 13.161-4.488 21.933-5.095 7.081-.49 12.069-.674 19.02.762s11.226 2.126 17.524 5.243c5.236 2.591 9.007 4.778 13.491 8.524 5.129 4.284 7.161 7.896 10.402 13.741 2.747 4.952 3.918 9.936 5.134 15.466 1.375 6.257 1.012 9.095.522 14.359s-1.429 7.635-3.541 13.519-2.784 6.917-5.46 10.596c-2.456 3.377-4.679 5.364-7.986 7.914-3.231 2.491-9.169 5.006-9.169 5.006s-7.932-.488-14.016-.472-9.066-.004-14.708.469c-5.832.49-9.061 1.413-14.744 2.81zM62.417 292.5c-.388-1.187-16.056.057-15.996-5.725s13.962-9.68 17.436-27.048c10.034-50.175 32.73-95.472 89.569-102.976s90.513 30.348 113.226 76.2c7.862 15.872 22.299 16.028 23.858 21.596s-13.895 8.434-13.962 9.68 12.757 6.152 13.293 10.206-14.153 11.355-23.502 21.663c-22.779 25.117-54.327 42.23-88.346 46.722s-68.928-3.847-97.445-22.192c-11.703-7.528-27.783-10.767-28.318-14.82s10.576-12.12 10.188-13.306z" class="C"/><path d="M103.285 256.321c-6.04.798-35.84 7.169-38.706 24.927-4.169 25.835 69.456 33.925 87.513 31.541 18.078-2.387 86.223-26.804 76.024-53.133-6.498-16.774-37.809-14.825-43.849-14.027s-5.216 12.47-10.884 10.662c-10.889-3.474-14.928-6.229-28.016-4.501s-19.22 5.842-28.803 12.003c-5.005 3.217-7.238-8.27-13.279-7.472z" fill="#fefffb"/><path fill-rule="evenodd" d="M87.912 189.758c14.688-19.372 35.564-33.175 65.148-37.081s53.327 4.006 72.539 18.901c19.079 14.792 33.526 36.335 45.021 59.517 3.437 6.929 8.257 10.42 12.663 12.919 1.007.571 1.976 1.081 2.941 1.59l.358.189c1.05.553 2.14 1.133 3.122 1.738 1.805 1.111 4.236 2.87 5.076 5.869 1.017 3.631-1.036 6.367-2.771 7.876s-4.019 2.631-5.944 3.451l-.391.165c1.587.927 3.331 2.023 4.775 3.208.776.637 1.576 1.389 2.237 2.25.641.837 1.341 2.024 1.537 3.504.239 1.811-.426 3.331-1.033 4.33-.625 1.029-1.466 1.963-2.299 2.777-1.666 1.626-3.958 3.394-6.309 5.175l-1.124.85c-4.619 3.489-9.76 7.373-13.798 11.819-23.438 25.81-55.903 43.415-90.963 48.044s-70.981-3.946-100.315-22.788c-5.053-3.246-11.027-5.663-16.393-7.834l-1.306-.529c-2.733-1.11-5.406-2.222-7.436-3.36-1.016-.57-2.071-1.253-2.941-2.085-.846-.807-1.882-2.103-2.121-3.913-.195-1.481.172-2.808.575-3.783.414-1.003.992-1.937 1.576-2.754 1.087-1.519 2.486-3.03 3.779-4.338l-.42-.057c-2.072-.292-4.567-.783-6.636-1.79s-4.761-3.117-4.721-6.887c.033-3.114 1.925-5.444 3.38-6.986.791-.838 1.693-1.681 2.563-2.488l.297-.275 2.428-2.299c3.607-3.557 7.356-8.18 8.876-15.764 5.084-25.37 13.446-49.924 28.032-69.161zm6.517 4.941c-13.524 17.836-21.558 41.021-26.53 65.827-1.961 9.786-6.913 15.798-11.152 19.979-.921.908-1.819 1.741-2.612 2.475l-.293.272c-.89.825-1.599 1.493-2.176 2.105-.405.429-.669.756-.841.994.881.385 2.251.711 4.013.959 1.394.197 2.76.314 4.056.424l1.249.11c.752.069 1.586.155 2.279.29.328.063.84.177 1.365.398.265.112.684.313 1.118.657s1.082.991 1.424 2.034c.544 1.662-.104 3.027-.255 3.341-.244.509-.547.925-.752 1.189-.429.551-.98 1.128-1.484 1.635l-1.65 1.613-.104.1-1.903 1.862c-1.3 1.303-2.433 2.535-3.192 3.597a10.67 10.67 0 0 0-.241.351c.145.09.31.187.499.293 1.505.844 3.691 1.771 6.514 2.918l1.382.559c5.253 2.121 11.925 4.816 17.659 8.499 27.77 17.837 61.756 25.927 94.825 21.561s63.79-21 85.979-45.433c4.582-5.046 10.326-9.38 14.848-12.792l1.189-.898c2.429-1.84 4.299-3.302 5.534-4.508.155-.152.29-.289.406-.413a11.8 11.8 0 0 0-.323-.277c-1.009-.828-2.423-1.724-4.017-2.645l-2.321-1.304-.126-.069-2.013-1.13c-.618-.359-1.3-.773-1.857-1.194-.267-.202-.667-.524-1.035-.953-.227-.264-1.208-1.414-1.113-3.16.059-1.096.52-1.893.847-2.334a4.74 4.74 0 0 1 .909-.924 6.95 6.95 0 0 1 1.215-.74c.634-.31 1.417-.61 2.126-.872l1.178-.429c1.222-.443 2.511-.91 3.806-1.462 1.637-.698 2.876-1.368 3.626-1.968-.227-.186-.567-.432-1.07-.742-.716-.441-1.574-.902-2.648-1.468l-.353-.186-3.165-1.713c-5.179-2.937-11.522-7.458-15.955-16.399-11.24-22.667-25.016-42.972-42.706-56.687-17.557-13.612-39.127-20.866-66.458-17.257s-46.279 16.213-59.701 33.915zm192.555 60.062c.001 0-.004.008-.015.023.009-.015.015-.022.015-.023zm-.722 20.66zm-230.354 28.87c0 0 .007.007.017.02-.012-.013-.018-.02-.017-.02zm.377 1.477zm-6.065-19.746c.001 0 .008.006.021.018-.015-.012-.022-.017-.021-.018z" class="E"/><path d="M60.915 296.173c0 0-.007-.002-.02-.005m-2.023-5.443l.012-.017m29.028-100.95c14.688-19.372 35.564-33.175 65.148-37.081s53.327 4.006 72.539 18.901c19.079 14.792 33.526 36.335 45.021 59.517 3.437 6.929 8.257 10.42 12.663 12.919 1.007.571 1.976 1.081 2.941 1.59l.358.189c1.05.553 2.14 1.133 3.122 1.738 1.805 1.111 4.236 2.87 5.076 5.869 1.017 3.631-1.036 6.367-2.771 7.876s-4.019 2.631-5.944 3.451l-.391.165c1.587.927 3.331 2.023 4.775 3.208.776.637 1.576 1.389 2.237 2.25.641.837 1.341 2.024 1.537 3.504.239 1.811-.426 3.331-1.033 4.33-.625 1.029-1.466 1.963-2.299 2.777-1.666 1.626-3.958 3.394-6.309 5.175l-1.124.85c-4.619 3.489-9.76 7.373-13.798 11.819-23.438 25.81-55.903 43.415-90.963 48.044s-70.981-3.946-100.315-22.788c-5.053-3.246-11.027-5.663-16.393-7.834l-1.306-.529c-2.733-1.11-5.406-2.222-7.436-3.36-1.016-.57-2.071-1.253-2.941-2.085-.846-.807-1.882-2.103-2.121-3.913-.195-1.481.172-2.808.575-3.783.414-1.003.992-1.937 1.576-2.754 1.087-1.519 2.486-3.03 3.779-4.338l-.42-.057c-2.072-.292-4.567-.783-6.636-1.79s-4.761-3.117-4.721-6.887c.033-3.114 1.925-5.444 3.38-6.986.791-.838 1.693-1.681 2.563-2.488l.297-.275 2.428-2.299c3.607-3.557 7.356-8.18 8.876-15.764 5.084-25.37 13.446-49.924 28.032-69.161zm6.517 4.941c-13.524 17.836-21.558 41.021-26.53 65.827-1.961 9.786-6.913 15.798-11.152 19.979-.921.908-1.819 1.741-2.612 2.475l-.293.272c-.89.825-1.599 1.493-2.176 2.105-.405.429-.669.756-.841.994.881.385 2.251.711 4.013.959 1.394.197 2.76.314 4.056.424l1.249.11c.752.069 1.586.155 2.279.29.328.063.84.177 1.365.398.265.112.684.313 1.118.657s1.082.991 1.424 2.034c.544 1.662-.104 3.027-.255 3.341-.244.509-.547.925-.752 1.189-.429.551-.98 1.128-1.484 1.635l-1.65 1.613-.104.1-1.903 1.862c-1.3 1.303-2.433 2.535-3.192 3.597a10.67 10.67 0 0 0-.241.351c.145.09.31.187.499.293 1.505.844 3.691 1.771 6.514 2.918l1.382.559c5.253 2.121 11.925 4.816 17.659 8.499 27.77 17.837 61.756 25.927 94.825 21.561s63.79-21 85.979-45.433c4.582-5.046 10.326-9.38 14.848-12.792l1.189-.898c2.429-1.84 4.299-3.302 5.534-4.508.155-.152.29-.289.406-.413a11.8 11.8 0 0 0-.323-.277c-1.009-.828-2.423-1.724-4.017-2.645l-2.321-1.304-.126-.069-2.013-1.13c-.618-.359-1.3-.773-1.857-1.194-.267-.202-.667-.524-1.035-.953-.227-.264-1.208-1.414-1.113-3.16.059-1.096.52-1.893.847-2.334a4.74 4.74 0 0 1 .909-.924 6.95 6.95 0 0 1 1.215-.74c.634-.31 1.417-.61 2.126-.872l1.178-.429c1.222-.443 2.511-.91 3.806-1.462 1.637-.698 2.876-1.368 3.626-1.968-.227-.186-.567-.432-1.07-.742-.716-.441-1.574-.902-2.648-1.468l-.353-.186-3.165-1.713c-5.179-2.937-11.522-7.458-15.955-16.399-11.24-22.667-25.016-42.972-42.706-56.687-17.557-13.612-39.127-20.866-66.458-17.257s-46.279 16.213-59.701 33.915zm192.555 60.062c.001 0-.004.008-.015.023.009-.015.015-.022.015-.023zm-.722 20.66zm-230.354 28.87c0 0 .007.007.017.02-.012-.013-.018-.02-.017-.02zm.377 1.477zm-6.065-19.746c.001 0 .008.006.021.018-.015-.012-.022-.017-.021-.018z" stroke-width="2" class="B"/><g class="E"><path d="M125.14 224.849c.569 4.308-10.585 1.398-14.623 1.931s-13.487 1.151-14.056-3.156.839-9.299 12.213-10.801 15.897 7.719 16.466 12.026zm72.941-9.631c.568 4.308 10.585-1.397 14.623-1.931s13.323-2.388 12.755-6.695-3.224-8.763-14.598-7.262-13.349 11.581-12.78 15.888z"/></g><path d="M173.177 301.816l1.612 12.205m0 0s-3.274 4.153-6.299 4.849c-3.638.838-9.137-2.811-9.137-2.811m15.436-2.038s4.244 3.266 7.341 3.048c3.47-.243 7.376-4.991 7.376-4.991" class="B F H"/><g class="E"><path d="M173.041 302.931c-1.613.213-13.027-2.352-14.965-8.408s28.341-10.054 27.235-3.596-10.657 11.791-12.27 12.004z"/><g class="B"><ellipse cx="17.852" cy="23.977" rx="17.852" ry="23.977" transform="matrix(-.983251 .182256 .182256 .983251 229.905 218.241)"/></g></g><circle cx="5.021" cy="5.021" r="5.021" transform="matrix(-.865018 .501742 .501742 .865018 212.328 229.038)" class="B C"/><ellipse cx="17.852" cy="23.977" rx="17.852" ry="23.977" transform="matrix(-.983251 .182256 .182256 .983251 131.787 231.196)" class="B E"/><circle cx="5.021" cy="5.021" r="5.021" transform="matrix(-.865018 .501742 .501742 .865018 114.21 241.993)" class="B C"/><g class="F H B"><path d="M143.562 305.636c-15.83-5.738-23.554-5.459-35.891-.51m39.028 9.622c-16.273-4.322-23.943-3.365-35.797 2.651m92.119-19.965c13.798-9.65 21.329-11.385 34.529-9.808m-35.194 19.421c14.594-8.397 22.249-9.463 35.258-6.73"/></g><g class="C"><ellipse cx="113.907" cy="292.065" rx="16.018" ry="7.195" transform="rotate(352.491 113.907 292.065)" fill-opacity=".8"/><ellipse cx="233.546" cy="276.539" rx="16.018" ry="7.195" transform="rotate(350.202 233.546 276.539)" fill-opacity=".8"/><g class="B D"><path d="M212.423 470.905c1.871-.698 4.91-3.854 4.91-3.854s2.962 1.792 4.58 2.351c2.064.713 2.753.95 4.965.993 2.965.057 3.574-.37 5.858-1.108 2.163-.7 2.935-1.954 4.566-3.454 1.219-1.12 2.073-3.05 2.073-3.05s3.84 1.127 6.411.901c2.623-.23 4.228-.706 6.464-2.09 2.1-1.3 3.156-2.378 4.361-4.386 1.449-2.413 1.664-4.192 1.865-6.85.24-3.19-.011-5.03-1.208-7.94-1.291-3.138-2.438-5.105-5.604-6.815-1.838-.992-3.094-1.297-5.268-1.569-3.138-.392-8.217.873-8.217.873l-5.232 1.692s-3.106-1.748-5.663-1.738c-2.242.008-5.888.714-5.888.714-2.284.739-3.078.996-5.059 2.231s-3.92 3.648-3.92 3.648L211 445.482l-6.678.375c-2.164.7-3.694 1.195-5.366 2.331s-3.718 3.12-4.542 5.931c-.768 2.621-.64 4.594-.063 7.161.836 3.727 1.766 5.895 5.029 8.191 2.347 1.652 4.188 2.138 7.241 2.418 2.297.21 3.592-.159 5.802-.984zm-69.592 4.013c1.962-.369 5.75-3.715 5.75-3.715s.901 1.851 2.065 3.203c1.265 1.471 2.295 2.461 4.317 2.851 2.948.569 3.933.332 6.267-.229 2.492-.599 3.041-1.032 4.904-2.231 1.392-.896 3.125-3.697 3.125-3.697s.653.87 1.951 1.713c1.26.819 2.823 1.653 4.09 1.759 1.31.11 3.282.039 4.885-.316 1.61-.357 3.212-.75 4.434-1.243 2.291-.923 3.075-2.241 4.373-4.19 1.919-2.881 1.865-3.707 2.419-6.56.606-3.127.459-5.143-.224-8.214-.737-3.313-1.532-5.446-4.36-7.671-1.641-1.291-2.827-1.806-4.922-2.444-3.025-.922-8.246-.542-8.246-.542l-5.444.775s-2.763-2.252-5.283-2.679c-2.211-.373-5.924-.3-5.924-.3-2.377.339-3.203.456-5.365 1.336s-3.101 1.358-4.485 2.926c-1.104 1.25-2.083 3.727-2.083 3.727s-4.176-1.287-6.427-.967-3.561.536-5.403 1.37-3.039 1.884-4.33 4.513c-1.204 2.452-1.641 4.986-1.297 7.594.486 3.68 1.047 5.938 3.157 8.982.791 1.142 1.544 1.945 2.311 2.58.807.667 1.643 1.145 3.161 1.553 2.227.599 4.265.552 6.584.116z"/></g><path d="M124.925 401.075c-1.008-7.424 4.202-13.752 5.255-18.955 0 0 37.343 18.907 34.897 23.393-2.098 3.846-40.152-4.438-40.152-4.438zm120.174-16.476c-.975-7.599-7.113-12.145-9.549-17.001 0 0-32.747 29.284-29.114 33.062 3.114 3.238 38.663-16.061 38.663-16.061z"/></g><g class="B D"><path d="M119.311 373.816s59.84 26.501 45.977 33.632c-9.706 4.992-53.438-8.585-53.438-8.585m132.272-41.526s-50.91 41.124-35.672 44.412c10.669 2.302 49.379-22.16 49.379-22.16"/></g></g><defs><clipPath id="A"><path d="M0 0h500v500H0z" class="C"/></clipPath><path id="B" d="M441.417 399.506c-11.935 31.688-31.76 50.023-53.311 58.738-21.713 8.78-45.613 7.961-65.617.427-40.24-15.155-76.873-61.679-53.243-124.421 11.961-31.759 35.258-57.059 60.649-72.497 25.535-15.525 52.332-20.603 71.421-13.414 19.108 7.197 35.32 28.497 43.646 56.861 8.279 28.202 8.449 62.459-3.545 94.306z"/><path id="C" d="M391.434 365.738c-3.946 10.477-9.401 24.786-19.199 21.096s-33.56-25.944-23.183-37.058c3.946-10.477 24.735-20.676 34.533-16.986s11.795 22.471 7.849 32.948z"/><path id="D" d="M314.304 344.816c-2.095 18.841-19.666 23.346-31.414 18.922-5.565-7.985-17.986-16.734-13.933-27.494s21.068-17.584 32.816-13.16 16.584 10.972 12.531 21.732z"/><path id="E" d="M116.06 187.981l-14.534 1.919-3.468.458S74.936 120.66 83.328 84.928c1.237-5.265 2.636-8.127 4.914-10.908 2.138-2.609 4.352-2.702 7.091-.936 3.082 1.987 5.444 5.704 8.238 11.007 14.281 27.107 12.489 103.891 12.489 103.891z"/><path id="F" d="M205.195 181.863l-12.401-7.818-2.959-1.866s26.791-68.372 56.093-90.478c4.317-3.257 7.223-4.563 10.753-5.244 3.312-.639 5.074.705 6.051 3.815 1.098 3.498.538 7.866-.705 13.73-6.354 29.972-56.832 87.861-56.832 87.861z"/></defs></svg>