<svg xmlns="http://www.w3.org/2000/svg" width="500" height="500" fill="none" xmlns:v="https://vecta.io/nano"><g fill="#fff" stroke="#000" stroke-width="10"><path d="M372.04 135.946c4.786 21.06 7.366 15.142-2.27 34.414l-64.699 56.439 19.272-63.322c17.26-3.133 19.727-9.751 20.166-27.531-1.329-44.188 7.334-51.72 27.531-56.44-8.835 19.803-6.57 27.532 0 56.44zm-208.468-26.507c-4.787 21.06-5.99 23.402 7.775 41.297l35.791 35.791v-49.556c-17.26-3.134-15.596-9.751-16.035-27.532 1.329-44.187-7.335-51.719-27.531-56.439 8.834 19.803 7.775 28.908 0 56.439z"/><path d="M172.724 182.447l-44.05-22.026c32.259-16.278 46.663-12.067 68.828 8.26l-12.389-33.038c33.26-.707 45.937 6.157 63.322 24.778 5.719-16.702 30.285-24.778 30.285-24.778v41.297c17.818-20.824 30.691-26.722 59.192-26.154L318.64 176.94c38.286-6.7 56.727-6.948 78.465 5.507l-30.285 12.389c19.368 7.677 25.029 15.214 30.285 31.661-20.647-7.855-27.623-6.77-30.285 6.883 17.012 6.02 27.35 14.583 48.18 45.426-16.123-7.484-25.315-11.932-37.167-12.389 21.16 24.428 29.7 38.812 37.167 66.076-17.184-10.735-26.254-15.051-37.167-6.883 22.461 24.76 29.224 39.367 13.765 68.828-5.037-14.423-8.457-21.55-24.778-17.895-.182 28.027-3.69 42.217-19.272 63.322l-9.636-45.427c-3.281 6.203-7.124 12.125-24.778 35.791v-26.155c-11.189 16.902-14.333 25.874-22.025 35.791-.39-11.708-3.481-15.576-12.389-19.272-16.097 5.923-23.409 10.967-30.285 26.155-18.247-2.61-25.152-8.784-33.038-26.155-3.394 14.956-7.316 20.659-17.895 26.155-11.502-11.533-13.501-19.266-12.389-34.414-12.019 5.575-13.368 12.585-12.389 27.531-15.677-9.789-19.478-19.895-17.896-45.427-7.374 2.303-10.277 6.479-13.765 17.896-12.77-8.3-14.883-19.655-12.389-48.18l-23.402 12.389c-3.554-39.337.946-57.759 23.402-82.594C104.116 301 94.647 303.98 86 307.714c11.737-17.704 18.384-26.47 30.285-41.297L86 278.806c10.37-35.076 20.162-52.195 55.063-71.581h-35.791c21.804-22.814 37.067-26.806 67.452-24.778z"/></g><path d="M160.335 328.363c78.3 42.26 118.853 43.386 185.837 9.636" stroke="#000" stroke-width="10" stroke-linecap="round"/><g fill="#fff"><path d="M206.441 316.869a2 2 0 0 0-3.065-1.45l-26.93 17.262c-1.323.848-1.197 2.82.224 3.492l30.667 14.506c1.421.672 3.025-.481 2.842-2.041l-3.738-31.769zm105.042 3.244a2 2 0 0 0-3.124 1.318l-5.09 31.581c-.25 1.551 1.305 2.771 2.752 2.161l31.259-13.185c1.447-.611 1.658-2.576.373-3.479l-26.17-18.396z" stroke="#000" stroke-width="10"/><circle cx="256.695" cy="259.485" r="59.485"/></g><g stroke="#000" stroke-width="10"><circle cx="256.695" cy="259.485" r="59.485"/><circle cx="256.695" cy="259.485" r="59.485" stroke-opacity=".2"/></g><path d="M284.751 258.643c0 15.96-12.939 28.899-28.9 28.899s-28.899-12.939-28.899-28.899 12.939-28.9 28.899-28.9 28.9 12.939 28.9 28.9z" fill="#000"/><path d="M239 250.5c0 4.694 3.806 8.5 8.5 8.5s8.5-3.806 8.5-8.5-3.806-8.5-8.5-8.5-8.5 3.806-8.5 8.5z" fill="#fff"/></svg>