<?xml version="1.0" encoding="UTF-8" standalone="no"?>
<svg
   width="500"
   height="500"
   fill="none"
   version="1.1"
   id="svg63492"
   sodipodi:docname="icono_manualidades2.svg"
   inkscape:version="1.1.2 (b8e25be833, 2022-02-05)"
   xmlns:inkscape="http://www.inkscape.org/namespaces/inkscape"
   xmlns:sodipodi="http://sodipodi.sourceforge.net/DTD/sodipodi-0.dtd"
   xmlns="http://www.w3.org/2000/svg"
   xmlns:svg="http://www.w3.org/2000/svg">
  <defs
     id="defs63496" />
  <sodipodi:namedview
     id="namedview63494"
     pagecolor="#ffffff"
     bordercolor="#666666"
     borderopacity="1.0"
     inkscape:pageshadow="2"
     inkscape:pageopacity="0.0"
     inkscape:pagecheckerboard="0"
     showgrid="false"
     inkscape:zoom="1.714"
     inkscape:cx="250"
     inkscape:cy="249.70828"
     inkscape:window-width="1920"
     inkscape:window-height="1017"
     inkscape:window-x="-8"
     inkscape:window-y="-8"
     inkscape:window-maximized="1"
     inkscape:current-layer="svg63492" />
  <path
     d="M131.498 326.237V131.173L192.977 78h196.901v181.477V366.67h-60.796-94.084-103.5v-40.433z"
     fill="#fff"
     id="path63480" />
  <path
     d="M131.498 131.173v195.064 40.433h103.5 94.084 60.796V259.477 78H192.977m-61.479 53.173L192.977 78m-61.479 53.173h61.479V78"
     stroke="#000"
     stroke-width="10"
     id="path63482"
     style="stroke-linecap:round" />
  <path
     d="M348.108 262.134c4.59-2.825 28.731 4.931 28.731 4.931l22.053 31.657 16.712 23.99s13.889 17.247 16.712 23.989-68.653 50.736-72.788 44.8l-16.712-23.989-16.712-23.99-22.053-31.657s2.089-23.9 7.335-27.129l3.935-2.421s-15.318-42.163-10.417-45.886 39.269 28.127 39.269 28.127l3.935-2.422z"
     fill="#fff"
     id="path63484" />
  <path
     d="M376.839 267.065s-24.141-7.756-28.731-4.931l-3.935 2.422m32.666 2.509l-72.788 44.8m72.788-44.8l22.053 31.657 16.712 23.99s13.889 17.247 16.712 23.989-68.653 50.736-72.788 44.8l-16.712-23.989-16.712-23.99-22.053-31.657m0 0s2.089-23.9 7.335-27.129l3.935-2.421m0 0s-15.318-42.163-10.417-45.886 39.269 28.127 39.269 28.127m-28.852 17.759l28.852-17.759"
     stroke="#000"
     stroke-width="10"
     id="path63486"
     style="stroke-linejoin:round;stroke-linecap:round" />
  <path
     fill-rule="evenodd"
     d="M157.214 379.807c4.446-3.868 7.65-8.458 9.541-13.237 2.331-4.787 6.946-13.975 10.975-20.255 2.228-3.473 6.207-7.669 10.532-11.757.053 4.269-.148 8.249-.797 11.275-1.602 7.479-4.996 17.68-6.656 22.487-1.873 4.59-2.716 9.803-2.235 15.253 1.47 16.67 14.763 29.241 29.691 28.077s25.837-15.619 24.367-32.289c-1.416-16.064-13.812-28.322-28.069-28.151l.55-10.669c.002-.932-.16-8.846-.406-20.31l.901-.77c5.215-4.503 55.813-57.812 58.625-66.035s-2.38-14.167-2.38-14.167l-57.674 56.764-1.848-82.546s-8.102 1.089-11.935 8.939-4.812 79.284-4.201 85.916l.407 3.913v.002h0l.107.986-18.193 17.977c-1.515 1.563-4.69 5.221-7.249 8.206-10.397-9.148-28.324-7.967-40.898 2.972-13.061 11.362-15.4 28.949-5.225 39.282s29.01 9.499 42.07-1.863zm-9.233-10.641c7.069-6.15 8.915-15.081 4.123-19.948s-14.408-3.826-21.477 2.323-8.915 15.081-4.123 19.948 14.408 3.827 21.477-2.323zm45.045 12.423c-.796-9.023 4.259-16.782 11.29-17.33s13.375 6.323 14.171 15.346-4.259 16.782-11.29 17.329-13.375-6.322-14.171-15.345z"
     fill="#fff"
     id="path63488" />
  <path
     d="M166.755 366.57l-4.575-1.992-.084.173-.071.178 4.73 1.641zm-9.541 13.237l-3.321-3.622h0l3.321 3.622zm20.516-33.492l-4.283-2.51h0l4.283 2.51zm10.532-11.757l5.073-.211-.138-11.22-8.416 7.954 3.481 3.477zm-.797 11.275l4.966.859h0l-4.966-.859zm-6.656 22.487l4.709 1.691.052-.127.045-.13-4.806-1.434zm-2.235 15.253l5.055-.571h0l-5.055.571zm29.691 28.077l.25 4.91h0l-.25-4.91zm24.367-32.289l5.055-.571h0l-5.055.571zm-28.069-28.151l-5.063-.17-.347 5.158 5.316-.063.094-4.925zm.55-10.669l5.073-.141h0l-5.073.141zm-.406-20.31l-3.269-3.667-1.854 1.571.05 2.351 5.073-.255zm.901-.77l3.306 3.635h0l-3.306-3.635zm58.625-66.035l4.811 1.421h0l-4.811-1.421zm-2.38-14.167l3.911-3.253-3.523-4.033-3.945 3.881 3.557 3.405zm-57.674 56.764l-5.073.257.251 11.397 8.38-8.252-3.558-3.402zm-1.848-82.546l5.072-.26-.121-5.356-5.494.738.543 4.878zm-11.935 8.939l4.573 1.996h0l-4.573-1.996zm-4.201 85.916l-5.053.589h0l5.053-.589zm.407 3.913l-5.046.663.001.013 5.045-.676zm0 .002l5.063-.476-.007-.1-.011-.099-5.045.675zm0 0l-5.062.477.006.093.01.093 5.046-.663zm.107.986l3.56 3.4 1.738-1.713-.252-2.348-5.046.661zm-18.193 17.977l3.644 3.317h0l-3.644-3.317zm-7.249 8.206l-3.47 3.696 3.877 3.411 3.452-4.026-3.859-3.081zm-40.898 2.972l3.32 3.622h0l-3.32-3.622zm-5.225 39.282l3.719-3.46h0l-3.719 3.46zm36.96-32.452l3.719-3.46h0l-3.719 3.46zm-4.123 19.948l-3.321-3.623h0l3.321 3.623zm-17.354-17.625l-3.321-3.622h0l3.321 3.622zm-4.123 19.948l-3.719 3.46h0l3.719-3.46zm77.812-7.23l-.251-4.909h0l.251 4.909zm-11.29 17.33l5.055-.57h0l-5.055.57zm25.461-1.984l5.055-.57h0l-5.055.57zm-11.29 17.329l-.25-4.909h0l.25 4.909zm-45.172-32.005c-1.584 4.005-4.296 7.919-8.132 11.256l6.642 7.244c5.057-4.399 8.752-9.665 10.949-15.219l-9.459-3.281zm11.422-21.124c-4.209 6.56-8.939 15.992-11.267 20.773l9.149 3.983c2.335-4.793 6.835-13.736 10.685-19.737l-8.567-5.019zm11.334-12.724c-4.357 4.118-8.741 8.683-11.334 12.724l8.567 5.019c1.863-2.904 5.436-6.732 9.729-10.789l-6.962-6.954zm-1.592 3.688c.051 4.166-.157 7.717-.69 10.205l9.932 1.718c.764-3.564.958-7.974.904-12.345l-10.146.422zm-.69 10.205c-1.532 7.152-4.832 17.093-6.495 21.912l9.611 2.868c1.656-4.795 5.144-15.256 6.816-23.062l-9.932-1.718zm-6.399 21.655c-2.175 5.328-3.128 11.317-2.581 17.514l10.11-1.141c-.415-4.703.318-9.14 1.889-12.991l-9.418-3.382zm-2.581 17.514c1.644 18.647 16.708 33.842 34.996 32.417l-.5-9.819c-11.567.901-23.09-9.045-24.386-23.739l-10.11 1.141zm34.996 32.417c18.502-1.442 30.822-19.06 29.172-37.77l-10.11 1.141c1.29 14.631-8.209 25.925-19.562 26.81l.5 9.819zm29.172-37.77c-1.587-18.002-15.626-32.713-33.03-32.505l-.188 9.85c11.11-.133 21.862 9.671 23.108 23.796l10.11-1.141zm-28.061-27.411c.253-3.77.555-8.671.56-10.979l-10.147.282c-.005 1.927-.277 6.471-.539 10.358l10.126.339zm.56-10.979c.002-1.007-.162-9.019-.407-20.424l-10.145.51.405 20.196 10.147-.282zm-7.884-24.574l-.864.738 6.537 7.334.939-.802-6.612-7.27zm57.121-63.82c.014-.042-.098.253-.572 1.011-.431.691-1.037 1.571-1.824 2.637-1.572 2.13-3.722 4.812-6.302 7.888-5.151 6.141-11.845 13.654-18.65 21.09-13.734 15.006-27.452 29.19-29.773 31.194l6.612 7.27c2.895-2.499 17.083-17.221 30.654-32.05 6.848-7.482 13.657-15.12 18.947-21.428 2.641-3.148 4.945-6.015 6.699-8.392 1.595-2.161 3.188-4.503 3.83-6.379l-9.621-2.841zm2.43-12.747l-3.915 3.249c-.011-.013-.014-.016-.017-.019l-.018-.022c.005.006.026.032.06.076a7.64 7.64 0 0 1 .335.481 10.9 10.9 0 0 1 1.028 2.051c.661 1.755 1.054 4.134.097 6.931l9.621 2.841c1.856-5.426 1.058-10.131-.175-13.404-.612-1.628-1.34-2.926-1.927-3.835-.295-.457-.56-.823-.764-1.091a12.64 12.64 0 0 0-.261-.329l-.091-.11c-.013-.015-.024-.029-.035-.041-.005-.006-.01-.011-.014-.016-.011-.013-.013-.015-3.924 3.238zm-54.116 60.166l38.722-38.117 13.646-13.427 3.907-3.844 1.039-1.022.267-.263.068-.067c.008-.007.014-.013.017-.017s.006-.005-3.55-3.409l-3.557-3.404a.51.51 0 0 0-.023.022l-.068.067-.267.263-1.039 1.022-3.907 3.844-13.647 13.428-38.725 38.119 7.117 6.805zm1.514-3.66l-1.227-55.017-.446-19.786-.129-5.701-.034-1.519-.009-.392-.002-.099c-.001-.012-.001-.02-.001-.025s0-.009-5.072.251l-5.073.261c0 .014.001.022.001.033 0 .022.001.056.002.099l.009.392.034 1.519.129 5.701.446 19.785 1.227 55.013 10.145-.515zm-6.92-82.288l-.547-4.877-.038.005c-.017.002-.035.005-.055.008l-.147.023c-.113.018-.257.044-.429.078-.344.067-.802.169-1.348.319-1.087.298-2.557.795-4.18 1.606-3.263 1.634-7.234 4.599-9.763 9.781l9.145 3.992c1.303-2.669 3.3-4.172 5.045-5.046a12.34 12.34 0 0 1 2.229-.859c.273-.075.477-.119.592-.142l.098-.018c-.014.002-.021.003-.029.005-.017.002-.02.002-.022.003-.007.001-.009.001-.551-4.878zm-16.507 6.943c-.875 1.791-1.382 4.529-1.758 7.134-.414 2.866-.774 6.444-1.088 10.442-.63 8.01-1.095 17.965-1.42 27.83-.643 19.552-.755 39.415-.416 43.095l10.107-1.178c-.272-2.952-.2-22.122.451-41.907.323-9.804.783-19.594 1.396-27.393.307-3.906.647-7.249 1.018-9.818.186-1.287.371-2.321.549-3.104.196-.859.325-1.149.306-1.109l-9.145-3.992zm-4.682 88.501l.414 3.987 10.092-1.325-.399-3.84-10.107 1.178zm.415 4v.002l10.09-1.351v-.002l-10.09 1.351zm-.017-.197h0l10.125-.953h0l-10.125.953zm.016.186l.106.984 10.093-1.322-.107-.987-10.092 1.325zm-9.396 21.617c.698-.72 7.889-7.821 18.109-17.894l-7.121-6.801-18.275 18.061 7.287 6.634zm-7.034 7.97l7.034-7.97-7.287-6.634c-1.652 1.704-4.945 5.503-7.465 8.443l7.718 6.161zm-41.437 3.513c11.049-9.612 26.001-10.031 34.108-2.898l6.94-7.391c-12.688-11.163-33.589-9.222-47.689 3.044l6.641 7.245zm-4.826 32.2c-7.748-7.869-6.629-22.234 4.826-32.2l-6.641-7.245c-14.665 12.758-18.224 33.568-5.623 46.366l7.438-6.921zm35.03-2.025c-11.503 10.007-27.143 10.035-35.03 2.025l-7.438 6.921c12.461 12.655 34.493 11.015 49.11-1.702l-6.642-7.244zm-5.508-23.507c1.058 1.075 1.627 2.811 1.132 5.208-.5 2.418-2.074 5.237-4.857 7.657l6.641 7.245c4.287-3.729 7.17-8.451 8.163-13.253.996-4.822.093-9.985-3.641-13.777l-7.438 6.92zm-14.437 2.486c2.78-2.419 5.948-3.725 8.679-4.021 2.744-.297 4.668.429 5.758 1.535l7.438-6.92c-3.703-3.76-8.983-4.948-14.011-4.404-5.042.545-10.217 2.834-14.506 6.565l6.642 7.245zm-3.725 12.865c-1.058-1.075-1.628-2.811-1.132-5.208.5-2.418 2.074-5.236 4.857-7.657l-6.642-7.245c-4.286 3.729-7.169 8.451-8.162 13.253-.996 4.822-.093 9.985 3.641 13.777l7.438-6.92zm14.437-2.486c-2.78 2.419-5.948 3.725-8.679 4.021-2.744.297-4.668-.429-5.758-1.535l-7.438 6.92c3.703 3.761 8.982 4.948 14.011 4.404 5.042-.545 10.217-2.834 14.505-6.565l-6.641-7.245zm59.405-6.193c-5.484.427-9.863 3.666-12.593 7.856-2.719 4.173-3.984 9.484-3.501 14.953l10.11-1.14c-.313-3.555.551-6.634 1.919-8.733 1.356-2.082 3.019-2.997 4.566-3.117l-.501-9.819zm19.477 19.685c-.482-5.472-2.654-10.441-5.979-14.042-3.315-3.59-8.062-6.067-13.498-5.643l.501 9.819c1.594-.124 3.536.56 5.349 2.524 1.804 1.954 3.203 4.931 3.517 8.482l10.11-1.14zm-16.095 22.809c5.485-.427 9.864-3.666 12.594-7.856 2.718-4.173 3.983-9.485 3.501-14.953l-10.11 1.14c.313 3.554-.551 6.633-1.919 8.733-1.356 2.082-3.019 2.996-4.566 3.117l.5 9.819zm-19.476-19.685c.482 5.472 2.653 10.441 5.978 14.042 3.316 3.59 8.062 6.066 13.498 5.643l-.5-9.819c-1.595.124-3.536-.56-5.35-2.524-1.804-1.954-3.203-4.931-3.516-8.482l-10.11 1.14z"
     fill="#000"
     id="path63490" />
</svg>
