<?xml version="1.0" encoding="UTF-8" standalone="no"?>
<svg
   width="500"
   height="500"
   fill="none"
   version="1.1"
   id="svg63160"
   sodipodi:docname="icono_manualidades.svg"
   inkscape:version="1.1.2 (b8e25be833, 2022-02-05)"
   xmlns:inkscape="http://www.inkscape.org/namespaces/inkscape"
   xmlns:sodipodi="http://sodipodi.sourceforge.net/DTD/sodipodi-0.dtd"
   xmlns="http://www.w3.org/2000/svg"
   xmlns:svg="http://www.w3.org/2000/svg">
  <defs
     id="defs63164" />
  <sodipodi:namedview
     id="namedview63162"
     pagecolor="#ffffff"
     bordercolor="#666666"
     borderopacity="1.0"
     inkscape:pageshadow="2"
     inkscape:pageopacity="0.0"
     inkscape:pagecheckerboard="0"
     showgrid="false"
     inkscape:zoom="1.714"
     inkscape:cx="191.65694"
     inkscape:cy="282.96383"
     inkscape:window-width="1920"
     inkscape:window-height="1017"
     inkscape:window-x="-8"
     inkscape:window-y="-8"
     inkscape:window-maximized="1"
     inkscape:current-layer="svg63160" />
  <path
     d="M131.893 326.238V131.173L193.373 78h196.898v181.477V366.67h-60.795-94.084-103.499v-40.432z"
     fill="#fff"
     id="path63148" />
  <path
     d="M131.893 131.173v195.065 40.432h103.499 94.084 60.795V259.477 78H193.373m-61.48 53.173L193.373 78m-61.48 53.173h61.48V78"
     stroke="#000"
     stroke-width="10"
     id="path63150"
     style="stroke-linecap:round" />
  <path
     fill-rule="evenodd"
     d="M205.913 382.841c.024-6.034-1.356-11.684-3.775-16.515-2.124-5.157-6.103-15.151-8.23-22.62-1.176-4.131-1.724-10.06-1.952-16.163 3.342 3.047 6.288 6.07 8.192 8.729 4.701 6.566 10.293 16.402 12.891 21.086 2.282 4.682 5.748 9.065 10.297 12.655 13.909 10.974 32.673 10.381 41.911-1.327s5.451-30.094-8.458-41.069c-13.403-10.575-31.314-10.409-40.865.093l-7.889-8.109c-.721-.675-6.96-6.276-16.006-14.38l.016-1.212c.054-7.05-6.867-82.401-11.325-90.39s-12.589-8.504-12.589-8.504l4.791 82.998-65.182-58.296s-4.66 6.683-1.183 15.146 58.134 60.79 63.685 65.136l3.308 2.532.001.001.834.634 1.567 26.234c.181 2.232.858 7.186 1.432 11.206-14.146.959-25.407 14.862-25.475 31.919-.071 17.717 11.961 32.128 26.874 32.188s27.059-14.255 27.13-31.972zm-14.512-.968c.038-9.59-5.625-17.386-12.649-17.414s-12.748 7.723-12.787 17.313 5.625 17.386 12.649 17.414 12.749-7.723 12.787-17.313zm40.214-23.814c-7.528-5.94-10.104-15.226-5.753-20.74s13.981-5.168 21.509.772 10.104 15.226 5.753 20.74-13.981 5.168-21.509-.772z"
     fill="#fff"
     id="path63152" />
  <path
     d="M202.138 366.326l-4.623 1.905.07.17.083.164 4.47-2.239zm3.775 16.515l-5-.02h0l5 .02zm-12.005-39.135l4.809-1.369h0l-4.809 1.369zm-1.952-16.163l3.368-3.695-8.811-8.031.446 11.913 4.997-.187zm8.192 8.729l4.065-2.911h0l-4.065 2.911zm12.891 21.086l4.494-2.19-.058-.119-.064-.116-4.372 2.425zm10.297 12.655l-3.097 3.925h0l3.097-3.925zm41.911-1.327l-3.926-3.097h0l3.926 3.097zm-8.458-41.069l-3.097 3.925h0l3.097-3.925zm-40.865.093l-3.635 3.433 3.704 3.922 3.63-3.991-3.699-3.364zm-7.889-8.109l3.419-3.648h0l-3.419 3.648zm-16.006-14.38l-4.999-.086-.039 2.285 1.702 1.525 3.336-3.724zm.016-1.212l5 .039v-.001l-5-.038zm-23.914-98.894l.316-4.99-5.632-.356.324 5.633 4.992-.287zm4.791 82.998l-3.335 3.726 9.028 8.079-.702-12.094-4.991.289zm-65.182-58.296l3.332-3.728-4.207-3.761-3.227 4.629 4.102 2.86zm-1.183 15.146l-4.625 1.9h0l4.625-1.9zm63.685 65.136l3.083-3.936h0l-3.083 3.936zm3.308 2.532l-3.025 3.982.007.005 3.018-3.987zm.001.001l3.024-3.981-.007-.006-3.017 3.987zm.834.634l4.992-.292-.135-2.296-1.831-1.392-3.026 3.98zm1.567 26.234l4.984-.405h0l-4.984.405zm1.432 11.206l.338 4.989 5.373-.365-.761-5.331-4.95.707zm-25.475 31.919l-5-.02h0l5 .02zm26.874 32.188l.02-5h0l-.02 5zm-.031-50.354l-.02 5h0l.02-5zm12.649 17.414l-5-.02h0l5 .02zm-25.436-.101l-5-.02h0l5 .02zm12.649 17.414l.02-5h0l-.02 5zm47.248-61.867l-3.925-3.097 3.925 3.097zm5.753 20.74l3.097-3.925h0l-3.097 3.925zm15.756-19.968l-3.097 3.925h0l3.097-3.925zm5.753 20.74l-3.925-3.097h0l3.925 3.097zm-55.456 9.734c2.062 4.12 3.266 8.995 3.245 14.256l10 .04c.027-6.807-1.529-13.232-4.304-18.773l-8.941 4.477zm-8.569-23.49c2.213 7.773 6.294 18.004 8.416 23.156l9.246-3.809c-2.126-5.163-6.004-14.92-8.044-22.085l-9.618 2.738zm-2.14-17.345c.23 6.148.787 12.594 2.14 17.345l9.618-2.738c-1-3.511-1.538-8.923-1.765-14.981l-9.993.374zm1.628 3.509c3.267 2.977 5.902 5.718 7.495 7.943l8.131-5.821c-2.214-3.093-5.471-6.397-8.889-9.513l-6.737 7.391zm7.495 7.943c4.514 6.304 9.981 15.906 12.584 20.601l8.745-4.85c-2.591-4.673-8.308-14.743-13.198-21.572l-8.131 5.821zm12.462 20.366c2.616 5.368 6.563 10.34 11.695 14.39l6.194-7.851c-3.966-3.129-6.951-6.922-8.9-10.919l-8.989 4.38zm11.695 14.39c15.416 12.164 37.506 12.327 48.933-2.154l-7.851-6.195c-7.048 8.933-22.486 10.284-34.888.498l-6.194 7.851zm48.933-2.154c11.427-14.482 6.13-35.928-9.286-48.092l-6.194 7.85c12.401 9.786 14.678 25.114 7.629 34.047l7.851 6.195zm-9.286-48.092c-14.884-11.744-35.886-12.294-47.661.654l7.398 6.728c7.327-8.056 22.147-8.939 34.069.468l6.194-7.85zm-40.327.585c-2.751-2.913-6.332-6.663-8.105-8.324l-6.838 7.297c1.499 1.405 4.843 4.897 7.673 7.893l7.27-6.866zm-8.105-8.324c-.775-.726-7.086-6.391-16.089-14.456l-6.672 7.448 15.923 14.305 6.838-7.297zm-24.409-11.983l-.015 1.165 9.998.171.017-1.258-10-.078zm-10.691-87.915c-.018-.032.027.045.119.288.088.23.195.545.318.957.246.828.519 1.918.812 3.267.584 2.696 1.202 6.209 1.833 10.313 1.259 8.196 2.532 18.504 3.669 28.833 2.293 20.832 3.965 41.094 3.94 44.257l10 .077c.03-3.886-1.732-24.825-4-45.428-1.144-10.389-2.434-20.857-3.725-29.257-.644-4.194-1.298-7.933-1.945-10.915-.593-2.733-1.312-5.515-2.289-7.265l-8.732 4.873zm-8.223-10.94l-.321 4.99c-.017-.001-.022-.002-.026-.002s-.016-.001-.021-.002a4.84 4.84 0 0 0 .089.011c.115.015.322.046.601.103.561.117 1.38.338 2.305.741 1.827.795 4.016 2.268 5.596 5.099l8.732-4.873c-2.878-5.157-6.984-7.936-10.337-9.396a21.97 21.97 0 0 0-4.26-1.361c-.553-.115-1.016-.187-1.363-.232-.174-.022-.319-.037-.433-.048a4.6 4.6 0 0 0-.148-.013c-.02-.002-.039-.003-.055-.004-.009-.001-.016-.001-.023-.002-.018-.001-.02-.001-.336 4.989zm9.782 82.709l-3.221-55.729-1.131-19.636-.323-5.621-.086-1.495-.022-.385-.006-.097c0-.011-.001-.019-.001-.025s-.001-.008-4.992.279l-4.992.287.002.033.005.097.023.385.086 1.495.323 5.622 1.131 19.636 3.221 55.733 9.983-.579zm-1.657-3.437l-43.441-38.858-15.626-13.972-4.503-4.025-1.2-1.073-.309-.276-.078-.071c-.009-.007-.016-.013-.02-.017s-.007-.006-3.339 3.722l-3.332 3.728c.011.009.017.015.026.023.017.016.044.039.078.07l.31.276 1.2 1.073 4.502 4.025 15.625 13.971 43.438 38.856 6.669-7.452zm-68.516-54.57l-4.105-2.856c-.012.018-.017.025-.021.032-.01.013-.02.029-.032.046l-.082.123-.231.369c-.181.299-.413.707-.668 1.211-.506 1.006-1.117 2.427-1.586 4.182-.946 3.532-1.328 8.476.917 13.939l9.25-3.8c-1.232-3-1.023-5.629-.507-7.554a11.89 11.89 0 0 1 .856-2.265 8.29 8.29 0 0 1 .293-.535l.052-.084-.017.025c-.009.014-.011.016-.012.019s-.006.007-4.107-2.852zm-5.808 17.046c.761 1.853 2.49 4.148 4.26 6.314 1.931 2.362 4.45 5.202 7.331 8.317 5.769 6.239 13.158 13.766 20.576 21.129 14.711 14.602 30 29.017 33.061 31.413l6.165-7.873c-2.491-1.951-17.306-15.873-32.181-30.637-7.375-7.32-14.65-14.734-20.279-20.822-2.82-3.048-5.184-5.719-6.93-7.855-.874-1.069-1.557-1.961-2.051-2.67-.246-.352-.426-.632-.552-.844-.132-.224-.164-.306-.15-.272l-9.25 3.8zm65.228 67.173l3.365 2.577 6.049-7.963-3.249-2.487-6.165 7.873zm3.372 2.582l.001.001 6.035-7.974-.001-.001-6.035 7.974zm-.006-.004l.833.633 6.052-7.961-.836-.635-6.049 7.963zm10.41 22.481c-.084-1.034-.7-11.408-1.559-26.121l-9.983.584 1.575 26.346 9.967-.809zm1.398 10.904c-.582-4.076-1.232-8.858-1.398-10.904l-9.967.809c.196 2.418.899 7.546 1.465 11.509l9.9-1.414zm-25.425 32.646c.06-15.172 9.96-26.215 20.813-26.95l-.676-9.978c-17.439 1.183-30.062 17.946-30.137 36.888l10 .04zm21.894 27.168c-11.379-.046-21.957-11.37-21.894-27.168l-10-.04c-.078 19.637 13.407 37.134 31.854 37.207l.04-9.999zm22.11-26.992c-.063 15.797-10.732 27.037-22.11 26.992l-.04 9.999c18.447.074 32.071-17.315 32.15-36.951l-10-.04zm-22.181-13.362c1.534.006 3.343.851 4.947 3.06s2.737 5.489 2.722 9.334l10 .04c.023-5.745-1.654-11.153-4.631-15.251s-7.508-7.161-12.998-7.183l-.04 10zm-7.767 12.333c.016-3.845 1.177-7.121 2.796-9.313s3.438-3.026 4.971-3.02l.04-10c-5.49-.022-10.048 3.008-13.055 7.079s-4.729 9.469-4.752 15.214l10 .04zm7.669 12.394c-1.534-.006-3.343-.852-4.947-3.06s-2.737-5.49-2.722-9.334l-10-.04c-.022 5.744 1.655 11.153 4.631 15.251s7.508 7.161 12.998 7.183l.04-10zm7.767-12.333c-.016 3.845-1.177 7.12-2.796 9.313s-3.438 3.026-4.971 3.02l-.04 10c5.49.022 10.048-3.009 13.055-7.079s4.729-9.469 4.752-15.214l-10-.04zm35.536-47.631c-3.401 4.31-3.824 9.767-2.471 14.644s4.542 9.559 9.052 13.118l6.194-7.85c-3.018-2.382-4.882-5.315-5.61-7.941s-.265-4.573.685-5.777l-7.85-6.194zm28.531-.056c-4.51-3.559-9.802-5.572-14.864-5.753s-10.267 1.499-13.667 5.809l7.85 6.194c.95-1.204 2.731-2.108 5.459-2.01 2.723.098 6.009 1.228 9.028 3.61l6.194-7.85zm6.582 27.762c3.4-4.31 3.823-9.767 2.47-14.644s-4.542-9.56-9.052-13.118l-6.194 7.85c3.018 2.382 4.882 5.315 5.61 7.941s.265 4.572-.685 5.777l7.851 6.194zm-28.532.056c4.51 3.559 9.803 5.571 14.864 5.753s10.267-1.499 13.668-5.809l-7.851-6.194c-.95 1.204-2.731 2.107-5.458 2.009s-6.01-1.228-9.029-3.609l-6.194 7.85z"
     fill="#000"
     id="path63154" />
  <path
     d="M395.237 265.119c5.462 0 21.069 20.039 21.069 20.039v40.079 30.372s1.561 22.857 0 30.372-86.62 7.515-86.62 0v-30.372-30.372-40.079s15.608-20.039 21.85-20.039h4.683s11.705-45.715 17.948-46.341 16.388 46.341 16.388 46.341h4.682z"
     fill="#fff"
     id="path63156" />
  <path
     d="M416.306 285.158s-15.607-20.039-21.069-20.039h-4.682m25.751 20.039h-86.62m86.62 0v40.079 30.372s1.561 22.857 0 30.372-86.62 7.515-86.62 0v-30.372-30.372-40.079m0 0s15.608-20.039 21.85-20.039h4.683m0 0s11.705-45.715 17.948-46.341 16.388 46.341 16.388 46.341m-34.336 0h34.336"
     stroke="#000"
     stroke-width="10"
     id="path63158"
     style="stroke-linejoin:round;stroke-linecap:round" />
</svg>
