<?xml version="1.0" encoding="UTF-8" standalone="no"?>
<svg
   width="600"
   height="600"
   fill="none"
   stroke="#000"
   version="1.1"
   id="svg5926"
   sodipodi:docname="icono_pintar2.svg"
   inkscape:version="1.1.2 (b8e25be833, 2022-02-05)"
   xmlns:inkscape="http://www.inkscape.org/namespaces/inkscape"
   xmlns:sodipodi="http://sodipodi.sourceforge.net/DTD/sodipodi-0.dtd"
   xmlns="http://www.w3.org/2000/svg"
   xmlns:svg="http://www.w3.org/2000/svg">
  <defs
     id="defs5930" />
  <sodipodi:namedview
     id="namedview5928"
     pagecolor="#ffffff"
     bordercolor="#666666"
     borderopacity="1.0"
     inkscape:pageshadow="2"
     inkscape:pageopacity="0.0"
     inkscape:pagecheckerboard="0"
     showgrid="false"
     inkscape:zoom="1.4283333"
     inkscape:cx="300"
     inkscape:cy="131.62194"
     inkscape:window-width="1920"
     inkscape:window-height="1017"
     inkscape:window-x="-8"
     inkscape:window-y="-8"
     inkscape:window-maximized="1"
     inkscape:current-layer="g5924" />
  <rect
     x="94"
     y="124.692"
     width="408.313"
     height="339.674"
     rx="25"
     fill="#fff"
     stroke-width="16"
     id="rect5912" />
  <g
     fill="#000000"
     id="g5918">
    <path
       d="m 257.789,211.254 0.885,6.323 0.043,1.63 -0.931,-0.515 -1.416,-0.839 -1.523,-0.905 c -2.076,-1.21 -4.766,-2.652 -7.618,-3.103 -3.644,-0.577 -6.612,-2.51 -8.261,-4.904 -1.638,-2.376 -1.874,-4.996 -0.613,-7.28 1.567,-2.835 3.203,-3.854 4.674,-4.224 1.664,-0.419 3.813,-0.189 6.592,0.743 4.378,1.469 6.808,5.766 8.168,13.074 z m 2.304,8.526 c 10e-4,0.001 -0.01,0 -0.034,-0.005 0.022,0.002 0.034,0.005 0.034,0.005 z m -54.59,52.839 6.796,2.123 1.865,0.786 -0.887,0.48 -1.473,0.745 -1.6,0.807 c -2.147,1.105 -4.845,2.613 -6.604,4.71 -2.164,2.579 -5.378,4.046 -8.495,4.282 -3.089,0.235 -5.914,-0.727 -7.739,-2.838 -2.214,-2.562 -2.515,-4.361 -2.234,-5.692 0.313,-1.476 1.475,-3.044 3.634,-4.813 3.337,-2.732 8.681,-2.79 16.737,-0.59 z m 9.89,3.645 z m -0.078,-1.518 c 0.013,-0.018 0.022,-0.027 0.023,-0.027 0.001,0 -0.005,0.009 -0.023,0.027 z m 163.595,-3.695 -7.687,0.212 0.057,-0.067 0.902,-1.019 1.011,-1.138 c 1.329,-1.526 3.055,-3.645 3.746,-6.018 1.499,-5.152 7.608,-7.786 12.086,-5.459 2.781,1.444 3.641,2.806 3.883,3.854 0.263,1.138 -0.036,2.604 -1.09,4.599 -0.748,1.416 -2.067,2.512 -4.209,3.356 -2.209,0.871 -5.123,1.401 -8.699,1.68 z m -9.355,-0.064 c 10e-4,0 0.008,0.003 0.021,0.009 -0.015,-0.006 -0.021,-0.009 -0.021,-0.009 z m 0.671,1.614 c -0.008,0.022 -0.013,0.033 -0.014,0.033 -10e-4,0 0.003,-0.01 0.014,-0.033 z m -86.252,97.895 c 4.544,-4.744 7.491,-6.849 9.24,-7.543 a 3.63,3.63 0 0 1 0.712,-0.215 c 0.382,0.719 0.658,2.266 0.666,4.609 0.007,1.868 -0.145,3.802 -0.282,5.536 l -0.082,1.06 c -0.271,3.642 -0.866,5.801 -1.818,7.312 -0.911,1.447 -2.339,2.597 -4.981,3.791 -1.989,0.9 -4.28,0.712 -6.201,-0.24 -1.948,-0.965 -3.21,-2.549 -3.48,-4.165 -0.212,-1.265 -0.233,-2.016 -0.163,-2.544 0.062,-0.465 0.209,-0.866 0.552,-1.383 0.386,-0.583 0.988,-1.266 1.996,-2.302 l 1.189,-1.206 z"
       stroke-width="6"
       id="path5914" />
    <path
       d="m 279.136,227.686 c 1.496,-15.684 24.02,-16.66 26.868,-1.165 l 0.312,1.699 c 2.496,13.578 17.513,20.769 29.656,14.2 l 4.546,-2.459 c 10.893,-5.893 21.965,7.502 14.128,17.092 -9.66,11.821 -2.396,29.628 12.744,31.388 13.329,1.55 13.472,20.58 0.51,22.558 l -18.632,2.844 c -12.137,1.851 -19.089,14.844 -13.896,25.969 4.56,9.769 -6.93,19.167 -15.601,12.76 l -11.845,-8.752 a 22.14,22.14 0 0 0 -27.928,1.314 l -17.225,15.427 c -9.898,8.866 -24.69,-3.439 -17.415,-14.896 8.117,-12.781 -1.001,-29.408 -15.956,-29.948 -6.231,-0.225 -10.152,-4.555 -11.091,-9.591 -0.934,-5.003 1.15,-10.178 6.892,-12.332 l 1.212,-0.455 c 12.977,-4.868 16.207,-21.742 5.945,-31.059 -8.324,-7.557 -0.591,-21.149 10.158,-17.855 l 9.666,2.962 c 12.58,3.854 25.53,-4.801 26.78,-17.899 z"
       stroke-width="8"
       id="path5916" />
  </g>
  <g
     stroke-width="16"
     id="g5924">
    <path
       d="m 229.518,466.126 -46.176,88.607 m 114.815,-481.72 0.158,29.042 m 48.513,4.653 -98.59,0.021 m 128.541,359.397 40.968,91.132"
       stroke-linecap="round"
       id="path5920" />
    <path
       d="m 350.59631,278.16054 c -5.854,6.545 -11.992,11.306 -20.394,14.94 -6.754,2.922 -15.239,5.231 -26.643,6.969 l 0.502,-9.591 0.052,-1.133 c 0.261,-5.632 0.5,-9.987 1.125,-13.917 1.157,-7.273 3.649,-13.284 11.363,-21.91 11.904,-13.309 18.529,-15.975 21.96,-16.224 3.413,-0.248 6.714,1.495 13.744,6.592 6.979,5.058 10.043,7.887 10.691,11.336 0.608,3.238 -0.626,9.773 -12.4,22.938 z"
       id="path4348"
       style="fill:#f4f7f5;fill-opacity:1" />
    <path
       d="m 440.14031,184.86454 c -18.376,18.218 -32.361,31.109 -43.184,40.053 -10.927,9.031 -18.192,13.665 -23.144,15.806 -4.61,1.993 -6.261,1.444 -6.96,1.184 -1.455,-0.541 -2.616,-1.5 -5.224,-3.655 l -1.862,-1.533 -1.831,-1.484 c -2.707,-2.185 -4.251,-3.431 -5.318,-5.086 -0.821,-1.275 -1.634,-3.283 -0.268,-7.746 1.482,-4.841 5.403,-12.048 13.919,-22.892 8.445,-10.753 21.062,-24.651 39.397,-42.829 36.696,-36.381 72.39908,-67.05489 100.375,-87.242 14.04108,-10.13189 26.15093,-16.76622 34.644,-21.464 4.57275,-2.52933 6.44872,-4.17803 9.53893,-3.47789 2.30199,0.57008 -0.50498,4.58629 -2.87693,8.92389 -4.34504,7.94582 -10.548,19.551 -20.4,33.108 -19.629,27.01 -50.11,61.953 -86.806,98.334 z"
       fill="#ffffff"
       id="path4352"
       sodipodi:nodetypes="cccccccccccsscscc" />
  </g>
</svg>
