<?xml version="1.0" encoding="UTF-8" standalone="no"?>
<svg
   width="500"
   height="500"
   fill="none"
   version="1.1"
   id="svg4304"
   sodipodi:docname="icono_navidad.svg"
   inkscape:version="1.1.2 (b8e25be833, 2022-02-05)"
   xmlns:inkscape="http://www.inkscape.org/namespaces/inkscape"
   xmlns:sodipodi="http://sodipodi.sourceforge.net/DTD/sodipodi-0.dtd"
   xmlns="http://www.w3.org/2000/svg"
   xmlns:svg="http://www.w3.org/2000/svg">
  <defs
     id="defs4308" />
  <sodipodi:namedview
     id="namedview4306"
     pagecolor="#ffffff"
     bordercolor="#666666"
     borderopacity="1.0"
     inkscape:pageshadow="2"
     inkscape:pageopacity="0.0"
     inkscape:pagecheckerboard="0"
     showgrid="false"
     inkscape:zoom="0.58972706"
     inkscape:cx="14.413448"
     inkscape:cy="86.480685"
     inkscape:window-width="1920"
     inkscape:window-height="1017"
     inkscape:window-x="-8"
     inkscape:window-y="-8"
     inkscape:window-maximized="1"
     inkscape:current-layer="svg4304" />
  <style
     id="style4258"><![CDATA[.B{stroke:#000}.C{stroke-width:10}.D{stroke-linecap:round}]]></style>
  <g
     fill="#fff"
     class="B C"
     id="g4264">
    <ellipse
       cx="257.778"
       cy="349.831"
       rx="119.448"
       ry="119.98"
       id="ellipse4260" />
    <ellipse
       cx="251.879"
       cy="182.007"
       rx="82.582"
       ry="83.176"
       id="ellipse4262" />
  </g>
  <g
     fill="#000"
     id="g4270">
    <ellipse
       cx="223.124"
       cy="166.549"
       rx="18.433"
       ry="16.194"
       id="ellipse4266" />
    <ellipse
       cx="276.212"
       cy="166.549"
       rx="18.433"
       ry="16.194"
       id="ellipse4268" />
  </g>
  <path
     d="M212.801 221.755c28.844 20.573 44.255 21.583 70.047 0"
     class="B C D"
     id="path4272" />
  <g
     fill="#000"
     id="g4282">
    <ellipse
       cx="257.778"
       cy="313.028"
       rx="10.323"
       ry="11.041"
       id="ellipse4274" />
    <ellipse
       cx="257.778"
       cy="349.831"
       rx="10.323"
       ry="11.041"
       id="ellipse4276" />
    <ellipse
       cx="257.778"
       cy="386.636"
       rx="10.323"
       ry="11.041"
       id="ellipse4278" />
    <path
       d="M470.052 231.067a4.99 4.99 0 0 0 1.228-6.958 5.01 5.01 0 0 0-6.969-1.23l5.741 8.188zm-103.227 72.135l103.227-72.135-5.741-8.188-103.227 72.136 5.741 8.187z"
       id="path4280" />
  </g>
  <path
     d="M439.902 245.944l1.475-32.388M473 248.751l-32.362-2.706"
     class="B C D"
     id="path4284" />
  <path
     d="M163.422 104.668c.064-2.832-2.062-5.237-4.748-5.371s-4.916 2.053-4.98 4.885l9.728.486zm-4.152 184.319l4.152-184.319-9.728-.486-4.152 184.319 9.728.486z"
     fill="#000"
     id="path4286" />
  <path
     d="M156.724 132.539l-25.283-22.195m46.176 4.873l-19.502 16.844"
     class="B C D"
     id="path4288" />
  <g
     fill="#000"
     id="g4294">
    <path
       d="M196.611 39a2 2 0 0 1 2-2h110.447a2 2 0 0 1 2 2v74.707a2 2 0 0 1-2 2H198.611a2 2 0 0 1-2-2V39z"
       id="path4290" />
    <rect
       x="173.721"
       y="109.359"
       width="157.683"
       height="15.234"
       rx="1"
       id="rect4292" />
  </g>
  <g
     fill="#ffffff"
     id="g4302"
     style="stroke-width:5.14771654;stroke-miterlimit:4;stroke-dasharray:none">
    <ellipse
       cx="218.69901"
       cy="164.341"
       rx="6.6360002"
       ry="6.625"
       id="ellipse4296"
       style="stroke-width:5.14771654;stroke-miterlimit:4;stroke-dasharray:none" />
    <ellipse
       cx="271.78799"
       cy="164.341"
       rx="6.6360002"
       ry="6.625"
       id="ellipse4298"
       style="stroke-width:5.14771654;stroke-miterlimit:4;stroke-dasharray:none" />
    <path
       d="m 191.773,197.724 c -3.443,-0.702 -3.08,-5.733 0.428,-5.935 l 64.483,-3.711 a 3,3 0 0 1 3.164,3.21 l -1.199,16.613 a 3,3 0 0 1 -3.592,2.724 z"
       class="B C"
       id="path4300"
       style="stroke-width:5.14771654;stroke-miterlimit:4;stroke-dasharray:none" />
  </g>
</svg>
