<svg xmlns="http://www.w3.org/2000/svg" width="500" height="500" fill="none" xmlns:v="https://vecta.io/nano"><g fill="#fff" stroke="#000" stroke-width="10"><path d="M215.475 72.948c-9.837 19.683-11.563 21.693-3.103 43.174l24.947 32.885 12.288-37.04c-15.487-7.722-12.245-13.864-8.166-31.677 12.42-43.622 6.153-53.429-11.703-63.512 3.328 22.065.028 30.844-14.263 56.171zm190.898 81.54c-.808 22.236 3.121 17.034-10.837 33.645l-53.699 26.496 13.441-45.386c17.071 1.484 20.222-4.519 25.129-22.097 9.914-44.331 19.988-49.517 40.23-48.829-13.337 17.353-13.154 25.649-14.264 56.171z"/><path d="M205.657 148.048l-35.98-33.667c34.539-7.598 47.06.434 62.828 26.575l-3.335-36.184c31.547 8.165 41.769 18.377 53.46 41.546 9.615-15.098 34.825-16.584 34.825-16.584l-10.437 41.1c22.068-15.974 35.7-18.41 62.437-10.245l-24.786 20.891c37.803 3.541 55.259 8.212 72.612 26.404l-31.693 4.254c16.326 12.806 19.76 21.817 20.561 39.587-17.488-13.323-24.341-14.104-30.302-1.226 14.523 10.527 22.11 21.807 33.961 58.058-13.315-11.748-20.86-18.626-31.924-22.241 13.785 29.954 18.204 46.546 18.356 75.672-13.493-15.267-20.957-21.98-33.315-16.762 14.928 30.632 17.615 46.973-4.41 72.171-1.106-15.697-2.531-23.703-18.848-24.417-7.254 27.845-14.149 41.032-34.179 57.881l-6.038-9.102c-7.094 11.574-14.754 13.474-29.872 15.028 5.125-9.962 4.169-15.545 0-25.507l-20.162 10.479-6.569-29.167c-16.678 1.602-22.253 5.407-32.576 18.688-16.55-7.463-21.503-15.449-24.55-34.84-6.981 13.979-12.122 18.609-23.488 21.258-7.933-14.545-7.865-22.775-2.988-37.554-12.744 2.343-15.788 8.961-18.642 24.096-12.312-13.923-13.343-24.994-5.398-49.983-7.537.325-11.331 3.707-17.506 14.14-9.946-11.665-9.069-23.53.492-51.255l-25.203 6.09c6.589-40.097 15.489-57.231 42.944-75.96-24.943.469-34.627.91-43.726 2.32 15.544-14.49 24.029-21.441 38.999-33.024l-31.694 4.254c18.645-32.144 32.206-46.57 70.023-56.557l-33.756-9.544c26.329-16.89 41.734-16.794 69.879-6.673z"/></g><path d="M205.062 252.546c37.633-42.55 106.184-18.438 108.872 31.203" stroke="#000" stroke-width="10" stroke-linecap="round"/><g fill="#fff"><path d="M166.466 336.206c2.263-14.564 19.987-30.297 33.147-21.345 35.967 24.468 57.859 27.226 99.191 17.165 15.123-3.682 27.214 16.834 24.95 31.399s-16.956 20.158-33.147 21.345c-40.786 2.991-62.568-.367-99.191-17.165-16.3-7.476-27.214-16.834-24.95-31.399z" stroke="#000" stroke-width="10"/><path d="M206.771 340.063c-.16-1.523-1.824-2.368-3.052-1.549l-26.426 17.625c-1.272.848-1.122 2.831.267 3.536l29.881 15.162c1.389.705 2.95-.41 2.784-1.988l-3.454-32.786zm77.28 13.529c-.865-1.242-2.75-1.092-3.43.272l-14.543 29.2c-.694 1.393.384 2.999 1.929 2.877l33.061-2.623c1.545-.123 2.383-1.881 1.5-3.149l-18.517-26.577z" stroke="#000" stroke-width="10"/></g></svg>