<svg xmlns="http://www.w3.org/2000/svg" width="500" height="500" fill="none" xmlns:v="https://vecta.io/nano"><g fill="#000"><use href="#B"/><use href="#B" fill-opacity=".2"/></g><path d="M145.731 114.559c0-16.569 13.432-30 30-30H347.96c16.568 0 30 13.432 30 30V387.91c0 16.568-13.432 30-30 30H155.731a10 10 0 0 1-10-10V114.559z" fill="#fff"/><g fill="#000" fill-rule="evenodd"><use href="#C"/><use href="#C" fill-opacity=".2"/></g><path d="M139 106c0-17.673 14.327-32 32-32h168.229c17.674 0 32 14.327 32 32v269.351c0 17.673-14.326 32-32 32H139V106z" fill="#fff"/><g stroke="#000" stroke-width="10"><use href="#D"/><use href="#D" stroke-opacity=".2"/></g><g clip-path="url(#A)"><path d="M223.077 154.374c-8.848 2.134-11.679 24.539-11.679 24.539l25.483-6.757 22.298 11.025-3.186 34.496-15.572 55.124 17.696 27.74 41.765-9.602 13.095-26.317-9.556-38.409 1.416-39.832 16.635-6.757 10.972-2.845s-3.894-7.113-5.664-7.113-5.308 3.557-6.37 3.557-4.601-3.557-5.663-3.557-5.663 5.691-6.371 6.046-6.725-.711-7.787 0-.354 6.757-1.061 7.469-5.663 3.556-6.017 4.623 1.77 6.046 1.415 7.113-3.893 4.267-3.893 5.69 2.478 6.402 2.478 7.468-2.478 6.402-2.478 8.18 4.955 7.824 5.309 8.891-1.77 7.824-1.416 9.602 6.371 6.402 6.725 7.468-1.062 5.691-1.062 7.469 4.248 4.267 4.248 6.401-4.248 7.113-4.248 8.536 1.77 8.891 1.062 9.957-7.079 1.779-8.14 2.845-2.478 8.891-3.893 9.603-9.557-2.489-11.327-2.134-4.601 6.757-6.37 6.401-6.017-6.756-7.787-7.468-6.017 3.201-7.078 2.489 0-9.246-1.063-10.669-4.954-3.556-4.954-4.623 2.831-4.979 3.185-6.401-.354-7.113 0-8.536 3.893-2.489 4.601-3.912-1.416-7.468-.708-8.891 7.079-5.334 7.433-6.757-3.186-5.69-2.831-7.468 7.078-6.402 7.078-8.535-2.477-4.268-2.477-6.046 4.601-6.402 4.601-8.18-3.894-5.69-3.894-7.468 4.602-6.757 3.894-8.536-3.186-3.912-3.186-5.69 4.248-7.468 3.186-8.891-8.849-.711-9.911-2.489 0-9.958-1.415-11.025-8.849 2.134-11.326 1.067-1.77-8.891-4.247-8.891c-8.141 0-11.327 8.891-14.158 8.891s-4.601-8.891-7.787-8.891z" fill="#000"/><g fill="#fff" stroke="#000" stroke-width="5"><path d="M221.187 281.984c4.217 4.328-.88 22.172 8.677 21.83 5.164-.184 13.568-23.455-8.636-36.096-17.333-9.074-28.173 8.12-26.651 9.435s9.069-7.081 10.308-4.675-9.57 9.97-7.625 12.324 6.624-6.546 9.274-4.243-5.661 10.041-2.432 10.518 12.868-13.42 17.085-9.093z"/><path d="M225.558 236.882c2.123-12.092-11.68-18.849-16.635-17.782s-5.312 9.958-13.096 8.891-11.683-10.314-13.803-13.159c-5.392-7.233-18.408-4.623-15.222-15.648s11.55-2.269 15.222-4.267c8.493-4.623 50.965-41.207 74.326-24.895 6.724 4.695 12.739 12.092 9.557 34.853-3.897 37.697-36.813 84.641 6.016 88.554 26.192 1.066 39.284-22.406 34.329-40.899s-17.691-40.898-8.137-62.236 36.455-15.649 36.455-11.737-20.882 5.335-20.882 20.627 11.948 23.828 16.635 57.969-8.14 71.483-62.647 70.417c-42.118-.825-56.983-22.05-57.337-35.565s13.095-43.032 15.219-55.123z"/><path d="M208.893 260.901c3.893 4.623-2.477 22.049 7.079 22.405 5.164.192 15.459-23.319-6.009-36.63-16.632-10.314-28.684 6.045-27.261 7.467s9.556-6.401 10.618-3.911-10.264 9.246-8.494 11.735 7.078-6.045 9.556-3.556-6.371 9.602-3.186 10.314 13.804-12.448 17.697-7.824z"/></g><g fill="#000"><path d="M230.51 193.138c2.541 0 4.601-2.389 4.601-5.335s-2.06-5.334-4.601-5.334-4.601 2.388-4.601 5.334 2.06 5.335 4.601 5.335z"/><path fill-rule="evenodd" d="M232.433 184.063c-3.096 1.179-6.019 3.145-9.893 6.459a3.53 3.53 0 0 1-4.989-.403 3.57 3.57 0 0 1 .401-5.013c4.116-3.522 7.764-6.091 11.972-7.694 4.227-1.61 8.74-2.139 14.448-2.045a3.55 3.55 0 1 1-.117 7.112c-5.22-.087-8.745.412-11.822 1.584z"/></g><g fill="#fbfefb"><use href="#E"/><path d="M218.83 209.142c0-3.302-.41-6.468-1.14-8.802s-1.721-3.646-2.753-3.646-2.023 1.312-2.753 3.646-1.141 5.5-1.141 8.802h7.787z"/></g><path fill-rule="evenodd" d="M181.317 213.984l1.739-.519c12.47-3.714 19.967-5.411 34.646-6.446 1.934-.137 3.638 1.027 3.805 2.598s-1.264 2.956-3.197 3.092c-13.93.982-20.812 2.538-32.835 6.119l-.792.236c-.45-.705-.858-1.38-1.23-1.996-.552-.912-1.023-1.691-1.429-2.236-.223-.299-.459-.581-.707-.848z" fill="#000"/></g><defs><clipPath id="A"><path fill="#fff" transform="translate(164 148)" d="M0 0h173v186H0z"/></clipPath><path id="B" d="M154 104c0-16.568 13.431-30 30-30h172c16.569 0 30 13.432 30 30v291c0 16.569-13.431 30-30 30H169c-8.284 0-15-6.716-15-15V104z"/><path id="C" d="M158.017 424.395L139 407.35h11.899l11.78 10.558h10.538v7.542H161.67c-1.29.188-2.659-.164-3.653-1.055z"/><path id="D" d="M169 79h172c13.807 0 25 11.193 25 25v273c0 13.807-11.193 25-25 25H144V104c0-13.807 11.193-25 25-25z"/><path id="E" d="M207.504 211.276c0-3.302-.41-6.468-1.14-8.802s-1.721-3.646-2.753-3.646-2.023 1.312-2.753 3.646-1.141 5.5-1.141 8.802h7.787z"/></defs></svg>