<svg xmlns="http://www.w3.org/2000/svg" width="500" height="500" fill="none" xmlns:v="https://vecta.io/nano"><g clip-path="url(#A)" fill="#fff" stroke="#000"><g stroke-width="10"><path d="M468.549 192.36c-121.169-36.06-187.142-8.268-285.982 27.781l-11.003 68.209c111.836-20.425 188.792-38.916 297.727 15.004-16.939-27.109-36.103-34.919-39.194-43.281s28.19-4.102 55.885-10.643c-25.47-23.767-47.602-24.192-62.191-32.837 3.368-10.079 26.895-17.306 44.758-24.233z"/><path d="M174.754 130.821c1.349-2.506 5.103-1.901 5.596.902l13.645 77.61c.222 1.258 1.216 2.238 2.477 2.442l82.089 13.242c2.916.471 3.469 4.428.793 5.68l-73.32 34.291a3 3 0 0 0-1.684 3.237l13.545 77.039c.5 2.845-2.917 4.684-5.016 2.699l-59.5-56.253a3 3 0 0 0-3.332-.537l-74.17 34.689c-2.617 1.224-5.282-1.596-3.912-4.14l37.083-68.871a3 3 0 0 0-.581-3.602L49.649 193.64c-2.146-2.029-.377-5.612 2.539-5.141l82.089 13.242a3 3 0 0 0 3.119-1.539l37.358-69.381z"/></g><g stroke-width="5"><path d="M223.111 119.799c1.32-2.611 5.213-1.983 5.645.91l1.978 13.26a3 3 0 0 0 2.489 2.519l13.117 2.116c2.854.461 3.469 4.294.903 5.625l-12.001 6.224a3 3 0 0 0-1.586 3.105l2.006 13.444c.43 2.88-3.083 4.622-5.116 2.536l-9.225-9.466a3 3 0 0 0-3.53-.57l-11.734 6.086c-2.586 1.34-5.373-1.418-4.059-4.017l6.131-12.131a3 3 0 0 0-.529-3.447l-9.435-9.681c-2.017-2.07-.227-5.516 2.627-5.055l13.116 2.115a3 3 0 0 0 3.155-1.608l6.048-11.965zm-116 10.999c1.32-2.61 5.213-1.982 5.645.911l1.978 13.26a3 3 0 0 0 2.49 2.519l13.116 2.116c2.854.461 3.47 4.294.903 5.625l-12 6.223a3 3 0 0 0-1.586 3.106l2.005 13.444c.43 2.88-3.083 4.622-5.115 2.536l-9.226-9.466a3 3 0 0 0-3.53-.57l-11.734 6.085c-2.585 1.341-5.372-1.417-4.058-4.016l6.131-12.131a3 3 0 0 0-.529-3.447l-9.435-9.681c-2.018-2.071-.228-5.516 2.626-5.056l13.116 2.116a3 3 0 0 0 3.156-1.608l6.047-11.966zM49.122 232.266c1.319-2.611 5.213-1.983 5.645.91l1.978 13.261a3 3 0 0 0 2.489 2.519l13.116 2.116c2.854.46 3.47 4.294.903 5.625l-12.001 6.223a3 3 0 0 0-1.586 3.106l2.006 13.443c.43 2.881-3.083 4.622-5.116 2.537l-9.226-9.467a3 3 0 0 0-3.53-.569l-11.734 6.085c-2.585 1.341-5.372-1.417-4.059-4.016l6.131-12.131a3 3 0 0 0-.529-3.447l-9.435-9.682c-2.018-2.07-.228-5.516 2.626-5.055l13.116 2.116a3 3 0 0 0 3.155-1.609l6.048-11.965z"/></g></g><defs><clipPath id="A"><path fill="#fff" d="M0 0h500v500H0z"/></clipPath></defs></svg>