<svg xmlns="http://www.w3.org/2000/svg" width="500" height="500" fill="none" xmlns:v="https://vecta.io/nano"><style><![CDATA[.B{fill:#fff}.C{stroke-width:10}.D{stroke:#000}.E{stroke:#fff}.F{fill-rule:evenodd}]]></style><use href="#B" class="B"/><g class="C"><use href="#B" class="E"/><use href="#B" class="D"/></g><use href="#C" class="B"/><g class="C"><use href="#C" class="E"/><use href="#C" class="D"/></g><use href="#D" class="B"/><g class="C"><use href="#D" class="E"/><use href="#D" class="D"/></g><use href="#E" class="B"/><g class="C"><use href="#E" class="E"/><use href="#E" class="D"/></g><use href="#F" class="B"/><g class="C"><use href="#F" class="E"/><use href="#F" class="D"/></g><g class="B"><path d="M262.323 61.745l-9.701-35.801-11.764 35.626-19.346-11.174 8.866 19.609-35.166 9.235 35.857 11.012-15.064 24.376 24.521-13.325 9.068 33.468 10.441-31.617 18.798 10.859-10.159-22.472 38.33-10.066-35.51-10.906 12.847-20.789-22.018 11.965z" class="F"/><use href="#G"/></g><use href="#G" fill="#000"/><use href="#H" class="B"/><g class="C"><use href="#H" class="E"/><use href="#H" class="D"/></g><g class="F"><use href="#I" class="B"/><use href="#I" fill="#000"/></g><path d="M343 187.684l.864-11.684h16.328l.808 11.684c-2.338 1.556-15.091 1.941-18 0z" class="B C D"/><path d="M357 153a5 5 0 1 0-10 0h10zm0 20.5V153h-10v20.5h10z" fill="#000"/><path d="M360.99 204.829l46.648 16.019c11.067.1 19.35-4.664 38.653-23.697 6.568-7.566 6.1-13.568-.184-26.577-2.122-5.023-10.559-13.157-24.98-28.534-6.291-1.562-11.344 2.862-10.628 9.304l-3.504-4.001c-7.465-3.607-14.739 2.147-12.022 10.524l-4.036-4.61c-8.173-4.063-13.662 1.972-11.848 10.372l-13.937-15.92c-7.813-5.761-16.872-.289-12.196 10.677l32.9 37.582-18.741-6.643c-12.845.796-12.893 11.287-6.125 15.504z" class="B"/><path d="M393.026 179.549l-13.937-15.92m0 0l-13.937-15.92c-7.813-5.761-16.872-.289-12.196 10.677l32.9 37.582-18.741-6.643c-12.845.796-12.893 11.287-6.125 15.504l46.648 16.019c11.067.1 19.35-4.664 38.653-23.697 6.568-7.566 6.1-13.568-.184-26.577-2.122-5.023-10.559-13.157-24.98-28.534-6.291-1.562-11.344 2.862-10.628 9.304m-31.41 12.285c-1.814-8.4 3.675-14.435 11.848-10.372l4.036 4.61m9.901 11.309l-9.901-11.309m0 0c-2.717-8.377 4.557-14.131 12.022-10.524l3.504 4.001m8.682 9.918l-8.682-9.918" class="C D"/><defs ><path id="B" d="M221.218 346.248h58.563v134.739l-8.434 1.839c-7.018 1.403-15.32 2.726-21.424 2.733-6.234.006-14.241-1.313-20.906-2.713a210.73 210.73 0 0 1-7.799-1.796V346.248z"/><path id="C" d="M41 403.59l210.45-181.802L460 403.59s-46.73 20.054-79.014 20.235c-28.64.161-42.441-16.531-71.036-15.176-26.75 1.267-37.797 19.965-64.578 19.286-24.7-.625-34.186-18.534-58.881-19.286-24.338-.742-35.332 13.91-59.64 15.176C92.074 425.637 41 403.59 41 403.59z"/><path id="D" d="M79.093 334.705l172.186-148.747 170.632 148.747s-38.234 16.408-64.648 16.556c-23.432.132-34.725-13.525-58.12-12.417-21.887 1.037-30.925 16.335-52.837 15.78-20.209-.511-27.97-15.164-48.175-15.78-19.913-.606-28.908 11.382-48.796 12.417-28.454 1.483-70.242-16.556-70.242-16.556z"/><path id="E" d="M113.375 266.204l137.749-118.998L387.63 266.204s-30.587 13.126-51.718 13.245c-18.747.105-27.781-10.821-46.497-9.934-17.509.83-24.74 13.068-42.269 12.624-16.167-.409-22.377-12.132-38.54-12.624-15.931-.485-23.127 9.105-39.037 9.934-22.764 1.185-56.194-13.245-56.194-13.245z"/><path id="F" d="M145.37 199.993l105.512-92.815 104.56 92.815s-23.429 10.238-39.615 10.331c-14.359.082-21.279-8.44-35.615-7.748-13.412.647-18.95 10.193-32.377 9.846-12.383-.319-17.14-9.462-29.521-9.846-12.202-.379-17.714 7.102-29.901 7.748-17.436.925-43.043-10.331-43.043-10.331z"/><path id="G" d="M252.622 25.943l3.863-1.074-3.476-12.826-4.185 12.673 3.798 1.227zm9.701 35.801l-3.862 1.074 1.314 4.848 4.437-2.412-1.889-3.51zm-21.465-.175l-2.022 3.467 4.267 2.464 1.553-4.704-3.798-1.227zm-19.346-11.174l2.022-3.467-10.817-6.248 5.148 11.386 3.647-1.671zm8.866 19.609l.988 3.867 4.616-1.212-1.956-4.326-3.648 1.671zm-35.166 9.235l-.988-3.868-13.615 3.576 13.401 4.116 1.202-3.824zm35.857 11.012l3.399 2.083 2.717-4.397-4.914-1.509-1.202 3.824zm-15.064 24.376l-3.399-2.082-7.878 12.747 13.166-7.155-1.889-3.51zm24.521-13.325l3.862-1.073-1.314-4.849-4.438 2.412 1.89 3.51zm9.068 33.468l-3.862 1.074 3.475 12.826 4.185-12.673-3.798-1.227zm10.441-31.617l2.021-3.466-4.266-2.464-1.554 4.705 3.799 1.226zm18.798 10.859l-2.022 3.466 10.818 6.249-5.148-11.386-3.648 1.671zm-10.159-22.472l-.989-3.867-4.615 1.212 1.956 4.326 3.648-1.671zm38.33-10.066l.988 3.867 13.615-3.576-13.401-4.116-1.202 3.824zm-35.51-10.906l-3.399-2.083-2.718 4.397 4.914 1.509 1.203-3.824zm12.847-20.789l3.399 2.083 7.878-12.748-13.167 7.155 1.89 3.51zM248.76 27.017l9.701 35.801 7.724-2.147-9.7-35.801-7.725 2.147zm-4.104 35.779l11.765-35.626-7.597-2.454-11.764 35.626 7.596 2.454zm-25.165-8.934l19.345 11.174 4.044-6.933-19.346-11.174-4.043 6.933zm14.535 14.472l-8.866-19.609-7.295 3.341 8.865 19.609 7.296-3.341zM196.2 83.107l35.166-9.235-1.976-7.735-35.166 9.235 1.976 7.735zm36.071 3.321l-35.857-11.012-2.404 7.647 35.857 11.012 2.404-7.647zm-12.867 30.283l15.064-24.376-6.798-4.165-15.064 24.377 6.798 4.165zm19.232-18.918l-24.521 13.325 3.779 7.02 24.521-13.324-3.779-7.021zm14.82 35.904l-9.068-33.467-7.725 2.147 9.069 33.468 7.724-2.148zm2.78-31.769l-10.44 31.616 7.596 2.454 10.441-31.617-7.597-2.453zm24.619 8.618l-18.799-10.858-4.043 6.933 18.798 10.858 4.044-6.933zm-15.829-17.334l10.159 22.471 7.296-3.341-10.159-22.472-7.296 3.341zm40.99-15.605l-38.331 10.067 1.977 7.735 38.33-10.067-1.976-7.735zm-35.725-3.215l35.511 10.906 2.404-7.647-35.51-10.906-2.405 7.647zm10.651-26.695l-12.847 20.789 6.798 4.165 12.847-20.789-6.798-4.165zm-16.73 17.557L286.23 53.29l-3.779-7.021-22.017 11.965 3.778 7.02z"/><path id="H" d="M379.508 214.437c-.144 15.374-12.628 27.721-27.884 27.578s-27.507-12.721-27.364-28.095 12.629-27.72 27.885-27.577 27.507 12.721 27.363 28.094z"/><path id="I" d="M351.637 240.648c14.491.136 26.367-11.595 26.504-26.223s-11.517-26.58-26.009-26.716-26.368 11.595-26.505 26.224 11.518 26.58 26.01 26.715zm-.013 1.367c15.256.143 27.74-12.204 27.884-27.578s-12.107-27.952-27.363-28.094-27.741 12.204-27.885 27.577 12.108 27.952 27.364 28.095z"/></defs></svg>