<svg xmlns="http://www.w3.org/2000/svg" width="500" height="500" fill="none" xmlns:v="https://vecta.io/nano"><style><![CDATA[.B{fill:#fff}.C{stroke:#000}.D{stroke-width:8}]]></style><g class="B"><g stroke-width="10" class="C"><path d="M459.93 304.26c-11.684 93.22-97.528 77.78-219.682 30.248-128.024 10.145-217.161 5.542-205.987-83.601C56.87 70.523 53.349 98.614 252.388 237.655 481.14 135.043 480.906 136.904 459.93 304.26z"/><path d="M189.017 283.75c-1.859 14.832-28.165 15.618-59.447 11.697s-56.033-11.944-53.274-33.955c1.859-14.833 23.34-38.473 60.35-22.495s52.976 30.602 52.371 44.753zm110.81 8.795c-1.865 14.876 23.431 22.142 54.713 26.063s57.25 2.24 60.017-19.837c1.865-14.877-13.107-43.165-52.92-36.782s-58.899 16.651-61.81 30.556z"/></g><use href="#B"/><use href="#B"/></g><use href="#B" class="C D"/><g class="B"><use href="#C"/><use href="#C"/></g><use href="#C" class="C D"/><g class="B"><use href="#D"/><use href="#D"/></g><use href="#D" class="C D"/><g class="B"><use href="#E"/><use href="#E"/></g><use href="#E" class="C D"/><g class="B"><use href="#F"/><use href="#F"/></g><use href="#F" class="C D"/><g class="B"><use href="#G"/><use href="#G"/></g><use href="#G" class="C D"/><g class="B"><use href="#H"/><use href="#H"/></g><use href="#H" class="C D"/><g class="B"><use href="#I"/><use href="#I"/></g><use href="#I" class="C D"/><g class="B"><use href="#J"/><use href="#J"/></g><g class="C D"><use href="#J"/><path d="M153.975 241.253c5.558-7.952 10.7-33.257 0-50.096L167.473 184c13.756 10.993 26.122 29.021 19.851 48.506-5.202 16.159-17.733 20.617-33.349 27.831s4.952 21.335 0 33.398c-2.715 6.612-6.054 9.378-10.323 15.108-8.931 11.989-22.27 14.003-25.409 28.627-2.101 9.791-2.516 17.212 3.177 25.446 5.606 8.11 22.232 11.927 22.232 11.927L131.742 382s-20.536-5.35-26.203-15.904c-5.287-9.845-4.114-18.234 0-28.626 3.017-7.622 7.258-10.578 12.704-16.699 8.773-9.857 24.279-9.109 25.409-22.265.581-6.757-4.764-16.699-4.764-16.699s-8.475-23.112 0-32.602c4.439-4.97 9.528 0 15.087-7.952zM261.987 95.422c-4.6-6.586-8.856-27.546 0-41.494L250.815 48c-11.384 9.106-21.618 24.038-16.428 40.177 4.305 13.384 14.675 17.076 27.6 23.052s-4.099 17.671 0 27.663c2.246 5.476 5.009 7.767 8.542 12.514 7.391 9.93 18.431 11.598 21.028 23.71 1.739 8.11 2.083 14.257-2.628 21.077-4.641 6.717-18.4 9.879-18.4 9.879l9.857 5.928s16.995-4.431 21.685-13.173c4.376-8.155 3.405-15.103 0-23.711-2.497-6.312-6.006-8.761-10.514-13.831-7.26-8.165-20.092-7.545-21.028-18.442-.48-5.597 3.943-13.831 3.943-13.831s7.014-19.143 0-27.004c-3.673-4.116-7.886 0-12.485-6.586z" class="B"/></g><path d="M263.833 347.847c16.698-25.686 8.303-77.847 8.303-77.847h19.372s6.422 47.476-7.38 72.351c-7.838 14.127-15.682 20.149-27.675 30.834 1.828 7.779 3.739 17.566 1.912 25.345-4.052 17.247-28.023 15.573-31.365 32.97-2.119 11.032 2.701 23.5 2.701 23.5h-16.604s-9.722-18.371-4.613-28.391c3.71-7.277 10.467-10.188 16.605-15.609 10.483-9.259 21.465-10.068 23.985-23.772.865-4.705-.058-4.454-.923-9.159-8.302 3.664-14.248 6.634-23.062 2.748-7.854-3.463-10.113-9.992-11.992-18.317-2.256-9.994-2.08-18.734 5.534-25.644 6.78-6.151 14.416-7.655 23.063-4.579 10.839 3.856 14.759 25.339 14.759 25.339s4.776-5.763 7.38-9.769z" class="B"/><path d="M248.151 361.584l-6.457.916s-9.267.379-11.993-3.663c-2.405-3.567-2.932-7.837 0-10.99 3.177-3.417 7.862-2.191 11.993 0 5.259 2.789 6.457 13.737 6.457 13.737zm0 0l8.302-3.968m0 0s4.776-5.763 7.38-9.769c16.698-25.686 8.303-77.847 8.303-77.847h19.372s6.422 47.476-7.38 72.351c-7.838 14.127-15.682 20.149-27.675 30.834m0-15.569s-3.92-21.483-14.759-25.339c-8.647-3.076-16.283-1.572-23.063 4.579-7.614 6.91-7.79 15.65-5.534 25.644 1.879 8.325 4.138 14.854 11.992 18.317 8.814 3.886 14.76.916 23.062-2.748m8.302-4.884c1.828 7.779 3.739 17.566 1.912 25.345-4.052 17.247-28.023 15.573-31.365 32.97-2.119 11.032 2.701 23.5 2.701 23.5h-16.604s-9.722-18.371-4.613-28.391c3.71-7.277 10.467-10.188 16.605-15.609 10.483-9.259 21.465-10.068 23.985-23.772.865-4.705-.058-4.454-.923-9.159m8.302-4.884c-1.845 1.644-5.42 4.183-8.302 4.884" class="C D"/><path d="M387.775 182.847C373.019 157.161 380.438 105 380.438 105h-17.119s-5.676 47.476 6.521 72.351c6.927 14.127 13.859 20.149 24.457 30.834-1.615 7.779-3.304 17.566-1.689 25.345 3.58 17.247 24.765 15.573 27.718 32.97 1.872 11.032-2.388 23.5-2.388 23.5h14.674s8.591-18.371 4.076-28.391c-3.278-7.277-9.249-10.188-14.674-15.609-9.264-9.259-18.969-10.068-21.195-23.772-.765-4.705.051-4.454.815-9.159 7.337 3.664 12.591 6.634 20.38 2.748 6.941-3.463 8.938-9.992 10.598-18.317 1.994-9.994 1.838-18.734-4.891-25.644-5.991-6.151-12.739-7.655-20.38-4.579-9.579 3.856-13.044 25.339-13.044 25.339s-4.22-5.763-6.522-9.769z" class="B"/><path d="M401.634 196.584l5.707.916s8.188.379 10.597-3.663c2.126-3.567 2.592-7.837 0-10.99-2.807-3.417-6.947-2.191-10.597 0-4.649 2.789-5.707 13.737-5.707 13.737zm0 0l-7.337-3.968m0 0s-4.22-5.763-6.522-9.769C373.019 157.161 380.438 105 380.438 105h-17.119s-5.676 47.476 6.521 72.351c6.927 14.127 13.859 20.149 24.457 30.834m0-15.569s3.465-21.483 13.044-25.339c7.641-3.076 14.389-1.572 20.38 4.579 6.729 6.91 6.885 15.65 4.891 25.644-1.66 8.325-3.657 14.854-10.598 18.317-7.789 3.886-13.043.916-20.38-2.748m-7.337-4.884c-1.615 7.779-3.304 17.566-1.689 25.345 3.58 17.247 24.765 15.573 27.718 32.97 1.872 11.032-2.388 23.5-2.388 23.5h14.674s8.591-18.371 4.076-28.391c-3.278-7.277-9.249-10.188-14.674-15.609-9.264-9.259-18.969-10.068-21.195-23.772-.765-4.705.051-4.454.815-9.159m-7.337-4.884c1.63 1.644 4.79 4.183 7.337 4.884" class="C D"/><defs ><path id="B" d="M133.857 121L91 92.125L122.429 66L151 92.125L133.857 121Z"/><path id="C" d="M181.474 159.697l-14.695-29.631 25.677-5.409 7.632 23.699-18.614 11.341z"/><path id="D" d="M238.571 105L200 75.075L228.286 48L254 75.075L238.571 105Z"/><path id="E" d="M247.402 475.446L241 434l33.18 2.943.128 31.62-26.906 6.883z"/><path id="F" d="M139.754 446.684l-2.703-22.92 18.446.942-.59 17.587-15.153 4.391z"/><path id="G" d="M327.205 423.241l-32.55-26.443 26.581-20.075 21.306 23.365-15.337 23.153z"/><path id="H" d="M375.123 459.561l-17.246-14.011 14.084-10.637 11.289 12.38-8.127 12.268z"/><path id="I" d="M379.404 81.554l-25.375 14.406-4.981-22.499 20.345-7.869 10.011 15.962z"/><path id="J" d="M265.051 145.488l14.535-24.002 15.928 15.624-13.554 16.288-16.909-7.91z"/></defs></svg>