<?xml version="1.0" encoding="UTF-8" standalone="no"?>
<svg
   xmlns:dc="http://purl.org/dc/elements/1.1/"
   xmlns:cc="http://creativecommons.org/ns#"
   xmlns:rdf="http://www.w3.org/1999/02/22-rdf-syntax-ns#"
   xmlns:svg="http://www.w3.org/2000/svg"
   xmlns="http://www.w3.org/2000/svg"
   xmlns:sodipodi="http://sodipodi.sourceforge.net/DTD/sodipodi-0.dtd"
   xmlns:inkscape="http://www.inkscape.org/namespaces/inkscape"
   width="500"
   height="500"
   version="1.1"
   id="svg14"
   sodipodi:docname="icono_buscar2.svg"
   inkscape:version="0.92.3 (2405546, 2018-03-11)"
   style="fill:none">
  <metadata
     id="metadata20">
    <rdf:RDF>
      <cc:Work
         rdf:about="">
        <dc:format>image/svg+xml</dc:format>
        <dc:type
           rdf:resource="http://purl.org/dc/dcmitype/StillImage" />
        <dc:title />
      </cc:Work>
    </rdf:RDF>
  </metadata>
  <defs
     id="defs18" />
  <sodipodi:namedview
     pagecolor="#ffffff"
     bordercolor="#666666"
     borderopacity="1"
     objecttolerance="10"
     gridtolerance="10"
     guidetolerance="10"
     inkscape:pageopacity="0"
     inkscape:pageshadow="2"
     inkscape:window-width="1920"
     inkscape:window-height="1017"
     id="namedview16"
     showgrid="false"
     inkscape:snap-bbox="true"
     inkscape:bbox-paths="true"
     inkscape:bbox-nodes="true"
     inkscape:snap-bbox-edge-midpoints="true"
     inkscape:snap-bbox-midpoints="true"
     inkscape:object-paths="true"
     inkscape:snap-intersection-paths="true"
     inkscape:snap-smooth-nodes="true"
     inkscape:snap-midpoints="true"
     inkscape:zoom="1.5733334"
     inkscape:cx="106.54387"
     inkscape:cy="253.06336"
     inkscape:window-x="892"
     inkscape:window-y="152"
     inkscape:window-maximized="1"
     inkscape:current-layer="g822" />
  <g
     id="g867"
     transform="translate(-45.664691,-45.80227)">
    <g
       id="g822"
       transform="matrix(0.85038406,0,0,0.85038406,42.642632,42.447157)"
       style="stroke-width:1.17593932">
      <rect
         ry="24.50775"
         style="display:inline;fill:#ffffff;fill-opacity:1;stroke:none;stroke-width:13.33348465;stroke-miterlimit:4;stroke-dasharray:none;stroke-opacity:1"
         id="rect2-3"
         transform="rotate(28.500881)"
         rx="24.50775"
         height="41.681999"
         width="381.02701"
         y="95.360352"
         x="279.27469" />
      <circle
         transform="matrix(0.94184479,-0.33604819,0.33552728,0.94203049,0,0)"
         id="circle4-5"
         style="display:inline;fill:#ffffff;fill-opacity:1;stroke:none;stroke-width:13.33348274;stroke-miterlimit:4;stroke-dasharray:none;stroke-opacity:1"
         r="138.04103"
         cy="319.37549"
         cx="134.66925" />
      <path
         sodipodi:nodetypes="sssccsccssccscccssssc"
         inkscape:connector-curvature="0"
         id="circle4"
         d="M 185.77862,120.22743 C 111.08847,146.87671 72.035152,229.19336 98.643121,303.89824 125.2511,378.60313 207.52469,417.63407 282.21485,390.98478 c 24.59335,-8.77486 45.32175,-23.58566 61.11561,-42.1728 l 155.51894,84.4418 c 12.82063,6.96129 28.98652,2.17299 35.94781,-10.64765 6.9613,-12.82064 2.17365,-28.98468 -10.64698,-35.94597 l -154.49021,-83.8829 c 10.42201,-29.88415 11.11934,-63.37501 -0.31034,-95.46513 -26.60797,-74.70489 -108.8809,-113.733992 -183.57106,-87.0847 z m 169.79475,187.80176 163.16661,88.5948 c 7.47267,4.05749 10.14904,13.09987 6.09156,20.57255 -4.05749,7.47269 -13.0992,10.15087 -20.57188,6.09339 l -163.16596,-88.59426 -7.92177,8.60062 c -14.34414,16.24774 -32.88499,29.204 -54.76066,37.00919 -68.91849,24.58997 -144.53718,-11.28492 -169.08903,-80.21699 -24.551853,-68.93208 11.34215,-144.58997 80.26063,-169.17993 68.91848,-24.58997 144.53584,11.28125 169.0877,80.21333 10.32106,28.97752 9.95821,59.14332 0.95275,86.20527"
         style="color:#000000;font-style:normal;font-variant:normal;font-weight:normal;font-stretch:normal;font-size:medium;line-height:normal;font-family:sans-serif;font-variant-ligatures:normal;font-variant-position:normal;font-variant-caps:normal;font-variant-numeric:normal;font-variant-alternates:normal;font-feature-settings:normal;text-indent:0;text-align:start;text-decoration:none;text-decoration-line:none;text-decoration-style:solid;text-decoration-color:#000000;letter-spacing:normal;word-spacing:normal;text-transform:none;writing-mode:lr-tb;direction:ltr;text-orientation:mixed;dominant-baseline:auto;baseline-shift:baseline;text-anchor:start;white-space:normal;shape-padding:0;clip-rule:nonzero;display:inline;overflow:visible;visibility:visible;opacity:1;isolation:auto;mix-blend-mode:normal;color-interpolation:sRGB;color-interpolation-filters:linearRGB;solid-color:#000000;solid-opacity:1;vector-effect:none;fill:#000000;fill-opacity:1;fill-rule:nonzero;stroke:none;stroke-width:13.33397579;stroke-linecap:butt;stroke-linejoin:miter;stroke-miterlimit:4;stroke-dasharray:none;stroke-dashoffset:0;stroke-opacity:1;color-rendering:auto;image-rendering:auto;shape-rendering:auto;text-rendering:auto;enable-background:accumulate" />
      <path
         style="display:inline;fill:#ffffff;fill-opacity:1;stroke:#000000;stroke-width:13.33348465;stroke-miterlimit:4;stroke-dasharray:none"
         inkscape:connector-curvature="0"
         id="path8"
         d="m 332.11796,221.14463 c 19.17854,53.8481 -8.91674,113.07272 -62.75383,132.2813 -53.83708,19.20858 -113.02928,-8.87089 -132.20782,-62.719 -19.17853,-53.8481 8.91581,-113.07238 62.75383,-132.2813 53.83803,-19.20893 113.02835,8.87124 132.20782,62.719 z" />
      <path
         style="display:inline;stroke:#000000;stroke-width:8.8889904;stroke-linecap:round;stroke-miterlimit:4;stroke-dasharray:none"
         inkscape:connector-curvature="0"
         id="path10"
         d="m 150.80686,270.54575 c -4.59351,-19.46656 4.86545,-54.81477 19.29805,-67.31561 m 11.07312,-12.52154 c 0.48739,-0.89873 8.95017,-7.54338 10.35882,-8.05884" />
    </g>
  </g>
</svg>
