<svg xmlns="http://www.w3.org/2000/svg" width="793.701" height="1122.52" viewBox="0 0 210 297" fill="#fff" stroke="#000" xmlns:v="https://vecta.io/nano"><path d="M33.696 221.205a67.558 33.475 0 0 1 33.446-29.301 67.558 33.475 0 0 1 67.936-.08 67.558 33.475 0 0 1 33.728 29.221l-67.556-.245z" stroke-width="5.389" paint-order="stroke fill markers"/><g fill-opacity=".985" stroke-width="5.389"><path d="M111.163 191.607c.162-.422.066-.844-.214-.937-.733-.244.74-4.989 1.528-4.924l1.714.134c.881.066 1.069.463 1.069 2.253 0 3.059-.766 4.241-2.749 4.241-1.207 0-1.564-.203-1.348-.767zm.889-8.576c0-2.143 1.65-5.791 2.317-5.124.313.313 1.013.569 1.556.569.844 0 .937.29.648 2.005-.628 3.724-.733 3.875-2.686 3.875-1.597 0-1.835-.172-1.835-1.326zm2.506-5.999c-.78-.202-.899-.579-.612-1.943.61-2.897 1.93-5.297 2.564-4.663.311.311.984.566 1.494.566.77 0 .878.343.631 2.005-.35 2.354-1.525 4.436-2.454 4.348-.361-.034-1.091-.175-1.624-.313zm3.596-7.387c-.208-.041-.832-.209-1.386-.374-.882-.262-.994-.35-.898-.702.061-.221.164-.723.23-1.115s.193-.759.283-.814.164-.232.164-.39c0-.418 1.109-2.752 1.471-3.095.32-.304.259-.323 2.498.775.156.077.255.253.22.393a35.79 35.79 0 0 0-.25 1.293c-.103.572-.266 1.187-.362 1.368s-.175.545-.175.811c0 .642-1.273 1.955-1.795 1.852zm1.897-6.714c-.204-.118-.714-.317-1.134-.441-.689-.204-.757-.279-.699-.772a4.9 4.9 0 0 1 .304-1.112l.456-1.097c.132-.323.301-.478.434-.396s.166.051.091-.07c-.177-.286 1.003-2.689 1.32-2.689.143 0 .263-.106.266-.236s.11-.062.236.15.374.356.553.318.624.075.992.249c.649.308.849.76.503 1.134-.091.099-.314.647-.495 1.219-.536 1.691-1.354 3.336-1.821 3.663-.511.358-.524.359-1.006.079zm2.9-7.191c-.016-.32-.043-.343-.108-.095-.096.366-.268.418-.541.163-.343-.321-.996-.423-1.085-.171-.047.134-.053-.007-.012-.313s.168-.616.283-.688.16-.211.099-.31.247-.792.686-1.54c.735-1.254 1.204-1.713 2.07-2.026.382-.138.441-.57.094-.699-.161-.06-.133-.131.09-.223.197-.081.439-.021.612.152.157.158.535.341.839.408.749.164.842.536.286 1.136-.255.275-.421.571-.368.656s-.037.475-.2.865c-.21.503-.235.747-.087.838.241.149.061.761-.223.761-.105 0-.482.318-.838.707-.533.581-.679.657-.826.425-.151-.239-.179-.232-.181.049-.004.494-.566.404-.592-.095zm-.794-1.689c-.06-.151-.105-.106-.114.114-.008.199.037.311.099.248s.07-.226.015-.362zm.756-1.323c-.06-.151-.105-.106-.114.114-.008.199.037.311.099.248s.07-.226.015-.362zm2.848-3.207l-1.086-.581c0-.056 1.283-2.559 1.768-3.452.169-.312.308-.673.309-.803 0-.149.279-.236.757-.236.526 0 .756.082.756.267 0 .147.3.576.667.954l.667.687-.483.794-.802 1.449c-.704 1.443-1.152 1.605-2.552.921zm4.879-4.108c-.071-.115-.363-.209-.649-.209-.615 0-1.295-.576-1.461-1.238-.107-.427-.184-.46-.805-.348l-1.051.189c-.423.076-.864-.236-.864-.611 0-.151.196-.26.466-.26.256 0 .859-.133 1.339-.296.615-.209 1.022-.245 1.377-.123.395.136.583.097.868-.176.395-.379.865-.465.865-.157 0 .106.236.174.525.152.7-.053.939.12 1.275.925l.283.676-.735.72c-.404.396-.792.662-.863.592s-.198-.015-.283.123c-.109.176-.194.188-.284.042zm1.216-.987c0-.104-.085-.136-.189-.072s-.189.202-.189.306.085.136.189.072.189-.202.189-.306zm-3.653-2.902c-.468-.468-.385-.97.233-1.41.989-.704 1.782-.369 1.782.753 0 .695-.008.702-.935.851-.58.093-.839.046-1.08-.194z" paint-order="stroke fill markers"/><path d="M108.859 154.614c.061-.178.281-1.038.488-1.911.496-2.088 1.712-4.683 2.848-6.076 1.997-2.448 4.408-4.171 7.066-5.048 2.232-.737 8.207-.646 8.505.129.114.298-.307.702-.669.642-.138-.023-.49.057-.782.177a3.31 3.31 0 0 1-1.049.219c-.284 0-.598.074-.696.165s-.69.319-1.313.508-1.176.391-1.228.45-.605.355-1.228.659l-1.889 1.024c-.415.259-.877.471-1.026.471s-.52.283-.824.63-.663.63-.797.63-.295.133-.357.295-.192.247-.288.188c-.151-.093-1.718 1.279-1.718 1.504 0 .163-1.921 1.981-2.093 1.981-.096 0-.175-.09-.175-.2s-.089-.145-.198-.078c-.135.083-.126.209.027.394.209.252.117.541-.175.549-.304.008-.934.738-.842.977.057.149 0 .24-.133.208s-.261.108-.295.307-.332.624-.665.945c-.366.353-.561.455-.494.26zm.741-.994c.049-.257.016-.422-.073-.367-.157.097-.235.834-.089.834.04 0 .113-.21.162-.467zm.979-1.923c.066-.171.08-.349.033-.397-.15-.15-.489.151-.489.435 0 .371.31.345.457-.038zm-.139-1.237c-.06-.151-.105-.106-.114.114-.008.199.037.311.099.248s.07-.226.015-.362zm2.517-.864c0-.032-.17.032-.378.143s-.378.284-.378.383.17.035.378-.143.378-.35.378-.383zm1.49-1.949c-.303-.187-.441-.088-.268.193.07.113.215.15.323.083.127-.078.108-.176-.055-.276zm-1.418-1.225c.064-.168.033-.244-.074-.178s-.187.195-.187.293c0 .272.135.212.261-.115zm5.924-1.333c-.063-.063-.226-.07-.362-.015-.151.06-.106.105.114.114.199.008.311-.036.248-.099zm-3.729-.442c0-.098-.085-.23-.189-.295s-.189.016-.189.178.085.295.189.295.189-.08.189-.178zm.756-.684c0-.162-.086-.241-.192-.176s-.143.198-.083.295c.162.262.275.213.275-.119zm2.173-1.217c.065-.105-.076-.188-.32-.186-.351.002-.381.039-.153.186.352.227.332.227.472 0zm.61-.492c-.063-.063-.226-.07-.362-.015-.151.06-.106.105.114.114.199.008.311-.036.248-.099zm1.374-.453c.38-.122.398-.152.094-.157a2.2 2.2 0 0 0-.756.157c-.482.207.015.207.661 0zm-11.678 11.148c-.306-1.786-.286-3.588.058-5.24.331-1.589.949-3.34 1.417-4.017.18-.26.385-.662.457-.894s.466-.781.875-1.22.744-.866.744-.948.084-.15.186-.15.567-.276 1.034-.614c.564-.408.825-.725.777-.945s.045-.331.291-.331a1.67 1.67 0 0 0 .691-.186c1.376-.778 4.996-1.164 6.408-.683.476.162.942.247 1.037.189s.471.071.838.287.786.393.932.393c.419 0 1.629.6 2.405 1.192.477.364.709.691.709 1.001 0 .411-.055.445-.52.315-.286-.08-1.829-.143-3.43-.141s-2.706-.053-2.457-.123c.351-.098.275-.131-.338-.146-.436-.01-.839.057-.896.149s-.389.221-.738.287-.984.288-1.41.494-.908.375-1.069.375-.293.075-.293.166-.237.264-.526.384c-.652.27-3.557 3.104-3.938 3.842-.154.298-.441.703-.638.899-.589.589-1.365 2.405-1.222 2.858.086.271.059.361-.081.274-.121-.075-.221.015-.237.213l-.05.625c-.025.321-.699 3.024-.754 3.024-.02 0-.138-.597-.263-1.326zm15.506-12.419a10.82 10.82 0 0 0-1.606 0c-.442.04-.08.072.803.072s1.245-.032.803-.072zm-21.403-.345c0-.125.128-.333.284-.462s.283-.354.283-.498c0-.246.283-.833.62-1.288l.903-1.238c1.009-1.388 2.556-2.963 3.485-3.548l.85-.59c.58-.697 3.829-1.912 5.364-2.007.508-.031.975-.14 1.039-.241.185-.293 3.571.241 4.746.75 2.045.884 2.754 1.364 4.253 2.875 2.013 2.03 2.739 2.988 2.739 3.609 0 .157.077.286.172.286.255 0 1.011 1.657.865 1.894-.075.121-.759-.404-1.68-1.288-1.664-1.597-3.063-2.512-5.027-3.285-2.142-.844-3.137-1.007-6.142-1.007-3.07 0-4.672.33-6.497 1.338-.455.251-.901.457-.992.457-.367 0-2.241 1.481-3.709 2.93-.858.847-1.559 1.437-1.559 1.312zm1.89-2.458c0-.162-.086-.241-.192-.176s-.143.198-.083.295c.162.262.275.213.275-.119zm23.937.129c-.258-.819-.671-1.818-.917-2.221l-.656-1.204c-.114-.26-.635-1.006-1.158-1.657-3.081-3.838-7.158-5.849-12.607-6.218l-2.079-.141 1.323-.16c2.505-.304 6.141.389 8.385 1.597 2.362 1.272 5.131 3.658 4.823 4.157-.076.122-.048.162.065.092.595-.368 3.021 4.285 3.359 6.442.193 1.232-.021.959-.539-.686z" paint-order="stroke fill markers"/><path d="M128.051 138.731c-.975-2.046-1.549-2.852-3.282-4.601-1.583-1.598-2.151-2.036-3.497-2.697-1.56-.766-3.806-1.349-5.198-1.349-.346 0-.657-.075-.692-.166-.118-.312-5.335-2.275-6.075-2.286-.21-.003-.29-.089-.207-.223s.052-.167-.094-.077c-.293.181-1.201-.04-1.065-.26.099-.16 1.523-.627 2.622-.859.347-.073.493-.044.414.084-.067.108-.367.197-.666.197s-.584.064-.633.142.512.113 1.246.078c1.712-.082 4.66.261 6.412.747 4.975 1.379 9.128 5.356 10.836 10.377.535 1.573.521 1.508.321 1.508-.082 0-.281-.276-.442-.614zm-14.012-10.083c-.063-.063-.226-.07-.362-.015-.151.06-.106.105.114.114.199.008.311-.036.248-.099z" paint-order="stroke fill markers"/><path d="M129.046 138.188c-.052-.632-.768-2.568-1.353-3.663-.824-1.539-2.511-3.722-3.51-4.541l-1.072-.923c-.499-.499-2.934-1.763-4.312-2.239-.776-.268-2.217-.574-3.202-.679-1.78-.19-5.179-.141-5.932.085-.743.224-.033-.22 1.032-.644 5.973-2.381 11.464-1.903 15.278 1.331.335.284.644.699.687.923.088.459.279.724.279.388 0-.121.085-.22.189-.22s.189.175.189.389.076.342.168.285c.236-.146.827.811.702 1.136-.06.157.013.268.178.268.154 0 .4.276.545.614l.568 1.312c.3.69.246 2.123-.088 2.329-.08.049-.497-.621-.927-1.489s-.992-1.776-1.248-2.016-.466-.514-.466-.608c0-.383-2.94-2.845-4.297-3.6-.986-.548-2.696-1.077-3.481-1.077-.4 0-.726-.085-.726-.189 0-.11-.571-.181-1.37-.171l-1.37.018 1.228.251c2.229.455 2.728.596 3.969 1.119a19.21 19.21 0 0 1 2.173 1.102c1.055.652 3 2.573 4.064 4.013.866 1.172 1.889 3.207 1.889 3.756 0 .226.115.579.255.784.181.265.216.646.12 1.318-.074.52-.146.807-.16.639zm-14.955-12.723c0-.199-.363-.283-.471-.109-.065.106.014.192.176.192s.295-.037.295-.083z" paint-order="stroke fill markers"/><path d="M130.412 139.817c-.06-.156-.261-.283-.446-.283-.454 0-.566-.366-.572-1.858-.01-2.559-1.323-5.242-3.909-7.983-1.396-1.48-2.792-2.464-4.575-3.224-1.446-.617-1.17-.728.362-.146 2.71 1.029 5.542 3.76 7.169 6.912.736 1.426 1.067 1.608 1.312.721.099-.357.135-.815.082-1.019-.058-.222.062-.541.3-.796.218-.234.397-.601.398-.815.003-.566.608-1.389.944-1.28.156.05.22.024.143-.059s-.045-.264.07-.404c.156-.188.152-.254-.016-.254-.126 0-.032-.239.213-.539s.546-.5.676-.452.247-.007.26-.122l.052-.445c.016-.13.181-.223.367-.208s.29-.021.23-.081c-.224-.224.675-.945 1.056-.846.274.072.362.017.318-.198-.034-.163.014-.295.106-.293s.236-.106.318-.24.347-.254.588-.266c.851-.045 1.503-.317 1.4-.585-.074-.193.089-.26.634-.26.404 0 .763-.083.797-.185.177-.52 6.625-.512 6.964.009.054.082.224.142.378.133.669-.039.959.053.83.262-.084.137-.052.167.088.081.123-.076.487-.08.81-.009.45.099.526.172.326.313-.188.132-.129.155.213.082.513-.11.821.028.896.402.036.178-.506.236-2.213.236-4.667 0-7.72.843-10.213 2.819-.468.371-1.059.879-1.313 1.13-.281.276-.491.37-.535.238-.04-.12-.214-.215-.388-.212-.28.005-.277.035.03.268.324.245.276.345-.763 1.581-.609.726-1.348 1.795-1.642 2.376s-.602 1.015-.685.964-.105.078-.051.287.016.485-.086.614-.337.865-.522 1.634c-.26 1.081-.288 1.478-.12 1.746.267.428.272.541.021.541-.107 0-.244-.128-.304-.283zm2.389-10.405c0-.162-.086-.241-.192-.176s-.143.198-.083.295c.162.262.275.213.275-.119zm4.673-1.52c-.063-.063-.226-.07-.362-.015-.151.06-.106.105.114.114.199.008.311-.037.248-.099zm10.401-2.095a2.07 2.07 0 0 0-.756-.004c-.235.045-.087.084.329.086s.608-.035.427-.082zm-2.034-.437c-.156-.101-.454-.176-.661-.167-.311.013-.295.043.095.167.668.214.898.214.567 0zm-6.567-.125a.73.73 0 0 0-.472 0c-.13.052-.024.095.236.095s.366-.043.236-.095zm2.504-.82c.238-.102.273-.162.095-.162a2.08 2.08 0 0 0-.661.162c-.238.102-.273.162-.095.162a2.08 2.08 0 0 0 .661-.162zm-9.65 12.039c-.119-.311.634-1.733 1.709-3.227 1.2-1.668 2.024-2.476 4.118-4.041 1.246-.931 2.136-1.295 5.051-2.063 1.263-.333 8.141-.682 8.401-.427.112.11.037.176-.2.176-.209 0-.545.125-.746.277s-.494.281-.65.284c-.337.008-2.323.801-2.679 1.069-.137.103-.866.424-1.619.712s-1.417.602-1.476.697-.553.173-1.098.173c-1.242 0-3.445.658-4.976 1.487-1.523.824-3.505 2.508-4.67 3.967l-.998 1.161c-.039 0-.113-.11-.165-.245z" paint-order="stroke fill markers"/><path d="M131.1 139.759c0-1.153 2.289-4.312 4.48-6.181 2.249-1.919 4.129-2.781 6.991-3.205 1.497-.222 1.929-.219 3.118.02 1.604.322 3.192.8 3.45 1.038.099.091.301.166.45.166s.685.298 1.191.661.984.662 1.062.662.879.717 1.781 1.594c1.53 1.486 3.141 3.611 2.912 3.839-.055.055-.464-.194-.909-.553-2.75-2.225-5.312-3.337-8.84-3.835-1.591-.225-2.312-.239-3.638-.071-.91.115-1.654.277-1.654.36s-.489.21-1.087.283c-2.564.312-5.575 1.968-8.126 4.47-.975.956-1.181 1.087-1.181.752z" paint-order="stroke fill markers"/><path d="M131.1 140.904c0-.355 3.143-3.115 4.451-3.909 1.458-.885 3.705-1.853 4.792-2.063.354-.069.76-.221.902-.339.35-.29 4.226-.418 5.637-.186 3.45.567 7.1 2.355 9.383 4.594 1.16 1.138 1.01 1.331-.649.838-2.731-.811-4.773-1.135-8.703-1.38-1.774-.111-4.423.096-6.74.526-.572.106-1.845.273-2.829.371-1.812.18-3.414.523-4.447.951l-.661.267c-.199.068-.857.345-.992.418-.078.042-.142.003-.142-.087z" paint-order="stroke fill markers"/><path d="M145.463 157.955c0-.104.178-.656.395-1.226.541-1.417.583-4.488.086-6.234-1.195-4.199-3.856-7.007-8.219-8.673-1.099-.42-1.534-.474-3.857-.483l-2.617-.01.816-.356c1.762-.768 3.284-1.098 5.437-1.178 1.903-.071 2.334-.024 3.722.399.863.263 1.696.605 1.85.759s.399.281.544.281c.302 0 1.654 1.104 2.544 2.077 1.958 2.141 2.881 5.88 2.142 8.678-.099.374-.219.892-.267 1.152-.116.626-.838 2.222-1.07 2.366-.101.062-.184.239-.184.393s-.298.722-.661 1.262-.661.897-.661.793zm-1.139-.042c-.6-2.965-1.969-6.358-3.256-8.071-.39-.519-.709-.999-.709-1.067 0-.268-2.43-2.572-3.442-3.264-.589-.403-1.113-.841-1.164-.973s-.438-.299-.861-.371-.819-.213-.882-.314-.323-.264-.579-.361-.413-.262-.348-.366.029-.189-.079-.189-.249-.208-.312-.462-.257-.499-.429-.545.41-.092 1.294-.103c1.277-.016 1.962.091 3.339.521.953.298 1.987.722 2.297.943s.621.402.69.402c.244 0 1.529 1.045 2.319 1.887 1.046 1.114 2.315 2.952 2.324 3.364.004.179.128.537.277.797s.273.689.277.954.105.58.225.7c.228.228.526 3.934.335 4.166-.098.119-.318.816-.654 2.07-.065.243-.029.425.084.425.133 0 .127.155-.018.472-.325.714-.484.579-.726-.614zm-4.909-12.331c0-.104-.037-.189-.083-.189s-.136.085-.2.189-.027.189.083.189.2-.085.2-.189zm-4.914-2.268c0-.104-.128-.189-.283-.189s-.283.085-.283.189.128.189.283.189.283-.085.283-.189zm-51.102 51.14c-.67-.248-.834-1.18-.797-4.521l.178-4.795c.055-.055 1.14-.114 2.411-.131s2.355-.102 2.41-.191.276.015.492.231c.269.269.443.787.555 1.647.252 1.946.433 6.492.288 7.262l-.13.692-2.508-.025-2.898-.169zm-.28-11.844c-.401-.645-.449-.983-.535-3.78l.028-3.071c.068 0 .087-.384.043-.854l-.08-.854 1.754.031c.965.017 1.943-.029 2.173-.102 1.286-.408 2.128 2.208 2.128 6.611v2.728h-2.536-2.536zm-.959-10.614c-.365-.85-.487-2.063-.597-5.923-.047-1.641-.003-2.643.118-2.719.106-.065.926-.106 1.823-.09 1.03.018 1.805-.063 2.103-.219.439-.23.509-.202.981.387.29.362.604 1.091.729 1.696.247 1.19.713 7.423.561 7.499-.054.027-1.289.069-2.744.093l-2.646.043zm-.198-10.584c-.604-.737-.961-2.724-1.177-6.554l-.129-2.286 1.295-.126c2.009-.196 2.33-.26 2.662-.53.268-.218.293-.207.186.079-.082.218-.032.331.145.331.278 0 .917 1.256 1.119 2.201s.5 3.508.604 5.2l.101 1.637-1.194.106c-2.911.258-3.359.25-3.611-.057zm-1.315-10.047c-.182-.106-.331-.316-.331-.467s-.074-.274-.164-.274c-.173 0-.208-.207-.674-3.969l-.499-3.366c-.114-.552-.164-1.114-.113-1.248.056-.145.598-.296 1.341-.372.686-.07 1.47-.213 1.742-.316.886-.337 1.505.112 1.849 1.338.365 1.303.367 1.87.008 2.346-.153.202-.277.563-.277.803s-.085.436-.189.436-.189.213-.189.472-.085.472-.189.472c-.31 0-.214.947.108 1.071.163.063.543-.067.843-.289.883-.653.974-.577 1.214 1.014.295 1.958.292 2.091-.045 2.116-.178.013-.877.115-1.553.226-1.535.252-2.455.254-2.882.005zm-1.786-10.663c-.548-.383-.986-1.893-1.864-6.425-.161-.832-.367-1.586-.457-1.677s-.119-.282-.064-.425c.062-.161-.034-.266-.251-.275-.201-.009-.249-.056-.114-.111s.186-.179.123-.281 0-.164.141-.137c.445.084 2.702-.504 3.061-.798s1.233.485 1.46 1.296c.125.446.293.852.374.902s.205.437.277.861.249.997.393 1.275.264.69.264.917.096.652.212.945c.405 1.021.736 3.343.499 3.49-.178.11-3.198.729-3.549.728-.055 0-.282-.128-.505-.284z" paint-order="stroke fill markers"/><path d="M75.733 130.233c-.182-.184-.331-.435-.331-.556s-.069-.22-.153-.22-.394-.872-.689-1.937-.651-2.105-.792-2.31c-.325-.474-.331-1.045-.01-1.045.329 0 1.336-1.078 1.722-1.843.308-.611.563-.763.757-.45.056.091.369.218.695.283.477.095.574.193.494.497-.054.208-.035.339.044.29.195-.12.438.411 1.25 2.734l1.063 2.806c.203.452.342.844.309.872-.307.257-1.209.579-2.46.878l-1.534.347c-.019-.006-.184-.162-.366-.347zm-5.103-7.498c-.286-.155-.52-.369-.52-.476s-.07-.151-.155-.098c-.158.097-.528-.286-.9-.932-.122-.212-.42-.359-.739-.363-.294-.004-.57-.114-.614-.244-.046-.136.079-.236.294-.236.344 0 .658-.307 1.892-1.851.292-.365.735-.619 1.323-.759.824-.196.911-.181 1.282.233.535.597 1.072.865 1.734.865a3.06 3.06 0 0 1 1.099.262c.302.144 1.144.318 1.872.387s1.347.194 1.377.277.263.112.52.063c.281-.054.466-.001.466.133a.11.11 0 0 1-.189.105c-.104-.064-.189.001-.189.146 0 .597-1.751 1.01-2.542.599-.84-.436-1.118-.334-1.62.594-.321.594-.702.98-1.213 1.228-.892.434-2.439.466-3.177.065zm2.741-5.226c-.234-.113-.425-.353-.425-.534a.5.5 0 0 0-.283-.438c-.155-.06-.274-.303-.262-.54.016-.32.044-.346.108-.1.116.443.383.419.531-.047.066-.208.242-.378.391-.378.359 0 .349.549-.013.688-.156.06-.283.184-.283.275 0 .266.629.927.881.927.127 0 .283.085.347.189.152.246-.448.221-.992-.042z" paint-order="stroke fill markers"/><path d="M74.539 117.761c.057-.092-.199-.399-.568-.68-.618-.472-.648-.538-.376-.839.373-.412.377-.75.012-.89-.156-.06-.283-.227-.283-.372 0-.191.266-.263.964-.263.834 0 1.037.079 1.512.587.302.323.548.761.548.974 0 .624-.894 1.651-1.438 1.651-.261 0-.427-.076-.37-.168zm-25.085 23.177c-.975-.961-1.892-1.969-2.039-2.24-1.657-3.058-2.062-4.511-2.062-7.407 0-5.813 3.383-11.701 8.816-15.346.699-.469 1.342-.852 1.431-.852s.37-.137.626-.305c.837-.548 3.549-1.389 5.191-1.609 1.419-.19 1.832-.17 3.54.173 2.058.413 3.976 1.224 5.732 2.423 1.861 1.271 1.692 1.479-.968 1.187-2.074-.228-5.515-.121-6.98.217-3.53.813-6.91 2.917-9.267 5.766-1.096 1.325-2.828 4.15-2.828 4.613 0 .171-.072.392-.159.491-.17.192-.683 2.148-.889 3.392-.19 1.145-.115 4.967.119 6.142.308 1.541.74 2.808 1.339 3.926.294.548.534 1.037.534 1.087 0 .326-.583-.126-2.136-1.658zm-3.216-13.406c-.06-.151-.105-.106-.114.114-.008.199.036.311.099.248s.069-.226.015-.362z" paint-order="stroke fill markers"/><path d="M51.518 142.025c-.288-.624-.562-1.504-.608-1.957s-.166-.976-.266-1.164c-.3-.561-.611-3.972-.482-5.29.196-1.996 1.009-4.887 1.888-6.709.821-1.701 2.826-4.246 4.285-5.437 1.087-.887 2.875-2.013 3.038-1.912.085.053.155.015.155-.083 0-.379 3.413-1.545 5.575-1.905 1.709-.285 6.388-.415 5.673-.158-.31.111-.677.316-.817.455s-.311.255-.381.257-.383.387-.695.854c-.4.599-.762.906-1.228 1.04-.618.177-1.439.578-3.423 1.67-1.072.59-3.013 2.066-4.226 3.214-1.006.952-3.501 3.879-3.501 4.108 0 .072-.196.394-.436.715a8.15 8.15 0 0 0-.736 1.246l-.863 1.89c-.31.676-.752 1.866-.984 2.646l-.574 1.795c-.213.526-.561 2.913-.583 4.005-.01.5-.079 1.121-.152 1.381-.122.433-.177.378-.657-.661zm18.414-27.066c-.254-.245-.573-.402-.709-.35s-.247.031-.247-.048c0-.251-1.144-.827-1.427-.719-.151.058-.274.026-.274-.071 0-.222-1.457-.624-1.705-.471-.102.063-.185.014-.185-.108 0-.135-.185-.187-.472-.132-.26.05-.472.027-.472-.05 0-.192-3.203-.165-3.322.028-.108.174-.224.157-3.576-.521-2.06-.417-3.114-.511-6.52-.584-4.969-.106-8.516.282-12.473 1.365l-2.535.679c-.407.103-.832.248-.945.32s-.546.227-.961.343-.905.274-1.087.352c-1.256.539 1.42-2.178 4.024-4.084.83-.608 1.559-1.106 1.619-1.106s.36-.178.666-.396c.326-.232.687-.345.874-.273.175.067.258.061.183-.013s.026-.227.223-.341c1.444-.832 2.389-1.243 2.821-1.226l.504.019-.472.151c-.292.094-.351.159-.154.17.175.01.555-.071.844-.181.397-.151.462-.239.265-.361-.186-.115-.05-.219.479-.366.915-.254 1.212-.26 1.212-.024s.607.008.861-.33c.41-.546 8.211-.717 8.211-.18 0 .1.228.139.507.085a1.91 1.91 0 0 1 .898.059 7.93 7.93 0 0 0 .958.285c.514.117.532.145.189.296-.273.121-.206.136.244.056.357-.064.734-.018.884.107.144.12.533.252.864.294.725.092 1.693.499 1.693.713 0 .085.077.107.17.049.211-.131 1.805.756 1.838 1.023.053.44.084.466.247.208.138-.218.426-.097 1.503.633.733.496 1.314.99 1.291 1.097s.14.212.362.232c.503.046 3.984 3.455 3.741 3.664-.097.083-.383-.049-.637-.294zm-13.189-7.927c-.128-.052-.383-.055-.567-.007s-.079.09.233.094.462-.035.334-.087z" paint-order="stroke fill markers"/><path d="M70.96 114.798c-3.228-3.73-7.439-6.567-11.622-7.831-.78-.236-1.587-.494-1.795-.575-1.548-.603-6.275-.909-8.824-.571-1.768.234-4.43.866-6.01 1.428-1.061.377-4.615 2.264-5.427 2.881-.342.26-.705.4-.832.321-.136-.084-.177-.06-.102.062.148.24-1.275 1.42-1.473 1.222-.075-.075-.108-.046-.074.065s-.554.806-1.307 1.545-1.37 1.239-1.37 1.112a.73.73 0 0 1 .156-.411c.086-.099.27-.562.409-1.03.396-1.328 2.08-4.25 2.08-3.608 0 .126.074.183.165.126s.165-.303.165-.55c0-.521.772-1.491 1.05-1.319.104.064.137.032.073-.071-.124-.2 2.149-2.516 2.469-2.516.104 0 .298-.132.431-.292 1.069-1.288 7.985-3.922 9.425-3.589.369.085.42.066.206-.079-.31-.21.642-.252 4.536-.201 6.429.084 12.767 3.177 16.469 8.035.475.624 1.043 1.485 1.261 1.914s.512.824.652.878.36.446.487.871.33.753.451.728.272.21.338.522c.091.431.019.68-.302 1.039-.232.26-.451.637-.487.838-.052.29-.299.096-1.2-.945z" paint-order="stroke fill markers"/><path d="M69.09 107.694c-.167-.238-.303-.36-.303-.273s-.127.055-.281-.074-.227-.322-.16-.43.035-.143-.071-.078-.345-.049-.531-.254-.271-.374-.189-.374-.067-.17-.331-.378-.553-.378-.641-.378-.269-.173-.402-.385-.314-.34-.404-.285-.214-.032-.276-.194-.199-.241-.303-.177-.19.031-.19-.075c0-.231-1.501-1.136-2.064-1.245a1.58 1.58 0 0 1-.693-.371c-.253-.253-.731-.389-.881-.25-.026.024-.258-.103-.515-.283s-.661-.327-.898-.327-.43-.076-.43-.168c0-.197-1.45-.52-2.882-.641-.182-.015-.331-.083-.331-.15s-.457-.169-1.016-.227-1.176-.192-1.37-.299c-.907-.496-3.633-1.728-3.824-1.728-.118 0-.215-.085-.215-.189s-.125-.189-.278-.189-.728-.206-1.279-.458l-2.037-.856-1.414-.571c-1.401-.643-2.192-.95-2.446-.95-.162 0-.294-.085-.294-.189s-.128-.189-.283-.189-.283-.085-.283-.189c0-.113.627-.178 1.559-.161 1.279.023 1.407.05.709.148-.493.069.936.169 3.402.237 5.04.14 8.05.619 10.772 1.714 1.458.586 4.214 2.299 4.952 3.077.239.252.516.46.616.462.594.011 5.583 6.072 5.583 6.783 0 .18.101.427.224.55s.174.273.114.334-.246-.085-.413-.322z" paint-order="stroke fill markers"/><path d="M112.341 115.945c-.39-.911-1.863-2.639-3.707-4.347s-2.404-2.173-2.614-2.173c-.105 0-.191-.067-.191-.15 0-.136-1.312-.95-3.024-1.876-.917-.496-3.645-1.496-5.008-1.836-5.309-1.324-11.164-.601-16.253 2.008-1.033.53-3.077 1.789-3.307 2.037-.052.056-.435.349-.85.651s-1.406 1.214-2.201 2.026c-1.224 1.251-1.481 1.434-1.677 1.198a.83.83 0 0 0-.548-.279c-.174 0-.405-.088-.513-.196-.135-.135-.356-.135-.712 0-.797.303-1.058.242-1.058-.248 0-.244-.168-.637-.372-.873s-.427-.611-.495-.832a2.39 2.39 0 0 0-.414-.735c-.16-.183-.24-.383-.178-.446.159-.159-1.054-3.449-1.677-4.551l-.722-1.286c-1.179-2.14-3.992-5.225-6.369-6.989-1.889-1.401-3.595-2.258-5.802-2.913-3.169-.941-4.364-1.062-10.103-1.022-2.887.02-5.209-.029-5.159-.109s.434-.301.855-.49.765-.41.765-.49c0-.162 1.121-.466 1.417-.385.104.028.126-.011.05-.087s.082-.254.352-.394c.599-.311.699-.318.527-.041-.081.131-.03.177.131.118.144-.052.242-.19.216-.305s.187-.259.472-.32.713-.19.95-.286c1.743-.706 6.196-1.1 8.571-.759 2.298.33 4.016.794 3.716 1.003-.165.115-.112.134.161.057.424-.119 2.96.785 2.824 1.006-.041.067.11.133.337.147.464.028 1.903.938 1.679 1.062-.079.044-.042.056.083.026.381-.091 1.264.444 2.05 1.241.411.417.839.76.951.761.316.005 1.046.863.885 1.04-.079.087-.047.103.071.036s.605.325 1.109.903c1.047 1.2 2.247 2.936 2.036 2.944-.081.003.003.092.184.198a.71.71 0 0 1 .331.541c0 .192.128.397.283.457a.46.46 0 0 1 .284.389c0 .154.149.367.331.473.204.119.236.195.083.198-.136.003-.197.087-.136.186s.246.129.411.066c.236-.09.272-.029.171.29-.079.248-.014.568.167.827.163.232.296.616.296.852 0 .697.262.501.881-.656l.936-1.746c.196-.363.547-.848.781-1.078s.425-.491.425-.581.255-.407.567-.706.567-.64.567-.759c0-.228 2.138-2.36 2.367-2.36.074 0 .413-.234.753-.52 1.052-.883 1.484-1.181 1.714-1.181.122 0 .328-.128.457-.283a.87.87 0 0 1 .581-.283c.19 0 .413-.106.497-.236.191-.298.982-.606 3.364-1.31 1.629-.481 2.269-.568 4.63-.625 1.949-.048 2.304-.029 1.228.066-.832.073-1.621.201-1.755.284s-.792.229-1.464.324-1.539.343-1.928.552-.978.379-1.308.379-.63.064-.664.142-.658.452-1.386.83c-2.189 1.139-2.579 1.371-3.096 1.838a78.19 78.19 0 0 1-1.534 1.323c-.572.482-1.118 1.003-1.215 1.159s-.415.509-.709.785-.533.587-.533.693-.069.22-.154.255c-.264.108-1.925 2.598-1.925 2.886 0 .15-.085.326-.189.39-.239.148-.844 1.477-1.101 2.418-.136.5-.135.893.006 1.296.12.343.132.628.029.7-.095.067-.191.83-.215 1.696-.052 1.945.158 1.959 1.106.075.614-1.22 1.071-1.842 2.6-3.54.459-.51 2.102-1.992 2.583-2.33 1.108-.779 3.137-1.888 4.63-2.53 1.652-.711 5.755-1.688 6.011-1.432.094.094.637.091 1.258-.007 1.546-.242 5.717.077 7.264.556 2.363.732 4.026 1.366 4.3 1.64.151.151.323.225.382.166.103-.103 2.13 1.098 2.331 1.38.052.073.233.211.403.306.761.427 1.849 1.465 1.738 1.66-.067.118-.053.151.031.075.172-.156 1.041.704 1.041 1.03 0 .116.056.155.123.087.177-.177 1.021 1.024.88 1.252-.065.104-.04.143.053.086s.281.015.415.16.177.265.094.267-.054.065.061.142.568.904 1.005 1.84l.971 2.029c.097.18.176.484.176.675s.134.741.299 1.224c.317.93.297 1.924-.024 1.175zm-.944-3.483c.06-.097.022-.229-.083-.295s-.192.014-.192.176c0 .332.113.381.275.119zM92.36 100.428c-.063-.063-.226-.07-.362-.015-.151.06-.106.105.114.114.199.008.311-.037.248-.099zm-28.675-6.773c0-.046-.085-.136-.189-.2s-.189-.027-.189.083.085.2.189.2.189-.037.189-.083z" paint-order="stroke fill markers"/><path d="M75.78 111.35c0-.127.075-.378.167-.558s.368-.796.612-1.368l.545-1.134c.055-.052.194-.309.309-.572s.623-1.055 1.13-1.762l1.108-1.649c.103-.2.251-.364.331-.364s.144-.081.144-.18c0-.265 2.403-2.575 3.496-3.362l1.134-.892c.496-.557 3.908-2.296 5.67-2.891 3.425-1.156 5.258-1.423 8.959-1.307l3.676.233c.35.088.589.055.681-.094.179-.29 1.426-.079 1.811.306.15.15.358.22.463.155s.19-.042.19.051-.446.262-.992.377l-3.922 1.027-2.268.727-2.74.951-1.323.573c-.312.136-.652.253-.756.259s-.754.328-1.446.715a10.67 10.67 0 0 1-2.646.995c-4.413.928-7.802 2.657-10.717 5.47-.973.938-2.184 2.34-2.693 3.114s-.925 1.305-.925 1.179zm16.58-10.922c-.063-.063-.226-.07-.362-.015-.151.06-.106.105.114.114.199.008.311-.037.248-.099zm12.662-4.725c-.063-.063-.226-.07-.362-.015-.151.06-.106.105.114.114.199.008.311-.037.248-.099z" paint-order="stroke fill markers"/><path d="M75.528 109.109c-.069-.069-.126-.491-.126-.937 0-.604.241-1.277.938-2.627 2.087-4.038 5.134-7.227 8.746-9.155 1.013-.54 1.89-1.06 1.948-1.155s.292-.173.517-.173 1.05-.204 1.831-.454c1.771-.566 3.855-1.011 5.579-1.191l1.323-.138-.945-.124c-.52-.068-2.051-.056-3.402.027-2.03.125-2.822.268-4.559.826-1.156.371-2.208.802-2.338.959s-.385.284-.568.284-.438.128-.567.283-.341.283-.469.283c-.395 0-2.368 1.534-3.773 2.934-1.706 1.699-2.968 3.347-4.06 5.301l-.868 1.554-.319-.747c-.175-.411-.272-.869-.215-1.019s-.031-.324-.198-.388c-.263-.101-.241-.217.171-.899.26-.431.564-.76.674-.731s.148-.034.084-.138c-.141-.228.232-.988.589-1.199.141-.083.256-.232.256-.331 0-.442 3.784-4.232 5.309-5.317 1.406-1.001 5.357-3.029 6.024-3.093.055-.005.572-.151 1.147-.324s1.809-.405 2.74-.515l1.977-.24c.156-.022 1.249.073 2.429.212 2.216.26 4.084.805 5.887 1.716 1.229.621 3.712 2.205 3.878 2.475.138.224-.953.139-2.744-.213-.726-.143-2.657-.242-4.725-.242-2.98-.001-3.748.061-5.197.419-3.763.93-6.172 2.028-9.096 4.147-2.719 1.971-5.342 5.145-6.944 8.403-.447.909-.869 1.597-.938 1.528z" paint-order="stroke fill markers"/><path d="M109.987 115.555c-1.091-.559-2.133-1.019-2.315-1.022s-.331-.081-.331-.173c0-.169-.615-.43-1.134-.48-.156-.015-.613-.173-1.015-.352s-.874-.324-1.049-.324a.83.83 0 0 1-.497-.171c-.198-.189-3.865-1.167-4.621-1.232-.156-.013-.678-.094-1.16-.179-.58-.102-1.013-.082-1.28.062-.319.171-.462.158-.681-.061-.152-.152-.554-.334-.893-.404s-1.084-.279-1.656-.465c-2-.652-2.863-.762-5.909-.755-3.147.007-4.838.238-5.941.812-.333.173-.848.315-1.145.315s-.705.125-.907.277-.503.28-.669.283-.634.245-1.039.537c-.795.572-1.4.873-1.649.817-.086-.019-.096.062-.023.18s.016.287-.126.375c-.206.127-.211.208-.024.395.338.338.289.537-.132.537-.282 0-.358.119-.331.52.023.336-.058.52-.229.52-.376 0-.472-.888-.118-1.086.307-.172.4-.709.122-.709-.091 0-.272.128-.401.283-.339.408-.675.349-.675-.12 0-.238.389-.775.95-1.309.999-.953 1.436-1.106.655-.23-.339.38-.359.441-.079.235.208-.153.463-.368.567-.479 1.503-1.604 5.586-4.021 8.599-5.091 2.001-.711 2.962-.872 5.811-.976 1.377-.05 2.504-.17 2.504-.266s.128-.174.283-.174.283.073.283.162.775.22 1.723.292 2.074.253 2.504.402.895.274 1.033.275c.526.006 5.701 2.397 5.701 2.634 0 .087.255.263.567.392s.567.288.567.354c0 .209 1.655 1.172 1.919 1.117.14-.029.232.056.205.189-.051.249.206.546 1.177 1.364.309.26.445.322.304.137s-.217-.375-.169-.424c.199-.199 3.178 3.52 3.178 3.968 0 .232-.591.003-2.457-.953zm-34.939-2.303c.235-.3.228-.306-.071-.071-.182.143-.331.291-.331.331 0 .156.155.055.402-.259zm35.924 13.163c-.334-.312-.607-.663-.607-.779s-.049-.162-.108-.103-.634-.288-1.278-.772l-1.64-1.216c-.45-.322-.452-.331-.045-.224.234.062.424.043.423-.042-.003-.17-2.923-2.064-3.879-2.517-.329-.156-.718-.38-.863-.498-.226-.184-1.74-.85-4.327-1.904l-1.039-.43c-.208-.088-.548-.204-.756-.258l-1.417-.398c-2.453-.709-4.78-1.051-8.455-1.242-2.65-.138-3.938-.138-4.193-.002-.202.108-.819.203-1.372.21-1.523.02-2.035.329-.627.378l1.134.04-1.199.192c-.943.151-1.232.139-1.351-.054-.095-.153-.283-.192-.501-.103-.334.136-.333.149.025.282.301.112.227.165-.378.271-.414.072-.989.225-1.279.338-.659.259-.836.096-.526-.483.132-.247.187-.62.121-.828-.076-.24-.023-.415.146-.48.21-.081.254.082.207.772-.035.52.005.771.098.619.087-.14.293-.202.46-.138.236.09.303-.008.303-.445 0-.362.096-.561.272-.561.375 0 .556-.346.327-.623-.129-.156-.11-.337.059-.569.254-.347 2.281-1.643 2.571-1.643.088 0 .439-.119.78-.264s1.386-.506 2.322-.803c1.635-.519 1.847-.54 5.481-.54 3.733 0 3.807.008 5.953.635l2.409.825c.129.105.448.149.709.1s.474-.027.474.05.459.365 1.02.639c2.882 1.41 6.782 4.789 8.53 7.389 1.329 1.977 2.948 5.424 2.675 5.697-.027.027-.322-.206-.656-.519zm-1.741-1.955c0-.046-.085-.136-.189-.2s-.189-.027-.189.083.085.2.189.2.189-.037.189-.083z" paint-order="stroke fill markers"/><path d="M110.176 126.894c-.364-.138-.815-.255-1.003-.261s-.297-.083-.242-.172-.131-.164-.414-.168c-.507-.006-4.882-1.092-5.617-1.394-.208-.086-1.228-.374-2.268-.641l-4.063-1.055-3.024-.734c-.966-.187-2.413-.552-2.835-.715-.156-.06-1.049-.258-1.984-.44l-2.551-.557-1.087-.236c-.13-.005-.236-.081-.236-.167s-.286-.157-.636-.157-2.072-.255-3.827-.566l-3.806-.67c-.71-.121-.764-.315-.236-.843.208-.208.378-.34.378-.293s.404-.038.898-.189c2.149-.656 4.574-.892 8.079-.785l4.347.297c5.472 1.118 6.02 1.264 9.084 2.416 2.042.768 7.37 3.431 7.978 3.987.142.13.826.639 1.52 1.131 1.42 1.006 2.679 2.11 2.679 2.348 0 .208-.325.169-1.134-.137zm-16.493-5.299c-.063-.063-.226-.07-.362-.015-.151.06-.106.105.114.114.199.008.311-.037.248-.099zm45.528-31.535c-1.377-.225-2.914-.572-2.982-.673-.038-.058-.163-.105-.277-.105-.202 0-1.722-.64-1.844-.776-.033-.037-.276-.169-.54-.293-.956-.449-3.118-2.328-3.818-3.318-.796-1.126-1.655-2.701-1.78-3.262-.048-.217-.121-.444-.162-.506-.659-.994-.671-5.561-.019-7.086a13.49 13.49 0 0 0 .28-.787c.18-.552 1.125-2.209 1.604-2.815.948-1.199 2.47-2.554 3.667-3.266.905-.538 2.283-1.173 2.549-1.173.092 0 .262-.048.378-.106.252-.127 1.172-.382 2.094-.581.882-.19 3.218-.191 4.435-.002 4.849.754 9.106 4.092 10.562 8.281.627 1.804.692 2.245.644 4.33-.046 1.991-.091 2.247-.662 3.768-.711 1.895-1.582 3.166-3.193 4.663-1.278 1.187-1.643 1.463-2.653 2.003-.669.357-.831.432-1.721.788l-.608.247c-.179.075-1.283.322-2.491.556-.912.177-2.708.235-3.463.112z" paint-order="stroke fill markers"/><path d="M144.203 100.834c-.005-.106-.087-.359-.182-.562l-.365-.78c-.106-.226-.192-.466-.192-.534s-.055-.124-.121-.124-.121-.098-.121-.217-.082-.293-.182-.386-.182-.25-.182-.349c0-.169-.325-.722-.497-.848-.043-.031-.112-.157-.154-.281s-.242-.402-.444-.619-.488-.555-.636-.753-.473-.476-.723-.619-.456-.297-.458-.344-.079-.084-.171-.084-.235-.076-.319-.169c-.112-.125-.411-.169-1.154-.169s-1.042.044-1.154.169c-.083.093-.228.169-.323.169-.178 0-.655.258-1.074.581l-.751.575c-.653.499-1.762 1.694-2.631 2.837l-.795 1.023c-.061.068-.141.22-.177.337-.131.427.017-1.038.157-1.553.199-.731.128-5.194-.086-5.392-.083-.077-.152-.251-.152-.385s-.082-.308-.182-.385-.183-.197-.183-.267c-.001-.175-.747-.911-1.103-1.089-.421-.209-1.179-.361-1.812-.362-.731-.001-2.089.199-2.404.355-.139.069-.39.125-.558.125s-.338.051-.38.112-.159.112-.262.112-.387.08-.631.177l-.808.322-2.035.874c-.314.143-.259-.039.133-.436.567-.575 1.234-1.349 1.234-1.432 0-.043.137-.214.304-.381s.304-.35.304-.408.078-.185.173-.282c.362-.371 1.406-2.407 1.41-2.748.002-.195.084-.452.182-.572.23-.282.229-.96-.003-1.372-.1-.177-.182-.414-.182-.525-.001-.396-1.829-1.765-2.356-1.765-.05 0-.174-.076-.274-.169s-.333-.169-.518-.169-.373-.035-.419-.077c-.178-.165-1.755-.472-2.454-.479-.404-.003-.791-.058-.86-.122s-.64-.158-1.27-.209-.994-.101-.809-.11.431-.061.547-.116.457-.187.758-.293l.729-.293c.1-.056.264-.132.365-.168.636-.233 1.786-.788 2.317-1.118.343-.213.66-.388.706-.388.152 0 1.597-1.292 1.595-1.426-.001-.073.076-.204.169-.29.215-.199.559-1.124.559-1.504 0-.159-.088-.473-.195-.699l-.662-1.254c-.037-.031-.184-.233-.326-.45-.343-.521-2.014-1.979-3.126-2.728l-1.714-1.096c-.038 0-.161-.085-.273-.189-.191-.177-.185-.183.1-.102.167.048.632.135 1.033.193l1.519.224c.906.136 3.523.075 4.463-.103 1.222-.232 2.704-1.179 2.706-1.728 0-.103.065-.207.143-.232.192-.059.184-2.866-.008-3.044-.074-.069-.135-.311-.135-.539s-.081-.476-.182-.554-.182-.27-.182-.428-.109-.507-.243-.774l-.498-1.02-.547-1.079c-.406-.759-.367-.823.204-.332.273.234.639.502.814.595s.43.274.567.402.441.331.675.45.459.259.5.311c.157.198 2.337 1.22 3.145 1.474.729.229 2.088.226 2.588-.005.616-.285 1.699-1.413 1.947-2.027l.333-.741c.154-.267.362-1.038.479-1.775a10.78 10.78 0 0 1 .228-1.068c.072-.247.132-.754.135-1.125.005-.841.122-1.518.26-1.518.058 0 .106.074.106.165s.077.331.172.534l.365.78c.106.226.192.466.192.534s.055.124.121.124.122.082.122.183c0 .174.709 1.5.865 1.617.041.031.113.17.16.309s.136.253.199.253.113.05.113.112.123.249.273.416c1.374 1.53 2.092 1.947 3.356 1.947.595 0 .88-.049.988-.169.083-.093.281-.169.44-.169s.289-.051.289-.112.08-.112.178-.112.346-.152.551-.337.405-.337.444-.337c.116 0 1.743-1.51 1.743-1.618 0-.055.123-.207.274-.339.297-.26.942-1.029.942-1.123 0-.032.123-.181.273-.331a4.16 4.16 0 0 0 .545-.765l.272-.492.002.512c.001.281-.067.575-.15.652-.218.202-.218 5.792 0 5.995a.61.61 0 0 1 .152.393c0 .139.053.282.118.32s.204.236.31.442c.398.776 1.694 1.358 2.974 1.335.68-.012 1.904-.193 2.309-.342l.972-.304c.887-.255 1.372-.439 2.804-1.063l.885-.348c.139 0-.114.358-.637.9-.268.278-.559.633-.646.787s-.281.407-.432.561-.273.322-.273.373-.123.254-.274.451c-.555.726-1.063 1.637-1.063 1.908 0 .086-.041.194-.091.24-.161.149-.428 1.231-.432 1.753-.008.971.612 1.905 1.686 2.54.356.211.737.384.845.384s.279.076.379.169.333.169.518.169.376.037.425.083c.212.196 2.002.485 4.233.683.964.085 1.597.246.97.246-.141 0-.29.051-.331.112s-.202.112-.357.112a.66.66 0 0 0-.433.169c-.083.093-.251.169-.373.169s-.479.127-.793.281-.638.281-.721.281-.217.076-.301.169-.254.169-.379.169-.228.039-.228.087-.205.186-.456.308l-.516.279c-.033.032-.294.204-.578.382-1.53.961-2.447 2.709-1.927 3.674.108.201.197.429.197.507 0 .188.4.834.516.835.05 0 .091.084.091.186 0 .187 2.479 2.514 2.679 2.514.059 0 .267.139.461.309s.74.537 1.212.815c.86.507 1.111.768.599.624-1.037-.293-5.573-.457-6.713-.243-.736.138-1.935.714-2.325 1.117-.427.44-.614.918-.709 1.811-.099.926.235 2.974.53 3.247.075.069.136.243.136.386a1.11 1.11 0 0 0 .109.456c.06.107.202.423.316.701s.257.582.317.675a2.52 2.52 0 0 1 .18.337c.038.093.202.418.362.723s.272.573.247.596-.254-.134-.508-.35-.602-.459-.772-.54-.419-.249-.554-.373c-.261-.24-1.362-.956-1.471-.956-.036 0-.245-.127-.464-.281s-.482-.281-.585-.281-.254-.076-.338-.169-.254-.169-.379-.169-.228-.046-.228-.103-.219-.137-.486-.179-.486-.122-.486-.179-.519-.103-1.154-.103-1.154.045-1.154.1-.131.131-.291.168c-.439.102-1.326.998-1.71 1.727l-.438.831c-.053.101-.135.379-.181.619s-.125.486-.174.548-.123.431-.165.821-.131.804-.199.921-.125.633-.128 1.148c-.003.544-.075 1.077-.172 1.273-.105.213-.171.266-.177.144zm-2.561-10.323c3.639-.337 6.638-1.671 8.977-3.994 1.584-1.573 2.448-2.908 3.167-4.891.491-1.356.655-2.678.577-4.668-.066-1.699-.323-2.749-1.065-4.363-1.664-3.619-5.497-6.511-9.797-7.391-1.526-.312-4.427-.313-5.728-.001-2.465.591-4.05 1.299-5.731 2.56-2.711 2.033-4.624 5.092-4.977 7.958-.158 1.283-.158 3.145.001 4.16.242 1.549 1.156 3.598 2.345 5.254.432.602 2.187 2.275 3.022 2.881 1.406 1.021 3.473 1.867 5.522 2.26 1.917.368 2.113.38 3.685.235z" paint-order="stroke fill markers"/></g></svg>