<svg xmlns="http://www.w3.org/2000/svg" version="1.1" viewBox="0 0 13.229 13.229"><g fill-opacity="1" fill-rule="nonzero" stroke="none" stroke-dasharray="none" stroke-miterlimit="4" stroke-opacity="1" paint-order="normal"><path d="M12.388 7.841c0-1.712-1.441-3.1-3.088-3.1-1.648 0-2.018.765-2.993.863-.975.098-1.892-.244-2.993-.244s-2.47.923-2.47 2.481c0 1.56 1.246 2.33 2.47 2.482 1.223.152 1.995.309 2.993.412.997.104 1.165.208 2.993.208 1.827 0 3.088-1.389 3.088-3.102z" fill="#fff" opacity="1"/><path d="M3.38 290.964a.966.966 0 0 0-.875 1.213.966.966 0 1 0 .876-1.213zm.013.198a.757.757 0 0 1 .336.06l-.114.196a.535.535 0 0 0-.586.158l-.197-.114a.76.76 0 0 1 .56-.3zm.509.16a.761.761 0 0 1 .24.896l-.197-.113a.534.534 0 0 0-.157-.587zm-.484.265a.337.337 0 0 1 .346.252.34.34 0 1 1-.655.176.34.34 0 0 1 .309-.428zm-.686.048.198.114a.535.535 0 0 0 .157.586l-.114.197a.76.76 0 0 1-.24-.897zm1.114.643.196.113a.756.756 0 0 1-.896.24l.113-.197a.535.535 0 0 0 .587-.156zm1.964-1.028c-.216.001-.356.137-.466.232-.11.095-.19.16-.332.16-.218-.019-.218.319 0 .3.243 0 .41-.13.527-.231.117-.1.184-.162.274-.162.09 0 .15.058.267.158.117.1.287.23.537.23.25 0 .417-.131.531-.23.114-.099.175-.158.297-.158.123 0 .206.063.317.156.11.093.245.229.455.229.2 0 .2-.301 0-.301-.074 0-.146-.058-.262-.156-.116-.099-.278-.227-.51-.227-.232 0-.384.135-.494.23-.11.095-.18.157-.334.157-.154 0-.231-.065-.34-.158-.108-.094-.25-.23-.466-.229zm-2.644-1.3c-.217 0-.358.139-.469.234-.11.095-.188.158-.33.158-.2 0-.2.3 0 .3.243 0 .409-.131.526-.232.116-.1.185-.16.275-.16.09 0 .151.056.268.156.116.1.286.23.537.23.25 0 .415-.131.529-.23.114-.098.174-.156.297-.156s.206.063.316.156c.11.094.246.229.455.229.2 0 .2-.301 0-.301-.074 0-.145-.058-.261-.156-.117-.099-.279-.229-.51-.229-.232 0-.383.136-.492.23-.11.096-.18.159-.334.159-.154 0-.234-.065-.342-.158-.109-.094-.248-.232-.465-.23zm5.291 2.599c-.217 0-.356.14-.467.234-.11.095-.19.158-.332.158-.2 0-.2.301 0 .301.243 0 .41-.132.528-.232.116-.1.183-.16.273-.16.09-.001.151.055.268.156.116.1.286.23.537.23.25 0 .417-.132.53-.23.115-.099.175-.156.298-.156s.204.062.314.156c.11.093.248.226.457.226.218.02.218-.318 0-.298-.074 0-.147-.058-.263-.157-.117-.098-.277-.228-.508-.228-.232 0-.384.135-.494.23-.11.095-.18.157-.334.157-.154 0-.233-.063-.342-.157-.109-.093-.248-.232-.465-.23z" fill="#000" baseline-shift="baseline" clip-rule="nonzero" color="#000" color-interpolation="sRGB" color-interpolation-filters="linearRGB" color-rendering="auto" direction="ltr" display="inline" dominant-baseline="auto" font-family="sans-serif" font-size="medium" font-stretch="normal" font-style="normal" font-variant="normal" font-weight="400" image-rendering="auto" letter-spacing="normal" opacity="1" overflow="visible" shape-rendering="auto" style="line-height:normal;font-variant-ligatures:normal;font-variant-position:normal;font-variant-caps:normal;font-variant-numeric:normal;font-variant-alternates:normal;font-feature-settings:normal;text-indent:0;text-align:start;text-decoration-line:none;text-decoration-style:solid;text-decoration-color:#000;text-transform:none;text-orientation:mixed;white-space:normal;shape-padding:0;isolation:auto;mix-blend-mode:normal;solid-color:#000;solid-opacity:1" text-anchor="start" text-decoration="none" text-rendering="auto" transform="translate(0 -283.77)" vector-effect="none" visibility="visible" word-spacing="normal" writing-mode="lr-tb"/><path d="M8.722 286.298a.941.941 0 0 0-.937.94v.938a4.91 4.91 0 0 0-.365.16c-.44.213-.73.398-1.144.44-.888.088-1.8-.247-2.964-.247-.634 0-1.312.258-1.847.732a2.708 2.708 0 0 0-.922 2.05c0 .859.357 1.538.879 1.994.521.456 1.192.702 1.853.785 1.214.15 1.988.309 3 .414.981.101 1.185.209 3.024.209 1.98 0 3.389-1.543 3.389-3.403 0-1.428-.908-2.646-2.14-3.15v-.924a.536.536 0 1 1 1.075.002c0 .267.4.267.4 0a.941.941 0 0 0-.937-.94.943.943 0 0 0-.94.94c.002.263.001.526.001.788a3.267 3.267 0 0 0-.848-.116c-.441 0-.805.055-1.113.137v-.81a.538.538 0 1 1 1.076.001c0 .267.4.267.4 0a.943.943 0 0 0-.94-.94zm.577 2.212c.292 0 .578.05.848.142v.059H8.186v-.038a3.461 3.461 0 0 1 1.113-.163zm1.25.313c.893.466 1.537 1.405 1.537 2.487 0 1.566-1.112 2.803-2.787 2.803-1.817 0-1.948-.102-2.963-.207-.982-.102-1.753-.259-2.986-.412-.563-.07-1.126-.284-1.534-.64-.407-.357-.673-.844-.673-1.544 0-.691.296-1.223.72-1.6.425-.376.983-.58 1.45-.58 1.038 0 1.96.35 3.023.243.561-.056.944-.303 1.346-.498.033-.016.07-.03.104-.047l.001 1.86c-.026.29.425.29.399 0v-.292h1.963v.291c0 .267.4.267.4 0zm-2.363.288h1.962v.242H8.186Zm0 .642h1.962v.243H8.186Z" fill="#000" baseline-shift="baseline" clip-rule="nonzero" color="#000" color-interpolation="sRGB" color-interpolation-filters="linearRGB" color-rendering="auto" direction="ltr" display="inline" dominant-baseline="auto" font-family="sans-serif" font-size="medium" font-stretch="normal" font-style="normal" font-variant="normal" font-weight="400" image-rendering="auto" letter-spacing="normal" opacity="1" overflow="visible" shape-rendering="auto" style="line-height:normal;font-variant-ligatures:normal;font-variant-position:normal;font-variant-caps:normal;font-variant-numeric:normal;font-variant-alternates:normal;font-feature-settings:normal;text-indent:0;text-align:start;text-decoration-line:none;text-decoration-style:solid;text-decoration-color:#000;text-transform:none;text-orientation:mixed;white-space:normal;shape-padding:0;isolation:auto;mix-blend-mode:normal;solid-color:#000;solid-opacity:1" text-anchor="start" text-decoration="none" text-rendering="auto" transform="translate(0 -283.77)" vector-effect="none" visibility="visible" word-spacing="normal" writing-mode="lr-tb"/></g></svg>