<svg xmlns="http://www.w3.org/2000/svg" width="500" height="500" fill="none" xmlns:v="https://vecta.io/nano"><g fill="#fff" stroke="#000" stroke-width="10"><rect x="86" y="195" width="218" height="217" rx="26"/><rect x="195.141" y="87" width="218" height="217" rx="26"/></g><path d="M322.315 210.822l-13.937-15.92m0 0l-13.938-15.92c-7.813-5.761-16.872-.288-12.196 10.678l32.901 37.581-18.742-6.643c-12.845.796-12.893 11.288-6.124 15.504l46.648 16.019c11.066.101 19.349-4.664 38.653-23.697 6.568-7.566 6.1-13.568-.184-26.577-2.123-5.022-10.559-13.156-24.981-28.534-6.291-1.561-11.343 2.862-10.628 9.305m-31.409 12.284c-1.814-8.4 3.674-14.435 11.847-10.372l4.037 4.611m9.901 11.309l-9.901-11.309m0 0c-2.718-8.378 4.556-14.131 12.022-10.525l3.503 4.002m8.682 9.917l-8.682-9.917" stroke="#000" stroke-width="10"/></svg>