<svg xmlns="http://www.w3.org/2000/svg" width="500" height="500" fill="none" xmlns:v="https://vecta.io/nano"><g fill="#fff" stroke="#000" stroke-width="10"><circle cx="247.585" cy="211.754" r="82.5"/><path d="M366.085 416.254h-236c6.685-56.99 11.491-83.996 57.81-120 44.807 30.609 86.44 30.29 131.262 0 42.167 44.494 46.928 70.786 46.928 120z"/></g><g fill="#000"><use href="#B"/><use href="#C"/><use href="#D"/></g><g stroke="#000" stroke-width="5"><use href="#B"/><use href="#C"/><use href="#D"/></g><use href="#E" fill="#fff"/><g stroke="#000"><g stroke-width="10"><use href="#E"/><use href="#E" stroke-opacity=".2"/></g><path d="M232.388 328.298c-4.254-9.258-5.694-14.916-6.914-25.64 19.551-5.636 30.124-4.054 48.976 0-1.18 10.166-2.421 15.802-6.338 25.64h-35.724zM220 436.909l12.964-108.035h34.283l12.965 108.035-30.25 36.588L220 436.909z" fill="#fff" stroke-width="5"/><path d="M266.959 329.25l-36.876 20.743m40.622 3.457l-43.215 26.216m45.807 0l-49.84 28.234m53.586 0l-56.179 28.233m59.924 0l-44.655 20.455" stroke-width="5"/></g><defs ><path id="B" d="M235.136 189H174v14.027h6.082s-.138 9.265 1.92 14.664c2.228 5.845 3.264 11.295 9.283 13.071 17.284 5.1 43.851 0 43.851 0s-.274-18.015 8.002-21.678c4.683-2.073 8.418-2.023 13.124 0 8.396 3.609 8.642 21.678 8.642 21.678s19.216 4.539 30.088 2.869c8.332-1.28 13.873-1.855 18.885-8.607 5.441-7.333 5.441-20.403 5.441-20.403H327V189h-62.096s-5.149 2.199-8.642 2.869c-5.033.965-8.112 1.064-13.124 0-3.248-.69-8.002-2.869-8.002-2.869z"/><path id="C" d="M234.176 198.791c-18.505-4.749-28.904-5.33-47.518-1.714-2.007 10.58-1.916 16.384 3.767 23.994 7.713 10.328 30.169 6.909 37.349 4.59s6.402-26.87 6.402-26.87z"/><path id="D" d="M266.848 198.764c17.989-4.717 28.098-5.294 46.192-1.703 1.952 10.509 1.863 16.273-3.661 23.831-7.499 10.259-29.328 6.862-36.308 4.559s-6.223-26.687-6.223-26.687z"/><path id="E" d="M156.606 171.216c-14.276 32.114 2.856 86.583 5.915 86.364s7.138-16.272 10.197-14.755c11.148 5.526-5.302 37.773 0 41.011s32.835-39.059 35.282-54.917 7.75-75.275 31-74.192 26.716 14.324 30.795 14.755 5.506-11.72 17.743-4.774c37.322 18.225 21.007 101.12 27.125 104.155s34.67-42.747 29.776-80.503-20.803-74.213-93.203-73.345-80.354 24.086-94.63 56.201z"/></defs></svg>