<svg xmlns="http://www.w3.org/2000/svg" width="500" height="500" fill="none" xmlns:v="https://vecta.io/nano"><g clip-path="url(#A)" fill="#fff" stroke="#000" stroke-width="10"><path d="M489.919 314.757c-89.941-93.5-165.921-96.915-276.571-107.627l-48.88 63.095c113.602 32.513 194.3 50.444 262.914 156.035-.005-35.17-13.031-52.068-11.087-61.906s28.039 9.244 57.017 15.811c-9.687-35.865-29.624-46.772-38.003-62.339 8.811-8.498 34.378-4.593 54.61-3.069z"/><path d="M253.845 118.24c2.412-1.676 5.547.752 4.526 3.506l-30.816 83.122a3 3 0 0 0 .976 3.414l68.079 52.741c2.277 1.764 1 5.412-1.88 5.371l-87.393-1.243a3 3 0 0 0-2.856 1.957l-30.922 83.409c-1.013 2.734-4.938 2.561-5.707-.252l-22.909-83.833a3 3 0 0 0-2.852-2.209l-86.898-1.235c-2.916-.042-4.064-3.798-1.67-5.463l73.037-50.783a3 3 0 0 0 1.181-3.254l-23.04-84.31c-.76-2.779 2.453-4.926 4.731-3.162l68.078 52.741a3 3 0 0 0 3.55.091l72.785-50.608z"/></g><defs><clipPath id="A"><path fill="#fff" d="M0 0h500v500H0z"/></clipPath></defs></svg>