<?xml version="1.0" encoding="UTF-8" standalone="no"?>
<!-- Created with Inkscape (http://www.inkscape.org/) -->

<svg
   xmlns:dc="http://purl.org/dc/elements/1.1/"
   xmlns:cc="http://creativecommons.org/ns#"
   xmlns:rdf="http://www.w3.org/1999/02/22-rdf-syntax-ns#"
   xmlns:svg="http://www.w3.org/2000/svg"
   xmlns="http://www.w3.org/2000/svg"
   xmlns:sodipodi="http://sodipodi.sourceforge.net/DTD/sodipodi-0.dtd"
   xmlns:inkscape="http://www.inkscape.org/namespaces/inkscape"
   width="210mm"
   height="297mm"
   viewBox="0 0 210 297"
   version="1.1"
   id="svg2954"
   inkscape:version="0.92.3 (2405546, 2018-03-11)"
   sodipodi:docname="carton.svg">
  <defs
     id="defs2948" />
  <sodipodi:namedview
     id="base"
     pagecolor="#ffffff"
     bordercolor="#666666"
     borderopacity="1.0"
     inkscape:pageopacity="0.0"
     inkscape:pageshadow="2"
     inkscape:zoom="0.35"
     inkscape:cx="-1051.1388"
     inkscape:cy="279.98744"
     inkscape:document-units="mm"
     inkscape:current-layer="g2068"
     showgrid="false"
     inkscape:window-width="1920"
     inkscape:window-height="1017"
     inkscape:window-x="-8"
     inkscape:window-y="-8"
     inkscape:window-maximized="1" />
  <metadata
     id="metadata2951">
    <rdf:RDF>
      <cc:Work
         rdf:about="">
        <dc:format>image/svg+xml</dc:format>
        <dc:type
           rdf:resource="http://purl.org/dc/dcmitype/StillImage" />
        <dc:title></dc:title>
      </cc:Work>
    </rdf:RDF>
  </metadata>
  <g
     inkscape:label="Capa 1"
     inkscape:groupmode="layer"
     id="layer1">
    <g
       style="fill:#000000;stroke:none"
       id="g2068"
       transform="matrix(0.19019096,0,0,-0.19019096,-1849.1036,555.96523)">
      <path
         sodipodi:nodetypes="ccccsccc"
         inkscape:connector-curvature="0"
         id="path2633"
         d="m 10418.465,1759.5 c -3.263,0.8525 -7.473,2.9334 -8.445,4.008 -1.14,1.2587 0.08,2.4486 2.66,3.2097 3.117,0.9174 15.325,1.6474 19.046,0.9455 3.074,-0.5799 5.912,-2.2947 5.912,-3.405 0,-0.8964 -2.358,-3.4009 -4.405,-4.2745 -2.429,-1.0372 -10.725,-1.5033 -13.944,-0.6629 z"
         style="opacity:1;fill:#f2cc7b;fill-opacity:1;stroke:none;stroke-width:0.35046411;stroke-linejoin:round;stroke-miterlimit:4;stroke-dasharray:none;stroke-opacity:1;paint-order:normal" />
      <path
         sodipodi:nodetypes="cccsscscsscccscc"
         inkscape:connector-curvature="0"
         id="path2623"
         d="m 10383.549,1779.0835 c -4.071,14.6754 -1.724,38.8898 1.994,166.2669 6.24,213.9197 6.441,235.9994 22.595,253.88 12.046,13.333 42.448,27.7344 60.768,29.2536 23.942,1.9856 29.345,-4.0521 22.424,-56.4328 -4.831,-36.5676 -11.735,-150.4585 -11.85,-242.2969 -0.101,-77.4992 -3.604,-128.7581 -8.809,-139.3351 -4.248,-8.6355 -15.299,-11.46 -21.291,-7.0787 -6.848,5.0081 -12.43,34.9386 -12.009,147.1219 0.278,74.2729 -3.949,106.4005 -3.949,106.4005 -3.02,2.2853 -4.662,-0.019 -8.754,-20.9732 -2.329,-11.9335 -5.89,-49.0309 -6.132,-120.0747 3.695,-64.5492 1.485,-108.6183 -0.726,-113.1244 -3.188,-7.7154 -21.047,-20.1417 -26.394,-20.1417 -1.955,0 -6.559,5.1022 -7.258,7.6266 z"
         style="opacity:1;fill:#f2cc7b;fill-opacity:1;stroke:none;stroke-width:1.98252439;stroke-linejoin:round;stroke-miterlimit:4;stroke-dasharray:none;stroke-opacity:1;paint-order:normal" />
      <path
         sodipodi:nodetypes="cscccsscccsccc"
         inkscape:connector-curvature="0"
         id="path2621"
         d="m 10347.81,1745.4938 c -10.82,2.8079 -44.602,11.2343 -83.548,21.334 -65.509,16.9873 -202.611,53.5646 -204.738,55.2405 -1.411,1.1113 -15.834,202.8068 -20.339,270.8487 -5.141,77.6449 -2.318,155.8681 2.588,162.5774 4.59,7.1439 8.787,1.1578 92.211,-14.3753 105.23,-19.593 189.923,-42.1497 217.686,-51.0735 l 26.227,-8.4298 -0.416,-31.3059 c -0.228,-17.2183 -1.703,-55.2701 -3.278,-84.5597 -3.48,-64.7321 -3.629,-171.8096 -0.311,-223.4426 5.467,-85.0789 6.285,-101.7384 4.005,-101.507 -1.293,0.1309 -8.325,-1.9667 -19.144,0.841 z"
         style="opacity:1;fill:#f2cc7b;fill-opacity:1;stroke:none;stroke-width:1.98252439;stroke-linejoin:round;stroke-miterlimit:4;stroke-dasharray:none;stroke-opacity:1;paint-order:normal" />
      <path
         sodipodi:nodetypes="scccccccss"
         inkscape:connector-curvature="0"
         id="path2625"
         d="m 10350.664,2204.7724 c -24.385,6.2777 -36.62,11.862 -43.235,21.9556 -5.541,8.457 -11.996,49.4665 -8.276,53.185 1.827,1.8279 19.187,0.5882 44.972,-3.8909 20.811,-3.6153 50.635,-8.5057 65.781,-10.6201 15.146,-2.1144 33.298,-4.5255 40.585,-6.1003 13.478,-2.9127 35.845,-13.0563 33.225,-15.6758 1.02,-3.6918 -12.132,-8.9789 -23.762,-8.9128 -22.371,-2.5088 -32.532,-6.2088 -47.977,-20.3001 -19.904,-18.16 -26.159,-18.691 -61.313,-9.6406 z"
         style="opacity:1;fill:#f2cc7b;fill-opacity:1;stroke:none;stroke-width:1.98252439;stroke-linejoin:round;stroke-miterlimit:4;stroke-dasharray:none;stroke-opacity:1;paint-order:normal" />
      <path
         sodipodi:nodetypes="ccccccc"
         inkscape:connector-curvature="0"
         id="path2629"
         d="m 10099.567,2261.6021 -43.404,17.1552 20.205,6.4351 c 8.957,2.5777 29.319,8.5467 45.001,12.2748 33.011,7.8475 36.46,13.3106 36.522,-9.8111 0.06,-18.1692 -2.259,-38.929 -8.515,-38.7871 -2.56,0.058 -27.869,5.2311 -49.809,12.7331 z"
         style="opacity:1;fill:#f2cc7b;fill-opacity:1;stroke:none;stroke-width:1.98252439;stroke-linejoin:round;stroke-miterlimit:4;stroke-dasharray:none;stroke-opacity:1;paint-order:normal" />
      <path
         sodipodi:nodetypes="scccssscs"
         inkscape:connector-curvature="0"
         id="path2627"
         d="m 10243.84,2231.8049 c -9.376,1.801 -40.684,4.8334 -50.328,4.9891 -18.175,0.2935 -16.295,5.1706 -19.714,10.5458 -1.089,1.7129 -2.856,12.7241 -2.879,25.1693 -0.06,28.5424 2.97,34.234 24.237,29.8336 8.273,-1.7116 37.49,-6.4648 54.079,-7.7633 37.801,-2.9588 34.473,-6.1564 34.473,-36.024 0,-11.2621 -1.289,-25.6361 -2.165,-27.9177 -1.865,-4.8606 -12.878,-3.6013 -37.703,1.1672 z"
         style="opacity:1;fill:#f2cc7b;fill-opacity:1;stroke:none;stroke-width:1.98252439;stroke-linejoin:round;stroke-miterlimit:4;stroke-dasharray:none;stroke-opacity:1;paint-order:normal" />
      <path
         style="fill:#000000;fill-opacity:1;stroke-width:1.1159879"
         inkscape:connector-curvature="0"
         id="path1962"
         d="m 10294.198,2393.6535 c -8.928,-5.58 -40.554,-40.8379 -36.09,-45.3019 3.348,-4.4639 42.786,26.3301 51.714,33.026 29.015,24.5517 62.495,-3.348 62.495,-52.4514 0,-41.2916 0,-42.4076 -39.06,-37.9436 -29.015,3.348 -39.059,10.0439 -39.059,25.6677 0,27.8997 -39.06,65.8433 -66.959,65.8433 -13.392,0 -36.828,-13.3919 -52.452,-29.0157 -16.74,-16.7398 -59.147,-39.0596 -95.975,-51.3354 -35.711,-13.3919 -61.379,-25.6677 -56.915,-30.1317 5.58,-3.348 10.044,-61.3793 10.044,-129.4546 0,-66.9593 3.348,-167.3982 7.812,-223.1976 l 7.812,-100.4389 42.407,-15.6238 c 54.684,-21.2038 53.568,-20.0878 36.828,-40.1756 -7.812,-10.0439 -21.204,-15.6238 -30.132,-12.2758 -7.812,3.3479 -14.508,1.116 -14.508,-3.348 0,-23.4357 34.596,-20.0878 54.684,5.5799 17.855,22.3198 27.899,25.6678 53.567,20.0878 16.74,-4.4639 42.408,-20.0878 56.915,-35.7116 13.392,-15.6238 27.9,-24.5517 33.48,-20.0878 4.464,4.464 -2.232,15.6239 -14.508,25.6678 -22.32,16.7398 -22.32,16.7398 0,11.1598 106.019,-29.0157 122.759,-31.2476 126.107,-20.0878 2.232,6.696 14.508,12.2759 27.9,12.2759 13.391,0 35.711,6.6959 49.103,14.5079 24.552,13.3918 25.668,18.9718 30.132,256.6772 3.348,177.442 1.116,244.4013 -8.928,247.7493 -6.696,2.2319 -31.248,6.6959 -53.568,11.1599 -39.059,5.5799 -42.407,10.0438 -42.407,42.4075 0,66.9593 -51.336,106.0188 -100.439,74.7712 z m -21.204,-63.6113 c 5.58,-15.6239 4.464,-25.6678 -1.116,-25.6678 -6.696,0 -4.926,27.8251 -6.042,42.3329 0,24.5518 -6.234,7.8866 -18.51,-15.5491 -7.811,-16.7399 -17.855,-22.3198 -37.943,-17.8559 -30.132,5.58 -33.48,13.3919 -13.392,33.4797 21.204,21.2038 66.959,11.1599 77.003,-16.7398 z m -117.179,-53.5674 c -1.116,-32.3637 0,-32.3637 -55.799,-12.2759 l -43.523,14.5078 43.523,12.2759 c 24.552,5.5799 46.872,11.1599 50.219,12.2759 4.464,1.1159 6.696,-11.1599 5.58,-26.7837 z m 97.091,16.7398 c 26.784,0 30.132,-4.464 30.132,-34.5957 0,-31.2476 -3.348,-34.5956 -24.552,-27.8997 -14.508,3.348 -39.059,6.696 -55.799,6.696 -27.9,0 -31.248,4.4639 -31.248,34.5956 0,31.2477 3.348,34.5956 25.668,27.8997 13.392,-3.348 37.944,-6.6959 55.799,-6.6959 z m 167.399,-30.1317 c 55.799,-6.6959 83.699,-25.6677 37.943,-25.6677 -14.508,0 -35.711,-8.9279 -45.755,-21.2038 -15.624,-17.8558 -25.668,-18.9718 -61.38,-10.0439 -36.827,8.9279 -44.639,16.7398 -47.987,44.6395 -5.58,32.3637 -4.464,33.4797 29.016,25.6678 18.971,-3.348 59.147,-10.0439 88.163,-13.3919 z m -220.966,-35.7116 c 61.379,-13.3919 127.223,-29.0157 145.078,-34.5956 l 33.48,-11.1599 -6.696,-119.4107 c -3.348,-65.8433 -3.348,-165.1662 0,-220.9656 l 6.696,-100.4389 -94.859,23.4357 c -52.451,13.3919 -122.759,32.3637 -157.354,42.4076 l -61.38,17.8558 -13.391,154.0063 c -7.812,83.6991 -13.392,181.906 -13.392,218.7336 0,61.3793 1.116,64.7273 25.667,59.1474 13.392,-3.348 74.772,-16.7398 136.151,-29.0157 z m 289.041,-53.5674 c -5.58,-30.1317 -8.928,-128.3386 -8.928,-220.9656 -1.116,-149.5424 -3.348,-167.3982 -20.088,-170.7462 -17.856,-3.3479 -20.088,8.9279 -21.204,139.4985 -1.116,112.7148 -3.348,135.0345 -12.276,104.9029 -5.579,-21.2038 -8.927,-84.8151 -6.695,-141.7305 3.348,-91.511 1.116,-104.9028 -17.856,-116.0627 -21.204,-13.3919 -21.204,-7.8119 -14.508,201.9938 5.58,208.6897 6.696,215.3856 32.364,235.4734 14.507,11.1599 36.827,20.0878 51.335,20.0878 24.552,0 25.668,-2.232 17.856,-52.4514 z m -52.452,-411.7996 c -3.348,-3.3479 -13.391,-4.4639 -21.203,-1.1159 -8.928,3.3479 -5.58,6.6959 6.696,6.6959 12.275,1.116 18.971,-2.232 14.507,-5.58 z"
         sodipodi:nodetypes="cccscsssccscccccscccccccsccscsccscccscccccccsscsscscscccccccccccccccscccccccccccsccccc" />
      <path
         inkscape:connector-curvature="0"
         id="path1972"
         d="m 10423.318,2088.8684 c 0,-5.58 5.58,-11.1599 12.276,-11.1599 5.58,0 7.811,5.5799 4.464,11.1599 -3.348,6.6959 -8.928,11.1599 -12.276,11.1599 -2.232,0 -4.464,-4.464 -4.464,-11.1599 z"
         style="stroke-width:1.1159879" />
      <path
         sodipodi:nodetypes="cccccccccscccc"
         inkscape:connector-curvature="0"
         id="path1970"
         d="m 10238.644,1908.4377 c -25.668,0 -60.263,6.6959 -77.003,12.2759 -47.988,18.9717 -16.74,35.7116 58.031,31.2476 l 65.844,-3.3479 -50.22,-13.3919 -50.219,-14.5078 49.103,6.6959 c 33.48,3.3479 52.452,1.116 59.147,-8.9279 m 7.847,-3.2467 c 3.133,0.5728 1.081,9.3846 1.081,19.9865 0,16.7398 -3.348,32.3636 -7.812,31.2477 -92.627,-6.696 -161.818,4.4639 -170.746,-6.696 -29.015,-34.5956 59.148,-75.8871 128.339,-60.2633 15.624,3.3479 49.906,13.3233 48.092,14.5788"
         style="stroke-width:1.1159879" />
      <path
         sodipodi:nodetypes="cscccccc"
         inkscape:connector-curvature="0"
         id="path2635"
         d="m 10159.488,1923.3597 c -6.121,2.6675 -13.323,7.4931 -16.003,10.7234 -4.107,4.9488 -3.816,6.4305 1.856,9.4139 12.367,6.5063 45.383,8.8383 85.592,6.0455 l 39.829,-2.7663 -38.946,-10.8059 c -21.42,-5.9432 -40.53,-12.3685 -42.468,-14.2785 -4.844,-4.7732 -16.586,-4.1173 -29.86,1.6679 z"
         style="opacity:1;fill:#ffffff;fill-opacity:1;stroke:none;stroke-width:2.80371284;stroke-linejoin:round;stroke-miterlimit:4;stroke-dasharray:none;stroke-opacity:1;paint-order:normal" />
      <path
         inkscape:connector-curvature="0"
         id="path2648"
         d="m 10228.501,1908.885 c -19.518,1.1508 -46.126,5.7003 -62.99,10.77 -8.787,2.6418 -18.632,7.752 -22.99,11.9326 -3.924,3.7647 -4.61,6.8842 -2.208,10.0345 3.107,4.0728 13.41,7.5796 27.345,9.3074 15.895,1.9705 29.488,2.072 60.986,0.4554 23.875,-1.2253 41.639,-2.1238 48.245,-2.4398 3.464,-0.1659 6.621,-0.3291 7.014,-0.3622 0.394,-0.032 -10.106,-2.9463 -23.334,-6.473 -25.393,-6.77 -69.86,-19.4376 -71.113,-20.2587 -0.408,-0.267 -0.602,-0.5319 -0.432,-0.5889 0.171,-0.058 10.283,1.2629 22.47,2.9327 12.188,1.6697 24.93,3.2889 28.316,3.598 8.113,0.7411 23.36,1.037 28.947,0.5618 11.049,-0.9395 18.171,-3.3834 22.537,-7.734 1.619,-1.6136 1.785,-1.8733 1.31,-2.0633 -0.298,-0.1199 -12.543,-2.4135 -27.213,-5.0973 -29.45,-5.3878 -27.408,-5.1344 -36.89,-4.5753 z"
         style="opacity:1;fill:#ffffff;fill-opacity:1;stroke:none;stroke-width:0.21642834;stroke-linejoin:round;stroke-miterlimit:4;stroke-dasharray:none;stroke-opacity:1;paint-order:normal" />
      <path
         inkscape:connector-curvature="0"
         id="path1966"
         d="m 10135.627,2092.7693 c -3.348,-8.9279 -4.464,-22.3197 -1.116,-30.1317 4.464,-8.9279 6.696,-6.6959 6.696,5.58 1.116,23.4357 23.436,25.6677 23.436,1.116 0,-8.9279 5.58,-13.3919 11.16,-10.0439 7.812,4.4639 7.812,14.5078 0,29.0157 -14.508,25.6677 -31.248,27.8997 -40.176,4.4639 z"
         style="stroke-width:1.1159879" />
      <path
         inkscape:connector-curvature="0"
         id="path1968"
         d="m 10236.066,2092.7693 c -4.464,-10.0439 -4.464,-21.2038 0,-24.5517 3.348,-4.464 6.696,-1.116 6.696,5.5799 0,20.0878 20.088,15.6238 26.784,-5.5799 3.348,-12.2759 4.464,-8.9279 3.348,6.6959 -2.232,32.3637 -26.784,44.6395 -36.828,17.8558 z"
         style="stroke-width:1.1159879" />
      <path
         inkscape:connector-curvature="0"
         id="path1964"
         d="m 10434.295,2182.5466 c -2.011,-8.6985 0.579,-17.3151 7.103,-18.823 5.437,-1.2566 9.371,5.8519 8.119,15.3045 -2.338,9.7039 -4.929,18.3204 -7.104,18.8231 -2.174,0.5026 -6.107,-6.606 -8.118,-15.3046 z"
         style="stroke-width:1.1159879" />
    </g>
  </g>
</svg>
