<svg xmlns="http://www.w3.org/2000/svg" width="354" height="434" stroke="#000" xmlns:v="https://vecta.io/nano"><path d="M199.75 182l-7 4.25-6.75 2.5-11 .5-7.75-1.75-7-4.5-1.5 2-7.5 5.25-8 5.75-2.5 4.25-2.5 8.5-.5 15.25v19.25L139 277l.75 21.25 4 4.25 8.5 5.5 7.25 3 10.5 2.25 9.5.5 11-.5L199 312l7-2.5 7.5-3.75 8.25-6 .5-21.75.5-27.75L224 223l-1.25-21.5-5.25-7.75-8.75-5z" fill="#c8e7eb" stroke-width="1.6"/><path d="M199 312l7.159-2.652-.442 9.192-.177 8.485-.796 6.806-.884 5.303 1.591.354 5.745-.265 2.652.707 2.298.619 2.033 1.768-.442 1.856-1.149 1.326-5.48.088-7.248-.354-2.828-.442-2.21-2.386-.53-1.237-.177-2.74.088-9.811.088-8.309-.088-6.718zm-39.5-1l-7.513-2.74-.177 5.657-.177 8.574.707 8.132.442 5.127 1.061 3.005-.177.972-4.861-.177-4.331-.177-2.033.796-2.121 1.856-.619 1.503 1.679 1.945 4.243-.088 7.159.177 4.773-1.149 1.149-1.591-.354-3.359-.088-9.458.619-9.192.53-5.392zm-22.177-63.313l-.088-7.159-6.806-.442-1.856-.619-2.386-2.298-.972-3.182-.088-7.513v-3.536l1.945-1.679.972-1.591-.354-2.298 1.591-1.768-.442-5.48-.796-2.828-1.591-.265-1.237 1.149.177 3.27-.177 1.149-4.861.53-2.121 1.945-.53 1.061-.177 3.624 1.414 1.945 1.326 1.237.177 3.27-1.414 5.568-.53 6.541 1.237 4.243 2.298 2.828 3.447.972 1.149 1.414 3.359-.177zm86.444-.619l.53-8.309 2.917 1.591 6.099.619 4.154 1.679 2.652 2.563 2.828 3.624 1.061 4.95.619 5.392-.177 4.243.265 2.033 1.414 1.945-.177 1.768-1.768 1.503-1.061 1.326-2.828-.265-1.856-1.061-1.679-1.945.088-2.828.707-1.856 2.21-1.061 1.237-.442-.796-5.215-1.237-3.27-2.21-2.74-2.828-2.121-3.447-1.237-2.298-.884z"/><g fill="none"><path d="M200.432 180.777l1.149-19.534-.088-1.414-7.867-3.977-8.397-1.414-9.811-.177-5.745.619-6.364 1.856-5.126 2.74-1.503 2.033.796 18.473 1.768 1.945 6.364 4.243 7.955 2.74h7.513l6.452-.619 6.629-2.652z" stroke-width="1.6"/><path d="M162.068 163.964h.442c.059 0 .124-.026.177 0 .026.013 0 .059 0 .088.029.03.049.075.088.088.056.019.124-.026.177 0 .026.013-.026.075 0 .088.053.026.121-.019.177 0 .039.013.051.07.088.088.026.013.06-.007.088 0 .09.023.177.059.265.088s.182.047.265.088c.075.037.107.131.177.177.055.036.122.052.177.088.035.023.049.075.088.088.056.019.121-.019.177 0 .04.013.054.065.088.088.055.036.122.052.177.088.035.023.051.07.088.088.026.013.06-.007.088 0 .09.023.175.066.265.088.029.007.061-.009.088 0 .161.054.164.076.265.177.029.03.054.065.088.088.055.036.122.052.177.088.035.023.051.07.088.088.083.042.179.054.265.088.115-.049.193.141.265.177.026.013.059 0 .088 0 .059.03.122.052.177.088.076.051.196.196.265.265.03.03.051.07.088.088.218.109-.08-.257.265.088.021.021-.013.062 0 .088.051.101.185.123.265.177.058.039.217.249.265.265.056.019.118 0 .177 0 .029 0 .062-.013.088 0 .106.053.159.212.265.265.083.042.182.047.265.088.037.019.049.075.088.088.056.019.121-.019.177 0s.198.231.265.265c.026.013.06-.007.088 0 .09.023.175.066.265.088.028.007.062-.013.088 0 .037.019.049.075.088.088.08.026.186-.026.265 0 .64.213-.139-.025.265.177.026.013.059 0 .088 0 .059 0 .121-.019.177 0 .079.026.102.14.177.177.026.013.062-.013.088 0 .037.019.049.075.088.088.056.019.12-.014.177 0 .064.016.114.067.177.088.048.016.323 0 .354 0h.619 2.475.796c.106 0 .254-.02.353 0 .091.018.175.066.265.088.029.007.06-.009.088 0 .125.042.236.118.353.177.059.03.113.072.177.088.043.011.307-.023.354 0 .037.019.049.075.088.088.056.019.118 0 .177 0h.177.354c.037.019.049.075.088.088.056.019.121-.019.177 0 .04.013.059.059.088.088.059.03.113.072.177.088.057.014.177-.059.177 0s-.236 0-.177 0h.972.442c.64-.213-.139.025.265-.177.026-.013.059 0 .088 0h.088.53c.192.033.029-.147.088-.177.053-.026.118 0 .177 0h.177.972 2.828.884c.102 0 .363.02.442 0 .37.16.102-.14.177-.177s.186.04.265 0c.037-.019.051-.07.088-.088.052-.026.204.02.265 0s.114-.067.177-.088c.048-.016.55 0 .619 0 .059 0 .121.019.177 0 .039-.013.051-.07.088-.088.053-.026.124.026.177 0 .075-.037.098-.15.177-.177.056-.019.118 0 .177 0h.442c.059 0 .119.012.177 0 .744-.149 0-.001.354-.177.026-.013.06.009.088 0 .062-.021.114-.067.177-.088s.213.026.265 0c.037-.019.051-.07.088-.088.071-.035.195.035.265 0 .026-.013-.026-.075 0-.088.055-.028.298.028.353 0 .037-.019.051-.07.088-.088.053-.026.124.026.177 0 .037-.019.049-.075.088-.088.056-.019.124.026.177 0 .026-.013-.021-.068 0-.088.047-.047.118-.059.177-.088s.113-.072.177-.088c.154-.038.377.038.53 0 .38.184.098-.15.177-.177.084-.028.181.028.265 0 .101-.034.174-.122.265-.177-.01-.167.206-.059.265-.088a.2.2 0 0 0 .088-.088c.013-.026-.026-.075 0-.088.053-.026.118 0 .177 0 .088 0 .181.028.265 0 .028-.009 0-.059 0-.088v-.354c.042-.042.124.026.177 0 .163-.081.014-.184.177-.265.053-.026.124.026.177 0 .037-.019.049-.075.088-.088.056-.019.128.033.177 0 .055-.036.052-.122.088-.177.023-.035.059-.059.088-.088s.051-.07.088-.088c.026-.013.062.013.088 0 .037-.019.049-.075.088-.088.056-.019.124.026.177 0 .026-.013-.013-.062 0-.088s.242-.253.265-.265c.053-.026.124.026.177 0 .106-.053.159-.212.265-.265.026-.013.068.021.088 0s-.021-.067 0-.088c.046-.047.118-.059.177-.088l.177-.088m1.513 4.689c0 .881.083.099-.088.442-.013.026 0 .059 0 .088 0 .059.014.12 0 .177-.016.064-.067.114-.088.177-.016.048 0 .323 0 .354v.53.177c0 .03.021.068 0 .088s-.068-.021-.088 0 .029.088 0 .088 0-.118 0-.088c0 .14.026.239-.088.354-.021.021-.068-.021-.088 0s0 .059 0 .088v.088.972.442c0 .059.059.177 0 .177s0-.236 0-.177v.354c0 .03-.01.06 0 .088.054.162.151.24.265.354m-3.714-1.679c0 .118.023.238 0 .354-.01.041-.075.049-.088.088-.037.112.037.242 0 .354-.013.04-.07.051-.088.088-.012.023 0 .307 0 .354v.442c0 .059-.012.119 0 .177.018.091.066.175.088.265.01.029-.013.062 0 .088.019.037.075.049.088.088.027.082-.028.359 0 .442.021.063.072.113.088.177.021.086 0 .177 0 .265 0 .03.013.062 0 .088-.019.037-.059.059-.088.088s-.051.07-.088.088c-.026.013-.068-.021-.088 0s0 .059 0 .088v.177.53c0 .088-.028.181 0 .265.013.04.075.049.088.088.016.049 0 .455 0 .53m-4.066-4.417c.18.339-.294.263-.354.442-.019.056.014.12 0 .177-.016.064-.072.113-.088.177s.026.39 0 .442c-.184.368.01-.095-.177.088-.021.021.01.06 0 .088-.021.063-.073.113-.088.177-.014.057 0 .118 0 .177v.442c0 .059.026.124 0 .177-.013.026-.068-.021-.088 0s-.021.067 0 .088.064-.016.088 0c.069.046.107.131.177.177.025.016.068-.021.088 0 .042.042-.042.135 0 .177.021.021.118 0 .088 0h-.265c-.03 0-.075-.026-.088 0-.01.021 0 .295 0 .354v.796.442c0 .058.017.215 0 .265-.021.063-.068.114-.088.177-.01.028 0 .059 0 .088v.177.707.442.177c0 .03-.013.062 0 .088.019.037.07.051.088.088.013.026 0 .059 0 .088 0 .059-.019.121 0 .177.013.04.075.049.088.088.069.206-.093.177.088.177m-4.066-6.453l.088.354c.019.097 0 .335 0 .442v.972.619c-.013.04-.07.051-.088.088-.013.026 0 .059 0 .088v.088.442.088c0 .03.021.067 0 .088-.047.047-.13.042-.177.088-.021.021 0 .059 0 .088v.442c-.037.055-.14.034-.177.088s0 .118 0 .177v.088.53 1.414c0 .228-.047.615.088.796.04.053.13.042.177.088.024.024-.028.386 0 .442.019.037.075.049.088.088.037.112-.029.239 0 .354.016.064.072.113.088.177.02.08 0 .339 0 .442 0 .03-.01.06 0 .088-.16.37.139.102.177.177.026.053 0 .118 0 .177v.442.177c0 .059.059.177 0 .177s0-.236 0-.177v.265c0 .101.023.262 0 .354-.107.427-.042-.004-.177.265-.013.026 0 .059 0 .088 0 .063.013.265-.088.265-.059 0 0-.118 0-.177v-.088m-4.153-10.339v.619c0 .059.019.121 0 .177-.013.04-.07.051-.088.088-.012.024 0 .492 0 .53v1.237.53c-.019.037-.07.051-.088.088-.013.026 0 .059 0 .088v.53c-.021.063-.059.118-.088.177s-.052.122-.088.177c-.023.035-.075.049-.088.088-.015.045 0 .546 0 .619v1.503.53c.021.063.072.113.088.177.021.086 0 .177 0 .265 0 .03.013.062 0 .088-.019.037-.07.051-.088.088-.026.053.042.135 0 .177s-.13.042-.177.088a1.07 1.07 0 0 0 0 .265c.019.037.051.07.088.088.026.013.075-.026.088 0 .026.053.059.177 0 .177s0-.118 0-.177m-4.774-7.864v2.033.53c.102.305.088.065.088.265v.619.354c.071.141.106.035.177.177.013.026 0 .059 0 .088v.177.619.619c0 .03.016.306 0 .354-.042.125-.135.229-.177.354-.01.028.013.062 0 .088-.019.037-.075.049-.088.088-.019.056.019.121 0 .177-.013.04-.075.049-.088.088-.028.084 0 .177 0 .265v.619.088c0 .03-.021.068 0 .088s.059 0 .088 0c.154 0 .075.026.177-.177m-5.126-9.369c-.125.191.05.419 0 .619-.016.064-.068.114-.088.177-.031.094.031.26 0 .354-.021.063-.068.114-.088.177-.019.056 0 .118 0 .177v.619 1.945.884.442c-.021.063-.072.113-.088.177-.023.092 0 .252 0 .354v.707.53c0 .088-.021.179 0 .265.107.427.042-.004.177.265.013.027 0 .225 0 .265v2.563m-4.863-12.199l-.088.354c-.02.098 0 .25 0 .354v.707.53c.109.218.088-.03.088.177v1.149.53c.02.12.065.234.088.354.017.087 0 .177 0 .265v.442c0 .059-.019.121 0 .177-.033.193.147.03.177.088s0 .118 0 .177v.177 1.061.354c0 .03.021.068 0 .088-.047.047-.14.034-.177.088s0 .118 0 .177v.177.619c0 .03-.021.068 0 .088.075.075.182.11.265.177.065.052.118.118.177.177.029.03.07.051.088.088.013.026 0 .059 0 .088 0 .059-.019.121 0 .177.013.04.075.049.088.088.017.053 0 .426 0 .53 0 .03-.013.062 0 .088.019.037.07.051.088.088.013.026 0 .059 0 .088v.177.619c0 .059-.012-.119 0-.177l.088-.354m-4.771-11.401v1.061c0 .03-.016.306 0 .354.021.063.059.118.088.177.091.183.122.224.177.442.014.057 0 .118 0 .177 0 .227-.046.505.088.707.016.024.075-.026.088 0 .026.053-.012.119 0 .177.149.744 0 .003.177.354.013.026 0 .059 0 .088v.177.619.177c0 .03-.013.062 0 .088.019.037.07.051.088.088.013.026 0 .059 0 .088 0 .131-.021.244.088.354.021.021.075-.026.088 0 .039.079 0 .177 0 .265v.707.884.442c-.053.106-.212.159-.265.265-.013.026 0 .059 0 .088 0 .059.019.121 0 .177-.013.04-.075.049-.088.088-.019.056.019.121 0 .177-.013.04-.07.051-.088.088-.013.026.01.06 0 .088-.023.09-.07.174-.088.265-.012.058.019.121 0 .177-.013.04-.07.051-.088.088-.013.026.03.088 0 .088s0-.059 0-.088"/></g><path d="M143.125 197.875l8.375 5.25 8.875 3.25 11.5 2 11.125.75 12.625-1.5 9.125-2.75 7.5-2.25 4.625-2 3-2.375 2.875 3.25-.375 9.25.25 12.125v9.75l-4 2.5L211 238.75l-11.25 4.375-11 2.25-9.25 1.5-10.125-.125L159.5 245l-9.75-3.625-6.5-4.625-5.625-4.375 1.25-22.5 1.25-6.25z" fill="#fff"/><path d="M194.422 238.229l2.21-3.005-.177-4.419-2.475-2.917-1.856.442-1.149 2.652.265 4.154.884 1.945zm-28.108-9.546l2.387 1.503.442 4.154-.972 2.828-1.149 1.061h-2.033l-1.238-1.237-.619-1.503.177-3.624 1.149-1.768z"/><path d="M139.646 287.093c2.27 1.946 4.568 2.837 7.748 6.134 3.237 1.781 4.756 4.653 8.622 5.998 3.188 1.349 5.285 1.935 8.285 3.453 3.318.329 5.638.084 8.744.595 3.5.497 4.812.043 8.375-.097 3.924.166 5.87-.002 9.129-.668 2.818-.229 3.777-.336 8.39-1.16 3.084-1.076 4.482-1.012 7.064-2.168 3.366-2.259 4.782-2.312 7.501-3.86 1.729-2.084 5.922-3.965 7.933-6.492l1.188-56.202-7.5 4.438L203.25 242l-6.625 2-7.437 1.438-8 1.125-8.5.375-8.687-1.062-9.375-2.5-7.562-3.875-9.437-7.125z" fill="#82d2e5"/><path d="M182.666 253.167l1.326 1.326v4.243l-1.238 3.005-1.856 1.945-1.856.619-2.033.177-1.768-1.591-1.414-1.591-.707-1.945.088-3.447.353-1.149 1.238.088.707 3.005.884 2.475 1.679 1.768 1.061-.795 1.414-1.503.442-3.182.177-2.298z"/><path d="M209.89 286.136c1.273-.073.187-.727.354-1.061.037-.075.131-.107.177-.177.073-.11.104-.244.177-.354.102-.153.392-.392.53-.53.059-.059.139-.102.177-.177.026-.053 0-.118 0-.177l.177-.354m1.236 4.774v-1.414c0-.059-.026-.124 0-.177.037-.075.131-.107.177-.177.073-.11.084-.26.177-.354.042-.042.135.042.177 0s-.019-.121 0-.177c.042-.125.104-.244.177-.354.093-.139.236-.236.354-.354" fill="none"/></svg>