<svg xmlns="http://www.w3.org/2000/svg" width="793.701" height="1122.52" viewBox="0 0 210 297" xmlns:v="https://vecta.io/nano"><g transform="matrix(.166776 0 0 -.166775 -934.178818 842.330545)"><g transform="matrix(13.801651 0 0 -13.801651 5413.6721 5180.5605)" stroke="#000"><path d="M55.111 44.117l8.021-.208 1.042 1.354-.729.417L64.59 61.72l3.333 6.041 1.667 4.687-.208 25.52 1.146 7.291-.312 3.958-2.917 3.125-15.208.104-3.75-3.021-.729-3.125.208-3.75.833-4.896-.104-24.686.417-2.396 4.062-7.604.521-.833.729-4.271.208-7.812.729-3.75-.729-.833z" fill="#f68e2e" stroke-width="1.957"/><path d="M48.991 73.009l19.938.024-.1 23.046-19.576.061z" fill="#83d891" stroke-width=".71"/><path d="M54.946 43.764l8.323-.166.773-.847v-1.786l-.884-.847-8.415-.055-.663.976.055 1.878z" fill="#3d383a" stroke-width="1.957"/><path d="M65.154 83.096c-.008-.019-.027-.035-.043-.035-.052 0-.082-.06-.092-.184-.005-.066-.023-.137-.04-.156s-.027-.073-.024-.118c.004-.059-.009-.099-.048-.139-.218-.177-.464-.335-.732-.419a1.64 1.64 0 0 0-1.064.044l-.211.092c-.052.023-.135.081-.184.13s-.096.087-.105.085c-.021-.006-.14.228-.14.275 0 .021-.015.044-.035.052s-.035.047-.035.127-.013.125-.043.152c-.04.036-.044.034-.073-.054-.017-.051-.04-.093-.052-.093s-.014.01-.008.022.005.027-.005.033c-.023.014-.02.111.004.15s-.131.035-.227-.01c-.073-.035-.079-.045-.067-.117.011-.067.005-.081-.037-.092-.073-.019-.075-.17-.004-.304.042-.079.326-.642.371-.596s-.238.608-.211.55c.019-.04.02-.067.004-.087s-.008-.064.033-.152c.032-.068.052-.132.045-.142s.004-.019.024-.019.046-.02.059-.044.049-.05.08-.058.16-.061.184-.07c-.115-.023-.043.026-.083.071-.415-.214 1.081-.26.083-.071-.024-.024.111-.124.207-.152a.74.74 0 0 0 .151-.062c.081-.052.559-.121.936-.136.268-.003.535.038.79.122l.046.016c.007.002.033.014.058.028.035.017.072.031.11.04s.064.026.064.038.016.023.035.023.035.01.035.023.016.023.036.023.042.016.049.035.029.035.047.035c.027 0 .026.008-.007.041-.039.039-.039.041.004.049.024.005.048-.003.053-.017s.02-.026.034-.026c.037 0 .27.255.311.343.02.042.045.076.055.076s.031.06.046.134.036.145.047.158c.021.027.013.198-.014.283s-.15.146-.288.146c-.085 0-.124-.01-.133-.035zm-12.857-.006c-.108-.024-.204-.088-.268-.179-.031-.047-.031-.06 0-.12.019-.034.031-.072.036-.11s.031-.121.101-.268c.014-.031.076-.086.136-.123.08-.05.116-.09.137-.153.032-.099.132-.212.187-.213.02 0 .067-.024.103-.052a1.5 1.5 0 0 1 .603-.219 1.44 1.44 0 0 0 .267-.048c.137-.045.459-.045.651 0a2.27 2.27 0 0 0 .306.046c.11.007.173.024.216.058a.73.73 0 0 0 .179.087c.109.036.192.083.341.19.031.022.086.089.123.148s.096.12.134.136c.068.028.117.12.117.219 0 .027.026.098.058.158s.058.139.058.175c0 .141-.133.239-.324.239-.106 0-.12-.007-.152-.069-.022-.047-.034-.099-.036-.151 0-.045-.01-.083-.023-.083s-.023-.057-.023-.127v-.127l-.112-.056c-.077-.044-.147-.099-.208-.164-.084-.094-.128-.119-.347-.197a3.47 3.47 0 0 0-.461-.127c-.223-.04-.276-.034-.662.072l-.267.065c-.112.024-.151.045-.198.107-.063.083-.07.197-.18.289-.056.047-.225.269-.239.378-.009.073.033-.064.022-.064s-.021.029-.022.064c0 .13-.023.169-.087.153-.052-.013-.057-.009-.046.035.008.031.004.049-.013.046l-.108-.013zm7.37 3.424c-.141-.016-.287-.046-.325-.066a.31.31 0 0 0-.105-.038c-.047 0-.24-.098-.262-.134-.01-.016-.032-.029-.049-.029s-.049-.021-.072-.046c-.079-.087-.253-.05-.406.087-.032.029-.068.052-.08.052s-.038.014-.058.031-.099.045-.176.062a.84.84 0 0 0-.162.048c-.084.061-.959.047-1.022-.016-.018-.018-.067-.039-.109-.047-.226-.066-.428-.197-.581-.376-.135-.184-.205-.352-.205-.494 0-.074.011-.142.026-.15.048-.03.323-.042.323-.014 0 .014.016.02.035.012s.035 0 .035.021.014.04.031.047.037.065.045.142c.015.145.11.319.197.36.029.013.052.035.052.048s.017.024.036.024.075.02.122.044c.218.112.388.138.732.115.191-.013.239-.024.302-.072a.53.53 0 0 1 .133-.074c.111-.033.274-.22.348-.399.038-.093.07-.184.07-.204 0-.053.083-.087.192-.079.086.007.098.014.099.065.004.132-.009-.046.06-.046s.112.227.113.332c0 .075.179.29.254.306.038.008.081.029.095.046s.101.055.193.083a1.72 1.72 0 0 0 .772.01c.142-.041.371-.186.459-.289s.156-.261.156-.355c0-.042.009-.09.02-.107a.67.67 0 0 1 .375-.03c.048.033.038.275-.013.41l-.038.098-.077-.05c-.109-.173-.749.303-.039.115.053-.017.053-.017.02.048-.054.103-.193.229-.33.298-.036.017-.071.037-.103.059-.107.045-.219.077-.334.096-.011-.003-.032.003-.046.015a1.59 1.59 0 0 1-.403.07l-.298-.032z" paint-order="stroke fill markers" stroke-width=".176"/></g><g stroke="#000"><path d="M6378.909 4053.127l-5.683-65.304 12.196 25.582 3.065 6.701 1.239-5.55 6.183-.285 3.578-.371 2.983 7.794.637-6.286-.319-7.184-.768-8.773-.958-8.359-.638-10.777.384-10.777 1.085-9.464 1.724-7.184 2.554-7.806 2.235-3.592 1.66-2.211 2.075-1.036 2.139.241 2.011 1.382 1.979 2.556 4.15 9.36 2.171 8.462 2.043 10.535 2.108 16.614 1.181 16.407.384 10.19-.482 10.569-1.342 7.564-2.363 5.285-3.895 3.834-5.236 2.314-5.523 1.071-7.822.311-6.704.241-3.32.242-3.257.415-4.278 1.209-2.969 1.451-2.49 2.176zm-300.446-16.803l4.674-58.589-11.187 18.867-3.065 6.701 1.027-7.169-5.05 5.835-4.837 1.599-3.019-2.643-2.742-2.321.319-7.184.768-8.773.958-8.359.638-10.777-.384-10.777-1.085-9.464-1.724-7.184-2.554-7.806-2.235-3.592-1.66-2.211-2.075-1.036-2.139.241-2.011 1.382-1.98 2.556-4.15 9.361-2.171 8.462-2.043 10.535-2.108 16.614-1.181 16.407-.384 10.19.482 10.569 1.341 7.564 2.363 5.285 3.894 3.834 5.236 2.314 5.523 1.071 7.822.311 6.704.241 3.32.241 3.257.415 4.278 1.209 2.969 1.451 2.49 2.176z" stroke-width="8.501"/><path d="M6151.503 3624.454l47.266-.486-5.03-3.316-2.632-3.663-1.488-5.322.912-10.873 3.719-15.223.912-13.506-1.717-8.642-2.06-3.606-2.403-1.717-5.322-.687-9.558-1.66-8.413-2.232-13.563-4.063-9.787-3.033-7.21-1.602-6.581-.062-5.437 1.145-3.949 2.69-2.461 4.121.114 5.837 2.118 5.723 3.892 4.292 5.551 3.663 6.467 2.118 6.924.687 4.578.401 2.919.744 3.204 1.774 2.632 2.175 2.289 3.262 1.66 5.208.684 5.894-.632 9.5-1.545 7.44-2.061 6.123-1.832 4.178zm160.514-2.283l-47.266-.486 5.03-3.316 2.632-3.663 1.488-5.322-.912-10.873-3.719-15.223-.912-13.506 1.716-8.642 2.061-3.606 2.403-1.717 5.322-.687 9.558-1.66 8.413-2.232 13.563-4.063 9.787-3.033 7.21-1.602 6.582-.061 5.437 1.145 3.949 2.69 2.461 4.12-.114 5.838-2.117 5.723-3.892 4.292-5.551 3.663-6.467 2.117-6.925.687-4.578.401-2.919.744-3.204 1.774-2.632 2.175-2.29 3.262-1.66 5.208-.684 5.894.632 9.5 1.544 7.44 2.061 6.124 1.832 4.177z" stroke-width="10.36"/></g></g></svg>