<svg xmlns="http://www.w3.org/2000/svg" width="305.62" height="287.497" viewBox="0 0 80.862 76.067" xmlns:v="https://vecta.io/nano"><path d="M40.778 9.16a1 1 0 0 0-.758.099l-24.093 13.91a1 1 0 0 0-.077.289 1 1 0 0 0-.289.077 1 1 0 0 0 .135.501 1 1 0 0 0-.135.501 1 1 0 0 0 .289.077 1 1 0 0 0 .077.289l24.093 13.91.082-.022a1 1 0 0 0 .917.022l24.095-13.91a1 1 0 0 0 .344-.361l.022-.005.022-.084a1 1 0 0 0 .089-.335 1 1 0 0 0 .01-.13 1 1 0 0 0-.486-.819L41.019 9.258l-.082.022a1 1 0 0 0-.159-.12zm-.258 2.121l22.092 12.754L40.52 36.791 18.425 24.035z"/><path d="M47.352 13.527L23.257 27.439l1.001 1.731 24.093-13.91z"/><path d="M33.758 13.507l-1.001 1.733 24.095 13.91.999-1.733zm-8.298 4.428l-1.001 1.731 24.093 13.91 1.001-1.731z"/><path d="M55.383 18.125l-24.095 13.91 1.001 1.733 24.093-13.912z"/><g transform="matrix(-.616285 -1.067436 1.067436 -.616285 24.52848 106.92036)"><use href="#B"/><use href="#C"/><use href="#D"/><use href="#E"/><use href="#F"/></g><g transform="matrix(-.616285 1.067436 -1.067436 -.616285 108.1698 17.37719)"><use href="#B"/><use href="#C"/><use href="#D"/><use href="#E"/><use href="#F"/></g><defs ><path id="B" d="M42.186 15.861a.811.811 0 0 0-.615.08L22.023 27.227a.811.811 0 0 0-.062.234.811.811 0 0 0-.234.063.811.811 0 0 0 .109.406.811.811 0 0 0-.109.406.811.811 0 0 0 .234.063.811.811 0 0 0 .063.234L41.57 39.918a.811.811 0 0 0 .066-.018.811.811 0 0 0 .744.018L61.93 28.633a.811.811 0 0 0 .279-.293.811.811 0 0 0 .018-.004.811.811 0 0 0 .018-.068.811.811 0 0 0 .072-.271.811.811 0 0 0 .008-.105.811.811 0 0 0-.395-.664L42.381 15.941a.811.811 0 0 0-.066.018.811.811 0 0 0-.129-.098zm-.209 1.721L59.9 27.93l-17.924 10.35-17.926-10.35z"/><path id="C" d="M47.52 19.404L27.971 30.691l.813 1.404L48.33 20.811z"/><path id="D" d="M36.49 19.389l-.812 1.406L55.227 32.08l.811-1.406z"/><path id="E" d="M29.758 22.98l-.812 1.404L48.492 35.67l.813-1.404z"/><path id="F" d="M54.035 23.135L34.486 34.42l.813 1.406 19.547-11.287z"/></defs></svg>