<svg xmlns="http://www.w3.org/2000/svg" viewBox="0 0 360.608 71.985" xmlns:v="https://vecta.io/nano"><defs><clipPath id="A" transform="translate(-2.643 -3.121)"><path d="M-33.957-102.62H391.24v283.465H-33.957z" fill="none"/></clipPath></defs><path d="M97.928 70.768h235.497.861l.288-.813 23.734-67.112.577-1.626h-1.721H97.928h-1.219v1.219 67.113 1.219h1.219z" fill="#03b3cb"/><path d="M170.684 1.214H2.6v69.555h144.795.866l.284-.821 23.293-67.113.559-1.621h-1.713z" fill="#20568b"/><g clip-path="url(#A)" fill="#fff"><path d="M65.696 40.45v9.381l.07 2.43h-2.245l-.118-1.2h-.031a2.84 2.84 0 0 1-2.543 1.377c-1.931 0-3.478-1.643-3.478-4.173-.017-2.744 1.7-4.325 3.64-4.325.823-.072 1.628.272 2.145.917h.035V40.45zm-2.525 7.118l-.035-.446c-.128-.718-.75-1.243-1.479-1.249-1.149 0-1.748 1.031-1.748 2.311 0 1.381.682 2.246 1.731 2.246a1.48 1.48 0 0 0 1.463-1.215l.066-.581zm6.499 1.431c.087 1.049 1.114 1.547 2.3 1.547a7.25 7.25 0 0 0 2.246-.332l.332 1.713a8.05 8.05 0 0 1-2.945.515c-2.761 0-4.338-1.616-4.338-4.159a4.07 4.07 0 0 1 4.107-4.339c2.626 0 3.622 2.049 3.622 4.055a5.86 5.86 0 0 1-.083 1zm2.98-1.73c.051-.412-.076-.826-.349-1.14a1.46 1.46 0 0 0-1.08-.503c-.874.048-1.559.768-1.564 1.643zm7.307-6.071a20.83 20.83 0 0 1 3.421-.232c1.211-.098 2.419.219 3.426.9.775.635 1.217 1.589 1.2 2.591a3.58 3.58 0 0 1-1.031 2.661 5.2 5.2 0 0 1-3.644 1.18l-.865-.048v4.011h-2.507zm2.508 5.09l.848.066c1.35 0 2.18-.682 2.18-1.831 0-1.027-.717-1.643-1.979-1.643a4.5 4.5 0 0 0-1.049.1zm13.549 3.991a12.58 12.58 0 0 0 .118 1.975h-2.281l-.148-.817h-.046a2.92 2.92 0 0 1-2.328 1 2.49 2.49 0 0 1-1.85-.682c-.497-.472-.777-1.128-.776-1.813 0-2.11 1.9-3.124 4.767-3.111v-.113c0-.433-.228-1.049-1.477-1.049-.788.009-1.56.221-2.242.616l-.467-1.63a6.72 6.72 0 0 1 3.159-.716c2.709 0 3.574 1.6 3.574 3.508zm-2.457-1.862c-1.328-.017-2.359.3-2.359 1.28-.019.268.082.53.275.716a.91.91 0 0 0 .725.25 1.38 1.38 0 0 0 1.315-.931l.048-.432zm4.452-7.965h2.53v11.806h-2.53zm4.575 6.27l-.07-2.6h2.132l.114 1.1h.052a2.83 2.83 0 0 1 2.46-1.28c.958-.048 1.845.502 2.229 1.381h.035a3.36 3.36 0 0 1 1.048-.979 2.91 2.91 0 0 1 1.543-.4c1.564 0 2.748 1.1 2.748 3.526v4.789h-2.464v-4.423c0-1.184-.385-1.861-1.2-1.861a1.23 1.23 0 0 0-1.162.882l-.1.643v4.758h-2.465v-4.553c0-1.035-.362-1.73-1.162-1.73-.548.022-1.021.388-1.18.913l-.1.629v4.741h-2.46zm21.084 3.557a13.17 13.17 0 0 0 .114 1.975h-2.277l-.148-.813h-.049a2.92 2.92 0 0 1-2.328 1 2.5 2.5 0 0 1-2.631-2.495c0-2.11 1.9-3.124 4.776-3.111v-.113c0-.433-.236-1.049-1.481-1.049a4.59 4.59 0 0 0-2.246.616l-.463-1.63a6.72 6.72 0 0 1 3.159-.716c2.709 0 3.574 1.6 3.574 3.508zm-2.46-1.866c-1.333-.017-2.364.3-2.364 1.28a.91.91 0 0 0 1 .966 1.38 1.38 0 0 0 1.311-.931l.052-.432zM60.01 31.315l-1.162 3.526h-1.5l3.809-11.208h1.75l3.823 11.208h-1.551l-1.2-3.526zm3.675-1.136l-1.1-3.225c-.253-.734-.415-1.4-.581-2.044h-.035l-.563 2.027-1.1 3.242z"/><path d="M65.881 37.2c.592.003 1.163-.217 1.6-.616.4-.45.546-1.1.546-3.024v-6.768h1.464v7.332a4.42 4.42 0 0 1-.961 3.308 3.71 3.71 0 0 1-2.495.917zm3.776-12.671a.86.86 0 0 1-.253.656c-.174.172-.415.261-.66.244a.87.87 0 0 1-.9-.9.89.89 0 0 1 .268-.658c.177-.173.417-.265.663-.255a.86.86 0 0 1 .638.265.87.87 0 0 1 .24.648m8.55 8.116l.066 2.193h-1.3l-.079-1.31h-.033c-.554.94-1.57 1.51-2.661 1.494-1.262 0-2.774-.7-2.774-3.522v-4.71h1.459v4.457c0 1.533.468 2.56 1.8 2.56a2.11 2.11 0 0 0 1.927-1.328l.131-.752V26.79h1.464zm2.013-3.675l-.07-2.176h1.3l.083 1.328h.035c.537-.959 1.562-1.542 2.661-1.511 1.114 0 2.844.664 2.844 3.425v4.806h-1.466v-4.64c0-1.3-.485-2.377-1.861-2.377a2.08 2.08 0 0 0-1.966 1.5l-.1.681v4.841h-1.46zm10.51-4.108v1.931h2.093v1.114h-2.093v4.339c0 1 .28 1.564 1.1 1.564a2.77 2.77 0 0 0 .847-.1l.066 1.1a3.47 3.47 0 0 1-1.3.218 2.04 2.04 0 0 1-1.577-.633c-.447-.604-.649-1.353-.568-2.1v-4.388h-1.246v-1.114h1.245v-1.481zm8.978 8.047a11.19 11.19 0 0 0 .136 1.931h-1.333l-.118-1.013h-.048a3 3 0 0 1-2.46 1.2 2.3 2.3 0 0 1-2.464-2.312c0-1.948 1.73-3.01 4.841-2.993v-.166a1.66 1.66 0 0 0-1.831-1.861c-.739.003-1.463.208-2.093.594l-.332-.961a4.99 4.99 0 0 1 2.644-.717c2.46 0 3.058 1.678 3.058 3.3zm-1.411-2.176c-1.6-.031-3.412.249-3.412 1.813a1.3 1.3 0 0 0 1.38 1.4 2.01 2.01 0 0 0 1.949-1.35l.083-.463zm3.358-1.763l-.066-2.176h1.281l.065 1.3h.053a2.77 2.77 0 0 1 2.525-1.481 2.38 2.38 0 0 1 2.281 1.612h.03c.223-.409.53-.766.9-1.049a2.73 2.73 0 0 1 1.778-.563c1.066 0 2.643.7 2.643 3.491v4.74h-1.428v-4.559c0-1.547-.568-2.477-1.748-2.477-.799.033-1.492.564-1.73 1.328l-.118.734v4.972h-1.429v-4.823c0-1.281-.568-2.211-1.678-2.211a2 2 0 0 0-1.813 1.463l-.118.713v4.858h-1.429zm14.267 2.109a2.58 2.58 0 0 0 2.762 2.8 5.31 5.31 0 0 0 2.228-.415l.249 1.048c-.846.361-1.759.536-2.678.516a3.75 3.75 0 0 1-2.91-1.13c-.76-.782-1.141-1.856-1.044-2.942 0-2.43 1.428-4.344 3.775-4.344 2.626 0 3.325 2.312 3.325 3.793l-.053.682zm4.291-1.049a2.08 2.08 0 0 0-2.027-2.377c-1.251.092-2.225 1.123-2.246 2.377zm2.811-1.06l-.07-2.176h1.3l.083 1.328h.035c.537-.959 1.562-1.542 2.661-1.511 1.114 0 2.844.664 2.844 3.425v4.806h-1.466v-4.64c0-1.3-.485-2.377-1.861-2.377a2.08 2.08 0 0 0-1.966 1.5l-.1.681v4.841h-1.464zm10.51-4.108v1.931h2.093v1.114h-2.093v4.339c0 1 .28 1.564 1.1 1.564a2.79 2.79 0 0 0 .847-.1l.066 1.1a3.49 3.49 0 0 1-1.3.218 2.04 2.04 0 0 1-1.577-.633c-.445-.604-.647-1.354-.564-2.1v-4.388h-1.245v-1.114h1.249v-1.481zm-95.618 2.81l.638.59h.634l.638-.59-.638-.59h-.634zm6.039.524l-.529-.7-.625-.109-.729.472.524.69.625.109.734-.467m-10.163 0l.729.467.625-.109.529-.69-.734-.472-.625.109-.524.7m3.054-8.9l.135.332-.218.468v.41l.581.315.677-.655-.293-.678c-.367-.463-.677-1.136-.214-1.389.406-.227.843.118 1.175.441l.184-.013.188.013c.328-.323.769-.668 1.171-.441.463.253.153.926-.214 1.389l-.293.678.677.655.581-.315v-.41l-.218-.468.139-.332c.363-.38 1.355-.3 2.81.878a6.1 6.1 0 0 1 2.071 3.194 2.54 2.54 0 0 0-1.424-1.036c-.664-.17-1.369.006-1.875.468a2.32 2.32 0 0 0-1.407-.555c-.665-.001-1.296.292-1.725.8l.388.48-.017.446-.245.21-.022.1h.11l.428-.228.59.464-.4.978-.625.153-.389.07a.91.91 0 0 0 1.119.9l.717-.537.148.009c.135.478.611.775 1.1.686l.76-.686-.371-.14-.59-.258-.219-1.036.66-.353.376.3.114.018v-.1l-.205-.253.061-.433.577-.506.393-.1.341.228.367.668-.092.433-.28.166-.035.087.11.026.458-.157.5.555c.087.406-.433.791-.56.9l-.642.04h-.389c-.02.266.071.528.253.723a.96.96 0 0 0 .704.304l.791-.393.157.048a.97.97 0 0 0 .961.839l.866-.542-.341-.192-.533-.359-.035-1.057.712-.232.319.359.1.043.013-.105-.162-.279.14-.424.655-.389.407-.026c.909.389-.367 2.045-.367 2.045l-.922 2.049-.35-.144-.812.292.353.8.28.113-.28.564a23.98 23.98 0 0 0-7.638-1.333 23.46 23.46 0 0 0-7.673 1.3l-.249-.52.279-.113.354-.8-.817-.292-.332.14-.834-2.045s-1.355-1.656-.442-2.045l.407.026.655.389.135.424-.161.279.017.105.105-.043.319-.359.712.232-.035 1.057-.533.359-.345.192.87.542c.492.002.907-.368.961-.857l.144-.039.8.4c.267.002.523-.108.705-.303a.96.96 0 0 0 .256-.724h-.393l-.638-.04c-.131-.113-.651-.5-.56-.9l.5-.555.458.157.11-.026-.035-.087-.28-.166-.1-.433.371-.668.341-.228.393.1.577.506.061.433-.2.253-.005.1.11-.018.38-.3.66.353-.219 1.036-.59.258-.371.14.76.686c.489.089.965-.208 1.1-.686l.148-.014.717.542a.91.91 0 0 0 1.118-.9l-.388-.07-.625-.153-.4-.978.59-.464.424.228h.109l-.017-.1-.249-.21-.013-.446.388-.48a2.26 2.26 0 0 0-1.73-.8 2.4 2.4 0 0 0-1.4.555c-.506-.462-1.211-.638-1.875-.468-.582.166-1.086.535-1.42 1.04a6.06 6.06 0 0 1 2.066-3.202c1.455-1.179 2.443-1.258 2.814-.878m6.174 20.184h.494v.752h-.494zm-.459 1.731l-1.145-.009v-.546l.572-.651.573.651zm-7.113-5.117v6.965h1.113v-8.079l1.136-1.132v9.211h1.164l-.013 5.282-.686.171v-.529h-.38l.005-1.354h.415v-.9h-1.91v.581h-.385v-.922l.931.022-.76-.315.93-.17c-.524-.3-.812-.157-.812-.157l.812-.472a1.1 1.1 0 0 0-1.057.223l.41-.534-.63.3-.611-.3.41.538a1.1 1.1 0 0 0-1.061-.223l.812.472s-.284-.14-.812.157l.93.17-.756.315.931-.022v.922h-.383v-.581h-1.91v.9h.42v1.354h-.3l-4.924-4.924h1.324v-1.32l1.127-1.127v2.447h1.133v-3.583l1.118-1.118v4.7h1.132V37.24zm3.387 13.724l.008.477h-2.508l-.463.157-.48-.481.939-.153h2.5m0 2.871l.021.747-.576-.581.555-.166m.008-.481l-1.1.114-.677-.677.411.131h1.359zm-1.363-.913l-.874-.1-.362-.367c.374-.231.843-.247 1.232-.043h1.359l.008.515h-1.359m-2.844-2.084l-.5-.5.835.1h2.508l1.367.031v.494h-3.87l-.34-.127m1.7-.874l-1.149.1v-.643l.577-.646.568.646zm.459-1.713h.5v.747h-.5zm-2.525 0h.491v.747h-.494zm13.6-3.565v1.376l-1.144 1.136v-2.515h-1.115v3.626l-1.14 1.137v-4.763h-1.123v5.885l-1.123 1.123v-7.008h-1.127V51.2l-1.137 1.14v-9.276h-1.1v-.424l1.311-.035h7.511l1.049-.048.511.507zm-.109-1.48l.393.393-.472.145h-7.506l-1.32.03v-.489l1.311-.035h7.507zm-8.905-8.9l8.577 8.573-1.114-.114H45.17l-.79.171v-.477H44v-1.35h.419v-.892h-1.905v.581h-.38v-.917l.926.017-.756-.31.931-.17c-.529-.3-.817-.162-.817-.162l.817-.468c-.369-.119-.773-.034-1.062.223l.411-.542-.625.3-.616-.3.415.542a1.1 1.1 0 0 0-1.062-.223l.813.468s-.288-.136-.813.162l.931.17-.76.31.93-.017v.917h-.38v-.577h-1.909v.892h.419v1.354h-.38v.481l-.7-.14zm-1.188-2.058a1.61 1.61 0 0 1 2.272 0l11.338 11.343a1.6 1.6 0 0 1 0 2.267L39.936 55.573a1.6 1.6 0 0 1-2.272 0L26.321 44.239a1.6 1.6 0 0 1 0-2.267zM27.571 42.706v.742l10.893 10.884h.742l10.889-10.884v-.742L39.206 31.822h-.749zm12.92-3.221h.494v.752h-.494zm164.155-5.482a10.39 10.39 0 0 0-10.389-10.387v2.757h-7.762v25h8.5v-7.02a10.38 10.38 0 0 0 9.65-10.35"/><path d="M297.947 30.758h-5.517v-2.786h-2.334v2.786h-1.718v1.953h1.718l.013 7.024h2.328l-.007-7.024h3.148zm10.023.155a1.9 1.9 0 0 0-.949.878l-.125-1.03h-2.173v8.974h2.37v-4.271a2.88 2.88 0 0 1 .624-1.973 2.23 2.23 0 0 1 1.764-.705 4.04 4.04 0 0 1 1.013.126v-2.17a4.75 4.75 0 0 0-1.049-.127c-.507-.006-1.01.096-1.475.3m-33.1-.818a5.02 5.02 0 0 0-1.989-2.8 6.11 6.11 0 0 0-3.618-1.049 6.8 6.8 0 0 0-2.641.5c-.775.317-1.473.798-2.044 1.411a6.5 6.5 0 0 0-1.321 2.178c-.624 1.814-.627 3.784-.008 5.6.284.8.73 1.533 1.311 2.152.572.601 1.266 1.072 2.035 1.383a7.3 7.3 0 0 0 6.214-.452 5.28 5.28 0 0 0 2.279-2.658l-2.352-1.014a3.16 3.16 0 0 1-1.3 1.583 4.21 4.21 0 0 1-3.754.3 3.42 3.42 0 0 1-1.221-.878 3.99 3.99 0 0 1-.786-1.392c-.372-1.198-.375-2.481-.009-3.681.165-.513.429-.989.777-1.4a3.4 3.4 0 0 1 1.221-.9 3.91 3.91 0 0 1 1.6-.316c.727-.02 1.443.182 2.053.578a3.04 3.04 0 0 1 1.2 1.682zm-15.5 5.931a2.7 2.7 0 0 1-.163 1.005 1.87 1.87 0 0 1-.436.668c-.18.175-.398.305-.637.381-.246.079-.504.119-.763.118-.397.026-.791-.083-1.119-.308-.262-.21-.408-.533-.39-.869-.015-.328.123-.645.373-.858.305-.23.682-.342 1.063-.317h2.072zm2.442 3.709c-.067-.262-.106-.53-.118-.8l-.045-1.23v-3.435a3.5 3.5 0 0 0-1.1-2.894 4.36 4.36 0 0 0-2.822-.886 4.14 4.14 0 0 0-4 2.188l1.718.977c.388-.816 1.232-1.316 2.134-1.266a2.11 2.11 0 0 1 1.294.361c.343.29.523.729.484 1.177v.308h-2.605c-.858-.049-1.705.21-2.388.732a2.58 2.58 0 0 0-.868 2.089 2.68 2.68 0 0 0 .895 2.135c.664.541 1.505.818 2.361.777a3.73 3.73 0 0 0 1.61-.325c.415-.183.776-.47 1.049-.832l.063.488.064.434zm55.24-3.709a2.7 2.7 0 0 1-.164 1.005 1.87 1.87 0 0 1-.436.668c-.18.174-.398.305-.637.381-.246.079-.504.119-.763.118-.397.025-.791-.083-1.119-.308-.262-.21-.408-.533-.39-.869-.015-.328.123-.645.373-.858a1.6 1.6 0 0 1 1.063-.317h2.078zm2.441 3.709a3.87 3.87 0 0 1-.117-.8l-.045-1.23v-3.435a3.5 3.5 0 0 0-1.1-2.894c-.809-.615-1.807-.928-2.822-.886a4.14 4.14 0 0 0-4 2.188l1.717.977c.389-.816 1.232-1.317 2.135-1.266a2.11 2.11 0 0 1 1.293.361c.341.291.52.73.48 1.177v.308h-2.6a3.59 3.59 0 0 0-2.387.732 2.58 2.58 0 0 0-.869 2.089c-.038.811.293 1.596.9 2.135.664.541 1.505.818 2.361.777a3.73 3.73 0 0 0 1.61-.325c.415-.183.776-.469 1.049-.832l.063.488.064.434zm-68.026-8.3a3.23 3.23 0 0 0-2.443-.941c-.622-.017-1.237.134-1.782.435-.483.27-.866.689-1.094 1.193-.241-.517-.64-.945-1.139-1.221-.547-.284-1.156-.424-1.772-.407-.508-.009-1.012.084-1.484.272a2.31 2.31 0 0 0-1.032.813l-.089-.813h-2.189v8.971h2.369v-5.086c-.043-.57.137-1.134.5-1.575.342-.354.82-.545 1.312-.524.459-.025.906.154 1.221.489.316.385.475.876.443 1.373v5.319h2.316v-5.082c-.043-.57.137-1.134.5-1.575.342-.354.82-.545 1.312-.524a1.61 1.61 0 0 1 1.23.48 1.97 1.97 0 0 1 .453 1.4v5.3h2.279v-5.655c.06-.965-.263-1.914-.9-2.641m19.1 14.631a2.15 2.15 0 0 0-1.624-.625 2.32 2.32 0 0 0-1.184.289c-.321.18-.576.458-.727.793a1.8 1.8 0 0 0-.757-.812 2.42 2.42 0 0 0-1.178-.27 2.53 2.53 0 0 0-.987.181 1.53 1.53 0 0 0-.686.54l-.059-.54h-1.455v5.954h1.575v-3.374c-.029-.378.089-.754.33-1.047.227-.235.545-.362.872-.348a1.04 1.04 0 0 1 .812.325 1.3 1.3 0 0 1 .294.912v3.532h1.54v-3.374a1.47 1.47 0 0 1 .329-1.047c.228-.235.546-.362.873-.348.305-.016.603.1.817.319a1.31 1.31 0 0 1 .3.931v3.519h1.515V47.82c.04-.642-.176-1.273-.6-1.756m-36.053-6.329h2.37V26.223h-2.37zm-3.78-3.709c.01.342-.046.684-.164 1.005a1.86 1.86 0 0 1-.436.668 1.6 1.6 0 0 1-.637.381c-.246.079-.504.119-.763.118a1.78 1.78 0 0 1-1.119-.308c-.262-.21-.408-.533-.39-.869-.015-.328.123-.645.373-.858a1.6 1.6 0 0 1 1.063-.317h2.073zm2.442 3.709a3.85 3.85 0 0 1-.118-.8l-.045-1.23v-3.433a3.5 3.5 0 0 0-1.1-2.894c-.809-.615-1.807-.928-2.822-.886a4.14 4.14 0 0 0-4 2.188l1.719.977c.388-.816 1.231-1.317 2.134-1.266.459-.024.913.103 1.294.361.341.291.52.73.479 1.177v.308h-2.605a3.59 3.59 0 0 0-2.387.732 2.58 2.58 0 0 0-.869 2.089 2.68 2.68 0 0 0 .9 2.135c.664.541 1.505.818 2.361.777a3.73 3.73 0 0 0 1.61-.325c.415-.183.776-.47 1.049-.832l.064.488.063.434zm-11.718-7.316a2.17 2.17 0 0 1-1.709.641h-2.352v-4.395h2.369a2.19 2.19 0 0 1 1.7.615 2.15 2.15 0 0 1 .56 1.5c.023.598-.18 1.182-.569 1.637m2.876-3.4c-.184-.514-.481-.981-.869-1.365-.397-.386-.871-.682-1.392-.869-.594-.213-1.222-.318-1.854-.308h-5.3v13.26h2.478v-4.522h2.8a5.14 5.14 0 0 0 1.854-.317 3.88 3.88 0 0 0 1.393-.9 3.97 3.97 0 0 0 .876-1.384 4.93 4.93 0 0 0 .308-1.781 5.2 5.2 0 0 0-.3-1.818"/><path d="M285.2 26.11h2.312v13.626H285.2zm18.29 13.625h-2.222v-1.1c-.233.42-.589.758-1.021.968a3.44 3.44 0 0 1-1.6.369c-.847.043-1.67-.288-2.25-.906a3.4 3.4 0 0 1-.821-2.393v-5.909h2.366v5.279a1.82 1.82 0 0 0 .406 1.3 1.42 1.42 0 0 0 1.094.431 1.56 1.56 0 0 0 1.246-.5 2 2 0 0 0 .433-1.373v-5.137h2.367zm-19.525 0h-2.222v-1.1c-.233.42-.589.758-1.021.968a3.44 3.44 0 0 1-1.6.369c-.847.043-1.67-.288-2.25-.906a3.4 3.4 0 0 1-.815-2.387v-5.915h2.367v5.279a1.82 1.82 0 0 0 .406 1.3 1.42 1.42 0 0 0 1.094.431 1.56 1.56 0 0 0 1.246-.5 2 2 0 0 0 .433-1.373v-5.137h2.367zm-63.177 8.859a3.42 3.42 0 0 1-.744 2.3 2.46 2.46 0 0 1-1.969.868 2.56 2.56 0 0 1-.986-.185 1.84 1.84 0 0 1-.738-.539l-.071.53h-1.459v-8.519h1.665v2.99a2.1 2.1 0 0 1 1.6-.612 2.48 2.48 0 0 1 1.933.862 3.34 3.34 0 0 1 .768 2.305m-2.03 1.224a1.91 1.91 0 0 0 .347-1.212c.024-.435-.1-.865-.35-1.222a1.26 1.26 0 0 0-1.919-.012 1.96 1.96 0 0 0-.344 1.234 1.94 1.94 0 0 0 .339 1.221 1.28 1.28 0 0 0 1.927-.009m2.954-6.151a1 1 0 0 1 .309-.757c.205-.199.482-.307.768-.3a1.05 1.05 0 0 1 .948 1.589 1.05 1.05 0 0 1-.948.511c-.286.009-.563-.1-.768-.3a1 1 0 0 1-.309-.744m.23 1.948h1.666v5.956h-1.666zm9.186 2.98a3.42 3.42 0 0 1-.745 2.3 2.47 2.47 0 0 1-1.969.868 2.58 2.58 0 0 1-.986-.185 1.84 1.84 0 0 1-.738-.539l-.071.53h-1.461v-8.519h1.666v2.99a2.1 2.1 0 0 1 1.6-.612 2.48 2.48 0 0 1 1.934.862c.537.644.812 1.467.769 2.305m-2.037 1.224a1.91 1.91 0 0 0 .347-1.212c.024-.435-.1-.865-.35-1.222a1.26 1.26 0 0 0-1.919-.012 2.38 2.38 0 0 0-.006 2.455c.245.276.597.434.966.432a1.28 1.28 0 0 0 .962-.441m3.131-6.768h1.666v8.522h-1.666zm2.995.617a1 1 0 0 1 .309-.757c.205-.199.482-.307.768-.3a1.05 1.05 0 0 1 .948 1.589 1.05 1.05 0 0 1-.948.511c-.286.009-.563-.1-.768-.3a1 1 0 0 1-.309-.744m.229 1.948h1.666v5.956h-1.666zm5.954-.187a3.02 3.02 0 0 1 2.254.88c1.155 1.307 1.155 3.269 0 4.576-.595.596-1.412.917-2.254.883a3.06 3.06 0 0 1-2.277-.88 3.45 3.45 0 0 1 0-4.582c.605-.595 1.429-.912 2.277-.877m-1.059 4.432c.262.307.644.483 1.047.483a1.38 1.38 0 0 0 1.048-.483 1.92 1.92 0 0 0 .4-1.265 1.96 1.96 0 0 0-.4-1.284 1.37 1.37 0 0 0-2.095 0 1.96 1.96 0 0 0-.4 1.284 1.92 1.92 0 0 0 .4 1.265m11.252-1.266c.043.839-.23 1.664-.765 2.311a2.49 2.49 0 0 1-1.948.862 2.09 2.09 0 0 1-1.589-.618v2.837h-1.666v-8.37h1.46l.071.53a2.11 2.11 0 0 1 1.724-.718 2.47 2.47 0 0 1 1.969.865 3.41 3.41 0 0 1 .744 2.3m-2.034 1.214c.25-.357.373-.788.35-1.224.025-.431-.098-.858-.347-1.21a1.29 1.29 0 0 0-1.928-.009c-.246.357-.365.786-.338 1.219-.026.439.095.874.344 1.236.24.282.592.443.962.441s.72-.168.957-.453m8.278 1.766h-1.6l-.083-.654c-.161.273-.402.489-.691.618a2.4 2.4 0 0 1-1.057.23c-.547.03-1.084-.152-1.5-.509a1.79 1.79 0 0 1-.547-1.386 1.73 1.73 0 0 1 .583-1.369c.439-.357.994-.538 1.559-.509h.93a.7.7 0 0 0 .462-.121c.104-.109.155-.259.139-.409v-.023c.002-.188-.093-.364-.251-.465a1.1 1.1 0 0 0-.65-.177 1.38 1.38 0 0 0-.789.215c-.208.138-.35.355-.394.6l-1.424-.406a2.07 2.07 0 0 1 .9-1.3 3.05 3.05 0 0 1 1.739-.48 2.66 2.66 0 0 1 1.89.624c.466.472.708 1.121.665 1.783v1.99a9.3 9.3 0 0 0 .112 1.748m-1.772-2.29v-.159h-1.283c-.206-.014-.41.047-.574.171a.59.59 0 0 0-.2.471c-.011.188.078.367.233.473a1.1 1.1 0 0 0 .638.162 1.21 1.21 0 0 0 .874-.3c.214-.218.326-.516.309-.821m3.117-6.229h1.666v8.522h-1.666zm18.16 8.522h-1.6l-.083-.654c-.161.273-.402.489-.691.618a2.4 2.4 0 0 1-1.057.23c-.547.03-1.084-.152-1.5-.509a1.79 1.79 0 0 1-.553-1.386 1.73 1.73 0 0 1 .583-1.369c.439-.357.994-.538 1.559-.509h.93a.7.7 0 0 0 .462-.121.52.52 0 0 0 .139-.409v-.023c.002-.188-.093-.364-.251-.465a1.1 1.1 0 0 0-.65-.177c-.278-.01-.553.065-.788.215a.91.91 0 0 0-.395.6l-1.424-.406c.117-.535.44-1.002.9-1.3a3.05 3.05 0 0 1 1.739-.48 2.66 2.66 0 0 1 1.89.624c.466.472.708 1.121.665 1.783v1.99a9.3 9.3 0 0 0 .112 1.748m-1.76-2.293v-.159h-1.283c-.206-.014-.41.047-.574.171a.59.59 0 0 0-.2.471.54.54 0 0 0 .232.473 1.1 1.1 0 0 0 .639.162 1.21 1.21 0 0 0 .874-.3c.214-.218.326-.516.309-.821"/></g></svg>