<?xml version="1.0" encoding="UTF-8" standalone="no"?>
<svg
   width="161"
   height="152"
   viewBox="0 0 161 152"
   fill="none"
   version="1.1"
   id="svg35"
   sodipodi:docname="vs_icon.svg"
   inkscape:version="1.1.2 (b8e25be833, 2022-02-05)"
   xmlns:inkscape="http://www.inkscape.org/namespaces/inkscape"
   xmlns:sodipodi="http://sodipodi.sourceforge.net/DTD/sodipodi-0.dtd"
   xmlns="http://www.w3.org/2000/svg"
   xmlns:svg="http://www.w3.org/2000/svg">
  <sodipodi:namedview
     id="namedview37"
     pagecolor="#ffffff"
     bordercolor="#999999"
     borderopacity="1"
     inkscape:pageshadow="0"
     inkscape:pageopacity="0"
     inkscape:pagecheckerboard="0"
     showgrid="false"
     inkscape:zoom="2.3651316"
     inkscape:cx="143.96662"
     inkscape:cy="64.689847"
     inkscape:window-width="1920"
     inkscape:window-height="1017"
     inkscape:window-x="-8"
     inkscape:window-y="-8"
     inkscape:window-maximized="1"
     inkscape:current-layer="svg35" />
  <defs
     id="defs33">
    <clipPath
       id="clip0_8_27">
      <rect
         width="161"
         height="152"
         fill="white"
         id="rect30" />
    </clipPath>
  </defs>
  <g
     aria-label="VS"
     id="text2613"
     style="font-size:96px;line-height:1.25;font-family:'Varela Round';-inkscape-font-specification:'Varela Round';fill:#000000;stroke:#ffffff;stroke-width:4;stroke-opacity:1">
    <path
       d="m 51.705238,110.83326 q -3.936,0 -5.952,-4.416 l -23.712,-57.504004 q -0.288,-0.768 -0.288,-1.632 0,-2.016 1.152,-3.168 1.152,-1.248 3.168,-1.248 1.344,0 2.4,0.864 1.152,0.768 1.728,2.112 l 22.56,56.256004 22.56,-56.256004 q 0.576,-1.344 1.632,-2.112 1.152,-0.864 2.496,-0.864 2.016,0 3.168,1.248 1.152,1.152 1.152,3.168 0,0.864 -0.288,1.632 l -23.712,57.504004 q -2.016,4.416 -5.952,4.416 z"
       style="stroke-linecap:round;stroke-linejoin:round;paint-order:stroke markers fill;stroke:#ffffff;stroke-opacity:1"
       id="path7943" />
    <path
       d="m 116.02534,111.31326 q -12.192,0 -22.847998,-4.608 -1.152,-0.48 -1.92,-1.536 -0.768,-1.152 -0.768,-2.4 0,-1.632 1.056,-2.784004 1.152,-1.248 2.88,-1.248 0.96,0 1.824,0.384 8.831998,3.936004 18.911998,3.936004 16.8,0 16.8,-11.040004 0,-2.88 -2.208,-4.8 -2.112,-1.92 -5.28,-2.976 -3.168,-1.152 -9.024,-2.688 -7.776,-2.016 -12.576,-3.84 -4.799998,-1.92 -8.255998,-5.664 -3.456,-3.744 -3.456,-9.984 0,-5.472 2.88,-9.888 2.88,-4.512 8.447998,-7.104 5.664,-2.688 13.536,-2.688 10.56,0 19.104,3.168 2.688,0.96 2.688,3.84 0,1.536 -1.056,2.784 -1.056,1.248 -2.784,1.248 -0.576,0 -1.536,-0.384 -7.488,-2.592 -15.456,-2.592 -7.584,0 -12.384,2.88 -4.703998,2.88 -4.703998,8.064 0,3.456 2.207998,5.664 2.304,2.112 5.664,3.36 3.456,1.152 9.312,2.496 7.584,1.824 12.192,3.648 4.704,1.824 7.968,5.664 3.36,3.84 3.36,10.368 0,5.376 -3.072,9.696004 -3.072,4.224 -8.64,6.624 -5.568,2.4 -12.864,2.4 z"
       style="stroke-linecap:round;stroke-linejoin:round;paint-order:stroke markers fill;stroke:#ffffff;stroke-opacity:1"
       id="path7945" />
  </g>
</svg>
