<svg xmlns="http://www.w3.org/2000/svg" width="400" height="400" viewBox="0 0 300 300" preserveAspectRatio="xMidYMid meet" xmlns:v="https://vecta.io/nano"><g stroke="#9e633b" stroke-linejoin="round"><g stroke-width="3.394"><path d="M117.631 96.306c-.943-5.128 17.311.287 21.268-.357 1.033-.168 9.964.718 14.278-.117 1.351-.262 21.442-2.079 31.5-.315 6.477 1.136 1.903 5.73 8.425 6.61 14.903 2.01 25.688 1.791 25.792 1.798 5.084.357 1.158 13.329-1.697 13.595-.881.082 4.381 11.6-10.972 15.069-1.39.314-20.777-20.002-22.824-19.63-3.835.697-18.165.663-21.732 1.072-17.18 1.97-41.845-4.073-44.434-4.135-5.216-.126-5.52-11.341.399-13.59" fill="#84b5d4" stroke-opacity="0" paint-order="normal"/><path d="M104.876 66.665c-.943-5.128 20.728 4.63 23.695 1.099.673-.801 17.386-12.888 21.699-13.724 4.209-.815 10.709 5.905 10.929 5.892 1.192-.068 11.232 4.776 12.684 8.189 0 0 22.144-5.774 22.449-1.23.297 4.427-9.447 23.131-11.996 23.402-4.176.444-35.696-.133-39.174.071s-25.284.055-27.867.253c-3.985.307-12.134-19.524-12.419-23.952" stroke-opacity="0" paint-order="normal" fill="#fff"/></g><path d="M220.408 195.394c1.963 17.462-2.736 26.524-13.546 37.696-2.452 2.534-20.952 8.979-35.651 10.774-14.343 1.751-40.759.641-41.5.632-4.024-.051-36.819-7.682-40.896-19.5 0 0-10.823-13.56-10.776-28.909.045-14.955 32.116-81.375 40.748-81.685 14.146-.509 21.733-.631 33.474-.499s20.029-.161 28.759-.221c13.47-.093 39.474 66.758 39.388 81.713" fill="#fff" stroke-opacity="0" paint-order="normal" stroke-width="11.438"/></g><path d="M144.902 50.204c-1.412.504-4.876 2.993-7.734 5.548-8.877 7.969-8.44 7.835-20.714 5.447-9.146-1.782-11.904-1.278-14.863 2.623-3.497 4.573-2.858 7.6 4.035 18.898 5.548 9.113 6.658 11.567 5.246 11.567-1.076 0-3.43 5.683-3.43 8.238 0 3.329 1.042 5.817 3.464 8.339l2.051 2.118-3.968 5.616c-20.748 29.289-37.964 69.943-30.062 71.019 2.219.303 2.892-.74 4.64-7.431 4.237-16.342 13.316-34.871 27.708-56.459l7.062-10.592h22.698c24.278 0 24.917-.101 24.917-3.464 0-2.488-1.042-2.589-25.085-2.589h-23.438l-1.984-1.95c-2.791-2.825-2.757-6.658.135-9.079l2.051-1.749h33.29 33.29l1.984 1.95c5.111 5.145 1.48 10.155-7.801 10.794-5.279.37-5.38.404-5.582 2.253-.37 3.026.841 3.833 5.649 3.833 4.943 0 4.136-.807 13.35 13.114 44.555 67.253 36.888 109.118-21.151 115.271-55.349 5.851-87.294-8.373-89.85-40.083-.504-6.019.49-18.776-2.167-18.103-2.287.572-4.256 13.328-3.516 20.625 3.094 29.894 27.775 44.353 75.794 44.353 59.586 0 84.1-23.337 72.768-69.27-2.757-11.198-12.812-34.097-18.797-42.84-2.556-3.699-2.488-4.405.37-3.195 8.373 3.497 15.737-2.186 14.997-11.567-.303-3.766-.202-4.405.942-5.01 3.733-1.984 5.01-8.608 2.656-13.787-2.556-5.582-6.826-7.196-14.459-5.414a84.27 84.27 0 0 1-9.953 1.547l-5.145.437-1.11-2.623c-.572-1.446-1.681-3.262-2.421-4.035l-1.345-1.446 5.548-8.978c8.238-13.451 8.777-16.443 3.733-21.319-3.06-2.959-5.616-3.228-13.888-1.547-11.467 2.32-11.567 2.32-18.932-4.069-9.079-7.869-13.955-9.516-20.983-6.994zm9.146 5.347c1.177.504 4.573 3.127 7.532 5.784 8.81 7.902 10.794 8.407 23.539 5.952 13.013-2.556 13.585-1.11 5.246 12.879l-6.053 10.122-33.559.034h-33.559l-5.851-9.617c-8.844-14.493-8.07-16.174 5.851-13.316 11.769 2.421 14.022 1.782 22.866-6.255 7.331-6.692 9.483-7.532 13.989-5.582zm63.487 50.272c2.488 2.354 1.883 7.028-1.143 8.642-1.042.572-2.892.034-9.247-2.757-10.189-4.506-11.097-5.279-6.187-5.38 2.018-.034 5.347-.437 7.364-.908 5.616-1.311 7.465-1.211 9.214.404zm-18.326 9.012c1.849 1.076 5.616 2.757 8.407 3.733 6.12 2.152 7.969 4.102 7.028 7.398-2.253 7.869-14.358 4.002-21.958-6.961l-4.271-6.187 1.715-1.48 1.715-1.48 2.018 1.513c1.11.841 3.531 2.387 5.347 3.464zm-77.207 25.891c-3.262 2.556-.975 7.263 2.589 5.347 1.311-.706 2.051-.74 3.396-.101 3.901 1.782 6.019-2.522 2.556-5.246-1.076-.841-2.757-1.379-4.271-1.379s-3.195.538-4.271 1.379zm49.23-.37c-.975.538-1.95 1.446-2.152 1.984-.975 2.556 1.917 4.977 4.371 3.699 1.042-.572 1.849-.572 3.06-.034 1.816.841 3.8.135 4.472-1.58 1.412-3.665-5.313-6.456-9.752-4.069zm-27.103 3.397c-1.379 1.412-1.311 2.455.303 4.54 3.295 4.17 10.794 3.632 13.148-.908 1.782-3.497-2.118-6.255-4.741-3.329-.673.74-1.513 1.345-1.849 1.345s-1.412-.605-2.354-1.345c-2.051-1.614-3.094-1.681-4.506-.303zm4.842 23.673c-1.11 1.244-12.038 19.907-12.778 21.79-.538 1.446 1.244 3.934 2.858 3.934 1.513 0 2.589-1.513 7.7-10.626 2.152-3.8 4.035-6.793 4.203-6.624.975.975 6.053 9.819 5.817 10.088-.202.168-1.244.067-2.354-.269-2.589-.74-3.833-.202-4.371 1.849-.605 2.488.773 3.329 7.499 4.573 7.196 1.311 7.095 1.412 10.054-6.725l1.883-5.178-1.345-1.345c-1.849-1.849-3.833-1.076-5.044 1.95l-.975 2.421-3.564-6.322c-6.019-10.693-7.364-12.005-9.584-9.516zm-23.202 31.339c-5.212.975-6.793 2.32-5.649 4.842.74 1.681 1.042 1.749 3.8 1.345l2.959-.437-4.674 7.936c-7.062 11.971-7.364 11.635 10.122 11.635 13.921 0 14.796-.168 14.796-3.127 0-2.656-2.085-3.127-12.24-2.791-5.111.168-9.214.135-9.113-.101 1.379-2.925 5.649-10.088 5.986-10.122.269 0 .673.908.908 2.018.74 3.363 3.699 4.338 5.347 1.816.942-1.446.874-1.984-1.009-6.893-3.026-7.801-2.724-7.633-11.231-6.12zm41.024-.134c-1.412 1.412-1.009 2.455 3.867 10.693 5.784 9.752 5.851 9.046-1.009 9.046-3.161 0-5.716-.101-5.716-.235 0-.101.605-1.009 1.345-1.95 2.219-2.791 1.379-5.548-1.681-5.548-1.681 0-9.079 8.642-9.079 10.592 0 2.354 6.826 10.222 8.877 10.256 3.43 0 3.867-2.69 1.009-5.885l-1.379-1.513h9.886c13.619 0 13.484.471 4.674-14.527-6.86-11.736-8.407-13.316-10.794-10.929z"/></svg>