<svg xmlns="http://www.w3.org/2000/svg" width="793.701" height="1122.52" viewBox="0 0 210 297" xmlns:v="https://vecta.io/nano"><g transform="matrix(.166776 0 0 -.166775 -934.178818 842.330545)"><g transform="matrix(13.801651 0 0 -13.801651 5413.6721 5180.5605)" stroke="#000"><path d="M53.011 27.754l10.685-.278 1.388 1.804-.971.555 1.526 21.371 4.441 8.049L72.3 65.5l-.278 33.999 1.526 9.714-.416 5.273-3.886 4.163-20.261.139-4.996-4.024-.971-4.163.278-4.996 1.11-6.522-.139-32.889.555-3.192 5.412-10.13.694-1.11.971-5.69.278-10.408.971-4.996-.971-1.11z" fill="#f68e2e" stroke-width="2.607"/><path d="M44.857 66.247l26.562.032-.133 30.703-26.08.081z" fill="#4fbd37" stroke-width=".946"/><path d="M52.79 27.285l11.088-.221 1.03-1.128v-2.38l-1.178-1.128-11.211-.074-.883 1.3.074 2.502z" fill="#3d383a" stroke-width="2.607"/><path d="M66.391 79.685c-.01-.026-.036-.046-.057-.046-.069 0-.109-.08-.122-.245a.51.51 0 0 0-.052-.208c-.021-.025-.036-.097-.032-.157.005-.079-.013-.131-.064-.186-.291-.236-.618-.447-.975-.558a2.18 2.18 0 0 0-1.417.059l-.281.122a.98.98 0 0 0-.245.173c-.066.065-.128.116-.139.113-.028-.008-.187.304-.187.366 0 .028-.02.059-.046.069-.033.012-.046.063-.046.169s-.017.166-.057.202c-.054.049-.059.045-.098-.073-.023-.068-.053-.124-.069-.124s-.02.013-.01.029.007.036-.007.044c-.03.019-.027.148.004.199.035.057-.175.047-.302-.014-.098-.047-.105-.06-.09-.157.015-.089.007-.108-.049-.123-.097-.026-.099-.227-.004-.405.056-.105.434-.855.495-.794s-.316.81-.281.733c.025-.054.026-.089.004-.116s-.011-.085.044-.203c.042-.09.069-.176.061-.19s.005-.025.032-.025.061-.026.078-.058.065-.067.107-.077.213-.081.245-.093c-.153-.031-.058.035-.11.094-.553-.285 1.44-.347.11-.094-.033-.033.148-.165.276-.203a.98.98 0 0 0 .201-.082c.108-.069.745-.162 1.247-.182.304-.012.773.06 1.052.162l.062.021c.009.002.043.019.077.037a.81.81 0 0 0 .147.054c.047.012.085.034.085.051s.021.03.046.03.046.014.046.031.021.031.047.031.055.021.065.046.038.046.063.046c.036 0 .035.011-.009.054-.052.052-.051.055.004.065.032.006.064-.004.07-.023s.027-.034.045-.034c.05 0 .359.34.415.457.027.055.06.101.074.101s.042.08.062.178.048.193.063.211c.028.035.017.264-.018.377s-.2.194-.383.194c-.114 0-.165-.013-.178-.046zm-17.13-.007c-.117-.014-.283-.124-.357-.238-.041-.063-.041-.081 0-.16.026-.049.047-.115.047-.147 0-.052.041-.161.135-.358.02-.041.101-.115.181-.164.107-.066.155-.12.182-.204.042-.131.175-.283.249-.284.027 0 .089-.032.137-.069a2.01 2.01 0 0 1 .804-.292c.119-.01.279-.039.356-.064.182-.06.612-.06.867 0 .111.026.294.054.408.062.147.01.231.033.288.078.045.035.152.087.239.116.144.048.256.11.455.254a.85.85 0 0 1 .163.197c.05.081.128.16.179.181.091.038.156.16.156.292 0 .036.035.131.077.211s.077.185.077.233c0 .187-.177.318-.431.318-.141 0-.16-.009-.203-.091a.52.52 0 0 1-.047-.201c0-.06-.014-.11-.031-.11s-.031-.076-.031-.17v-.17l-.149-.075a1.15 1.15 0 0 1-.277-.219c-.112-.125-.171-.158-.463-.263-.184-.066-.46-.142-.614-.17-.297-.053-.368-.045-.882.095l-.356.087c-.15.033-.201.06-.263.143-.084.111-.094.263-.239.385-.075.063-.3.358-.318.503-.012.098.045-.085.029-.085s-.029.038-.029.085c0 .173-.031.226-.116.204-.069-.017-.077-.012-.061.047.011.041.004.065-.018.061l-.144-.018zm9.819 4.562c-.187-.021-.382-.061-.433-.089s-.114-.05-.139-.05c-.063 0-.319-.131-.35-.178-.013-.021-.043-.039-.065-.039s-.065-.028-.096-.062c-.105-.116-.337-.066-.541.116-.043.038-.091.07-.107.07s-.051.019-.078.041a.79.79 0 0 1-.235.083c-.102.023-.2.051-.217.064-.112.081-1.278.063-1.362-.022a.34.34 0 0 0-.145-.063c-.236-.045-.623-.296-.774-.501-.18-.246-.273-.469-.273-.658 0-.098.015-.188.034-.2.064-.039.43-.055.43-.019 0 .019.021.026.046.016s.046 0 .046.029.019.054.042.062.049.086.06.189c.02.194.147.425.262.479.038.018.07.047.07.064s.022.032.048.032.1.026.163.059c.291.149.517.184.975.153.255-.017.319-.032.402-.096a.71.71 0 0 1 .177-.099c.147-.044.365-.293.464-.532.051-.123.093-.245.093-.271 0-.071.11-.116.257-.106.115.009.131.019.133.087.005.176-.012-.062.079-.062s.149.303.15.442c0 .1.238.386.338.408.05.011.107.039.127.062s.135.073.258.111a2.3 2.3 0 0 0 1.029.014c.19-.055.495-.247.611-.385s.208-.347.208-.473a.34.34 0 0 1 .026-.142c.032-.051.436-.084.5-.04s.051.367-.018.546l-.05.131-.103-.066c-.146-.23-.998.404-.051.153.07-.023.071-.022.026.064-.072.138-.257.305-.44.397a1.08 1.08 0 0 0-.138.079 1.99 1.99 0 0 1-.444.129c-.015-.004-.043.004-.062.02a2.12 2.12 0 0 1-.537.093l-.397-.042z" paint-order="stroke fill markers" stroke-width=".234"/></g><g stroke="#000"><path d="M6417.902 4106.666l-7.571-87.002 16.248 34.082 4.083 8.928 1.651-7.394 8.238-.379 4.767-.494 3.974 10.384.849-8.375-.425-9.572-1.023-11.688-1.276-11.136-.85-14.357.512-14.357 1.446-12.609 2.297-9.572 3.403-10.4 2.978-4.786 2.211-2.945 2.765-1.381 2.849.322 2.68 1.841 2.637 3.405 5.529 12.471 2.892 11.274 2.722 14.035 2.808 22.134 1.574 21.858.512 13.575-.642 14.081-1.787 10.078-3.148 7.04-5.188 5.108-6.975 3.083-7.359 1.426-10.421.415-8.932.322-4.423.322-4.339.552-5.699 1.611-3.956 1.933-3.318 2.899zm-400.27-22.387l6.227-78.056-14.904 25.136-4.083 8.928 1.368-9.551-6.727 7.774-6.445 2.131-4.022-3.521-3.653-3.092.425-9.572 1.024-11.689 1.276-11.136.85-14.357-.512-14.357-1.446-12.609-2.297-9.572-3.403-10.4-2.978-4.786-2.211-2.945-2.765-1.381-2.849.322-2.68 1.841-2.637 3.405-5.529 12.471-2.892 11.274-2.722 14.035-2.808 22.134-1.574 21.858-.511 13.575.642 14.081 1.787 10.078 3.148 7.041 5.188 5.108 6.975 3.083 7.359 1.426 10.421.415 8.932.322 4.423.322 4.339.552 5.699 1.611 3.956 1.933 3.318 2.899z" stroke-width="11.326"/><path d="M6114.94 3535.563l62.97-.647-6.701-4.418-3.507-4.88-1.982-7.091 1.214-14.486 4.955-20.281 1.215-17.994-2.287-11.513-2.745-4.803-3.202-2.287-7.09-.915-12.734-2.211-11.208-2.973-18.069-5.413-13.039-4.041-9.606-2.135-8.768-.083-7.243 1.525-5.261 3.583-3.278 5.49.152 7.777 2.821 7.624 5.185 5.718 7.395 4.88 8.616 2.821 9.225.915 6.099.534 3.889.991 4.269 2.364 3.507 2.897 3.05 4.346 2.211 6.938.911 7.853-.842 12.657-2.058 9.912-2.745 8.158-2.44 5.566zm213.846-3.043l-62.97-.647 6.701-4.418 3.507-4.88 1.982-7.091-1.214-14.486-4.955-20.281-1.215-17.994 2.287-11.513 2.745-4.803 3.202-2.287 7.09-.915 12.733-2.211 11.208-2.973 18.069-5.413 13.038-4.041 9.606-2.135 8.768-.082 7.243 1.525 5.261 3.584 3.278 5.489-.152 7.777-2.821 7.624-5.185 5.718-7.395 4.88-8.616 2.821-9.225.915-6.099.534-3.889.991-4.269 2.364-3.507 2.897-3.05 4.346-2.211 6.938-.911 7.853.842 12.656 2.058 9.912 2.745 8.158 2.44 5.566z" stroke-width="13.802"/></g></g></svg>