<svg xmlns="http://www.w3.org/2000/svg" width="793.701" height="1122.52" viewBox="0 0 210 297" xmlns:v="https://vecta.io/nano"><path d="M137.355 214.511c-.735-.192-1.684-.661-1.903-.903-.257-.284.019-.552.599-.723.702-.207 3.453-.371 4.291-.213.693.131 1.332.517 1.332.767 0 .202-.531.766-.993.963-.548.234-2.417.339-3.142.149zm-7.867-4.412c-.917-3.307-.389-8.763.449-37.465 1.406-48.203 1.451-53.178 5.091-57.207 2.714-3.004 9.565-6.249 13.693-6.592 5.395-.447 6.612.913 5.053 12.716-1.088 8.24-2.644 33.903-2.67 54.597-.023 17.463-.812 29.013-1.985 31.397-.957 1.946-3.447 2.582-4.798 1.595-1.543-1.128-2.801-7.873-2.706-33.151.063-16.736-.89-23.975-.89-23.975-.681-.515-1.051.004-1.973 4.726-.525 2.689-1.327 11.048-1.382 27.057.832 14.545.335 24.475-.164 25.491-.719 1.739-4.743 4.539-5.948 4.539-.44 0-1.478-1.15-1.635-1.719zm-8.053 7.568l-18.826-4.807-46.134-12.447c-.318-.25-3.568-45.699-4.583-61.031-1.158-17.496-.523-35.122.583-36.634 1.034-1.61 1.98-.261 20.778 3.239 23.711 4.415 42.796 9.498 49.052 11.509l5.909 1.9-.094 7.054c-.051 3.88-.384 12.454-.739 19.054-.784 14.586-.818 38.714-.07 50.349 1.232 19.171 1.416 22.925.902 22.873-.291-.029-1.876.443-4.314-.19zm.643-103.49c-5.495-1.415-8.252-2.673-9.743-4.947-1.249-1.906-2.703-11.146-1.865-11.984.412-.412 4.323-.133 10.133.877l14.823 2.393 9.145 1.375c3.037.656 8.077 2.942 7.487 3.532.23.832-2.734 2.023-5.355 2.008-5.041.565-7.33 1.399-10.811 4.574-4.485 4.092-5.895 4.212-13.816 2.172zm-56.581-12.805l-9.781-3.866 4.553-1.45c2.018-.581 6.606-1.926 10.14-2.766 7.439-1.768 8.216-2.999 8.23 2.211.015 4.094-.509 8.772-1.918 8.74-.577-.013-6.28-1.179-11.224-2.869zm32.51 6.714c-2.113-.406-9.168-1.089-11.341-1.124-4.095-.066-3.672-1.165-4.442-2.376-.246-.386-.644-2.867-.649-5.671-.015-6.431.669-7.714 5.461-6.722 1.864.386 8.448 1.457 12.186 1.749 8.518.667 7.768 1.387 7.768 8.117 0 2.538-.29 5.777-.488 6.291-.42 1.095-2.902.811-8.496-.263z" paint-order="normal" fill="#f2cc7b"/><path d="M109.354 71.616c-2.012 1.257-9.138 9.202-8.132 10.208.754 1.006 9.641-5.933 11.653-7.442 6.538-5.532 14.082.754 14.082 11.819 0 9.304 0 9.556-8.802 8.55-6.538-.754-8.801-2.263-8.801-5.784 0-6.287-8.802-14.837-15.088-14.837-3.018 0-8.298 3.018-11.819 6.538-3.772 3.772-13.328 8.801-21.626 11.568-8.047 3.018-13.441 6.65-13.441 6.65l.504 33.268 2.71 46.177 3.185 23.82 9.318 3.441c12.322 4.778 12.308 3.576 8.536 8.103-1.76 2.263-4.778 3.521-6.79 2.766-1.76-.754-3.269-.251-3.269.754 0 5.281 7.796 4.526 12.322-1.257 4.023-5.029 6.286-5.784 12.07-4.526 3.772 1.006 9.839 6.889 13.108 10.409 3.018 3.521 9.121 9.312 10.379 8.306 1.006-1.006-2.298-5.599-5.065-7.863-7.297-7.835-6.669-6.964-1.639-5.707 23.889 6.538 28.295 6.883 29.049 4.368.503-1.509 2.952-2.608 5.97-2.608s8.443-2.063 11.461-3.823c5.532-3.018 6.18-4.512 7.185-58.075.754-39.983 1.202-55.072-1.062-55.826-1.509-.503-8.783-1.588-13.812-2.594-8.801-1.257-9.556-2.263-9.556-9.556 0-15.088-11.568-23.89-22.632-16.848zm-4.778 14.334c1.258 3.521 1.006 5.784-.251 5.784-1.509 0-1.11-6.27-1.361-9.539 0-5.532-1.405-1.777-4.171 3.504-1.76 3.772-4.023 5.029-8.55 4.024-6.789-1.257-7.544-3.018-3.018-7.544 4.778-4.778 15.088-2.515 17.351 3.772zM78.172 98.02c-.251 7.293 0 7.293-12.573 2.766l-9.807-3.269 9.807-2.766c5.533-1.257 10.562-2.515 11.316-2.766 1.006-.251 1.509 2.515 1.257 6.035zm21.878-3.772c6.036 0 6.79 1.006 6.79 7.796 0 7.041-.754 7.796-5.532 6.287-3.269-.754-8.801-1.509-12.573-1.509-6.287 0-7.041-1.006-7.041-7.796 0-7.041.754-7.796 5.784-6.287 3.018.754 8.55 1.509 12.573 1.509zm37.72 6.79c12.573 1.509 18.86 5.784 8.55 5.784-3.269 0-8.047 2.012-10.31 4.778-3.521 4.023-5.784 4.275-13.831 2.263-8.298-2.012-10.059-3.772-10.813-10.059-1.258-7.293-1.006-7.544 6.538-5.784 4.275.754 13.328 2.263 19.866 3.018zm-49.791 8.047c13.831 3.018 28.668 6.538 32.691 7.796l7.544 2.515-1.509 26.907c-.754 14.837-.754 37.217 0 49.791l1.509 22.632-21.375-5.281-35.457-9.556-13.831-4.023-3.018-34.703c-1.76-18.86-3.018-40.989-3.018-49.288 0-13.831.251-14.585 5.784-13.328 3.018.754 16.849 3.772 30.679 6.538zm65.13 12.07c-1.257 6.79-2.011 28.919-2.011 49.791-.251 33.697-.755 37.72-4.527 38.475-4.024.754-4.527-2.012-4.778-31.434-.251-25.398-.754-30.428-2.766-23.638-1.257 4.778-2.012 19.112-1.509 31.937.755 20.62.251 23.638-4.023 26.153-4.778 3.018-4.778 1.76-3.269-45.516 1.258-47.025 1.509-48.533 7.293-53.06 3.269-2.515 8.298-4.526 11.568-4.526 5.532 0 5.784.503 4.023 11.819zm-11.819 92.792c-.755.754-3.017 1.006-4.778.251-2.012-.754-1.258-1.509 1.509-1.509 2.766-.251 4.275.503 3.269 1.257zm-2.841-73.653c0 1.257 1.257 2.515 2.766 2.515 1.257 0 1.76-1.257 1.006-2.515-.754-1.509-2.012-2.515-2.766-2.515-.503 0-1.006 1.006-1.006 2.515zm-41.613 40.657c-5.784 0-13.579-1.509-17.351-2.766-10.813-4.275-3.772-8.047 13.076-7.041l14.837.754-11.316 3.018-11.316 3.269 11.064-1.509c7.544-.754 11.819-.251 13.328 2.012m1.768.732c.706-.129.244-2.115.244-4.504 0-3.772-.754-7.293-1.76-7.041-20.872 1.509-36.463-1.006-38.475 1.509-6.538 7.796 13.328 17.1 28.919 13.579 3.52-.754 11.245-3.002 10.837-3.285"/><g fill="#fff"><path d="M79 177.588c-1.379-.601-3.002-1.688-3.606-2.416-.925-1.115-.86-1.449.418-2.121 2.786-1.466 10.226-1.992 19.287-1.362l8.975.623-8.776 2.435c-4.827 1.339-9.133 2.787-9.57 3.217-1.091 1.076-3.737.928-6.728-.376z" paint-order="normal"/><path d="M94.55 180.85c-4.398-.259-10.394-1.284-14.194-2.427-1.98-.595-4.198-1.747-5.18-2.689-.884-.848-1.039-1.551-.498-2.261.7-.918 3.022-1.708 6.162-2.097 3.581-.444 6.645-.467 13.742-.103l10.871.55 1.58.082c.089.007-2.277.664-5.258 1.459-5.722 1.526-15.742 4.38-16.024 4.565-.092.06-.135.12-.097.133s2.317-.285 5.063-.661l6.381-.811c1.828-.167 5.264-.234 6.523-.127 2.489.212 4.094.762 5.078 1.743.365.364.402.422.295.465-.067.027-2.826.544-6.132 1.149-6.636 1.214-6.176 1.157-8.312 1.031z" paint-order="normal"/></g><path d="M73.623 139.415c-.754 2.012-1.006 5.029-.251 6.79 1.006 2.012 1.509 1.509 1.509-1.257.251-5.281 5.281-5.784 5.281-.251 0 2.012 1.258 3.018 2.515 2.263 1.76-1.006 1.76-3.269 0-6.538-3.269-5.784-7.041-6.287-9.053-1.006zm22.632 0c-1.006 2.263-1.006 4.778 0 5.532.755 1.006 1.509.251 1.509-1.257 0-4.526 4.527-3.521 6.035 1.257.755 2.766 1.006 2.012.755-1.509-.503-7.293-6.036-10.059-8.299-4.023zm44.667-20.23c-.453 1.96.13 3.902 1.6 4.241 1.225.283 2.112-1.319 1.829-3.449-.527-2.187-1.111-4.128-1.601-4.241s-1.376 1.489-1.829 3.449z"/></svg>