<svg xmlns="http://www.w3.org/2000/svg" width="354" height="434" xmlns:v="https://vecta.io/nano"><style><![CDATA[.Q{stroke-opacity:0}.R{stroke-linejoin:round}.S{stroke-width:.945}.T{stroke-width:2.673}.U{fill:#83d891}.V{stroke-width:1.337}.W{stroke-width:5.346}]]></style><path d="M54.281 126.233c0 .347-2.288 3.213-4.156 5.643l-4.084 5.485c-.287.555-1.415 1.856-2.205 3.036l-3.636 6.191c-1.149 2.36-1.835 4.866-2.41 5.075l-1.553 3.995c.216.625-.967 3.124-1.757 5.554-3.017 9.858-4.769 18.284-4.41 21.478-.439.728-.424 2.529-.547 3.471l-.061 9.341c.287.486.857 6.148 1.575 11.91.647 5.693 1.708 12.118 2.354 14.617l3.553 12.534c.79.486 1.746 3.623 2.465 5.428 1.365 3.471 6.361 13.797 7.51 15.671l3.83 6.046c1.652 2.499 2.448 4.792 2.813 4.992.203.112.686 1.116.707 1.515.019.359 1.21 1.344 2.504 3.08 1.221 1.666 3.272 4.715 5.427 7.144s32.005 29.639 32.005 30.194c11.498 12.167 8.274 23.764 57.659 21.791 27.947-.069 62.341-1.875 88.854-1.194 11.71-2.569 7.117-.845 18.038-5.636 8.39-6.736 15.867-10.665 21.744-14.386 4.744-2.539 14.239-8.732 14.49-9.062.581-.234 6.912-4.185 10.935-7.865 3.88-3.541 11.104-12.671 13.259-16.837.79-1.458 2.3-5.971 3.364-7.216l3.366-10.885c.603-1.291 2.032-13.086 2.822-25.652.359-6.526-.289-12.712-.073-13.198l-.904-5.584c-.042-1.089.128-2.333-.159-4.832-.216-2.36-.889-5.391-1.391-8.029-.575-2.708-.755-4.32-.929-5.417l-1.179-4.726c-.503-.208-.638-2.97-1.356-4.845-.718-1.805-1.983-5.424-3.492-8.409-1.509-3.055-3.913-5.746-3.77-6.163l-4.583-4.629c-1.581-1.111-1.204-1.551-2.785-2.662-.682-.479.132.075-6.262-4.09-5.029-3.332-13.622-4.139-16.956-4.677-1.207-.195-3.949-.003-4.42-.364-.79-.054-2.102.071-2.732.181-1.177.251-1.486.301-3.426.509-7.544.903-16.845 5.55-28.412 12.84-14.009 8.887-31.108 25.618-41.669 40.753-6.897 9.858-15.125 22.948-15.197 27.808 0 2.152-1.099 2.756-4.117 1.368-3.448-1.597-5.222-.736-12.838 2.874l-5.5 2.291-2.383-1.61c-10.992-11.386-28.199-32.224-28.199-34.098 0-.278-.775-2.034-1.35-2.59-2.73-2.916-11.279-19.8-16.237-32.644-1.221-3.263-1.98-6.411-2.555-7.661s-1.131-2.732-1.131-3.287c0-.486-.89-3.933-2.039-7.543-1.221-3.61-2.808-9.6-4.029-13.21-2.299-7.012-2.973-9.549-5.201-14.27-1.149-2.43-1.752-2.979-1.105-5.339l2.896-11.052c0-4.096.113-5.405-2.258-7.557-1.652-1.527-2.03-2.832-2.03-4.012 0-1.666-2.312-4.756-4.97-4.756-2.946 0-4.508 1.131-3.287 3.352 1.006 1.805-.4 3.228-3.418 1.978-3.736-1.527-7.11-.108-10.056 5.516-1.293 2.43-2.486 4.018-2.558 4.643 0 .625-1.362 1.798-1.649 2.006-1.149.694-3.014 2.312-3.014 1.132-7.721 5.802-4.64 2.98-7.853 6.2-1.293.833-2.984 2.575-3.99 3.408zm36.59-22.298c2.299.625 2.802 2.846 1.078 4.652-.79.833-2.802 3.471-4.454 5.901-2.802 3.957-3.017 4.79-2.946 8.331.072 2.152.431 5.832.79 8.123s.718 9.789.79 16.662c0 13.677.862 28.673 2.083 37.768.431 3.194.575 5.971.359 6.179-.216.278-1.221-.417-2.227-1.458-2.443-2.569-6.466-2.569-9.555-.069-3.161 2.569-3.88 4.096-2.874 5.971.79 1.458.862 1.389 3.305-1.389 3.017-3.541 4.885-3.68 7.831-.764 1.149 1.18 2.802 2.43 3.592 2.708 1.149.417 1.652 1.458 2.012 3.957.287 1.805.79 4.235 1.149 5.415.359 1.111 1.365 4.443 2.227 7.29 3.017 10.414 7.256 20.134 18.895 43.738.503.972 1.724 3.194 2.802 4.929l1.94 3.194-1.724 1.111c-.934.625-2.586 1.319-3.592 1.597-1.006.208-1.868.694-1.868.972s-1.006.903-2.155 1.319c-1.868.555-2.155 1.041-2.155 3.124 0 1.389-.216 2.499-.575 2.499-.287 0-2.299-2.569-4.454-5.693-2.155-3.194-4.095-5.901-4.311-6.109-1.581-1.319-8.046-13.399-13.219-24.507-1.868-3.957-3.161-4.79-4.67-2.985-.647.694-.431 1.736.934 4.304l4.67 9.303c5.46 10.83 8.334 15.413 16.38 25.826l5.245 6.804v6.109c0 4.304-.287 6.526-1.078 7.429-3.808 4.929-3.736 4.86-4.813 3.957-.647-.486-3.305-2.013-6.035-3.402-9.196-4.721-21.409-14.718-28.665-23.466-1.581-1.944-3.089-3.61-3.377-3.68-.359-.139-.575-.555-.575-.972s-.934-1.875-2.012-3.263c-2.227-2.708-7.687-11.525-9.627-15.343-4.382-8.956-5.604-11.664-5.604-12.566 0-.555-.431-1.597-.934-2.36-.862-1.319-2.012-4.652-4.311-12.844-1.868-6.665-3.377-15.621-3.377-20.203 0-4.235.144-4.513 3.017-7.359 1.652-1.666 3.448-2.985 3.951-2.985.431 0 2.083 1.389 3.592 3.124 1.437 1.736 2.946 3.124 3.233 3.124 1.293 0 2.155-2.916 1.293-4.721-2.227-4.929-9.555-7.012-13.219-3.68-.934.833-1.868 1.319-2.012.972-.647-1.18 1.868-19.786 2.946-21.73.359-.625.862-2.152 1.078-3.471.575-2.708 2.299-7.567 3.736-10.9.575-1.18 1.006-2.638 1.006-3.194 0-.625.287-1.319.718-1.527.359-.208 1.509-2.083 2.515-4.027 4.526-8.887 11.567-17.287 18.679-22.425 2.802-2.013 8.909-5.138 10.13-5.138 2.012-.069 5.029-4.304 6.466-9.025 1.293-4.582 3.808-6.179 7.975-5.138zm8.98 4.027a18.17 18.17 0 0 1-1.006 3.749c-1.94 4.513-3.377 8.956-3.448 10.206 0 .764 1.006 3.263 2.155 5.554s2.155 4.721 2.155 5.346.287 1.319.647 1.527c.359.278.862 1.666 1.149 3.194s.718 2.916 1.078 3.124.79 1.666 1.078 3.332c.287 1.597.79 3.194 1.078 3.61.287.347.79 1.805 1.078 3.124s.79 2.708 1.078 3.124c.287.347.79 2.013 1.078 3.61.287 1.666.718 3.124 1.078 3.332.287.208.79 1.458 1.078 2.846.216 1.389.718 3.055 1.078 3.68.287.625 1.652 3.888 2.874 7.359 5.963 16.037 17.17 36.31 25.432 45.96.431.555 1.149 1.319 1.509 1.805l3.233 3.61 5.747 6.595c1.796 2.083 5.101 5.624 7.328 7.984 3.951 3.957 5.029 5.901 3.448 5.901-.79 0-7.975 3.124-13.291 5.693l-2.874 1.389-6.178-6.248c-8.262-8.262-17.314-19.856-22.702-28.951-2.371-3.888-7.544-14.441-10.13-20.481-2.73-6.248-6.825-20.55-8.046-28.048-2.371-14.371-4.023-32.7-3.377-38.115.359-2.708.216-4.096-.503-5.068-1.652-2.152-2.802-.278-3.305 5.415l-.359 5.068-.575-5.485c-.718-8.053-.647-10.553.575-11.525.575-.486 1.078-1.736 1.078-2.777s.718-2.638 1.509-3.541c.862-.903 2.515-3.194 3.664-4.999 2.299-3.541 3.951-3.957 3.592-.903zm-8.046 51.098c.359.972 1.006 4.513 1.437 7.984.431 3.402 1.221 8.123 1.796 10.414l1.868 7.637c.431 1.875 1.078 3.749 1.365 4.166.359.347.79 1.875 1.078 3.332.287 1.389.79 2.777 1.149 2.985s.647.833.647 1.458c0 1.25 1.078 3.61 7.472 16.176 2.371 4.79 4.957 9.303 5.676 10.067s2.155 2.777 3.161 4.513c1.652 2.708 7.687 10.761 8.837 11.802.216.208 2.155 2.36 4.311 4.86s5.316 5.832 6.969 7.429l3.017 2.846-1.581 1.041c-.862.555-3.233 1.666-5.173 2.499-2.012.833-4.454 1.944-5.532 2.499-1.006.555-2.515 1.041-3.305 1.041s-1.581.417-1.796.833c-.503 1.319-2.946-.278-3.233-2.152-.216-1.041.287-1.666 1.652-2.152 1.437-.486 1.868-1.111 1.652-2.291-.144-1.18-.575-1.458-2.012-1.25-4.311.555-4.311.555-7.544-5.138-1.724-3.055-3.161-6.109-3.233-6.804 0-.625-.79-2.43-1.796-3.957-2.299-3.541-2.299-5.276.072-5.832 2.946-.764 1.94-2.846-1.365-2.846-2.658 0-2.802-.139-4.239-3.471a79.12 79.12 0 0 0-2.515-5.485c-1.078-1.875-1.078-2.083.575-3.263.934-.694 2.299-1.458 3.017-1.736.718-.208 1.221-.903 1.078-1.527-.287-1.25-2.586-1.527-5.388-.555-1.365.417-1.652.208-2.083-1.458-.216-1.041-.862-3.332-1.365-5.068-2.227-7.637-3.089-12.705-4.598-26.729-1.437-12.844-2.227-24.507-2.155-30.2l.144-5.901.575 6.248c.359 3.402.934 7.012 1.365 7.984zm213.302 8.678c1.078 1.111 1.509 2.152 1.221 2.916-.431 1.041-.718.903-2.227-.833-2.946-3.541-2.155-5.207 1.006-2.083zm-24.139 0c5.532 1.597 13.004 7.637 15.087 12.15.287.555 1.149 2.083 2.012 3.402 1.652 2.708 3.52 7.498 3.52 9.303 0 .694.503 1.944 1.078 2.846.575.833 1.006 2.638.934 3.957s.431 4.79 1.078 7.706c2.658 11.594.647 37.004-3.808 50.264-4.382 12.705-13.938 22.772-27.444 28.951-4.813 2.152-14.728 4.86-16.093 4.374-.79-.278-1.006-2.013-1.006-7.637 0-7.637.647-9.442 3.52-9.442 1.796 0 7.4-3.749 10.489-7.081 1.509-1.527 3.52-4.513 4.454-6.665 1.581-3.194 1.868-4.79 1.796-10.344 0-5.971-.216-6.873-2.586-11.733-3.233-6.595-9.268-12.566-14.44-14.371-4.67-1.527-14.656-1.597-19.613-.069-4.526 1.458-9.986 6.04-12.501 10.414-3.089 5.554-5.173 17.773-3.377 19.509.431.417.575 1.111.359 1.527-.718 1.111-3.736.903-4.742-.278-.503-.555-1.365-1.041-1.868-1.041-.575 0-2.874-.903-5.101-2.013-2.299-1.111-5.819-2.708-7.831-3.61-4.742-2.013-5.388-2.985-4.454-7.29 2.874-14.163 4.957-18.328 15.59-32.214 7.472-9.65 16.093-17.981 28.234-27.354 10.848-8.331 14.728-10.414 23.924-12.913 5.532-1.527 8.549-1.597 12.788-.347zm31.755 12.15c3.88 7.637 5.316 12.566 4.382 14.996-.431 1.041-.575 1.041-1.868-.069-.79-.694-1.652-2.36-1.868-3.749-.503-2.499-2.371-7.567-4.239-11.664-2.946-6.109.359-5.693 3.592.486zm7.328 21.869c1.724 8.956 1.94 14.51.647 15.551-2.155 1.736-3.089.417-3.592-5.276-.287-2.985-.862-7.151-1.293-9.303-1.006-4.652-.503-6.387 1.724-6.04 1.365.208 1.724.903 2.515 5.068zm1.509 28.534c-.503 16.593-4.239 34.991-7.975 39.017-.647.694-1.221 1.805-1.221 2.43 0 3.263-9.986 14.927-17.242 20.203-5.388 3.888-7.041 4.721-7.544 3.888-.647-1.041.287-3.332 1.509-3.61 2.586-.486 13.435-11.108 15.59-15.135a32.84 32.84 0 0 1 1.94-3.124c2.012-2.985 2.515-4.166 4.526-10.761 3.951-13.052 5.532-21.522 6.035-32.283.144-4.235.431-8.331.647-9.164.287-1.527 2.299-2.43 3.377-1.597.287.278.431 4.86.359 10.136zm-137.22 11.733c1.078.555 5.819 2.777 10.561 4.929l15.805 7.22 12.932 5.901 10.13 4.582c2.371 1.111 4.67 2.013 5.101 2.013s.934.278 1.078.625c.144.278 2.012 1.18 4.167 1.875 2.227.694 4.167 1.597 4.311 2.013.216.486-22.559.764-67.461.903-53.882.139-67.676 0-67.461-.625.144-.486 1.078-1.111 2.083-1.389 1.581-.417 8.334-3.332 18.967-8.262l35.203-15.899c3.592-1.597 7.256-3.332 8.262-3.888 2.299-1.319 3.951-1.319 6.322 0zm67.676 39.573v4.929l-25.289-.069-70.622.208-45.261.208-.216-5.276-.216-5.346 70.837.278 70.765.208zm0 11.247c0 1.18-3.808 1.25-70.55 1.111l-70.837-1.25c-.216-.903 7.687-1.041 70.55-1.041 66.958 0 70.837.069 70.837 1.18zm-141.1 14.579c.216.903.718 1.597 1.078 1.597s1.94.764 3.448 1.666c1.796 1.111 3.305 1.597 4.382 1.319 1.149-.278 1.509-.208 1.149.347-.287.486-1.006.833-1.581.833s-1.006.486-1.006 1.041c0 .833-.934 1.041-4.311 1.041-3.233 0-.173-4.416-.461-5.179-.287-.555-3.103-1.558-3.534-1.558-.503 0 .057 1.576-.661-.368-1.221-3.263-4.755-1.919-3.534-4.002l1.293-2.083 1.652 1.944c.934 1.041 1.868 2.569 2.083 3.402zm63.509-1.18c-1.437.903-4.311.903-4.311 0 0-.417 1.221-.694 2.73-.694 1.94 0 2.371.208 1.581.694zm8.98 0c.216.347-.216.694-1.006.694s-1.652-.347-1.868-.694c-.216-.417.216-.694 1.006-.694s1.652.278 1.868.694zm-44.902 2.013c0 .347.647.903 1.437 1.111 1.652.486 1.94 1.736.359 1.736-.503 0-1.293-.555-1.652-1.18-.575-.903-1.796-1.18-6.538-1.18-3.233 0-5.819-.208-5.819-.555 0-.278 2.73-.555 6.107-.555s6.107.278 6.107.625zm29.815.069c-.216.347-.934.694-1.509.694s-.862-.347-.647-.694c.216-.417.934-.694 1.509-.694s.862.278.647.694zm26.51 1.041c.575.555 1.581 1.041 2.155 1.041.647 0 1.149.278 1.149.694 0 1.041-1.868.833-2.874-.347-.503-.555-1.365-1.041-1.868-1.041-.575 0-1.006-.347-1.006-.694 0-1.041 1.149-.833 2.443.347zm-70.334.972c-.216.417-1.006.764-1.652.764-1.078-.069-1.078-.139.144-1.041 1.509-1.111 2.299-.903 1.509.278zm40.951.139c-.575.833-2.515.833-2.515 0 0-.764 1.581-1.389 2.371-.972.287.139.359.625.144.972zm-16.883.278c1.149.555 2.946 2.083 3.951 3.402 2.155 2.777 3.592 2.708 7.041-.347 1.221-1.111 2.586-2.013 2.946-2.013.431 0-.647 1.18-2.371 2.708-2.227 1.944-3.88 2.777-6.178 3.124-3.52.417-4.813.139-7.687-1.875-2.586-1.805-3.017-3.194-1.581-4.721 1.437-1.597 1.293-1.597 3.88-.278zm32.114.833c1.94 1.25 8.262 7.498 8.693 8.609.144.347-5.747.625-13.794.625-7.759 0-14.081-.278-14.081-.555 0-.486 2.371-2.638 7.4-6.734 1.293-1.111 6.394-2.985 8.262-3.055.862-.069 2.515.486 3.52 1.111zm10.345 1.666c.79.764 1.293 1.597 1.078 1.805-.503.486-3.305-1.805-3.305-2.708s.575-.694 2.227.903zm11.064-.069c.216.347-.216.694-1.006.694s-1.652-.347-1.868-.694c-.216-.417.216-.694 1.006-.694s1.652.278 1.868.694zm-62.216 3.402c2.155 1.389 4.095 2.985 4.239 3.402.216.625-3.305.833-13.506.833-12.213 0-13.722-.139-12.932-1.041.503-.555 1.293-1.041 1.796-1.041.431 0 2.155-.903 3.808-2.083 5.963-4.166 10.489-4.166 16.596-.069zm67.604-.972c-.934 1.111-2.874 1.389-2.874.486 0-.972.862-1.527 2.371-1.527 1.149 0 1.221.208.503 1.041zm17.458 2.569c5.604.555 7.687.972 7.687 1.666 0 .764-2.299.972-11.495.972-7.328 0-11.495-.278-11.495-.694 0-1.25 4.598-3.541 6.107-3.055.79.208 4.885.694 9.196 1.111zm-23.852-.139c1.149 0 2.083.278 2.083.694 0 .903-6.969.903-7.472.069-.503-.764 1.006-1.458 2.299-1.041.575.139 1.94.278 3.089.278zM77.724 124.137c-.287 1.111-.718 2.222-1.006 2.638-.287.347-.862 2.083-1.293 3.818l-1.94 7.29c-3.017 10.692-6.61 37.49-5.245 39.017 1.293 1.527 3.448 1.111 3.448-.694.216-8.401 3.88-32.63 5.676-37.282.359-.972.862-2.985 1.149-4.513s.718-3.124 1.006-3.471c.718-.903 2.227-6.109 2.227-7.567 0-.694-.647-1.111-1.796-1.111-1.365 0-1.868.486-2.227 1.875zm-38.652 78.105c-1.437 1.944-1.437 2.291.072 4.027 1.006 1.111 2.155 1.389 5.676 1.389 3.951 0 4.454-.139 4.885-1.597 1.078-3.888-.431-5.346-5.676-5.346-3.161 0-4.095.278-4.957 1.527zm12.86-.07c-1.365 2.083 1.94 10.344 5.46 13.607 2.012 2.013 2.874 2.291 6.035 2.291 3.305 0 3.951-.278 6.25-2.638 3.377-3.402 3.951-4.652 4.598-9.72l.503-4.304H63.57c-7.112 0-11.351.278-11.639.764zm19.038 2.36c-.359.694-11.208 1.18-14.153.625-.934-.139-1.652-.625-1.652-1.041s2.946-.625 8.118-.486c5.029.139 7.903.486 7.687.903zm-10.202 6.734c1.149 1.111 1.078 1.944-.072 1.944-.503 0-1.293-.625-1.796-1.389-.718-1.111-.718-1.389.072-1.389.503 0 1.293.347 1.796.833zm8.046-.139c0 .833-2.371 2.083-3.951 2.083-1.006 0-.862-.278.431-1.389 1.868-1.458 3.52-1.805 3.52-.694zm10.059-6.872c0 1.666 1.652 1.458 2.012-.278.144-.694-.216-1.18-.862-1.18-.718 0-1.149.625-1.149 1.458zm7.328-.278c.359 1.736 2.012 1.944 2.012.278 0-.833-.431-1.458-1.149-1.458-.647 0-1.006.486-.862 1.18zm-5.173 21.036c0 .347.503.694 1.078.694s1.078-.347 1.078-.694c0-.417-.503-.694-1.078-.694s-1.078.278-1.078.694zm12.716 21.314c-1.509 1.458.503 3.402 2.371 2.291.79-.486.79-.764.072-1.666-1.078-1.18-1.724-1.389-2.443-.625zm11.998 18.606c-.718 1.666.862 2.916 2.443 2.013 1.724-1.111 1.509-2.638-.431-2.916-.934-.139-1.796.208-2.012.903zm17.817-41.03c.072.694.575 1.18.934 1.18 1.078-.069.862-1.666-.216-2.013-.647-.208-.934.139-.718.833zm17.817 18.05c0 1.319 1.868 1.875 2.802.833s.287-1.805-1.509-1.805c-.718 0-1.293.417-1.293.972zm93.899-41.378c-1.652 1.736-1.509 4.096.216 4.999 1.078.555 1.724.417 2.874-.694 1.796-1.736 1.796-2.916.144-4.374s-1.796-1.458-3.233.069zm17.745 10.137c-.575 1.527 2.371 5.832 5.029 7.429 4.023 2.36 11.208.972 11.208-2.152 0-1.319-.144-1.319-2.874.347-2.083 1.25-3.448 1.597-4.742 1.319-2.012-.486-6.753-4.86-6.753-6.248s-1.365-1.875-1.868-.694zm37.215 4.026c-1.796 1.736-.575 5.415 1.796 5.415.503 0 1.437-.764 2.012-1.666 2.083-2.985-1.293-6.179-3.808-3.749zm-97.132 38.393c0 .555.647 1.041 1.365 1.041.79 0 1.652.278 1.868.694.575.903 3.017.903 3.592 0 .503-.764-3.305-2.777-5.388-2.777-.79 0-1.437.486-1.437 1.041zm-28.162.486c-2.155.694-2.73 1.944-.934 1.944 1.437 0 4.67-1.527 4.67-2.222s-1.221-.625-3.736.278zm.934 7.22c-1.796 2.222-1.868 3.055-.431 3.055.575 0 1.078-.486 1.078-1.041 0-.625.647-1.041 1.796-1.041 1.006 0 2.012.486 2.227 1.041.575 1.319 2.443 1.389 2.443.069 0-1.18-3.305-3.888-4.742-3.888-.503 0-1.581.833-2.371 1.805zm25.792-.139c-.934 1.041-1.437 2.152-1.149 2.846.503 1.319 1.868.764 1.868-.764 0-1.458 2.658-1.18 4.095.417 1.868 2.083 2.515.139.718-2.222-1.868-2.36-3.305-2.499-5.532-.278zm-13.866 1.528c-1.006 1.041-.431 2.916 1.149 3.957 1.365.833 2.371.903 5.029.347 3.52-.694 4.239-1.805 2.227-3.402-.862-.694-1.365-.694-2.299-.069-2.443 1.736-3.233 1.736-4.382.208-.647-.833-1.437-1.319-1.724-1.041zm6.322 17.634c.79.347 2.371.625 3.448.625 1.078.069 3.592.833 5.532 1.805 3.52 1.736 7.903 2.36 7.903 1.111 0-.417-1.365-.764-3.017-.903-2.371-.139-3.017-.486-2.874-1.319.144-1.25-3.808-2.083-9.483-1.944-2.299 0-2.658.139-1.509.625zm30.892 0c-.216.347.216.694 1.078.694s1.293-.347 1.078-.694c-.216-.417-.718-.694-1.078-.694a1.36 1.36 0 0 0-1.078.694zm23.709 0c-.287.417.503.694 1.796.694s2.083-.278 1.796-.694c-.216-.417-1.078-.694-1.796-.694s-1.581.278-1.796.694z"/><g stroke="#000" class="R S Q"><path d="M64.31 213.041c0-.189 1.044-1.186 1.741-1.663.722-.494 1.855-.869 2.292-.76.89.223.137 1.299-1.387 1.981-.916.41-2.646.698-2.646.442z" paint-order="normal" fill="#faa"/><path d="M64.473 213.008c0-.272 1.643-1.674 2.325-1.983.755-.343 1.669-.418 1.835-.15.336.544-1.2 1.629-2.858 2.02-1.241.293-1.301.298-1.301.113z" paint-order="normal" fill="#f55"/><path d="M59.963 212.815c-.51-.331-1.519-1.715-1.519-2.084 0-.312.97-.214 1.646.165.831.467 1.578 1.523 1.343 1.899-.248.396-.877.405-1.47.02zm-2.605-7.648c-1.102-.157-1.919-.508-2.064-.887-.163-.424.872-.501 6.491-.488 5.04.012 7.816.184 8.751.543l.374.144-.408.16c-1.189.468-10.842.855-13.144.528z" paint-order="normal" fill="#fff"/></g><g fill="#f55"><path d="M60.196 213.024c-.56-.28-1.245-1.05-1.65-1.853-.244-.484-.173-.668.275-.713.592-.059 1.462.346 2.058.958.969.996.911 1.756-.135 1.757-.206 0-.301-.026-.549-.15zm4.321.069c-.053-.034-.051-.057.017-.184.154-.286 1.216-1.217 1.876-1.645.494-.32 1.183-.535 1.717-.535 1.026 0 .521.908-.901 1.619-.508.254-1.044.438-1.731.593-.808.183-.904.198-.978.151z" paint-order="normal"/><path d="M64.574 213.193c-.166-.018-.273-.051-.324-.103a.09.09 0 0 1-.035-.1c.017-.13.118-.263.43-.568a8.14 8.14 0 0 1 1.129-.942c.506-.351.968-.607 1.412-.784.36-.143.578-.195.864-.207.295-.011.438.027.579.158.174.161.229.48.122.709-.127.271-.421.56-.859.846-.751.489-1.73.859-2.57.969a4.36 4.36 0 0 1-.747.021zm.378-.073c.483-.048 1.21-.217 1.7-.395.619-.225 1.226-.588 1.625-.972.567-.546.602-.983.089-1.132-.069-.02-.121-.023-.273-.017-.274.011-.583.084-.97.228a4.92 4.92 0 0 0-1.062.539c-.559.373-1.432 1.168-1.689 1.537-.105.15-.073.207.126.227.103.01.235.006.454-.016z" paint-order="normal"/></g><path d="M64.408 213.121c-.166-.05-.09-.197.317-.612a9.66 9.66 0 0 1 1.273-1.092c.168-.116.461-.291.527-.315.026-.01.048-.023.048-.03.022.002.029-.003.029-.012a.08.08 0 0 0 .039-.021c.012-.012.027-.017.034-.013.013-.019.017-.023.022-.018s.037-.007.072-.028.063-.032.063-.027.016 0 .036-.013.036-.02.036-.015.024-.007.054-.025l.054-.029c0 .002.019-.003.043-.012l.058-.02a.68.68 0 0 0 .058-.022c.024-.01.053-.02.065-.023a.11.11 0 0 0 .025-.008l.04-.014a.14.14 0 0 1 .022-.007c.008-.002.018-.005.022-.007s.014-.005.022-.007l.025-.007c.006-.002.016-.003.023-.001s.021-.005.032-.014.02-.012.02-.006c.03-.014.042-.017.047-.013s.017.003.028-.003.025-.013.033-.015l.112-.028c.167-.045.639-.074.688-.042.012.008.03.015.04.017a.53.53 0 0 1 .079.032c.238.116.295.327.161.599-.094.192-.328.457-.589.67a4.13 4.13 0 0 1-.507.345c-.01 0-.019.007-.019.014s-.016.018-.036.023-.036.015-.036.023c-.022-.001-.029.002-.029.01s-.023.022-.05.031-.05.023-.05.031c-.022 0-.029.003-.029.012-.022.002-.029.005-.029.014-.022.002-.029.007-.029.016a.08.08 0 0 0-.039.021c-.012.012-.027.017-.034.013-.013.017-.02.02-.028.015-.014.016-.021.019-.029.014-.014.016-.021.019-.029.014-.014.018-.018.022-.024.017s-.029.003-.054.018a3.64 3.64 0 0 1-.361.152.73.73 0 0 0-.056.02.46.46 0 0 1-.072.023.13.13 0 0 0-.034.009l-.047.017c-.16.063-.85.234-1.055.262l-.119.02-.094.015a7.02 7.02 0 0 0-.187.023c-.218.028-.325.028-.166-.001l1.098-.251c.958-.248 1.949-.759 2.447-1.262.318-.321.401-.611.222-.773-.096-.087-.178-.103-.512-.102a1.8 1.8 0 0 0-.475.04c-.344.072-.652.177-.906.308-.594.306-1.884 1.38-2.167 1.804-.069.103-.079.181-.031.23l.029.029-.04-.001c-.022-.001-.058-.007-.08-.013zm-5.171-7.771c-2.369-.093-3.333-.309-3.851-.862-.133-.142-.182-.228-.182-.318 0-.153.104-.212.53-.303.865-.185 2.052-.246 4.787-.244 5.069.004 9.418.307 10.239.715.104.052.19.122.19.155 0 .317-2.647.654-6.396.813-1.372.058-4.322.082-5.316.043z" paint-order="normal" fill="#fff"/><path d="M272.942 256.567c-6.306 11.624-16.3 12.796-29.346 9.294-15.985-4.291-16.847-11.392-14.725-23.488 2.22-12.648 16.508-19.946 28.259-16.055 11.012 3.646 16.314 15.866 16.188 24.018" paint-order="normal" fill="#9e633b"/><g stroke="#000" class="R Q"><g class="W"><path d="M93.855 295.975c-19.64-11.462-34.508-27.967-45.375-50.368-6.797-14.012-12.391-33.942-12.391-44.144 0-3.393 3.821-8.707 6.26-8.707.818 0 2.873 1.343 4.567 2.985 2.562 2.484 3.226 2.755 3.947 1.613 1.462-2.312 1.008-4.148-1.639-6.633-3.265-3.066-7.326-3.898-10.601-2.174-2.468 1.299-2.535 1.269-2.531-1.146.01-5.323 2.732-18.563 5.536-26.908 6.123-18.219 18.245-33.907 31.153-40.318 6.307-3.132 7.191-3.912 9.156-8.076 3.44-7.29 3.5-7.359 6.562-7.664 4.447-.442 4.354 1.551-.404 8.645-4.215 6.285-4.278 6.487-3.707 11.924.319 3.042.959 15.901 1.421 28.576.786 21.548 1.382 30.127 2.453 35.337.425 2.066.359 2.094-1.643.691-1.147-.804-3.414-1.461-5.036-1.461-5.142 0-11.011 6.711-7.673 8.774.522.323 2.408-.694 4.191-2.26 3.501-3.074 3.986-3.015 8.886 1.088 1.949 1.632 3.024 4.098 4.854 11.141 3.281 12.626 6.818 21.523 16.264 40.909l8.181 17.255c0 .256-2.282 1.583-5.07 2.949-3.406 1.668-5.07 3.039-5.07 4.176 0 .932-.394 1.694-.876 1.694-1.666 0-11.703-15.531-17.514-27.1-5.583-11.115-7.685-13.481-8.979-10.108-1.205 3.14 11.601 26.285 21.885 39.552l5.686 7.335-.528 5.774c-.506 5.525-2.695 10.284-4.744 10.312-.507.007-3.756-1.641-7.22-3.663zm15.516-30.398c0-.76-.933-1.515-2.074-1.677-1.596-.227-2.074.16-2.074 1.677s.478 1.904 2.074 1.677c1.141-.162 2.074-.917 2.074-1.677zm-12.444-17.876c0-1.39-2.239-2.622-3.136-1.725-1.214 1.214-.443 3.009 1.293 3.009 1.014 0 1.844-.578 1.844-1.284zM83.1 225.018c0-.507-.622-.922-1.383-.922s-1.383.415-1.383.922.622.922 1.383.922 1.383-.415 1.383-.922zm-13.421-9.294c3.233-2.839 5.109-7.288 5.119-12.138l.01-2.535H63.932c-6.774 0-11.265.388-11.906 1.028-.757.757-1.59.635-3.155-.461-3.901-2.733-10.934-1.371-10.934 2.117 0 .934.521 2.131 1.157 2.659 3.127 2.595 10.826 2.388 10.826-.291 0-.751.415-1.365.922-1.365s.922.639.922 1.419c0 2.411 3.508 8.446 6.09 10.477 3.613 2.842 7.935 2.509 11.83-.91zm11.401-11.677c-.374-1.943-2.01-1.82-2.427.182-.174.835.334 1.431 1.22 1.431.949 0 1.402-.604 1.207-1.613zm7.374 0c-.374-1.943-2.01-1.82-2.427.182-.174.835.334 1.431 1.22 1.431.949 0 1.401-.604 1.207-1.613zm-15.622-35.95c1.909-16.792 4.618-29.956 8.148-39.602 2.601-7.108-1.287-9.68-4.233-2.8-4.015 9.378-10.639 46.619-9.036 50.797.32.833 1.349 1.515 2.288 1.515 1.485 0 1.853-1.285 2.833-9.909zm65.913 78.814c-12.368-12.72-19.992-23.359-27.553-38.45-9.398-18.756-13.861-36.105-16.065-62.448-.561-6.696-.764-13.191-.453-14.432.656-2.614-1.051-6.396-2.649-5.868-.599.198-1.346 1.779-1.66 3.513-.447 2.474-.596 1.925-.691-2.554-.067-3.139.293-5.963.8-6.277s.922-1.307.922-2.209c0-1.842 7.294-12.467 8.044-11.717.265.265-.694 3.791-2.13 7.834l-2.612 7.352 2.96 7.205c1.628 3.963 5.398 14.671 8.379 23.797 6.444 19.728 9.82 28.346 15.71 40.098 8.684 17.327 14.091 24.957 30.373 42.863 4.61 5.07 8.389 9.443 8.397 9.718.015.477-14.665 7.346-15.682 7.339-.268-.002-3.008-2.596-6.089-5.765zm6.116-4.839c0-.768-.819-1.383-1.844-1.383s-1.843.615-1.843 1.383.819 1.383 1.843 1.383 1.844-.615 1.844-1.383zm-19.358-17.821c0-1.2-1.096-1.998-1.987-1.448-.953.589-.131 2.216 1.12 2.216.477 0 .867-.346.867-.768z" paint-order="normal" fill="#ff0"/><path d="M120.854 261.381c-.78-.94-.569-1.514.892-2.426 3.192-1.994 2.426-4.285-1.543-4.614-3.401-.281-3.534-.441-8.273-9.965l-4.816-9.679 2.051-1.606c1.753-1.373 1.85-1.739.668-2.521-.76-.503-2.102-.921-2.98-.929-1.472-.013-6.238-7.729-6.238-10.1 0-.511 1.274-1.587 2.831-2.393 2.348-1.214 2.638-1.696 1.698-2.829-.66-.795-2.292-1.252-3.911-1.095-2.765.269-2.787.233-4.9-7.918-2.646-10.208-7.204-49.031-5.584-47.565.29.262 1.386 5.597 2.436 11.855 4.68 27.883 18.473 55.228 38.783 76.889 4.178 4.456 7.44 8.242 7.249 8.413-.882.789-8.414 4.32-12.647 5.929-3.88 1.474-4.871 1.57-5.716.552zm15.016-18.299c-25.235-26.397-38.674-60.394-40.48-102.408-.549-12.775-1.285-15.739-3.68-14.82-1.557.598-1.635-2.629-.167-6.935 1.147-3.364 6.242-11.34 6.854-10.728.204.204-.646 3.357-1.887 7.007l-2.257 6.637 1.799 4.197c.989 2.308 5.568 15.051 10.175 28.316 8.811 25.372 16.734 43.074 24.822 55.46 5.082 7.783 8.583 12.151 20.943 26.128 4.189 4.738 7.618 8.928 7.618 9.311 0 .797-12.546 6.502-14.298 6.502-.635 0-4.884-3.901-9.441-8.668zm8.991-1.011c0-.768-.819-1.383-1.844-1.383s-1.843.615-1.843 1.383.819 1.383 1.843 1.383 1.844-.615 1.844-1.383zm-19.358-18.436a1.39 1.39 0 0 0-1.383-1.383c-.761 0-1.383.622-1.383 1.383s.622 1.383 1.383 1.383 1.383-.622 1.383-1.383zm-33.227 70.892c-25.225-15.545-42.769-39.794-51.958-71.814-4.768-16.615-4.738-23.944.118-28.338 1.693-1.532 1.936-1.479 5.606 1.22 4.109 3.022 5.718 2.904 5.718-.418 0-4.707-8.525-9.376-12.871-7.05-1.119.599-2.234.891-2.476.648-.786-.786 2.572-18.399 4.952-25.98 6.053-19.275 17.924-34.901 32.567-42.872 5.226-2.844 6.311-3.929 8.989-8.987 2.682-5.064 3.372-5.753 5.761-5.753 1.493 0 2.715.49 2.715 1.088s-1.697 3.692-3.771 6.875l-3.771 5.787 1.494 31.609 2.063 35.632c.546 3.857.49 3.98-1.35 2.996-4.949-2.649-13.101 1.065-13.101 5.969 0 2.831 1.361 2.809 5.152-.082 3.714-2.833 3.66-2.833 7.416.032 2.529 1.929 3.474 3.737 5.417 10.37 3.949 13.477 7.693 22.941 16.236 41.041 4.5 9.535 8.182 17.702 8.182 18.148s-2.074 1.94-4.609 3.32-4.609 3.099-4.609 3.822c0 4.516-7.602-5.908-17.096-23.441-6.258-11.559-7.933-13.784-9.595-12.757-1.831 1.131-.941 4.217 3.931 13.633 5.012 9.686 11.67 20.119 18.794 29.45l4.019 5.264-.888 5.517c-1.07 6.644-2.368 9.304-4.539 9.304-.893 0-4.715-1.905-8.494-4.234zm17.096-28.95c0-.76-.933-1.515-2.074-1.677-1.596-.227-2.074.16-2.074 1.677s.478 1.904 2.074 1.677c1.141-.162 2.074-.917 2.074-1.677zm-12.618-18.195c-.463-2.403-3.514-2.671-3.514-.309 0 1.319.592 1.911 1.911 1.911s1.816-.496 1.603-1.603zm-13.653-22.364c0-.507-.622-.922-1.383-.922s-1.383.415-1.383.922.622.922 1.383.922 1.383-.415 1.383-.922zm-13.772-8.944c3.5-2.945 5.476-7.224 5.476-11.858v-3.347l-12.838.313c-7.061.172-13.144.005-13.52-.369-1.101-1.102-8.203-.781-9.408.424-1.715 1.715-1.312 4.176.943 5.755 2.672 1.872 8.89 1.906 9.601.052.836-2.18 1.899-1.623 2.484 1.303.295 1.477 2.15 4.381 4.121 6.453 4.487 4.716 8.58 5.114 13.141 1.275zm11.753-12.026c-.374-1.943-2.01-1.82-2.427.182-.174.835.334 1.431 1.22 1.431.949 0 1.402-.604 1.207-1.613zm7.374 0c-.374-1.943-2.01-1.82-2.427.182-.174.835.334 1.431 1.22 1.431.949 0 1.401-.604 1.207-1.613zM71.514 177.19c.278-.45 1.144-5.531 1.926-11.292 1.987-14.651 3.831-23.928 6.603-33.221 1.312-4.399 2.124-8.681 1.803-9.517-1.123-2.926-3.778-.988-5.87 4.283-4.099 10.33-9.889 44.813-8.244 49.099.606 1.579 2.957 1.982 3.782.648z" paint-order="normal" fill="#fac32b"/></g><g fill="#e1ef7d"><path d="M256.15 288.027c-.172-1.84-.486-6.574-.042-9.164.729-4.245 1.381-5.185 3.993-5.858 3.969-1.023 12.045-7.658 14.372-12.464 2.892-5.974 2.234-16.188-.882-22.336-3.133-6.183-7.857-11.32-12.354-13.368-4.626-2.107-18.284-2.304-22.915-.369-8.8 3.677-13.064 13.66-14.749 23.479-.155 3.739 1.77 7.109 1.53 7.349s-3.968.389-5.397-.372-6.293-2.779-10.737-4.837-8.635-4.167-8.889-4.83c-.718-1.872 2.515-16.172 5.279-21.649 8.49-16.825 36.14-44.044 52.704-51.943 6.897-3.289 16.026-5.481 20.261-4.784 7.315 1.204 15.041 6.275 19.536 14.87 8.536 16.321 10.916 46.003 5.006 70.056-4.293 17.473-17.504 31.264-36.105 37.14-3.955 1.249-8.482 2.042-8.926 2.152-.627.155-1.499-1.112-1.682-3.072zm37.715-69.624c1.374-2.183.166-4.693-1.85-4.446-2.274.278-3.196 2.074-1.877 4.587 1.099 2.093 2.34 2.062 3.727-.141zm-25.15-.945c1.253-2.539.411-2.489-2.809-.824-2.659 1.375-3.91 1.687-6.327.26-1.438-.85-3.091-2.366-3.954-3.827s-1.409-3.195-1.882-2.903c-1.668 1.031-.22 2.889 2.153 6.242 3.137 2.554 4.109 2.63 7.51 2.904 2.841-.186 2.127-.331 3.781-.901zm-29.084-14.761c-.158-1.055-2.035-2.767-1.999-2.898-.961-.282-1.152-.446-2.358.776-1.421 2.169-1.494 2.502-.474 4.557 1.657 1.735 4.432-.299 4.831-2.435z" paint-order="normal" class="W"/><path d="M318.492 217.487c-.613-.613-.819-1.669-1.644-8.404l-.94-6.439c-.788-4.778-.564-5.775 1.299-5.775 1.685 0 2.052.876 3.226 7.72.743 4.329 1.098 9.148.813 11.045-.266 1.775-1.801 2.806-2.755 1.852zm-3.192-22.864c-.877-.901-1.772-2.606-1.785-3.399-.014-.81-2.206-7.031-3.696-10.485-1.582-3.668-1.994-5.531-1.224-5.531 1.04 0 3.309 3.077 5.082 6.892 3.064 6.592 4.111 10.656 3.297 12.797-.306.806-.685.744-1.675-.273z" paint-order="normal" class="V"/></g><path d="M114.242 271.268c0-.233.985-.787 2.189-1.231 1.872-.691 16.052-7.061 55.895-25.107 4.443-2.012 8.456-3.658 8.919-3.658s7.095 2.879 14.737 6.398l27.953 12.714 16.362 7.408c1.267.601 3.549 1.568 5.07 2.15l2.765 1.058-6.913.286c-11.346.47-126.977.454-126.977-.018zm70.698-4.799c2.386-.72 3.058-1.788 1.918-3.048-1.091-1.205-2.086-1.197-4.172.034l-1.666.983-1.266-1.213c-.697-.667-1.492-1.213-1.768-1.213-.769 0-1.082 1.266-.616 2.492.918 2.413 3.697 3.135 7.571 1.965zm7.655-3.305c.554-1.457 1.275-1.451 3.456.029 2.217 1.504 2.934.949 1.817-1.406-.493-1.038-1.411-1.99-2.353-2.44-1.459-.696-1.614-.685-2.808.202-1.615 1.2-2.653 3.024-2.277 4.003.438 1.142 1.668.921 2.166-.389zm-25.81-.23c.275-.513.965-.922 1.558-.922.586 0 1.44.415 1.899.922.9.995 2.298 1.217 2.778.441.672-1.088-2.982-4.582-4.797-4.587-.929-.003-3.742 3.139-3.742 4.179 0 1.197 1.659 1.173 2.305-.033zm.276-8.118c2.281-1.082 2.105-2.215-.294-1.893-1.948.261-4.13 1.417-4.13 2.187 0 .706 2.694.527 4.424-.294zm32.909-.125c0-1.079-2.794-2.484-5.061-2.544-1.347-.036-1.647.133-1.769.994-.108.76.085 1.037.718 1.037.476 0 1.268.305 1.76.677s1.672.683 2.623.691c1.391.012 1.728-.155 1.728-.855z" paint-order="normal" fill="#f9d13c" class="T"/><g fill="#f96a28" class="T"><path d="M110.835 281.542l-.183-4.969c.073-.039 31.814.007 70.536.103l70.402.173v4.795 4.795h-70.22-70.219zm90.205 1.902c-.072-.409-1.507-.854-4.588-1.422-.54-.1-1.083-.567-1.206-1.038-.147-.562-.95-1.039-2.333-1.388-2.584-.651-9.536-.708-9.536-.079 0 .457.214.522 4.401 1.345 1.28.252 3.872 1.09 5.761 1.863 3.404 1.393 7.692 1.804 7.501.718zm15.926-2.951c.815-.516.262-1.427-.866-1.427-.989 0-1.574.701-1.152 1.383.348.564 1.169.582 2.018.044zm24.889 0c.95-.602.183-1.427-1.326-1.427s-2.277.825-1.326 1.427a2.48 2.48 0 0 0 2.653 0zm-83.31 40.57c-.741-.291-2.428-8.413.288-10.875 5.431-5.338 21.026-7.437 24.165-5.793.694.363 19.324 3.028 21.482 5.163 7.204 1.817 8.648 9.103 5.27 10.592-1.492.419-39.478 1.045-40.547.625z" paint-order="normal"/><path d="M110.089 319.401c.204-.282-.142-13.393.07-13.919-.459-2.054 8.652-5.341 17.164-1.436 4.941-2.802 23.845-.367 30.329 4.392 1.975 1.45 1.894 12.25 1.142 12.545-1.234.484-39.192.664-39.491.18zm107.509 1.288c.444-.116 1.17-.116 1.613 0s.08.211-.806.211-1.25-.095-.807-.211z" paint-order="normal"/><path d="M207.968 320.254c-.808-.317-5.305-9.711-4.134-10.632 1.936-1.523 47.077-9.889 49.129-1.423.922 3.804.339 11.614.289 11.878-.761.482-40.877 1.013-41.424.871z" paint-order="normal"/></g><g class="U"><path d="M108.826 309.325c-1.61-.039-2.762-1.741-3.236-2.901-.666-1.628-1.19-2.084-.166-3.314 1.003-1.204 2.129-2.988 2.994-2.465.492.298 6.383-.283 7.116.59 2.34.14 2.638-.001 5.762-.082 1.764.623-2.719 7.417-1.982 7.159 2.151-.754 2.249.121 1.003.598-.634.198-1.512.285-1.843.589.461.724-1.663 1.332-4.51 1.086-2.471-.213-4.301.172-5.138-1.26z" stroke-width="2.196" paint-order="normal"/><use href="#A" paint-order="normal" class="T"/></g><g transform="matrix(1 0 0 .813927 0 55.966017)" fill="#59c452" class="S"><use href="#B" paint-order="normal"/><use href="#C" paint-order="normal"/><path d="M162.823 311.656c-.715 3.09-12.211 3.83-11.802 1.781-2.098-2.483-2.036-15.232 10.262-12.2.517.043 4.458 8.28 4.502 8.657a.92.92 0 0 1-.501.937c-.621.321-1.241.734-1.503.419zm8.192-4.909c-.625-.15-.922-.39-.776-.627.255-.413 3.438-.686 4.254-.365.299.117.279.156-.231.468-.498.304-.825.389-2.295.597-.224.032-.652-.001-.952-.073z" paint-order="normal" class="U"/></g><path d="M172.583 299.391c-.28-.085-.431-.278-.385-.489.097-.443.967-.863 1.672-.806.282.023.426.092.534.257.056.087.061.128.021.26-.144.481-1.263.954-1.841.779zm15.341-2.1c-.773-.146-1.34-.49-1.34-.811 0-.293.283-.437.912-.463.908-.038 1.755.26 1.968.693.066.134.068.162.015.264-.163.316-.836.453-1.554.317zm9.736 8.173c-.866-.315-2.391-1.669-2.694-2.393-.082-.194-.078-.566 0-.695.188-.287.832.103 1.979 1.2.679.65 1.259 1.451 1.259 1.739 0 .223-.197.276-.55.148zm5.398-3.305c-.574-.099-1.058-.373-1.651-.936-.765-.727-1.293-1.023-1.953-1.098-.621-.07-.959-.319-.959-.706 0-.887.943-.811 2.118.171.593.495.864.689 1.222.875.479.249.813.353 1.251.391.475.041.739.129.923.307.356.346.152.878-.38.992a1.14 1.14 0 0 1-.572.003zm7.957 4.81a.46.46 0 0 1-.308-.498c.016-.68.525-1.17 1.415-1.361.454-.098 1.485-.102 1.701-.007.133.059.153.085.153.206 0 .146-.107.321-.437.711-.63.746-1.911 1.228-2.524.95zm-4.451-2.733c-.494-.102-.993-.337-1.186-.556-.161-.183-.161-.35-.001-.5.182-.17.44-.227 1-.22.754.009 1.382.219 1.685.564.226.258.156.474-.207.634-.177.078-.297.097-.664.105-.246.005-.529-.007-.628-.027zm-4.449 5.871c-.932-.07-.91-.114-1.014-.457-.197-.115.084-.589.089-.769 0-.196.01-1.565.232-1.72.473-.326 1.408-.46 2.256-.281.733.154 2.571.397 3.819.444 1.469.055 1.762-.081 2.092.21.528.486.012 3.271-2.4 2.544a48.77 48.77 0 0 1-3.288.03z" stroke-width=".236" paint-order="normal" class="U"/><g class="V"><path d="M152.428 293.711c.729-.046 1.921-.046 2.65 0s.132.083-1.325.083-2.054-.037-1.325-.083z" paint-order="normal" fill="#59c452"/><path d="M136.239 293.637c-17.782-.154-24.894-.375-25.305-.786-.273-.273.289-.445 2.09-.638 2.801-.3 120.77-.49 130.028-.209 7.373.224 9.254.435 8.71.98-.131.131-.848.347-1.593.48-1.685.301-84.598.427-113.929.173z" fill="#cf687d" paint-order="normal"/><g class="U"><path d="M302.614 173.182c-2.182-1.758-15.356-12.723-13.656-13.876 2.521-1.71 20.967 9.481 22.152 15.94-.363 2.058-3.93 1.246-4.365 1.84-.287.392-3.313-3.067-4.131-3.903z" paint-order="normal"/><path d="M315.435 199.428c-.918-.85-2.061-5.707-2.446-7.377-.387-1.681-3.4-7.273-5.055-11.287-1.202-2.915-2.236-4.967-2.363-5.425-.657-2.379 4.156-7.878 10.136 8.972 1.981 5.582 4.539 13.558 4.153 15.551-.248 1.283-3.579.351-4.426-.434z" paint-order="normal"/><path d="M318.059 220.394c-.643-.259-.76-3.356-1.432-8.27l-1.274-9.256c-.728-4.681.026-6.259 1.286-6.536 1.703-.374 3.205.565 4.051 5.117 1.271 6.838 1.76 16.848.997 18.257-.54.998-2.883.988-3.628.688z" paint-order="normal"/><path d="M264.101 300.535c5.974-.62 20.9-10.322 22.434-11.009 1.581-.708 4.141-1.925 7.779-5.47 3.675-3.581 6.497-5.318 7.76-7.36.431-.697 2.081-3.245 2.817-4.386 1.899-2.943 2.778-3.522 4.391-8.767 4.324-14.068 6.818-21.404 7.542-35.447.3-5.807.567-8.354 1.238-9.152.953-1.132 3.573-1.072 3.846.015.236.94.074 14.196-.191 17.642-1.169 15.194-3.171 28.238-6.61 32.741-.453.593-.984 2.174-1.56 2.606-.482 1.875-.975 2.224-2.07 3.927-2.533 3.937-8.373 10.193-12.624 13.842-3.65 3.133-40.194 23.6-41.22 23.6-.372 0-.056-11.69-.158-12.095z" paint-order="normal"/></g></g><g transform="matrix(1 0 0 .56252 -40.542 131.32003)" class="U"><path d="M190.857 317.529c-1.553-.337-3.162-.88-5.297-2.811-1.564-1.414-4.833-6.234-2.853-5.934l5.103-3.364 6.39-4.648c1.091.644-.314 14.122-.482 12.531-1.258-11.896 25.441-8.706 26.934-5.347 11.146 3.194-10.979 12.393-23.663 8.978-1.499.593-4.528.944-6.133.595z" paint-order="normal" class="T"/><g class="S"><use href="#D" paint-order="normal"/><use href="#E" paint-order="normal"/></g><use href="#A" x="73.579" y="-.841" paint-order="normal" class="T"/><g class="S"><use href="#B" x="73.579" y="-.84" paint-order="normal"/><use href="#C" x="73.579" y="-.84" paint-order="normal"/></g><path d="M251.291 317.492c-1.553-.337-.167-1.226-2.302-3.156-1.564-1.414-4.833-6.234-2.853-5.934l3.202-3.883 2.991-4.014c1.091.644-.775 5.607.325 6.77 1.364 1.441-1.268 3.332-.432 3.352 1.08.026.885 3.241.074 3.562-1.499.593.6 3.652-1.005 3.303z" paint-order="normal" class="T"/><g class="S"><use href="#F" paint-order="normal"/><use href="#C" x="104.092" y="-.759" paint-order="normal"/></g></g></g><defs><path id="A" d="M150.195 317.906c-1.553-.337-3.162-.88-5.297-2.811-1.564-1.414-4.833-6.234-2.853-5.934l5.103-3.364 6.39-4.648c1.091.644-1.582 11.369-.482 12.531 1.364 1.441 8.929-2.083 9.765-2.063 1.08.026-5.682 5.373-6.494 5.694-1.499.593-4.528.944-6.133.595z"/><path id="B" d="M138.826 310.369c-.514-.506-1.134-1.106-1.459-1.202-.317-.095-2.516-.327-4.936-.405-11.084 4.696-11.7-6.873-11.81-7.149-.16-.259 7.959-1.01 11.945-1.01 4.943 0 10.784-.441 11.655.372.362.338 11.487-.131 11.852-.021.798.239-14.248 9.482-14.527 9.817-.101.122-.786.344-1.098.344-.47 0-.869-.003-1.623-.745z"/><path id="C" d="M118.024 312.645c.777-.664 1.261-18.836 6.772-3.069.107.306-.17 1.205-.703 1.481-.245.127-.985.228-1.37.224l-.803-.19c-.617 2.436-2.497 1.318-3.896 1.554z"/><path id="D" d="M179.488 309.992c-.514-.506-1.134-1.106-1.459-1.202-.318-.095-2.516-.327-4.936-.405-11.084 4.696-11.7-6.873-11.81-7.149-.16-.259 7.959-1.01 11.945-1.01 4.943 0 10.784-.441 11.655.372.362.338 11.487-.131 11.852-.021.798.239-14.248 9.482-14.527 9.817-.101.122-.786.344-1.098.344-.47 0-.869-.003-1.623-.745z"/><path id="E" d="M158.686 312.269c.777-.664 1.261-18.836 6.772-3.069.107.306-.17 1.205-.703 1.481-.245.127-.985.228-1.371.224l-.803-.19c-.617 2.436-2.497 1.318-3.896 1.554z"/><path id="F" d="M242.918 309.61c-.514-.506-.154 4.598-.479 4.501-.778 7.395-7.644 1.632-10.064 1.554-11.084 4.696-7.552-14.536-7.661-14.812-.16-.259 7.959-1.01 11.945-1.01 4.943 0 10.784-.441 11.655.372.362.338 3.651.18 4.016.29.798.239-6.412 9.171-6.691 9.506-.101.122-.786.344-1.098.344-.47 0-.869-.003-1.623-.745z"/></defs><g transform="matrix(1 0 0 .804855 -2.597 57.858635)" stroke="#000" class="U Q R"><path d="M190.857 312.873c-1.553-.245-3.162-.641-5.297-2.047-1.564-1.029-4.833-4.539-2.853-4.32l5.103-2.449 6.39-3.384c1.091.469-.314 10.282-.482 9.123 4.738-13.259 62.729-10.712 37.662-3.183 11.146 2.325-21.707 8.313-34.391 5.826-1.499.432-4.528.687-6.133.433z" stroke-width="2.281" paint-order="normal"/><g class="S"><use href="#D" paint-order="normal"/><use href="#E" paint-order="normal"/></g><use href="#A" x="73.579" y="-.841" paint-order="normal" class="T"/><g class="S"><use href="#B" x="73.579" y="-.84" paint-order="normal"/><use href="#C" x="73.579" y="-.84" paint-order="normal"/></g><path d="M251.291 314.804c-1.553-.284-.167-1.032-2.302-2.657-1.564-1.19-4.833-5.248-2.853-4.995l3.202-3.269 2.991-3.379c1.091.542-.775 4.72.325 5.699 1.364 1.213-1.268 2.805-.432 2.822 1.08.022.885 2.728.074 2.998-1.499.499.6 3.074-1.005 2.78z" stroke-width="2.452" paint-order="normal"/><g transform="matrix(1 0 0 .799418 0 60.119151)" class="S"><use href="#F" paint-order="normal"/><use href="#C" x="104.092" y="-.759" paint-order="normal"/></g></g></svg>