<svg xmlns="http://www.w3.org/2000/svg" width="354" height="434" stroke="#000" xmlns:v="https://vecta.io/nano"><path d="M173.388 118.803c30.701 1.007 28.689 6.544 28.614 16.997-.132 18.376-2.532 24.612-27.141 27.727-19.025 2.408-33.711-10.068-30.297-24.15.975-4.024-8.704-21.804 28.824-20.574z" fill="#fff" stroke-width="17.185" stroke-linejoin="round" stroke-opacity="0" paint-order="normal"/><path d="M199.784 154.341l-9.061 5.501-8.737 3.236-14.238.647-10.031-2.265-9.061-5.825-1.942 2.589-9.708 6.795-10.355 7.443-3.236 5.501-3.236 11.002-.647 19.739v24.917l1.618 43.685.971 27.505 5.177 5.501 11.002 7.119 9.384 3.883 13.591 2.912 12.297.647 14.238-.647 11.002-1.618 9.061-3.236 9.708-4.854 10.679-7.766.647-28.153.647-35.919 1.618-35.272-1.618-27.829-6.795-10.031-11.326-6.472z" fill="#c8e7eb" stroke-width="7.766"/><path d="M198.608 322.806l9.266-3.433-.572 11.898-.229 10.983-1.03 8.81-1.144 6.864 2.059.458 7.436-.343 3.433.915 2.974.801 2.631 2.288-.572 2.402-1.487 1.716-7.093.114-9.382-.458-3.66-.572-2.861-3.088-.686-1.601-.229-3.547.114-12.699.114-10.755-.114-8.696zm-51.128-1.294l-9.725-3.547-.229 7.322-.229 11.098.915 10.526.572 6.636 1.373 3.89-.229 1.258-6.292-.229-5.606-.229-2.631 1.03-2.745 2.402-.801 1.945 2.173 2.518 5.492-.114 9.266.229 6.178-1.487 1.487-2.059-.458-4.348-.114-12.242.801-11.898.686-6.979zm-28.705-81.951l-.114-9.266-8.81-.572-2.402-.801-3.088-2.974-1.258-4.119-.114-9.725v-4.577l2.518-2.173 1.258-2.059-.458-2.974 2.059-2.288-.572-7.093-1.03-3.66-2.059-.343-1.601 1.487.229 4.233-.229 1.487-6.292.686-2.745 2.518-.686 1.373-.229 4.691 1.83 2.518 1.716 1.601.229 4.233-1.83 7.207-.686 8.466 1.601 5.492 2.974 3.66 4.462 1.258 1.487 1.83 4.348-.229zm111.891-.801l.686-10.755 3.776 2.059 7.894.801 5.377 2.173 3.433 3.317 3.66 4.691 1.373 6.407.801 6.979-.229 5.492.343 2.631 1.83 2.518-.229 2.288-2.288 1.945-1.373 1.716-3.66-.343-2.402-1.373-2.173-2.518.114-3.66.915-2.402 2.861-1.373 1.601-.572-1.03-6.75-1.601-4.233-2.861-3.547-3.66-2.745-4.462-1.601-2.974-1.144z" stroke-width="1.294"/><g fill="none"><path d="M200.667 152.758l1.487-25.284-.114-1.83-10.183-5.148-10.869-1.83-12.699-.229-7.436.801-8.237 2.402-6.635 3.547-1.945 2.631 1.03 23.911 2.288 2.518 8.237 5.492 10.297 3.547h9.725l8.351-.801 8.58-3.433z" stroke-width="7.766"/><path d="M151.01 130.996h.572c.076 0 .161-.034.229 0 .034.017 0 .076 0 .114.038.039.063.097.114.114.072.025.161-.034.229 0 .034.017-.034.097 0 .114.069.034.157-.025.229 0 .05.017.066.091.114.114.034.017.078-.009.114 0 .116.03.229.076.343.114s.236.061.343.114c.097.048.138.17.229.229.071.047.158.067.229.114.045.03.063.097.114.114.072.025.157-.025.229 0 .052.017.07.084.114.114.071.047.158.067.229.114.045.03.066.091.114.114.034.017.078-.009.114 0 .116.03.227.085.343.114.038.009.079-.012.114 0 .208.07.212.098.343.229.038.039.07.084.114.114.071.047.158.067.229.114.045.03.066.091.114.114.107.054.232.07.343.114.149-.063.25.183.343.229.034.017.076 0 .114 0 .076.039.158.067.229.114.098.066.254.254.343.343.039.039.066.091.114.114.282.141-.104-.333.343.114.027.027-.017.08 0 .114.066.131.239.159.343.229.075.05.281.322.343.343.072.025.153 0 .229 0 .038 0 .08-.017.114 0 .137.069.206.274.343.343.107.054.236.061.343.114.048.025.063.097.114.114.072.025.157-.025.229 0s.256.299.343.343c.034.017.078-.009.114 0 .116.03.227.085.343.114.036.009.08-.017.114 0 .048.025.063.097.114.114.104.034.241-.034.343 0 .828.276-.18-.032.343.229.034.017.076 0 .114 0 .076 0 .157-.025.229 0 .102.034.132.181.229.229.034.017.08-.017.114 0 .048.025.063.097.114.114.072.025.155-.018.229 0 .083.021.148.087.229.114.062.021.418 0 .458 0h.801 3.204 1.03c.137 0 .329-.026.457 0 .118.023.227.085.343.114.038.009.078-.012.114 0 .162.054.305.153.457.229.076.039.146.093.229.114.056.014.397-.03.458 0 .048.025.063.097.114.114.072.025.153 0 .229 0h.229.458c.048.025.063.097.114.114.072.025.157-.025.229 0 .052.017.076.076.114.114.076.039.146.093.229.114.074.018.229-.076.229 0s-.305 0-.229 0h1.258.572c.828-.276-.18.032.343-.229.034-.017.076 0 .114 0h.114.686c.249.043.038-.19.114-.229.069-.034.153 0 .229 0h.229 1.258 3.66 1.144c.132 0 .47.026.572 0 .479.207.132-.181.229-.229s.241.052.343 0c.048-.025.066-.091.114-.114.067-.034.264.026.343 0s.148-.087.229-.114c.062-.021.712 0 .801 0 .076 0 .157.025.229 0 .05-.017.066-.091.114-.114.069-.034.161.034.229 0 .097-.048.127-.194.229-.229.072-.025.153 0 .229 0h.572c.076 0 .154.016.229 0 .963-.193 0-.001.458-.229.034-.017.078.012.114 0 .08-.027.148-.087.229-.114s.276.034.343 0c.048-.025.066-.091.114-.114.092-.045.252.045.343 0 .034-.017-.034-.097 0-.114.071-.036.386.036.457 0 .048-.025.066-.091.114-.114.069-.034.161.034.229 0 .048-.025.063-.097.114-.114.072-.025.161.034.229 0 .034-.017-.027-.088 0-.114.061-.061.153-.076.229-.114s.146-.093.229-.114c.199-.049.488.049.686 0 .492.238.127-.194.229-.229.109-.036.234.036.343 0 .131-.044.225-.158.343-.229-.013-.216.267-.076.343-.114a.26.26 0 0 0 .114-.114c.017-.034-.034-.097 0-.114.069-.034.153 0 .229 0 .114 0 .234.036.343 0 .036-.012 0-.076 0-.114v-.458c.054-.054.161.034.229 0 .211-.105.018-.238.229-.343.069-.034.161.034.229 0 .048-.025.063-.097.114-.114.072-.025.166.043.229 0 .071-.047.067-.158.114-.229.03-.045.076-.076.114-.114s.066-.091.114-.114c.034-.017.08.017.114 0 .048-.025.063-.097.114-.114.072-.025.161.034.229 0 .034-.017-.017-.08 0-.114s.313-.327.343-.343c.069-.034.161.034.229 0 .137-.069.206-.274.343-.343.034-.017.088.027.114 0s-.027-.087 0-.114c.06-.061.153-.076.229-.114l.229-.114m1.958 6.069c0 1.14.107.128-.114.572-.017.034 0 .076 0 .114 0 .076.018.155 0 .229-.021.083-.087.148-.114.229-.021.062 0 .418 0 .458v.686.229c0 .039.027.088 0 .114s-.088-.027-.114 0 .038.114 0 .114 0-.153 0-.114c0 .181.034.309-.114.458-.027.027-.088-.027-.114 0s0 .076 0 .114v.114 1.258.572c0 .076.076.229 0 .229s0-.305 0-.229v.458c0 .039-.013.078 0 .114.07.21.195.311.343.458m-4.807-2.173c0 .153.03.308 0 .458-.013.053-.097.063-.114.114-.048.145.048.313 0 .458-.017.052-.091.066-.114.114-.016.03 0 .397 0 .458v.572c0 .076-.016.154 0 .229.023.118.085.227.114.343.013.038-.017.08 0 .114.025.048.097.063.114.114.035.106-.036.465 0 .572.027.082.093.146.114.229.027.111 0 .229 0 .343 0 .039.017.08 0 .114-.025.048-.076.076-.114.114s-.066.091-.114.114c-.034.017-.088-.027-.114 0s0 .076 0 .114v.229.686c0 .114-.036.234 0 .343.017.052.097.063.114.114.021.063 0 .589 0 .686m-5.263-5.717c.233.439-.381.34-.458.572-.025.072.018.155 0 .229-.021.083-.093.146-.114.229s.034.505 0 .572c-.238.476.013-.123-.229.114-.027.027.013.078 0 .114-.027.082-.094.146-.114.229-.018.074 0 .153 0 .229v.572c0 .076.034.161 0 .229-.017.034-.088-.027-.114 0s-.027.087 0 .114.083-.021.114 0c.089.06.138.17.229.229.032.021.088-.027.114 0 .054.054-.054.175 0 .229.027.027.153 0 .114 0h-.343c-.039 0-.097-.034-.114 0-.013.027 0 .382 0 .458v1.03.572c0 .075.022.278 0 .343-.027.082-.088.148-.114.229-.013.036 0 .076 0 .114v.229.915.572.229c0 .039-.017.08 0 .114.025.048.091.066.114.114.017.034 0 .076 0 .114 0 .076-.025.157 0 .229.017.052.097.063.114.114.089.267-.12.229.114.229m-5.263-8.353l.114.458c.025.126 0 .434 0 .572v1.258.801c-.017.052-.091.066-.114.114-.017.034 0 .076 0 .114v.114.572.114c0 .039.027.087 0 .114-.061.061-.168.054-.229.114-.027.027 0 .076 0 .114v.572c-.048.071-.181.044-.229.114s0 .153 0 .229v.114.686 1.83c0 .295-.061.796.114 1.03.052.069.168.054.229.114.031.031-.036.5 0 .572.025.048.097.063.114.114.048.145-.038.309 0 .458.021.083.093.146.114.229.026.104 0 .439 0 .572 0 .039-.013.078 0 .114-.207.479.18.132.229.229.034.069 0 .153 0 .229v.572.229c0 .076.076.229 0 .229s0-.305 0-.229v.343c0 .131.03.339 0 .458-.138.553-.054-.005-.229.343-.017.034 0 .076 0 .114 0 .082.017.343-.114.343-.076 0 0-.153 0-.229v-.114m-5.376-13.383v.801c0 .076.025.157 0 .229-.017.052-.091.066-.114.114-.016.031 0 .637 0 .686v1.601.686c-.025.048-.091.066-.114.114-.017.034 0 .076 0 .114v.686c-.027.082-.076.153-.114.229s-.067.158-.114.229c-.03.045-.097.063-.114.114-.019.058 0 .707 0 .801v1.945.686c.027.082.093.146.114.229.027.111 0 .229 0 .343 0 .039.017.08 0 .114-.025.048-.091.066-.114.114-.034.069.054.175 0 .229s-.168.054-.229.114c-.014.114-.014.229 0 .343.025.048.066.091.114.114.034.017.097-.034.114 0 .034.069.076.229 0 .229s0-.153 0-.229m-6.179-10.179v2.631.686c.132.395.114.084.114.343v.801.458c.092.183.137.045.229.229.017.034 0 .076 0 .114v.229.801.801c0 .039.021.396 0 .458-.054.162-.175.296-.229.458-.013.036.017.08 0 .114-.025.048-.097.063-.114.114-.025.072.025.157 0 .229-.017.052-.097.063-.114.114-.036.109 0 .229 0 .343v.801.114c0 .039-.027.088 0 .114s.076 0 .114 0c.199 0 .097.034.229-.229m-6.635-12.127c-.162.247.065.542 0 .801-.021.083-.088.148-.114.229-.04.122.04.337 0 .458-.027.082-.088.148-.114.229-.025.072 0 .153 0 .229v.801 2.518 1.144.572c-.027.082-.093.146-.114.229-.03.119 0 .326 0 .458v.915.686c0 .114-.027.232 0 .343.138.553.054-.005.229.343.017.035 0 .291 0 .343v3.317m-6.295-15.79l-.114.458c-.026.127 0 .324 0 .458v.915.686c.141.282.114-.039.114.229v1.487.686c.026.155.084.303.114.458.022.113 0 .229 0 .343v.572c0 .076-.025.157 0 .229-.043.25.19.039.229.114s0 .153 0 .229v.229 1.373.458c0 .039.027.088 0 .114-.061.061-.181.044-.229.114s0 .153 0 .229v.229.801c0 .039-.027.088 0 .114.097.097.236.142.343.229.084.067.153.153.229.229.038.039.091.066.114.114.017.034 0 .076 0 .114 0 .076-.025.157 0 .229.017.052.097.063.114.114.022.069 0 .551 0 .686 0 .039-.017.08 0 .114.025.048.091.066.114.114.017.034 0 .076 0 .114v.229.801c0 .076-.016-.154 0-.229l.114-.458m-6.175-14.757v1.373c0 .039-.021.396 0 .458.027.082.076.153.114.229.118.237.158.29.229.572.018.074 0 .153 0 .229 0 .294-.06.654.114.915.021.031.097-.034.114 0 .034.069-.016.154 0 .229.193.963 0 .004.229.458.017.034 0 .076 0 .114v.229.801.229c0 .039-.017.08 0 .114.025.048.091.066.114.114.017.034 0 .076 0 .114 0 .17-.027.316.114.458.027.027.097-.034.114 0 .05.102 0 .229 0 .343v.915 1.144.572c-.069.137-.274.206-.343.343-.017.034 0 .076 0 .114 0 .076.025.157 0 .229-.017.052-.097.063-.114.114-.025.072.025.157 0 .229-.017.052-.091.066-.114.114-.017.034.013.078 0 .114-.03.116-.091.225-.114.343-.016.075.025.157 0 .229-.017.052-.091.066-.114.114-.017.034.039.114 0 .114s0-.076 0-.114" stroke-width="1.294"/></g><path d="M128.606 175.811l8.725 5.874 11.488 4.207 14.885 2.589 14.4.971 16.341-1.942 11.811-3.56 9.708-2.912c3.86-1.153 4.587-1.525 7.67-3.966 1.077 1.446 0 0 3.779 9.577l.774 10.971.238 10.172-.564 13.484c-3.903 1.279-9.806 4.758-13.515 6.522l-14.562 5.663-12.602 2.168-13.163 1.049-12.51-.311-12.931-1.819-11.728-3.799c-3.478-2.283-9.706-5.608-13.618-7.083l.315-17.204.738-17.566c.909-4.169 1.493-9.492 4.32-13.085z" fill="#fff" stroke-width="1.294"/><path d="M124.894 285.212c2.49 2.42 5.615 5.439 10.155 7.776 7.167 4.606 6.382 3.873 10.526 6.147 3.359 1.968 5.667 2.779 9.509 3.963 3.699.87 6.302.854 10.035.683 4.017.57 5.523.049 9.612-.111 4.504.191 6.737-.002 10.477-.767 3.234-.263 4.335-.386 9.629-1.331 4.523-.579 5.572-.139 8.379-1.57 3.977-.658 8.115-1.636 11.225-3.598 3.562-1.235 8.601-2.941 10.909-5.841l2.511-69.288-14.448 6.519-13.629 5.665-6.86 1.254-7.717 1.167-9.033.659-9.346-.053-9.189-.549-12.098-2.125-10.018-3.629c-3.344-2.22-8.079-5.261-12.291-6.517z" fill="#82d2e5" stroke-width="1.148"/><path d="M212.909 289.132c1.648-.094.242-.941.458-1.373.048-.097.17-.138.229-.229.094-.142.135-.316.229-.458.132-.198.507-.507.686-.686.076-.076.18-.132.229-.229.034-.069 0-.153 0-.229l.229-.458m1.6 6.179v-1.83c0-.076-.034-.161 0-.229.048-.097.17-.138.229-.229.094-.142.109-.337.229-.458.054-.054.175.054.229 0s-.025-.157 0-.229a1.97 1.97 0 0 1 .229-.458c.12-.18.305-.305.458-.458" fill="none" stroke-width="1.294"/><path d="M201.283 221.345c-.039-.097-.135-.177-.218-.177-.263 0-.413-.302-.466-.934-.029-.338-.118-.695-.2-.793s-.136-.367-.12-.597a.85.85 0 0 0-.242-.708c-1.106-.899-2.351-1.699-3.711-2.123-1.461-.542-3.852-.443-5.392.223l-1.068.464c-.264.115-.683.412-.932.66s-.488.441-.53.429c-.107-.029-.712 1.157-.71 1.394a.3.3 0 0 1-.175.261c-.124.049-.177.24-.177.642 0 .408-.063.631-.216.77-.205.186-.225.172-.372-.276-.086-.26-.204-.472-.262-.472s-.075.049-.039.11.024.136-.024.168c-.115.07-.104.563.02.759.133.215-.664.179-1.149-.052-.372-.177-.401-.228-.341-.596.055-.34.024-.412-.187-.468-.371-.097-.378-.864-.015-1.542.214-.399 1.652-3.252 1.884-3.021s-1.204 3.083-1.07 2.79c.093-.205.097-.34.01-.443s-.039-.325.167-.774c.159-.344.263-.669.23-.722s.02-.096.12-.096.233-.1.298-.222.248-.254.406-.294.812-.309.932-.353c-.583-.117-.22.132-.418.359-2.105-1.084 5.481-1.319.418-.359-.124-.124.563-.628 1.051-.771.278-.081.622-.222.764-.314.411-.262 2.834-.615 4.746-.691 1.155-.044 2.94.228 4.005.616l.235.078c.034.01.165.071.295.141a2.82 2.82 0 0 0 .559.204c.178.044.324.13.324.193s.08.115.177.115.177.053.177.118.081.118.181.118.211.08.248.177.145.177.24.177c.138 0 .132.039-.034.206-.196.196-.195.208.015.249.122.024.242-.015.267-.089s.101-.131.172-.131c.19 0 1.367 1.295 1.58 1.737.101.21.227.383.28.383s.159.305.235.677.184.733.24.802c.109.134.066 1.004-.07 1.435-.132.418-.763.737-1.458.737-.432 0-.628-.051-.676-.177z" paint-order="stroke fill markers" stroke-width=".89"/><path d="M149.52 221.727c-.422-.05-1.019-.448-1.287-.857-.149-.227-.148-.291.002-.578.092-.178.169-.416.169-.53 0-.188.148-.58.486-1.29.07-.148.363-.414.651-.591.385-.237.558-.431.656-.735.153-.473.632-1.019.898-1.024.099-.002.321-.114.493-.249.556-.437 2.056-.982 2.897-1.052.43-.034 1.007-.14 1.283-.231.656-.217 2.205-.216 3.124.002a10.79 10.79 0 0 0 1.472.223c.528.034.832.117 1.038.28.16.126.547.315.86.418.521.173.922.397 1.641.915.148.107.412.426.587.711.18.292.461.576.645.652.327.136.563.577.563 1.052 0 .129.126.471.279.759s.279.666.279.839c0 .675-.638 1.146-1.554 1.146-.508 0-.577-.029-.731-.329a1.88 1.88 0 0 1-.17-.725c0-.218-.05-.396-.112-.396s-.112-.275-.112-.612v-.612l-.537-.272c-.295-.15-.744-.504-.998-.788-.403-.45-.615-.571-1.667-.948a16.64 16.64 0 0 0-2.212-.611c-1.072-.19-1.325-.163-3.178.343l-1.283.314c-.539.118-.723.218-.948.515-.303.401-.339.946-.863 1.387-.271.227-1.082 1.291-1.147 1.813-.044.353.162-.307.105-.307s-.105.138-.105.307c-.002.624-.111.813-.419.736-.249-.063-.276-.044-.221.168.039.147.01.233-.067.222l-.52-.065z" paint-order="stroke fill markers" stroke-width=".841"/><path d="M183.751 261.09c-1.063-.12-2.17-.346-2.46-.503s-.646-.286-.79-.286c-.36 0-1.812-.741-1.985-1.012-.073-.12-.243-.22-.368-.22s-.37-.158-.546-.351c-.595-.658-1.911-.375-3.068.659-.243.218-.516.395-.606.395s-.289.105-.441.235-.752.34-1.332.469-1.133.291-1.23.362c-.637.459-7.253.355-7.73-.122-.135-.135-.506-.294-.826-.356-1.34-.256-3.536-1.678-4.391-2.844-1.022-1.394-1.549-2.664-1.549-3.735 0-.559.087-1.07.194-1.136.362-.223 2.442-.314 2.442-.106 0 .107.118.149.264.093.162-.065.264 0 .264.162 0 .145.107.304.237.355.141.057.279.489.34 1.075.113 1.098.832 2.412 1.488 2.72.218.102.395.266.395.365s.122.18.272.18.565.149.922.332c1.649.843 2.932 1.045 5.532.87 1.447-.097 1.809-.183 2.284-.546.311-.237.763-.489 1.004-.562.836-.251 2.072-1.666 2.634-3.017.291-.698.528-1.391.528-1.539 0-.403.623-.66 1.456-.599.653.049.741.105.754.493.034.997-.065-.351.449-.351s.847 1.719.853 2.511c.004.568 1.349 2.192 1.917 2.317.286.065.609.222.719.352s.767.413 1.462.629c1.495.461 4.376.502 5.841.082 1.076-.31 2.808-1.402 3.468-2.186.651-.773 1.179-1.972 1.182-2.682 0-.319.065-.683.147-.808.184-.291 2.476-.474 2.837-.227.348.237.289 2.081-.101 3.101l-.284.742-.585-.376c-.829-1.308-5.667 2.294-.292.869.399-.132.402-.124.148.363-.407.781-1.459 1.731-2.497 2.256-.382.193-.734.395-.782.448-.133.144-2.349.787-2.522.731-.082-.024-.241.024-.352.115-.21.171-2.496.568-3.046.529l-2.25-.24z" paint-order="stroke fill markers" stroke-width="1.326"/></svg>