<svg xmlns="http://www.w3.org/2000/svg" width="354" height="434" stroke="#000" xmlns:v="https://vecta.io/nano"><g stroke-width="1.6"><path d="M241.625 190.5l-3.5 8 4 6.25 2.75 6.5-2.75 14.25 1.75 10.75 5.5 19.25-.5 19.25-3.25 11.75-3 12.25-1 17.5-1.5 2.5-4.75 1.25-27.073 1.664-33.957-.896-29.104-.293-27.866-4.225-1.25-1.75v-7.25l-2.75-13-1.625-12.562 2.813-13.875 3.813-14.312 2-13-2.25-13.5.25-13.75 2.5-11.75 5.5-9.25 3.5-3.75.5-5 10-.5 9.5 1.75 7 2.25v6.5l.25 3.25-4 9 1 4.5 5.75 13.25.5 3 4-3.25 13.75-.5 11 2.25 10 1 5.25-.75 3.75-4-.75-12.25.5-5.25 4.75-8.75.5-3.75v-3.5l12.5-.5 14-.25z" fill="#c8e7eb"/><path d="M165.25 268.25l11.75-1.5 13.75-1.5 1.75 2-.25 9.75-2 6.5-3.25 5-5 3.75-6.75.75-4.5-3-3.75-3.75-1.75-6v-6.5z" fill="#f88f7f"/></g><path d="M199.014 255.588v-6.276l-2.475-1.061-2.121 1.237-.265 6.099 1.856 1.856 1.149.177zm-36.24-7.778l2.475 1.149-.177 4.508-.796 2.121-1.679.972-1.591-1.149-1.237-1.591v-2.917l.972-1.679zm83.851 34.315l2.25-7.375 4.5 1.5 4.125 3.25 2.375 3.75L262 288l.5 3.125-.125 3.375 1.875 2.75.625 3.5-1.25 2.5-2.625.5h-2.625l-1.875-1.875-.5-3.5 1-2.125 1.25-1.125L258 292l-1.5-3.25-2.75-3.125-3.125-2.625zm-133-16.875l-1.375 7.5-3.375-.375-4.125-1.25L101 269l-3-2.625-1.625-4.125-.5-5.125.25-4.125.875-3.25-.163-.791-3.049-2.431-1.414-3.049-.53-3.094.044-4.95 1.37-2.873.53-1.591 1.458-1.237 1.724-1.193 3.094-.354 2.033.928.972 1.591.84 2.254.796 1.016.044 2.696 1.459.53 1.37 1.016.177 4.287-1.414 1.724-2.21 1.591-1.503 1.105-1.945 1.105-.53 2.917.221 4.596 1.237 3.182 1.856 2.607 3.138 1.591 3.094 1.193zm35.562 53.563c.438.188 8.188.063 8.188.063L157 331.75l-.812 9.5-.437 3-1.25 1.875-2.125.875-.5.688-8.25-.125-2-1.312-.75-1.187-.125-1.375 1.063-1.312 2.563-.937 1.438-.625 3.5.125zm50.438 1.5L199 346.438l2.813 1.875 3.75 1.125 6.813.313 1.938-1.187 1-1.625-.75-2.062-2.062-.75-1.562-.5-6.125-.125-.75-.875 2.31-22.627z"/><path d="M178.642 281.755l2.539-4.389 2.051-2.048 2.735-.293 3.028 1.561 1.856 2.048-.195 2.438-2.149 3.804-2.735 3.511-3.223 2.146-2.442 1.17-2.637.585-4.2-1.073-2.246-1.951-1.953-2.048-1.758-3.024-.098-2.048.977-1.365 2.246-1.756 2.442-.878 1.563-.098 1.856.39 2.702.596-1.53 2.915z" fill="#ef6352" stroke-width="1.104"/><g fill="none"><path d="M123.328 309.184c.217.253.734.058 1 .125.09.023.162.096.25.125.04.013.085-.013.125 0 .088.029.162.096.25.125.04.013.083 0 .125 0 .083.042.162.096.25.125.133.044.367-.044.5 0 .056.019.083.083.125.125.083.042.16.102.25.125.081.02.175-.037.25 0 .037.019-.037.106 0 .125.112.056.25 0 .375 0h.875 3.125 10.125 1.875.625c.083 0 .171-.026.25 0 .088.029.16.102.25.125.13.032.357 0 .5 0h1c.15 0 .359-.028.5 0 .129.026.247.093.375.125.04.01.083 0 .125 0 .191 0 .293-.013.5.125.035.023-.037.106 0 .125.074.037.169-.02.25 0 .09.023.16.102.25.125.061.015.434-.033.5 0 .053.026.069.106.125.125.079.026.168-.016.25 0 .129.026.247.093.375.125.081.02.171-.026.25 0 .708.354-.186-.047.5.125.09.023.162.096.25.125.122.041.506-.04.625 0 .177.059.323.191.5.25.079.026.171-.026.25 0 .088.029.162.096.25.125s.301-.037.375 0c.053.026.072.099.125.125.037.019.083 0 .125 0 .083 0 .168-.016.25 0 .129.026.246.099.375.125.163.033.333 0 .5 0h.875.25c.042 0 .085-.01.125 0 1.04.26-.151-.009.625.25.04.013.083 0 .125 0h.25.75 2.5 6.125 2.875.625c.042 0 .095-.029.125 0 .333.333 0 .167 0 .5 0 .042.083 0 .125 0h.125.75 1.875.5c.125 0 .251-.018.375 0l.75.125c.083.042.159.107.25.125.123.024.25 0 .375 0h.375 1.5 4.5 2.375.875c.083 0 .168-.014.25 0 .169.028.331.097.5.125.164.027.333 0 .5 0h1.375 3.75 2.625.75.25c.042 0 .088.019.125 0 .053-.026.072-.099.125-.125.037-.019.083 0 .125 0h.25 1.5.25c.125 0 .254.03.375 0 .078-.02.172-.23.25-.25.162-.04.333 0 .5 0h.875 2.75 2.875.875c.125 0 .263.056.375 0 .037-.019-.037-.106 0-.125.031-.015.8 0 .875 0h1.625 5.5 12 4 1.125c.145 0 .512.028.625 0 .09-.023.16-.102.25-.125.121-.03.25 0 .375 0h.75 2.375c.293 0-.059.029.25-.125.037-.019.088.019.125 0 .105-.053.138-.213.25-.25.079-.026.191.059.25 0s-.026-.171 0-.25c.019-.056.083-.083.125-.125s.072-.099.125-.125c.074-.037.175.037.25 0 .053-.026.076-.092.125-.125.078-.052.184-.059.25-.125s.059-.184.125-.25c.03-.029.106.037.125 0 .037-.075-.059-.191 0-.25s.169.02.25 0c.287-.072.25-.064.25-.25M213.75 300c.563 1.111.494-.372.5-.375.074-.037.191.059.25 0 .04-.04-.035-.396 0-.5.019-.056.083-.083.125-.125 0-.083-.02-.169 0-.25.023-.09.042-.292.125-.25s-.208.292-.125.25c.158-.079.234-.269.375-.375.033-.025.106.037.125 0 .168-.336-.209-.166.125-.5m-4.125 1l.5-.5c.072-.06.173-.073.25-.125.098-.065.138-.213.25-.25.079-.026.175.037.25 0s-.037-.175 0-.25c.053-.105.197-.145.25-.25.019-.037-.013-.086 0-.125.03-.088.095-.162.125-.25.052-.155-.103-.136.125-.25.037-.019.088.019.125 0 .268-.134.01-.137.125-.375.019-.037.083 0 .125 0 .042-.042.106-.069.125-.125.026-.079-.083-.25 0-.25s0 .167 0 .25m16-33.875l-.125.5c-.021.123 0 .25 0 .375v.875c0 .101.026.422 0 .5-.03.088-.083.167-.125.25s-.073.172-.125.25c-.033.049-.099.072-.125.125-.033.066.015.439 0 .5-.151.604-.059-.006-.25.375-.019.037 0 .083 0 .125v.125.75 1c0 .124-.027.391 0 .5l.125.375c.042 0 .106-.037.125 0 .198.396-.259.116.125.5.167.167.12-.265.25.125.04.119 0 .25 0 .375V271c0 .125-.03.254 0 .375.023.09.095.162.125.25.037.113-.037.262 0 .375.03.088.102.16.125.25.087.349-.151.224.125.5m-10.375-62l-.125.5v.625c.019.056.099.072.125.125.019.037 0 .083 0 .125v1"/><path d="M145 217.25c0 .167.027.336 0 .5-.015.092-.095.162-.125.25-.026.079 0 .167 0 .25v.625 1.5.75c0 .125-.03.254 0 .375.151.604.059-.006.25.375.014.028 0 .47 0 .5m5.73-32.012h-3.75-.875c-.083 0-.171.026-.25 0-.056-.019-.069-.106-.125-.125-.119-.04-.256.04-.375 0-.088-.03-.173-.073-.25-.125-.049-.033-.069-.106-.125-.125-.067-.022-.394 0-.5 0h-1c-.11 0-.268.027-.375 0-.128-.032-.247-.093-.375-.125-.099-.025-.418 0-.5 0h-1.5-.625c-.105-.053-.138-.213-.25-.25-.079-.026-.167 0-.25 0h-.875-.625c-.053-.026-.072-.099-.125-.125-.037-.019-.083 0-.125 0h-.25-.625c-.083 0-.169.02-.25 0-.128-.032-.246-.099-.375-.125-.163-.033-.333 0-.5 0-.082 0-.304.024-.375 0-.088-.03-.16-.102-.25-.125-.081-.02-.171.026-.25 0-.272.047-.042-.208-.125-.25-.074-.037-.167 0-.25 0h-.25c-.042 0 .083 0 .125 0m82.317 3.118l.75.125c.356.079.646.286 1 .375.081.02.167 0 .25 0h.875 2.5 1.125.375c.083 0 .169.02.25 0 .09-.023.16-.102.25-.125.081-.02.167 0 .25 0 .042 0 .088.019.125 0 .053-.026.069-.106.125-.125.079-.026.169.02.25 0 .09-.023.16-.102.25-.125.843-.211-.699.455.75-.125.055-.022.069-.106.125-.125.079-.026.167 0 .25 0 .125 0 .252.024.375 0 .3-.06.364-.33.5-.375.057-.019.555 0 .625 0h1.125c.143 0 .37.032.5 0 .604-.151-.01-.059.375-.25.028-.014.47 0 .5 0h.875 1.75.625c.083 0 .169-.02.25 0 .604.151-.01.059.375.25.037.019.083 0 .125 0h.875"/><path d="M235.911 207.521c.277.536.812.017 1.164.177.058.026-.028.124 0 .177.052.094.336.259.388.354.028.053-.046.135 0 .177.102.093.308.067.388.177.071.098 0 .236 0 .354 0 .059.065.177 0 .177s0-.236 0-.177c0 .118-.032.239 0 .354-.351.74.306.204.388.354.058.105-.041.242 0 .354.029.079.165.098.194.177.041.112 0 .236 0 .354v.354 1.237 1.237.354c0 .059.021.121 0 .177-.046.125-.159.226-.194.354-.048.175.057.727 0 .884-.046.125-.148.229-.194.354-.061.168.047.359 0 .53-.035.128-.159.226-.194.354-.024.086.052.614 0 .707-.082.149-.306.204-.388.354-.065.117.054.559 0 .707-.046.125-.166.224-.194.354-.051.232 0 .78 0 1.061v.707c-.041.075-.153.102-.194.177-.028.053.029.124 0 .177-.041.075-.165.098-.194.177-.089.241.089.819 0 1.061-.028.079-.165.098-.194.177-.036.098 0 .883 0 1.061 0 .118.058.248 0 .354-.028.053-.165-.053-.194 0-.058.105.041.242 0 .354-.029.079-.129.118-.194.177-.065.118-.159.226-.194.354-.032.114.058.248 0 .354-.029.053-.129 0-.194 0-.065.059-.165.098-.194.177-.033.09 0 .934 0 1.061 0 .118.041.242 0 .354.072.385-.323.059-.388.177-.116.211.062.478 0 .707-.035.128-.148.229-.194.354-.041.112.058.248 0 .354-.041.075-.153.102-.194.177-.06.111.061.596 0 .707-.029.053-.165-.053-.194 0-.087.158.087.372 0 .53-.041.075-.153.102-.194.177-.029.053 0 .118 0 .177 0 .118.058.248 0 .354-.029.053-.165-.053-.194 0-.078.141.078.389 0 .53-.082.149-.33.195-.388.354-.041.112 0 .236 0 .354v.354 1.591.354.177-.354 1.061.177c0 .059-.028.124 0 .177.082.149.306.204.388.354.061.112-.054.737 0 .884-.072.385.323.059.388.177.058.105-.041.242 0 .354.028.079.153.102.194.177.028.053 0 .118 0 .177 0 .118-.041.242 0 .354.044.12.508.395.582.53.058.105-.058.248 0 .354.041.075.143.107.194.177.08.11.092.26.194.354.046.042.165-.053.194 0 .1.182-.056.504 0 .707.49 1.786-.07-.128.388.707.028.053-.021.121 0 .177.046.125.148.229.194.354.058.159-.058.371 0 .53.046.125.159.226.194.354.024.086-.052.614 0 .707.041.075.129.118.194.177 0 .118-.032.239 0 .354.234.854.092-.009.388.53.058.105-.058.248 0 .354.041.075.153.102.194.177.061.112-.054.737 0 .884.028.079.153.102.194.177.029.053-.029.124 0 .177.041.075.165.098.194.177.052.142-.056.959 0 1.061.041.075.153.102.194.177.058.105-.058.248 0 .354.041.075.165.098.194.177.036.098 0 .883 0 1.061 0 .118-.058.248 0 .354.029.053.148-.042.194 0 .057.052-.06.598 0 .707.041.075.129.118.194.177 0 .118-.032.239 0 .354-.117.32.314.329.388.53.041.112 0 .236 0 .354v.53c0 .059-.029.124 0 .177.041.075.165.098.194.177.041.112 0 .236 0 .354 0 .177-.047.359 0 .53.022.081.153.102.194.177.029.053-.021.121 0 .177.046.125.148.229.194.354.061.168-.062.716 0 .884.468 1.28-.056-.279.388.53.028.053 0 .118 0 .177v.177 1.061.177c0 .059-.029.124 0 .177.081.149.306.204.388.354.029.053-.015.12 0 .177.049.181.154.348.194.53.025.116 0 .236 0 .354v.707c0 .177-.061.363 0 .53.029.079.165.098.194.177.044.12-.052.79 0 .884.041.075.165.098.194.177.082.224-.062.478 0 .707-.117.32.314.329.388.53.037.101 0 .717 0 .884v2.475.707c0 .118-.032.239 0 .354-.117.32.314.329.388.53.061.168 0 .354 0 .53v1.061c0 .08-.03.477 0 .53.041.075.153.102.194.177.029.053 0 .118 0 .177v.354 1.237 1.591.354c0 .059.029.124 0 .177-.082.149-.33.195-.388.354-.081.224.081.483 0 .707-.029.079-.153.102-.194.177-.061.111.061.596 0 .707-.041.075-.153.102-.194.177-.029.053 0 .118 0 .177 0 .118.041.242 0 .354-.029.079-.153.102-.194.177-.028.053.029.124 0 .177-.041.075-.153.102-.194.177-.028.053.046.135 0 .177s-.148-.042-.194 0 0 .118 0 .177c0 .614-.137.405.194.707.065.059.153.102.194.177s0 .814 0 .884v1.591.884c.049.181.144.35.194.53.038.139 0 .592 0 .707s.041.242 0 .354c-.029.079-.153.102-.194.177-.028.053.029.124 0 .177-.041.075-.153.102-.194.177s.03.626 0 .707-.129.118-.194.177c0 .118.041.242 0 .354-.058.158-.306.204-.388.354-.087.158.087.372 0 .53-.029.053-.165-.053-.194 0-.116.211.116.496 0 .707-.029.053-.129 0-.194 0-.065.118-.148.229-.194.354-.06.165.059.721 0 .884-.029.079-.165.098-.194.177-.069.189.051.832 0 1.061-.041.183-.144.35-.194.53-.015.057.029.124 0 .177-.041.075-.153.102-.194.177-.059.107.059.953 0 1.061-.041.075-.165.098-.194.177-.082.224.062.478 0 .707.117.32-.314.329-.388.53-.041.112 0 .236 0 .354 0 .059.028.124 0 .177-.041.075-.153.102-.194.177-.028.053 0 .118 0 .177v.354 1.061 1.414.354c0 .118.129.354 0 .354s0-.471 0-.354v.53.177c0 .059.029.124 0 .177-.041.075-.153.102-.194.177-.031.056 0 .726 0 .884v1.768c0 .118.041.242 0 .354-.046.125-.159.226-.194.354-.044.158 0 .679 0 .884" stroke-width="1.047"/></g></svg>