<?xml version="1.0" encoding="UTF-8" standalone="no"?>
<svg
   xmlns:dc="http://purl.org/dc/elements/1.1/"
   xmlns:cc="http://creativecommons.org/ns#"
   xmlns:rdf="http://www.w3.org/1999/02/22-rdf-syntax-ns#"
   xmlns:svg="http://www.w3.org/2000/svg"
   xmlns="http://www.w3.org/2000/svg"
   xmlns:sodipodi="http://sodipodi.sourceforge.net/DTD/sodipodi-0.dtd"
   xmlns:inkscape="http://www.inkscape.org/namespaces/inkscape"
   width="185.333"
   height="234.667"
   viewBox="0 0 139 176"
   preserveAspectRatio="xMidYMid meet"
   version="1.1"
   id="svg12485"
   sodipodi:docname="bombilla_emoji.svg"
   inkscape:version="0.92.3 (2405546, 2018-03-11)">
  <metadata
     id="metadata12491">
    <rdf:RDF>
      <cc:Work
         rdf:about="">
        <dc:format>image/svg+xml</dc:format>
        <dc:type
           rdf:resource="http://purl.org/dc/dcmitype/StillImage" />
      </cc:Work>
    </rdf:RDF>
  </metadata>
  <defs
     id="defs12489" />
  <sodipodi:namedview
     pagecolor="#ffffff"
     bordercolor="#666666"
     borderopacity="1"
     objecttolerance="10"
     gridtolerance="10"
     guidetolerance="10"
     inkscape:pageopacity="0"
     inkscape:pageshadow="2"
     inkscape:window-width="1920"
     inkscape:window-height="1017"
     id="namedview12487"
     showgrid="false"
     inkscape:zoom="1.0056804"
     inkscape:cx="92.666496"
     inkscape:cy="117.3335"
     inkscape:window-x="-8"
     inkscape:window-y="-8"
     inkscape:window-maximized="1"
     inkscape:current-layer="g12483" />
  <path
     d="M53.985 24.17c-11.6 4.1-21.147 12.401-26.447 23.701-2.6 5.4-3.773 7.74-3.773 18.24 0 13.5 3.373 18.466 11.473 28.566 7.6 9.5 7.332 10.356 8.032 25.956.4 7.7 1.729 14.767 2.229 15.867 4.9 12.1 21.9 17.4 34.6 10.7 3.9-2 6.2-4.1 8.4-7.7 2.9-4.6 3.597-5.434 4.197-18.834.6-15.7.537-17.502 7.537-25.302 2.2-2.5 5.748-7.798 7.448-11.398 2.9-6.1 3.943-7.307 3.943-18.107 0-11.1-.91-12.869-4.21-19.569-4.4-9-11.699-15.305-20.599-19.605-6.3-3.1-8.248-4.296-17.348-4.596-7.9-.2-11.482.681-15.482 2.081zM75.1 26c8.4 1.6 17.1 6.4 22.5 12.3 14.5 16 14.7 38.7.4 55.2-5.8 6.7-8.2 12.4-8.3 19.6v5.9H67.8 46v-6.3c0-7.5-2.1-12.3-8-19.2-8.4-9.7-12.3-22.5-10.2-33.8 2.5-13.5 11.2-25 22.9-30.4 8.6-4 15.7-4.9 24.4-3.3zm14.7 96.7c.3 1-4.5 1.3-21.7 1.3-20.2 0-23.4-.4-21.4-2.4.4-.3 10.1-.5 21.7-.4 15.7.2 21 .6 21.4 1.5zm-.5 7.6C87.2 141.5 80.2 147 68 147s-19.2-5.5-21.3-16.7l-.6-3.3 21.2-.2c11.7-.2 21.5-.2 21.9 0 .4.1.5 1.7.1 3.5zM50 72.7c-1.1 1.4-1.9 3.1-1.7 3.7.6 1.9 2.2 1.6 3.2-.6.6-1.3 1.9-2.3 3-2.3s2.4 1 3 2.3c1 2.3 2.6 2.5 3.3.4.5-1.6-4.3-6.2-6.7-6.2-1.1 0-2.9 1.2-4.1 2.7zm27.5-.2c-2.7 2.6-3.3 5.5-1.2 5.5.7 0 1.7-1 2.2-2.3 1.3-2.9 4.7-2.9 6 .1 1 2.3 2.6 2.5 3.3.4.5-1.5-4.3-6.2-6.3-6.2-.9 0-2.7 1.1-4 2.5zm20.2 7.9c-.9 2-3.4 5.5-5.5 7.9C85.9 95.2 83.7 99 86 99c.6 0 1-.8 1-1.9 0-1 1.6-3.5 3.5-5.5 4.7-5 9.7-12.4 9.3-13.7-.2-.6-1.1.6-2.1 2.5zm-37.2 3.5c-1 1.8 1.8 6.5 4.8 7.9 2.2 1.1 3.2 1.1 5.4 0 3.3-1.5 6-6.5 4.5-8-.7-.7-1.4-.1-2.3 1.8-2.7 5.5-6.9 5.7-9.5.5-1.5-3-2.1-3.4-2.9-2.2zm4.8 46.8c2.6.2 6.7.2 9 0s.2-.3-4.8-.3c-4.9 0-6.8.1-4.2.3zM55 135.6c0 2.2 14.3 3.3 21 1.7 2.3-.6 2.4-.5 1 1.2-1.4 1.8-1.3 1.8 1.2 0 2.8-2.1 3.6-3.5 1.8-3.5a1.08 1.08 0 0 0-1 1c0 .7-.7.7-2 0-1.9-1-22-1.3-22-.4z"
     id="path12475" />
  <g
     stroke-linejoin="round"
     stroke-width="5.979"
     id="g12483">
    <path
       d="M46.079 113.559l-.541-6.958c-.907-3.997-3.185-8.092-7.147-12.852-7.286-8.75-10.955-18.075-10.955-27.84 0-12.227 6.507-24.875 16.722-32.503 4.35-3.248 10.894-6.17 16.5-7.368 3.12-.667 10.752-.662 14.097.008 8.446 1.693 16.9 6.221 22.292 11.938 11.801 12.515 14.675 30.111 7.402 45.332-1.796 3.758-3.396 6.197-6.995 10.664-3.143 3.9-3.983 5.178-5.417 8.237-1.804 3.85-2.171 5.67-2.31 11.472l-.116 5.313H67.92 46.229zm40.629-14.884c.174-.174.316-.625.316-1.003 0-1.063 1.161-3.113 2.911-5.141 5.078-5.883 9.184-11.604 9.797-13.646.641-2.138-.613-1.312-2.092 1.379-1.541 2.803-3.661 5.716-6.912 9.499-4.302 5.004-6.061 7.745-5.654 8.808.19.494 1.181.557 1.634.104zM70.27 92.141c2.767-1.186 5.535-4.888 5.365-7.176-.093-1.253-.718-1.838-1.465-1.37-.254.159-.856.989-1.339 1.844-1.311 2.324-1.985 3.106-3.267 3.786-.909.482-1.375.575-2.149.43-1.274-.239-2.764-1.592-3.714-3.372-1.02-1.913-1.943-3.112-2.393-3.112-.207 0-.568.293-.802.65-1.225 1.87 1.709 6.666 5.028 8.22 1.616.756 3.129.788 4.735.099zm6.944-14.393c.325-.228.889-1.003 1.254-1.723 1.543-3.044 4.174-3.099 5.953-.125 1.077 1.801 1.781 2.174 2.716 1.438 1.309-1.03.682-2.897-1.729-5.148-1.538-1.436-2.884-2.201-3.87-2.201-2.338 0-6.614 4.361-6.638 6.771-.007.685.645 1.403 1.273 1.403.247 0 .716-.186 1.041-.414zm-16.449-1.24c.358-1-.25-2.185-2.007-3.915-1.732-1.705-3.371-2.605-4.747-2.605-1.287 0-3.213 1.369-4.472 3.179-1.135 1.633-1.476 2.891-1.042 3.844.243.533.457.64 1.149.573.702-.068 1.035-.351 1.91-1.625 1.761-2.565 3.237-2.957 4.848-1.288.527.546 1.161 1.379 1.41 1.851.824 1.564 2.39 1.556 2.952-.014z"
       fill="#bdf3ea"
       stroke="#9e633b"
       stroke-opacity="0"
       paint-order="normal"
       id="path12477" />
    <path
       d="M64.744 146.689c-10.447-.954-16.025-6.361-18.149-17.593l-.348-1.838 5.293-.152c8.93-.257 34.191-.438 36.077-.259l1.78.169v1.246c0 1.918-1.192 6.181-2.429 8.683-1.6 3.237-4.495 6.134-7.59 7.596-2.692 1.271-5.002 1.86-8.553 2.18-2.958.267-2.798.268-6.081-.032zm12.872-7.594c2.686-1.861 3.957-3.572 3.065-4.123-.542-.335-1.556.139-1.723.804-.191.762-.336.787-1.567.273-1.225-.512-4.993-.873-11.065-1.06-4.885-.151-11.014.108-11.386.48-.417.417.967 1.246 2.906 1.742 4.229 1.081 14.482 1.238 17.848.273.502-.144 1.19-.262 1.53-.262h.617l-.769.989c-1.485 1.91-1.32 2.177.545.884zm-2.589-8.465c.107-.173-1.772-.257-5.456-.245-3.383.011-5.409.109-5.091.245.758.326 10.345.326 10.547 0z"
       fill="#f2cc7b"
       stroke="#ecd877"
       stroke-opacity="0"
       paint-order="normal"
       id="path12479" />
    <path
       d="M49.773 123.482c-1.273-.123-2.556-.352-2.85-.509-.891-.477-.5-1.135.817-1.378 1.809-.333 35.508-.046 38.484.328 2.8.352 3.8.707 3.097 1.1-.233.131-1.587.35-3.008.489-3.149.306-33.308.282-36.54-.029z"
       fill="#fff"
       stroke="#9e633b"
       stroke-opacity="0"
       paint-order="normal"
       id="path12481" />
  </g>
</svg>
